G04 (created by PCBNEW (2013-07-03 BZR 4236)-testing) date Thu 04 Jul 2013 10:30:45 AM CEST*
%MOIN*%
G04 Gerber Fmt 3.4, Leading zero omitted, Abs format*
%FSLAX34Y34*%
G01*
G70*
G90*
G04 APERTURE LIST*
%ADD10C,0.005906*%
%ADD11C,0.011811*%
%ADD12C,0.012000*%
%ADD13C,0.002600*%
%ADD14C,0.004000*%
%ADD15C,0.002000*%
%ADD16C,0.000100*%
%ADD17C,0.007874*%
%ADD18R,0.064961X0.064961*%
%ADD19C,0.064961*%
%ADD20R,0.047200X0.047200*%
%ADD21C,0.019685*%
%ADD22C,0.010000*%
G04 APERTURE END LIST*
G54D10*
G54D11*
X32269Y-30923D02*
X31670Y-30923D01*
X31970Y-30623D02*
X31970Y-31223D01*
X39700Y-35356D02*
X40299Y-35356D01*
G54D12*
X40470Y-29400D02*
X40470Y-30400D01*
X40470Y-30400D02*
X31470Y-30400D01*
X31470Y-30400D02*
X31470Y-29400D01*
X40470Y-29400D02*
X31470Y-29400D01*
X32470Y-29400D02*
X32470Y-30400D01*
G54D13*
X40088Y-31204D02*
X40216Y-31204D01*
X40216Y-31204D02*
X40216Y-31007D01*
X40088Y-31007D02*
X40216Y-31007D01*
X40088Y-31204D02*
X40088Y-31007D01*
X39843Y-31204D02*
X39902Y-31204D01*
X39902Y-31204D02*
X39902Y-31105D01*
X39843Y-31105D02*
X39902Y-31105D01*
X39843Y-31204D02*
X39843Y-31105D01*
X40038Y-31204D02*
X40097Y-31204D01*
X40097Y-31204D02*
X40097Y-31105D01*
X40038Y-31105D02*
X40097Y-31105D01*
X40038Y-31204D02*
X40038Y-31105D01*
X39892Y-31204D02*
X40048Y-31204D01*
X40048Y-31204D02*
X40048Y-31135D01*
X39892Y-31135D02*
X40048Y-31135D01*
X39892Y-31204D02*
X39892Y-31135D01*
X40088Y-31793D02*
X40216Y-31793D01*
X40216Y-31793D02*
X40216Y-31596D01*
X40088Y-31596D02*
X40216Y-31596D01*
X40088Y-31793D02*
X40088Y-31596D01*
X39724Y-31793D02*
X39852Y-31793D01*
X39852Y-31793D02*
X39852Y-31596D01*
X39724Y-31596D02*
X39852Y-31596D01*
X39724Y-31793D02*
X39724Y-31596D01*
X40038Y-31695D02*
X40097Y-31695D01*
X40097Y-31695D02*
X40097Y-31596D01*
X40038Y-31596D02*
X40097Y-31596D01*
X40038Y-31695D02*
X40038Y-31596D01*
X39843Y-31695D02*
X39902Y-31695D01*
X39902Y-31695D02*
X39902Y-31596D01*
X39843Y-31596D02*
X39902Y-31596D01*
X39843Y-31695D02*
X39843Y-31596D01*
X39892Y-31665D02*
X40048Y-31665D01*
X40048Y-31665D02*
X40048Y-31596D01*
X39892Y-31596D02*
X40048Y-31596D01*
X39892Y-31665D02*
X39892Y-31596D01*
X39931Y-31400D02*
X40009Y-31400D01*
X40009Y-31400D02*
X40009Y-31322D01*
X39931Y-31322D02*
X40009Y-31322D01*
X39931Y-31400D02*
X39931Y-31322D01*
X39734Y-31204D02*
X39852Y-31204D01*
X39852Y-31204D02*
X39852Y-31086D01*
X39734Y-31086D02*
X39852Y-31086D01*
X39734Y-31204D02*
X39734Y-31086D01*
X39724Y-31036D02*
X39813Y-31036D01*
X39813Y-31036D02*
X39813Y-31007D01*
X39724Y-31007D02*
X39813Y-31007D01*
X39724Y-31036D02*
X39724Y-31007D01*
G54D14*
X40196Y-31194D02*
X40196Y-31606D01*
X39744Y-31596D02*
X39744Y-31036D01*
G54D15*
X39821Y-31066D02*
G75*
G03X39821Y-31066I-28J0D01*
G74*
G01*
G54D14*
X39833Y-31007D02*
G75*
G03X40107Y-31007I137J0D01*
G74*
G01*
X40107Y-31793D02*
G75*
G03X39833Y-31793I-137J0D01*
G74*
G01*
G54D13*
X34088Y-31204D02*
X34216Y-31204D01*
X34216Y-31204D02*
X34216Y-31007D01*
X34088Y-31007D02*
X34216Y-31007D01*
X34088Y-31204D02*
X34088Y-31007D01*
X33843Y-31204D02*
X33902Y-31204D01*
X33902Y-31204D02*
X33902Y-31105D01*
X33843Y-31105D02*
X33902Y-31105D01*
X33843Y-31204D02*
X33843Y-31105D01*
X34038Y-31204D02*
X34097Y-31204D01*
X34097Y-31204D02*
X34097Y-31105D01*
X34038Y-31105D02*
X34097Y-31105D01*
X34038Y-31204D02*
X34038Y-31105D01*
X33892Y-31204D02*
X34048Y-31204D01*
X34048Y-31204D02*
X34048Y-31135D01*
X33892Y-31135D02*
X34048Y-31135D01*
X33892Y-31204D02*
X33892Y-31135D01*
X34088Y-31793D02*
X34216Y-31793D01*
X34216Y-31793D02*
X34216Y-31596D01*
X34088Y-31596D02*
X34216Y-31596D01*
X34088Y-31793D02*
X34088Y-31596D01*
X33724Y-31793D02*
X33852Y-31793D01*
X33852Y-31793D02*
X33852Y-31596D01*
X33724Y-31596D02*
X33852Y-31596D01*
X33724Y-31793D02*
X33724Y-31596D01*
X34038Y-31695D02*
X34097Y-31695D01*
X34097Y-31695D02*
X34097Y-31596D01*
X34038Y-31596D02*
X34097Y-31596D01*
X34038Y-31695D02*
X34038Y-31596D01*
X33843Y-31695D02*
X33902Y-31695D01*
X33902Y-31695D02*
X33902Y-31596D01*
X33843Y-31596D02*
X33902Y-31596D01*
X33843Y-31695D02*
X33843Y-31596D01*
X33892Y-31665D02*
X34048Y-31665D01*
X34048Y-31665D02*
X34048Y-31596D01*
X33892Y-31596D02*
X34048Y-31596D01*
X33892Y-31665D02*
X33892Y-31596D01*
X33931Y-31400D02*
X34009Y-31400D01*
X34009Y-31400D02*
X34009Y-31322D01*
X33931Y-31322D02*
X34009Y-31322D01*
X33931Y-31400D02*
X33931Y-31322D01*
X33734Y-31204D02*
X33852Y-31204D01*
X33852Y-31204D02*
X33852Y-31086D01*
X33734Y-31086D02*
X33852Y-31086D01*
X33734Y-31204D02*
X33734Y-31086D01*
X33724Y-31036D02*
X33813Y-31036D01*
X33813Y-31036D02*
X33813Y-31007D01*
X33724Y-31007D02*
X33813Y-31007D01*
X33724Y-31036D02*
X33724Y-31007D01*
G54D14*
X34196Y-31194D02*
X34196Y-31606D01*
X33744Y-31596D02*
X33744Y-31036D01*
G54D15*
X33821Y-31066D02*
G75*
G03X33821Y-31066I-28J0D01*
G74*
G01*
G54D14*
X33833Y-31007D02*
G75*
G03X34107Y-31007I137J0D01*
G74*
G01*
X34107Y-31793D02*
G75*
G03X33833Y-31793I-137J0D01*
G74*
G01*
G54D13*
X39088Y-31204D02*
X39216Y-31204D01*
X39216Y-31204D02*
X39216Y-31007D01*
X39088Y-31007D02*
X39216Y-31007D01*
X39088Y-31204D02*
X39088Y-31007D01*
X38843Y-31204D02*
X38902Y-31204D01*
X38902Y-31204D02*
X38902Y-31105D01*
X38843Y-31105D02*
X38902Y-31105D01*
X38843Y-31204D02*
X38843Y-31105D01*
X39038Y-31204D02*
X39097Y-31204D01*
X39097Y-31204D02*
X39097Y-31105D01*
X39038Y-31105D02*
X39097Y-31105D01*
X39038Y-31204D02*
X39038Y-31105D01*
X38892Y-31204D02*
X39048Y-31204D01*
X39048Y-31204D02*
X39048Y-31135D01*
X38892Y-31135D02*
X39048Y-31135D01*
X38892Y-31204D02*
X38892Y-31135D01*
X39088Y-31793D02*
X39216Y-31793D01*
X39216Y-31793D02*
X39216Y-31596D01*
X39088Y-31596D02*
X39216Y-31596D01*
X39088Y-31793D02*
X39088Y-31596D01*
X38724Y-31793D02*
X38852Y-31793D01*
X38852Y-31793D02*
X38852Y-31596D01*
X38724Y-31596D02*
X38852Y-31596D01*
X38724Y-31793D02*
X38724Y-31596D01*
X39038Y-31695D02*
X39097Y-31695D01*
X39097Y-31695D02*
X39097Y-31596D01*
X39038Y-31596D02*
X39097Y-31596D01*
X39038Y-31695D02*
X39038Y-31596D01*
X38843Y-31695D02*
X38902Y-31695D01*
X38902Y-31695D02*
X38902Y-31596D01*
X38843Y-31596D02*
X38902Y-31596D01*
X38843Y-31695D02*
X38843Y-31596D01*
X38892Y-31665D02*
X39048Y-31665D01*
X39048Y-31665D02*
X39048Y-31596D01*
X38892Y-31596D02*
X39048Y-31596D01*
X38892Y-31665D02*
X38892Y-31596D01*
X38931Y-31400D02*
X39009Y-31400D01*
X39009Y-31400D02*
X39009Y-31322D01*
X38931Y-31322D02*
X39009Y-31322D01*
X38931Y-31400D02*
X38931Y-31322D01*
X38734Y-31204D02*
X38852Y-31204D01*
X38852Y-31204D02*
X38852Y-31086D01*
X38734Y-31086D02*
X38852Y-31086D01*
X38734Y-31204D02*
X38734Y-31086D01*
X38724Y-31036D02*
X38813Y-31036D01*
X38813Y-31036D02*
X38813Y-31007D01*
X38724Y-31007D02*
X38813Y-31007D01*
X38724Y-31036D02*
X38724Y-31007D01*
G54D14*
X39196Y-31194D02*
X39196Y-31606D01*
X38744Y-31596D02*
X38744Y-31036D01*
G54D15*
X38821Y-31066D02*
G75*
G03X38821Y-31066I-28J0D01*
G74*
G01*
G54D14*
X38833Y-31007D02*
G75*
G03X39107Y-31007I137J0D01*
G74*
G01*
X39107Y-31793D02*
G75*
G03X38833Y-31793I-137J0D01*
G74*
G01*
G54D13*
X38088Y-31204D02*
X38216Y-31204D01*
X38216Y-31204D02*
X38216Y-31007D01*
X38088Y-31007D02*
X38216Y-31007D01*
X38088Y-31204D02*
X38088Y-31007D01*
X37843Y-31204D02*
X37902Y-31204D01*
X37902Y-31204D02*
X37902Y-31105D01*
X37843Y-31105D02*
X37902Y-31105D01*
X37843Y-31204D02*
X37843Y-31105D01*
X38038Y-31204D02*
X38097Y-31204D01*
X38097Y-31204D02*
X38097Y-31105D01*
X38038Y-31105D02*
X38097Y-31105D01*
X38038Y-31204D02*
X38038Y-31105D01*
X37892Y-31204D02*
X38048Y-31204D01*
X38048Y-31204D02*
X38048Y-31135D01*
X37892Y-31135D02*
X38048Y-31135D01*
X37892Y-31204D02*
X37892Y-31135D01*
X38088Y-31793D02*
X38216Y-31793D01*
X38216Y-31793D02*
X38216Y-31596D01*
X38088Y-31596D02*
X38216Y-31596D01*
X38088Y-31793D02*
X38088Y-31596D01*
X37724Y-31793D02*
X37852Y-31793D01*
X37852Y-31793D02*
X37852Y-31596D01*
X37724Y-31596D02*
X37852Y-31596D01*
X37724Y-31793D02*
X37724Y-31596D01*
X38038Y-31695D02*
X38097Y-31695D01*
X38097Y-31695D02*
X38097Y-31596D01*
X38038Y-31596D02*
X38097Y-31596D01*
X38038Y-31695D02*
X38038Y-31596D01*
X37843Y-31695D02*
X37902Y-31695D01*
X37902Y-31695D02*
X37902Y-31596D01*
X37843Y-31596D02*
X37902Y-31596D01*
X37843Y-31695D02*
X37843Y-31596D01*
X37892Y-31665D02*
X38048Y-31665D01*
X38048Y-31665D02*
X38048Y-31596D01*
X37892Y-31596D02*
X38048Y-31596D01*
X37892Y-31665D02*
X37892Y-31596D01*
X37931Y-31400D02*
X38009Y-31400D01*
X38009Y-31400D02*
X38009Y-31322D01*
X37931Y-31322D02*
X38009Y-31322D01*
X37931Y-31400D02*
X37931Y-31322D01*
X37734Y-31204D02*
X37852Y-31204D01*
X37852Y-31204D02*
X37852Y-31086D01*
X37734Y-31086D02*
X37852Y-31086D01*
X37734Y-31204D02*
X37734Y-31086D01*
X37724Y-31036D02*
X37813Y-31036D01*
X37813Y-31036D02*
X37813Y-31007D01*
X37724Y-31007D02*
X37813Y-31007D01*
X37724Y-31036D02*
X37724Y-31007D01*
G54D14*
X38196Y-31194D02*
X38196Y-31606D01*
X37744Y-31596D02*
X37744Y-31036D01*
G54D15*
X37821Y-31066D02*
G75*
G03X37821Y-31066I-28J0D01*
G74*
G01*
G54D14*
X37833Y-31007D02*
G75*
G03X38107Y-31007I137J0D01*
G74*
G01*
X38107Y-31793D02*
G75*
G03X37833Y-31793I-137J0D01*
G74*
G01*
G54D13*
X37088Y-31204D02*
X37216Y-31204D01*
X37216Y-31204D02*
X37216Y-31007D01*
X37088Y-31007D02*
X37216Y-31007D01*
X37088Y-31204D02*
X37088Y-31007D01*
X36843Y-31204D02*
X36902Y-31204D01*
X36902Y-31204D02*
X36902Y-31105D01*
X36843Y-31105D02*
X36902Y-31105D01*
X36843Y-31204D02*
X36843Y-31105D01*
X37038Y-31204D02*
X37097Y-31204D01*
X37097Y-31204D02*
X37097Y-31105D01*
X37038Y-31105D02*
X37097Y-31105D01*
X37038Y-31204D02*
X37038Y-31105D01*
X36892Y-31204D02*
X37048Y-31204D01*
X37048Y-31204D02*
X37048Y-31135D01*
X36892Y-31135D02*
X37048Y-31135D01*
X36892Y-31204D02*
X36892Y-31135D01*
X37088Y-31793D02*
X37216Y-31793D01*
X37216Y-31793D02*
X37216Y-31596D01*
X37088Y-31596D02*
X37216Y-31596D01*
X37088Y-31793D02*
X37088Y-31596D01*
X36724Y-31793D02*
X36852Y-31793D01*
X36852Y-31793D02*
X36852Y-31596D01*
X36724Y-31596D02*
X36852Y-31596D01*
X36724Y-31793D02*
X36724Y-31596D01*
X37038Y-31695D02*
X37097Y-31695D01*
X37097Y-31695D02*
X37097Y-31596D01*
X37038Y-31596D02*
X37097Y-31596D01*
X37038Y-31695D02*
X37038Y-31596D01*
X36843Y-31695D02*
X36902Y-31695D01*
X36902Y-31695D02*
X36902Y-31596D01*
X36843Y-31596D02*
X36902Y-31596D01*
X36843Y-31695D02*
X36843Y-31596D01*
X36892Y-31665D02*
X37048Y-31665D01*
X37048Y-31665D02*
X37048Y-31596D01*
X36892Y-31596D02*
X37048Y-31596D01*
X36892Y-31665D02*
X36892Y-31596D01*
X36931Y-31400D02*
X37009Y-31400D01*
X37009Y-31400D02*
X37009Y-31322D01*
X36931Y-31322D02*
X37009Y-31322D01*
X36931Y-31400D02*
X36931Y-31322D01*
X36734Y-31204D02*
X36852Y-31204D01*
X36852Y-31204D02*
X36852Y-31086D01*
X36734Y-31086D02*
X36852Y-31086D01*
X36734Y-31204D02*
X36734Y-31086D01*
X36724Y-31036D02*
X36813Y-31036D01*
X36813Y-31036D02*
X36813Y-31007D01*
X36724Y-31007D02*
X36813Y-31007D01*
X36724Y-31036D02*
X36724Y-31007D01*
G54D14*
X37196Y-31194D02*
X37196Y-31606D01*
X36744Y-31596D02*
X36744Y-31036D01*
G54D15*
X36821Y-31066D02*
G75*
G03X36821Y-31066I-28J0D01*
G74*
G01*
G54D14*
X36833Y-31007D02*
G75*
G03X37107Y-31007I137J0D01*
G74*
G01*
X37107Y-31793D02*
G75*
G03X36833Y-31793I-137J0D01*
G74*
G01*
G54D13*
X36088Y-31204D02*
X36216Y-31204D01*
X36216Y-31204D02*
X36216Y-31007D01*
X36088Y-31007D02*
X36216Y-31007D01*
X36088Y-31204D02*
X36088Y-31007D01*
X35843Y-31204D02*
X35902Y-31204D01*
X35902Y-31204D02*
X35902Y-31105D01*
X35843Y-31105D02*
X35902Y-31105D01*
X35843Y-31204D02*
X35843Y-31105D01*
X36038Y-31204D02*
X36097Y-31204D01*
X36097Y-31204D02*
X36097Y-31105D01*
X36038Y-31105D02*
X36097Y-31105D01*
X36038Y-31204D02*
X36038Y-31105D01*
X35892Y-31204D02*
X36048Y-31204D01*
X36048Y-31204D02*
X36048Y-31135D01*
X35892Y-31135D02*
X36048Y-31135D01*
X35892Y-31204D02*
X35892Y-31135D01*
X36088Y-31793D02*
X36216Y-31793D01*
X36216Y-31793D02*
X36216Y-31596D01*
X36088Y-31596D02*
X36216Y-31596D01*
X36088Y-31793D02*
X36088Y-31596D01*
X35724Y-31793D02*
X35852Y-31793D01*
X35852Y-31793D02*
X35852Y-31596D01*
X35724Y-31596D02*
X35852Y-31596D01*
X35724Y-31793D02*
X35724Y-31596D01*
X36038Y-31695D02*
X36097Y-31695D01*
X36097Y-31695D02*
X36097Y-31596D01*
X36038Y-31596D02*
X36097Y-31596D01*
X36038Y-31695D02*
X36038Y-31596D01*
X35843Y-31695D02*
X35902Y-31695D01*
X35902Y-31695D02*
X35902Y-31596D01*
X35843Y-31596D02*
X35902Y-31596D01*
X35843Y-31695D02*
X35843Y-31596D01*
X35892Y-31665D02*
X36048Y-31665D01*
X36048Y-31665D02*
X36048Y-31596D01*
X35892Y-31596D02*
X36048Y-31596D01*
X35892Y-31665D02*
X35892Y-31596D01*
X35931Y-31400D02*
X36009Y-31400D01*
X36009Y-31400D02*
X36009Y-31322D01*
X35931Y-31322D02*
X36009Y-31322D01*
X35931Y-31400D02*
X35931Y-31322D01*
X35734Y-31204D02*
X35852Y-31204D01*
X35852Y-31204D02*
X35852Y-31086D01*
X35734Y-31086D02*
X35852Y-31086D01*
X35734Y-31204D02*
X35734Y-31086D01*
X35724Y-31036D02*
X35813Y-31036D01*
X35813Y-31036D02*
X35813Y-31007D01*
X35724Y-31007D02*
X35813Y-31007D01*
X35724Y-31036D02*
X35724Y-31007D01*
G54D14*
X36196Y-31194D02*
X36196Y-31606D01*
X35744Y-31596D02*
X35744Y-31036D01*
G54D15*
X35821Y-31066D02*
G75*
G03X35821Y-31066I-28J0D01*
G74*
G01*
G54D14*
X35833Y-31007D02*
G75*
G03X36107Y-31007I137J0D01*
G74*
G01*
X36107Y-31793D02*
G75*
G03X35833Y-31793I-137J0D01*
G74*
G01*
G54D13*
X35088Y-31204D02*
X35216Y-31204D01*
X35216Y-31204D02*
X35216Y-31007D01*
X35088Y-31007D02*
X35216Y-31007D01*
X35088Y-31204D02*
X35088Y-31007D01*
X34843Y-31204D02*
X34902Y-31204D01*
X34902Y-31204D02*
X34902Y-31105D01*
X34843Y-31105D02*
X34902Y-31105D01*
X34843Y-31204D02*
X34843Y-31105D01*
X35038Y-31204D02*
X35097Y-31204D01*
X35097Y-31204D02*
X35097Y-31105D01*
X35038Y-31105D02*
X35097Y-31105D01*
X35038Y-31204D02*
X35038Y-31105D01*
X34892Y-31204D02*
X35048Y-31204D01*
X35048Y-31204D02*
X35048Y-31135D01*
X34892Y-31135D02*
X35048Y-31135D01*
X34892Y-31204D02*
X34892Y-31135D01*
X35088Y-31793D02*
X35216Y-31793D01*
X35216Y-31793D02*
X35216Y-31596D01*
X35088Y-31596D02*
X35216Y-31596D01*
X35088Y-31793D02*
X35088Y-31596D01*
X34724Y-31793D02*
X34852Y-31793D01*
X34852Y-31793D02*
X34852Y-31596D01*
X34724Y-31596D02*
X34852Y-31596D01*
X34724Y-31793D02*
X34724Y-31596D01*
X35038Y-31695D02*
X35097Y-31695D01*
X35097Y-31695D02*
X35097Y-31596D01*
X35038Y-31596D02*
X35097Y-31596D01*
X35038Y-31695D02*
X35038Y-31596D01*
X34843Y-31695D02*
X34902Y-31695D01*
X34902Y-31695D02*
X34902Y-31596D01*
X34843Y-31596D02*
X34902Y-31596D01*
X34843Y-31695D02*
X34843Y-31596D01*
X34892Y-31665D02*
X35048Y-31665D01*
X35048Y-31665D02*
X35048Y-31596D01*
X34892Y-31596D02*
X35048Y-31596D01*
X34892Y-31665D02*
X34892Y-31596D01*
X34931Y-31400D02*
X35009Y-31400D01*
X35009Y-31400D02*
X35009Y-31322D01*
X34931Y-31322D02*
X35009Y-31322D01*
X34931Y-31400D02*
X34931Y-31322D01*
X34734Y-31204D02*
X34852Y-31204D01*
X34852Y-31204D02*
X34852Y-31086D01*
X34734Y-31086D02*
X34852Y-31086D01*
X34734Y-31204D02*
X34734Y-31086D01*
X34724Y-31036D02*
X34813Y-31036D01*
X34813Y-31036D02*
X34813Y-31007D01*
X34724Y-31007D02*
X34813Y-31007D01*
X34724Y-31036D02*
X34724Y-31007D01*
G54D14*
X35196Y-31194D02*
X35196Y-31606D01*
X34744Y-31596D02*
X34744Y-31036D01*
G54D15*
X34821Y-31066D02*
G75*
G03X34821Y-31066I-28J0D01*
G74*
G01*
G54D14*
X34833Y-31007D02*
G75*
G03X35107Y-31007I137J0D01*
G74*
G01*
X35107Y-31793D02*
G75*
G03X34833Y-31793I-137J0D01*
G74*
G01*
G54D13*
X33088Y-31204D02*
X33216Y-31204D01*
X33216Y-31204D02*
X33216Y-31007D01*
X33088Y-31007D02*
X33216Y-31007D01*
X33088Y-31204D02*
X33088Y-31007D01*
X32843Y-31204D02*
X32902Y-31204D01*
X32902Y-31204D02*
X32902Y-31105D01*
X32843Y-31105D02*
X32902Y-31105D01*
X32843Y-31204D02*
X32843Y-31105D01*
X33038Y-31204D02*
X33097Y-31204D01*
X33097Y-31204D02*
X33097Y-31105D01*
X33038Y-31105D02*
X33097Y-31105D01*
X33038Y-31204D02*
X33038Y-31105D01*
X32892Y-31204D02*
X33048Y-31204D01*
X33048Y-31204D02*
X33048Y-31135D01*
X32892Y-31135D02*
X33048Y-31135D01*
X32892Y-31204D02*
X32892Y-31135D01*
X33088Y-31793D02*
X33216Y-31793D01*
X33216Y-31793D02*
X33216Y-31596D01*
X33088Y-31596D02*
X33216Y-31596D01*
X33088Y-31793D02*
X33088Y-31596D01*
X32724Y-31793D02*
X32852Y-31793D01*
X32852Y-31793D02*
X32852Y-31596D01*
X32724Y-31596D02*
X32852Y-31596D01*
X32724Y-31793D02*
X32724Y-31596D01*
X33038Y-31695D02*
X33097Y-31695D01*
X33097Y-31695D02*
X33097Y-31596D01*
X33038Y-31596D02*
X33097Y-31596D01*
X33038Y-31695D02*
X33038Y-31596D01*
X32843Y-31695D02*
X32902Y-31695D01*
X32902Y-31695D02*
X32902Y-31596D01*
X32843Y-31596D02*
X32902Y-31596D01*
X32843Y-31695D02*
X32843Y-31596D01*
X32892Y-31665D02*
X33048Y-31665D01*
X33048Y-31665D02*
X33048Y-31596D01*
X32892Y-31596D02*
X33048Y-31596D01*
X32892Y-31665D02*
X32892Y-31596D01*
X32931Y-31400D02*
X33009Y-31400D01*
X33009Y-31400D02*
X33009Y-31322D01*
X32931Y-31322D02*
X33009Y-31322D01*
X32931Y-31400D02*
X32931Y-31322D01*
X32734Y-31204D02*
X32852Y-31204D01*
X32852Y-31204D02*
X32852Y-31086D01*
X32734Y-31086D02*
X32852Y-31086D01*
X32734Y-31204D02*
X32734Y-31086D01*
X32724Y-31036D02*
X32813Y-31036D01*
X32813Y-31036D02*
X32813Y-31007D01*
X32724Y-31007D02*
X32813Y-31007D01*
X32724Y-31036D02*
X32724Y-31007D01*
G54D14*
X33196Y-31194D02*
X33196Y-31606D01*
X32744Y-31596D02*
X32744Y-31036D01*
G54D15*
X32821Y-31066D02*
G75*
G03X32821Y-31066I-28J0D01*
G74*
G01*
G54D14*
X32833Y-31007D02*
G75*
G03X33107Y-31007I137J0D01*
G74*
G01*
X33107Y-31793D02*
G75*
G03X32833Y-31793I-137J0D01*
G74*
G01*
G54D16*
G36*
X31827Y-31514D02*
X31812Y-31516D01*
X31799Y-31520D01*
X31793Y-31523D01*
X31780Y-31532D01*
X31770Y-31543D01*
X31763Y-31555D01*
X31758Y-31569D01*
X31755Y-31583D01*
X31756Y-31598D01*
X31759Y-31612D01*
X31766Y-31626D01*
X31770Y-31632D01*
X31776Y-31639D01*
X31783Y-31645D01*
X31789Y-31650D01*
X31791Y-31651D01*
X31804Y-31657D01*
X31817Y-31660D01*
X31832Y-31661D01*
X31837Y-31661D01*
X31845Y-31660D01*
X31852Y-31658D01*
X31860Y-31654D01*
X31869Y-31650D01*
X31881Y-31640D01*
X31890Y-31628D01*
X31898Y-31615D01*
X31900Y-31609D01*
X31902Y-31601D01*
X31903Y-31596D01*
X31903Y-31595D01*
X31903Y-31595D01*
X31903Y-31598D01*
X31903Y-31598D01*
X31906Y-31608D01*
X31909Y-31617D01*
X31914Y-31626D01*
X31922Y-31637D01*
X31933Y-31647D01*
X31946Y-31655D01*
X31961Y-31660D01*
X31976Y-31661D01*
X31980Y-31661D01*
X31992Y-31660D01*
X32003Y-31657D01*
X32005Y-31656D01*
X32018Y-31649D01*
X32029Y-31640D01*
X32038Y-31628D01*
X32045Y-31616D01*
X32049Y-31603D01*
X32049Y-31602D01*
X32050Y-31599D01*
X32050Y-31597D01*
X32050Y-31597D01*
X32050Y-31599D01*
X32051Y-31603D01*
X32051Y-31604D01*
X32056Y-31617D01*
X32063Y-31630D01*
X32072Y-31641D01*
X32081Y-31648D01*
X32094Y-31655D01*
X32108Y-31660D01*
X32124Y-31661D01*
X32135Y-31660D01*
X32149Y-31657D01*
X32163Y-31650D01*
X32175Y-31641D01*
X32184Y-31629D01*
X32186Y-31627D01*
X32189Y-31622D01*
X32191Y-31617D01*
X32192Y-31614D01*
X32195Y-31607D01*
X32196Y-31601D01*
X32197Y-31596D01*
X32197Y-31595D01*
X32197Y-31595D01*
X32198Y-31598D01*
X32199Y-31606D01*
X32203Y-31616D01*
X32207Y-31625D01*
X32216Y-31637D01*
X32228Y-31647D01*
X32241Y-31655D01*
X32255Y-31660D01*
X32270Y-31661D01*
X32284Y-31660D01*
X32299Y-31656D01*
X32312Y-31649D01*
X32324Y-31639D01*
X32330Y-31632D01*
X32335Y-31624D01*
X32340Y-31615D01*
X32342Y-31607D01*
X32345Y-31592D01*
X32344Y-31578D01*
X32341Y-31564D01*
X32335Y-31551D01*
X32327Y-31540D01*
X32317Y-31530D01*
X32305Y-31522D01*
X32292Y-31517D01*
X32277Y-31514D01*
X32275Y-31514D01*
X32260Y-31514D01*
X32246Y-31518D01*
X32233Y-31524D01*
X32228Y-31528D01*
X32218Y-31536D01*
X32209Y-31547D01*
X32203Y-31558D01*
X32202Y-31562D01*
X32200Y-31568D01*
X32198Y-31575D01*
X32197Y-31580D01*
X32197Y-31583D01*
X32197Y-31580D01*
X32197Y-31577D01*
X32195Y-31571D01*
X32193Y-31563D01*
X32191Y-31557D01*
X32187Y-31550D01*
X32178Y-31538D01*
X32167Y-31528D01*
X32154Y-31520D01*
X32139Y-31515D01*
X32137Y-31515D01*
X32127Y-31514D01*
X32116Y-31514D01*
X32106Y-31516D01*
X32096Y-31519D01*
X32083Y-31526D01*
X32070Y-31536D01*
X32070Y-31537D01*
X32061Y-31547D01*
X32055Y-31560D01*
X32051Y-31572D01*
X32051Y-31573D01*
X32050Y-31576D01*
X32050Y-31578D01*
X32050Y-31577D01*
X32049Y-31574D01*
X32049Y-31573D01*
X32047Y-31565D01*
X32044Y-31557D01*
X32039Y-31549D01*
X32033Y-31540D01*
X32022Y-31529D01*
X32009Y-31521D01*
X31994Y-31516D01*
X31992Y-31515D01*
X31982Y-31514D01*
X31971Y-31514D01*
X31961Y-31515D01*
X31953Y-31518D01*
X31939Y-31524D01*
X31927Y-31533D01*
X31917Y-31544D01*
X31909Y-31557D01*
X31908Y-31561D01*
X31905Y-31568D01*
X31904Y-31575D01*
X31903Y-31580D01*
X31903Y-31580D01*
X31903Y-31580D01*
X31902Y-31577D01*
X31902Y-31577D01*
X31900Y-31568D01*
X31896Y-31558D01*
X31892Y-31549D01*
X31890Y-31546D01*
X31881Y-31535D01*
X31869Y-31526D01*
X31856Y-31519D01*
X31842Y-31515D01*
X31827Y-31514D01*
X31827Y-31514D01*
G37*
G36*
X32423Y-31661D02*
X32414Y-31662D01*
X32406Y-31662D01*
X32396Y-31665D01*
X32382Y-31671D01*
X32370Y-31680D01*
X32360Y-31691D01*
X32352Y-31704D01*
X32347Y-31718D01*
X32345Y-31733D01*
X32346Y-31748D01*
X32350Y-31762D01*
X32356Y-31775D01*
X32366Y-31787D01*
X32378Y-31797D01*
X32381Y-31799D01*
X32396Y-31805D01*
X32410Y-31809D01*
X32426Y-31809D01*
X32441Y-31806D01*
X32453Y-31801D01*
X32466Y-31792D01*
X32476Y-31781D01*
X32485Y-31768D01*
X32490Y-31753D01*
X32492Y-31746D01*
X32492Y-31736D01*
X32492Y-31727D01*
X32491Y-31719D01*
X32490Y-31716D01*
X32484Y-31701D01*
X32476Y-31688D01*
X32464Y-31677D01*
X32451Y-31669D01*
X32445Y-31666D01*
X32436Y-31663D01*
X32428Y-31662D01*
X32423Y-31661D01*
X32423Y-31661D01*
G37*
G36*
X31680Y-31661D02*
X31665Y-31663D01*
X31650Y-31668D01*
X31636Y-31677D01*
X31633Y-31679D01*
X31623Y-31690D01*
X31615Y-31703D01*
X31610Y-31717D01*
X31608Y-31725D01*
X31608Y-31734D01*
X31608Y-31744D01*
X31609Y-31751D01*
X31610Y-31755D01*
X31616Y-31770D01*
X31624Y-31782D01*
X31635Y-31793D01*
X31648Y-31801D01*
X31662Y-31806D01*
X31677Y-31809D01*
X31683Y-31809D01*
X31698Y-31807D01*
X31712Y-31803D01*
X31724Y-31795D01*
X31735Y-31786D01*
X31744Y-31774D01*
X31750Y-31761D01*
X31754Y-31747D01*
X31755Y-31732D01*
X31754Y-31723D01*
X31752Y-31715D01*
X31749Y-31706D01*
X31743Y-31695D01*
X31734Y-31683D01*
X31722Y-31674D01*
X31709Y-31667D01*
X31695Y-31663D01*
X31680Y-31661D01*
X31680Y-31661D01*
G37*
G36*
X32570Y-31809D02*
X32560Y-31809D01*
X32551Y-31811D01*
X32540Y-31814D01*
X32527Y-31821D01*
X32514Y-31831D01*
X32506Y-31840D01*
X32499Y-31853D01*
X32494Y-31867D01*
X32493Y-31873D01*
X32493Y-31882D01*
X32493Y-31891D01*
X32494Y-31898D01*
X32495Y-31903D01*
X32501Y-31917D01*
X32509Y-31930D01*
X32520Y-31941D01*
X32534Y-31949D01*
X32539Y-31951D01*
X32548Y-31955D01*
X32558Y-31956D01*
X32569Y-31956D01*
X32576Y-31956D01*
X32584Y-31955D01*
X32591Y-31953D01*
X32599Y-31949D01*
X32604Y-31946D01*
X32616Y-31937D01*
X32626Y-31926D01*
X32634Y-31912D01*
X32639Y-31897D01*
X32639Y-31894D01*
X32640Y-31885D01*
X32640Y-31876D01*
X32639Y-31868D01*
X32638Y-31863D01*
X32632Y-31849D01*
X32623Y-31836D01*
X32613Y-31825D01*
X32599Y-31817D01*
X32585Y-31811D01*
X32580Y-31810D01*
X32570Y-31809D01*
X32570Y-31809D01*
G37*
G36*
X31978Y-31809D02*
X31964Y-31810D01*
X31950Y-31814D01*
X31941Y-31818D01*
X31929Y-31827D01*
X31918Y-31838D01*
X31910Y-31851D01*
X31905Y-31865D01*
X31904Y-31868D01*
X31903Y-31880D01*
X31903Y-31891D01*
X31906Y-31904D01*
X31912Y-31919D01*
X31921Y-31931D01*
X31932Y-31941D01*
X31945Y-31949D01*
X31960Y-31955D01*
X31969Y-31957D01*
X31964Y-31958D01*
X31963Y-31958D01*
X31953Y-31961D01*
X31942Y-31966D01*
X31931Y-31972D01*
X31930Y-31974D01*
X31919Y-31984D01*
X31911Y-31997D01*
X31906Y-32011D01*
X31903Y-32025D01*
X31903Y-32039D01*
X31907Y-32053D01*
X31913Y-32067D01*
X31913Y-32068D01*
X31923Y-32080D01*
X31934Y-32090D01*
X31946Y-32097D01*
X31960Y-32101D01*
X31974Y-32103D01*
X31988Y-32102D01*
X32002Y-32099D01*
X32015Y-32092D01*
X32028Y-32083D01*
X32034Y-32076D01*
X32041Y-32065D01*
X32047Y-32054D01*
X32049Y-32043D01*
X32050Y-32040D01*
X32050Y-32039D01*
X32050Y-32040D01*
X32051Y-32043D01*
X32053Y-32053D01*
X32058Y-32063D01*
X32064Y-32073D01*
X32068Y-32078D01*
X32079Y-32088D01*
X32092Y-32096D01*
X32106Y-32101D01*
X32121Y-32103D01*
X32136Y-32102D01*
X32145Y-32100D01*
X32159Y-32094D01*
X32171Y-32086D01*
X32182Y-32075D01*
X32190Y-32062D01*
X32195Y-32047D01*
X32196Y-32040D01*
X32197Y-32025D01*
X32194Y-32011D01*
X32189Y-31997D01*
X32181Y-31984D01*
X32170Y-31974D01*
X32157Y-31965D01*
X32151Y-31962D01*
X32144Y-31960D01*
X32138Y-31958D01*
X32133Y-31957D01*
X32133Y-31957D01*
X32133Y-31957D01*
X32136Y-31956D01*
X32143Y-31954D01*
X32153Y-31950D01*
X32162Y-31946D01*
X32166Y-31943D01*
X32176Y-31934D01*
X32185Y-31924D01*
X32191Y-31913D01*
X32195Y-31900D01*
X32197Y-31887D01*
X32197Y-31874D01*
X32196Y-31872D01*
X32192Y-31856D01*
X32185Y-31843D01*
X32175Y-31831D01*
X32167Y-31823D01*
X32154Y-31815D01*
X32139Y-31811D01*
X32134Y-31810D01*
X32126Y-31809D01*
X32117Y-31810D01*
X32109Y-31810D01*
X32103Y-31812D01*
X32098Y-31813D01*
X32084Y-31820D01*
X32072Y-31830D01*
X32062Y-31842D01*
X32058Y-31848D01*
X32054Y-31858D01*
X32051Y-31868D01*
X32051Y-31868D01*
X32050Y-31872D01*
X32050Y-31873D01*
X32050Y-31873D01*
X32050Y-31893D01*
X32050Y-31893D01*
X32050Y-31894D01*
X32051Y-31898D01*
X32051Y-31899D01*
X32056Y-31912D01*
X32063Y-31925D01*
X32072Y-31936D01*
X32083Y-31945D01*
X32096Y-31951D01*
X32097Y-31952D01*
X32103Y-31954D01*
X32109Y-31955D01*
X32116Y-31957D01*
X32110Y-31958D01*
X32101Y-31960D01*
X32088Y-31966D01*
X32076Y-31974D01*
X32065Y-31985D01*
X32057Y-31997D01*
X32055Y-32003D01*
X32052Y-32011D01*
X32051Y-32017D01*
X32050Y-32020D01*
X32050Y-32021D01*
X32050Y-32020D01*
X32049Y-32017D01*
X32048Y-32012D01*
X32046Y-32004D01*
X32043Y-31997D01*
X32038Y-31989D01*
X32028Y-31978D01*
X32017Y-31969D01*
X32004Y-31962D01*
X31990Y-31958D01*
X31984Y-31957D01*
X31990Y-31955D01*
X31991Y-31955D01*
X31998Y-31954D01*
X32004Y-31951D01*
X32005Y-31951D01*
X32018Y-31944D01*
X32029Y-31935D01*
X32038Y-31924D01*
X32045Y-31911D01*
X32049Y-31898D01*
X32049Y-31898D01*
X32050Y-31894D01*
X32050Y-31893D01*
X32050Y-31873D01*
X32050Y-31873D01*
X32050Y-31871D01*
X32049Y-31868D01*
X32046Y-31858D01*
X32040Y-31845D01*
X32031Y-31833D01*
X32020Y-31823D01*
X32007Y-31816D01*
X32007Y-31816D01*
X31993Y-31811D01*
X31978Y-31809D01*
X31978Y-31809D01*
G37*
G36*
X31539Y-31809D02*
X31527Y-31809D01*
X31516Y-31811D01*
X31509Y-31813D01*
X31495Y-31820D01*
X31483Y-31829D01*
X31473Y-31840D01*
X31466Y-31853D01*
X31462Y-31867D01*
X31460Y-31883D01*
X31460Y-31889D01*
X31463Y-31904D01*
X31469Y-31918D01*
X31478Y-31932D01*
X31481Y-31934D01*
X31491Y-31943D01*
X31503Y-31950D01*
X31516Y-31955D01*
X31517Y-31955D01*
X31528Y-31956D01*
X31540Y-31956D01*
X31551Y-31955D01*
X31555Y-31954D01*
X31569Y-31948D01*
X31581Y-31939D01*
X31591Y-31929D01*
X31599Y-31917D01*
X31605Y-31904D01*
X31607Y-31889D01*
X31607Y-31874D01*
X31604Y-31859D01*
X31599Y-31848D01*
X31590Y-31836D01*
X31579Y-31825D01*
X31567Y-31817D01*
X31552Y-31811D01*
X31551Y-31811D01*
X31539Y-31809D01*
X31539Y-31809D01*
G37*
G36*
X32269Y-32251D02*
X32254Y-32253D01*
X32240Y-32258D01*
X32233Y-32261D01*
X32227Y-32266D01*
X32220Y-32272D01*
X32212Y-32280D01*
X32204Y-32293D01*
X32199Y-32307D01*
X32198Y-32311D01*
X32197Y-32321D01*
X32197Y-32331D01*
X32199Y-32340D01*
X32203Y-32353D01*
X32209Y-32366D01*
X32218Y-32377D01*
X32220Y-32378D01*
X32227Y-32384D01*
X32235Y-32389D01*
X32242Y-32393D01*
X32245Y-32394D01*
X32251Y-32396D01*
X32257Y-32397D01*
X32261Y-32398D01*
X32264Y-32398D01*
X32261Y-32399D01*
X32257Y-32400D01*
X32253Y-32401D01*
X32247Y-32402D01*
X32236Y-32408D01*
X32225Y-32414D01*
X32217Y-32422D01*
X32215Y-32424D01*
X32206Y-32437D01*
X32200Y-32451D01*
X32197Y-32465D01*
X32197Y-32480D01*
X32198Y-32484D01*
X32202Y-32499D01*
X32209Y-32512D01*
X32219Y-32525D01*
X32228Y-32532D01*
X32241Y-32540D01*
X32255Y-32545D01*
X32258Y-32545D01*
X32268Y-32546D01*
X32278Y-32546D01*
X32288Y-32544D01*
X32296Y-32542D01*
X32310Y-32535D01*
X32322Y-32526D01*
X32331Y-32515D01*
X32339Y-32502D01*
X32343Y-32488D01*
X32344Y-32486D01*
X32345Y-32483D01*
X32345Y-32481D01*
X32346Y-32483D01*
X32346Y-32486D01*
X32347Y-32492D01*
X32350Y-32499D01*
X32352Y-32505D01*
X32355Y-32509D01*
X32364Y-32522D01*
X32375Y-32532D01*
X32388Y-32540D01*
X32402Y-32544D01*
X32418Y-32546D01*
X32430Y-32545D01*
X32444Y-32542D01*
X32457Y-32535D01*
X32465Y-32530D01*
X32476Y-32519D01*
X32484Y-32507D01*
X32490Y-32493D01*
X32492Y-32479D01*
X32492Y-32464D01*
X32489Y-32450D01*
X32483Y-32436D01*
X32474Y-32424D01*
X32463Y-32413D01*
X32449Y-32405D01*
X32434Y-32400D01*
X32426Y-32398D01*
X32431Y-32398D01*
X32434Y-32397D01*
X32446Y-32394D01*
X32457Y-32388D01*
X32468Y-32380D01*
X32477Y-32371D01*
X32482Y-32363D01*
X32487Y-32353D01*
X32490Y-32343D01*
X32492Y-32335D01*
X32492Y-32326D01*
X32492Y-32316D01*
X32491Y-32309D01*
X32488Y-32300D01*
X32481Y-32286D01*
X32472Y-32274D01*
X32460Y-32264D01*
X32447Y-32256D01*
X32431Y-32252D01*
X32427Y-32251D01*
X32418Y-32251D01*
X32409Y-32252D01*
X32400Y-32253D01*
X32394Y-32255D01*
X32380Y-32262D01*
X32368Y-32271D01*
X32358Y-32282D01*
X32351Y-32295D01*
X32346Y-32310D01*
X32346Y-32311D01*
X32345Y-32315D01*
X32345Y-32314D01*
X32345Y-32335D01*
X32345Y-32335D01*
X32346Y-32338D01*
X32346Y-32339D01*
X32349Y-32349D01*
X32353Y-32359D01*
X32359Y-32369D01*
X32364Y-32374D01*
X32375Y-32385D01*
X32389Y-32392D01*
X32404Y-32397D01*
X32411Y-32399D01*
X32406Y-32400D01*
X32401Y-32401D01*
X32397Y-32402D01*
X32394Y-32403D01*
X32380Y-32409D01*
X32368Y-32419D01*
X32358Y-32430D01*
X32351Y-32443D01*
X32346Y-32457D01*
X32346Y-32460D01*
X32345Y-32462D01*
X32344Y-32461D01*
X32343Y-32457D01*
X32343Y-32456D01*
X32341Y-32448D01*
X32337Y-32440D01*
X32333Y-32432D01*
X32329Y-32427D01*
X32322Y-32420D01*
X32315Y-32413D01*
X32308Y-32408D01*
X32307Y-32408D01*
X32296Y-32403D01*
X32284Y-32400D01*
X32279Y-32399D01*
X32285Y-32397D01*
X32298Y-32394D01*
X32311Y-32387D01*
X32323Y-32378D01*
X32332Y-32367D01*
X32334Y-32363D01*
X32338Y-32356D01*
X32341Y-32348D01*
X32343Y-32341D01*
X32344Y-32336D01*
X32344Y-32336D01*
X32345Y-32335D01*
X32345Y-32314D01*
X32344Y-32314D01*
X32344Y-32311D01*
X32343Y-32307D01*
X32341Y-32302D01*
X32338Y-32295D01*
X32331Y-32282D01*
X32321Y-32271D01*
X32310Y-32262D01*
X32297Y-32256D01*
X32283Y-32252D01*
X32269Y-32251D01*
X32269Y-32251D01*
G37*
G36*
X31825Y-32251D02*
X31811Y-32253D01*
X31797Y-32258D01*
X31784Y-32266D01*
X31774Y-32276D01*
X31765Y-32288D01*
X31759Y-32302D01*
X31757Y-32307D01*
X31756Y-32311D01*
X31756Y-32312D01*
X31755Y-32315D01*
X31755Y-32315D01*
X31755Y-32335D01*
X31756Y-32337D01*
X31757Y-32342D01*
X31760Y-32351D01*
X31766Y-32364D01*
X31775Y-32376D01*
X31787Y-32385D01*
X31800Y-32393D01*
X31814Y-32397D01*
X31821Y-32399D01*
X31816Y-32400D01*
X31816Y-32400D01*
X31804Y-32403D01*
X31792Y-32408D01*
X31788Y-32411D01*
X31780Y-32418D01*
X31773Y-32425D01*
X31767Y-32432D01*
X31764Y-32438D01*
X31759Y-32448D01*
X31757Y-32456D01*
X31756Y-32460D01*
X31755Y-32462D01*
X31755Y-32461D01*
X31754Y-32457D01*
X31751Y-32447D01*
X31744Y-32433D01*
X31734Y-32421D01*
X31723Y-32412D01*
X31710Y-32404D01*
X31694Y-32400D01*
X31689Y-32399D01*
X31696Y-32397D01*
X31703Y-32395D01*
X31717Y-32389D01*
X31730Y-32380D01*
X31740Y-32369D01*
X31744Y-32365D01*
X31747Y-32358D01*
X31751Y-32350D01*
X31753Y-32345D01*
X31754Y-32339D01*
X31754Y-32339D01*
X31755Y-32336D01*
X31755Y-32335D01*
X31755Y-32315D01*
X31755Y-32314D01*
X31754Y-32310D01*
X31753Y-32305D01*
X31748Y-32294D01*
X31743Y-32284D01*
X31738Y-32278D01*
X31727Y-32267D01*
X31714Y-32259D01*
X31699Y-32253D01*
X31693Y-32252D01*
X31683Y-32251D01*
X31672Y-32252D01*
X31663Y-32253D01*
X31662Y-32253D01*
X31647Y-32259D01*
X31634Y-32268D01*
X31624Y-32279D01*
X31615Y-32292D01*
X31610Y-32307D01*
X31608Y-32313D01*
X31608Y-32324D01*
X31608Y-32334D01*
X31610Y-32343D01*
X31612Y-32351D01*
X31617Y-32361D01*
X31623Y-32371D01*
X31630Y-32378D01*
X31639Y-32385D01*
X31649Y-32391D01*
X31652Y-32393D01*
X31659Y-32395D01*
X31666Y-32397D01*
X31671Y-32398D01*
X31672Y-32398D01*
X31670Y-32399D01*
X31666Y-32400D01*
X31657Y-32403D01*
X31648Y-32407D01*
X31640Y-32411D01*
X31638Y-32413D01*
X31628Y-32421D01*
X31620Y-32432D01*
X31614Y-32443D01*
X31611Y-32448D01*
X31608Y-32463D01*
X31608Y-32478D01*
X31610Y-32493D01*
X31611Y-32496D01*
X31618Y-32510D01*
X31627Y-32522D01*
X31638Y-32532D01*
X31651Y-32540D01*
X31666Y-32545D01*
X31668Y-32545D01*
X31678Y-32546D01*
X31689Y-32546D01*
X31698Y-32544D01*
X31701Y-32544D01*
X31715Y-32538D01*
X31728Y-32530D01*
X31739Y-32518D01*
X31748Y-32505D01*
X31750Y-32501D01*
X31752Y-32494D01*
X31754Y-32488D01*
X31754Y-32483D01*
X31754Y-32482D01*
X31755Y-32482D01*
X31756Y-32484D01*
X31757Y-32488D01*
X31759Y-32498D01*
X31766Y-32511D01*
X31775Y-32522D01*
X31786Y-32532D01*
X31799Y-32540D01*
X31799Y-32540D01*
X31812Y-32544D01*
X31827Y-32546D01*
X31842Y-32545D01*
X31856Y-32541D01*
X31864Y-32537D01*
X31877Y-32529D01*
X31887Y-32518D01*
X31895Y-32505D01*
X31901Y-32490D01*
X31901Y-32487D01*
X31903Y-32475D01*
X31902Y-32464D01*
X31899Y-32450D01*
X31893Y-32436D01*
X31884Y-32424D01*
X31873Y-32413D01*
X31860Y-32405D01*
X31845Y-32400D01*
X31842Y-32399D01*
X31839Y-32398D01*
X31839Y-32398D01*
X31843Y-32398D01*
X31852Y-32395D01*
X31861Y-32391D01*
X31870Y-32386D01*
X31878Y-32380D01*
X31888Y-32369D01*
X31896Y-32355D01*
X31897Y-32353D01*
X31902Y-32339D01*
X31903Y-32324D01*
X31901Y-32308D01*
X31896Y-32294D01*
X31893Y-32287D01*
X31888Y-32281D01*
X31882Y-32274D01*
X31882Y-32273D01*
X31870Y-32263D01*
X31856Y-32256D01*
X31842Y-32252D01*
X31840Y-32252D01*
X31825Y-32251D01*
X31825Y-32251D01*
G37*
G54D12*
X31500Y-36880D02*
X31500Y-35880D01*
X31500Y-35880D02*
X40500Y-35880D01*
X40500Y-35880D02*
X40500Y-36880D01*
X31500Y-36880D02*
X40500Y-36880D01*
X39500Y-36880D02*
X39500Y-35880D01*
G54D13*
X32118Y-34684D02*
X32246Y-34684D01*
X32246Y-34684D02*
X32246Y-34487D01*
X32118Y-34487D02*
X32246Y-34487D01*
X32118Y-34684D02*
X32118Y-34487D01*
X31873Y-34684D02*
X31932Y-34684D01*
X31932Y-34684D02*
X31932Y-34585D01*
X31873Y-34585D02*
X31932Y-34585D01*
X31873Y-34684D02*
X31873Y-34585D01*
X32068Y-34684D02*
X32127Y-34684D01*
X32127Y-34684D02*
X32127Y-34585D01*
X32068Y-34585D02*
X32127Y-34585D01*
X32068Y-34684D02*
X32068Y-34585D01*
X31922Y-34684D02*
X32078Y-34684D01*
X32078Y-34684D02*
X32078Y-34615D01*
X31922Y-34615D02*
X32078Y-34615D01*
X31922Y-34684D02*
X31922Y-34615D01*
X32118Y-35273D02*
X32246Y-35273D01*
X32246Y-35273D02*
X32246Y-35076D01*
X32118Y-35076D02*
X32246Y-35076D01*
X32118Y-35273D02*
X32118Y-35076D01*
X31754Y-35273D02*
X31882Y-35273D01*
X31882Y-35273D02*
X31882Y-35076D01*
X31754Y-35076D02*
X31882Y-35076D01*
X31754Y-35273D02*
X31754Y-35076D01*
X32068Y-35175D02*
X32127Y-35175D01*
X32127Y-35175D02*
X32127Y-35076D01*
X32068Y-35076D02*
X32127Y-35076D01*
X32068Y-35175D02*
X32068Y-35076D01*
X31873Y-35175D02*
X31932Y-35175D01*
X31932Y-35175D02*
X31932Y-35076D01*
X31873Y-35076D02*
X31932Y-35076D01*
X31873Y-35175D02*
X31873Y-35076D01*
X31922Y-35145D02*
X32078Y-35145D01*
X32078Y-35145D02*
X32078Y-35076D01*
X31922Y-35076D02*
X32078Y-35076D01*
X31922Y-35145D02*
X31922Y-35076D01*
X31961Y-34880D02*
X32039Y-34880D01*
X32039Y-34880D02*
X32039Y-34802D01*
X31961Y-34802D02*
X32039Y-34802D01*
X31961Y-34880D02*
X31961Y-34802D01*
X31764Y-34684D02*
X31882Y-34684D01*
X31882Y-34684D02*
X31882Y-34566D01*
X31764Y-34566D02*
X31882Y-34566D01*
X31764Y-34684D02*
X31764Y-34566D01*
X31754Y-34516D02*
X31843Y-34516D01*
X31843Y-34516D02*
X31843Y-34487D01*
X31754Y-34487D02*
X31843Y-34487D01*
X31754Y-34516D02*
X31754Y-34487D01*
G54D14*
X32226Y-34674D02*
X32226Y-35086D01*
X31774Y-35076D02*
X31774Y-34516D01*
G54D15*
X31851Y-34546D02*
G75*
G03X31851Y-34546I-28J0D01*
G74*
G01*
G54D14*
X31863Y-34487D02*
G75*
G03X32137Y-34487I137J0D01*
G74*
G01*
X32137Y-35273D02*
G75*
G03X31863Y-35273I-137J0D01*
G74*
G01*
G54D13*
X38118Y-34684D02*
X38246Y-34684D01*
X38246Y-34684D02*
X38246Y-34487D01*
X38118Y-34487D02*
X38246Y-34487D01*
X38118Y-34684D02*
X38118Y-34487D01*
X37873Y-34684D02*
X37932Y-34684D01*
X37932Y-34684D02*
X37932Y-34585D01*
X37873Y-34585D02*
X37932Y-34585D01*
X37873Y-34684D02*
X37873Y-34585D01*
X38068Y-34684D02*
X38127Y-34684D01*
X38127Y-34684D02*
X38127Y-34585D01*
X38068Y-34585D02*
X38127Y-34585D01*
X38068Y-34684D02*
X38068Y-34585D01*
X37922Y-34684D02*
X38078Y-34684D01*
X38078Y-34684D02*
X38078Y-34615D01*
X37922Y-34615D02*
X38078Y-34615D01*
X37922Y-34684D02*
X37922Y-34615D01*
X38118Y-35273D02*
X38246Y-35273D01*
X38246Y-35273D02*
X38246Y-35076D01*
X38118Y-35076D02*
X38246Y-35076D01*
X38118Y-35273D02*
X38118Y-35076D01*
X37754Y-35273D02*
X37882Y-35273D01*
X37882Y-35273D02*
X37882Y-35076D01*
X37754Y-35076D02*
X37882Y-35076D01*
X37754Y-35273D02*
X37754Y-35076D01*
X38068Y-35175D02*
X38127Y-35175D01*
X38127Y-35175D02*
X38127Y-35076D01*
X38068Y-35076D02*
X38127Y-35076D01*
X38068Y-35175D02*
X38068Y-35076D01*
X37873Y-35175D02*
X37932Y-35175D01*
X37932Y-35175D02*
X37932Y-35076D01*
X37873Y-35076D02*
X37932Y-35076D01*
X37873Y-35175D02*
X37873Y-35076D01*
X37922Y-35145D02*
X38078Y-35145D01*
X38078Y-35145D02*
X38078Y-35076D01*
X37922Y-35076D02*
X38078Y-35076D01*
X37922Y-35145D02*
X37922Y-35076D01*
X37961Y-34880D02*
X38039Y-34880D01*
X38039Y-34880D02*
X38039Y-34802D01*
X37961Y-34802D02*
X38039Y-34802D01*
X37961Y-34880D02*
X37961Y-34802D01*
X37764Y-34684D02*
X37882Y-34684D01*
X37882Y-34684D02*
X37882Y-34566D01*
X37764Y-34566D02*
X37882Y-34566D01*
X37764Y-34684D02*
X37764Y-34566D01*
X37754Y-34516D02*
X37843Y-34516D01*
X37843Y-34516D02*
X37843Y-34487D01*
X37754Y-34487D02*
X37843Y-34487D01*
X37754Y-34516D02*
X37754Y-34487D01*
G54D14*
X38226Y-34674D02*
X38226Y-35086D01*
X37774Y-35076D02*
X37774Y-34516D01*
G54D15*
X37851Y-34546D02*
G75*
G03X37851Y-34546I-28J0D01*
G74*
G01*
G54D14*
X37863Y-34487D02*
G75*
G03X38137Y-34487I137J0D01*
G74*
G01*
X38137Y-35273D02*
G75*
G03X37863Y-35273I-137J0D01*
G74*
G01*
G54D13*
X33118Y-34684D02*
X33246Y-34684D01*
X33246Y-34684D02*
X33246Y-34487D01*
X33118Y-34487D02*
X33246Y-34487D01*
X33118Y-34684D02*
X33118Y-34487D01*
X32873Y-34684D02*
X32932Y-34684D01*
X32932Y-34684D02*
X32932Y-34585D01*
X32873Y-34585D02*
X32932Y-34585D01*
X32873Y-34684D02*
X32873Y-34585D01*
X33068Y-34684D02*
X33127Y-34684D01*
X33127Y-34684D02*
X33127Y-34585D01*
X33068Y-34585D02*
X33127Y-34585D01*
X33068Y-34684D02*
X33068Y-34585D01*
X32922Y-34684D02*
X33078Y-34684D01*
X33078Y-34684D02*
X33078Y-34615D01*
X32922Y-34615D02*
X33078Y-34615D01*
X32922Y-34684D02*
X32922Y-34615D01*
X33118Y-35273D02*
X33246Y-35273D01*
X33246Y-35273D02*
X33246Y-35076D01*
X33118Y-35076D02*
X33246Y-35076D01*
X33118Y-35273D02*
X33118Y-35076D01*
X32754Y-35273D02*
X32882Y-35273D01*
X32882Y-35273D02*
X32882Y-35076D01*
X32754Y-35076D02*
X32882Y-35076D01*
X32754Y-35273D02*
X32754Y-35076D01*
X33068Y-35175D02*
X33127Y-35175D01*
X33127Y-35175D02*
X33127Y-35076D01*
X33068Y-35076D02*
X33127Y-35076D01*
X33068Y-35175D02*
X33068Y-35076D01*
X32873Y-35175D02*
X32932Y-35175D01*
X32932Y-35175D02*
X32932Y-35076D01*
X32873Y-35076D02*
X32932Y-35076D01*
X32873Y-35175D02*
X32873Y-35076D01*
X32922Y-35145D02*
X33078Y-35145D01*
X33078Y-35145D02*
X33078Y-35076D01*
X32922Y-35076D02*
X33078Y-35076D01*
X32922Y-35145D02*
X32922Y-35076D01*
X32961Y-34880D02*
X33039Y-34880D01*
X33039Y-34880D02*
X33039Y-34802D01*
X32961Y-34802D02*
X33039Y-34802D01*
X32961Y-34880D02*
X32961Y-34802D01*
X32764Y-34684D02*
X32882Y-34684D01*
X32882Y-34684D02*
X32882Y-34566D01*
X32764Y-34566D02*
X32882Y-34566D01*
X32764Y-34684D02*
X32764Y-34566D01*
X32754Y-34516D02*
X32843Y-34516D01*
X32843Y-34516D02*
X32843Y-34487D01*
X32754Y-34487D02*
X32843Y-34487D01*
X32754Y-34516D02*
X32754Y-34487D01*
G54D14*
X33226Y-34674D02*
X33226Y-35086D01*
X32774Y-35076D02*
X32774Y-34516D01*
G54D15*
X32851Y-34546D02*
G75*
G03X32851Y-34546I-28J0D01*
G74*
G01*
G54D14*
X32863Y-34487D02*
G75*
G03X33137Y-34487I137J0D01*
G74*
G01*
X33137Y-35273D02*
G75*
G03X32863Y-35273I-137J0D01*
G74*
G01*
G54D13*
X34118Y-34684D02*
X34246Y-34684D01*
X34246Y-34684D02*
X34246Y-34487D01*
X34118Y-34487D02*
X34246Y-34487D01*
X34118Y-34684D02*
X34118Y-34487D01*
X33873Y-34684D02*
X33932Y-34684D01*
X33932Y-34684D02*
X33932Y-34585D01*
X33873Y-34585D02*
X33932Y-34585D01*
X33873Y-34684D02*
X33873Y-34585D01*
X34068Y-34684D02*
X34127Y-34684D01*
X34127Y-34684D02*
X34127Y-34585D01*
X34068Y-34585D02*
X34127Y-34585D01*
X34068Y-34684D02*
X34068Y-34585D01*
X33922Y-34684D02*
X34078Y-34684D01*
X34078Y-34684D02*
X34078Y-34615D01*
X33922Y-34615D02*
X34078Y-34615D01*
X33922Y-34684D02*
X33922Y-34615D01*
X34118Y-35273D02*
X34246Y-35273D01*
X34246Y-35273D02*
X34246Y-35076D01*
X34118Y-35076D02*
X34246Y-35076D01*
X34118Y-35273D02*
X34118Y-35076D01*
X33754Y-35273D02*
X33882Y-35273D01*
X33882Y-35273D02*
X33882Y-35076D01*
X33754Y-35076D02*
X33882Y-35076D01*
X33754Y-35273D02*
X33754Y-35076D01*
X34068Y-35175D02*
X34127Y-35175D01*
X34127Y-35175D02*
X34127Y-35076D01*
X34068Y-35076D02*
X34127Y-35076D01*
X34068Y-35175D02*
X34068Y-35076D01*
X33873Y-35175D02*
X33932Y-35175D01*
X33932Y-35175D02*
X33932Y-35076D01*
X33873Y-35076D02*
X33932Y-35076D01*
X33873Y-35175D02*
X33873Y-35076D01*
X33922Y-35145D02*
X34078Y-35145D01*
X34078Y-35145D02*
X34078Y-35076D01*
X33922Y-35076D02*
X34078Y-35076D01*
X33922Y-35145D02*
X33922Y-35076D01*
X33961Y-34880D02*
X34039Y-34880D01*
X34039Y-34880D02*
X34039Y-34802D01*
X33961Y-34802D02*
X34039Y-34802D01*
X33961Y-34880D02*
X33961Y-34802D01*
X33764Y-34684D02*
X33882Y-34684D01*
X33882Y-34684D02*
X33882Y-34566D01*
X33764Y-34566D02*
X33882Y-34566D01*
X33764Y-34684D02*
X33764Y-34566D01*
X33754Y-34516D02*
X33843Y-34516D01*
X33843Y-34516D02*
X33843Y-34487D01*
X33754Y-34487D02*
X33843Y-34487D01*
X33754Y-34516D02*
X33754Y-34487D01*
G54D14*
X34226Y-34674D02*
X34226Y-35086D01*
X33774Y-35076D02*
X33774Y-34516D01*
G54D15*
X33851Y-34546D02*
G75*
G03X33851Y-34546I-28J0D01*
G74*
G01*
G54D14*
X33863Y-34487D02*
G75*
G03X34137Y-34487I137J0D01*
G74*
G01*
X34137Y-35273D02*
G75*
G03X33863Y-35273I-137J0D01*
G74*
G01*
G54D13*
X35118Y-34684D02*
X35246Y-34684D01*
X35246Y-34684D02*
X35246Y-34487D01*
X35118Y-34487D02*
X35246Y-34487D01*
X35118Y-34684D02*
X35118Y-34487D01*
X34873Y-34684D02*
X34932Y-34684D01*
X34932Y-34684D02*
X34932Y-34585D01*
X34873Y-34585D02*
X34932Y-34585D01*
X34873Y-34684D02*
X34873Y-34585D01*
X35068Y-34684D02*
X35127Y-34684D01*
X35127Y-34684D02*
X35127Y-34585D01*
X35068Y-34585D02*
X35127Y-34585D01*
X35068Y-34684D02*
X35068Y-34585D01*
X34922Y-34684D02*
X35078Y-34684D01*
X35078Y-34684D02*
X35078Y-34615D01*
X34922Y-34615D02*
X35078Y-34615D01*
X34922Y-34684D02*
X34922Y-34615D01*
X35118Y-35273D02*
X35246Y-35273D01*
X35246Y-35273D02*
X35246Y-35076D01*
X35118Y-35076D02*
X35246Y-35076D01*
X35118Y-35273D02*
X35118Y-35076D01*
X34754Y-35273D02*
X34882Y-35273D01*
X34882Y-35273D02*
X34882Y-35076D01*
X34754Y-35076D02*
X34882Y-35076D01*
X34754Y-35273D02*
X34754Y-35076D01*
X35068Y-35175D02*
X35127Y-35175D01*
X35127Y-35175D02*
X35127Y-35076D01*
X35068Y-35076D02*
X35127Y-35076D01*
X35068Y-35175D02*
X35068Y-35076D01*
X34873Y-35175D02*
X34932Y-35175D01*
X34932Y-35175D02*
X34932Y-35076D01*
X34873Y-35076D02*
X34932Y-35076D01*
X34873Y-35175D02*
X34873Y-35076D01*
X34922Y-35145D02*
X35078Y-35145D01*
X35078Y-35145D02*
X35078Y-35076D01*
X34922Y-35076D02*
X35078Y-35076D01*
X34922Y-35145D02*
X34922Y-35076D01*
X34961Y-34880D02*
X35039Y-34880D01*
X35039Y-34880D02*
X35039Y-34802D01*
X34961Y-34802D02*
X35039Y-34802D01*
X34961Y-34880D02*
X34961Y-34802D01*
X34764Y-34684D02*
X34882Y-34684D01*
X34882Y-34684D02*
X34882Y-34566D01*
X34764Y-34566D02*
X34882Y-34566D01*
X34764Y-34684D02*
X34764Y-34566D01*
X34754Y-34516D02*
X34843Y-34516D01*
X34843Y-34516D02*
X34843Y-34487D01*
X34754Y-34487D02*
X34843Y-34487D01*
X34754Y-34516D02*
X34754Y-34487D01*
G54D14*
X35226Y-34674D02*
X35226Y-35086D01*
X34774Y-35076D02*
X34774Y-34516D01*
G54D15*
X34851Y-34546D02*
G75*
G03X34851Y-34546I-28J0D01*
G74*
G01*
G54D14*
X34863Y-34487D02*
G75*
G03X35137Y-34487I137J0D01*
G74*
G01*
X35137Y-35273D02*
G75*
G03X34863Y-35273I-137J0D01*
G74*
G01*
G54D13*
X36118Y-34684D02*
X36246Y-34684D01*
X36246Y-34684D02*
X36246Y-34487D01*
X36118Y-34487D02*
X36246Y-34487D01*
X36118Y-34684D02*
X36118Y-34487D01*
X35873Y-34684D02*
X35932Y-34684D01*
X35932Y-34684D02*
X35932Y-34585D01*
X35873Y-34585D02*
X35932Y-34585D01*
X35873Y-34684D02*
X35873Y-34585D01*
X36068Y-34684D02*
X36127Y-34684D01*
X36127Y-34684D02*
X36127Y-34585D01*
X36068Y-34585D02*
X36127Y-34585D01*
X36068Y-34684D02*
X36068Y-34585D01*
X35922Y-34684D02*
X36078Y-34684D01*
X36078Y-34684D02*
X36078Y-34615D01*
X35922Y-34615D02*
X36078Y-34615D01*
X35922Y-34684D02*
X35922Y-34615D01*
X36118Y-35273D02*
X36246Y-35273D01*
X36246Y-35273D02*
X36246Y-35076D01*
X36118Y-35076D02*
X36246Y-35076D01*
X36118Y-35273D02*
X36118Y-35076D01*
X35754Y-35273D02*
X35882Y-35273D01*
X35882Y-35273D02*
X35882Y-35076D01*
X35754Y-35076D02*
X35882Y-35076D01*
X35754Y-35273D02*
X35754Y-35076D01*
X36068Y-35175D02*
X36127Y-35175D01*
X36127Y-35175D02*
X36127Y-35076D01*
X36068Y-35076D02*
X36127Y-35076D01*
X36068Y-35175D02*
X36068Y-35076D01*
X35873Y-35175D02*
X35932Y-35175D01*
X35932Y-35175D02*
X35932Y-35076D01*
X35873Y-35076D02*
X35932Y-35076D01*
X35873Y-35175D02*
X35873Y-35076D01*
X35922Y-35145D02*
X36078Y-35145D01*
X36078Y-35145D02*
X36078Y-35076D01*
X35922Y-35076D02*
X36078Y-35076D01*
X35922Y-35145D02*
X35922Y-35076D01*
X35961Y-34880D02*
X36039Y-34880D01*
X36039Y-34880D02*
X36039Y-34802D01*
X35961Y-34802D02*
X36039Y-34802D01*
X35961Y-34880D02*
X35961Y-34802D01*
X35764Y-34684D02*
X35882Y-34684D01*
X35882Y-34684D02*
X35882Y-34566D01*
X35764Y-34566D02*
X35882Y-34566D01*
X35764Y-34684D02*
X35764Y-34566D01*
X35754Y-34516D02*
X35843Y-34516D01*
X35843Y-34516D02*
X35843Y-34487D01*
X35754Y-34487D02*
X35843Y-34487D01*
X35754Y-34516D02*
X35754Y-34487D01*
G54D14*
X36226Y-34674D02*
X36226Y-35086D01*
X35774Y-35076D02*
X35774Y-34516D01*
G54D15*
X35851Y-34546D02*
G75*
G03X35851Y-34546I-28J0D01*
G74*
G01*
G54D14*
X35863Y-34487D02*
G75*
G03X36137Y-34487I137J0D01*
G74*
G01*
X36137Y-35273D02*
G75*
G03X35863Y-35273I-137J0D01*
G74*
G01*
G54D13*
X37118Y-34684D02*
X37246Y-34684D01*
X37246Y-34684D02*
X37246Y-34487D01*
X37118Y-34487D02*
X37246Y-34487D01*
X37118Y-34684D02*
X37118Y-34487D01*
X36873Y-34684D02*
X36932Y-34684D01*
X36932Y-34684D02*
X36932Y-34585D01*
X36873Y-34585D02*
X36932Y-34585D01*
X36873Y-34684D02*
X36873Y-34585D01*
X37068Y-34684D02*
X37127Y-34684D01*
X37127Y-34684D02*
X37127Y-34585D01*
X37068Y-34585D02*
X37127Y-34585D01*
X37068Y-34684D02*
X37068Y-34585D01*
X36922Y-34684D02*
X37078Y-34684D01*
X37078Y-34684D02*
X37078Y-34615D01*
X36922Y-34615D02*
X37078Y-34615D01*
X36922Y-34684D02*
X36922Y-34615D01*
X37118Y-35273D02*
X37246Y-35273D01*
X37246Y-35273D02*
X37246Y-35076D01*
X37118Y-35076D02*
X37246Y-35076D01*
X37118Y-35273D02*
X37118Y-35076D01*
X36754Y-35273D02*
X36882Y-35273D01*
X36882Y-35273D02*
X36882Y-35076D01*
X36754Y-35076D02*
X36882Y-35076D01*
X36754Y-35273D02*
X36754Y-35076D01*
X37068Y-35175D02*
X37127Y-35175D01*
X37127Y-35175D02*
X37127Y-35076D01*
X37068Y-35076D02*
X37127Y-35076D01*
X37068Y-35175D02*
X37068Y-35076D01*
X36873Y-35175D02*
X36932Y-35175D01*
X36932Y-35175D02*
X36932Y-35076D01*
X36873Y-35076D02*
X36932Y-35076D01*
X36873Y-35175D02*
X36873Y-35076D01*
X36922Y-35145D02*
X37078Y-35145D01*
X37078Y-35145D02*
X37078Y-35076D01*
X36922Y-35076D02*
X37078Y-35076D01*
X36922Y-35145D02*
X36922Y-35076D01*
X36961Y-34880D02*
X37039Y-34880D01*
X37039Y-34880D02*
X37039Y-34802D01*
X36961Y-34802D02*
X37039Y-34802D01*
X36961Y-34880D02*
X36961Y-34802D01*
X36764Y-34684D02*
X36882Y-34684D01*
X36882Y-34684D02*
X36882Y-34566D01*
X36764Y-34566D02*
X36882Y-34566D01*
X36764Y-34684D02*
X36764Y-34566D01*
X36754Y-34516D02*
X36843Y-34516D01*
X36843Y-34516D02*
X36843Y-34487D01*
X36754Y-34487D02*
X36843Y-34487D01*
X36754Y-34516D02*
X36754Y-34487D01*
G54D14*
X37226Y-34674D02*
X37226Y-35086D01*
X36774Y-35076D02*
X36774Y-34516D01*
G54D15*
X36851Y-34546D02*
G75*
G03X36851Y-34546I-28J0D01*
G74*
G01*
G54D14*
X36863Y-34487D02*
G75*
G03X37137Y-34487I137J0D01*
G74*
G01*
X37137Y-35273D02*
G75*
G03X36863Y-35273I-137J0D01*
G74*
G01*
G54D13*
X39118Y-34684D02*
X39246Y-34684D01*
X39246Y-34684D02*
X39246Y-34487D01*
X39118Y-34487D02*
X39246Y-34487D01*
X39118Y-34684D02*
X39118Y-34487D01*
X38873Y-34684D02*
X38932Y-34684D01*
X38932Y-34684D02*
X38932Y-34585D01*
X38873Y-34585D02*
X38932Y-34585D01*
X38873Y-34684D02*
X38873Y-34585D01*
X39068Y-34684D02*
X39127Y-34684D01*
X39127Y-34684D02*
X39127Y-34585D01*
X39068Y-34585D02*
X39127Y-34585D01*
X39068Y-34684D02*
X39068Y-34585D01*
X38922Y-34684D02*
X39078Y-34684D01*
X39078Y-34684D02*
X39078Y-34615D01*
X38922Y-34615D02*
X39078Y-34615D01*
X38922Y-34684D02*
X38922Y-34615D01*
X39118Y-35273D02*
X39246Y-35273D01*
X39246Y-35273D02*
X39246Y-35076D01*
X39118Y-35076D02*
X39246Y-35076D01*
X39118Y-35273D02*
X39118Y-35076D01*
X38754Y-35273D02*
X38882Y-35273D01*
X38882Y-35273D02*
X38882Y-35076D01*
X38754Y-35076D02*
X38882Y-35076D01*
X38754Y-35273D02*
X38754Y-35076D01*
X39068Y-35175D02*
X39127Y-35175D01*
X39127Y-35175D02*
X39127Y-35076D01*
X39068Y-35076D02*
X39127Y-35076D01*
X39068Y-35175D02*
X39068Y-35076D01*
X38873Y-35175D02*
X38932Y-35175D01*
X38932Y-35175D02*
X38932Y-35076D01*
X38873Y-35076D02*
X38932Y-35076D01*
X38873Y-35175D02*
X38873Y-35076D01*
X38922Y-35145D02*
X39078Y-35145D01*
X39078Y-35145D02*
X39078Y-35076D01*
X38922Y-35076D02*
X39078Y-35076D01*
X38922Y-35145D02*
X38922Y-35076D01*
X38961Y-34880D02*
X39039Y-34880D01*
X39039Y-34880D02*
X39039Y-34802D01*
X38961Y-34802D02*
X39039Y-34802D01*
X38961Y-34880D02*
X38961Y-34802D01*
X38764Y-34684D02*
X38882Y-34684D01*
X38882Y-34684D02*
X38882Y-34566D01*
X38764Y-34566D02*
X38882Y-34566D01*
X38764Y-34684D02*
X38764Y-34566D01*
X38754Y-34516D02*
X38843Y-34516D01*
X38843Y-34516D02*
X38843Y-34487D01*
X38754Y-34487D02*
X38843Y-34487D01*
X38754Y-34516D02*
X38754Y-34487D01*
G54D14*
X39226Y-34674D02*
X39226Y-35086D01*
X38774Y-35076D02*
X38774Y-34516D01*
G54D15*
X38851Y-34546D02*
G75*
G03X38851Y-34546I-28J0D01*
G74*
G01*
G54D14*
X38863Y-34487D02*
G75*
G03X39137Y-34487I137J0D01*
G74*
G01*
X39137Y-35273D02*
G75*
G03X38863Y-35273I-137J0D01*
G74*
G01*
G54D16*
G36*
X40143Y-34766D02*
X40158Y-34764D01*
X40171Y-34760D01*
X40177Y-34757D01*
X40190Y-34748D01*
X40200Y-34737D01*
X40207Y-34725D01*
X40212Y-34711D01*
X40215Y-34697D01*
X40214Y-34682D01*
X40211Y-34668D01*
X40204Y-34654D01*
X40200Y-34648D01*
X40194Y-34641D01*
X40187Y-34635D01*
X40181Y-34630D01*
X40179Y-34629D01*
X40166Y-34623D01*
X40153Y-34620D01*
X40138Y-34619D01*
X40133Y-34619D01*
X40125Y-34620D01*
X40118Y-34622D01*
X40110Y-34626D01*
X40101Y-34630D01*
X40089Y-34640D01*
X40080Y-34652D01*
X40072Y-34665D01*
X40070Y-34671D01*
X40068Y-34679D01*
X40067Y-34684D01*
X40067Y-34685D01*
X40067Y-34685D01*
X40067Y-34682D01*
X40067Y-34682D01*
X40064Y-34672D01*
X40061Y-34663D01*
X40056Y-34654D01*
X40048Y-34643D01*
X40037Y-34633D01*
X40024Y-34625D01*
X40009Y-34620D01*
X39994Y-34619D01*
X39990Y-34619D01*
X39978Y-34620D01*
X39967Y-34623D01*
X39965Y-34624D01*
X39952Y-34631D01*
X39941Y-34640D01*
X39932Y-34652D01*
X39925Y-34664D01*
X39921Y-34677D01*
X39921Y-34678D01*
X39920Y-34681D01*
X39920Y-34683D01*
X39920Y-34683D01*
X39920Y-34681D01*
X39919Y-34677D01*
X39919Y-34676D01*
X39914Y-34663D01*
X39907Y-34650D01*
X39898Y-34639D01*
X39889Y-34632D01*
X39876Y-34625D01*
X39862Y-34620D01*
X39846Y-34619D01*
X39835Y-34620D01*
X39821Y-34623D01*
X39807Y-34630D01*
X39795Y-34639D01*
X39786Y-34651D01*
X39784Y-34653D01*
X39781Y-34658D01*
X39779Y-34663D01*
X39778Y-34666D01*
X39775Y-34673D01*
X39774Y-34679D01*
X39773Y-34684D01*
X39773Y-34685D01*
X39773Y-34685D01*
X39772Y-34682D01*
X39771Y-34674D01*
X39767Y-34664D01*
X39763Y-34655D01*
X39754Y-34643D01*
X39742Y-34633D01*
X39729Y-34625D01*
X39715Y-34620D01*
X39700Y-34619D01*
X39686Y-34620D01*
X39671Y-34624D01*
X39658Y-34631D01*
X39646Y-34641D01*
X39640Y-34648D01*
X39635Y-34656D01*
X39630Y-34665D01*
X39628Y-34673D01*
X39625Y-34688D01*
X39626Y-34702D01*
X39629Y-34716D01*
X39635Y-34729D01*
X39643Y-34740D01*
X39653Y-34750D01*
X39665Y-34758D01*
X39678Y-34763D01*
X39693Y-34766D01*
X39695Y-34766D01*
X39710Y-34766D01*
X39724Y-34762D01*
X39737Y-34756D01*
X39742Y-34752D01*
X39752Y-34744D01*
X39761Y-34733D01*
X39767Y-34722D01*
X39768Y-34718D01*
X39770Y-34712D01*
X39772Y-34705D01*
X39773Y-34700D01*
X39773Y-34697D01*
X39773Y-34700D01*
X39773Y-34703D01*
X39775Y-34709D01*
X39777Y-34717D01*
X39779Y-34723D01*
X39783Y-34730D01*
X39792Y-34742D01*
X39803Y-34752D01*
X39816Y-34760D01*
X39831Y-34765D01*
X39833Y-34765D01*
X39843Y-34766D01*
X39854Y-34766D01*
X39864Y-34764D01*
X39874Y-34761D01*
X39887Y-34754D01*
X39900Y-34744D01*
X39900Y-34743D01*
X39909Y-34733D01*
X39915Y-34720D01*
X39919Y-34708D01*
X39919Y-34707D01*
X39920Y-34704D01*
X39920Y-34702D01*
X39920Y-34703D01*
X39921Y-34706D01*
X39921Y-34707D01*
X39923Y-34715D01*
X39926Y-34723D01*
X39931Y-34731D01*
X39937Y-34740D01*
X39948Y-34751D01*
X39961Y-34759D01*
X39976Y-34764D01*
X39978Y-34765D01*
X39988Y-34766D01*
X39999Y-34766D01*
X40009Y-34765D01*
X40017Y-34762D01*
X40031Y-34756D01*
X40043Y-34747D01*
X40053Y-34736D01*
X40061Y-34723D01*
X40062Y-34719D01*
X40065Y-34712D01*
X40066Y-34705D01*
X40067Y-34700D01*
X40067Y-34700D01*
X40067Y-34700D01*
X40068Y-34703D01*
X40068Y-34703D01*
X40070Y-34712D01*
X40074Y-34722D01*
X40078Y-34731D01*
X40080Y-34734D01*
X40089Y-34745D01*
X40101Y-34754D01*
X40114Y-34761D01*
X40128Y-34765D01*
X40143Y-34766D01*
X40143Y-34766D01*
G37*
G36*
X39547Y-34619D02*
X39556Y-34618D01*
X39564Y-34618D01*
X39574Y-34615D01*
X39588Y-34609D01*
X39600Y-34600D01*
X39610Y-34589D01*
X39618Y-34576D01*
X39623Y-34562D01*
X39625Y-34547D01*
X39624Y-34532D01*
X39620Y-34518D01*
X39614Y-34505D01*
X39604Y-34493D01*
X39592Y-34483D01*
X39589Y-34481D01*
X39574Y-34475D01*
X39560Y-34471D01*
X39544Y-34471D01*
X39529Y-34474D01*
X39517Y-34479D01*
X39504Y-34488D01*
X39494Y-34499D01*
X39485Y-34512D01*
X39480Y-34527D01*
X39478Y-34534D01*
X39478Y-34544D01*
X39478Y-34553D01*
X39479Y-34561D01*
X39480Y-34564D01*
X39486Y-34579D01*
X39494Y-34592D01*
X39506Y-34603D01*
X39519Y-34611D01*
X39525Y-34614D01*
X39534Y-34617D01*
X39542Y-34618D01*
X39547Y-34619D01*
X39547Y-34619D01*
G37*
G36*
X40290Y-34619D02*
X40305Y-34617D01*
X40320Y-34612D01*
X40334Y-34603D01*
X40337Y-34601D01*
X40347Y-34590D01*
X40355Y-34577D01*
X40360Y-34563D01*
X40362Y-34555D01*
X40362Y-34546D01*
X40362Y-34536D01*
X40361Y-34529D01*
X40360Y-34525D01*
X40354Y-34510D01*
X40346Y-34498D01*
X40335Y-34487D01*
X40322Y-34479D01*
X40308Y-34474D01*
X40293Y-34471D01*
X40287Y-34471D01*
X40272Y-34473D01*
X40258Y-34477D01*
X40246Y-34485D01*
X40235Y-34494D01*
X40226Y-34506D01*
X40220Y-34519D01*
X40216Y-34533D01*
X40215Y-34548D01*
X40216Y-34557D01*
X40218Y-34565D01*
X40221Y-34574D01*
X40227Y-34585D01*
X40236Y-34597D01*
X40248Y-34606D01*
X40261Y-34613D01*
X40275Y-34617D01*
X40290Y-34619D01*
X40290Y-34619D01*
G37*
G36*
X39400Y-34471D02*
X39410Y-34471D01*
X39419Y-34469D01*
X39430Y-34466D01*
X39443Y-34459D01*
X39456Y-34449D01*
X39464Y-34440D01*
X39471Y-34427D01*
X39476Y-34413D01*
X39477Y-34407D01*
X39477Y-34398D01*
X39477Y-34389D01*
X39476Y-34382D01*
X39475Y-34377D01*
X39469Y-34363D01*
X39461Y-34350D01*
X39450Y-34339D01*
X39436Y-34331D01*
X39431Y-34329D01*
X39422Y-34325D01*
X39412Y-34324D01*
X39401Y-34324D01*
X39394Y-34324D01*
X39386Y-34325D01*
X39379Y-34327D01*
X39371Y-34331D01*
X39366Y-34334D01*
X39354Y-34343D01*
X39344Y-34354D01*
X39336Y-34368D01*
X39331Y-34383D01*
X39331Y-34386D01*
X39330Y-34395D01*
X39330Y-34404D01*
X39331Y-34412D01*
X39332Y-34417D01*
X39338Y-34431D01*
X39347Y-34444D01*
X39357Y-34455D01*
X39371Y-34463D01*
X39385Y-34469D01*
X39390Y-34470D01*
X39400Y-34471D01*
X39400Y-34471D01*
G37*
G36*
X39992Y-34471D02*
X40006Y-34470D01*
X40020Y-34466D01*
X40029Y-34462D01*
X40041Y-34453D01*
X40052Y-34442D01*
X40060Y-34429D01*
X40065Y-34415D01*
X40066Y-34412D01*
X40067Y-34400D01*
X40067Y-34389D01*
X40064Y-34376D01*
X40058Y-34361D01*
X40049Y-34349D01*
X40038Y-34339D01*
X40025Y-34331D01*
X40010Y-34325D01*
X40001Y-34323D01*
X40006Y-34322D01*
X40007Y-34322D01*
X40017Y-34319D01*
X40028Y-34314D01*
X40039Y-34308D01*
X40040Y-34306D01*
X40051Y-34296D01*
X40059Y-34283D01*
X40064Y-34269D01*
X40067Y-34255D01*
X40067Y-34241D01*
X40063Y-34227D01*
X40057Y-34213D01*
X40057Y-34212D01*
X40047Y-34200D01*
X40036Y-34190D01*
X40024Y-34183D01*
X40010Y-34179D01*
X39996Y-34177D01*
X39982Y-34178D01*
X39968Y-34181D01*
X39955Y-34188D01*
X39942Y-34197D01*
X39936Y-34204D01*
X39929Y-34215D01*
X39923Y-34226D01*
X39921Y-34237D01*
X39920Y-34240D01*
X39920Y-34241D01*
X39920Y-34240D01*
X39919Y-34237D01*
X39917Y-34227D01*
X39912Y-34217D01*
X39906Y-34207D01*
X39902Y-34202D01*
X39891Y-34192D01*
X39878Y-34184D01*
X39864Y-34179D01*
X39849Y-34177D01*
X39834Y-34178D01*
X39825Y-34180D01*
X39811Y-34186D01*
X39799Y-34194D01*
X39788Y-34205D01*
X39780Y-34218D01*
X39775Y-34233D01*
X39774Y-34240D01*
X39773Y-34255D01*
X39776Y-34269D01*
X39781Y-34283D01*
X39789Y-34296D01*
X39800Y-34306D01*
X39813Y-34315D01*
X39819Y-34318D01*
X39826Y-34320D01*
X39832Y-34322D01*
X39837Y-34323D01*
X39837Y-34323D01*
X39837Y-34323D01*
X39834Y-34324D01*
X39827Y-34326D01*
X39817Y-34330D01*
X39808Y-34334D01*
X39804Y-34337D01*
X39794Y-34346D01*
X39785Y-34356D01*
X39779Y-34367D01*
X39775Y-34380D01*
X39773Y-34393D01*
X39773Y-34406D01*
X39774Y-34408D01*
X39778Y-34424D01*
X39785Y-34437D01*
X39795Y-34449D01*
X39803Y-34457D01*
X39816Y-34465D01*
X39831Y-34469D01*
X39836Y-34470D01*
X39844Y-34471D01*
X39853Y-34470D01*
X39861Y-34470D01*
X39867Y-34468D01*
X39872Y-34467D01*
X39886Y-34460D01*
X39898Y-34450D01*
X39908Y-34438D01*
X39912Y-34432D01*
X39916Y-34422D01*
X39919Y-34412D01*
X39919Y-34412D01*
X39920Y-34408D01*
X39920Y-34407D01*
X39920Y-34407D01*
X39920Y-34387D01*
X39920Y-34387D01*
X39920Y-34386D01*
X39919Y-34382D01*
X39919Y-34381D01*
X39914Y-34368D01*
X39907Y-34355D01*
X39898Y-34344D01*
X39887Y-34335D01*
X39874Y-34329D01*
X39873Y-34328D01*
X39867Y-34326D01*
X39861Y-34325D01*
X39854Y-34323D01*
X39860Y-34322D01*
X39869Y-34320D01*
X39882Y-34314D01*
X39894Y-34306D01*
X39905Y-34295D01*
X39913Y-34283D01*
X39915Y-34277D01*
X39918Y-34269D01*
X39919Y-34263D01*
X39920Y-34260D01*
X39920Y-34259D01*
X39920Y-34260D01*
X39921Y-34263D01*
X39922Y-34268D01*
X39924Y-34276D01*
X39927Y-34283D01*
X39932Y-34291D01*
X39942Y-34302D01*
X39953Y-34311D01*
X39966Y-34318D01*
X39980Y-34322D01*
X39986Y-34323D01*
X39980Y-34325D01*
X39979Y-34325D01*
X39972Y-34326D01*
X39966Y-34329D01*
X39965Y-34329D01*
X39952Y-34336D01*
X39941Y-34345D01*
X39932Y-34356D01*
X39925Y-34369D01*
X39921Y-34382D01*
X39921Y-34382D01*
X39920Y-34386D01*
X39920Y-34387D01*
X39920Y-34407D01*
X39920Y-34407D01*
X39920Y-34409D01*
X39921Y-34412D01*
X39924Y-34422D01*
X39930Y-34435D01*
X39939Y-34447D01*
X39950Y-34457D01*
X39963Y-34464D01*
X39963Y-34464D01*
X39977Y-34469D01*
X39992Y-34471D01*
X39992Y-34471D01*
G37*
G36*
X40431Y-34471D02*
X40443Y-34471D01*
X40454Y-34469D01*
X40461Y-34467D01*
X40475Y-34460D01*
X40487Y-34451D01*
X40497Y-34440D01*
X40504Y-34427D01*
X40508Y-34413D01*
X40510Y-34397D01*
X40510Y-34391D01*
X40507Y-34376D01*
X40501Y-34362D01*
X40492Y-34348D01*
X40489Y-34346D01*
X40479Y-34337D01*
X40467Y-34330D01*
X40454Y-34325D01*
X40453Y-34325D01*
X40442Y-34324D01*
X40430Y-34324D01*
X40419Y-34325D01*
X40415Y-34326D01*
X40401Y-34332D01*
X40389Y-34341D01*
X40379Y-34351D01*
X40371Y-34363D01*
X40365Y-34376D01*
X40363Y-34391D01*
X40363Y-34406D01*
X40366Y-34421D01*
X40371Y-34432D01*
X40380Y-34444D01*
X40391Y-34455D01*
X40403Y-34463D01*
X40418Y-34469D01*
X40419Y-34469D01*
X40431Y-34471D01*
X40431Y-34471D01*
G37*
G36*
X39701Y-34029D02*
X39716Y-34027D01*
X39730Y-34022D01*
X39737Y-34019D01*
X39743Y-34014D01*
X39750Y-34008D01*
X39758Y-34000D01*
X39766Y-33987D01*
X39771Y-33973D01*
X39772Y-33969D01*
X39773Y-33959D01*
X39773Y-33949D01*
X39771Y-33940D01*
X39767Y-33927D01*
X39761Y-33914D01*
X39752Y-33903D01*
X39750Y-33902D01*
X39743Y-33896D01*
X39735Y-33891D01*
X39728Y-33887D01*
X39725Y-33886D01*
X39719Y-33884D01*
X39713Y-33883D01*
X39709Y-33882D01*
X39706Y-33882D01*
X39709Y-33881D01*
X39713Y-33880D01*
X39717Y-33879D01*
X39723Y-33878D01*
X39734Y-33872D01*
X39745Y-33866D01*
X39753Y-33858D01*
X39755Y-33856D01*
X39764Y-33843D01*
X39770Y-33829D01*
X39773Y-33815D01*
X39773Y-33800D01*
X39772Y-33796D01*
X39768Y-33781D01*
X39761Y-33768D01*
X39751Y-33755D01*
X39742Y-33748D01*
X39729Y-33740D01*
X39715Y-33735D01*
X39712Y-33735D01*
X39702Y-33734D01*
X39692Y-33734D01*
X39682Y-33736D01*
X39674Y-33738D01*
X39660Y-33745D01*
X39648Y-33754D01*
X39639Y-33765D01*
X39631Y-33778D01*
X39627Y-33792D01*
X39626Y-33794D01*
X39625Y-33797D01*
X39625Y-33799D01*
X39624Y-33797D01*
X39624Y-33794D01*
X39623Y-33788D01*
X39620Y-33781D01*
X39618Y-33775D01*
X39615Y-33771D01*
X39606Y-33758D01*
X39595Y-33748D01*
X39582Y-33740D01*
X39568Y-33736D01*
X39552Y-33734D01*
X39540Y-33735D01*
X39526Y-33738D01*
X39513Y-33745D01*
X39505Y-33750D01*
X39494Y-33761D01*
X39486Y-33773D01*
X39480Y-33787D01*
X39478Y-33801D01*
X39478Y-33816D01*
X39481Y-33830D01*
X39487Y-33844D01*
X39496Y-33856D01*
X39507Y-33867D01*
X39521Y-33875D01*
X39536Y-33880D01*
X39544Y-33882D01*
X39539Y-33882D01*
X39536Y-33883D01*
X39524Y-33886D01*
X39513Y-33892D01*
X39502Y-33900D01*
X39493Y-33909D01*
X39488Y-33917D01*
X39483Y-33927D01*
X39480Y-33937D01*
X39478Y-33945D01*
X39478Y-33954D01*
X39478Y-33964D01*
X39479Y-33971D01*
X39482Y-33980D01*
X39489Y-33994D01*
X39498Y-34006D01*
X39510Y-34016D01*
X39523Y-34024D01*
X39539Y-34028D01*
X39543Y-34029D01*
X39552Y-34029D01*
X39561Y-34028D01*
X39570Y-34027D01*
X39576Y-34025D01*
X39590Y-34018D01*
X39602Y-34009D01*
X39612Y-33998D01*
X39619Y-33985D01*
X39624Y-33970D01*
X39624Y-33969D01*
X39625Y-33965D01*
X39625Y-33966D01*
X39625Y-33945D01*
X39625Y-33945D01*
X39624Y-33942D01*
X39624Y-33941D01*
X39621Y-33931D01*
X39617Y-33921D01*
X39611Y-33911D01*
X39606Y-33906D01*
X39595Y-33895D01*
X39581Y-33888D01*
X39566Y-33883D01*
X39559Y-33881D01*
X39564Y-33880D01*
X39569Y-33879D01*
X39573Y-33878D01*
X39576Y-33877D01*
X39590Y-33871D01*
X39602Y-33861D01*
X39612Y-33850D01*
X39619Y-33837D01*
X39624Y-33823D01*
X39624Y-33820D01*
X39625Y-33818D01*
X39626Y-33819D01*
X39627Y-33823D01*
X39627Y-33824D01*
X39629Y-33832D01*
X39633Y-33840D01*
X39637Y-33848D01*
X39641Y-33853D01*
X39648Y-33860D01*
X39655Y-33867D01*
X39662Y-33872D01*
X39663Y-33872D01*
X39674Y-33877D01*
X39686Y-33880D01*
X39691Y-33881D01*
X39685Y-33883D01*
X39672Y-33886D01*
X39659Y-33893D01*
X39647Y-33902D01*
X39638Y-33913D01*
X39636Y-33917D01*
X39632Y-33924D01*
X39629Y-33932D01*
X39627Y-33939D01*
X39626Y-33944D01*
X39626Y-33944D01*
X39625Y-33945D01*
X39625Y-33966D01*
X39626Y-33966D01*
X39626Y-33969D01*
X39627Y-33973D01*
X39629Y-33978D01*
X39632Y-33985D01*
X39639Y-33998D01*
X39649Y-34009D01*
X39660Y-34018D01*
X39673Y-34024D01*
X39687Y-34028D01*
X39701Y-34029D01*
X39701Y-34029D01*
G37*
G36*
X40145Y-34029D02*
X40159Y-34027D01*
X40173Y-34022D01*
X40186Y-34014D01*
X40196Y-34004D01*
X40205Y-33992D01*
X40211Y-33978D01*
X40213Y-33973D01*
X40214Y-33969D01*
X40214Y-33968D01*
X40215Y-33965D01*
X40215Y-33965D01*
X40215Y-33945D01*
X40214Y-33943D01*
X40213Y-33938D01*
X40210Y-33929D01*
X40204Y-33916D01*
X40195Y-33904D01*
X40183Y-33895D01*
X40170Y-33887D01*
X40156Y-33883D01*
X40149Y-33881D01*
X40154Y-33880D01*
X40154Y-33880D01*
X40166Y-33877D01*
X40178Y-33872D01*
X40182Y-33869D01*
X40190Y-33862D01*
X40197Y-33855D01*
X40203Y-33848D01*
X40206Y-33842D01*
X40211Y-33832D01*
X40213Y-33824D01*
X40214Y-33820D01*
X40215Y-33818D01*
X40215Y-33819D01*
X40216Y-33823D01*
X40219Y-33833D01*
X40226Y-33847D01*
X40236Y-33859D01*
X40247Y-33868D01*
X40260Y-33876D01*
X40276Y-33880D01*
X40281Y-33881D01*
X40274Y-33883D01*
X40267Y-33885D01*
X40253Y-33891D01*
X40240Y-33900D01*
X40230Y-33911D01*
X40226Y-33915D01*
X40223Y-33922D01*
X40219Y-33930D01*
X40217Y-33935D01*
X40216Y-33941D01*
X40216Y-33941D01*
X40215Y-33944D01*
X40215Y-33945D01*
X40215Y-33965D01*
X40215Y-33966D01*
X40216Y-33970D01*
X40217Y-33975D01*
X40222Y-33986D01*
X40227Y-33996D01*
X40232Y-34002D01*
X40243Y-34013D01*
X40256Y-34021D01*
X40271Y-34027D01*
X40277Y-34028D01*
X40287Y-34029D01*
X40298Y-34028D01*
X40307Y-34027D01*
X40308Y-34027D01*
X40323Y-34021D01*
X40336Y-34012D01*
X40346Y-34001D01*
X40355Y-33988D01*
X40360Y-33973D01*
X40362Y-33967D01*
X40362Y-33956D01*
X40362Y-33946D01*
X40360Y-33937D01*
X40358Y-33929D01*
X40353Y-33919D01*
X40347Y-33909D01*
X40340Y-33902D01*
X40331Y-33895D01*
X40321Y-33889D01*
X40318Y-33887D01*
X40311Y-33885D01*
X40304Y-33883D01*
X40299Y-33882D01*
X40298Y-33882D01*
X40300Y-33881D01*
X40304Y-33880D01*
X40313Y-33877D01*
X40322Y-33873D01*
X40330Y-33869D01*
X40332Y-33867D01*
X40342Y-33859D01*
X40350Y-33848D01*
X40356Y-33837D01*
X40359Y-33832D01*
X40362Y-33817D01*
X40362Y-33802D01*
X40360Y-33787D01*
X40359Y-33784D01*
X40352Y-33770D01*
X40343Y-33758D01*
X40332Y-33748D01*
X40319Y-33740D01*
X40304Y-33735D01*
X40302Y-33735D01*
X40292Y-33734D01*
X40281Y-33734D01*
X40272Y-33736D01*
X40269Y-33736D01*
X40255Y-33742D01*
X40242Y-33750D01*
X40231Y-33762D01*
X40222Y-33775D01*
X40220Y-33779D01*
X40218Y-33786D01*
X40216Y-33792D01*
X40216Y-33797D01*
X40216Y-33798D01*
X40215Y-33798D01*
X40214Y-33796D01*
X40213Y-33792D01*
X40211Y-33782D01*
X40204Y-33769D01*
X40195Y-33758D01*
X40184Y-33748D01*
X40171Y-33740D01*
X40171Y-33740D01*
X40158Y-33736D01*
X40143Y-33734D01*
X40128Y-33735D01*
X40114Y-33739D01*
X40106Y-33743D01*
X40093Y-33751D01*
X40083Y-33762D01*
X40075Y-33775D01*
X40069Y-33790D01*
X40069Y-33793D01*
X40067Y-33805D01*
X40068Y-33816D01*
X40071Y-33830D01*
X40077Y-33844D01*
X40086Y-33856D01*
X40097Y-33867D01*
X40110Y-33875D01*
X40125Y-33880D01*
X40128Y-33881D01*
X40131Y-33882D01*
X40131Y-33882D01*
X40127Y-33882D01*
X40118Y-33885D01*
X40109Y-33889D01*
X40100Y-33894D01*
X40092Y-33900D01*
X40082Y-33911D01*
X40074Y-33925D01*
X40073Y-33927D01*
X40068Y-33941D01*
X40067Y-33956D01*
X40069Y-33972D01*
X40074Y-33986D01*
X40077Y-33993D01*
X40082Y-33999D01*
X40088Y-34006D01*
X40088Y-34007D01*
X40100Y-34017D01*
X40114Y-34024D01*
X40128Y-34028D01*
X40130Y-34028D01*
X40145Y-34029D01*
X40145Y-34029D01*
G37*
G54D17*
X32022Y-33494D02*
G75*
G03X32376Y-33140I0J354D01*
G74*
G01*
X32376Y-33140D02*
G75*
G03X32022Y-32785I-354J0D01*
G74*
G01*
X33243Y-33140D02*
G75*
G03X33597Y-33494I354J0D01*
G74*
G01*
X33597Y-32785D02*
G75*
G03X33243Y-33140I0J-354D01*
G74*
G01*
X38372Y-33494D02*
G75*
G03X38726Y-33140I0J354D01*
G74*
G01*
X38726Y-33140D02*
G75*
G03X38372Y-32785I-354J0D01*
G74*
G01*
X39593Y-33140D02*
G75*
G03X39947Y-33494I354J0D01*
G74*
G01*
X39947Y-32785D02*
G75*
G03X39593Y-33140I0J-354D01*
G74*
G01*
%LPC*%
G54D18*
X31970Y-29900D03*
G54D19*
X32970Y-29900D03*
X33970Y-29900D03*
X34970Y-29900D03*
X35970Y-29900D03*
X36970Y-29900D03*
X37970Y-29900D03*
X38970Y-29900D03*
X39970Y-29900D03*
G54D20*
X39970Y-31813D03*
X39970Y-30987D03*
X33970Y-31813D03*
X33970Y-30987D03*
X38970Y-31813D03*
X38970Y-30987D03*
X37970Y-31813D03*
X37970Y-30987D03*
X36970Y-31813D03*
X36970Y-30987D03*
X35970Y-31813D03*
X35970Y-30987D03*
X34970Y-31813D03*
X34970Y-30987D03*
X32970Y-31813D03*
X32970Y-30987D03*
G54D18*
X40000Y-36380D03*
G54D19*
X39000Y-36380D03*
X38000Y-36380D03*
X37000Y-36380D03*
X36000Y-36380D03*
X35000Y-36380D03*
X34000Y-36380D03*
X33000Y-36380D03*
X32000Y-36380D03*
G54D20*
X32000Y-35293D03*
X32000Y-34467D03*
X38000Y-35293D03*
X38000Y-34467D03*
X33000Y-35293D03*
X33000Y-34467D03*
X34000Y-35293D03*
X34000Y-34467D03*
X35000Y-35293D03*
X35000Y-34467D03*
X36000Y-35293D03*
X36000Y-34467D03*
X37000Y-35293D03*
X37000Y-34467D03*
X39000Y-35293D03*
X39000Y-34467D03*
G54D21*
X32810Y-32844D03*
X32810Y-33435D03*
X33105Y-32844D03*
X32514Y-32844D03*
X32514Y-33435D03*
X33105Y-33435D03*
X39160Y-32844D03*
X39160Y-33435D03*
X39455Y-32844D03*
X38864Y-32844D03*
X38864Y-33435D03*
X39455Y-33435D03*
G54D10*
G36*
X40390Y-35700D02*
X39610Y-35700D01*
X39610Y-34920D01*
X40390Y-34920D01*
X40390Y-35700D01*
X40390Y-35700D01*
G37*
G54D22*
X40390Y-35700D02*
X39610Y-35700D01*
X39610Y-34920D01*
X40390Y-34920D01*
X40390Y-35700D01*
G54D10*
G36*
X32360Y-31290D02*
X31580Y-31290D01*
X31580Y-30580D01*
X32360Y-30580D01*
X32360Y-31290D01*
X32360Y-31290D01*
G37*
G54D22*
X32360Y-31290D02*
X31580Y-31290D01*
X31580Y-30580D01*
X32360Y-30580D01*
X32360Y-31290D01*
M02*
