G04 (created by PCBNEW (2013-07-03 BZR 4236)-testing) date Thu 04 Jul 2013 10:30:45 AM CEST*
%MOIN*%
G04 Gerber Fmt 3.4, Leading zero omitted, Abs format*
%FSLAX34Y34*%
G01*
G70*
G90*
G04 APERTURE LIST*
%ADD10C,0.005906*%
%ADD11R,0.064961X0.064961*%
%ADD12C,0.064961*%
%ADD13R,0.047200X0.047200*%
%ADD14C,0.025000*%
%ADD15C,0.011811*%
%ADD16C,0.007874*%
G04 APERTURE END LIST*
G54D10*
G54D11*
X31970Y-29900D03*
G54D12*
X32970Y-29900D03*
X33970Y-29900D03*
X34970Y-29900D03*
X35970Y-29900D03*
X36970Y-29900D03*
X37970Y-29900D03*
X38970Y-29900D03*
X39970Y-29900D03*
G54D13*
X39970Y-31813D03*
X39970Y-30987D03*
X33970Y-31813D03*
X33970Y-30987D03*
X38970Y-31813D03*
X38970Y-30987D03*
X37970Y-31813D03*
X37970Y-30987D03*
X36970Y-31813D03*
X36970Y-30987D03*
X35970Y-31813D03*
X35970Y-30987D03*
X34970Y-31813D03*
X34970Y-30987D03*
X32970Y-31813D03*
X32970Y-30987D03*
G54D11*
X40000Y-36380D03*
G54D12*
X39000Y-36380D03*
X38000Y-36380D03*
X37000Y-36380D03*
X36000Y-36380D03*
X35000Y-36380D03*
X34000Y-36380D03*
X33000Y-36380D03*
X32000Y-36380D03*
G54D13*
X32000Y-35293D03*
X32000Y-34467D03*
X38000Y-35293D03*
X38000Y-34467D03*
X33000Y-35293D03*
X33000Y-34467D03*
X34000Y-35293D03*
X34000Y-34467D03*
X35000Y-35293D03*
X35000Y-34467D03*
X36000Y-35293D03*
X36000Y-34467D03*
X37000Y-35293D03*
X37000Y-34467D03*
X39000Y-35293D03*
X39000Y-34467D03*
G54D14*
X34450Y-32317D03*
X37519Y-33962D03*
X32970Y-30980D03*
X39000Y-35300D03*
X35454Y-30978D03*
X36515Y-35301D03*
X36970Y-30988D03*
X35000Y-35291D03*
X38466Y-32317D03*
X33503Y-33962D03*
X33466Y-32317D03*
X38503Y-33962D03*
X37481Y-32317D03*
X34488Y-33962D03*
X39470Y-30978D03*
X32500Y-35301D03*
G54D15*
X34560Y-30987D02*
X34970Y-30987D01*
X34450Y-31096D02*
X34560Y-30987D01*
X34450Y-32317D02*
X34450Y-31096D01*
X37519Y-33962D02*
X37519Y-35183D01*
X37519Y-35183D02*
X37409Y-35293D01*
X37409Y-35293D02*
X37000Y-35293D01*
X32970Y-30980D02*
X32970Y-30987D01*
X39000Y-35300D02*
X39000Y-35293D01*
X35970Y-30987D02*
X35462Y-30987D01*
X35462Y-30987D02*
X35454Y-30978D01*
X36507Y-35293D02*
X36515Y-35301D01*
X36000Y-35293D02*
X36507Y-35293D01*
X36970Y-30988D02*
X36981Y-30977D01*
X36981Y-30977D02*
X36989Y-30977D01*
X35000Y-35291D02*
X34988Y-35302D01*
X34988Y-35302D02*
X34980Y-35302D01*
X38552Y-30987D02*
X38466Y-31073D01*
X38466Y-31073D02*
X38466Y-32317D01*
X38552Y-30987D02*
X38970Y-30987D01*
X33503Y-35206D02*
X33503Y-33962D01*
X33417Y-35293D02*
X33503Y-35206D01*
X33417Y-35293D02*
X33000Y-35293D01*
X33615Y-30987D02*
X33970Y-30987D01*
X33466Y-31136D02*
X33615Y-30987D01*
X33466Y-32317D02*
X33466Y-31136D01*
X38503Y-35143D02*
X38354Y-35293D01*
X38503Y-33962D02*
X38503Y-35143D01*
X38354Y-35293D02*
X38000Y-35293D01*
X37481Y-31104D02*
X37599Y-30987D01*
X37481Y-32317D02*
X37481Y-31104D01*
X37970Y-30987D02*
X37599Y-30987D01*
X34488Y-35175D02*
X34370Y-35293D01*
X34488Y-33962D02*
X34488Y-35175D01*
X34000Y-35293D02*
X34370Y-35293D01*
X32970Y-31813D02*
X32323Y-31813D01*
X31970Y-31459D02*
X31970Y-29900D01*
X32323Y-31813D02*
X31970Y-31459D01*
X39000Y-34467D02*
X39646Y-34467D01*
X39646Y-34467D02*
X40000Y-34820D01*
X40000Y-34820D02*
X40000Y-36380D01*
X39970Y-30987D02*
X39478Y-30987D01*
X39478Y-30987D02*
X39470Y-30978D01*
X32000Y-35293D02*
X32491Y-35293D01*
X32491Y-35293D02*
X32500Y-35301D01*
G54D10*
G36*
X40512Y-32542D02*
X40510Y-32558D01*
X40508Y-32565D01*
X40504Y-32573D01*
X40499Y-32579D01*
X40493Y-32584D01*
X40486Y-32588D01*
X40478Y-32590D01*
X40463Y-32592D01*
X40412Y-32592D01*
X40412Y-29856D01*
X40396Y-29771D01*
X40362Y-29691D01*
X40314Y-29618D01*
X40253Y-29557D01*
X40181Y-29508D01*
X40101Y-29474D01*
X40016Y-29457D01*
X39929Y-29456D01*
X39844Y-29473D01*
X39763Y-29505D01*
X39691Y-29553D01*
X39629Y-29613D01*
X39579Y-29685D01*
X39545Y-29765D01*
X39527Y-29850D01*
X39526Y-29937D01*
X39542Y-30022D01*
X39574Y-30103D01*
X39621Y-30176D01*
X39681Y-30238D01*
X39752Y-30288D01*
X39832Y-30323D01*
X39917Y-30341D01*
X40004Y-30343D01*
X40089Y-30328D01*
X40170Y-30297D01*
X40244Y-30250D01*
X40306Y-30190D01*
X40356Y-30119D01*
X40392Y-30040D01*
X40411Y-29955D01*
X40412Y-29856D01*
X40412Y-32592D01*
X40343Y-32592D01*
X40343Y-32062D01*
X40343Y-31906D01*
X40343Y-31719D01*
X40343Y-31563D01*
X40338Y-31536D01*
X40328Y-31511D01*
X40324Y-31505D01*
X40324Y-31234D01*
X40324Y-31211D01*
X40324Y-30739D01*
X40319Y-30716D01*
X40310Y-30695D01*
X40297Y-30675D01*
X40281Y-30659D01*
X40261Y-30646D01*
X40240Y-30637D01*
X40217Y-30632D01*
X40194Y-30632D01*
X39722Y-30632D01*
X39699Y-30637D01*
X39678Y-30646D01*
X39658Y-30659D01*
X39642Y-30675D01*
X39629Y-30695D01*
X39620Y-30716D01*
X39615Y-30739D01*
X39615Y-30762D01*
X39615Y-30783D01*
X39586Y-30763D01*
X39542Y-30745D01*
X39495Y-30735D01*
X39447Y-30735D01*
X39412Y-30742D01*
X39412Y-29856D01*
X39396Y-29771D01*
X39362Y-29691D01*
X39314Y-29618D01*
X39253Y-29557D01*
X39181Y-29508D01*
X39101Y-29474D01*
X39016Y-29457D01*
X38929Y-29456D01*
X38844Y-29473D01*
X38763Y-29505D01*
X38691Y-29553D01*
X38629Y-29613D01*
X38579Y-29685D01*
X38545Y-29765D01*
X38527Y-29850D01*
X38526Y-29937D01*
X38542Y-30022D01*
X38574Y-30103D01*
X38621Y-30176D01*
X38681Y-30238D01*
X38752Y-30288D01*
X38832Y-30323D01*
X38917Y-30341D01*
X39004Y-30343D01*
X39089Y-30328D01*
X39170Y-30297D01*
X39244Y-30250D01*
X39306Y-30190D01*
X39356Y-30119D01*
X39392Y-30040D01*
X39411Y-29955D01*
X39412Y-29856D01*
X39412Y-30742D01*
X39401Y-30744D01*
X39356Y-30762D01*
X39324Y-30783D01*
X39324Y-30739D01*
X39319Y-30716D01*
X39310Y-30695D01*
X39297Y-30675D01*
X39281Y-30659D01*
X39261Y-30646D01*
X39240Y-30637D01*
X39217Y-30632D01*
X39194Y-30632D01*
X38722Y-30632D01*
X38699Y-30637D01*
X38678Y-30646D01*
X38658Y-30659D01*
X38642Y-30675D01*
X38629Y-30695D01*
X38620Y-30716D01*
X38615Y-30739D01*
X38615Y-30762D01*
X38615Y-30809D01*
X38552Y-30809D01*
X38536Y-30811D01*
X38519Y-30812D01*
X38518Y-30813D01*
X38517Y-30813D01*
X38502Y-30817D01*
X38486Y-30822D01*
X38485Y-30822D01*
X38484Y-30823D01*
X38470Y-30830D01*
X38455Y-30838D01*
X38455Y-30838D01*
X38454Y-30839D01*
X38441Y-30849D01*
X38428Y-30859D01*
X38427Y-30861D01*
X38427Y-30861D01*
X38427Y-30861D01*
X38427Y-30861D01*
X38412Y-30875D01*
X38412Y-29856D01*
X38396Y-29771D01*
X38362Y-29691D01*
X38314Y-29618D01*
X38253Y-29557D01*
X38181Y-29508D01*
X38101Y-29474D01*
X38016Y-29457D01*
X37929Y-29456D01*
X37844Y-29473D01*
X37763Y-29505D01*
X37691Y-29553D01*
X37629Y-29613D01*
X37579Y-29685D01*
X37545Y-29765D01*
X37527Y-29850D01*
X37526Y-29937D01*
X37542Y-30022D01*
X37574Y-30103D01*
X37621Y-30176D01*
X37681Y-30238D01*
X37752Y-30288D01*
X37832Y-30323D01*
X37917Y-30341D01*
X38004Y-30343D01*
X38089Y-30328D01*
X38170Y-30297D01*
X38244Y-30250D01*
X38306Y-30190D01*
X38356Y-30119D01*
X38392Y-30040D01*
X38411Y-29955D01*
X38412Y-29856D01*
X38412Y-30875D01*
X38340Y-30947D01*
X38330Y-30960D01*
X38324Y-30968D01*
X38324Y-30739D01*
X38319Y-30716D01*
X38310Y-30695D01*
X38297Y-30675D01*
X38281Y-30659D01*
X38261Y-30646D01*
X38240Y-30637D01*
X38217Y-30632D01*
X38194Y-30632D01*
X37722Y-30632D01*
X37699Y-30637D01*
X37678Y-30646D01*
X37658Y-30659D01*
X37642Y-30675D01*
X37629Y-30695D01*
X37620Y-30716D01*
X37615Y-30739D01*
X37615Y-30762D01*
X37615Y-30809D01*
X37599Y-30809D01*
X37583Y-30811D01*
X37566Y-30812D01*
X37566Y-30813D01*
X37565Y-30813D01*
X37549Y-30817D01*
X37533Y-30822D01*
X37532Y-30822D01*
X37532Y-30823D01*
X37517Y-30830D01*
X37503Y-30838D01*
X37502Y-30838D01*
X37501Y-30839D01*
X37488Y-30849D01*
X37476Y-30859D01*
X37474Y-30861D01*
X37474Y-30861D01*
X37474Y-30861D01*
X37474Y-30861D01*
X37412Y-30923D01*
X37412Y-29856D01*
X37396Y-29771D01*
X37362Y-29691D01*
X37314Y-29618D01*
X37253Y-29557D01*
X37181Y-29508D01*
X37101Y-29474D01*
X37016Y-29457D01*
X36929Y-29456D01*
X36844Y-29473D01*
X36763Y-29505D01*
X36691Y-29553D01*
X36629Y-29613D01*
X36579Y-29685D01*
X36545Y-29765D01*
X36527Y-29850D01*
X36526Y-29937D01*
X36542Y-30022D01*
X36574Y-30103D01*
X36621Y-30176D01*
X36681Y-30238D01*
X36752Y-30288D01*
X36832Y-30323D01*
X36917Y-30341D01*
X37004Y-30343D01*
X37089Y-30328D01*
X37170Y-30297D01*
X37244Y-30250D01*
X37306Y-30190D01*
X37356Y-30119D01*
X37392Y-30040D01*
X37411Y-29955D01*
X37412Y-29856D01*
X37412Y-30923D01*
X37356Y-30979D01*
X37346Y-30992D01*
X37335Y-31004D01*
X37335Y-31005D01*
X37334Y-31006D01*
X37326Y-31020D01*
X37324Y-31025D01*
X37324Y-30739D01*
X37319Y-30716D01*
X37310Y-30695D01*
X37297Y-30675D01*
X37281Y-30659D01*
X37261Y-30646D01*
X37240Y-30637D01*
X37217Y-30632D01*
X37194Y-30632D01*
X36722Y-30632D01*
X36699Y-30637D01*
X36678Y-30646D01*
X36658Y-30659D01*
X36642Y-30675D01*
X36629Y-30695D01*
X36620Y-30716D01*
X36615Y-30739D01*
X36615Y-30762D01*
X36615Y-31234D01*
X36620Y-31257D01*
X36629Y-31278D01*
X36642Y-31298D01*
X36658Y-31314D01*
X36678Y-31327D01*
X36699Y-31336D01*
X36722Y-31341D01*
X36745Y-31341D01*
X37217Y-31341D01*
X37240Y-31336D01*
X37261Y-31327D01*
X37281Y-31314D01*
X37297Y-31298D01*
X37304Y-31287D01*
X37304Y-31480D01*
X37293Y-31469D01*
X37271Y-31454D01*
X37246Y-31444D01*
X37219Y-31439D01*
X37192Y-31439D01*
X37063Y-31439D01*
X37029Y-31473D01*
X37029Y-31753D01*
X37036Y-31753D01*
X37036Y-31872D01*
X37029Y-31872D01*
X37029Y-32152D01*
X37063Y-32186D01*
X37192Y-32186D01*
X37219Y-32186D01*
X37246Y-32181D01*
X37271Y-32171D01*
X37293Y-32156D01*
X37304Y-32145D01*
X37304Y-32150D01*
X37294Y-32160D01*
X37267Y-32199D01*
X37248Y-32243D01*
X37239Y-32290D01*
X37238Y-32337D01*
X37246Y-32384D01*
X37264Y-32428D01*
X37290Y-32469D01*
X37323Y-32503D01*
X37362Y-32530D01*
X37406Y-32549D01*
X37452Y-32559D01*
X37500Y-32560D01*
X37547Y-32552D01*
X37591Y-32535D01*
X37632Y-32509D01*
X37666Y-32476D01*
X37694Y-32437D01*
X37713Y-32394D01*
X37724Y-32347D01*
X37724Y-32293D01*
X37715Y-32246D01*
X37697Y-32202D01*
X37679Y-32175D01*
X37693Y-32181D01*
X37720Y-32186D01*
X37747Y-32186D01*
X37876Y-32186D01*
X37910Y-32152D01*
X37910Y-31872D01*
X37903Y-31872D01*
X37903Y-31753D01*
X37910Y-31753D01*
X37910Y-31473D01*
X37876Y-31439D01*
X37747Y-31439D01*
X37720Y-31439D01*
X37693Y-31444D01*
X37668Y-31454D01*
X37658Y-31461D01*
X37658Y-31314D01*
X37678Y-31327D01*
X37699Y-31336D01*
X37722Y-31341D01*
X37745Y-31341D01*
X38217Y-31341D01*
X38240Y-31336D01*
X38261Y-31327D01*
X38281Y-31314D01*
X38288Y-31307D01*
X38288Y-31466D01*
X38271Y-31454D01*
X38246Y-31444D01*
X38219Y-31439D01*
X38192Y-31439D01*
X38063Y-31439D01*
X38029Y-31473D01*
X38029Y-31753D01*
X38036Y-31753D01*
X38036Y-31872D01*
X38029Y-31872D01*
X38029Y-32152D01*
X38063Y-32186D01*
X38192Y-32186D01*
X38219Y-32186D01*
X38246Y-32181D01*
X38271Y-32171D01*
X38271Y-32170D01*
X38251Y-32199D01*
X38233Y-32243D01*
X38223Y-32290D01*
X38222Y-32337D01*
X38231Y-32384D01*
X38248Y-32428D01*
X38274Y-32469D01*
X38307Y-32503D01*
X38346Y-32530D01*
X38390Y-32549D01*
X38437Y-32559D01*
X38484Y-32560D01*
X38531Y-32552D01*
X38576Y-32535D01*
X38616Y-32509D01*
X38650Y-32476D01*
X38678Y-32437D01*
X38697Y-32394D01*
X38708Y-32347D01*
X38709Y-32293D01*
X38699Y-32246D01*
X38681Y-32202D01*
X38655Y-32162D01*
X38653Y-32160D01*
X38668Y-32171D01*
X38693Y-32181D01*
X38720Y-32186D01*
X38747Y-32186D01*
X38876Y-32186D01*
X38910Y-32152D01*
X38910Y-31872D01*
X38903Y-31872D01*
X38903Y-31753D01*
X38910Y-31753D01*
X38910Y-31473D01*
X38876Y-31439D01*
X38747Y-31439D01*
X38720Y-31439D01*
X38693Y-31444D01*
X38668Y-31454D01*
X38646Y-31469D01*
X38643Y-31472D01*
X38643Y-31299D01*
X38658Y-31314D01*
X38678Y-31327D01*
X38699Y-31336D01*
X38722Y-31341D01*
X38745Y-31341D01*
X39217Y-31341D01*
X39240Y-31336D01*
X39261Y-31327D01*
X39281Y-31314D01*
X39297Y-31298D01*
X39310Y-31278D01*
X39319Y-31257D01*
X39324Y-31234D01*
X39324Y-31211D01*
X39324Y-31173D01*
X39350Y-31191D01*
X39394Y-31211D01*
X39441Y-31221D01*
X39488Y-31222D01*
X39535Y-31214D01*
X39580Y-31196D01*
X39615Y-31174D01*
X39615Y-31234D01*
X39620Y-31257D01*
X39629Y-31278D01*
X39642Y-31298D01*
X39658Y-31314D01*
X39678Y-31327D01*
X39699Y-31336D01*
X39722Y-31341D01*
X39745Y-31341D01*
X40217Y-31341D01*
X40240Y-31336D01*
X40261Y-31327D01*
X40281Y-31314D01*
X40297Y-31298D01*
X40310Y-31278D01*
X40319Y-31257D01*
X40324Y-31234D01*
X40324Y-31505D01*
X40313Y-31489D01*
X40293Y-31469D01*
X40271Y-31454D01*
X40246Y-31444D01*
X40219Y-31439D01*
X40192Y-31439D01*
X40063Y-31439D01*
X40029Y-31473D01*
X40029Y-31753D01*
X40309Y-31753D01*
X40343Y-31719D01*
X40343Y-31906D01*
X40309Y-31872D01*
X40029Y-31872D01*
X40029Y-32152D01*
X40063Y-32186D01*
X40192Y-32186D01*
X40219Y-32186D01*
X40246Y-32181D01*
X40271Y-32171D01*
X40293Y-32156D01*
X40313Y-32136D01*
X40328Y-32114D01*
X40338Y-32089D01*
X40343Y-32062D01*
X40343Y-32592D01*
X39910Y-32592D01*
X39910Y-32152D01*
X39910Y-31872D01*
X39910Y-31753D01*
X39910Y-31473D01*
X39876Y-31439D01*
X39747Y-31439D01*
X39720Y-31439D01*
X39693Y-31444D01*
X39668Y-31454D01*
X39646Y-31469D01*
X39626Y-31489D01*
X39611Y-31511D01*
X39601Y-31536D01*
X39596Y-31563D01*
X39596Y-31719D01*
X39630Y-31753D01*
X39910Y-31753D01*
X39910Y-31872D01*
X39630Y-31872D01*
X39596Y-31906D01*
X39596Y-32062D01*
X39601Y-32089D01*
X39611Y-32114D01*
X39626Y-32136D01*
X39646Y-32156D01*
X39668Y-32171D01*
X39693Y-32181D01*
X39720Y-32186D01*
X39747Y-32186D01*
X39876Y-32186D01*
X39910Y-32152D01*
X39910Y-32592D01*
X39343Y-32592D01*
X39343Y-32062D01*
X39343Y-31906D01*
X39343Y-31719D01*
X39343Y-31563D01*
X39338Y-31536D01*
X39328Y-31511D01*
X39313Y-31489D01*
X39293Y-31469D01*
X39271Y-31454D01*
X39246Y-31444D01*
X39219Y-31439D01*
X39192Y-31439D01*
X39063Y-31439D01*
X39029Y-31473D01*
X39029Y-31753D01*
X39309Y-31753D01*
X39343Y-31719D01*
X39343Y-31906D01*
X39309Y-31872D01*
X39029Y-31872D01*
X39029Y-32152D01*
X39063Y-32186D01*
X39192Y-32186D01*
X39219Y-32186D01*
X39246Y-32181D01*
X39271Y-32171D01*
X39293Y-32156D01*
X39313Y-32136D01*
X39328Y-32114D01*
X39338Y-32089D01*
X39343Y-32062D01*
X39343Y-32592D01*
X36910Y-32592D01*
X36910Y-32152D01*
X36910Y-31872D01*
X36910Y-31753D01*
X36910Y-31473D01*
X36876Y-31439D01*
X36747Y-31439D01*
X36720Y-31439D01*
X36693Y-31444D01*
X36668Y-31454D01*
X36646Y-31469D01*
X36626Y-31489D01*
X36611Y-31511D01*
X36601Y-31536D01*
X36596Y-31563D01*
X36596Y-31719D01*
X36630Y-31753D01*
X36910Y-31753D01*
X36910Y-31872D01*
X36630Y-31872D01*
X36596Y-31906D01*
X36596Y-32062D01*
X36601Y-32089D01*
X36611Y-32114D01*
X36626Y-32136D01*
X36646Y-32156D01*
X36668Y-32171D01*
X36693Y-32181D01*
X36720Y-32186D01*
X36747Y-32186D01*
X36876Y-32186D01*
X36910Y-32152D01*
X36910Y-32592D01*
X36412Y-32592D01*
X36412Y-29856D01*
X36396Y-29771D01*
X36362Y-29691D01*
X36314Y-29618D01*
X36253Y-29557D01*
X36181Y-29508D01*
X36101Y-29474D01*
X36016Y-29457D01*
X35929Y-29456D01*
X35844Y-29473D01*
X35763Y-29505D01*
X35691Y-29553D01*
X35629Y-29613D01*
X35579Y-29685D01*
X35545Y-29765D01*
X35527Y-29850D01*
X35526Y-29937D01*
X35542Y-30022D01*
X35574Y-30103D01*
X35621Y-30176D01*
X35681Y-30238D01*
X35752Y-30288D01*
X35832Y-30323D01*
X35917Y-30341D01*
X36004Y-30343D01*
X36089Y-30328D01*
X36170Y-30297D01*
X36244Y-30250D01*
X36306Y-30190D01*
X36356Y-30119D01*
X36392Y-30040D01*
X36411Y-29955D01*
X36412Y-29856D01*
X36412Y-32592D01*
X36343Y-32592D01*
X36343Y-32062D01*
X36343Y-31906D01*
X36343Y-31719D01*
X36343Y-31563D01*
X36338Y-31536D01*
X36328Y-31511D01*
X36324Y-31505D01*
X36324Y-31234D01*
X36324Y-31211D01*
X36324Y-30739D01*
X36319Y-30716D01*
X36310Y-30695D01*
X36297Y-30675D01*
X36281Y-30659D01*
X36261Y-30646D01*
X36240Y-30637D01*
X36217Y-30632D01*
X36194Y-30632D01*
X35722Y-30632D01*
X35699Y-30637D01*
X35678Y-30646D01*
X35658Y-30659D01*
X35642Y-30675D01*
X35629Y-30695D01*
X35620Y-30716D01*
X35615Y-30739D01*
X35615Y-30762D01*
X35615Y-30796D01*
X35609Y-30790D01*
X35570Y-30763D01*
X35526Y-30745D01*
X35479Y-30735D01*
X35432Y-30735D01*
X35412Y-30739D01*
X35412Y-29856D01*
X35396Y-29771D01*
X35362Y-29691D01*
X35314Y-29618D01*
X35253Y-29557D01*
X35181Y-29508D01*
X35101Y-29474D01*
X35016Y-29457D01*
X34929Y-29456D01*
X34844Y-29473D01*
X34763Y-29505D01*
X34691Y-29553D01*
X34629Y-29613D01*
X34579Y-29685D01*
X34545Y-29765D01*
X34527Y-29850D01*
X34526Y-29937D01*
X34542Y-30022D01*
X34574Y-30103D01*
X34621Y-30176D01*
X34681Y-30238D01*
X34752Y-30288D01*
X34832Y-30323D01*
X34917Y-30341D01*
X35004Y-30343D01*
X35089Y-30328D01*
X35170Y-30297D01*
X35244Y-30250D01*
X35306Y-30190D01*
X35356Y-30119D01*
X35392Y-30040D01*
X35411Y-29955D01*
X35412Y-29856D01*
X35412Y-30739D01*
X35385Y-30744D01*
X35341Y-30762D01*
X35324Y-30773D01*
X35324Y-30739D01*
X35319Y-30716D01*
X35310Y-30695D01*
X35297Y-30675D01*
X35281Y-30659D01*
X35261Y-30646D01*
X35240Y-30637D01*
X35217Y-30632D01*
X35194Y-30632D01*
X34722Y-30632D01*
X34699Y-30637D01*
X34678Y-30646D01*
X34658Y-30659D01*
X34642Y-30675D01*
X34629Y-30695D01*
X34620Y-30716D01*
X34615Y-30739D01*
X34615Y-30762D01*
X34615Y-30809D01*
X34560Y-30809D01*
X34543Y-30811D01*
X34527Y-30812D01*
X34526Y-30813D01*
X34525Y-30813D01*
X34510Y-30817D01*
X34494Y-30822D01*
X34493Y-30822D01*
X34492Y-30823D01*
X34478Y-30830D01*
X34463Y-30838D01*
X34462Y-30838D01*
X34462Y-30839D01*
X34449Y-30849D01*
X34436Y-30859D01*
X34435Y-30861D01*
X34435Y-30861D01*
X34435Y-30861D01*
X34434Y-30861D01*
X34412Y-30883D01*
X34412Y-29856D01*
X34396Y-29771D01*
X34362Y-29691D01*
X34314Y-29618D01*
X34253Y-29557D01*
X34181Y-29508D01*
X34101Y-29474D01*
X34016Y-29457D01*
X33929Y-29456D01*
X33844Y-29473D01*
X33763Y-29505D01*
X33691Y-29553D01*
X33629Y-29613D01*
X33579Y-29685D01*
X33545Y-29765D01*
X33527Y-29850D01*
X33526Y-29937D01*
X33542Y-30022D01*
X33574Y-30103D01*
X33621Y-30176D01*
X33681Y-30238D01*
X33752Y-30288D01*
X33832Y-30323D01*
X33917Y-30341D01*
X34004Y-30343D01*
X34089Y-30328D01*
X34170Y-30297D01*
X34244Y-30250D01*
X34306Y-30190D01*
X34356Y-30119D01*
X34392Y-30040D01*
X34411Y-29955D01*
X34412Y-29856D01*
X34412Y-30883D01*
X34325Y-30971D01*
X34324Y-30972D01*
X34324Y-30739D01*
X34319Y-30716D01*
X34310Y-30695D01*
X34297Y-30675D01*
X34281Y-30659D01*
X34261Y-30646D01*
X34240Y-30637D01*
X34217Y-30632D01*
X34194Y-30632D01*
X33722Y-30632D01*
X33699Y-30637D01*
X33678Y-30646D01*
X33658Y-30659D01*
X33642Y-30675D01*
X33629Y-30695D01*
X33620Y-30716D01*
X33615Y-30739D01*
X33615Y-30762D01*
X33615Y-30809D01*
X33615Y-30809D01*
X33599Y-30811D01*
X33582Y-30812D01*
X33581Y-30813D01*
X33580Y-30813D01*
X33565Y-30817D01*
X33549Y-30822D01*
X33548Y-30822D01*
X33547Y-30823D01*
X33533Y-30830D01*
X33518Y-30838D01*
X33518Y-30838D01*
X33517Y-30839D01*
X33504Y-30849D01*
X33491Y-30859D01*
X33490Y-30861D01*
X33490Y-30861D01*
X33490Y-30861D01*
X33490Y-30861D01*
X33412Y-30938D01*
X33412Y-29856D01*
X33396Y-29771D01*
X33362Y-29691D01*
X33314Y-29618D01*
X33253Y-29557D01*
X33181Y-29508D01*
X33101Y-29474D01*
X33016Y-29457D01*
X32929Y-29456D01*
X32844Y-29473D01*
X32763Y-29505D01*
X32691Y-29553D01*
X32629Y-29613D01*
X32579Y-29685D01*
X32545Y-29765D01*
X32527Y-29850D01*
X32526Y-29937D01*
X32542Y-30022D01*
X32574Y-30103D01*
X32621Y-30176D01*
X32681Y-30238D01*
X32752Y-30288D01*
X32832Y-30323D01*
X32917Y-30341D01*
X33004Y-30343D01*
X33089Y-30328D01*
X33170Y-30297D01*
X33244Y-30250D01*
X33306Y-30190D01*
X33356Y-30119D01*
X33392Y-30040D01*
X33411Y-29955D01*
X33412Y-29856D01*
X33412Y-30938D01*
X33340Y-31010D01*
X33330Y-31023D01*
X33324Y-31031D01*
X33324Y-30739D01*
X33319Y-30716D01*
X33310Y-30695D01*
X33297Y-30675D01*
X33281Y-30659D01*
X33261Y-30646D01*
X33240Y-30637D01*
X33217Y-30632D01*
X33194Y-30632D01*
X32722Y-30632D01*
X32699Y-30637D01*
X32678Y-30646D01*
X32658Y-30659D01*
X32642Y-30675D01*
X32629Y-30695D01*
X32620Y-30716D01*
X32615Y-30739D01*
X32615Y-30762D01*
X32615Y-31234D01*
X32620Y-31257D01*
X32629Y-31278D01*
X32642Y-31298D01*
X32658Y-31314D01*
X32678Y-31327D01*
X32699Y-31336D01*
X32722Y-31341D01*
X32745Y-31341D01*
X33217Y-31341D01*
X33240Y-31336D01*
X33261Y-31327D01*
X33281Y-31314D01*
X33288Y-31307D01*
X33288Y-31466D01*
X33271Y-31454D01*
X33246Y-31444D01*
X33219Y-31439D01*
X33192Y-31439D01*
X33063Y-31439D01*
X33029Y-31473D01*
X33029Y-31753D01*
X33036Y-31753D01*
X33036Y-31872D01*
X33029Y-31872D01*
X33029Y-32152D01*
X33063Y-32186D01*
X33192Y-32186D01*
X33219Y-32186D01*
X33246Y-32181D01*
X33271Y-32171D01*
X33271Y-32170D01*
X33251Y-32199D01*
X33233Y-32243D01*
X33223Y-32290D01*
X33222Y-32337D01*
X33231Y-32384D01*
X33248Y-32428D01*
X33274Y-32469D01*
X33307Y-32503D01*
X33346Y-32530D01*
X33390Y-32549D01*
X33437Y-32559D01*
X33484Y-32560D01*
X33531Y-32552D01*
X33576Y-32535D01*
X33616Y-32509D01*
X33650Y-32476D01*
X33678Y-32437D01*
X33697Y-32394D01*
X33708Y-32347D01*
X33709Y-32293D01*
X33699Y-32246D01*
X33681Y-32202D01*
X33655Y-32162D01*
X33653Y-32160D01*
X33668Y-32171D01*
X33693Y-32181D01*
X33720Y-32186D01*
X33747Y-32186D01*
X33876Y-32186D01*
X33910Y-32152D01*
X33910Y-31872D01*
X33903Y-31872D01*
X33903Y-31753D01*
X33910Y-31753D01*
X33910Y-31473D01*
X33876Y-31439D01*
X33747Y-31439D01*
X33720Y-31439D01*
X33693Y-31444D01*
X33668Y-31454D01*
X33646Y-31469D01*
X33643Y-31472D01*
X33643Y-31299D01*
X33658Y-31314D01*
X33678Y-31327D01*
X33699Y-31336D01*
X33722Y-31341D01*
X33745Y-31341D01*
X34217Y-31341D01*
X34240Y-31336D01*
X34261Y-31327D01*
X34273Y-31320D01*
X34273Y-31456D01*
X34271Y-31454D01*
X34246Y-31444D01*
X34219Y-31439D01*
X34192Y-31439D01*
X34063Y-31439D01*
X34029Y-31473D01*
X34029Y-31753D01*
X34036Y-31753D01*
X34036Y-31872D01*
X34029Y-31872D01*
X34029Y-32152D01*
X34063Y-32186D01*
X34192Y-32186D01*
X34219Y-32186D01*
X34246Y-32181D01*
X34249Y-32180D01*
X34236Y-32199D01*
X34217Y-32243D01*
X34207Y-32290D01*
X34206Y-32337D01*
X34215Y-32384D01*
X34233Y-32428D01*
X34258Y-32469D01*
X34291Y-32503D01*
X34331Y-32530D01*
X34374Y-32549D01*
X34421Y-32559D01*
X34469Y-32560D01*
X34516Y-32552D01*
X34560Y-32535D01*
X34600Y-32509D01*
X34635Y-32476D01*
X34662Y-32437D01*
X34682Y-32394D01*
X34692Y-32347D01*
X34693Y-32293D01*
X34684Y-32246D01*
X34666Y-32202D01*
X34639Y-32162D01*
X34627Y-32150D01*
X34627Y-32137D01*
X34646Y-32156D01*
X34668Y-32171D01*
X34693Y-32181D01*
X34720Y-32186D01*
X34747Y-32186D01*
X34876Y-32186D01*
X34910Y-32152D01*
X34910Y-31872D01*
X34903Y-31872D01*
X34903Y-31753D01*
X34910Y-31753D01*
X34910Y-31473D01*
X34876Y-31439D01*
X34747Y-31439D01*
X34720Y-31439D01*
X34693Y-31444D01*
X34668Y-31454D01*
X34646Y-31469D01*
X34627Y-31488D01*
X34627Y-31274D01*
X34629Y-31278D01*
X34642Y-31298D01*
X34658Y-31314D01*
X34678Y-31327D01*
X34699Y-31336D01*
X34722Y-31341D01*
X34745Y-31341D01*
X35217Y-31341D01*
X35240Y-31336D01*
X35261Y-31327D01*
X35281Y-31314D01*
X35297Y-31298D01*
X35310Y-31278D01*
X35319Y-31257D01*
X35324Y-31234D01*
X35324Y-31211D01*
X35324Y-31184D01*
X35335Y-31191D01*
X35378Y-31211D01*
X35425Y-31221D01*
X35472Y-31222D01*
X35519Y-31214D01*
X35564Y-31196D01*
X35604Y-31171D01*
X35612Y-31164D01*
X35615Y-31164D01*
X35615Y-31234D01*
X35620Y-31257D01*
X35629Y-31278D01*
X35642Y-31298D01*
X35658Y-31314D01*
X35678Y-31327D01*
X35699Y-31336D01*
X35722Y-31341D01*
X35745Y-31341D01*
X36217Y-31341D01*
X36240Y-31336D01*
X36261Y-31327D01*
X36281Y-31314D01*
X36297Y-31298D01*
X36310Y-31278D01*
X36319Y-31257D01*
X36324Y-31234D01*
X36324Y-31505D01*
X36313Y-31489D01*
X36293Y-31469D01*
X36271Y-31454D01*
X36246Y-31444D01*
X36219Y-31439D01*
X36192Y-31439D01*
X36063Y-31439D01*
X36029Y-31473D01*
X36029Y-31753D01*
X36309Y-31753D01*
X36343Y-31719D01*
X36343Y-31906D01*
X36309Y-31872D01*
X36029Y-31872D01*
X36029Y-32152D01*
X36063Y-32186D01*
X36192Y-32186D01*
X36219Y-32186D01*
X36246Y-32181D01*
X36271Y-32171D01*
X36293Y-32156D01*
X36313Y-32136D01*
X36328Y-32114D01*
X36338Y-32089D01*
X36343Y-32062D01*
X36343Y-32592D01*
X35910Y-32592D01*
X35910Y-32152D01*
X35910Y-31872D01*
X35910Y-31753D01*
X35910Y-31473D01*
X35876Y-31439D01*
X35747Y-31439D01*
X35720Y-31439D01*
X35693Y-31444D01*
X35668Y-31454D01*
X35646Y-31469D01*
X35626Y-31489D01*
X35611Y-31511D01*
X35601Y-31536D01*
X35596Y-31563D01*
X35596Y-31719D01*
X35630Y-31753D01*
X35910Y-31753D01*
X35910Y-31872D01*
X35630Y-31872D01*
X35596Y-31906D01*
X35596Y-32062D01*
X35601Y-32089D01*
X35611Y-32114D01*
X35626Y-32136D01*
X35646Y-32156D01*
X35668Y-32171D01*
X35693Y-32181D01*
X35720Y-32186D01*
X35747Y-32186D01*
X35876Y-32186D01*
X35910Y-32152D01*
X35910Y-32592D01*
X35343Y-32592D01*
X35343Y-32062D01*
X35343Y-31906D01*
X35343Y-31719D01*
X35343Y-31563D01*
X35338Y-31536D01*
X35328Y-31511D01*
X35313Y-31489D01*
X35293Y-31469D01*
X35271Y-31454D01*
X35246Y-31444D01*
X35219Y-31439D01*
X35192Y-31439D01*
X35063Y-31439D01*
X35029Y-31473D01*
X35029Y-31753D01*
X35309Y-31753D01*
X35343Y-31719D01*
X35343Y-31906D01*
X35309Y-31872D01*
X35029Y-31872D01*
X35029Y-32152D01*
X35063Y-32186D01*
X35192Y-32186D01*
X35219Y-32186D01*
X35246Y-32181D01*
X35271Y-32171D01*
X35293Y-32156D01*
X35313Y-32136D01*
X35328Y-32114D01*
X35338Y-32089D01*
X35343Y-32062D01*
X35343Y-32592D01*
X32910Y-32592D01*
X32910Y-32152D01*
X32910Y-31872D01*
X32910Y-31753D01*
X32910Y-31473D01*
X32876Y-31439D01*
X32747Y-31439D01*
X32720Y-31439D01*
X32693Y-31444D01*
X32668Y-31454D01*
X32646Y-31469D01*
X32626Y-31489D01*
X32611Y-31511D01*
X32601Y-31536D01*
X32596Y-31563D01*
X32596Y-31719D01*
X32630Y-31753D01*
X32910Y-31753D01*
X32910Y-31872D01*
X32630Y-31872D01*
X32596Y-31906D01*
X32596Y-32062D01*
X32601Y-32089D01*
X32611Y-32114D01*
X32626Y-32136D01*
X32646Y-32156D01*
X32668Y-32171D01*
X32693Y-32181D01*
X32720Y-32186D01*
X32747Y-32186D01*
X32876Y-32186D01*
X32910Y-32152D01*
X32910Y-32592D01*
X32432Y-32592D01*
X32432Y-30238D01*
X32432Y-30211D01*
X32432Y-29993D01*
X32432Y-29806D01*
X32432Y-29588D01*
X32432Y-29561D01*
X32427Y-29535D01*
X32416Y-29509D01*
X32401Y-29487D01*
X32382Y-29468D01*
X32360Y-29453D01*
X32334Y-29442D01*
X32308Y-29437D01*
X32063Y-29437D01*
X32029Y-29471D01*
X32029Y-29840D01*
X32398Y-29840D01*
X32432Y-29806D01*
X32432Y-29993D01*
X32398Y-29959D01*
X32029Y-29959D01*
X32029Y-30328D01*
X32063Y-30362D01*
X32308Y-30362D01*
X32334Y-30357D01*
X32360Y-30346D01*
X32382Y-30331D01*
X32401Y-30312D01*
X32416Y-30290D01*
X32427Y-30264D01*
X32432Y-30238D01*
X32432Y-32592D01*
X31910Y-32592D01*
X31910Y-30328D01*
X31910Y-29959D01*
X31910Y-29840D01*
X31910Y-29471D01*
X31876Y-29437D01*
X31631Y-29437D01*
X31605Y-29442D01*
X31579Y-29453D01*
X31557Y-29468D01*
X31538Y-29487D01*
X31523Y-29509D01*
X31512Y-29535D01*
X31507Y-29561D01*
X31507Y-29588D01*
X31507Y-29806D01*
X31541Y-29840D01*
X31910Y-29840D01*
X31910Y-29959D01*
X31541Y-29959D01*
X31507Y-29993D01*
X31507Y-30211D01*
X31507Y-30238D01*
X31512Y-30264D01*
X31523Y-30290D01*
X31538Y-30312D01*
X31557Y-30331D01*
X31579Y-30346D01*
X31605Y-30357D01*
X31631Y-30362D01*
X31876Y-30362D01*
X31910Y-30328D01*
X31910Y-32592D01*
X31507Y-32592D01*
X31491Y-32590D01*
X31484Y-32588D01*
X31476Y-32584D01*
X31470Y-32579D01*
X31465Y-32573D01*
X31461Y-32566D01*
X31459Y-32558D01*
X31457Y-32543D01*
X31457Y-29407D01*
X31459Y-29391D01*
X31461Y-29384D01*
X31465Y-29376D01*
X31470Y-29370D01*
X31476Y-29365D01*
X31483Y-29361D01*
X31491Y-29359D01*
X31506Y-29357D01*
X40462Y-29357D01*
X40478Y-29359D01*
X40485Y-29361D01*
X40493Y-29365D01*
X40499Y-29370D01*
X40504Y-29376D01*
X40508Y-29383D01*
X40510Y-29391D01*
X40512Y-29406D01*
X40512Y-32542D01*
X40512Y-32542D01*
G37*
G54D16*
X40512Y-32542D02*
X40510Y-32558D01*
X40508Y-32565D01*
X40504Y-32573D01*
X40499Y-32579D01*
X40493Y-32584D01*
X40486Y-32588D01*
X40478Y-32590D01*
X40463Y-32592D01*
X40412Y-32592D01*
X40412Y-29856D01*
X40396Y-29771D01*
X40362Y-29691D01*
X40314Y-29618D01*
X40253Y-29557D01*
X40181Y-29508D01*
X40101Y-29474D01*
X40016Y-29457D01*
X39929Y-29456D01*
X39844Y-29473D01*
X39763Y-29505D01*
X39691Y-29553D01*
X39629Y-29613D01*
X39579Y-29685D01*
X39545Y-29765D01*
X39527Y-29850D01*
X39526Y-29937D01*
X39542Y-30022D01*
X39574Y-30103D01*
X39621Y-30176D01*
X39681Y-30238D01*
X39752Y-30288D01*
X39832Y-30323D01*
X39917Y-30341D01*
X40004Y-30343D01*
X40089Y-30328D01*
X40170Y-30297D01*
X40244Y-30250D01*
X40306Y-30190D01*
X40356Y-30119D01*
X40392Y-30040D01*
X40411Y-29955D01*
X40412Y-29856D01*
X40412Y-32592D01*
X40343Y-32592D01*
X40343Y-32062D01*
X40343Y-31906D01*
X40343Y-31719D01*
X40343Y-31563D01*
X40338Y-31536D01*
X40328Y-31511D01*
X40324Y-31505D01*
X40324Y-31234D01*
X40324Y-31211D01*
X40324Y-30739D01*
X40319Y-30716D01*
X40310Y-30695D01*
X40297Y-30675D01*
X40281Y-30659D01*
X40261Y-30646D01*
X40240Y-30637D01*
X40217Y-30632D01*
X40194Y-30632D01*
X39722Y-30632D01*
X39699Y-30637D01*
X39678Y-30646D01*
X39658Y-30659D01*
X39642Y-30675D01*
X39629Y-30695D01*
X39620Y-30716D01*
X39615Y-30739D01*
X39615Y-30762D01*
X39615Y-30783D01*
X39586Y-30763D01*
X39542Y-30745D01*
X39495Y-30735D01*
X39447Y-30735D01*
X39412Y-30742D01*
X39412Y-29856D01*
X39396Y-29771D01*
X39362Y-29691D01*
X39314Y-29618D01*
X39253Y-29557D01*
X39181Y-29508D01*
X39101Y-29474D01*
X39016Y-29457D01*
X38929Y-29456D01*
X38844Y-29473D01*
X38763Y-29505D01*
X38691Y-29553D01*
X38629Y-29613D01*
X38579Y-29685D01*
X38545Y-29765D01*
X38527Y-29850D01*
X38526Y-29937D01*
X38542Y-30022D01*
X38574Y-30103D01*
X38621Y-30176D01*
X38681Y-30238D01*
X38752Y-30288D01*
X38832Y-30323D01*
X38917Y-30341D01*
X39004Y-30343D01*
X39089Y-30328D01*
X39170Y-30297D01*
X39244Y-30250D01*
X39306Y-30190D01*
X39356Y-30119D01*
X39392Y-30040D01*
X39411Y-29955D01*
X39412Y-29856D01*
X39412Y-30742D01*
X39401Y-30744D01*
X39356Y-30762D01*
X39324Y-30783D01*
X39324Y-30739D01*
X39319Y-30716D01*
X39310Y-30695D01*
X39297Y-30675D01*
X39281Y-30659D01*
X39261Y-30646D01*
X39240Y-30637D01*
X39217Y-30632D01*
X39194Y-30632D01*
X38722Y-30632D01*
X38699Y-30637D01*
X38678Y-30646D01*
X38658Y-30659D01*
X38642Y-30675D01*
X38629Y-30695D01*
X38620Y-30716D01*
X38615Y-30739D01*
X38615Y-30762D01*
X38615Y-30809D01*
X38552Y-30809D01*
X38536Y-30811D01*
X38519Y-30812D01*
X38518Y-30813D01*
X38517Y-30813D01*
X38502Y-30817D01*
X38486Y-30822D01*
X38485Y-30822D01*
X38484Y-30823D01*
X38470Y-30830D01*
X38455Y-30838D01*
X38455Y-30838D01*
X38454Y-30839D01*
X38441Y-30849D01*
X38428Y-30859D01*
X38427Y-30861D01*
X38427Y-30861D01*
X38427Y-30861D01*
X38427Y-30861D01*
X38412Y-30875D01*
X38412Y-29856D01*
X38396Y-29771D01*
X38362Y-29691D01*
X38314Y-29618D01*
X38253Y-29557D01*
X38181Y-29508D01*
X38101Y-29474D01*
X38016Y-29457D01*
X37929Y-29456D01*
X37844Y-29473D01*
X37763Y-29505D01*
X37691Y-29553D01*
X37629Y-29613D01*
X37579Y-29685D01*
X37545Y-29765D01*
X37527Y-29850D01*
X37526Y-29937D01*
X37542Y-30022D01*
X37574Y-30103D01*
X37621Y-30176D01*
X37681Y-30238D01*
X37752Y-30288D01*
X37832Y-30323D01*
X37917Y-30341D01*
X38004Y-30343D01*
X38089Y-30328D01*
X38170Y-30297D01*
X38244Y-30250D01*
X38306Y-30190D01*
X38356Y-30119D01*
X38392Y-30040D01*
X38411Y-29955D01*
X38412Y-29856D01*
X38412Y-30875D01*
X38340Y-30947D01*
X38330Y-30960D01*
X38324Y-30968D01*
X38324Y-30739D01*
X38319Y-30716D01*
X38310Y-30695D01*
X38297Y-30675D01*
X38281Y-30659D01*
X38261Y-30646D01*
X38240Y-30637D01*
X38217Y-30632D01*
X38194Y-30632D01*
X37722Y-30632D01*
X37699Y-30637D01*
X37678Y-30646D01*
X37658Y-30659D01*
X37642Y-30675D01*
X37629Y-30695D01*
X37620Y-30716D01*
X37615Y-30739D01*
X37615Y-30762D01*
X37615Y-30809D01*
X37599Y-30809D01*
X37583Y-30811D01*
X37566Y-30812D01*
X37566Y-30813D01*
X37565Y-30813D01*
X37549Y-30817D01*
X37533Y-30822D01*
X37532Y-30822D01*
X37532Y-30823D01*
X37517Y-30830D01*
X37503Y-30838D01*
X37502Y-30838D01*
X37501Y-30839D01*
X37488Y-30849D01*
X37476Y-30859D01*
X37474Y-30861D01*
X37474Y-30861D01*
X37474Y-30861D01*
X37474Y-30861D01*
X37412Y-30923D01*
X37412Y-29856D01*
X37396Y-29771D01*
X37362Y-29691D01*
X37314Y-29618D01*
X37253Y-29557D01*
X37181Y-29508D01*
X37101Y-29474D01*
X37016Y-29457D01*
X36929Y-29456D01*
X36844Y-29473D01*
X36763Y-29505D01*
X36691Y-29553D01*
X36629Y-29613D01*
X36579Y-29685D01*
X36545Y-29765D01*
X36527Y-29850D01*
X36526Y-29937D01*
X36542Y-30022D01*
X36574Y-30103D01*
X36621Y-30176D01*
X36681Y-30238D01*
X36752Y-30288D01*
X36832Y-30323D01*
X36917Y-30341D01*
X37004Y-30343D01*
X37089Y-30328D01*
X37170Y-30297D01*
X37244Y-30250D01*
X37306Y-30190D01*
X37356Y-30119D01*
X37392Y-30040D01*
X37411Y-29955D01*
X37412Y-29856D01*
X37412Y-30923D01*
X37356Y-30979D01*
X37346Y-30992D01*
X37335Y-31004D01*
X37335Y-31005D01*
X37334Y-31006D01*
X37326Y-31020D01*
X37324Y-31025D01*
X37324Y-30739D01*
X37319Y-30716D01*
X37310Y-30695D01*
X37297Y-30675D01*
X37281Y-30659D01*
X37261Y-30646D01*
X37240Y-30637D01*
X37217Y-30632D01*
X37194Y-30632D01*
X36722Y-30632D01*
X36699Y-30637D01*
X36678Y-30646D01*
X36658Y-30659D01*
X36642Y-30675D01*
X36629Y-30695D01*
X36620Y-30716D01*
X36615Y-30739D01*
X36615Y-30762D01*
X36615Y-31234D01*
X36620Y-31257D01*
X36629Y-31278D01*
X36642Y-31298D01*
X36658Y-31314D01*
X36678Y-31327D01*
X36699Y-31336D01*
X36722Y-31341D01*
X36745Y-31341D01*
X37217Y-31341D01*
X37240Y-31336D01*
X37261Y-31327D01*
X37281Y-31314D01*
X37297Y-31298D01*
X37304Y-31287D01*
X37304Y-31480D01*
X37293Y-31469D01*
X37271Y-31454D01*
X37246Y-31444D01*
X37219Y-31439D01*
X37192Y-31439D01*
X37063Y-31439D01*
X37029Y-31473D01*
X37029Y-31753D01*
X37036Y-31753D01*
X37036Y-31872D01*
X37029Y-31872D01*
X37029Y-32152D01*
X37063Y-32186D01*
X37192Y-32186D01*
X37219Y-32186D01*
X37246Y-32181D01*
X37271Y-32171D01*
X37293Y-32156D01*
X37304Y-32145D01*
X37304Y-32150D01*
X37294Y-32160D01*
X37267Y-32199D01*
X37248Y-32243D01*
X37239Y-32290D01*
X37238Y-32337D01*
X37246Y-32384D01*
X37264Y-32428D01*
X37290Y-32469D01*
X37323Y-32503D01*
X37362Y-32530D01*
X37406Y-32549D01*
X37452Y-32559D01*
X37500Y-32560D01*
X37547Y-32552D01*
X37591Y-32535D01*
X37632Y-32509D01*
X37666Y-32476D01*
X37694Y-32437D01*
X37713Y-32394D01*
X37724Y-32347D01*
X37724Y-32293D01*
X37715Y-32246D01*
X37697Y-32202D01*
X37679Y-32175D01*
X37693Y-32181D01*
X37720Y-32186D01*
X37747Y-32186D01*
X37876Y-32186D01*
X37910Y-32152D01*
X37910Y-31872D01*
X37903Y-31872D01*
X37903Y-31753D01*
X37910Y-31753D01*
X37910Y-31473D01*
X37876Y-31439D01*
X37747Y-31439D01*
X37720Y-31439D01*
X37693Y-31444D01*
X37668Y-31454D01*
X37658Y-31461D01*
X37658Y-31314D01*
X37678Y-31327D01*
X37699Y-31336D01*
X37722Y-31341D01*
X37745Y-31341D01*
X38217Y-31341D01*
X38240Y-31336D01*
X38261Y-31327D01*
X38281Y-31314D01*
X38288Y-31307D01*
X38288Y-31466D01*
X38271Y-31454D01*
X38246Y-31444D01*
X38219Y-31439D01*
X38192Y-31439D01*
X38063Y-31439D01*
X38029Y-31473D01*
X38029Y-31753D01*
X38036Y-31753D01*
X38036Y-31872D01*
X38029Y-31872D01*
X38029Y-32152D01*
X38063Y-32186D01*
X38192Y-32186D01*
X38219Y-32186D01*
X38246Y-32181D01*
X38271Y-32171D01*
X38271Y-32170D01*
X38251Y-32199D01*
X38233Y-32243D01*
X38223Y-32290D01*
X38222Y-32337D01*
X38231Y-32384D01*
X38248Y-32428D01*
X38274Y-32469D01*
X38307Y-32503D01*
X38346Y-32530D01*
X38390Y-32549D01*
X38437Y-32559D01*
X38484Y-32560D01*
X38531Y-32552D01*
X38576Y-32535D01*
X38616Y-32509D01*
X38650Y-32476D01*
X38678Y-32437D01*
X38697Y-32394D01*
X38708Y-32347D01*
X38709Y-32293D01*
X38699Y-32246D01*
X38681Y-32202D01*
X38655Y-32162D01*
X38653Y-32160D01*
X38668Y-32171D01*
X38693Y-32181D01*
X38720Y-32186D01*
X38747Y-32186D01*
X38876Y-32186D01*
X38910Y-32152D01*
X38910Y-31872D01*
X38903Y-31872D01*
X38903Y-31753D01*
X38910Y-31753D01*
X38910Y-31473D01*
X38876Y-31439D01*
X38747Y-31439D01*
X38720Y-31439D01*
X38693Y-31444D01*
X38668Y-31454D01*
X38646Y-31469D01*
X38643Y-31472D01*
X38643Y-31299D01*
X38658Y-31314D01*
X38678Y-31327D01*
X38699Y-31336D01*
X38722Y-31341D01*
X38745Y-31341D01*
X39217Y-31341D01*
X39240Y-31336D01*
X39261Y-31327D01*
X39281Y-31314D01*
X39297Y-31298D01*
X39310Y-31278D01*
X39319Y-31257D01*
X39324Y-31234D01*
X39324Y-31211D01*
X39324Y-31173D01*
X39350Y-31191D01*
X39394Y-31211D01*
X39441Y-31221D01*
X39488Y-31222D01*
X39535Y-31214D01*
X39580Y-31196D01*
X39615Y-31174D01*
X39615Y-31234D01*
X39620Y-31257D01*
X39629Y-31278D01*
X39642Y-31298D01*
X39658Y-31314D01*
X39678Y-31327D01*
X39699Y-31336D01*
X39722Y-31341D01*
X39745Y-31341D01*
X40217Y-31341D01*
X40240Y-31336D01*
X40261Y-31327D01*
X40281Y-31314D01*
X40297Y-31298D01*
X40310Y-31278D01*
X40319Y-31257D01*
X40324Y-31234D01*
X40324Y-31505D01*
X40313Y-31489D01*
X40293Y-31469D01*
X40271Y-31454D01*
X40246Y-31444D01*
X40219Y-31439D01*
X40192Y-31439D01*
X40063Y-31439D01*
X40029Y-31473D01*
X40029Y-31753D01*
X40309Y-31753D01*
X40343Y-31719D01*
X40343Y-31906D01*
X40309Y-31872D01*
X40029Y-31872D01*
X40029Y-32152D01*
X40063Y-32186D01*
X40192Y-32186D01*
X40219Y-32186D01*
X40246Y-32181D01*
X40271Y-32171D01*
X40293Y-32156D01*
X40313Y-32136D01*
X40328Y-32114D01*
X40338Y-32089D01*
X40343Y-32062D01*
X40343Y-32592D01*
X39910Y-32592D01*
X39910Y-32152D01*
X39910Y-31872D01*
X39910Y-31753D01*
X39910Y-31473D01*
X39876Y-31439D01*
X39747Y-31439D01*
X39720Y-31439D01*
X39693Y-31444D01*
X39668Y-31454D01*
X39646Y-31469D01*
X39626Y-31489D01*
X39611Y-31511D01*
X39601Y-31536D01*
X39596Y-31563D01*
X39596Y-31719D01*
X39630Y-31753D01*
X39910Y-31753D01*
X39910Y-31872D01*
X39630Y-31872D01*
X39596Y-31906D01*
X39596Y-32062D01*
X39601Y-32089D01*
X39611Y-32114D01*
X39626Y-32136D01*
X39646Y-32156D01*
X39668Y-32171D01*
X39693Y-32181D01*
X39720Y-32186D01*
X39747Y-32186D01*
X39876Y-32186D01*
X39910Y-32152D01*
X39910Y-32592D01*
X39343Y-32592D01*
X39343Y-32062D01*
X39343Y-31906D01*
X39343Y-31719D01*
X39343Y-31563D01*
X39338Y-31536D01*
X39328Y-31511D01*
X39313Y-31489D01*
X39293Y-31469D01*
X39271Y-31454D01*
X39246Y-31444D01*
X39219Y-31439D01*
X39192Y-31439D01*
X39063Y-31439D01*
X39029Y-31473D01*
X39029Y-31753D01*
X39309Y-31753D01*
X39343Y-31719D01*
X39343Y-31906D01*
X39309Y-31872D01*
X39029Y-31872D01*
X39029Y-32152D01*
X39063Y-32186D01*
X39192Y-32186D01*
X39219Y-32186D01*
X39246Y-32181D01*
X39271Y-32171D01*
X39293Y-32156D01*
X39313Y-32136D01*
X39328Y-32114D01*
X39338Y-32089D01*
X39343Y-32062D01*
X39343Y-32592D01*
X36910Y-32592D01*
X36910Y-32152D01*
X36910Y-31872D01*
X36910Y-31753D01*
X36910Y-31473D01*
X36876Y-31439D01*
X36747Y-31439D01*
X36720Y-31439D01*
X36693Y-31444D01*
X36668Y-31454D01*
X36646Y-31469D01*
X36626Y-31489D01*
X36611Y-31511D01*
X36601Y-31536D01*
X36596Y-31563D01*
X36596Y-31719D01*
X36630Y-31753D01*
X36910Y-31753D01*
X36910Y-31872D01*
X36630Y-31872D01*
X36596Y-31906D01*
X36596Y-32062D01*
X36601Y-32089D01*
X36611Y-32114D01*
X36626Y-32136D01*
X36646Y-32156D01*
X36668Y-32171D01*
X36693Y-32181D01*
X36720Y-32186D01*
X36747Y-32186D01*
X36876Y-32186D01*
X36910Y-32152D01*
X36910Y-32592D01*
X36412Y-32592D01*
X36412Y-29856D01*
X36396Y-29771D01*
X36362Y-29691D01*
X36314Y-29618D01*
X36253Y-29557D01*
X36181Y-29508D01*
X36101Y-29474D01*
X36016Y-29457D01*
X35929Y-29456D01*
X35844Y-29473D01*
X35763Y-29505D01*
X35691Y-29553D01*
X35629Y-29613D01*
X35579Y-29685D01*
X35545Y-29765D01*
X35527Y-29850D01*
X35526Y-29937D01*
X35542Y-30022D01*
X35574Y-30103D01*
X35621Y-30176D01*
X35681Y-30238D01*
X35752Y-30288D01*
X35832Y-30323D01*
X35917Y-30341D01*
X36004Y-30343D01*
X36089Y-30328D01*
X36170Y-30297D01*
X36244Y-30250D01*
X36306Y-30190D01*
X36356Y-30119D01*
X36392Y-30040D01*
X36411Y-29955D01*
X36412Y-29856D01*
X36412Y-32592D01*
X36343Y-32592D01*
X36343Y-32062D01*
X36343Y-31906D01*
X36343Y-31719D01*
X36343Y-31563D01*
X36338Y-31536D01*
X36328Y-31511D01*
X36324Y-31505D01*
X36324Y-31234D01*
X36324Y-31211D01*
X36324Y-30739D01*
X36319Y-30716D01*
X36310Y-30695D01*
X36297Y-30675D01*
X36281Y-30659D01*
X36261Y-30646D01*
X36240Y-30637D01*
X36217Y-30632D01*
X36194Y-30632D01*
X35722Y-30632D01*
X35699Y-30637D01*
X35678Y-30646D01*
X35658Y-30659D01*
X35642Y-30675D01*
X35629Y-30695D01*
X35620Y-30716D01*
X35615Y-30739D01*
X35615Y-30762D01*
X35615Y-30796D01*
X35609Y-30790D01*
X35570Y-30763D01*
X35526Y-30745D01*
X35479Y-30735D01*
X35432Y-30735D01*
X35412Y-30739D01*
X35412Y-29856D01*
X35396Y-29771D01*
X35362Y-29691D01*
X35314Y-29618D01*
X35253Y-29557D01*
X35181Y-29508D01*
X35101Y-29474D01*
X35016Y-29457D01*
X34929Y-29456D01*
X34844Y-29473D01*
X34763Y-29505D01*
X34691Y-29553D01*
X34629Y-29613D01*
X34579Y-29685D01*
X34545Y-29765D01*
X34527Y-29850D01*
X34526Y-29937D01*
X34542Y-30022D01*
X34574Y-30103D01*
X34621Y-30176D01*
X34681Y-30238D01*
X34752Y-30288D01*
X34832Y-30323D01*
X34917Y-30341D01*
X35004Y-30343D01*
X35089Y-30328D01*
X35170Y-30297D01*
X35244Y-30250D01*
X35306Y-30190D01*
X35356Y-30119D01*
X35392Y-30040D01*
X35411Y-29955D01*
X35412Y-29856D01*
X35412Y-30739D01*
X35385Y-30744D01*
X35341Y-30762D01*
X35324Y-30773D01*
X35324Y-30739D01*
X35319Y-30716D01*
X35310Y-30695D01*
X35297Y-30675D01*
X35281Y-30659D01*
X35261Y-30646D01*
X35240Y-30637D01*
X35217Y-30632D01*
X35194Y-30632D01*
X34722Y-30632D01*
X34699Y-30637D01*
X34678Y-30646D01*
X34658Y-30659D01*
X34642Y-30675D01*
X34629Y-30695D01*
X34620Y-30716D01*
X34615Y-30739D01*
X34615Y-30762D01*
X34615Y-30809D01*
X34560Y-30809D01*
X34543Y-30811D01*
X34527Y-30812D01*
X34526Y-30813D01*
X34525Y-30813D01*
X34510Y-30817D01*
X34494Y-30822D01*
X34493Y-30822D01*
X34492Y-30823D01*
X34478Y-30830D01*
X34463Y-30838D01*
X34462Y-30838D01*
X34462Y-30839D01*
X34449Y-30849D01*
X34436Y-30859D01*
X34435Y-30861D01*
X34435Y-30861D01*
X34435Y-30861D01*
X34434Y-30861D01*
X34412Y-30883D01*
X34412Y-29856D01*
X34396Y-29771D01*
X34362Y-29691D01*
X34314Y-29618D01*
X34253Y-29557D01*
X34181Y-29508D01*
X34101Y-29474D01*
X34016Y-29457D01*
X33929Y-29456D01*
X33844Y-29473D01*
X33763Y-29505D01*
X33691Y-29553D01*
X33629Y-29613D01*
X33579Y-29685D01*
X33545Y-29765D01*
X33527Y-29850D01*
X33526Y-29937D01*
X33542Y-30022D01*
X33574Y-30103D01*
X33621Y-30176D01*
X33681Y-30238D01*
X33752Y-30288D01*
X33832Y-30323D01*
X33917Y-30341D01*
X34004Y-30343D01*
X34089Y-30328D01*
X34170Y-30297D01*
X34244Y-30250D01*
X34306Y-30190D01*
X34356Y-30119D01*
X34392Y-30040D01*
X34411Y-29955D01*
X34412Y-29856D01*
X34412Y-30883D01*
X34325Y-30971D01*
X34324Y-30972D01*
X34324Y-30739D01*
X34319Y-30716D01*
X34310Y-30695D01*
X34297Y-30675D01*
X34281Y-30659D01*
X34261Y-30646D01*
X34240Y-30637D01*
X34217Y-30632D01*
X34194Y-30632D01*
X33722Y-30632D01*
X33699Y-30637D01*
X33678Y-30646D01*
X33658Y-30659D01*
X33642Y-30675D01*
X33629Y-30695D01*
X33620Y-30716D01*
X33615Y-30739D01*
X33615Y-30762D01*
X33615Y-30809D01*
X33615Y-30809D01*
X33599Y-30811D01*
X33582Y-30812D01*
X33581Y-30813D01*
X33580Y-30813D01*
X33565Y-30817D01*
X33549Y-30822D01*
X33548Y-30822D01*
X33547Y-30823D01*
X33533Y-30830D01*
X33518Y-30838D01*
X33518Y-30838D01*
X33517Y-30839D01*
X33504Y-30849D01*
X33491Y-30859D01*
X33490Y-30861D01*
X33490Y-30861D01*
X33490Y-30861D01*
X33490Y-30861D01*
X33412Y-30938D01*
X33412Y-29856D01*
X33396Y-29771D01*
X33362Y-29691D01*
X33314Y-29618D01*
X33253Y-29557D01*
X33181Y-29508D01*
X33101Y-29474D01*
X33016Y-29457D01*
X32929Y-29456D01*
X32844Y-29473D01*
X32763Y-29505D01*
X32691Y-29553D01*
X32629Y-29613D01*
X32579Y-29685D01*
X32545Y-29765D01*
X32527Y-29850D01*
X32526Y-29937D01*
X32542Y-30022D01*
X32574Y-30103D01*
X32621Y-30176D01*
X32681Y-30238D01*
X32752Y-30288D01*
X32832Y-30323D01*
X32917Y-30341D01*
X33004Y-30343D01*
X33089Y-30328D01*
X33170Y-30297D01*
X33244Y-30250D01*
X33306Y-30190D01*
X33356Y-30119D01*
X33392Y-30040D01*
X33411Y-29955D01*
X33412Y-29856D01*
X33412Y-30938D01*
X33340Y-31010D01*
X33330Y-31023D01*
X33324Y-31031D01*
X33324Y-30739D01*
X33319Y-30716D01*
X33310Y-30695D01*
X33297Y-30675D01*
X33281Y-30659D01*
X33261Y-30646D01*
X33240Y-30637D01*
X33217Y-30632D01*
X33194Y-30632D01*
X32722Y-30632D01*
X32699Y-30637D01*
X32678Y-30646D01*
X32658Y-30659D01*
X32642Y-30675D01*
X32629Y-30695D01*
X32620Y-30716D01*
X32615Y-30739D01*
X32615Y-30762D01*
X32615Y-31234D01*
X32620Y-31257D01*
X32629Y-31278D01*
X32642Y-31298D01*
X32658Y-31314D01*
X32678Y-31327D01*
X32699Y-31336D01*
X32722Y-31341D01*
X32745Y-31341D01*
X33217Y-31341D01*
X33240Y-31336D01*
X33261Y-31327D01*
X33281Y-31314D01*
X33288Y-31307D01*
X33288Y-31466D01*
X33271Y-31454D01*
X33246Y-31444D01*
X33219Y-31439D01*
X33192Y-31439D01*
X33063Y-31439D01*
X33029Y-31473D01*
X33029Y-31753D01*
X33036Y-31753D01*
X33036Y-31872D01*
X33029Y-31872D01*
X33029Y-32152D01*
X33063Y-32186D01*
X33192Y-32186D01*
X33219Y-32186D01*
X33246Y-32181D01*
X33271Y-32171D01*
X33271Y-32170D01*
X33251Y-32199D01*
X33233Y-32243D01*
X33223Y-32290D01*
X33222Y-32337D01*
X33231Y-32384D01*
X33248Y-32428D01*
X33274Y-32469D01*
X33307Y-32503D01*
X33346Y-32530D01*
X33390Y-32549D01*
X33437Y-32559D01*
X33484Y-32560D01*
X33531Y-32552D01*
X33576Y-32535D01*
X33616Y-32509D01*
X33650Y-32476D01*
X33678Y-32437D01*
X33697Y-32394D01*
X33708Y-32347D01*
X33709Y-32293D01*
X33699Y-32246D01*
X33681Y-32202D01*
X33655Y-32162D01*
X33653Y-32160D01*
X33668Y-32171D01*
X33693Y-32181D01*
X33720Y-32186D01*
X33747Y-32186D01*
X33876Y-32186D01*
X33910Y-32152D01*
X33910Y-31872D01*
X33903Y-31872D01*
X33903Y-31753D01*
X33910Y-31753D01*
X33910Y-31473D01*
X33876Y-31439D01*
X33747Y-31439D01*
X33720Y-31439D01*
X33693Y-31444D01*
X33668Y-31454D01*
X33646Y-31469D01*
X33643Y-31472D01*
X33643Y-31299D01*
X33658Y-31314D01*
X33678Y-31327D01*
X33699Y-31336D01*
X33722Y-31341D01*
X33745Y-31341D01*
X34217Y-31341D01*
X34240Y-31336D01*
X34261Y-31327D01*
X34273Y-31320D01*
X34273Y-31456D01*
X34271Y-31454D01*
X34246Y-31444D01*
X34219Y-31439D01*
X34192Y-31439D01*
X34063Y-31439D01*
X34029Y-31473D01*
X34029Y-31753D01*
X34036Y-31753D01*
X34036Y-31872D01*
X34029Y-31872D01*
X34029Y-32152D01*
X34063Y-32186D01*
X34192Y-32186D01*
X34219Y-32186D01*
X34246Y-32181D01*
X34249Y-32180D01*
X34236Y-32199D01*
X34217Y-32243D01*
X34207Y-32290D01*
X34206Y-32337D01*
X34215Y-32384D01*
X34233Y-32428D01*
X34258Y-32469D01*
X34291Y-32503D01*
X34331Y-32530D01*
X34374Y-32549D01*
X34421Y-32559D01*
X34469Y-32560D01*
X34516Y-32552D01*
X34560Y-32535D01*
X34600Y-32509D01*
X34635Y-32476D01*
X34662Y-32437D01*
X34682Y-32394D01*
X34692Y-32347D01*
X34693Y-32293D01*
X34684Y-32246D01*
X34666Y-32202D01*
X34639Y-32162D01*
X34627Y-32150D01*
X34627Y-32137D01*
X34646Y-32156D01*
X34668Y-32171D01*
X34693Y-32181D01*
X34720Y-32186D01*
X34747Y-32186D01*
X34876Y-32186D01*
X34910Y-32152D01*
X34910Y-31872D01*
X34903Y-31872D01*
X34903Y-31753D01*
X34910Y-31753D01*
X34910Y-31473D01*
X34876Y-31439D01*
X34747Y-31439D01*
X34720Y-31439D01*
X34693Y-31444D01*
X34668Y-31454D01*
X34646Y-31469D01*
X34627Y-31488D01*
X34627Y-31274D01*
X34629Y-31278D01*
X34642Y-31298D01*
X34658Y-31314D01*
X34678Y-31327D01*
X34699Y-31336D01*
X34722Y-31341D01*
X34745Y-31341D01*
X35217Y-31341D01*
X35240Y-31336D01*
X35261Y-31327D01*
X35281Y-31314D01*
X35297Y-31298D01*
X35310Y-31278D01*
X35319Y-31257D01*
X35324Y-31234D01*
X35324Y-31211D01*
X35324Y-31184D01*
X35335Y-31191D01*
X35378Y-31211D01*
X35425Y-31221D01*
X35472Y-31222D01*
X35519Y-31214D01*
X35564Y-31196D01*
X35604Y-31171D01*
X35612Y-31164D01*
X35615Y-31164D01*
X35615Y-31234D01*
X35620Y-31257D01*
X35629Y-31278D01*
X35642Y-31298D01*
X35658Y-31314D01*
X35678Y-31327D01*
X35699Y-31336D01*
X35722Y-31341D01*
X35745Y-31341D01*
X36217Y-31341D01*
X36240Y-31336D01*
X36261Y-31327D01*
X36281Y-31314D01*
X36297Y-31298D01*
X36310Y-31278D01*
X36319Y-31257D01*
X36324Y-31234D01*
X36324Y-31505D01*
X36313Y-31489D01*
X36293Y-31469D01*
X36271Y-31454D01*
X36246Y-31444D01*
X36219Y-31439D01*
X36192Y-31439D01*
X36063Y-31439D01*
X36029Y-31473D01*
X36029Y-31753D01*
X36309Y-31753D01*
X36343Y-31719D01*
X36343Y-31906D01*
X36309Y-31872D01*
X36029Y-31872D01*
X36029Y-32152D01*
X36063Y-32186D01*
X36192Y-32186D01*
X36219Y-32186D01*
X36246Y-32181D01*
X36271Y-32171D01*
X36293Y-32156D01*
X36313Y-32136D01*
X36328Y-32114D01*
X36338Y-32089D01*
X36343Y-32062D01*
X36343Y-32592D01*
X35910Y-32592D01*
X35910Y-32152D01*
X35910Y-31872D01*
X35910Y-31753D01*
X35910Y-31473D01*
X35876Y-31439D01*
X35747Y-31439D01*
X35720Y-31439D01*
X35693Y-31444D01*
X35668Y-31454D01*
X35646Y-31469D01*
X35626Y-31489D01*
X35611Y-31511D01*
X35601Y-31536D01*
X35596Y-31563D01*
X35596Y-31719D01*
X35630Y-31753D01*
X35910Y-31753D01*
X35910Y-31872D01*
X35630Y-31872D01*
X35596Y-31906D01*
X35596Y-32062D01*
X35601Y-32089D01*
X35611Y-32114D01*
X35626Y-32136D01*
X35646Y-32156D01*
X35668Y-32171D01*
X35693Y-32181D01*
X35720Y-32186D01*
X35747Y-32186D01*
X35876Y-32186D01*
X35910Y-32152D01*
X35910Y-32592D01*
X35343Y-32592D01*
X35343Y-32062D01*
X35343Y-31906D01*
X35343Y-31719D01*
X35343Y-31563D01*
X35338Y-31536D01*
X35328Y-31511D01*
X35313Y-31489D01*
X35293Y-31469D01*
X35271Y-31454D01*
X35246Y-31444D01*
X35219Y-31439D01*
X35192Y-31439D01*
X35063Y-31439D01*
X35029Y-31473D01*
X35029Y-31753D01*
X35309Y-31753D01*
X35343Y-31719D01*
X35343Y-31906D01*
X35309Y-31872D01*
X35029Y-31872D01*
X35029Y-32152D01*
X35063Y-32186D01*
X35192Y-32186D01*
X35219Y-32186D01*
X35246Y-32181D01*
X35271Y-32171D01*
X35293Y-32156D01*
X35313Y-32136D01*
X35328Y-32114D01*
X35338Y-32089D01*
X35343Y-32062D01*
X35343Y-32592D01*
X32910Y-32592D01*
X32910Y-32152D01*
X32910Y-31872D01*
X32910Y-31753D01*
X32910Y-31473D01*
X32876Y-31439D01*
X32747Y-31439D01*
X32720Y-31439D01*
X32693Y-31444D01*
X32668Y-31454D01*
X32646Y-31469D01*
X32626Y-31489D01*
X32611Y-31511D01*
X32601Y-31536D01*
X32596Y-31563D01*
X32596Y-31719D01*
X32630Y-31753D01*
X32910Y-31753D01*
X32910Y-31872D01*
X32630Y-31872D01*
X32596Y-31906D01*
X32596Y-32062D01*
X32601Y-32089D01*
X32611Y-32114D01*
X32626Y-32136D01*
X32646Y-32156D01*
X32668Y-32171D01*
X32693Y-32181D01*
X32720Y-32186D01*
X32747Y-32186D01*
X32876Y-32186D01*
X32910Y-32152D01*
X32910Y-32592D01*
X32432Y-32592D01*
X32432Y-30238D01*
X32432Y-30211D01*
X32432Y-29993D01*
X32432Y-29806D01*
X32432Y-29588D01*
X32432Y-29561D01*
X32427Y-29535D01*
X32416Y-29509D01*
X32401Y-29487D01*
X32382Y-29468D01*
X32360Y-29453D01*
X32334Y-29442D01*
X32308Y-29437D01*
X32063Y-29437D01*
X32029Y-29471D01*
X32029Y-29840D01*
X32398Y-29840D01*
X32432Y-29806D01*
X32432Y-29993D01*
X32398Y-29959D01*
X32029Y-29959D01*
X32029Y-30328D01*
X32063Y-30362D01*
X32308Y-30362D01*
X32334Y-30357D01*
X32360Y-30346D01*
X32382Y-30331D01*
X32401Y-30312D01*
X32416Y-30290D01*
X32427Y-30264D01*
X32432Y-30238D01*
X32432Y-32592D01*
X31910Y-32592D01*
X31910Y-30328D01*
X31910Y-29959D01*
X31910Y-29840D01*
X31910Y-29471D01*
X31876Y-29437D01*
X31631Y-29437D01*
X31605Y-29442D01*
X31579Y-29453D01*
X31557Y-29468D01*
X31538Y-29487D01*
X31523Y-29509D01*
X31512Y-29535D01*
X31507Y-29561D01*
X31507Y-29588D01*
X31507Y-29806D01*
X31541Y-29840D01*
X31910Y-29840D01*
X31910Y-29959D01*
X31541Y-29959D01*
X31507Y-29993D01*
X31507Y-30211D01*
X31507Y-30238D01*
X31512Y-30264D01*
X31523Y-30290D01*
X31538Y-30312D01*
X31557Y-30331D01*
X31579Y-30346D01*
X31605Y-30357D01*
X31631Y-30362D01*
X31876Y-30362D01*
X31910Y-30328D01*
X31910Y-32592D01*
X31507Y-32592D01*
X31491Y-32590D01*
X31484Y-32588D01*
X31476Y-32584D01*
X31470Y-32579D01*
X31465Y-32573D01*
X31461Y-32566D01*
X31459Y-32558D01*
X31457Y-32543D01*
X31457Y-29407D01*
X31459Y-29391D01*
X31461Y-29384D01*
X31465Y-29376D01*
X31470Y-29370D01*
X31476Y-29365D01*
X31483Y-29361D01*
X31491Y-29359D01*
X31506Y-29357D01*
X40462Y-29357D01*
X40478Y-29359D01*
X40485Y-29361D01*
X40493Y-29365D01*
X40499Y-29370D01*
X40504Y-29376D01*
X40508Y-29383D01*
X40510Y-29391D01*
X40512Y-29406D01*
X40512Y-32542D01*
G54D10*
G36*
X40512Y-36872D02*
X40510Y-36888D01*
X40508Y-36895D01*
X40504Y-36903D01*
X40499Y-36909D01*
X40493Y-36914D01*
X40486Y-36918D01*
X40478Y-36920D01*
X40463Y-36922D01*
X40462Y-36922D01*
X40462Y-36718D01*
X40462Y-36691D01*
X40462Y-36473D01*
X40462Y-36286D01*
X40462Y-36068D01*
X40462Y-36041D01*
X40457Y-36015D01*
X40446Y-35989D01*
X40431Y-35967D01*
X40412Y-35948D01*
X40390Y-35933D01*
X40364Y-35922D01*
X40338Y-35917D01*
X40093Y-35917D01*
X40059Y-35951D01*
X40059Y-36320D01*
X40428Y-36320D01*
X40462Y-36286D01*
X40462Y-36473D01*
X40428Y-36439D01*
X40059Y-36439D01*
X40059Y-36808D01*
X40093Y-36842D01*
X40338Y-36842D01*
X40364Y-36837D01*
X40390Y-36826D01*
X40412Y-36811D01*
X40431Y-36792D01*
X40446Y-36770D01*
X40457Y-36744D01*
X40462Y-36718D01*
X40462Y-36922D01*
X39940Y-36922D01*
X39940Y-36808D01*
X39940Y-36439D01*
X39940Y-36320D01*
X39940Y-35951D01*
X39906Y-35917D01*
X39661Y-35917D01*
X39635Y-35922D01*
X39609Y-35933D01*
X39587Y-35948D01*
X39568Y-35967D01*
X39553Y-35989D01*
X39542Y-36015D01*
X39537Y-36041D01*
X39537Y-36068D01*
X39537Y-36286D01*
X39571Y-36320D01*
X39940Y-36320D01*
X39940Y-36439D01*
X39571Y-36439D01*
X39537Y-36473D01*
X39537Y-36691D01*
X39537Y-36718D01*
X39542Y-36744D01*
X39553Y-36770D01*
X39568Y-36792D01*
X39587Y-36811D01*
X39609Y-36826D01*
X39635Y-36837D01*
X39661Y-36842D01*
X39906Y-36842D01*
X39940Y-36808D01*
X39940Y-36922D01*
X39442Y-36922D01*
X39442Y-36336D01*
X39426Y-36251D01*
X39392Y-36171D01*
X39373Y-36142D01*
X39373Y-34716D01*
X39373Y-34560D01*
X39373Y-34373D01*
X39373Y-34217D01*
X39368Y-34190D01*
X39358Y-34165D01*
X39343Y-34143D01*
X39323Y-34123D01*
X39301Y-34108D01*
X39276Y-34098D01*
X39249Y-34093D01*
X39222Y-34093D01*
X39093Y-34093D01*
X39059Y-34127D01*
X39059Y-34407D01*
X39339Y-34407D01*
X39373Y-34373D01*
X39373Y-34560D01*
X39339Y-34526D01*
X39059Y-34526D01*
X39059Y-34806D01*
X39093Y-34840D01*
X39222Y-34840D01*
X39249Y-34840D01*
X39276Y-34835D01*
X39301Y-34825D01*
X39323Y-34810D01*
X39343Y-34790D01*
X39358Y-34768D01*
X39368Y-34743D01*
X39373Y-34716D01*
X39373Y-36142D01*
X39354Y-36112D01*
X39354Y-35540D01*
X39354Y-35517D01*
X39354Y-35045D01*
X39349Y-35022D01*
X39340Y-35001D01*
X39327Y-34981D01*
X39311Y-34965D01*
X39291Y-34952D01*
X39270Y-34943D01*
X39247Y-34938D01*
X39224Y-34938D01*
X38752Y-34938D01*
X38729Y-34943D01*
X38708Y-34952D01*
X38688Y-34965D01*
X38681Y-34972D01*
X38681Y-34813D01*
X38698Y-34825D01*
X38723Y-34835D01*
X38750Y-34840D01*
X38777Y-34840D01*
X38906Y-34840D01*
X38940Y-34806D01*
X38940Y-34526D01*
X38933Y-34526D01*
X38933Y-34407D01*
X38940Y-34407D01*
X38940Y-34127D01*
X38906Y-34093D01*
X38777Y-34093D01*
X38750Y-34093D01*
X38723Y-34098D01*
X38698Y-34108D01*
X38697Y-34109D01*
X38716Y-34083D01*
X38735Y-34039D01*
X38746Y-33993D01*
X38747Y-33938D01*
X38737Y-33892D01*
X38719Y-33847D01*
X38693Y-33808D01*
X38659Y-33774D01*
X38620Y-33747D01*
X38576Y-33729D01*
X38529Y-33719D01*
X38481Y-33719D01*
X38434Y-33728D01*
X38390Y-33746D01*
X38350Y-33772D01*
X38316Y-33805D01*
X38289Y-33844D01*
X38271Y-33888D01*
X38261Y-33935D01*
X38260Y-33983D01*
X38269Y-34030D01*
X38286Y-34074D01*
X38312Y-34114D01*
X38317Y-34119D01*
X38301Y-34108D01*
X38276Y-34098D01*
X38249Y-34093D01*
X38222Y-34093D01*
X38093Y-34093D01*
X38059Y-34127D01*
X38059Y-34407D01*
X38066Y-34407D01*
X38066Y-34526D01*
X38059Y-34526D01*
X38059Y-34806D01*
X38093Y-34840D01*
X38222Y-34840D01*
X38249Y-34840D01*
X38276Y-34835D01*
X38301Y-34825D01*
X38323Y-34810D01*
X38326Y-34807D01*
X38326Y-34980D01*
X38311Y-34965D01*
X38291Y-34952D01*
X38270Y-34943D01*
X38247Y-34938D01*
X38224Y-34938D01*
X37752Y-34938D01*
X37729Y-34943D01*
X37708Y-34952D01*
X37696Y-34959D01*
X37696Y-34823D01*
X37698Y-34825D01*
X37723Y-34835D01*
X37750Y-34840D01*
X37777Y-34840D01*
X37906Y-34840D01*
X37940Y-34806D01*
X37940Y-34526D01*
X37933Y-34526D01*
X37933Y-34407D01*
X37940Y-34407D01*
X37940Y-34127D01*
X37906Y-34093D01*
X37777Y-34093D01*
X37750Y-34093D01*
X37723Y-34098D01*
X37720Y-34099D01*
X37732Y-34083D01*
X37751Y-34039D01*
X37762Y-33993D01*
X37762Y-33938D01*
X37753Y-33892D01*
X37735Y-33847D01*
X37708Y-33808D01*
X37675Y-33774D01*
X37635Y-33747D01*
X37591Y-33729D01*
X37545Y-33719D01*
X37497Y-33719D01*
X37450Y-33728D01*
X37406Y-33746D01*
X37366Y-33772D01*
X37332Y-33805D01*
X37305Y-33844D01*
X37286Y-33888D01*
X37276Y-33935D01*
X37276Y-33983D01*
X37284Y-34030D01*
X37302Y-34074D01*
X37328Y-34114D01*
X37342Y-34129D01*
X37342Y-34142D01*
X37323Y-34123D01*
X37301Y-34108D01*
X37276Y-34098D01*
X37249Y-34093D01*
X37222Y-34093D01*
X37093Y-34093D01*
X37059Y-34127D01*
X37059Y-34407D01*
X37066Y-34407D01*
X37066Y-34526D01*
X37059Y-34526D01*
X37059Y-34806D01*
X37093Y-34840D01*
X37222Y-34840D01*
X37249Y-34840D01*
X37276Y-34835D01*
X37301Y-34825D01*
X37323Y-34810D01*
X37342Y-34791D01*
X37342Y-35005D01*
X37340Y-35001D01*
X37327Y-34981D01*
X37311Y-34965D01*
X37291Y-34952D01*
X37270Y-34943D01*
X37247Y-34938D01*
X37224Y-34938D01*
X36940Y-34938D01*
X36940Y-34806D01*
X36940Y-34526D01*
X36940Y-34407D01*
X36940Y-34127D01*
X36906Y-34093D01*
X36777Y-34093D01*
X36750Y-34093D01*
X36723Y-34098D01*
X36698Y-34108D01*
X36676Y-34123D01*
X36656Y-34143D01*
X36641Y-34165D01*
X36631Y-34190D01*
X36626Y-34217D01*
X36626Y-34373D01*
X36660Y-34407D01*
X36940Y-34407D01*
X36940Y-34526D01*
X36660Y-34526D01*
X36626Y-34560D01*
X36626Y-34716D01*
X36631Y-34743D01*
X36641Y-34768D01*
X36656Y-34790D01*
X36676Y-34810D01*
X36698Y-34825D01*
X36723Y-34835D01*
X36750Y-34840D01*
X36777Y-34840D01*
X36906Y-34840D01*
X36940Y-34806D01*
X36940Y-34938D01*
X36752Y-34938D01*
X36729Y-34943D01*
X36708Y-34952D01*
X36688Y-34965D01*
X36672Y-34981D01*
X36659Y-35001D01*
X36650Y-35022D01*
X36645Y-35045D01*
X36645Y-35068D01*
X36645Y-35095D01*
X36631Y-35086D01*
X36587Y-35067D01*
X36541Y-35058D01*
X36493Y-35057D01*
X36446Y-35066D01*
X36402Y-35084D01*
X36373Y-35103D01*
X36373Y-34716D01*
X36373Y-34560D01*
X36373Y-34373D01*
X36373Y-34217D01*
X36368Y-34190D01*
X36358Y-34165D01*
X36343Y-34143D01*
X36323Y-34123D01*
X36301Y-34108D01*
X36276Y-34098D01*
X36249Y-34093D01*
X36222Y-34093D01*
X36093Y-34093D01*
X36059Y-34127D01*
X36059Y-34407D01*
X36339Y-34407D01*
X36373Y-34373D01*
X36373Y-34560D01*
X36339Y-34526D01*
X36059Y-34526D01*
X36059Y-34806D01*
X36093Y-34840D01*
X36222Y-34840D01*
X36249Y-34840D01*
X36276Y-34835D01*
X36301Y-34825D01*
X36323Y-34810D01*
X36343Y-34790D01*
X36358Y-34768D01*
X36368Y-34743D01*
X36373Y-34716D01*
X36373Y-35103D01*
X36362Y-35110D01*
X36357Y-35115D01*
X36354Y-35115D01*
X36354Y-35045D01*
X36349Y-35022D01*
X36340Y-35001D01*
X36327Y-34981D01*
X36311Y-34965D01*
X36291Y-34952D01*
X36270Y-34943D01*
X36247Y-34938D01*
X36224Y-34938D01*
X35940Y-34938D01*
X35940Y-34806D01*
X35940Y-34526D01*
X35940Y-34407D01*
X35940Y-34127D01*
X35906Y-34093D01*
X35777Y-34093D01*
X35750Y-34093D01*
X35723Y-34098D01*
X35698Y-34108D01*
X35676Y-34123D01*
X35656Y-34143D01*
X35641Y-34165D01*
X35631Y-34190D01*
X35626Y-34217D01*
X35626Y-34373D01*
X35660Y-34407D01*
X35940Y-34407D01*
X35940Y-34526D01*
X35660Y-34526D01*
X35626Y-34560D01*
X35626Y-34716D01*
X35631Y-34743D01*
X35641Y-34768D01*
X35656Y-34790D01*
X35676Y-34810D01*
X35698Y-34825D01*
X35723Y-34835D01*
X35750Y-34840D01*
X35777Y-34840D01*
X35906Y-34840D01*
X35940Y-34806D01*
X35940Y-34938D01*
X35752Y-34938D01*
X35729Y-34943D01*
X35708Y-34952D01*
X35688Y-34965D01*
X35672Y-34981D01*
X35659Y-35001D01*
X35650Y-35022D01*
X35645Y-35045D01*
X35645Y-35068D01*
X35645Y-35540D01*
X35650Y-35563D01*
X35659Y-35584D01*
X35672Y-35604D01*
X35688Y-35620D01*
X35708Y-35633D01*
X35729Y-35642D01*
X35752Y-35647D01*
X35775Y-35647D01*
X36247Y-35647D01*
X36270Y-35642D01*
X36291Y-35633D01*
X36311Y-35620D01*
X36327Y-35604D01*
X36340Y-35584D01*
X36349Y-35563D01*
X36354Y-35540D01*
X36354Y-35517D01*
X36354Y-35483D01*
X36357Y-35487D01*
X36396Y-35514D01*
X36440Y-35533D01*
X36486Y-35543D01*
X36534Y-35544D01*
X36581Y-35536D01*
X36625Y-35519D01*
X36645Y-35506D01*
X36645Y-35540D01*
X36650Y-35563D01*
X36659Y-35584D01*
X36672Y-35604D01*
X36688Y-35620D01*
X36708Y-35633D01*
X36729Y-35642D01*
X36752Y-35647D01*
X36775Y-35647D01*
X37247Y-35647D01*
X37270Y-35642D01*
X37291Y-35633D01*
X37311Y-35620D01*
X37327Y-35604D01*
X37340Y-35584D01*
X37349Y-35563D01*
X37354Y-35540D01*
X37354Y-35517D01*
X37354Y-35470D01*
X37409Y-35470D01*
X37426Y-35468D01*
X37442Y-35467D01*
X37443Y-35466D01*
X37444Y-35466D01*
X37459Y-35462D01*
X37475Y-35457D01*
X37476Y-35457D01*
X37477Y-35456D01*
X37491Y-35449D01*
X37506Y-35441D01*
X37507Y-35441D01*
X37507Y-35440D01*
X37520Y-35430D01*
X37533Y-35420D01*
X37534Y-35418D01*
X37534Y-35418D01*
X37534Y-35418D01*
X37535Y-35418D01*
X37644Y-35308D01*
X37645Y-35307D01*
X37645Y-35540D01*
X37650Y-35563D01*
X37659Y-35584D01*
X37672Y-35604D01*
X37688Y-35620D01*
X37708Y-35633D01*
X37729Y-35642D01*
X37752Y-35647D01*
X37775Y-35647D01*
X38247Y-35647D01*
X38270Y-35642D01*
X38291Y-35633D01*
X38311Y-35620D01*
X38327Y-35604D01*
X38340Y-35584D01*
X38349Y-35563D01*
X38354Y-35540D01*
X38354Y-35517D01*
X38354Y-35470D01*
X38354Y-35470D01*
X38370Y-35468D01*
X38387Y-35467D01*
X38388Y-35466D01*
X38389Y-35466D01*
X38404Y-35462D01*
X38420Y-35457D01*
X38421Y-35457D01*
X38422Y-35456D01*
X38436Y-35449D01*
X38451Y-35441D01*
X38451Y-35441D01*
X38452Y-35440D01*
X38465Y-35430D01*
X38478Y-35420D01*
X38479Y-35418D01*
X38479Y-35418D01*
X38479Y-35418D01*
X38479Y-35418D01*
X38629Y-35269D01*
X38639Y-35256D01*
X38645Y-35248D01*
X38645Y-35540D01*
X38650Y-35563D01*
X38659Y-35584D01*
X38672Y-35604D01*
X38688Y-35620D01*
X38708Y-35633D01*
X38729Y-35642D01*
X38752Y-35647D01*
X38775Y-35647D01*
X39247Y-35647D01*
X39270Y-35642D01*
X39291Y-35633D01*
X39311Y-35620D01*
X39327Y-35604D01*
X39340Y-35584D01*
X39349Y-35563D01*
X39354Y-35540D01*
X39354Y-36112D01*
X39344Y-36098D01*
X39283Y-36037D01*
X39211Y-35988D01*
X39131Y-35954D01*
X39046Y-35937D01*
X38959Y-35936D01*
X38874Y-35953D01*
X38793Y-35985D01*
X38721Y-36033D01*
X38659Y-36093D01*
X38609Y-36165D01*
X38575Y-36245D01*
X38557Y-36330D01*
X38556Y-36417D01*
X38572Y-36502D01*
X38604Y-36583D01*
X38651Y-36656D01*
X38711Y-36718D01*
X38782Y-36768D01*
X38862Y-36803D01*
X38947Y-36821D01*
X39034Y-36823D01*
X39119Y-36808D01*
X39200Y-36777D01*
X39274Y-36730D01*
X39336Y-36670D01*
X39386Y-36599D01*
X39422Y-36520D01*
X39441Y-36435D01*
X39442Y-36336D01*
X39442Y-36922D01*
X38442Y-36922D01*
X38442Y-36336D01*
X38426Y-36251D01*
X38392Y-36171D01*
X38344Y-36098D01*
X38283Y-36037D01*
X38211Y-35988D01*
X38131Y-35954D01*
X38046Y-35937D01*
X37959Y-35936D01*
X37874Y-35953D01*
X37793Y-35985D01*
X37721Y-36033D01*
X37659Y-36093D01*
X37609Y-36165D01*
X37575Y-36245D01*
X37557Y-36330D01*
X37556Y-36417D01*
X37572Y-36502D01*
X37604Y-36583D01*
X37651Y-36656D01*
X37711Y-36718D01*
X37782Y-36768D01*
X37862Y-36803D01*
X37947Y-36821D01*
X38034Y-36823D01*
X38119Y-36808D01*
X38200Y-36777D01*
X38274Y-36730D01*
X38336Y-36670D01*
X38386Y-36599D01*
X38422Y-36520D01*
X38441Y-36435D01*
X38442Y-36336D01*
X38442Y-36922D01*
X37442Y-36922D01*
X37442Y-36336D01*
X37426Y-36251D01*
X37392Y-36171D01*
X37344Y-36098D01*
X37283Y-36037D01*
X37211Y-35988D01*
X37131Y-35954D01*
X37046Y-35937D01*
X36959Y-35936D01*
X36874Y-35953D01*
X36793Y-35985D01*
X36721Y-36033D01*
X36659Y-36093D01*
X36609Y-36165D01*
X36575Y-36245D01*
X36557Y-36330D01*
X36556Y-36417D01*
X36572Y-36502D01*
X36604Y-36583D01*
X36651Y-36656D01*
X36711Y-36718D01*
X36782Y-36768D01*
X36862Y-36803D01*
X36947Y-36821D01*
X37034Y-36823D01*
X37119Y-36808D01*
X37200Y-36777D01*
X37274Y-36730D01*
X37336Y-36670D01*
X37386Y-36599D01*
X37422Y-36520D01*
X37441Y-36435D01*
X37442Y-36336D01*
X37442Y-36922D01*
X36442Y-36922D01*
X36442Y-36336D01*
X36426Y-36251D01*
X36392Y-36171D01*
X36344Y-36098D01*
X36283Y-36037D01*
X36211Y-35988D01*
X36131Y-35954D01*
X36046Y-35937D01*
X35959Y-35936D01*
X35874Y-35953D01*
X35793Y-35985D01*
X35721Y-36033D01*
X35659Y-36093D01*
X35609Y-36165D01*
X35575Y-36245D01*
X35557Y-36330D01*
X35556Y-36417D01*
X35572Y-36502D01*
X35604Y-36583D01*
X35651Y-36656D01*
X35711Y-36718D01*
X35782Y-36768D01*
X35862Y-36803D01*
X35947Y-36821D01*
X36034Y-36823D01*
X36119Y-36808D01*
X36200Y-36777D01*
X36274Y-36730D01*
X36336Y-36670D01*
X36386Y-36599D01*
X36422Y-36520D01*
X36441Y-36435D01*
X36442Y-36336D01*
X36442Y-36922D01*
X35442Y-36922D01*
X35442Y-36336D01*
X35426Y-36251D01*
X35392Y-36171D01*
X35373Y-36142D01*
X35373Y-34716D01*
X35373Y-34560D01*
X35373Y-34373D01*
X35373Y-34217D01*
X35368Y-34190D01*
X35358Y-34165D01*
X35343Y-34143D01*
X35323Y-34123D01*
X35301Y-34108D01*
X35276Y-34098D01*
X35249Y-34093D01*
X35222Y-34093D01*
X35093Y-34093D01*
X35059Y-34127D01*
X35059Y-34407D01*
X35339Y-34407D01*
X35373Y-34373D01*
X35373Y-34560D01*
X35339Y-34526D01*
X35059Y-34526D01*
X35059Y-34806D01*
X35093Y-34840D01*
X35222Y-34840D01*
X35249Y-34840D01*
X35276Y-34835D01*
X35301Y-34825D01*
X35323Y-34810D01*
X35343Y-34790D01*
X35358Y-34768D01*
X35368Y-34743D01*
X35373Y-34716D01*
X35373Y-36142D01*
X35354Y-36112D01*
X35354Y-35540D01*
X35354Y-35517D01*
X35354Y-35045D01*
X35349Y-35022D01*
X35340Y-35001D01*
X35327Y-34981D01*
X35311Y-34965D01*
X35291Y-34952D01*
X35270Y-34943D01*
X35247Y-34938D01*
X35224Y-34938D01*
X34752Y-34938D01*
X34729Y-34943D01*
X34708Y-34952D01*
X34688Y-34965D01*
X34672Y-34981D01*
X34665Y-34992D01*
X34665Y-34799D01*
X34676Y-34810D01*
X34698Y-34825D01*
X34723Y-34835D01*
X34750Y-34840D01*
X34777Y-34840D01*
X34906Y-34840D01*
X34940Y-34806D01*
X34940Y-34526D01*
X34933Y-34526D01*
X34933Y-34407D01*
X34940Y-34407D01*
X34940Y-34127D01*
X34906Y-34093D01*
X34777Y-34093D01*
X34750Y-34093D01*
X34723Y-34098D01*
X34698Y-34108D01*
X34676Y-34123D01*
X34665Y-34134D01*
X34665Y-34129D01*
X34673Y-34122D01*
X34700Y-34083D01*
X34719Y-34039D01*
X34730Y-33993D01*
X34731Y-33938D01*
X34722Y-33892D01*
X34703Y-33847D01*
X34677Y-33808D01*
X34643Y-33774D01*
X34604Y-33747D01*
X34560Y-33729D01*
X34513Y-33719D01*
X34466Y-33719D01*
X34419Y-33728D01*
X34375Y-33746D01*
X34335Y-33772D01*
X34301Y-33805D01*
X34274Y-33844D01*
X34255Y-33888D01*
X34245Y-33935D01*
X34244Y-33983D01*
X34253Y-34030D01*
X34270Y-34074D01*
X34290Y-34104D01*
X34276Y-34098D01*
X34249Y-34093D01*
X34222Y-34093D01*
X34093Y-34093D01*
X34059Y-34127D01*
X34059Y-34407D01*
X34066Y-34407D01*
X34066Y-34526D01*
X34059Y-34526D01*
X34059Y-34806D01*
X34093Y-34840D01*
X34222Y-34840D01*
X34249Y-34840D01*
X34276Y-34835D01*
X34301Y-34825D01*
X34311Y-34818D01*
X34311Y-34965D01*
X34291Y-34952D01*
X34270Y-34943D01*
X34247Y-34938D01*
X34224Y-34938D01*
X33752Y-34938D01*
X33729Y-34943D01*
X33708Y-34952D01*
X33688Y-34965D01*
X33681Y-34972D01*
X33681Y-34813D01*
X33698Y-34825D01*
X33723Y-34835D01*
X33750Y-34840D01*
X33777Y-34840D01*
X33906Y-34840D01*
X33940Y-34806D01*
X33940Y-34526D01*
X33933Y-34526D01*
X33933Y-34407D01*
X33940Y-34407D01*
X33940Y-34127D01*
X33906Y-34093D01*
X33777Y-34093D01*
X33750Y-34093D01*
X33723Y-34098D01*
X33698Y-34108D01*
X33697Y-34109D01*
X33716Y-34083D01*
X33735Y-34039D01*
X33746Y-33993D01*
X33747Y-33938D01*
X33737Y-33892D01*
X33719Y-33847D01*
X33693Y-33808D01*
X33659Y-33774D01*
X33620Y-33747D01*
X33576Y-33729D01*
X33529Y-33719D01*
X33481Y-33719D01*
X33434Y-33728D01*
X33390Y-33746D01*
X33350Y-33772D01*
X33316Y-33805D01*
X33289Y-33844D01*
X33271Y-33888D01*
X33261Y-33935D01*
X33260Y-33983D01*
X33269Y-34030D01*
X33286Y-34074D01*
X33312Y-34114D01*
X33317Y-34119D01*
X33301Y-34108D01*
X33276Y-34098D01*
X33249Y-34093D01*
X33222Y-34093D01*
X33093Y-34093D01*
X33059Y-34127D01*
X33059Y-34407D01*
X33066Y-34407D01*
X33066Y-34526D01*
X33059Y-34526D01*
X33059Y-34806D01*
X33093Y-34840D01*
X33222Y-34840D01*
X33249Y-34840D01*
X33276Y-34835D01*
X33301Y-34825D01*
X33323Y-34810D01*
X33326Y-34807D01*
X33326Y-34980D01*
X33311Y-34965D01*
X33291Y-34952D01*
X33270Y-34943D01*
X33247Y-34938D01*
X33224Y-34938D01*
X32940Y-34938D01*
X32940Y-34806D01*
X32940Y-34526D01*
X32940Y-34407D01*
X32940Y-34127D01*
X32906Y-34093D01*
X32777Y-34093D01*
X32750Y-34093D01*
X32723Y-34098D01*
X32698Y-34108D01*
X32676Y-34123D01*
X32656Y-34143D01*
X32641Y-34165D01*
X32631Y-34190D01*
X32626Y-34217D01*
X32626Y-34373D01*
X32660Y-34407D01*
X32940Y-34407D01*
X32940Y-34526D01*
X32660Y-34526D01*
X32626Y-34560D01*
X32626Y-34716D01*
X32631Y-34743D01*
X32641Y-34768D01*
X32656Y-34790D01*
X32676Y-34810D01*
X32698Y-34825D01*
X32723Y-34835D01*
X32750Y-34840D01*
X32777Y-34840D01*
X32906Y-34840D01*
X32940Y-34806D01*
X32940Y-34938D01*
X32752Y-34938D01*
X32729Y-34943D01*
X32708Y-34952D01*
X32688Y-34965D01*
X32672Y-34981D01*
X32659Y-35001D01*
X32650Y-35022D01*
X32645Y-35045D01*
X32645Y-35068D01*
X32645Y-35106D01*
X32616Y-35086D01*
X32572Y-35067D01*
X32525Y-35058D01*
X32477Y-35057D01*
X32431Y-35066D01*
X32386Y-35084D01*
X32373Y-35093D01*
X32373Y-34716D01*
X32373Y-34560D01*
X32373Y-34373D01*
X32373Y-34217D01*
X32368Y-34190D01*
X32358Y-34165D01*
X32343Y-34143D01*
X32323Y-34123D01*
X32301Y-34108D01*
X32276Y-34098D01*
X32249Y-34093D01*
X32222Y-34093D01*
X32093Y-34093D01*
X32059Y-34127D01*
X32059Y-34407D01*
X32339Y-34407D01*
X32373Y-34373D01*
X32373Y-34560D01*
X32339Y-34526D01*
X32059Y-34526D01*
X32059Y-34806D01*
X32093Y-34840D01*
X32222Y-34840D01*
X32249Y-34840D01*
X32276Y-34835D01*
X32301Y-34825D01*
X32323Y-34810D01*
X32343Y-34790D01*
X32358Y-34768D01*
X32368Y-34743D01*
X32373Y-34716D01*
X32373Y-35093D01*
X32354Y-35106D01*
X32354Y-35045D01*
X32349Y-35022D01*
X32340Y-35001D01*
X32327Y-34981D01*
X32311Y-34965D01*
X32291Y-34952D01*
X32270Y-34943D01*
X32247Y-34938D01*
X32224Y-34938D01*
X31940Y-34938D01*
X31940Y-34806D01*
X31940Y-34526D01*
X31940Y-34407D01*
X31940Y-34127D01*
X31906Y-34093D01*
X31777Y-34093D01*
X31750Y-34093D01*
X31723Y-34098D01*
X31698Y-34108D01*
X31676Y-34123D01*
X31656Y-34143D01*
X31641Y-34165D01*
X31631Y-34190D01*
X31626Y-34217D01*
X31626Y-34373D01*
X31660Y-34407D01*
X31940Y-34407D01*
X31940Y-34526D01*
X31660Y-34526D01*
X31626Y-34560D01*
X31626Y-34716D01*
X31631Y-34743D01*
X31641Y-34768D01*
X31656Y-34790D01*
X31676Y-34810D01*
X31698Y-34825D01*
X31723Y-34835D01*
X31750Y-34840D01*
X31777Y-34840D01*
X31906Y-34840D01*
X31940Y-34806D01*
X31940Y-34938D01*
X31752Y-34938D01*
X31729Y-34943D01*
X31708Y-34952D01*
X31688Y-34965D01*
X31672Y-34981D01*
X31659Y-35001D01*
X31650Y-35022D01*
X31645Y-35045D01*
X31645Y-35068D01*
X31645Y-35540D01*
X31650Y-35563D01*
X31659Y-35584D01*
X31672Y-35604D01*
X31688Y-35620D01*
X31708Y-35633D01*
X31729Y-35642D01*
X31752Y-35647D01*
X31775Y-35647D01*
X32247Y-35647D01*
X32270Y-35642D01*
X32291Y-35633D01*
X32311Y-35620D01*
X32327Y-35604D01*
X32340Y-35584D01*
X32349Y-35563D01*
X32354Y-35540D01*
X32354Y-35517D01*
X32354Y-35495D01*
X32380Y-35514D01*
X32424Y-35533D01*
X32471Y-35543D01*
X32518Y-35544D01*
X32565Y-35536D01*
X32610Y-35519D01*
X32645Y-35496D01*
X32645Y-35540D01*
X32650Y-35563D01*
X32659Y-35584D01*
X32672Y-35604D01*
X32688Y-35620D01*
X32708Y-35633D01*
X32729Y-35642D01*
X32752Y-35647D01*
X32775Y-35647D01*
X33247Y-35647D01*
X33270Y-35642D01*
X33291Y-35633D01*
X33311Y-35620D01*
X33327Y-35604D01*
X33340Y-35584D01*
X33349Y-35563D01*
X33354Y-35540D01*
X33354Y-35517D01*
X33354Y-35470D01*
X33417Y-35470D01*
X33433Y-35468D01*
X33450Y-35467D01*
X33451Y-35466D01*
X33452Y-35466D01*
X33467Y-35462D01*
X33483Y-35457D01*
X33484Y-35457D01*
X33485Y-35456D01*
X33499Y-35449D01*
X33514Y-35441D01*
X33514Y-35441D01*
X33515Y-35440D01*
X33528Y-35430D01*
X33541Y-35420D01*
X33542Y-35418D01*
X33542Y-35418D01*
X33542Y-35418D01*
X33542Y-35418D01*
X33629Y-35332D01*
X33639Y-35319D01*
X33645Y-35311D01*
X33645Y-35540D01*
X33650Y-35563D01*
X33659Y-35584D01*
X33672Y-35604D01*
X33688Y-35620D01*
X33708Y-35633D01*
X33729Y-35642D01*
X33752Y-35647D01*
X33775Y-35647D01*
X34247Y-35647D01*
X34270Y-35642D01*
X34291Y-35633D01*
X34311Y-35620D01*
X34327Y-35604D01*
X34340Y-35584D01*
X34349Y-35563D01*
X34354Y-35540D01*
X34354Y-35517D01*
X34354Y-35470D01*
X34370Y-35470D01*
X34386Y-35468D01*
X34403Y-35467D01*
X34403Y-35466D01*
X34404Y-35466D01*
X34420Y-35462D01*
X34436Y-35457D01*
X34437Y-35457D01*
X34437Y-35456D01*
X34452Y-35449D01*
X34466Y-35441D01*
X34467Y-35441D01*
X34468Y-35440D01*
X34481Y-35430D01*
X34493Y-35420D01*
X34495Y-35418D01*
X34495Y-35418D01*
X34495Y-35418D01*
X34495Y-35418D01*
X34613Y-35300D01*
X34623Y-35287D01*
X34634Y-35275D01*
X34634Y-35274D01*
X34635Y-35273D01*
X34643Y-35259D01*
X34645Y-35254D01*
X34645Y-35540D01*
X34650Y-35563D01*
X34659Y-35584D01*
X34672Y-35604D01*
X34688Y-35620D01*
X34708Y-35633D01*
X34729Y-35642D01*
X34752Y-35647D01*
X34775Y-35647D01*
X35247Y-35647D01*
X35270Y-35642D01*
X35291Y-35633D01*
X35311Y-35620D01*
X35327Y-35604D01*
X35340Y-35584D01*
X35349Y-35563D01*
X35354Y-35540D01*
X35354Y-36112D01*
X35344Y-36098D01*
X35283Y-36037D01*
X35211Y-35988D01*
X35131Y-35954D01*
X35046Y-35937D01*
X34959Y-35936D01*
X34874Y-35953D01*
X34793Y-35985D01*
X34721Y-36033D01*
X34659Y-36093D01*
X34609Y-36165D01*
X34575Y-36245D01*
X34557Y-36330D01*
X34556Y-36417D01*
X34572Y-36502D01*
X34604Y-36583D01*
X34651Y-36656D01*
X34711Y-36718D01*
X34782Y-36768D01*
X34862Y-36803D01*
X34947Y-36821D01*
X35034Y-36823D01*
X35119Y-36808D01*
X35200Y-36777D01*
X35274Y-36730D01*
X35336Y-36670D01*
X35386Y-36599D01*
X35422Y-36520D01*
X35441Y-36435D01*
X35442Y-36336D01*
X35442Y-36922D01*
X34442Y-36922D01*
X34442Y-36336D01*
X34426Y-36251D01*
X34392Y-36171D01*
X34344Y-36098D01*
X34283Y-36037D01*
X34211Y-35988D01*
X34131Y-35954D01*
X34046Y-35937D01*
X33959Y-35936D01*
X33874Y-35953D01*
X33793Y-35985D01*
X33721Y-36033D01*
X33659Y-36093D01*
X33609Y-36165D01*
X33575Y-36245D01*
X33557Y-36330D01*
X33556Y-36417D01*
X33572Y-36502D01*
X33604Y-36583D01*
X33651Y-36656D01*
X33711Y-36718D01*
X33782Y-36768D01*
X33862Y-36803D01*
X33947Y-36821D01*
X34034Y-36823D01*
X34119Y-36808D01*
X34200Y-36777D01*
X34274Y-36730D01*
X34336Y-36670D01*
X34386Y-36599D01*
X34422Y-36520D01*
X34441Y-36435D01*
X34442Y-36336D01*
X34442Y-36922D01*
X33442Y-36922D01*
X33442Y-36336D01*
X33426Y-36251D01*
X33392Y-36171D01*
X33344Y-36098D01*
X33283Y-36037D01*
X33211Y-35988D01*
X33131Y-35954D01*
X33046Y-35937D01*
X32959Y-35936D01*
X32874Y-35953D01*
X32793Y-35985D01*
X32721Y-36033D01*
X32659Y-36093D01*
X32609Y-36165D01*
X32575Y-36245D01*
X32557Y-36330D01*
X32556Y-36417D01*
X32572Y-36502D01*
X32604Y-36583D01*
X32651Y-36656D01*
X32711Y-36718D01*
X32782Y-36768D01*
X32862Y-36803D01*
X32947Y-36821D01*
X33034Y-36823D01*
X33119Y-36808D01*
X33200Y-36777D01*
X33274Y-36730D01*
X33336Y-36670D01*
X33386Y-36599D01*
X33422Y-36520D01*
X33441Y-36435D01*
X33442Y-36336D01*
X33442Y-36922D01*
X32442Y-36922D01*
X32442Y-36336D01*
X32426Y-36251D01*
X32392Y-36171D01*
X32344Y-36098D01*
X32283Y-36037D01*
X32211Y-35988D01*
X32131Y-35954D01*
X32046Y-35937D01*
X31959Y-35936D01*
X31874Y-35953D01*
X31793Y-35985D01*
X31721Y-36033D01*
X31659Y-36093D01*
X31609Y-36165D01*
X31575Y-36245D01*
X31557Y-36330D01*
X31556Y-36417D01*
X31572Y-36502D01*
X31604Y-36583D01*
X31651Y-36656D01*
X31711Y-36718D01*
X31782Y-36768D01*
X31862Y-36803D01*
X31947Y-36821D01*
X32034Y-36823D01*
X32119Y-36808D01*
X32200Y-36777D01*
X32274Y-36730D01*
X32336Y-36670D01*
X32386Y-36599D01*
X32422Y-36520D01*
X32441Y-36435D01*
X32442Y-36336D01*
X32442Y-36922D01*
X31507Y-36922D01*
X31491Y-36920D01*
X31484Y-36918D01*
X31476Y-36914D01*
X31470Y-36909D01*
X31465Y-36903D01*
X31461Y-36896D01*
X31459Y-36888D01*
X31457Y-36873D01*
X31457Y-33737D01*
X31459Y-33721D01*
X31461Y-33714D01*
X31465Y-33706D01*
X31470Y-33700D01*
X31476Y-33695D01*
X31483Y-33691D01*
X31491Y-33689D01*
X31506Y-33687D01*
X40462Y-33687D01*
X40478Y-33689D01*
X40485Y-33691D01*
X40493Y-33695D01*
X40499Y-33700D01*
X40504Y-33706D01*
X40508Y-33713D01*
X40510Y-33721D01*
X40512Y-33736D01*
X40512Y-36872D01*
X40512Y-36872D01*
G37*
G54D16*
X40512Y-36872D02*
X40510Y-36888D01*
X40508Y-36895D01*
X40504Y-36903D01*
X40499Y-36909D01*
X40493Y-36914D01*
X40486Y-36918D01*
X40478Y-36920D01*
X40463Y-36922D01*
X40462Y-36922D01*
X40462Y-36718D01*
X40462Y-36691D01*
X40462Y-36473D01*
X40462Y-36286D01*
X40462Y-36068D01*
X40462Y-36041D01*
X40457Y-36015D01*
X40446Y-35989D01*
X40431Y-35967D01*
X40412Y-35948D01*
X40390Y-35933D01*
X40364Y-35922D01*
X40338Y-35917D01*
X40093Y-35917D01*
X40059Y-35951D01*
X40059Y-36320D01*
X40428Y-36320D01*
X40462Y-36286D01*
X40462Y-36473D01*
X40428Y-36439D01*
X40059Y-36439D01*
X40059Y-36808D01*
X40093Y-36842D01*
X40338Y-36842D01*
X40364Y-36837D01*
X40390Y-36826D01*
X40412Y-36811D01*
X40431Y-36792D01*
X40446Y-36770D01*
X40457Y-36744D01*
X40462Y-36718D01*
X40462Y-36922D01*
X39940Y-36922D01*
X39940Y-36808D01*
X39940Y-36439D01*
X39940Y-36320D01*
X39940Y-35951D01*
X39906Y-35917D01*
X39661Y-35917D01*
X39635Y-35922D01*
X39609Y-35933D01*
X39587Y-35948D01*
X39568Y-35967D01*
X39553Y-35989D01*
X39542Y-36015D01*
X39537Y-36041D01*
X39537Y-36068D01*
X39537Y-36286D01*
X39571Y-36320D01*
X39940Y-36320D01*
X39940Y-36439D01*
X39571Y-36439D01*
X39537Y-36473D01*
X39537Y-36691D01*
X39537Y-36718D01*
X39542Y-36744D01*
X39553Y-36770D01*
X39568Y-36792D01*
X39587Y-36811D01*
X39609Y-36826D01*
X39635Y-36837D01*
X39661Y-36842D01*
X39906Y-36842D01*
X39940Y-36808D01*
X39940Y-36922D01*
X39442Y-36922D01*
X39442Y-36336D01*
X39426Y-36251D01*
X39392Y-36171D01*
X39373Y-36142D01*
X39373Y-34716D01*
X39373Y-34560D01*
X39373Y-34373D01*
X39373Y-34217D01*
X39368Y-34190D01*
X39358Y-34165D01*
X39343Y-34143D01*
X39323Y-34123D01*
X39301Y-34108D01*
X39276Y-34098D01*
X39249Y-34093D01*
X39222Y-34093D01*
X39093Y-34093D01*
X39059Y-34127D01*
X39059Y-34407D01*
X39339Y-34407D01*
X39373Y-34373D01*
X39373Y-34560D01*
X39339Y-34526D01*
X39059Y-34526D01*
X39059Y-34806D01*
X39093Y-34840D01*
X39222Y-34840D01*
X39249Y-34840D01*
X39276Y-34835D01*
X39301Y-34825D01*
X39323Y-34810D01*
X39343Y-34790D01*
X39358Y-34768D01*
X39368Y-34743D01*
X39373Y-34716D01*
X39373Y-36142D01*
X39354Y-36112D01*
X39354Y-35540D01*
X39354Y-35517D01*
X39354Y-35045D01*
X39349Y-35022D01*
X39340Y-35001D01*
X39327Y-34981D01*
X39311Y-34965D01*
X39291Y-34952D01*
X39270Y-34943D01*
X39247Y-34938D01*
X39224Y-34938D01*
X38752Y-34938D01*
X38729Y-34943D01*
X38708Y-34952D01*
X38688Y-34965D01*
X38681Y-34972D01*
X38681Y-34813D01*
X38698Y-34825D01*
X38723Y-34835D01*
X38750Y-34840D01*
X38777Y-34840D01*
X38906Y-34840D01*
X38940Y-34806D01*
X38940Y-34526D01*
X38933Y-34526D01*
X38933Y-34407D01*
X38940Y-34407D01*
X38940Y-34127D01*
X38906Y-34093D01*
X38777Y-34093D01*
X38750Y-34093D01*
X38723Y-34098D01*
X38698Y-34108D01*
X38697Y-34109D01*
X38716Y-34083D01*
X38735Y-34039D01*
X38746Y-33993D01*
X38747Y-33938D01*
X38737Y-33892D01*
X38719Y-33847D01*
X38693Y-33808D01*
X38659Y-33774D01*
X38620Y-33747D01*
X38576Y-33729D01*
X38529Y-33719D01*
X38481Y-33719D01*
X38434Y-33728D01*
X38390Y-33746D01*
X38350Y-33772D01*
X38316Y-33805D01*
X38289Y-33844D01*
X38271Y-33888D01*
X38261Y-33935D01*
X38260Y-33983D01*
X38269Y-34030D01*
X38286Y-34074D01*
X38312Y-34114D01*
X38317Y-34119D01*
X38301Y-34108D01*
X38276Y-34098D01*
X38249Y-34093D01*
X38222Y-34093D01*
X38093Y-34093D01*
X38059Y-34127D01*
X38059Y-34407D01*
X38066Y-34407D01*
X38066Y-34526D01*
X38059Y-34526D01*
X38059Y-34806D01*
X38093Y-34840D01*
X38222Y-34840D01*
X38249Y-34840D01*
X38276Y-34835D01*
X38301Y-34825D01*
X38323Y-34810D01*
X38326Y-34807D01*
X38326Y-34980D01*
X38311Y-34965D01*
X38291Y-34952D01*
X38270Y-34943D01*
X38247Y-34938D01*
X38224Y-34938D01*
X37752Y-34938D01*
X37729Y-34943D01*
X37708Y-34952D01*
X37696Y-34959D01*
X37696Y-34823D01*
X37698Y-34825D01*
X37723Y-34835D01*
X37750Y-34840D01*
X37777Y-34840D01*
X37906Y-34840D01*
X37940Y-34806D01*
X37940Y-34526D01*
X37933Y-34526D01*
X37933Y-34407D01*
X37940Y-34407D01*
X37940Y-34127D01*
X37906Y-34093D01*
X37777Y-34093D01*
X37750Y-34093D01*
X37723Y-34098D01*
X37720Y-34099D01*
X37732Y-34083D01*
X37751Y-34039D01*
X37762Y-33993D01*
X37762Y-33938D01*
X37753Y-33892D01*
X37735Y-33847D01*
X37708Y-33808D01*
X37675Y-33774D01*
X37635Y-33747D01*
X37591Y-33729D01*
X37545Y-33719D01*
X37497Y-33719D01*
X37450Y-33728D01*
X37406Y-33746D01*
X37366Y-33772D01*
X37332Y-33805D01*
X37305Y-33844D01*
X37286Y-33888D01*
X37276Y-33935D01*
X37276Y-33983D01*
X37284Y-34030D01*
X37302Y-34074D01*
X37328Y-34114D01*
X37342Y-34129D01*
X37342Y-34142D01*
X37323Y-34123D01*
X37301Y-34108D01*
X37276Y-34098D01*
X37249Y-34093D01*
X37222Y-34093D01*
X37093Y-34093D01*
X37059Y-34127D01*
X37059Y-34407D01*
X37066Y-34407D01*
X37066Y-34526D01*
X37059Y-34526D01*
X37059Y-34806D01*
X37093Y-34840D01*
X37222Y-34840D01*
X37249Y-34840D01*
X37276Y-34835D01*
X37301Y-34825D01*
X37323Y-34810D01*
X37342Y-34791D01*
X37342Y-35005D01*
X37340Y-35001D01*
X37327Y-34981D01*
X37311Y-34965D01*
X37291Y-34952D01*
X37270Y-34943D01*
X37247Y-34938D01*
X37224Y-34938D01*
X36940Y-34938D01*
X36940Y-34806D01*
X36940Y-34526D01*
X36940Y-34407D01*
X36940Y-34127D01*
X36906Y-34093D01*
X36777Y-34093D01*
X36750Y-34093D01*
X36723Y-34098D01*
X36698Y-34108D01*
X36676Y-34123D01*
X36656Y-34143D01*
X36641Y-34165D01*
X36631Y-34190D01*
X36626Y-34217D01*
X36626Y-34373D01*
X36660Y-34407D01*
X36940Y-34407D01*
X36940Y-34526D01*
X36660Y-34526D01*
X36626Y-34560D01*
X36626Y-34716D01*
X36631Y-34743D01*
X36641Y-34768D01*
X36656Y-34790D01*
X36676Y-34810D01*
X36698Y-34825D01*
X36723Y-34835D01*
X36750Y-34840D01*
X36777Y-34840D01*
X36906Y-34840D01*
X36940Y-34806D01*
X36940Y-34938D01*
X36752Y-34938D01*
X36729Y-34943D01*
X36708Y-34952D01*
X36688Y-34965D01*
X36672Y-34981D01*
X36659Y-35001D01*
X36650Y-35022D01*
X36645Y-35045D01*
X36645Y-35068D01*
X36645Y-35095D01*
X36631Y-35086D01*
X36587Y-35067D01*
X36541Y-35058D01*
X36493Y-35057D01*
X36446Y-35066D01*
X36402Y-35084D01*
X36373Y-35103D01*
X36373Y-34716D01*
X36373Y-34560D01*
X36373Y-34373D01*
X36373Y-34217D01*
X36368Y-34190D01*
X36358Y-34165D01*
X36343Y-34143D01*
X36323Y-34123D01*
X36301Y-34108D01*
X36276Y-34098D01*
X36249Y-34093D01*
X36222Y-34093D01*
X36093Y-34093D01*
X36059Y-34127D01*
X36059Y-34407D01*
X36339Y-34407D01*
X36373Y-34373D01*
X36373Y-34560D01*
X36339Y-34526D01*
X36059Y-34526D01*
X36059Y-34806D01*
X36093Y-34840D01*
X36222Y-34840D01*
X36249Y-34840D01*
X36276Y-34835D01*
X36301Y-34825D01*
X36323Y-34810D01*
X36343Y-34790D01*
X36358Y-34768D01*
X36368Y-34743D01*
X36373Y-34716D01*
X36373Y-35103D01*
X36362Y-35110D01*
X36357Y-35115D01*
X36354Y-35115D01*
X36354Y-35045D01*
X36349Y-35022D01*
X36340Y-35001D01*
X36327Y-34981D01*
X36311Y-34965D01*
X36291Y-34952D01*
X36270Y-34943D01*
X36247Y-34938D01*
X36224Y-34938D01*
X35940Y-34938D01*
X35940Y-34806D01*
X35940Y-34526D01*
X35940Y-34407D01*
X35940Y-34127D01*
X35906Y-34093D01*
X35777Y-34093D01*
X35750Y-34093D01*
X35723Y-34098D01*
X35698Y-34108D01*
X35676Y-34123D01*
X35656Y-34143D01*
X35641Y-34165D01*
X35631Y-34190D01*
X35626Y-34217D01*
X35626Y-34373D01*
X35660Y-34407D01*
X35940Y-34407D01*
X35940Y-34526D01*
X35660Y-34526D01*
X35626Y-34560D01*
X35626Y-34716D01*
X35631Y-34743D01*
X35641Y-34768D01*
X35656Y-34790D01*
X35676Y-34810D01*
X35698Y-34825D01*
X35723Y-34835D01*
X35750Y-34840D01*
X35777Y-34840D01*
X35906Y-34840D01*
X35940Y-34806D01*
X35940Y-34938D01*
X35752Y-34938D01*
X35729Y-34943D01*
X35708Y-34952D01*
X35688Y-34965D01*
X35672Y-34981D01*
X35659Y-35001D01*
X35650Y-35022D01*
X35645Y-35045D01*
X35645Y-35068D01*
X35645Y-35540D01*
X35650Y-35563D01*
X35659Y-35584D01*
X35672Y-35604D01*
X35688Y-35620D01*
X35708Y-35633D01*
X35729Y-35642D01*
X35752Y-35647D01*
X35775Y-35647D01*
X36247Y-35647D01*
X36270Y-35642D01*
X36291Y-35633D01*
X36311Y-35620D01*
X36327Y-35604D01*
X36340Y-35584D01*
X36349Y-35563D01*
X36354Y-35540D01*
X36354Y-35517D01*
X36354Y-35483D01*
X36357Y-35487D01*
X36396Y-35514D01*
X36440Y-35533D01*
X36486Y-35543D01*
X36534Y-35544D01*
X36581Y-35536D01*
X36625Y-35519D01*
X36645Y-35506D01*
X36645Y-35540D01*
X36650Y-35563D01*
X36659Y-35584D01*
X36672Y-35604D01*
X36688Y-35620D01*
X36708Y-35633D01*
X36729Y-35642D01*
X36752Y-35647D01*
X36775Y-35647D01*
X37247Y-35647D01*
X37270Y-35642D01*
X37291Y-35633D01*
X37311Y-35620D01*
X37327Y-35604D01*
X37340Y-35584D01*
X37349Y-35563D01*
X37354Y-35540D01*
X37354Y-35517D01*
X37354Y-35470D01*
X37409Y-35470D01*
X37426Y-35468D01*
X37442Y-35467D01*
X37443Y-35466D01*
X37444Y-35466D01*
X37459Y-35462D01*
X37475Y-35457D01*
X37476Y-35457D01*
X37477Y-35456D01*
X37491Y-35449D01*
X37506Y-35441D01*
X37507Y-35441D01*
X37507Y-35440D01*
X37520Y-35430D01*
X37533Y-35420D01*
X37534Y-35418D01*
X37534Y-35418D01*
X37534Y-35418D01*
X37535Y-35418D01*
X37644Y-35308D01*
X37645Y-35307D01*
X37645Y-35540D01*
X37650Y-35563D01*
X37659Y-35584D01*
X37672Y-35604D01*
X37688Y-35620D01*
X37708Y-35633D01*
X37729Y-35642D01*
X37752Y-35647D01*
X37775Y-35647D01*
X38247Y-35647D01*
X38270Y-35642D01*
X38291Y-35633D01*
X38311Y-35620D01*
X38327Y-35604D01*
X38340Y-35584D01*
X38349Y-35563D01*
X38354Y-35540D01*
X38354Y-35517D01*
X38354Y-35470D01*
X38354Y-35470D01*
X38370Y-35468D01*
X38387Y-35467D01*
X38388Y-35466D01*
X38389Y-35466D01*
X38404Y-35462D01*
X38420Y-35457D01*
X38421Y-35457D01*
X38422Y-35456D01*
X38436Y-35449D01*
X38451Y-35441D01*
X38451Y-35441D01*
X38452Y-35440D01*
X38465Y-35430D01*
X38478Y-35420D01*
X38479Y-35418D01*
X38479Y-35418D01*
X38479Y-35418D01*
X38479Y-35418D01*
X38629Y-35269D01*
X38639Y-35256D01*
X38645Y-35248D01*
X38645Y-35540D01*
X38650Y-35563D01*
X38659Y-35584D01*
X38672Y-35604D01*
X38688Y-35620D01*
X38708Y-35633D01*
X38729Y-35642D01*
X38752Y-35647D01*
X38775Y-35647D01*
X39247Y-35647D01*
X39270Y-35642D01*
X39291Y-35633D01*
X39311Y-35620D01*
X39327Y-35604D01*
X39340Y-35584D01*
X39349Y-35563D01*
X39354Y-35540D01*
X39354Y-36112D01*
X39344Y-36098D01*
X39283Y-36037D01*
X39211Y-35988D01*
X39131Y-35954D01*
X39046Y-35937D01*
X38959Y-35936D01*
X38874Y-35953D01*
X38793Y-35985D01*
X38721Y-36033D01*
X38659Y-36093D01*
X38609Y-36165D01*
X38575Y-36245D01*
X38557Y-36330D01*
X38556Y-36417D01*
X38572Y-36502D01*
X38604Y-36583D01*
X38651Y-36656D01*
X38711Y-36718D01*
X38782Y-36768D01*
X38862Y-36803D01*
X38947Y-36821D01*
X39034Y-36823D01*
X39119Y-36808D01*
X39200Y-36777D01*
X39274Y-36730D01*
X39336Y-36670D01*
X39386Y-36599D01*
X39422Y-36520D01*
X39441Y-36435D01*
X39442Y-36336D01*
X39442Y-36922D01*
X38442Y-36922D01*
X38442Y-36336D01*
X38426Y-36251D01*
X38392Y-36171D01*
X38344Y-36098D01*
X38283Y-36037D01*
X38211Y-35988D01*
X38131Y-35954D01*
X38046Y-35937D01*
X37959Y-35936D01*
X37874Y-35953D01*
X37793Y-35985D01*
X37721Y-36033D01*
X37659Y-36093D01*
X37609Y-36165D01*
X37575Y-36245D01*
X37557Y-36330D01*
X37556Y-36417D01*
X37572Y-36502D01*
X37604Y-36583D01*
X37651Y-36656D01*
X37711Y-36718D01*
X37782Y-36768D01*
X37862Y-36803D01*
X37947Y-36821D01*
X38034Y-36823D01*
X38119Y-36808D01*
X38200Y-36777D01*
X38274Y-36730D01*
X38336Y-36670D01*
X38386Y-36599D01*
X38422Y-36520D01*
X38441Y-36435D01*
X38442Y-36336D01*
X38442Y-36922D01*
X37442Y-36922D01*
X37442Y-36336D01*
X37426Y-36251D01*
X37392Y-36171D01*
X37344Y-36098D01*
X37283Y-36037D01*
X37211Y-35988D01*
X37131Y-35954D01*
X37046Y-35937D01*
X36959Y-35936D01*
X36874Y-35953D01*
X36793Y-35985D01*
X36721Y-36033D01*
X36659Y-36093D01*
X36609Y-36165D01*
X36575Y-36245D01*
X36557Y-36330D01*
X36556Y-36417D01*
X36572Y-36502D01*
X36604Y-36583D01*
X36651Y-36656D01*
X36711Y-36718D01*
X36782Y-36768D01*
X36862Y-36803D01*
X36947Y-36821D01*
X37034Y-36823D01*
X37119Y-36808D01*
X37200Y-36777D01*
X37274Y-36730D01*
X37336Y-36670D01*
X37386Y-36599D01*
X37422Y-36520D01*
X37441Y-36435D01*
X37442Y-36336D01*
X37442Y-36922D01*
X36442Y-36922D01*
X36442Y-36336D01*
X36426Y-36251D01*
X36392Y-36171D01*
X36344Y-36098D01*
X36283Y-36037D01*
X36211Y-35988D01*
X36131Y-35954D01*
X36046Y-35937D01*
X35959Y-35936D01*
X35874Y-35953D01*
X35793Y-35985D01*
X35721Y-36033D01*
X35659Y-36093D01*
X35609Y-36165D01*
X35575Y-36245D01*
X35557Y-36330D01*
X35556Y-36417D01*
X35572Y-36502D01*
X35604Y-36583D01*
X35651Y-36656D01*
X35711Y-36718D01*
X35782Y-36768D01*
X35862Y-36803D01*
X35947Y-36821D01*
X36034Y-36823D01*
X36119Y-36808D01*
X36200Y-36777D01*
X36274Y-36730D01*
X36336Y-36670D01*
X36386Y-36599D01*
X36422Y-36520D01*
X36441Y-36435D01*
X36442Y-36336D01*
X36442Y-36922D01*
X35442Y-36922D01*
X35442Y-36336D01*
X35426Y-36251D01*
X35392Y-36171D01*
X35373Y-36142D01*
X35373Y-34716D01*
X35373Y-34560D01*
X35373Y-34373D01*
X35373Y-34217D01*
X35368Y-34190D01*
X35358Y-34165D01*
X35343Y-34143D01*
X35323Y-34123D01*
X35301Y-34108D01*
X35276Y-34098D01*
X35249Y-34093D01*
X35222Y-34093D01*
X35093Y-34093D01*
X35059Y-34127D01*
X35059Y-34407D01*
X35339Y-34407D01*
X35373Y-34373D01*
X35373Y-34560D01*
X35339Y-34526D01*
X35059Y-34526D01*
X35059Y-34806D01*
X35093Y-34840D01*
X35222Y-34840D01*
X35249Y-34840D01*
X35276Y-34835D01*
X35301Y-34825D01*
X35323Y-34810D01*
X35343Y-34790D01*
X35358Y-34768D01*
X35368Y-34743D01*
X35373Y-34716D01*
X35373Y-36142D01*
X35354Y-36112D01*
X35354Y-35540D01*
X35354Y-35517D01*
X35354Y-35045D01*
X35349Y-35022D01*
X35340Y-35001D01*
X35327Y-34981D01*
X35311Y-34965D01*
X35291Y-34952D01*
X35270Y-34943D01*
X35247Y-34938D01*
X35224Y-34938D01*
X34752Y-34938D01*
X34729Y-34943D01*
X34708Y-34952D01*
X34688Y-34965D01*
X34672Y-34981D01*
X34665Y-34992D01*
X34665Y-34799D01*
X34676Y-34810D01*
X34698Y-34825D01*
X34723Y-34835D01*
X34750Y-34840D01*
X34777Y-34840D01*
X34906Y-34840D01*
X34940Y-34806D01*
X34940Y-34526D01*
X34933Y-34526D01*
X34933Y-34407D01*
X34940Y-34407D01*
X34940Y-34127D01*
X34906Y-34093D01*
X34777Y-34093D01*
X34750Y-34093D01*
X34723Y-34098D01*
X34698Y-34108D01*
X34676Y-34123D01*
X34665Y-34134D01*
X34665Y-34129D01*
X34673Y-34122D01*
X34700Y-34083D01*
X34719Y-34039D01*
X34730Y-33993D01*
X34731Y-33938D01*
X34722Y-33892D01*
X34703Y-33847D01*
X34677Y-33808D01*
X34643Y-33774D01*
X34604Y-33747D01*
X34560Y-33729D01*
X34513Y-33719D01*
X34466Y-33719D01*
X34419Y-33728D01*
X34375Y-33746D01*
X34335Y-33772D01*
X34301Y-33805D01*
X34274Y-33844D01*
X34255Y-33888D01*
X34245Y-33935D01*
X34244Y-33983D01*
X34253Y-34030D01*
X34270Y-34074D01*
X34290Y-34104D01*
X34276Y-34098D01*
X34249Y-34093D01*
X34222Y-34093D01*
X34093Y-34093D01*
X34059Y-34127D01*
X34059Y-34407D01*
X34066Y-34407D01*
X34066Y-34526D01*
X34059Y-34526D01*
X34059Y-34806D01*
X34093Y-34840D01*
X34222Y-34840D01*
X34249Y-34840D01*
X34276Y-34835D01*
X34301Y-34825D01*
X34311Y-34818D01*
X34311Y-34965D01*
X34291Y-34952D01*
X34270Y-34943D01*
X34247Y-34938D01*
X34224Y-34938D01*
X33752Y-34938D01*
X33729Y-34943D01*
X33708Y-34952D01*
X33688Y-34965D01*
X33681Y-34972D01*
X33681Y-34813D01*
X33698Y-34825D01*
X33723Y-34835D01*
X33750Y-34840D01*
X33777Y-34840D01*
X33906Y-34840D01*
X33940Y-34806D01*
X33940Y-34526D01*
X33933Y-34526D01*
X33933Y-34407D01*
X33940Y-34407D01*
X33940Y-34127D01*
X33906Y-34093D01*
X33777Y-34093D01*
X33750Y-34093D01*
X33723Y-34098D01*
X33698Y-34108D01*
X33697Y-34109D01*
X33716Y-34083D01*
X33735Y-34039D01*
X33746Y-33993D01*
X33747Y-33938D01*
X33737Y-33892D01*
X33719Y-33847D01*
X33693Y-33808D01*
X33659Y-33774D01*
X33620Y-33747D01*
X33576Y-33729D01*
X33529Y-33719D01*
X33481Y-33719D01*
X33434Y-33728D01*
X33390Y-33746D01*
X33350Y-33772D01*
X33316Y-33805D01*
X33289Y-33844D01*
X33271Y-33888D01*
X33261Y-33935D01*
X33260Y-33983D01*
X33269Y-34030D01*
X33286Y-34074D01*
X33312Y-34114D01*
X33317Y-34119D01*
X33301Y-34108D01*
X33276Y-34098D01*
X33249Y-34093D01*
X33222Y-34093D01*
X33093Y-34093D01*
X33059Y-34127D01*
X33059Y-34407D01*
X33066Y-34407D01*
X33066Y-34526D01*
X33059Y-34526D01*
X33059Y-34806D01*
X33093Y-34840D01*
X33222Y-34840D01*
X33249Y-34840D01*
X33276Y-34835D01*
X33301Y-34825D01*
X33323Y-34810D01*
X33326Y-34807D01*
X33326Y-34980D01*
X33311Y-34965D01*
X33291Y-34952D01*
X33270Y-34943D01*
X33247Y-34938D01*
X33224Y-34938D01*
X32940Y-34938D01*
X32940Y-34806D01*
X32940Y-34526D01*
X32940Y-34407D01*
X32940Y-34127D01*
X32906Y-34093D01*
X32777Y-34093D01*
X32750Y-34093D01*
X32723Y-34098D01*
X32698Y-34108D01*
X32676Y-34123D01*
X32656Y-34143D01*
X32641Y-34165D01*
X32631Y-34190D01*
X32626Y-34217D01*
X32626Y-34373D01*
X32660Y-34407D01*
X32940Y-34407D01*
X32940Y-34526D01*
X32660Y-34526D01*
X32626Y-34560D01*
X32626Y-34716D01*
X32631Y-34743D01*
X32641Y-34768D01*
X32656Y-34790D01*
X32676Y-34810D01*
X32698Y-34825D01*
X32723Y-34835D01*
X32750Y-34840D01*
X32777Y-34840D01*
X32906Y-34840D01*
X32940Y-34806D01*
X32940Y-34938D01*
X32752Y-34938D01*
X32729Y-34943D01*
X32708Y-34952D01*
X32688Y-34965D01*
X32672Y-34981D01*
X32659Y-35001D01*
X32650Y-35022D01*
X32645Y-35045D01*
X32645Y-35068D01*
X32645Y-35106D01*
X32616Y-35086D01*
X32572Y-35067D01*
X32525Y-35058D01*
X32477Y-35057D01*
X32431Y-35066D01*
X32386Y-35084D01*
X32373Y-35093D01*
X32373Y-34716D01*
X32373Y-34560D01*
X32373Y-34373D01*
X32373Y-34217D01*
X32368Y-34190D01*
X32358Y-34165D01*
X32343Y-34143D01*
X32323Y-34123D01*
X32301Y-34108D01*
X32276Y-34098D01*
X32249Y-34093D01*
X32222Y-34093D01*
X32093Y-34093D01*
X32059Y-34127D01*
X32059Y-34407D01*
X32339Y-34407D01*
X32373Y-34373D01*
X32373Y-34560D01*
X32339Y-34526D01*
X32059Y-34526D01*
X32059Y-34806D01*
X32093Y-34840D01*
X32222Y-34840D01*
X32249Y-34840D01*
X32276Y-34835D01*
X32301Y-34825D01*
X32323Y-34810D01*
X32343Y-34790D01*
X32358Y-34768D01*
X32368Y-34743D01*
X32373Y-34716D01*
X32373Y-35093D01*
X32354Y-35106D01*
X32354Y-35045D01*
X32349Y-35022D01*
X32340Y-35001D01*
X32327Y-34981D01*
X32311Y-34965D01*
X32291Y-34952D01*
X32270Y-34943D01*
X32247Y-34938D01*
X32224Y-34938D01*
X31940Y-34938D01*
X31940Y-34806D01*
X31940Y-34526D01*
X31940Y-34407D01*
X31940Y-34127D01*
X31906Y-34093D01*
X31777Y-34093D01*
X31750Y-34093D01*
X31723Y-34098D01*
X31698Y-34108D01*
X31676Y-34123D01*
X31656Y-34143D01*
X31641Y-34165D01*
X31631Y-34190D01*
X31626Y-34217D01*
X31626Y-34373D01*
X31660Y-34407D01*
X31940Y-34407D01*
X31940Y-34526D01*
X31660Y-34526D01*
X31626Y-34560D01*
X31626Y-34716D01*
X31631Y-34743D01*
X31641Y-34768D01*
X31656Y-34790D01*
X31676Y-34810D01*
X31698Y-34825D01*
X31723Y-34835D01*
X31750Y-34840D01*
X31777Y-34840D01*
X31906Y-34840D01*
X31940Y-34806D01*
X31940Y-34938D01*
X31752Y-34938D01*
X31729Y-34943D01*
X31708Y-34952D01*
X31688Y-34965D01*
X31672Y-34981D01*
X31659Y-35001D01*
X31650Y-35022D01*
X31645Y-35045D01*
X31645Y-35068D01*
X31645Y-35540D01*
X31650Y-35563D01*
X31659Y-35584D01*
X31672Y-35604D01*
X31688Y-35620D01*
X31708Y-35633D01*
X31729Y-35642D01*
X31752Y-35647D01*
X31775Y-35647D01*
X32247Y-35647D01*
X32270Y-35642D01*
X32291Y-35633D01*
X32311Y-35620D01*
X32327Y-35604D01*
X32340Y-35584D01*
X32349Y-35563D01*
X32354Y-35540D01*
X32354Y-35517D01*
X32354Y-35495D01*
X32380Y-35514D01*
X32424Y-35533D01*
X32471Y-35543D01*
X32518Y-35544D01*
X32565Y-35536D01*
X32610Y-35519D01*
X32645Y-35496D01*
X32645Y-35540D01*
X32650Y-35563D01*
X32659Y-35584D01*
X32672Y-35604D01*
X32688Y-35620D01*
X32708Y-35633D01*
X32729Y-35642D01*
X32752Y-35647D01*
X32775Y-35647D01*
X33247Y-35647D01*
X33270Y-35642D01*
X33291Y-35633D01*
X33311Y-35620D01*
X33327Y-35604D01*
X33340Y-35584D01*
X33349Y-35563D01*
X33354Y-35540D01*
X33354Y-35517D01*
X33354Y-35470D01*
X33417Y-35470D01*
X33433Y-35468D01*
X33450Y-35467D01*
X33451Y-35466D01*
X33452Y-35466D01*
X33467Y-35462D01*
X33483Y-35457D01*
X33484Y-35457D01*
X33485Y-35456D01*
X33499Y-35449D01*
X33514Y-35441D01*
X33514Y-35441D01*
X33515Y-35440D01*
X33528Y-35430D01*
X33541Y-35420D01*
X33542Y-35418D01*
X33542Y-35418D01*
X33542Y-35418D01*
X33542Y-35418D01*
X33629Y-35332D01*
X33639Y-35319D01*
X33645Y-35311D01*
X33645Y-35540D01*
X33650Y-35563D01*
X33659Y-35584D01*
X33672Y-35604D01*
X33688Y-35620D01*
X33708Y-35633D01*
X33729Y-35642D01*
X33752Y-35647D01*
X33775Y-35647D01*
X34247Y-35647D01*
X34270Y-35642D01*
X34291Y-35633D01*
X34311Y-35620D01*
X34327Y-35604D01*
X34340Y-35584D01*
X34349Y-35563D01*
X34354Y-35540D01*
X34354Y-35517D01*
X34354Y-35470D01*
X34370Y-35470D01*
X34386Y-35468D01*
X34403Y-35467D01*
X34403Y-35466D01*
X34404Y-35466D01*
X34420Y-35462D01*
X34436Y-35457D01*
X34437Y-35457D01*
X34437Y-35456D01*
X34452Y-35449D01*
X34466Y-35441D01*
X34467Y-35441D01*
X34468Y-35440D01*
X34481Y-35430D01*
X34493Y-35420D01*
X34495Y-35418D01*
X34495Y-35418D01*
X34495Y-35418D01*
X34495Y-35418D01*
X34613Y-35300D01*
X34623Y-35287D01*
X34634Y-35275D01*
X34634Y-35274D01*
X34635Y-35273D01*
X34643Y-35259D01*
X34645Y-35254D01*
X34645Y-35540D01*
X34650Y-35563D01*
X34659Y-35584D01*
X34672Y-35604D01*
X34688Y-35620D01*
X34708Y-35633D01*
X34729Y-35642D01*
X34752Y-35647D01*
X34775Y-35647D01*
X35247Y-35647D01*
X35270Y-35642D01*
X35291Y-35633D01*
X35311Y-35620D01*
X35327Y-35604D01*
X35340Y-35584D01*
X35349Y-35563D01*
X35354Y-35540D01*
X35354Y-36112D01*
X35344Y-36098D01*
X35283Y-36037D01*
X35211Y-35988D01*
X35131Y-35954D01*
X35046Y-35937D01*
X34959Y-35936D01*
X34874Y-35953D01*
X34793Y-35985D01*
X34721Y-36033D01*
X34659Y-36093D01*
X34609Y-36165D01*
X34575Y-36245D01*
X34557Y-36330D01*
X34556Y-36417D01*
X34572Y-36502D01*
X34604Y-36583D01*
X34651Y-36656D01*
X34711Y-36718D01*
X34782Y-36768D01*
X34862Y-36803D01*
X34947Y-36821D01*
X35034Y-36823D01*
X35119Y-36808D01*
X35200Y-36777D01*
X35274Y-36730D01*
X35336Y-36670D01*
X35386Y-36599D01*
X35422Y-36520D01*
X35441Y-36435D01*
X35442Y-36336D01*
X35442Y-36922D01*
X34442Y-36922D01*
X34442Y-36336D01*
X34426Y-36251D01*
X34392Y-36171D01*
X34344Y-36098D01*
X34283Y-36037D01*
X34211Y-35988D01*
X34131Y-35954D01*
X34046Y-35937D01*
X33959Y-35936D01*
X33874Y-35953D01*
X33793Y-35985D01*
X33721Y-36033D01*
X33659Y-36093D01*
X33609Y-36165D01*
X33575Y-36245D01*
X33557Y-36330D01*
X33556Y-36417D01*
X33572Y-36502D01*
X33604Y-36583D01*
X33651Y-36656D01*
X33711Y-36718D01*
X33782Y-36768D01*
X33862Y-36803D01*
X33947Y-36821D01*
X34034Y-36823D01*
X34119Y-36808D01*
X34200Y-36777D01*
X34274Y-36730D01*
X34336Y-36670D01*
X34386Y-36599D01*
X34422Y-36520D01*
X34441Y-36435D01*
X34442Y-36336D01*
X34442Y-36922D01*
X33442Y-36922D01*
X33442Y-36336D01*
X33426Y-36251D01*
X33392Y-36171D01*
X33344Y-36098D01*
X33283Y-36037D01*
X33211Y-35988D01*
X33131Y-35954D01*
X33046Y-35937D01*
X32959Y-35936D01*
X32874Y-35953D01*
X32793Y-35985D01*
X32721Y-36033D01*
X32659Y-36093D01*
X32609Y-36165D01*
X32575Y-36245D01*
X32557Y-36330D01*
X32556Y-36417D01*
X32572Y-36502D01*
X32604Y-36583D01*
X32651Y-36656D01*
X32711Y-36718D01*
X32782Y-36768D01*
X32862Y-36803D01*
X32947Y-36821D01*
X33034Y-36823D01*
X33119Y-36808D01*
X33200Y-36777D01*
X33274Y-36730D01*
X33336Y-36670D01*
X33386Y-36599D01*
X33422Y-36520D01*
X33441Y-36435D01*
X33442Y-36336D01*
X33442Y-36922D01*
X32442Y-36922D01*
X32442Y-36336D01*
X32426Y-36251D01*
X32392Y-36171D01*
X32344Y-36098D01*
X32283Y-36037D01*
X32211Y-35988D01*
X32131Y-35954D01*
X32046Y-35937D01*
X31959Y-35936D01*
X31874Y-35953D01*
X31793Y-35985D01*
X31721Y-36033D01*
X31659Y-36093D01*
X31609Y-36165D01*
X31575Y-36245D01*
X31557Y-36330D01*
X31556Y-36417D01*
X31572Y-36502D01*
X31604Y-36583D01*
X31651Y-36656D01*
X31711Y-36718D01*
X31782Y-36768D01*
X31862Y-36803D01*
X31947Y-36821D01*
X32034Y-36823D01*
X32119Y-36808D01*
X32200Y-36777D01*
X32274Y-36730D01*
X32336Y-36670D01*
X32386Y-36599D01*
X32422Y-36520D01*
X32441Y-36435D01*
X32442Y-36336D01*
X32442Y-36922D01*
X31507Y-36922D01*
X31491Y-36920D01*
X31484Y-36918D01*
X31476Y-36914D01*
X31470Y-36909D01*
X31465Y-36903D01*
X31461Y-36896D01*
X31459Y-36888D01*
X31457Y-36873D01*
X31457Y-33737D01*
X31459Y-33721D01*
X31461Y-33714D01*
X31465Y-33706D01*
X31470Y-33700D01*
X31476Y-33695D01*
X31483Y-33691D01*
X31491Y-33689D01*
X31506Y-33687D01*
X40462Y-33687D01*
X40478Y-33689D01*
X40485Y-33691D01*
X40493Y-33695D01*
X40499Y-33700D01*
X40504Y-33706D01*
X40508Y-33713D01*
X40510Y-33721D01*
X40512Y-33736D01*
X40512Y-36872D01*
M02*
