G04 (created by PCBNEW (2013-07-03 BZR 4236)-testing) date Thu 04 Jul 2013 10:30:45 AM CEST*
%MOIN*%
G04 Gerber Fmt 3.4, Leading zero omitted, Abs format*
%FSLAX34Y34*%
G01*
G70*
G90*
G04 APERTURE LIST*
%ADD10C,0.005906*%
%ADD11R,0.025591X0.039370*%
%ADD12R,0.019685X0.039370*%
%ADD13R,0.064961X0.064961*%
%ADD14C,0.064961*%
%ADD15C,0.019685*%
%ADD16C,0.010000*%
G04 APERTURE END LIST*
G54D10*
G54D11*
X37944Y-31608D03*
G54D12*
X38308Y-31608D03*
X38623Y-31608D03*
G54D11*
X38987Y-31608D03*
X37944Y-30900D03*
G54D12*
X38308Y-30900D03*
X38623Y-30900D03*
G54D11*
X38987Y-30900D03*
X33928Y-31608D03*
G54D12*
X34292Y-31608D03*
X34607Y-31608D03*
G54D11*
X34971Y-31608D03*
X33928Y-30900D03*
G54D12*
X34292Y-30900D03*
X34607Y-30900D03*
G54D11*
X34971Y-30900D03*
G54D13*
X31970Y-29900D03*
G54D14*
X32970Y-29900D03*
X33970Y-29900D03*
X34970Y-29900D03*
X35970Y-29900D03*
X36970Y-29900D03*
X37970Y-29900D03*
X38970Y-29900D03*
X39970Y-29900D03*
G54D11*
X34025Y-34671D03*
G54D12*
X33661Y-34671D03*
X33346Y-34671D03*
G54D11*
X32982Y-34671D03*
X34025Y-35380D03*
G54D12*
X33661Y-35380D03*
X33346Y-35380D03*
G54D11*
X32982Y-35380D03*
X38041Y-34671D03*
G54D12*
X37677Y-34671D03*
X37362Y-34671D03*
G54D11*
X36998Y-34671D03*
X38041Y-35380D03*
G54D12*
X37677Y-35380D03*
X37362Y-35380D03*
G54D11*
X36998Y-35380D03*
G54D13*
X40000Y-36380D03*
G54D14*
X39000Y-36380D03*
X38000Y-36380D03*
X37000Y-36380D03*
X36000Y-36380D03*
X35000Y-36380D03*
X34000Y-36380D03*
X33000Y-36380D03*
X32000Y-36380D03*
G54D15*
X32810Y-32844D03*
X32810Y-33435D03*
X33105Y-32844D03*
X32514Y-32844D03*
X32514Y-33435D03*
X33105Y-33435D03*
X39160Y-32844D03*
X39160Y-33435D03*
X39455Y-32844D03*
X38864Y-32844D03*
X38864Y-33435D03*
X39455Y-33435D03*
G54D10*
G36*
X32360Y-31290D02*
X31580Y-31290D01*
X31580Y-30580D01*
X32360Y-30580D01*
X32360Y-31290D01*
X32360Y-31290D01*
G37*
G54D16*
X32360Y-31290D02*
X31580Y-31290D01*
X31580Y-30580D01*
X32360Y-30580D01*
X32360Y-31290D01*
G54D10*
G36*
X40390Y-35700D02*
X39610Y-35700D01*
X39610Y-34920D01*
X40390Y-34920D01*
X40390Y-35700D01*
X40390Y-35700D01*
G37*
G54D16*
X40390Y-35700D02*
X39610Y-35700D01*
X39610Y-34920D01*
X40390Y-34920D01*
X40390Y-35700D01*
M02*
