M48
METRIC,TZ
T1C0.330
T2C1.016
%
G90
G05
T1
X082550Y-089665
X083744Y-078689
X085004Y-082086
X085100Y-086265
X087504Y-082086
X087600Y-086265
X088900Y-089640
X090054Y-078686
X092750Y-089665
X093904Y-078711
X095204Y-082086
X095300Y-086265
X097704Y-082086
X097800Y-086265
X099060Y-089662
X100254Y-078686
T2
X081204Y-075946
X081280Y-092405
X083744Y-075946
X083820Y-092405
X086284Y-075946
X086360Y-092405
X088824Y-075946
X088900Y-092405
X091364Y-075946
X091440Y-092405
X093904Y-075946
X093980Y-092405
X096444Y-075946
X096520Y-092405
X098984Y-075946
X099060Y-092405
X101524Y-075946
X101600Y-092405
T0
M30
