G04 (created by PCBNEW (2013-03-08 BZR 3989)-testing) date Sat 09 Mar 2013 07:20:18 PM CET*
%MOIN*%
G04 Gerber Fmt 3.4, Leading zero omitted, Abs format*
%FSLAX34Y34*%
G01*
G70*
G90*
G04 APERTURE LIST*
%ADD10C,0.006*%
%ADD11C,0.00393701*%
%ADD12C,0.00984252*%
G04 APERTURE END LIST*
G54D10*
G54D11*
X56889Y-21456D02*
X56889Y-58385D01*
X47204Y-58385D02*
X47204Y-21456D01*
X37519Y-21456D02*
X37519Y-58385D01*
X27834Y-58385D02*
X27834Y-21456D01*
X66574Y-21456D02*
X66574Y-58385D01*
X27834Y-21456D02*
X66574Y-21456D01*
X27834Y-37283D02*
X66574Y-37283D01*
X27834Y-32007D02*
X66574Y-32007D01*
X27834Y-26732D02*
X66574Y-26732D01*
X27834Y-47834D02*
X66574Y-47834D01*
X27834Y-42559D02*
X66574Y-42559D01*
X27834Y-53110D02*
X66574Y-53110D01*
X27834Y-58385D02*
X66574Y-58385D01*
G54D12*
X26736Y-42264D02*
X27523Y-42002D01*
X26736Y-41739D01*
X27223Y-41477D02*
X27223Y-40877D01*
X27485Y-40539D02*
X27523Y-40464D01*
X27523Y-40314D01*
X27485Y-40239D01*
X27410Y-40202D01*
X27373Y-40202D01*
X27298Y-40239D01*
X27260Y-40314D01*
X27260Y-40427D01*
X27223Y-40502D01*
X27148Y-40539D01*
X27110Y-40539D01*
X27035Y-40502D01*
X26998Y-40427D01*
X26998Y-40314D01*
X27035Y-40239D01*
X27485Y-39527D02*
X27523Y-39602D01*
X27523Y-39752D01*
X27485Y-39827D01*
X27448Y-39865D01*
X27373Y-39902D01*
X27148Y-39902D01*
X27073Y-39865D01*
X27035Y-39827D01*
X26998Y-39752D01*
X26998Y-39602D01*
X27035Y-39527D01*
X27523Y-39077D02*
X27485Y-39152D01*
X27448Y-39190D01*
X27373Y-39227D01*
X27148Y-39227D01*
X27073Y-39190D01*
X27035Y-39152D01*
X26998Y-39077D01*
X26998Y-38965D01*
X27035Y-38890D01*
X27073Y-38852D01*
X27148Y-38815D01*
X27373Y-38815D01*
X27448Y-38852D01*
X27485Y-38890D01*
X27523Y-38965D01*
X27523Y-39077D01*
X27523Y-38477D02*
X26998Y-38477D01*
X27148Y-38477D02*
X27073Y-38440D01*
X27035Y-38402D01*
X26998Y-38327D01*
X26998Y-38252D01*
X27485Y-37690D02*
X27523Y-37765D01*
X27523Y-37915D01*
X27485Y-37990D01*
X27410Y-38027D01*
X27110Y-38027D01*
X27035Y-37990D01*
X26998Y-37915D01*
X26998Y-37765D01*
X27035Y-37690D01*
X27110Y-37652D01*
X27185Y-37652D01*
X27260Y-38027D01*
M02*
