M48
INCH,TZ
T1C0.013
T2C0.040
%
G90
G05
T1
X028691Y-023022
X028691Y-028297
X028691Y-033573
X028691Y-038848
X028691Y-044124
X028691Y-049400
X028691Y-054675
X029193Y-022212
X029193Y-024783
X029193Y-027488
X029193Y-030059
X029193Y-032763
X029193Y-035335
X029193Y-038039
X029193Y-040610
X029193Y-043315
X029193Y-045886
X029193Y-048590
X029193Y-051161
X029193Y-053866
X029193Y-056437
X029695Y-023022
X029695Y-028297
X029695Y-033573
X029695Y-038848
X029695Y-044124
X029695Y-049400
X029695Y-054675
X030193Y-022187
X030193Y-027463
X030193Y-032738
X030193Y-038014
X030193Y-043290
X030193Y-048565
X030193Y-053841
X030689Y-023022
X030689Y-028297
X030689Y-033573
X030689Y-038848
X030689Y-044124
X030689Y-049400
X030689Y-054675
X031168Y-022187
X031168Y-027463
X031168Y-032738
X031168Y-038014
X031168Y-043290
X031168Y-048565
X031168Y-053841
X031693Y-023022
X031693Y-024774
X031693Y-028297
X031693Y-030049
X031693Y-033573
X031693Y-035325
X031693Y-038848
X031693Y-040600
X031693Y-044124
X031693Y-045876
X031693Y-049400
X031693Y-051152
X031693Y-054675
X031693Y-056427
X032697Y-023022
X032697Y-028297
X032697Y-033573
X032697Y-038848
X032697Y-044124
X032697Y-049400
X032697Y-054675
X033193Y-022187
X033193Y-027463
X033193Y-032738
X033193Y-038014
X033193Y-043290
X033193Y-048565
X033193Y-053841
X033209Y-024783
X033209Y-030059
X033209Y-035335
X033209Y-040610
X033209Y-045886
X033209Y-051161
X033209Y-056437
X033691Y-023022
X033691Y-028297
X033691Y-033573
X033691Y-038848
X033691Y-044124
X033691Y-049400
X033691Y-054675
X034193Y-022224
X034193Y-027500
X034193Y-032776
X034193Y-038051
X034193Y-043327
X034193Y-048602
X034193Y-053878
X034695Y-023022
X034695Y-028297
X034695Y-033573
X034695Y-038848
X034695Y-044124
X034695Y-049400
X034695Y-054675
X035193Y-022212
X035193Y-027488
X035193Y-032763
X035193Y-038039
X035193Y-043315
X035193Y-048590
X035193Y-053866
X035699Y-023022
X035699Y-024774
X035699Y-028297
X035699Y-030049
X035699Y-033573
X035699Y-035325
X035699Y-038848
X035699Y-040600
X035699Y-044124
X035699Y-045876
X035699Y-049400
X035699Y-051152
X035699Y-054675
X035699Y-056427
X036243Y-022187
X036243Y-027463
X036243Y-032738
X036243Y-038014
X036243Y-043290
X036243Y-048565
X036243Y-053841
X038376Y-023022
X038376Y-028297
X038376Y-033573
X038376Y-038848
X038376Y-044124
X038376Y-049400
X038376Y-054675
X038878Y-022212
X038878Y-024783
X038878Y-027488
X038878Y-030059
X038878Y-032763
X038878Y-035335
X038878Y-038039
X038878Y-040610
X038878Y-043315
X038878Y-045886
X038878Y-048590
X038878Y-051161
X038878Y-053866
X038878Y-056437
X039380Y-023022
X039380Y-028297
X039380Y-033573
X039380Y-038848
X039380Y-044124
X039380Y-049400
X039380Y-054675
X039878Y-022187
X039878Y-027463
X039878Y-032738
X039878Y-038014
X039878Y-043290
X039878Y-048565
X039878Y-053841
X040374Y-023022
X040374Y-028297
X040374Y-033573
X040374Y-038848
X040374Y-044124
X040374Y-049400
X040374Y-054675
X040853Y-022187
X040853Y-027463
X040853Y-032738
X040853Y-038014
X040853Y-043290
X040853Y-048565
X040853Y-053841
X041378Y-023022
X041378Y-024774
X041378Y-028297
X041378Y-030049
X041378Y-033573
X041378Y-035325
X041378Y-038848
X041378Y-040600
X041378Y-044124
X041378Y-045876
X041378Y-049400
X041378Y-051152
X041378Y-054675
X041378Y-056427
X042382Y-023022
X042382Y-028297
X042382Y-033573
X042382Y-038848
X042382Y-044124
X042382Y-049400
X042382Y-054675
X042878Y-022187
X042878Y-027463
X042878Y-032738
X042878Y-038014
X042878Y-043290
X042878Y-048565
X042878Y-053841
X042894Y-024783
X042894Y-030059
X042894Y-035335
X042894Y-040610
X042894Y-045886
X042894Y-051161
X042894Y-056437
X043376Y-023022
X043376Y-028297
X043376Y-033573
X043376Y-038848
X043376Y-044124
X043376Y-049400
X043376Y-054675
X043878Y-022224
X043878Y-027500
X043878Y-032776
X043878Y-038051
X043878Y-043327
X043878Y-048602
X043878Y-053878
X044380Y-023022
X044380Y-028297
X044380Y-033573
X044380Y-038848
X044380Y-044124
X044380Y-049400
X044380Y-054675
X044878Y-022212
X044878Y-027488
X044878Y-032763
X044878Y-038039
X044878Y-043315
X044878Y-048590
X044878Y-053866
X045384Y-023022
X045384Y-024774
X045384Y-028297
X045384Y-030049
X045384Y-033573
X045384Y-035325
X045384Y-038848
X045384Y-040600
X045384Y-044124
X045384Y-045876
X045384Y-049400
X045384Y-051152
X045384Y-054675
X045384Y-056427
X045928Y-022187
X045928Y-027463
X045928Y-032738
X045928Y-038014
X045928Y-043290
X045928Y-048565
X045928Y-053841
X048061Y-023022
X048061Y-028297
X048061Y-033573
X048061Y-038848
X048061Y-044124
X048061Y-049400
X048061Y-054675
X048563Y-022212
X048563Y-024783
X048563Y-027488
X048563Y-030059
X048563Y-032763
X048563Y-035335
X048563Y-038039
X048563Y-040610
X048563Y-043315
X048563Y-045886
X048563Y-048590
X048563Y-051161
X048563Y-053866
X048563Y-056437
X049065Y-023022
X049065Y-028297
X049065Y-033573
X049065Y-038848
X049065Y-044124
X049065Y-049400
X049065Y-054675
X049563Y-022187
X049563Y-027463
X049563Y-032738
X049563Y-038014
X049563Y-043290
X049563Y-048565
X049563Y-053841
X050059Y-023022
X050059Y-028297
X050059Y-033573
X050059Y-038848
X050059Y-044124
X050059Y-049400
X050059Y-054675
X050538Y-022187
X050538Y-027463
X050538Y-032738
X050538Y-038014
X050538Y-043290
X050538Y-048565
X050538Y-053841
X051063Y-023022
X051063Y-024774
X051063Y-028297
X051063Y-030049
X051063Y-033573
X051063Y-035325
X051063Y-038848
X051063Y-040600
X051063Y-044124
X051063Y-045876
X051063Y-049400
X051063Y-051152
X051063Y-054675
X051063Y-056427
X052067Y-023022
X052067Y-028297
X052067Y-033573
X052067Y-038848
X052067Y-044124
X052067Y-049400
X052067Y-054675
X052563Y-022187
X052563Y-027463
X052563Y-032738
X052563Y-038014
X052563Y-043290
X052563Y-048565
X052563Y-053841
X052579Y-024783
X052579Y-030059
X052579Y-035335
X052579Y-040610
X052579Y-045886
X052579Y-051161
X052579Y-056437
X053061Y-023022
X053061Y-028297
X053061Y-033573
X053061Y-038848
X053061Y-044124
X053061Y-049400
X053061Y-054675
X053563Y-022224
X053563Y-027500
X053563Y-032776
X053563Y-038051
X053563Y-043327
X053563Y-048602
X053563Y-053878
X054065Y-023022
X054065Y-028297
X054065Y-033573
X054065Y-038848
X054065Y-044124
X054065Y-049400
X054065Y-054675
X054563Y-022212
X054563Y-027488
X054563Y-032763
X054563Y-038039
X054563Y-043315
X054563Y-048590
X054563Y-053866
X055069Y-023022
X055069Y-024774
X055069Y-028297
X055069Y-030049
X055069Y-033573
X055069Y-035325
X055069Y-038848
X055069Y-040600
X055069Y-044124
X055069Y-045876
X055069Y-049400
X055069Y-051152
X055069Y-054675
X055069Y-056427
X055613Y-022187
X055613Y-027463
X055613Y-032738
X055613Y-038014
X055613Y-043290
X055613Y-048565
X055613Y-053841
X057746Y-023022
X057746Y-028297
X057746Y-033573
X057746Y-038848
X057746Y-044124
X057746Y-049400
X057746Y-054675
X058248Y-022212
X058248Y-024783
X058248Y-027488
X058248Y-030059
X058248Y-032763
X058248Y-035335
X058248Y-038039
X058248Y-040610
X058248Y-043315
X058248Y-045886
X058248Y-048590
X058248Y-051161
X058248Y-053866
X058248Y-056437
X058750Y-023022
X058750Y-028297
X058750Y-033573
X058750Y-038848
X058750Y-044124
X058750Y-049400
X058750Y-054675
X059248Y-022187
X059248Y-027463
X059248Y-032738
X059248Y-038014
X059248Y-043290
X059248Y-048565
X059248Y-053841
X059744Y-023022
X059744Y-028297
X059744Y-033573
X059744Y-038848
X059744Y-044124
X059744Y-049400
X059744Y-054675
X060223Y-022187
X060223Y-027463
X060223Y-032738
X060223Y-038014
X060223Y-043290
X060223Y-048565
X060223Y-053841
X060748Y-023022
X060748Y-024774
X060748Y-028297
X060748Y-030049
X060748Y-033573
X060748Y-035325
X060748Y-038848
X060748Y-040600
X060748Y-044124
X060748Y-045876
X060748Y-049400
X060748Y-051152
X060748Y-054675
X060748Y-056427
X061752Y-023022
X061752Y-028297
X061752Y-033573
X061752Y-038848
X061752Y-044124
X061752Y-049400
X061752Y-054675
X062248Y-022187
X062248Y-027463
X062248Y-032738
X062248Y-038014
X062248Y-043290
X062248Y-048565
X062248Y-053841
X062264Y-024783
X062264Y-030059
X062264Y-035335
X062264Y-040610
X062264Y-045886
X062264Y-051161
X062264Y-056437
X062746Y-023022
X062746Y-028297
X062746Y-033573
X062746Y-038848
X062746Y-044124
X062746Y-049400
X062746Y-054675
X063248Y-022224
X063248Y-027500
X063248Y-032776
X063248Y-038051
X063248Y-043327
X063248Y-048602
X063248Y-053878
X063750Y-023022
X063750Y-028297
X063750Y-033573
X063750Y-038848
X063750Y-044124
X063750Y-049400
X063750Y-054675
X064248Y-022212
X064248Y-027488
X064248Y-032763
X064248Y-038039
X064248Y-043315
X064248Y-048590
X064248Y-053866
X064754Y-023022
X064754Y-024774
X064754Y-028297
X064754Y-030049
X064754Y-033573
X064754Y-035325
X064754Y-038848
X064754Y-040600
X064754Y-044124
X064754Y-045876
X064754Y-049400
X064754Y-051152
X064754Y-054675
X064754Y-056427
X065298Y-022187
X065298Y-027463
X065298Y-032738
X065298Y-038014
X065298Y-043290
X065298Y-048565
X065298Y-053841
T2
X028693Y-025862
X028693Y-031138
X028693Y-036413
X028693Y-041689
X028693Y-046965
X028693Y-052240
X028693Y-057516
X029693Y-025862
X029693Y-031138
X029693Y-036413
X029693Y-041689
X029693Y-046965
X029693Y-052240
X029693Y-057516
X030693Y-025862
X030693Y-031138
X030693Y-036413
X030693Y-041689
X030693Y-046965
X030693Y-052240
X030693Y-057516
X031693Y-025862
X031693Y-031138
X031693Y-036413
X031693Y-041689
X031693Y-046965
X031693Y-052240
X031693Y-057516
X032693Y-025862
X032693Y-031138
X032693Y-036413
X032693Y-041689
X032693Y-046965
X032693Y-052240
X032693Y-057516
X033693Y-025862
X033693Y-031138
X033693Y-036413
X033693Y-041689
X033693Y-046965
X033693Y-052240
X033693Y-057516
X034693Y-025862
X034693Y-031138
X034693Y-036413
X034693Y-041689
X034693Y-046965
X034693Y-052240
X034693Y-057516
X035693Y-025862
X035693Y-031138
X035693Y-036413
X035693Y-041689
X035693Y-046965
X035693Y-052240
X035693Y-057516
X036693Y-025862
X036693Y-031138
X036693Y-036413
X036693Y-041689
X036693Y-046965
X036693Y-052240
X036693Y-057516
X038378Y-025862
X038378Y-031138
X038378Y-036413
X038378Y-041689
X038378Y-046965
X038378Y-052240
X038378Y-057516
X039378Y-025862
X039378Y-031138
X039378Y-036413
X039378Y-041689
X039378Y-046965
X039378Y-052240
X039378Y-057516
X040378Y-025862
X040378Y-031138
X040378Y-036413
X040378Y-041689
X040378Y-046965
X040378Y-052240
X040378Y-057516
X041378Y-025862
X041378Y-031138
X041378Y-036413
X041378Y-041689
X041378Y-046965
X041378Y-052240
X041378Y-057516
X042378Y-025862
X042378Y-031138
X042378Y-036413
X042378Y-041689
X042378Y-046965
X042378Y-052240
X042378Y-057516
X043378Y-025862
X043378Y-031138
X043378Y-036413
X043378Y-041689
X043378Y-046965
X043378Y-052240
X043378Y-057516
X044378Y-025862
X044378Y-031138
X044378Y-036413
X044378Y-041689
X044378Y-046965
X044378Y-052240
X044378Y-057516
X045378Y-025862
X045378Y-031138
X045378Y-036413
X045378Y-041689
X045378Y-046965
X045378Y-052240
X045378Y-057516
X046378Y-025862
X046378Y-031138
X046378Y-036413
X046378Y-041689
X046378Y-046965
X046378Y-052240
X046378Y-057516
X048063Y-025862
X048063Y-031138
X048063Y-036413
X048063Y-041689
X048063Y-046965
X048063Y-052240
X048063Y-057516
X049063Y-025862
X049063Y-031138
X049063Y-036413
X049063Y-041689
X049063Y-046965
X049063Y-052240
X049063Y-057516
X050063Y-025862
X050063Y-031138
X050063Y-036413
X050063Y-041689
X050063Y-046965
X050063Y-052240
X050063Y-057516
X051063Y-025862
X051063Y-031138
X051063Y-036413
X051063Y-041689
X051063Y-046965
X051063Y-052240
X051063Y-057516
X052063Y-025862
X052063Y-031138
X052063Y-036413
X052063Y-041689
X052063Y-046965
X052063Y-052240
X052063Y-057516
X053063Y-025862
X053063Y-031138
X053063Y-036413
X053063Y-041689
X053063Y-046965
X053063Y-052240
X053063Y-057516
X054063Y-025862
X054063Y-031138
X054063Y-036413
X054063Y-041689
X054063Y-046965
X054063Y-052240
X054063Y-057516
X055063Y-025862
X055063Y-031138
X055063Y-036413
X055063Y-041689
X055063Y-046965
X055063Y-052240
X055063Y-057516
X056063Y-025862
X056063Y-031138
X056063Y-036413
X056063Y-041689
X056063Y-046965
X056063Y-052240
X056063Y-057516
X057748Y-025862
X057748Y-031138
X057748Y-036413
X057748Y-041689
X057748Y-046965
X057748Y-052240
X057748Y-057516
X058748Y-025862
X058748Y-031138
X058748Y-036413
X058748Y-041689
X058748Y-046965
X058748Y-052240
X058748Y-057516
X059748Y-025862
X059748Y-031138
X059748Y-036413
X059748Y-041689
X059748Y-046965
X059748Y-052240
X059748Y-057516
X060748Y-025862
X060748Y-031138
X060748Y-036413
X060748Y-041689
X060748Y-046965
X060748Y-052240
X060748Y-057516
X061748Y-025862
X061748Y-031138
X061748Y-036413
X061748Y-041689
X061748Y-046965
X061748Y-052240
X061748Y-057516
X062748Y-025862
X062748Y-031138
X062748Y-036413
X062748Y-041689
X062748Y-046965
X062748Y-052240
X062748Y-057516
X063748Y-025862
X063748Y-031138
X063748Y-036413
X063748Y-041689
X063748Y-046965
X063748Y-052240
X063748Y-057516
X064748Y-025862
X064748Y-031138
X064748Y-036413
X064748Y-041689
X064748Y-046965
X064748Y-052240
X064748Y-057516
X065748Y-025862
X065748Y-031138
X065748Y-036413
X065748Y-041689
X065748Y-046965
X065748Y-052240
X065748Y-057516
T0
M30
