G04 (created by PCBNEW (2013-03-11 BZR 3994)-testing) date Mon 11 Mar 2013 07:23:53 PM CET*
%MOIN*%
G04 Gerber Fmt 3.4, Leading zero omitted, Abs format*
%FSLAX34Y34*%
G01*
G70*
G90*
G04 APERTURE LIST*
%ADD10C,0.006*%
%ADD11C,0.00393701*%
%ADD12C,0.00984252*%
G04 APERTURE END LIST*
G54D10*
G54D11*
X32125Y-17401D02*
X31535Y-17401D01*
X32362Y-18228D02*
X32125Y-17401D01*
X32598Y-17401D02*
X33188Y-17401D01*
X32362Y-18228D02*
X32598Y-17401D01*
X32125Y-19921D02*
X31535Y-19921D01*
X32362Y-19094D02*
X32125Y-19921D01*
X32598Y-19921D02*
X33188Y-19921D01*
X32362Y-19094D02*
X32598Y-19921D01*
X31535Y-17401D02*
X29409Y-17401D01*
X33188Y-17401D02*
X35314Y-17401D01*
X31535Y-19921D02*
X29409Y-19921D01*
X33188Y-19921D02*
X35314Y-19921D01*
X56889Y-21456D02*
X56889Y-58385D01*
X47204Y-58385D02*
X47204Y-21456D01*
X37519Y-21456D02*
X37519Y-58385D01*
X27834Y-58385D02*
X27834Y-21456D01*
X66574Y-21456D02*
X66574Y-58385D01*
X27834Y-21456D02*
X66574Y-21456D01*
X27834Y-37283D02*
X66574Y-37283D01*
X27834Y-32007D02*
X66574Y-32007D01*
X27834Y-26732D02*
X66574Y-26732D01*
X27834Y-47834D02*
X66574Y-47834D01*
X27834Y-42559D02*
X66574Y-42559D01*
X27834Y-53110D02*
X66574Y-53110D01*
X27834Y-58385D02*
X66574Y-58385D01*
G54D12*
X30018Y-15869D02*
X30281Y-16657D01*
X30543Y-15869D01*
X30806Y-16357D02*
X31406Y-16357D01*
X31743Y-16619D02*
X31818Y-16657D01*
X31968Y-16657D01*
X32043Y-16619D01*
X32080Y-16544D01*
X32080Y-16507D01*
X32043Y-16432D01*
X31968Y-16394D01*
X31856Y-16394D01*
X31781Y-16357D01*
X31743Y-16282D01*
X31743Y-16244D01*
X31781Y-16169D01*
X31856Y-16132D01*
X31968Y-16132D01*
X32043Y-16169D01*
X32755Y-16619D02*
X32680Y-16657D01*
X32530Y-16657D01*
X32455Y-16619D01*
X32418Y-16582D01*
X32380Y-16507D01*
X32380Y-16282D01*
X32418Y-16207D01*
X32455Y-16169D01*
X32530Y-16132D01*
X32680Y-16132D01*
X32755Y-16169D01*
X33205Y-16657D02*
X33130Y-16619D01*
X33093Y-16582D01*
X33055Y-16507D01*
X33055Y-16282D01*
X33093Y-16207D01*
X33130Y-16169D01*
X33205Y-16132D01*
X33318Y-16132D01*
X33393Y-16169D01*
X33430Y-16207D01*
X33468Y-16282D01*
X33468Y-16507D01*
X33430Y-16582D01*
X33393Y-16619D01*
X33318Y-16657D01*
X33205Y-16657D01*
X33805Y-16657D02*
X33805Y-16132D01*
X33805Y-16282D02*
X33843Y-16207D01*
X33880Y-16169D01*
X33955Y-16132D01*
X34030Y-16132D01*
X34593Y-16619D02*
X34518Y-16657D01*
X34368Y-16657D01*
X34293Y-16619D01*
X34255Y-16544D01*
X34255Y-16244D01*
X34293Y-16169D01*
X34368Y-16132D01*
X34518Y-16132D01*
X34593Y-16169D01*
X34630Y-16244D01*
X34630Y-16319D01*
X34255Y-16394D01*
M02*
