G04 (created by PCBNEW (2013-07-03 BZR 4236)-testing) date Thu 04 Jul 2013 02:37:25 PM CEST*
%MOIN*%
G04 Gerber Fmt 3.4, Leading zero omitted, Abs format*
%FSLAX34Y34*%
G01*
G70*
G90*
G04 APERTURE LIST*
%ADD10C,0.005906*%
%ADD11R,0.064961X0.064961*%
%ADD12C,0.064961*%
%ADD13R,0.047200X0.047200*%
%ADD14C,0.025000*%
%ADD15C,0.011811*%
%ADD16C,0.007874*%
G04 APERTURE END LIST*
G54D10*
G54D11*
X40000Y-36000D03*
G54D12*
X39000Y-36000D03*
X38000Y-36000D03*
X37000Y-36000D03*
X36000Y-36000D03*
X35000Y-36000D03*
X34000Y-36000D03*
X33000Y-36000D03*
X32000Y-36000D03*
G54D13*
X32000Y-34087D03*
X32000Y-34913D03*
X38000Y-34087D03*
X38000Y-34913D03*
X33000Y-34087D03*
X33000Y-34913D03*
X34000Y-34087D03*
X34000Y-34913D03*
X35000Y-34087D03*
X35000Y-34913D03*
X36000Y-34087D03*
X36000Y-34913D03*
X37000Y-34087D03*
X37000Y-34913D03*
X39000Y-34087D03*
X39000Y-34913D03*
G54D14*
X37519Y-33582D03*
X39000Y-34920D03*
X36515Y-34921D03*
X35000Y-34911D03*
X33503Y-33582D03*
X38503Y-33582D03*
X34488Y-33582D03*
X32500Y-34921D03*
G54D15*
X37409Y-34913D02*
X37000Y-34913D01*
X37519Y-34803D02*
X37409Y-34913D01*
X37519Y-33582D02*
X37519Y-34803D01*
X39000Y-34920D02*
X39000Y-34913D01*
X36000Y-34913D02*
X36507Y-34913D01*
X36507Y-34913D02*
X36515Y-34921D01*
X35000Y-34911D02*
X34988Y-34922D01*
X34988Y-34922D02*
X34980Y-34922D01*
X33417Y-34913D02*
X33503Y-34826D01*
X33503Y-34826D02*
X33503Y-33582D01*
X33417Y-34913D02*
X33000Y-34913D01*
X38354Y-34913D02*
X38000Y-34913D01*
X38503Y-34763D02*
X38354Y-34913D01*
X38503Y-33582D02*
X38503Y-34763D01*
X34488Y-34795D02*
X34370Y-34913D01*
X34488Y-33582D02*
X34488Y-34795D01*
X34000Y-34913D02*
X34370Y-34913D01*
X39000Y-34087D02*
X39646Y-34087D01*
X40000Y-34440D02*
X40000Y-36000D01*
X39646Y-34087D02*
X40000Y-34440D01*
X32000Y-34913D02*
X32491Y-34913D01*
X32491Y-34913D02*
X32500Y-34921D01*
G54D10*
G36*
X40512Y-36486D02*
X40511Y-36505D01*
X40509Y-36513D01*
X40506Y-36521D01*
X40501Y-36527D01*
X40495Y-36533D01*
X40488Y-36537D01*
X40480Y-36540D01*
X40469Y-36542D01*
X40462Y-36542D01*
X40462Y-36338D01*
X40462Y-36311D01*
X40462Y-36093D01*
X40462Y-35906D01*
X40462Y-35688D01*
X40462Y-35661D01*
X40457Y-35635D01*
X40446Y-35609D01*
X40431Y-35587D01*
X40412Y-35568D01*
X40390Y-35553D01*
X40364Y-35542D01*
X40338Y-35537D01*
X40093Y-35537D01*
X40059Y-35571D01*
X40059Y-35940D01*
X40428Y-35940D01*
X40462Y-35906D01*
X40462Y-36093D01*
X40428Y-36059D01*
X40059Y-36059D01*
X40059Y-36428D01*
X40093Y-36462D01*
X40338Y-36462D01*
X40364Y-36457D01*
X40390Y-36446D01*
X40412Y-36431D01*
X40431Y-36412D01*
X40446Y-36390D01*
X40457Y-36364D01*
X40462Y-36338D01*
X40462Y-36542D01*
X39940Y-36542D01*
X39940Y-36428D01*
X39940Y-36059D01*
X39940Y-35940D01*
X39940Y-35571D01*
X39906Y-35537D01*
X39661Y-35537D01*
X39635Y-35542D01*
X39609Y-35553D01*
X39587Y-35568D01*
X39568Y-35587D01*
X39553Y-35609D01*
X39542Y-35635D01*
X39537Y-35661D01*
X39537Y-35688D01*
X39537Y-35906D01*
X39571Y-35940D01*
X39940Y-35940D01*
X39940Y-36059D01*
X39571Y-36059D01*
X39537Y-36093D01*
X39537Y-36311D01*
X39537Y-36338D01*
X39542Y-36364D01*
X39553Y-36390D01*
X39568Y-36412D01*
X39587Y-36431D01*
X39609Y-36446D01*
X39635Y-36457D01*
X39661Y-36462D01*
X39906Y-36462D01*
X39940Y-36428D01*
X39940Y-36542D01*
X39442Y-36542D01*
X39442Y-35956D01*
X39426Y-35871D01*
X39392Y-35791D01*
X39373Y-35762D01*
X39373Y-34336D01*
X39373Y-34180D01*
X39373Y-33993D01*
X39373Y-33837D01*
X39368Y-33810D01*
X39358Y-33785D01*
X39343Y-33763D01*
X39323Y-33743D01*
X39301Y-33728D01*
X39276Y-33718D01*
X39249Y-33713D01*
X39222Y-33713D01*
X39093Y-33713D01*
X39059Y-33747D01*
X39059Y-34027D01*
X39339Y-34027D01*
X39373Y-33993D01*
X39373Y-34180D01*
X39339Y-34146D01*
X39059Y-34146D01*
X39059Y-34426D01*
X39093Y-34460D01*
X39222Y-34460D01*
X39249Y-34460D01*
X39276Y-34455D01*
X39301Y-34445D01*
X39323Y-34430D01*
X39343Y-34410D01*
X39358Y-34388D01*
X39368Y-34363D01*
X39373Y-34336D01*
X39373Y-35762D01*
X39354Y-35732D01*
X39354Y-35160D01*
X39354Y-35137D01*
X39354Y-34665D01*
X39349Y-34642D01*
X39340Y-34621D01*
X39327Y-34601D01*
X39311Y-34585D01*
X39291Y-34572D01*
X39270Y-34563D01*
X39247Y-34558D01*
X39224Y-34558D01*
X38752Y-34558D01*
X38729Y-34563D01*
X38708Y-34572D01*
X38688Y-34585D01*
X38681Y-34592D01*
X38681Y-34433D01*
X38698Y-34445D01*
X38723Y-34455D01*
X38750Y-34460D01*
X38777Y-34460D01*
X38906Y-34460D01*
X38940Y-34426D01*
X38940Y-34146D01*
X38933Y-34146D01*
X38933Y-34027D01*
X38940Y-34027D01*
X38940Y-33747D01*
X38906Y-33713D01*
X38777Y-33713D01*
X38750Y-33713D01*
X38723Y-33718D01*
X38698Y-33728D01*
X38697Y-33729D01*
X38716Y-33703D01*
X38735Y-33659D01*
X38746Y-33613D01*
X38747Y-33558D01*
X38737Y-33512D01*
X38719Y-33467D01*
X38693Y-33428D01*
X38659Y-33394D01*
X38620Y-33367D01*
X38576Y-33349D01*
X38529Y-33339D01*
X38481Y-33339D01*
X38434Y-33348D01*
X38390Y-33366D01*
X38350Y-33392D01*
X38316Y-33425D01*
X38289Y-33464D01*
X38271Y-33508D01*
X38261Y-33555D01*
X38260Y-33603D01*
X38269Y-33650D01*
X38286Y-33694D01*
X38312Y-33734D01*
X38317Y-33739D01*
X38301Y-33728D01*
X38276Y-33718D01*
X38249Y-33713D01*
X38222Y-33713D01*
X38093Y-33713D01*
X38059Y-33747D01*
X38059Y-34027D01*
X38066Y-34027D01*
X38066Y-34146D01*
X38059Y-34146D01*
X38059Y-34426D01*
X38093Y-34460D01*
X38222Y-34460D01*
X38249Y-34460D01*
X38276Y-34455D01*
X38301Y-34445D01*
X38323Y-34430D01*
X38326Y-34427D01*
X38326Y-34600D01*
X38311Y-34585D01*
X38291Y-34572D01*
X38270Y-34563D01*
X38247Y-34558D01*
X38224Y-34558D01*
X37752Y-34558D01*
X37729Y-34563D01*
X37708Y-34572D01*
X37696Y-34579D01*
X37696Y-34443D01*
X37698Y-34445D01*
X37723Y-34455D01*
X37750Y-34460D01*
X37777Y-34460D01*
X37906Y-34460D01*
X37940Y-34426D01*
X37940Y-34146D01*
X37933Y-34146D01*
X37933Y-34027D01*
X37940Y-34027D01*
X37940Y-33747D01*
X37906Y-33713D01*
X37777Y-33713D01*
X37750Y-33713D01*
X37723Y-33718D01*
X37720Y-33719D01*
X37732Y-33703D01*
X37751Y-33659D01*
X37762Y-33613D01*
X37762Y-33558D01*
X37753Y-33512D01*
X37735Y-33467D01*
X37708Y-33428D01*
X37675Y-33394D01*
X37635Y-33367D01*
X37591Y-33349D01*
X37545Y-33339D01*
X37497Y-33339D01*
X37450Y-33348D01*
X37406Y-33366D01*
X37366Y-33392D01*
X37332Y-33425D01*
X37305Y-33464D01*
X37286Y-33508D01*
X37276Y-33555D01*
X37276Y-33603D01*
X37284Y-33650D01*
X37302Y-33694D01*
X37328Y-33734D01*
X37342Y-33749D01*
X37342Y-33762D01*
X37323Y-33743D01*
X37301Y-33728D01*
X37276Y-33718D01*
X37249Y-33713D01*
X37222Y-33713D01*
X37093Y-33713D01*
X37059Y-33747D01*
X37059Y-34027D01*
X37066Y-34027D01*
X37066Y-34146D01*
X37059Y-34146D01*
X37059Y-34426D01*
X37093Y-34460D01*
X37222Y-34460D01*
X37249Y-34460D01*
X37276Y-34455D01*
X37301Y-34445D01*
X37323Y-34430D01*
X37342Y-34411D01*
X37342Y-34625D01*
X37340Y-34621D01*
X37327Y-34601D01*
X37311Y-34585D01*
X37291Y-34572D01*
X37270Y-34563D01*
X37247Y-34558D01*
X37224Y-34558D01*
X36940Y-34558D01*
X36940Y-34426D01*
X36940Y-34146D01*
X36940Y-34027D01*
X36940Y-33747D01*
X36906Y-33713D01*
X36777Y-33713D01*
X36750Y-33713D01*
X36723Y-33718D01*
X36698Y-33728D01*
X36676Y-33743D01*
X36656Y-33763D01*
X36641Y-33785D01*
X36631Y-33810D01*
X36626Y-33837D01*
X36626Y-33993D01*
X36660Y-34027D01*
X36940Y-34027D01*
X36940Y-34146D01*
X36660Y-34146D01*
X36626Y-34180D01*
X36626Y-34336D01*
X36631Y-34363D01*
X36641Y-34388D01*
X36656Y-34410D01*
X36676Y-34430D01*
X36698Y-34445D01*
X36723Y-34455D01*
X36750Y-34460D01*
X36777Y-34460D01*
X36906Y-34460D01*
X36940Y-34426D01*
X36940Y-34558D01*
X36752Y-34558D01*
X36729Y-34563D01*
X36708Y-34572D01*
X36688Y-34585D01*
X36672Y-34601D01*
X36659Y-34621D01*
X36650Y-34642D01*
X36645Y-34665D01*
X36645Y-34688D01*
X36645Y-34715D01*
X36631Y-34706D01*
X36587Y-34687D01*
X36541Y-34678D01*
X36493Y-34677D01*
X36446Y-34686D01*
X36402Y-34704D01*
X36373Y-34723D01*
X36373Y-34336D01*
X36373Y-34180D01*
X36373Y-33993D01*
X36373Y-33837D01*
X36368Y-33810D01*
X36358Y-33785D01*
X36343Y-33763D01*
X36323Y-33743D01*
X36301Y-33728D01*
X36276Y-33718D01*
X36249Y-33713D01*
X36222Y-33713D01*
X36093Y-33713D01*
X36059Y-33747D01*
X36059Y-34027D01*
X36339Y-34027D01*
X36373Y-33993D01*
X36373Y-34180D01*
X36339Y-34146D01*
X36059Y-34146D01*
X36059Y-34426D01*
X36093Y-34460D01*
X36222Y-34460D01*
X36249Y-34460D01*
X36276Y-34455D01*
X36301Y-34445D01*
X36323Y-34430D01*
X36343Y-34410D01*
X36358Y-34388D01*
X36368Y-34363D01*
X36373Y-34336D01*
X36373Y-34723D01*
X36362Y-34730D01*
X36357Y-34735D01*
X36354Y-34735D01*
X36354Y-34665D01*
X36349Y-34642D01*
X36340Y-34621D01*
X36327Y-34601D01*
X36311Y-34585D01*
X36291Y-34572D01*
X36270Y-34563D01*
X36247Y-34558D01*
X36224Y-34558D01*
X35940Y-34558D01*
X35940Y-34426D01*
X35940Y-34146D01*
X35940Y-34027D01*
X35940Y-33747D01*
X35906Y-33713D01*
X35777Y-33713D01*
X35750Y-33713D01*
X35723Y-33718D01*
X35698Y-33728D01*
X35676Y-33743D01*
X35656Y-33763D01*
X35641Y-33785D01*
X35631Y-33810D01*
X35626Y-33837D01*
X35626Y-33993D01*
X35660Y-34027D01*
X35940Y-34027D01*
X35940Y-34146D01*
X35660Y-34146D01*
X35626Y-34180D01*
X35626Y-34336D01*
X35631Y-34363D01*
X35641Y-34388D01*
X35656Y-34410D01*
X35676Y-34430D01*
X35698Y-34445D01*
X35723Y-34455D01*
X35750Y-34460D01*
X35777Y-34460D01*
X35906Y-34460D01*
X35940Y-34426D01*
X35940Y-34558D01*
X35752Y-34558D01*
X35729Y-34563D01*
X35708Y-34572D01*
X35688Y-34585D01*
X35672Y-34601D01*
X35659Y-34621D01*
X35650Y-34642D01*
X35645Y-34665D01*
X35645Y-34688D01*
X35645Y-35160D01*
X35650Y-35183D01*
X35659Y-35204D01*
X35672Y-35224D01*
X35688Y-35240D01*
X35708Y-35253D01*
X35729Y-35262D01*
X35752Y-35267D01*
X35775Y-35267D01*
X36247Y-35267D01*
X36270Y-35262D01*
X36291Y-35253D01*
X36311Y-35240D01*
X36327Y-35224D01*
X36340Y-35204D01*
X36349Y-35183D01*
X36354Y-35160D01*
X36354Y-35137D01*
X36354Y-35103D01*
X36357Y-35107D01*
X36396Y-35134D01*
X36440Y-35153D01*
X36486Y-35163D01*
X36534Y-35164D01*
X36581Y-35156D01*
X36625Y-35139D01*
X36645Y-35126D01*
X36645Y-35160D01*
X36650Y-35183D01*
X36659Y-35204D01*
X36672Y-35224D01*
X36688Y-35240D01*
X36708Y-35253D01*
X36729Y-35262D01*
X36752Y-35267D01*
X36775Y-35267D01*
X37247Y-35267D01*
X37270Y-35262D01*
X37291Y-35253D01*
X37311Y-35240D01*
X37327Y-35224D01*
X37340Y-35204D01*
X37349Y-35183D01*
X37354Y-35160D01*
X37354Y-35137D01*
X37354Y-35090D01*
X37409Y-35090D01*
X37426Y-35088D01*
X37442Y-35087D01*
X37443Y-35086D01*
X37444Y-35086D01*
X37459Y-35082D01*
X37475Y-35077D01*
X37476Y-35077D01*
X37477Y-35076D01*
X37491Y-35069D01*
X37506Y-35061D01*
X37507Y-35061D01*
X37507Y-35060D01*
X37520Y-35050D01*
X37533Y-35040D01*
X37534Y-35038D01*
X37534Y-35038D01*
X37534Y-35038D01*
X37535Y-35038D01*
X37644Y-34928D01*
X37645Y-34927D01*
X37645Y-35160D01*
X37650Y-35183D01*
X37659Y-35204D01*
X37672Y-35224D01*
X37688Y-35240D01*
X37708Y-35253D01*
X37729Y-35262D01*
X37752Y-35267D01*
X37775Y-35267D01*
X38247Y-35267D01*
X38270Y-35262D01*
X38291Y-35253D01*
X38311Y-35240D01*
X38327Y-35224D01*
X38340Y-35204D01*
X38349Y-35183D01*
X38354Y-35160D01*
X38354Y-35137D01*
X38354Y-35090D01*
X38354Y-35090D01*
X38370Y-35088D01*
X38387Y-35087D01*
X38388Y-35086D01*
X38389Y-35086D01*
X38404Y-35082D01*
X38420Y-35077D01*
X38421Y-35077D01*
X38422Y-35076D01*
X38436Y-35069D01*
X38451Y-35061D01*
X38451Y-35061D01*
X38452Y-35060D01*
X38465Y-35050D01*
X38478Y-35040D01*
X38479Y-35038D01*
X38479Y-35038D01*
X38479Y-35038D01*
X38479Y-35038D01*
X38629Y-34889D01*
X38639Y-34876D01*
X38645Y-34868D01*
X38645Y-35160D01*
X38650Y-35183D01*
X38659Y-35204D01*
X38672Y-35224D01*
X38688Y-35240D01*
X38708Y-35253D01*
X38729Y-35262D01*
X38752Y-35267D01*
X38775Y-35267D01*
X39247Y-35267D01*
X39270Y-35262D01*
X39291Y-35253D01*
X39311Y-35240D01*
X39327Y-35224D01*
X39340Y-35204D01*
X39349Y-35183D01*
X39354Y-35160D01*
X39354Y-35732D01*
X39344Y-35718D01*
X39283Y-35657D01*
X39211Y-35608D01*
X39131Y-35574D01*
X39046Y-35557D01*
X38959Y-35556D01*
X38874Y-35573D01*
X38793Y-35605D01*
X38721Y-35653D01*
X38659Y-35713D01*
X38609Y-35785D01*
X38575Y-35865D01*
X38557Y-35950D01*
X38556Y-36037D01*
X38572Y-36122D01*
X38604Y-36203D01*
X38651Y-36276D01*
X38711Y-36338D01*
X38782Y-36388D01*
X38862Y-36423D01*
X38947Y-36441D01*
X39034Y-36443D01*
X39119Y-36428D01*
X39200Y-36397D01*
X39274Y-36350D01*
X39336Y-36290D01*
X39386Y-36219D01*
X39422Y-36140D01*
X39441Y-36055D01*
X39442Y-35956D01*
X39442Y-36542D01*
X38442Y-36542D01*
X38442Y-35956D01*
X38426Y-35871D01*
X38392Y-35791D01*
X38344Y-35718D01*
X38283Y-35657D01*
X38211Y-35608D01*
X38131Y-35574D01*
X38046Y-35557D01*
X37959Y-35556D01*
X37874Y-35573D01*
X37793Y-35605D01*
X37721Y-35653D01*
X37659Y-35713D01*
X37609Y-35785D01*
X37575Y-35865D01*
X37557Y-35950D01*
X37556Y-36037D01*
X37572Y-36122D01*
X37604Y-36203D01*
X37651Y-36276D01*
X37711Y-36338D01*
X37782Y-36388D01*
X37862Y-36423D01*
X37947Y-36441D01*
X38034Y-36443D01*
X38119Y-36428D01*
X38200Y-36397D01*
X38274Y-36350D01*
X38336Y-36290D01*
X38386Y-36219D01*
X38422Y-36140D01*
X38441Y-36055D01*
X38442Y-35956D01*
X38442Y-36542D01*
X37442Y-36542D01*
X37442Y-35956D01*
X37426Y-35871D01*
X37392Y-35791D01*
X37344Y-35718D01*
X37283Y-35657D01*
X37211Y-35608D01*
X37131Y-35574D01*
X37046Y-35557D01*
X36959Y-35556D01*
X36874Y-35573D01*
X36793Y-35605D01*
X36721Y-35653D01*
X36659Y-35713D01*
X36609Y-35785D01*
X36575Y-35865D01*
X36557Y-35950D01*
X36556Y-36037D01*
X36572Y-36122D01*
X36604Y-36203D01*
X36651Y-36276D01*
X36711Y-36338D01*
X36782Y-36388D01*
X36862Y-36423D01*
X36947Y-36441D01*
X37034Y-36443D01*
X37119Y-36428D01*
X37200Y-36397D01*
X37274Y-36350D01*
X37336Y-36290D01*
X37386Y-36219D01*
X37422Y-36140D01*
X37441Y-36055D01*
X37442Y-35956D01*
X37442Y-36542D01*
X36442Y-36542D01*
X36442Y-35956D01*
X36426Y-35871D01*
X36392Y-35791D01*
X36344Y-35718D01*
X36283Y-35657D01*
X36211Y-35608D01*
X36131Y-35574D01*
X36046Y-35557D01*
X35959Y-35556D01*
X35874Y-35573D01*
X35793Y-35605D01*
X35721Y-35653D01*
X35659Y-35713D01*
X35609Y-35785D01*
X35575Y-35865D01*
X35557Y-35950D01*
X35556Y-36037D01*
X35572Y-36122D01*
X35604Y-36203D01*
X35651Y-36276D01*
X35711Y-36338D01*
X35782Y-36388D01*
X35862Y-36423D01*
X35947Y-36441D01*
X36034Y-36443D01*
X36119Y-36428D01*
X36200Y-36397D01*
X36274Y-36350D01*
X36336Y-36290D01*
X36386Y-36219D01*
X36422Y-36140D01*
X36441Y-36055D01*
X36442Y-35956D01*
X36442Y-36542D01*
X35442Y-36542D01*
X35442Y-35956D01*
X35426Y-35871D01*
X35392Y-35791D01*
X35373Y-35762D01*
X35373Y-34336D01*
X35373Y-34180D01*
X35373Y-33993D01*
X35373Y-33837D01*
X35368Y-33810D01*
X35358Y-33785D01*
X35343Y-33763D01*
X35323Y-33743D01*
X35301Y-33728D01*
X35276Y-33718D01*
X35249Y-33713D01*
X35222Y-33713D01*
X35093Y-33713D01*
X35059Y-33747D01*
X35059Y-34027D01*
X35339Y-34027D01*
X35373Y-33993D01*
X35373Y-34180D01*
X35339Y-34146D01*
X35059Y-34146D01*
X35059Y-34426D01*
X35093Y-34460D01*
X35222Y-34460D01*
X35249Y-34460D01*
X35276Y-34455D01*
X35301Y-34445D01*
X35323Y-34430D01*
X35343Y-34410D01*
X35358Y-34388D01*
X35368Y-34363D01*
X35373Y-34336D01*
X35373Y-35762D01*
X35354Y-35732D01*
X35354Y-35160D01*
X35354Y-35137D01*
X35354Y-34665D01*
X35349Y-34642D01*
X35340Y-34621D01*
X35327Y-34601D01*
X35311Y-34585D01*
X35291Y-34572D01*
X35270Y-34563D01*
X35247Y-34558D01*
X35224Y-34558D01*
X34752Y-34558D01*
X34729Y-34563D01*
X34708Y-34572D01*
X34688Y-34585D01*
X34672Y-34601D01*
X34665Y-34612D01*
X34665Y-34419D01*
X34676Y-34430D01*
X34698Y-34445D01*
X34723Y-34455D01*
X34750Y-34460D01*
X34777Y-34460D01*
X34906Y-34460D01*
X34940Y-34426D01*
X34940Y-34146D01*
X34933Y-34146D01*
X34933Y-34027D01*
X34940Y-34027D01*
X34940Y-33747D01*
X34906Y-33713D01*
X34777Y-33713D01*
X34750Y-33713D01*
X34723Y-33718D01*
X34698Y-33728D01*
X34676Y-33743D01*
X34665Y-33754D01*
X34665Y-33749D01*
X34673Y-33742D01*
X34700Y-33703D01*
X34719Y-33659D01*
X34730Y-33613D01*
X34731Y-33558D01*
X34722Y-33512D01*
X34703Y-33467D01*
X34677Y-33428D01*
X34643Y-33394D01*
X34604Y-33367D01*
X34560Y-33349D01*
X34513Y-33339D01*
X34466Y-33339D01*
X34419Y-33348D01*
X34375Y-33366D01*
X34335Y-33392D01*
X34301Y-33425D01*
X34274Y-33464D01*
X34255Y-33508D01*
X34245Y-33555D01*
X34244Y-33603D01*
X34253Y-33650D01*
X34270Y-33694D01*
X34290Y-33724D01*
X34276Y-33718D01*
X34249Y-33713D01*
X34222Y-33713D01*
X34093Y-33713D01*
X34059Y-33747D01*
X34059Y-34027D01*
X34066Y-34027D01*
X34066Y-34146D01*
X34059Y-34146D01*
X34059Y-34426D01*
X34093Y-34460D01*
X34222Y-34460D01*
X34249Y-34460D01*
X34276Y-34455D01*
X34301Y-34445D01*
X34311Y-34438D01*
X34311Y-34585D01*
X34291Y-34572D01*
X34270Y-34563D01*
X34247Y-34558D01*
X34224Y-34558D01*
X33752Y-34558D01*
X33729Y-34563D01*
X33708Y-34572D01*
X33688Y-34585D01*
X33681Y-34592D01*
X33681Y-34433D01*
X33698Y-34445D01*
X33723Y-34455D01*
X33750Y-34460D01*
X33777Y-34460D01*
X33906Y-34460D01*
X33940Y-34426D01*
X33940Y-34146D01*
X33933Y-34146D01*
X33933Y-34027D01*
X33940Y-34027D01*
X33940Y-33747D01*
X33906Y-33713D01*
X33777Y-33713D01*
X33750Y-33713D01*
X33723Y-33718D01*
X33698Y-33728D01*
X33697Y-33729D01*
X33716Y-33703D01*
X33735Y-33659D01*
X33746Y-33613D01*
X33747Y-33558D01*
X33737Y-33512D01*
X33719Y-33467D01*
X33693Y-33428D01*
X33659Y-33394D01*
X33620Y-33367D01*
X33576Y-33349D01*
X33529Y-33339D01*
X33481Y-33339D01*
X33434Y-33348D01*
X33390Y-33366D01*
X33350Y-33392D01*
X33316Y-33425D01*
X33289Y-33464D01*
X33271Y-33508D01*
X33261Y-33555D01*
X33260Y-33603D01*
X33269Y-33650D01*
X33286Y-33694D01*
X33312Y-33734D01*
X33317Y-33739D01*
X33301Y-33728D01*
X33276Y-33718D01*
X33249Y-33713D01*
X33222Y-33713D01*
X33093Y-33713D01*
X33059Y-33747D01*
X33059Y-34027D01*
X33066Y-34027D01*
X33066Y-34146D01*
X33059Y-34146D01*
X33059Y-34426D01*
X33093Y-34460D01*
X33222Y-34460D01*
X33249Y-34460D01*
X33276Y-34455D01*
X33301Y-34445D01*
X33323Y-34430D01*
X33326Y-34427D01*
X33326Y-34600D01*
X33311Y-34585D01*
X33291Y-34572D01*
X33270Y-34563D01*
X33247Y-34558D01*
X33224Y-34558D01*
X32940Y-34558D01*
X32940Y-34426D01*
X32940Y-34146D01*
X32940Y-34027D01*
X32940Y-33747D01*
X32906Y-33713D01*
X32777Y-33713D01*
X32750Y-33713D01*
X32723Y-33718D01*
X32698Y-33728D01*
X32676Y-33743D01*
X32656Y-33763D01*
X32641Y-33785D01*
X32631Y-33810D01*
X32626Y-33837D01*
X32626Y-33993D01*
X32660Y-34027D01*
X32940Y-34027D01*
X32940Y-34146D01*
X32660Y-34146D01*
X32626Y-34180D01*
X32626Y-34336D01*
X32631Y-34363D01*
X32641Y-34388D01*
X32656Y-34410D01*
X32676Y-34430D01*
X32698Y-34445D01*
X32723Y-34455D01*
X32750Y-34460D01*
X32777Y-34460D01*
X32906Y-34460D01*
X32940Y-34426D01*
X32940Y-34558D01*
X32752Y-34558D01*
X32729Y-34563D01*
X32708Y-34572D01*
X32688Y-34585D01*
X32672Y-34601D01*
X32659Y-34621D01*
X32650Y-34642D01*
X32645Y-34665D01*
X32645Y-34688D01*
X32645Y-34726D01*
X32616Y-34706D01*
X32572Y-34687D01*
X32525Y-34678D01*
X32477Y-34677D01*
X32431Y-34686D01*
X32386Y-34704D01*
X32373Y-34713D01*
X32373Y-34336D01*
X32373Y-34180D01*
X32373Y-33993D01*
X32373Y-33837D01*
X32368Y-33810D01*
X32358Y-33785D01*
X32343Y-33763D01*
X32323Y-33743D01*
X32301Y-33728D01*
X32276Y-33718D01*
X32249Y-33713D01*
X32222Y-33713D01*
X32093Y-33713D01*
X32059Y-33747D01*
X32059Y-34027D01*
X32339Y-34027D01*
X32373Y-33993D01*
X32373Y-34180D01*
X32339Y-34146D01*
X32059Y-34146D01*
X32059Y-34426D01*
X32093Y-34460D01*
X32222Y-34460D01*
X32249Y-34460D01*
X32276Y-34455D01*
X32301Y-34445D01*
X32323Y-34430D01*
X32343Y-34410D01*
X32358Y-34388D01*
X32368Y-34363D01*
X32373Y-34336D01*
X32373Y-34713D01*
X32354Y-34726D01*
X32354Y-34665D01*
X32349Y-34642D01*
X32340Y-34621D01*
X32327Y-34601D01*
X32311Y-34585D01*
X32291Y-34572D01*
X32270Y-34563D01*
X32247Y-34558D01*
X32224Y-34558D01*
X31940Y-34558D01*
X31940Y-34426D01*
X31940Y-34146D01*
X31940Y-34027D01*
X31940Y-33747D01*
X31906Y-33713D01*
X31777Y-33713D01*
X31750Y-33713D01*
X31723Y-33718D01*
X31698Y-33728D01*
X31676Y-33743D01*
X31656Y-33763D01*
X31641Y-33785D01*
X31631Y-33810D01*
X31626Y-33837D01*
X31626Y-33993D01*
X31660Y-34027D01*
X31940Y-34027D01*
X31940Y-34146D01*
X31660Y-34146D01*
X31626Y-34180D01*
X31626Y-34336D01*
X31631Y-34363D01*
X31641Y-34388D01*
X31656Y-34410D01*
X31676Y-34430D01*
X31698Y-34445D01*
X31723Y-34455D01*
X31750Y-34460D01*
X31777Y-34460D01*
X31906Y-34460D01*
X31940Y-34426D01*
X31940Y-34558D01*
X31752Y-34558D01*
X31729Y-34563D01*
X31708Y-34572D01*
X31688Y-34585D01*
X31672Y-34601D01*
X31659Y-34621D01*
X31650Y-34642D01*
X31645Y-34665D01*
X31645Y-34688D01*
X31645Y-35160D01*
X31650Y-35183D01*
X31659Y-35204D01*
X31672Y-35224D01*
X31688Y-35240D01*
X31708Y-35253D01*
X31729Y-35262D01*
X31752Y-35267D01*
X31775Y-35267D01*
X32247Y-35267D01*
X32270Y-35262D01*
X32291Y-35253D01*
X32311Y-35240D01*
X32327Y-35224D01*
X32340Y-35204D01*
X32349Y-35183D01*
X32354Y-35160D01*
X32354Y-35137D01*
X32354Y-35115D01*
X32380Y-35134D01*
X32424Y-35153D01*
X32471Y-35163D01*
X32518Y-35164D01*
X32565Y-35156D01*
X32610Y-35139D01*
X32645Y-35116D01*
X32645Y-35160D01*
X32650Y-35183D01*
X32659Y-35204D01*
X32672Y-35224D01*
X32688Y-35240D01*
X32708Y-35253D01*
X32729Y-35262D01*
X32752Y-35267D01*
X32775Y-35267D01*
X33247Y-35267D01*
X33270Y-35262D01*
X33291Y-35253D01*
X33311Y-35240D01*
X33327Y-35224D01*
X33340Y-35204D01*
X33349Y-35183D01*
X33354Y-35160D01*
X33354Y-35137D01*
X33354Y-35090D01*
X33417Y-35090D01*
X33433Y-35088D01*
X33450Y-35087D01*
X33451Y-35086D01*
X33452Y-35086D01*
X33467Y-35082D01*
X33483Y-35077D01*
X33484Y-35077D01*
X33485Y-35076D01*
X33499Y-35069D01*
X33514Y-35061D01*
X33514Y-35061D01*
X33515Y-35060D01*
X33528Y-35050D01*
X33541Y-35040D01*
X33542Y-35038D01*
X33542Y-35038D01*
X33542Y-35038D01*
X33542Y-35038D01*
X33629Y-34952D01*
X33639Y-34939D01*
X33645Y-34931D01*
X33645Y-35160D01*
X33650Y-35183D01*
X33659Y-35204D01*
X33672Y-35224D01*
X33688Y-35240D01*
X33708Y-35253D01*
X33729Y-35262D01*
X33752Y-35267D01*
X33775Y-35267D01*
X34247Y-35267D01*
X34270Y-35262D01*
X34291Y-35253D01*
X34311Y-35240D01*
X34327Y-35224D01*
X34340Y-35204D01*
X34349Y-35183D01*
X34354Y-35160D01*
X34354Y-35137D01*
X34354Y-35090D01*
X34370Y-35090D01*
X34386Y-35088D01*
X34403Y-35087D01*
X34403Y-35086D01*
X34404Y-35086D01*
X34420Y-35082D01*
X34436Y-35077D01*
X34437Y-35077D01*
X34437Y-35076D01*
X34452Y-35069D01*
X34466Y-35061D01*
X34467Y-35061D01*
X34468Y-35060D01*
X34481Y-35050D01*
X34493Y-35040D01*
X34495Y-35038D01*
X34495Y-35038D01*
X34495Y-35038D01*
X34495Y-35038D01*
X34613Y-34920D01*
X34623Y-34907D01*
X34634Y-34895D01*
X34634Y-34894D01*
X34635Y-34893D01*
X34643Y-34879D01*
X34645Y-34874D01*
X34645Y-35160D01*
X34650Y-35183D01*
X34659Y-35204D01*
X34672Y-35224D01*
X34688Y-35240D01*
X34708Y-35253D01*
X34729Y-35262D01*
X34752Y-35267D01*
X34775Y-35267D01*
X35247Y-35267D01*
X35270Y-35262D01*
X35291Y-35253D01*
X35311Y-35240D01*
X35327Y-35224D01*
X35340Y-35204D01*
X35349Y-35183D01*
X35354Y-35160D01*
X35354Y-35732D01*
X35344Y-35718D01*
X35283Y-35657D01*
X35211Y-35608D01*
X35131Y-35574D01*
X35046Y-35557D01*
X34959Y-35556D01*
X34874Y-35573D01*
X34793Y-35605D01*
X34721Y-35653D01*
X34659Y-35713D01*
X34609Y-35785D01*
X34575Y-35865D01*
X34557Y-35950D01*
X34556Y-36037D01*
X34572Y-36122D01*
X34604Y-36203D01*
X34651Y-36276D01*
X34711Y-36338D01*
X34782Y-36388D01*
X34862Y-36423D01*
X34947Y-36441D01*
X35034Y-36443D01*
X35119Y-36428D01*
X35200Y-36397D01*
X35274Y-36350D01*
X35336Y-36290D01*
X35386Y-36219D01*
X35422Y-36140D01*
X35441Y-36055D01*
X35442Y-35956D01*
X35442Y-36542D01*
X34442Y-36542D01*
X34442Y-35956D01*
X34426Y-35871D01*
X34392Y-35791D01*
X34344Y-35718D01*
X34283Y-35657D01*
X34211Y-35608D01*
X34131Y-35574D01*
X34046Y-35557D01*
X33959Y-35556D01*
X33874Y-35573D01*
X33793Y-35605D01*
X33721Y-35653D01*
X33659Y-35713D01*
X33609Y-35785D01*
X33575Y-35865D01*
X33557Y-35950D01*
X33556Y-36037D01*
X33572Y-36122D01*
X33604Y-36203D01*
X33651Y-36276D01*
X33711Y-36338D01*
X33782Y-36388D01*
X33862Y-36423D01*
X33947Y-36441D01*
X34034Y-36443D01*
X34119Y-36428D01*
X34200Y-36397D01*
X34274Y-36350D01*
X34336Y-36290D01*
X34386Y-36219D01*
X34422Y-36140D01*
X34441Y-36055D01*
X34442Y-35956D01*
X34442Y-36542D01*
X33442Y-36542D01*
X33442Y-35956D01*
X33426Y-35871D01*
X33392Y-35791D01*
X33344Y-35718D01*
X33283Y-35657D01*
X33211Y-35608D01*
X33131Y-35574D01*
X33046Y-35557D01*
X32959Y-35556D01*
X32874Y-35573D01*
X32793Y-35605D01*
X32721Y-35653D01*
X32659Y-35713D01*
X32609Y-35785D01*
X32575Y-35865D01*
X32557Y-35950D01*
X32556Y-36037D01*
X32572Y-36122D01*
X32604Y-36203D01*
X32651Y-36276D01*
X32711Y-36338D01*
X32782Y-36388D01*
X32862Y-36423D01*
X32947Y-36441D01*
X33034Y-36443D01*
X33119Y-36428D01*
X33200Y-36397D01*
X33274Y-36350D01*
X33336Y-36290D01*
X33386Y-36219D01*
X33422Y-36140D01*
X33441Y-36055D01*
X33442Y-35956D01*
X33442Y-36542D01*
X32442Y-36542D01*
X32442Y-35956D01*
X32426Y-35871D01*
X32392Y-35791D01*
X32344Y-35718D01*
X32283Y-35657D01*
X32211Y-35608D01*
X32131Y-35574D01*
X32046Y-35557D01*
X31959Y-35556D01*
X31874Y-35573D01*
X31793Y-35605D01*
X31721Y-35653D01*
X31659Y-35713D01*
X31609Y-35785D01*
X31575Y-35865D01*
X31557Y-35950D01*
X31556Y-36037D01*
X31572Y-36122D01*
X31604Y-36203D01*
X31651Y-36276D01*
X31711Y-36338D01*
X31782Y-36388D01*
X31862Y-36423D01*
X31947Y-36441D01*
X32034Y-36443D01*
X32119Y-36428D01*
X32200Y-36397D01*
X32274Y-36350D01*
X32336Y-36290D01*
X32386Y-36219D01*
X32422Y-36140D01*
X32441Y-36055D01*
X32442Y-35956D01*
X32442Y-36542D01*
X31507Y-36542D01*
X31491Y-36540D01*
X31484Y-36538D01*
X31476Y-36534D01*
X31470Y-36529D01*
X31465Y-36523D01*
X31461Y-36516D01*
X31459Y-36508D01*
X31457Y-36493D01*
X31457Y-33357D01*
X31459Y-33341D01*
X31461Y-33334D01*
X31465Y-33326D01*
X31470Y-33320D01*
X31476Y-33315D01*
X31483Y-33311D01*
X31491Y-33309D01*
X31506Y-33307D01*
X40462Y-33307D01*
X40478Y-33309D01*
X40485Y-33311D01*
X40493Y-33315D01*
X40499Y-33320D01*
X40504Y-33326D01*
X40508Y-33333D01*
X40510Y-33341D01*
X40512Y-33356D01*
X40512Y-36486D01*
X40512Y-36486D01*
G37*
G54D16*
X40512Y-36486D02*
X40511Y-36505D01*
X40509Y-36513D01*
X40506Y-36521D01*
X40501Y-36527D01*
X40495Y-36533D01*
X40488Y-36537D01*
X40480Y-36540D01*
X40469Y-36542D01*
X40462Y-36542D01*
X40462Y-36338D01*
X40462Y-36311D01*
X40462Y-36093D01*
X40462Y-35906D01*
X40462Y-35688D01*
X40462Y-35661D01*
X40457Y-35635D01*
X40446Y-35609D01*
X40431Y-35587D01*
X40412Y-35568D01*
X40390Y-35553D01*
X40364Y-35542D01*
X40338Y-35537D01*
X40093Y-35537D01*
X40059Y-35571D01*
X40059Y-35940D01*
X40428Y-35940D01*
X40462Y-35906D01*
X40462Y-36093D01*
X40428Y-36059D01*
X40059Y-36059D01*
X40059Y-36428D01*
X40093Y-36462D01*
X40338Y-36462D01*
X40364Y-36457D01*
X40390Y-36446D01*
X40412Y-36431D01*
X40431Y-36412D01*
X40446Y-36390D01*
X40457Y-36364D01*
X40462Y-36338D01*
X40462Y-36542D01*
X39940Y-36542D01*
X39940Y-36428D01*
X39940Y-36059D01*
X39940Y-35940D01*
X39940Y-35571D01*
X39906Y-35537D01*
X39661Y-35537D01*
X39635Y-35542D01*
X39609Y-35553D01*
X39587Y-35568D01*
X39568Y-35587D01*
X39553Y-35609D01*
X39542Y-35635D01*
X39537Y-35661D01*
X39537Y-35688D01*
X39537Y-35906D01*
X39571Y-35940D01*
X39940Y-35940D01*
X39940Y-36059D01*
X39571Y-36059D01*
X39537Y-36093D01*
X39537Y-36311D01*
X39537Y-36338D01*
X39542Y-36364D01*
X39553Y-36390D01*
X39568Y-36412D01*
X39587Y-36431D01*
X39609Y-36446D01*
X39635Y-36457D01*
X39661Y-36462D01*
X39906Y-36462D01*
X39940Y-36428D01*
X39940Y-36542D01*
X39442Y-36542D01*
X39442Y-35956D01*
X39426Y-35871D01*
X39392Y-35791D01*
X39373Y-35762D01*
X39373Y-34336D01*
X39373Y-34180D01*
X39373Y-33993D01*
X39373Y-33837D01*
X39368Y-33810D01*
X39358Y-33785D01*
X39343Y-33763D01*
X39323Y-33743D01*
X39301Y-33728D01*
X39276Y-33718D01*
X39249Y-33713D01*
X39222Y-33713D01*
X39093Y-33713D01*
X39059Y-33747D01*
X39059Y-34027D01*
X39339Y-34027D01*
X39373Y-33993D01*
X39373Y-34180D01*
X39339Y-34146D01*
X39059Y-34146D01*
X39059Y-34426D01*
X39093Y-34460D01*
X39222Y-34460D01*
X39249Y-34460D01*
X39276Y-34455D01*
X39301Y-34445D01*
X39323Y-34430D01*
X39343Y-34410D01*
X39358Y-34388D01*
X39368Y-34363D01*
X39373Y-34336D01*
X39373Y-35762D01*
X39354Y-35732D01*
X39354Y-35160D01*
X39354Y-35137D01*
X39354Y-34665D01*
X39349Y-34642D01*
X39340Y-34621D01*
X39327Y-34601D01*
X39311Y-34585D01*
X39291Y-34572D01*
X39270Y-34563D01*
X39247Y-34558D01*
X39224Y-34558D01*
X38752Y-34558D01*
X38729Y-34563D01*
X38708Y-34572D01*
X38688Y-34585D01*
X38681Y-34592D01*
X38681Y-34433D01*
X38698Y-34445D01*
X38723Y-34455D01*
X38750Y-34460D01*
X38777Y-34460D01*
X38906Y-34460D01*
X38940Y-34426D01*
X38940Y-34146D01*
X38933Y-34146D01*
X38933Y-34027D01*
X38940Y-34027D01*
X38940Y-33747D01*
X38906Y-33713D01*
X38777Y-33713D01*
X38750Y-33713D01*
X38723Y-33718D01*
X38698Y-33728D01*
X38697Y-33729D01*
X38716Y-33703D01*
X38735Y-33659D01*
X38746Y-33613D01*
X38747Y-33558D01*
X38737Y-33512D01*
X38719Y-33467D01*
X38693Y-33428D01*
X38659Y-33394D01*
X38620Y-33367D01*
X38576Y-33349D01*
X38529Y-33339D01*
X38481Y-33339D01*
X38434Y-33348D01*
X38390Y-33366D01*
X38350Y-33392D01*
X38316Y-33425D01*
X38289Y-33464D01*
X38271Y-33508D01*
X38261Y-33555D01*
X38260Y-33603D01*
X38269Y-33650D01*
X38286Y-33694D01*
X38312Y-33734D01*
X38317Y-33739D01*
X38301Y-33728D01*
X38276Y-33718D01*
X38249Y-33713D01*
X38222Y-33713D01*
X38093Y-33713D01*
X38059Y-33747D01*
X38059Y-34027D01*
X38066Y-34027D01*
X38066Y-34146D01*
X38059Y-34146D01*
X38059Y-34426D01*
X38093Y-34460D01*
X38222Y-34460D01*
X38249Y-34460D01*
X38276Y-34455D01*
X38301Y-34445D01*
X38323Y-34430D01*
X38326Y-34427D01*
X38326Y-34600D01*
X38311Y-34585D01*
X38291Y-34572D01*
X38270Y-34563D01*
X38247Y-34558D01*
X38224Y-34558D01*
X37752Y-34558D01*
X37729Y-34563D01*
X37708Y-34572D01*
X37696Y-34579D01*
X37696Y-34443D01*
X37698Y-34445D01*
X37723Y-34455D01*
X37750Y-34460D01*
X37777Y-34460D01*
X37906Y-34460D01*
X37940Y-34426D01*
X37940Y-34146D01*
X37933Y-34146D01*
X37933Y-34027D01*
X37940Y-34027D01*
X37940Y-33747D01*
X37906Y-33713D01*
X37777Y-33713D01*
X37750Y-33713D01*
X37723Y-33718D01*
X37720Y-33719D01*
X37732Y-33703D01*
X37751Y-33659D01*
X37762Y-33613D01*
X37762Y-33558D01*
X37753Y-33512D01*
X37735Y-33467D01*
X37708Y-33428D01*
X37675Y-33394D01*
X37635Y-33367D01*
X37591Y-33349D01*
X37545Y-33339D01*
X37497Y-33339D01*
X37450Y-33348D01*
X37406Y-33366D01*
X37366Y-33392D01*
X37332Y-33425D01*
X37305Y-33464D01*
X37286Y-33508D01*
X37276Y-33555D01*
X37276Y-33603D01*
X37284Y-33650D01*
X37302Y-33694D01*
X37328Y-33734D01*
X37342Y-33749D01*
X37342Y-33762D01*
X37323Y-33743D01*
X37301Y-33728D01*
X37276Y-33718D01*
X37249Y-33713D01*
X37222Y-33713D01*
X37093Y-33713D01*
X37059Y-33747D01*
X37059Y-34027D01*
X37066Y-34027D01*
X37066Y-34146D01*
X37059Y-34146D01*
X37059Y-34426D01*
X37093Y-34460D01*
X37222Y-34460D01*
X37249Y-34460D01*
X37276Y-34455D01*
X37301Y-34445D01*
X37323Y-34430D01*
X37342Y-34411D01*
X37342Y-34625D01*
X37340Y-34621D01*
X37327Y-34601D01*
X37311Y-34585D01*
X37291Y-34572D01*
X37270Y-34563D01*
X37247Y-34558D01*
X37224Y-34558D01*
X36940Y-34558D01*
X36940Y-34426D01*
X36940Y-34146D01*
X36940Y-34027D01*
X36940Y-33747D01*
X36906Y-33713D01*
X36777Y-33713D01*
X36750Y-33713D01*
X36723Y-33718D01*
X36698Y-33728D01*
X36676Y-33743D01*
X36656Y-33763D01*
X36641Y-33785D01*
X36631Y-33810D01*
X36626Y-33837D01*
X36626Y-33993D01*
X36660Y-34027D01*
X36940Y-34027D01*
X36940Y-34146D01*
X36660Y-34146D01*
X36626Y-34180D01*
X36626Y-34336D01*
X36631Y-34363D01*
X36641Y-34388D01*
X36656Y-34410D01*
X36676Y-34430D01*
X36698Y-34445D01*
X36723Y-34455D01*
X36750Y-34460D01*
X36777Y-34460D01*
X36906Y-34460D01*
X36940Y-34426D01*
X36940Y-34558D01*
X36752Y-34558D01*
X36729Y-34563D01*
X36708Y-34572D01*
X36688Y-34585D01*
X36672Y-34601D01*
X36659Y-34621D01*
X36650Y-34642D01*
X36645Y-34665D01*
X36645Y-34688D01*
X36645Y-34715D01*
X36631Y-34706D01*
X36587Y-34687D01*
X36541Y-34678D01*
X36493Y-34677D01*
X36446Y-34686D01*
X36402Y-34704D01*
X36373Y-34723D01*
X36373Y-34336D01*
X36373Y-34180D01*
X36373Y-33993D01*
X36373Y-33837D01*
X36368Y-33810D01*
X36358Y-33785D01*
X36343Y-33763D01*
X36323Y-33743D01*
X36301Y-33728D01*
X36276Y-33718D01*
X36249Y-33713D01*
X36222Y-33713D01*
X36093Y-33713D01*
X36059Y-33747D01*
X36059Y-34027D01*
X36339Y-34027D01*
X36373Y-33993D01*
X36373Y-34180D01*
X36339Y-34146D01*
X36059Y-34146D01*
X36059Y-34426D01*
X36093Y-34460D01*
X36222Y-34460D01*
X36249Y-34460D01*
X36276Y-34455D01*
X36301Y-34445D01*
X36323Y-34430D01*
X36343Y-34410D01*
X36358Y-34388D01*
X36368Y-34363D01*
X36373Y-34336D01*
X36373Y-34723D01*
X36362Y-34730D01*
X36357Y-34735D01*
X36354Y-34735D01*
X36354Y-34665D01*
X36349Y-34642D01*
X36340Y-34621D01*
X36327Y-34601D01*
X36311Y-34585D01*
X36291Y-34572D01*
X36270Y-34563D01*
X36247Y-34558D01*
X36224Y-34558D01*
X35940Y-34558D01*
X35940Y-34426D01*
X35940Y-34146D01*
X35940Y-34027D01*
X35940Y-33747D01*
X35906Y-33713D01*
X35777Y-33713D01*
X35750Y-33713D01*
X35723Y-33718D01*
X35698Y-33728D01*
X35676Y-33743D01*
X35656Y-33763D01*
X35641Y-33785D01*
X35631Y-33810D01*
X35626Y-33837D01*
X35626Y-33993D01*
X35660Y-34027D01*
X35940Y-34027D01*
X35940Y-34146D01*
X35660Y-34146D01*
X35626Y-34180D01*
X35626Y-34336D01*
X35631Y-34363D01*
X35641Y-34388D01*
X35656Y-34410D01*
X35676Y-34430D01*
X35698Y-34445D01*
X35723Y-34455D01*
X35750Y-34460D01*
X35777Y-34460D01*
X35906Y-34460D01*
X35940Y-34426D01*
X35940Y-34558D01*
X35752Y-34558D01*
X35729Y-34563D01*
X35708Y-34572D01*
X35688Y-34585D01*
X35672Y-34601D01*
X35659Y-34621D01*
X35650Y-34642D01*
X35645Y-34665D01*
X35645Y-34688D01*
X35645Y-35160D01*
X35650Y-35183D01*
X35659Y-35204D01*
X35672Y-35224D01*
X35688Y-35240D01*
X35708Y-35253D01*
X35729Y-35262D01*
X35752Y-35267D01*
X35775Y-35267D01*
X36247Y-35267D01*
X36270Y-35262D01*
X36291Y-35253D01*
X36311Y-35240D01*
X36327Y-35224D01*
X36340Y-35204D01*
X36349Y-35183D01*
X36354Y-35160D01*
X36354Y-35137D01*
X36354Y-35103D01*
X36357Y-35107D01*
X36396Y-35134D01*
X36440Y-35153D01*
X36486Y-35163D01*
X36534Y-35164D01*
X36581Y-35156D01*
X36625Y-35139D01*
X36645Y-35126D01*
X36645Y-35160D01*
X36650Y-35183D01*
X36659Y-35204D01*
X36672Y-35224D01*
X36688Y-35240D01*
X36708Y-35253D01*
X36729Y-35262D01*
X36752Y-35267D01*
X36775Y-35267D01*
X37247Y-35267D01*
X37270Y-35262D01*
X37291Y-35253D01*
X37311Y-35240D01*
X37327Y-35224D01*
X37340Y-35204D01*
X37349Y-35183D01*
X37354Y-35160D01*
X37354Y-35137D01*
X37354Y-35090D01*
X37409Y-35090D01*
X37426Y-35088D01*
X37442Y-35087D01*
X37443Y-35086D01*
X37444Y-35086D01*
X37459Y-35082D01*
X37475Y-35077D01*
X37476Y-35077D01*
X37477Y-35076D01*
X37491Y-35069D01*
X37506Y-35061D01*
X37507Y-35061D01*
X37507Y-35060D01*
X37520Y-35050D01*
X37533Y-35040D01*
X37534Y-35038D01*
X37534Y-35038D01*
X37534Y-35038D01*
X37535Y-35038D01*
X37644Y-34928D01*
X37645Y-34927D01*
X37645Y-35160D01*
X37650Y-35183D01*
X37659Y-35204D01*
X37672Y-35224D01*
X37688Y-35240D01*
X37708Y-35253D01*
X37729Y-35262D01*
X37752Y-35267D01*
X37775Y-35267D01*
X38247Y-35267D01*
X38270Y-35262D01*
X38291Y-35253D01*
X38311Y-35240D01*
X38327Y-35224D01*
X38340Y-35204D01*
X38349Y-35183D01*
X38354Y-35160D01*
X38354Y-35137D01*
X38354Y-35090D01*
X38354Y-35090D01*
X38370Y-35088D01*
X38387Y-35087D01*
X38388Y-35086D01*
X38389Y-35086D01*
X38404Y-35082D01*
X38420Y-35077D01*
X38421Y-35077D01*
X38422Y-35076D01*
X38436Y-35069D01*
X38451Y-35061D01*
X38451Y-35061D01*
X38452Y-35060D01*
X38465Y-35050D01*
X38478Y-35040D01*
X38479Y-35038D01*
X38479Y-35038D01*
X38479Y-35038D01*
X38479Y-35038D01*
X38629Y-34889D01*
X38639Y-34876D01*
X38645Y-34868D01*
X38645Y-35160D01*
X38650Y-35183D01*
X38659Y-35204D01*
X38672Y-35224D01*
X38688Y-35240D01*
X38708Y-35253D01*
X38729Y-35262D01*
X38752Y-35267D01*
X38775Y-35267D01*
X39247Y-35267D01*
X39270Y-35262D01*
X39291Y-35253D01*
X39311Y-35240D01*
X39327Y-35224D01*
X39340Y-35204D01*
X39349Y-35183D01*
X39354Y-35160D01*
X39354Y-35732D01*
X39344Y-35718D01*
X39283Y-35657D01*
X39211Y-35608D01*
X39131Y-35574D01*
X39046Y-35557D01*
X38959Y-35556D01*
X38874Y-35573D01*
X38793Y-35605D01*
X38721Y-35653D01*
X38659Y-35713D01*
X38609Y-35785D01*
X38575Y-35865D01*
X38557Y-35950D01*
X38556Y-36037D01*
X38572Y-36122D01*
X38604Y-36203D01*
X38651Y-36276D01*
X38711Y-36338D01*
X38782Y-36388D01*
X38862Y-36423D01*
X38947Y-36441D01*
X39034Y-36443D01*
X39119Y-36428D01*
X39200Y-36397D01*
X39274Y-36350D01*
X39336Y-36290D01*
X39386Y-36219D01*
X39422Y-36140D01*
X39441Y-36055D01*
X39442Y-35956D01*
X39442Y-36542D01*
X38442Y-36542D01*
X38442Y-35956D01*
X38426Y-35871D01*
X38392Y-35791D01*
X38344Y-35718D01*
X38283Y-35657D01*
X38211Y-35608D01*
X38131Y-35574D01*
X38046Y-35557D01*
X37959Y-35556D01*
X37874Y-35573D01*
X37793Y-35605D01*
X37721Y-35653D01*
X37659Y-35713D01*
X37609Y-35785D01*
X37575Y-35865D01*
X37557Y-35950D01*
X37556Y-36037D01*
X37572Y-36122D01*
X37604Y-36203D01*
X37651Y-36276D01*
X37711Y-36338D01*
X37782Y-36388D01*
X37862Y-36423D01*
X37947Y-36441D01*
X38034Y-36443D01*
X38119Y-36428D01*
X38200Y-36397D01*
X38274Y-36350D01*
X38336Y-36290D01*
X38386Y-36219D01*
X38422Y-36140D01*
X38441Y-36055D01*
X38442Y-35956D01*
X38442Y-36542D01*
X37442Y-36542D01*
X37442Y-35956D01*
X37426Y-35871D01*
X37392Y-35791D01*
X37344Y-35718D01*
X37283Y-35657D01*
X37211Y-35608D01*
X37131Y-35574D01*
X37046Y-35557D01*
X36959Y-35556D01*
X36874Y-35573D01*
X36793Y-35605D01*
X36721Y-35653D01*
X36659Y-35713D01*
X36609Y-35785D01*
X36575Y-35865D01*
X36557Y-35950D01*
X36556Y-36037D01*
X36572Y-36122D01*
X36604Y-36203D01*
X36651Y-36276D01*
X36711Y-36338D01*
X36782Y-36388D01*
X36862Y-36423D01*
X36947Y-36441D01*
X37034Y-36443D01*
X37119Y-36428D01*
X37200Y-36397D01*
X37274Y-36350D01*
X37336Y-36290D01*
X37386Y-36219D01*
X37422Y-36140D01*
X37441Y-36055D01*
X37442Y-35956D01*
X37442Y-36542D01*
X36442Y-36542D01*
X36442Y-35956D01*
X36426Y-35871D01*
X36392Y-35791D01*
X36344Y-35718D01*
X36283Y-35657D01*
X36211Y-35608D01*
X36131Y-35574D01*
X36046Y-35557D01*
X35959Y-35556D01*
X35874Y-35573D01*
X35793Y-35605D01*
X35721Y-35653D01*
X35659Y-35713D01*
X35609Y-35785D01*
X35575Y-35865D01*
X35557Y-35950D01*
X35556Y-36037D01*
X35572Y-36122D01*
X35604Y-36203D01*
X35651Y-36276D01*
X35711Y-36338D01*
X35782Y-36388D01*
X35862Y-36423D01*
X35947Y-36441D01*
X36034Y-36443D01*
X36119Y-36428D01*
X36200Y-36397D01*
X36274Y-36350D01*
X36336Y-36290D01*
X36386Y-36219D01*
X36422Y-36140D01*
X36441Y-36055D01*
X36442Y-35956D01*
X36442Y-36542D01*
X35442Y-36542D01*
X35442Y-35956D01*
X35426Y-35871D01*
X35392Y-35791D01*
X35373Y-35762D01*
X35373Y-34336D01*
X35373Y-34180D01*
X35373Y-33993D01*
X35373Y-33837D01*
X35368Y-33810D01*
X35358Y-33785D01*
X35343Y-33763D01*
X35323Y-33743D01*
X35301Y-33728D01*
X35276Y-33718D01*
X35249Y-33713D01*
X35222Y-33713D01*
X35093Y-33713D01*
X35059Y-33747D01*
X35059Y-34027D01*
X35339Y-34027D01*
X35373Y-33993D01*
X35373Y-34180D01*
X35339Y-34146D01*
X35059Y-34146D01*
X35059Y-34426D01*
X35093Y-34460D01*
X35222Y-34460D01*
X35249Y-34460D01*
X35276Y-34455D01*
X35301Y-34445D01*
X35323Y-34430D01*
X35343Y-34410D01*
X35358Y-34388D01*
X35368Y-34363D01*
X35373Y-34336D01*
X35373Y-35762D01*
X35354Y-35732D01*
X35354Y-35160D01*
X35354Y-35137D01*
X35354Y-34665D01*
X35349Y-34642D01*
X35340Y-34621D01*
X35327Y-34601D01*
X35311Y-34585D01*
X35291Y-34572D01*
X35270Y-34563D01*
X35247Y-34558D01*
X35224Y-34558D01*
X34752Y-34558D01*
X34729Y-34563D01*
X34708Y-34572D01*
X34688Y-34585D01*
X34672Y-34601D01*
X34665Y-34612D01*
X34665Y-34419D01*
X34676Y-34430D01*
X34698Y-34445D01*
X34723Y-34455D01*
X34750Y-34460D01*
X34777Y-34460D01*
X34906Y-34460D01*
X34940Y-34426D01*
X34940Y-34146D01*
X34933Y-34146D01*
X34933Y-34027D01*
X34940Y-34027D01*
X34940Y-33747D01*
X34906Y-33713D01*
X34777Y-33713D01*
X34750Y-33713D01*
X34723Y-33718D01*
X34698Y-33728D01*
X34676Y-33743D01*
X34665Y-33754D01*
X34665Y-33749D01*
X34673Y-33742D01*
X34700Y-33703D01*
X34719Y-33659D01*
X34730Y-33613D01*
X34731Y-33558D01*
X34722Y-33512D01*
X34703Y-33467D01*
X34677Y-33428D01*
X34643Y-33394D01*
X34604Y-33367D01*
X34560Y-33349D01*
X34513Y-33339D01*
X34466Y-33339D01*
X34419Y-33348D01*
X34375Y-33366D01*
X34335Y-33392D01*
X34301Y-33425D01*
X34274Y-33464D01*
X34255Y-33508D01*
X34245Y-33555D01*
X34244Y-33603D01*
X34253Y-33650D01*
X34270Y-33694D01*
X34290Y-33724D01*
X34276Y-33718D01*
X34249Y-33713D01*
X34222Y-33713D01*
X34093Y-33713D01*
X34059Y-33747D01*
X34059Y-34027D01*
X34066Y-34027D01*
X34066Y-34146D01*
X34059Y-34146D01*
X34059Y-34426D01*
X34093Y-34460D01*
X34222Y-34460D01*
X34249Y-34460D01*
X34276Y-34455D01*
X34301Y-34445D01*
X34311Y-34438D01*
X34311Y-34585D01*
X34291Y-34572D01*
X34270Y-34563D01*
X34247Y-34558D01*
X34224Y-34558D01*
X33752Y-34558D01*
X33729Y-34563D01*
X33708Y-34572D01*
X33688Y-34585D01*
X33681Y-34592D01*
X33681Y-34433D01*
X33698Y-34445D01*
X33723Y-34455D01*
X33750Y-34460D01*
X33777Y-34460D01*
X33906Y-34460D01*
X33940Y-34426D01*
X33940Y-34146D01*
X33933Y-34146D01*
X33933Y-34027D01*
X33940Y-34027D01*
X33940Y-33747D01*
X33906Y-33713D01*
X33777Y-33713D01*
X33750Y-33713D01*
X33723Y-33718D01*
X33698Y-33728D01*
X33697Y-33729D01*
X33716Y-33703D01*
X33735Y-33659D01*
X33746Y-33613D01*
X33747Y-33558D01*
X33737Y-33512D01*
X33719Y-33467D01*
X33693Y-33428D01*
X33659Y-33394D01*
X33620Y-33367D01*
X33576Y-33349D01*
X33529Y-33339D01*
X33481Y-33339D01*
X33434Y-33348D01*
X33390Y-33366D01*
X33350Y-33392D01*
X33316Y-33425D01*
X33289Y-33464D01*
X33271Y-33508D01*
X33261Y-33555D01*
X33260Y-33603D01*
X33269Y-33650D01*
X33286Y-33694D01*
X33312Y-33734D01*
X33317Y-33739D01*
X33301Y-33728D01*
X33276Y-33718D01*
X33249Y-33713D01*
X33222Y-33713D01*
X33093Y-33713D01*
X33059Y-33747D01*
X33059Y-34027D01*
X33066Y-34027D01*
X33066Y-34146D01*
X33059Y-34146D01*
X33059Y-34426D01*
X33093Y-34460D01*
X33222Y-34460D01*
X33249Y-34460D01*
X33276Y-34455D01*
X33301Y-34445D01*
X33323Y-34430D01*
X33326Y-34427D01*
X33326Y-34600D01*
X33311Y-34585D01*
X33291Y-34572D01*
X33270Y-34563D01*
X33247Y-34558D01*
X33224Y-34558D01*
X32940Y-34558D01*
X32940Y-34426D01*
X32940Y-34146D01*
X32940Y-34027D01*
X32940Y-33747D01*
X32906Y-33713D01*
X32777Y-33713D01*
X32750Y-33713D01*
X32723Y-33718D01*
X32698Y-33728D01*
X32676Y-33743D01*
X32656Y-33763D01*
X32641Y-33785D01*
X32631Y-33810D01*
X32626Y-33837D01*
X32626Y-33993D01*
X32660Y-34027D01*
X32940Y-34027D01*
X32940Y-34146D01*
X32660Y-34146D01*
X32626Y-34180D01*
X32626Y-34336D01*
X32631Y-34363D01*
X32641Y-34388D01*
X32656Y-34410D01*
X32676Y-34430D01*
X32698Y-34445D01*
X32723Y-34455D01*
X32750Y-34460D01*
X32777Y-34460D01*
X32906Y-34460D01*
X32940Y-34426D01*
X32940Y-34558D01*
X32752Y-34558D01*
X32729Y-34563D01*
X32708Y-34572D01*
X32688Y-34585D01*
X32672Y-34601D01*
X32659Y-34621D01*
X32650Y-34642D01*
X32645Y-34665D01*
X32645Y-34688D01*
X32645Y-34726D01*
X32616Y-34706D01*
X32572Y-34687D01*
X32525Y-34678D01*
X32477Y-34677D01*
X32431Y-34686D01*
X32386Y-34704D01*
X32373Y-34713D01*
X32373Y-34336D01*
X32373Y-34180D01*
X32373Y-33993D01*
X32373Y-33837D01*
X32368Y-33810D01*
X32358Y-33785D01*
X32343Y-33763D01*
X32323Y-33743D01*
X32301Y-33728D01*
X32276Y-33718D01*
X32249Y-33713D01*
X32222Y-33713D01*
X32093Y-33713D01*
X32059Y-33747D01*
X32059Y-34027D01*
X32339Y-34027D01*
X32373Y-33993D01*
X32373Y-34180D01*
X32339Y-34146D01*
X32059Y-34146D01*
X32059Y-34426D01*
X32093Y-34460D01*
X32222Y-34460D01*
X32249Y-34460D01*
X32276Y-34455D01*
X32301Y-34445D01*
X32323Y-34430D01*
X32343Y-34410D01*
X32358Y-34388D01*
X32368Y-34363D01*
X32373Y-34336D01*
X32373Y-34713D01*
X32354Y-34726D01*
X32354Y-34665D01*
X32349Y-34642D01*
X32340Y-34621D01*
X32327Y-34601D01*
X32311Y-34585D01*
X32291Y-34572D01*
X32270Y-34563D01*
X32247Y-34558D01*
X32224Y-34558D01*
X31940Y-34558D01*
X31940Y-34426D01*
X31940Y-34146D01*
X31940Y-34027D01*
X31940Y-33747D01*
X31906Y-33713D01*
X31777Y-33713D01*
X31750Y-33713D01*
X31723Y-33718D01*
X31698Y-33728D01*
X31676Y-33743D01*
X31656Y-33763D01*
X31641Y-33785D01*
X31631Y-33810D01*
X31626Y-33837D01*
X31626Y-33993D01*
X31660Y-34027D01*
X31940Y-34027D01*
X31940Y-34146D01*
X31660Y-34146D01*
X31626Y-34180D01*
X31626Y-34336D01*
X31631Y-34363D01*
X31641Y-34388D01*
X31656Y-34410D01*
X31676Y-34430D01*
X31698Y-34445D01*
X31723Y-34455D01*
X31750Y-34460D01*
X31777Y-34460D01*
X31906Y-34460D01*
X31940Y-34426D01*
X31940Y-34558D01*
X31752Y-34558D01*
X31729Y-34563D01*
X31708Y-34572D01*
X31688Y-34585D01*
X31672Y-34601D01*
X31659Y-34621D01*
X31650Y-34642D01*
X31645Y-34665D01*
X31645Y-34688D01*
X31645Y-35160D01*
X31650Y-35183D01*
X31659Y-35204D01*
X31672Y-35224D01*
X31688Y-35240D01*
X31708Y-35253D01*
X31729Y-35262D01*
X31752Y-35267D01*
X31775Y-35267D01*
X32247Y-35267D01*
X32270Y-35262D01*
X32291Y-35253D01*
X32311Y-35240D01*
X32327Y-35224D01*
X32340Y-35204D01*
X32349Y-35183D01*
X32354Y-35160D01*
X32354Y-35137D01*
X32354Y-35115D01*
X32380Y-35134D01*
X32424Y-35153D01*
X32471Y-35163D01*
X32518Y-35164D01*
X32565Y-35156D01*
X32610Y-35139D01*
X32645Y-35116D01*
X32645Y-35160D01*
X32650Y-35183D01*
X32659Y-35204D01*
X32672Y-35224D01*
X32688Y-35240D01*
X32708Y-35253D01*
X32729Y-35262D01*
X32752Y-35267D01*
X32775Y-35267D01*
X33247Y-35267D01*
X33270Y-35262D01*
X33291Y-35253D01*
X33311Y-35240D01*
X33327Y-35224D01*
X33340Y-35204D01*
X33349Y-35183D01*
X33354Y-35160D01*
X33354Y-35137D01*
X33354Y-35090D01*
X33417Y-35090D01*
X33433Y-35088D01*
X33450Y-35087D01*
X33451Y-35086D01*
X33452Y-35086D01*
X33467Y-35082D01*
X33483Y-35077D01*
X33484Y-35077D01*
X33485Y-35076D01*
X33499Y-35069D01*
X33514Y-35061D01*
X33514Y-35061D01*
X33515Y-35060D01*
X33528Y-35050D01*
X33541Y-35040D01*
X33542Y-35038D01*
X33542Y-35038D01*
X33542Y-35038D01*
X33542Y-35038D01*
X33629Y-34952D01*
X33639Y-34939D01*
X33645Y-34931D01*
X33645Y-35160D01*
X33650Y-35183D01*
X33659Y-35204D01*
X33672Y-35224D01*
X33688Y-35240D01*
X33708Y-35253D01*
X33729Y-35262D01*
X33752Y-35267D01*
X33775Y-35267D01*
X34247Y-35267D01*
X34270Y-35262D01*
X34291Y-35253D01*
X34311Y-35240D01*
X34327Y-35224D01*
X34340Y-35204D01*
X34349Y-35183D01*
X34354Y-35160D01*
X34354Y-35137D01*
X34354Y-35090D01*
X34370Y-35090D01*
X34386Y-35088D01*
X34403Y-35087D01*
X34403Y-35086D01*
X34404Y-35086D01*
X34420Y-35082D01*
X34436Y-35077D01*
X34437Y-35077D01*
X34437Y-35076D01*
X34452Y-35069D01*
X34466Y-35061D01*
X34467Y-35061D01*
X34468Y-35060D01*
X34481Y-35050D01*
X34493Y-35040D01*
X34495Y-35038D01*
X34495Y-35038D01*
X34495Y-35038D01*
X34495Y-35038D01*
X34613Y-34920D01*
X34623Y-34907D01*
X34634Y-34895D01*
X34634Y-34894D01*
X34635Y-34893D01*
X34643Y-34879D01*
X34645Y-34874D01*
X34645Y-35160D01*
X34650Y-35183D01*
X34659Y-35204D01*
X34672Y-35224D01*
X34688Y-35240D01*
X34708Y-35253D01*
X34729Y-35262D01*
X34752Y-35267D01*
X34775Y-35267D01*
X35247Y-35267D01*
X35270Y-35262D01*
X35291Y-35253D01*
X35311Y-35240D01*
X35327Y-35224D01*
X35340Y-35204D01*
X35349Y-35183D01*
X35354Y-35160D01*
X35354Y-35732D01*
X35344Y-35718D01*
X35283Y-35657D01*
X35211Y-35608D01*
X35131Y-35574D01*
X35046Y-35557D01*
X34959Y-35556D01*
X34874Y-35573D01*
X34793Y-35605D01*
X34721Y-35653D01*
X34659Y-35713D01*
X34609Y-35785D01*
X34575Y-35865D01*
X34557Y-35950D01*
X34556Y-36037D01*
X34572Y-36122D01*
X34604Y-36203D01*
X34651Y-36276D01*
X34711Y-36338D01*
X34782Y-36388D01*
X34862Y-36423D01*
X34947Y-36441D01*
X35034Y-36443D01*
X35119Y-36428D01*
X35200Y-36397D01*
X35274Y-36350D01*
X35336Y-36290D01*
X35386Y-36219D01*
X35422Y-36140D01*
X35441Y-36055D01*
X35442Y-35956D01*
X35442Y-36542D01*
X34442Y-36542D01*
X34442Y-35956D01*
X34426Y-35871D01*
X34392Y-35791D01*
X34344Y-35718D01*
X34283Y-35657D01*
X34211Y-35608D01*
X34131Y-35574D01*
X34046Y-35557D01*
X33959Y-35556D01*
X33874Y-35573D01*
X33793Y-35605D01*
X33721Y-35653D01*
X33659Y-35713D01*
X33609Y-35785D01*
X33575Y-35865D01*
X33557Y-35950D01*
X33556Y-36037D01*
X33572Y-36122D01*
X33604Y-36203D01*
X33651Y-36276D01*
X33711Y-36338D01*
X33782Y-36388D01*
X33862Y-36423D01*
X33947Y-36441D01*
X34034Y-36443D01*
X34119Y-36428D01*
X34200Y-36397D01*
X34274Y-36350D01*
X34336Y-36290D01*
X34386Y-36219D01*
X34422Y-36140D01*
X34441Y-36055D01*
X34442Y-35956D01*
X34442Y-36542D01*
X33442Y-36542D01*
X33442Y-35956D01*
X33426Y-35871D01*
X33392Y-35791D01*
X33344Y-35718D01*
X33283Y-35657D01*
X33211Y-35608D01*
X33131Y-35574D01*
X33046Y-35557D01*
X32959Y-35556D01*
X32874Y-35573D01*
X32793Y-35605D01*
X32721Y-35653D01*
X32659Y-35713D01*
X32609Y-35785D01*
X32575Y-35865D01*
X32557Y-35950D01*
X32556Y-36037D01*
X32572Y-36122D01*
X32604Y-36203D01*
X32651Y-36276D01*
X32711Y-36338D01*
X32782Y-36388D01*
X32862Y-36423D01*
X32947Y-36441D01*
X33034Y-36443D01*
X33119Y-36428D01*
X33200Y-36397D01*
X33274Y-36350D01*
X33336Y-36290D01*
X33386Y-36219D01*
X33422Y-36140D01*
X33441Y-36055D01*
X33442Y-35956D01*
X33442Y-36542D01*
X32442Y-36542D01*
X32442Y-35956D01*
X32426Y-35871D01*
X32392Y-35791D01*
X32344Y-35718D01*
X32283Y-35657D01*
X32211Y-35608D01*
X32131Y-35574D01*
X32046Y-35557D01*
X31959Y-35556D01*
X31874Y-35573D01*
X31793Y-35605D01*
X31721Y-35653D01*
X31659Y-35713D01*
X31609Y-35785D01*
X31575Y-35865D01*
X31557Y-35950D01*
X31556Y-36037D01*
X31572Y-36122D01*
X31604Y-36203D01*
X31651Y-36276D01*
X31711Y-36338D01*
X31782Y-36388D01*
X31862Y-36423D01*
X31947Y-36441D01*
X32034Y-36443D01*
X32119Y-36428D01*
X32200Y-36397D01*
X32274Y-36350D01*
X32336Y-36290D01*
X32386Y-36219D01*
X32422Y-36140D01*
X32441Y-36055D01*
X32442Y-35956D01*
X32442Y-36542D01*
X31507Y-36542D01*
X31491Y-36540D01*
X31484Y-36538D01*
X31476Y-36534D01*
X31470Y-36529D01*
X31465Y-36523D01*
X31461Y-36516D01*
X31459Y-36508D01*
X31457Y-36493D01*
X31457Y-33357D01*
X31459Y-33341D01*
X31461Y-33334D01*
X31465Y-33326D01*
X31470Y-33320D01*
X31476Y-33315D01*
X31483Y-33311D01*
X31491Y-33309D01*
X31506Y-33307D01*
X40462Y-33307D01*
X40478Y-33309D01*
X40485Y-33311D01*
X40493Y-33315D01*
X40499Y-33320D01*
X40504Y-33326D01*
X40508Y-33333D01*
X40510Y-33341D01*
X40512Y-33356D01*
X40512Y-36486D01*
M02*
