G04 (created by PCBNEW (2013-07-01 BZR 4235)-testing) date Wed 03 Jul 2013 02:20:11 AM CEST*
%MOIN*%
G04 Gerber Fmt 3.4, Leading zero omitted, Abs format*
%FSLAX34Y34*%
G01*
G70*
G90*
G04 APERTURE LIST*
%ADD10C,0.005906*%
%ADD11R,0.025591X0.039370*%
%ADD12R,0.019685X0.039370*%
%ADD13R,0.064961X0.064961*%
%ADD14C,0.064961*%
%ADD15C,0.025000*%
%ADD16C,0.011811*%
%ADD17C,0.007874*%
G04 APERTURE END LIST*
G54D10*
G54D11*
X34025Y-34291D03*
G54D12*
X33661Y-34291D03*
X33346Y-34291D03*
G54D11*
X32982Y-34291D03*
X34025Y-35000D03*
G54D12*
X33661Y-35000D03*
X33346Y-35000D03*
G54D11*
X32982Y-35000D03*
X38041Y-34291D03*
G54D12*
X37677Y-34291D03*
X37362Y-34291D03*
G54D11*
X36998Y-34291D03*
X38041Y-35000D03*
G54D12*
X37677Y-35000D03*
X37362Y-35000D03*
G54D11*
X36998Y-35000D03*
G54D13*
X40000Y-36000D03*
G54D14*
X39000Y-36000D03*
X38000Y-36000D03*
X37000Y-36000D03*
X36000Y-36000D03*
X35000Y-36000D03*
X34000Y-36000D03*
X33000Y-36000D03*
X32000Y-36000D03*
G54D15*
X37519Y-33582D03*
X39000Y-34920D03*
X36515Y-34921D03*
X35000Y-34911D03*
X33503Y-33582D03*
X38503Y-33582D03*
X34488Y-33582D03*
X32500Y-34921D03*
G54D16*
X32982Y-35000D02*
X32982Y-35017D01*
X32982Y-35017D02*
X32000Y-36000D01*
X37362Y-34291D02*
X37362Y-33740D01*
X37362Y-33740D02*
X37519Y-33582D01*
X38041Y-34291D02*
X38881Y-34291D01*
X39000Y-34410D02*
X39000Y-34920D01*
X38881Y-34291D02*
X39000Y-34410D01*
X36998Y-34291D02*
X36476Y-34291D01*
X36476Y-34881D02*
X36476Y-34291D01*
X36515Y-34921D02*
X36476Y-34881D01*
X35000Y-34911D02*
X35000Y-34370D01*
X34025Y-34291D02*
X34921Y-34291D01*
X34921Y-34291D02*
X35000Y-34370D01*
X33346Y-34291D02*
X33346Y-33740D01*
X33346Y-33740D02*
X33503Y-33582D01*
X37677Y-34291D02*
X37677Y-33858D01*
X37952Y-33582D02*
X38503Y-33582D01*
X37677Y-33858D02*
X37952Y-33582D01*
X33909Y-33582D02*
X34488Y-33582D01*
X33661Y-33830D02*
X33661Y-34291D01*
X33661Y-33830D02*
X33909Y-33582D01*
X33346Y-35000D02*
X33346Y-35653D01*
X33346Y-35653D02*
X33000Y-36000D01*
X33661Y-35000D02*
X33661Y-35661D01*
X33661Y-35661D02*
X34000Y-36000D01*
X34025Y-35000D02*
X34025Y-35025D01*
X34025Y-35025D02*
X35000Y-36000D01*
X36998Y-35000D02*
X36998Y-35001D01*
X36998Y-35001D02*
X36000Y-36000D01*
X37362Y-35000D02*
X37362Y-35637D01*
X37362Y-35637D02*
X37000Y-36000D01*
X37677Y-35000D02*
X37677Y-35677D01*
X37677Y-35677D02*
X38000Y-36000D01*
X38041Y-35000D02*
X38041Y-35041D01*
X38041Y-35041D02*
X39000Y-36000D01*
X32982Y-34291D02*
X32500Y-34291D01*
X32500Y-34291D02*
X32500Y-34921D01*
G54D10*
G36*
X40512Y-36486D02*
X40511Y-36505D01*
X40509Y-36513D01*
X40506Y-36521D01*
X40501Y-36527D01*
X40495Y-36533D01*
X40488Y-36537D01*
X40480Y-36540D01*
X40469Y-36542D01*
X40462Y-36542D01*
X40462Y-36338D01*
X40462Y-36311D01*
X40462Y-36093D01*
X40462Y-35906D01*
X40462Y-35688D01*
X40462Y-35661D01*
X40457Y-35635D01*
X40446Y-35609D01*
X40431Y-35587D01*
X40412Y-35568D01*
X40390Y-35553D01*
X40364Y-35542D01*
X40338Y-35537D01*
X40093Y-35537D01*
X40059Y-35571D01*
X40059Y-35940D01*
X40428Y-35940D01*
X40462Y-35906D01*
X40462Y-36093D01*
X40428Y-36059D01*
X40059Y-36059D01*
X40059Y-36428D01*
X40093Y-36462D01*
X40338Y-36462D01*
X40364Y-36457D01*
X40390Y-36446D01*
X40412Y-36431D01*
X40431Y-36412D01*
X40446Y-36390D01*
X40457Y-36364D01*
X40462Y-36338D01*
X40462Y-36542D01*
X39940Y-36542D01*
X39940Y-36428D01*
X39940Y-36059D01*
X39940Y-35940D01*
X39940Y-35571D01*
X39906Y-35537D01*
X39661Y-35537D01*
X39635Y-35542D01*
X39609Y-35553D01*
X39587Y-35568D01*
X39568Y-35587D01*
X39553Y-35609D01*
X39542Y-35635D01*
X39537Y-35661D01*
X39537Y-35688D01*
X39537Y-35906D01*
X39571Y-35940D01*
X39940Y-35940D01*
X39940Y-36059D01*
X39571Y-36059D01*
X39537Y-36093D01*
X39537Y-36311D01*
X39537Y-36338D01*
X39542Y-36364D01*
X39553Y-36390D01*
X39568Y-36412D01*
X39587Y-36431D01*
X39609Y-36446D01*
X39635Y-36457D01*
X39661Y-36462D01*
X39906Y-36462D01*
X39940Y-36428D01*
X39940Y-36542D01*
X39442Y-36542D01*
X39442Y-35956D01*
X39426Y-35871D01*
X39392Y-35791D01*
X39344Y-35718D01*
X39283Y-35657D01*
X39211Y-35608D01*
X39131Y-35574D01*
X39046Y-35557D01*
X38959Y-35556D01*
X38874Y-35573D01*
X38838Y-35587D01*
X38367Y-35116D01*
X38367Y-34468D01*
X38807Y-34468D01*
X38822Y-34483D01*
X38822Y-34753D01*
X38812Y-34762D01*
X38785Y-34802D01*
X38767Y-34846D01*
X38757Y-34892D01*
X38756Y-34940D01*
X38765Y-34987D01*
X38782Y-35031D01*
X38808Y-35071D01*
X38841Y-35106D01*
X38880Y-35133D01*
X38924Y-35152D01*
X38971Y-35162D01*
X39018Y-35163D01*
X39065Y-35155D01*
X39110Y-35138D01*
X39150Y-35112D01*
X39184Y-35079D01*
X39212Y-35040D01*
X39231Y-34997D01*
X39242Y-34950D01*
X39243Y-34896D01*
X39233Y-34849D01*
X39215Y-34805D01*
X39189Y-34765D01*
X39177Y-34753D01*
X39177Y-34410D01*
X39175Y-34393D01*
X39174Y-34377D01*
X39173Y-34376D01*
X39173Y-34375D01*
X39169Y-34359D01*
X39164Y-34344D01*
X39164Y-34343D01*
X39163Y-34342D01*
X39156Y-34328D01*
X39148Y-34313D01*
X39148Y-34312D01*
X39147Y-34311D01*
X39137Y-34299D01*
X39127Y-34286D01*
X39125Y-34285D01*
X39125Y-34285D01*
X39125Y-34285D01*
X39125Y-34284D01*
X39006Y-34166D01*
X38993Y-34155D01*
X38981Y-34145D01*
X38980Y-34144D01*
X38979Y-34144D01*
X38965Y-34136D01*
X38951Y-34128D01*
X38950Y-34128D01*
X38949Y-34127D01*
X38933Y-34122D01*
X38918Y-34118D01*
X38917Y-34117D01*
X38916Y-34117D01*
X38900Y-34116D01*
X38883Y-34114D01*
X38881Y-34114D01*
X38881Y-34114D01*
X38881Y-34114D01*
X38881Y-34114D01*
X38367Y-34114D01*
X38367Y-33896D01*
X37889Y-33896D01*
X38026Y-33759D01*
X38337Y-33759D01*
X38345Y-33768D01*
X38384Y-33795D01*
X38428Y-33815D01*
X38475Y-33825D01*
X38522Y-33826D01*
X38569Y-33817D01*
X38614Y-33800D01*
X38654Y-33775D01*
X38688Y-33742D01*
X38716Y-33703D01*
X38735Y-33659D01*
X38746Y-33613D01*
X38747Y-33558D01*
X38737Y-33512D01*
X38719Y-33467D01*
X38693Y-33428D01*
X38659Y-33394D01*
X38620Y-33367D01*
X38576Y-33349D01*
X38529Y-33339D01*
X38481Y-33339D01*
X38434Y-33348D01*
X38390Y-33366D01*
X38350Y-33392D01*
X38337Y-33405D01*
X37952Y-33405D01*
X37936Y-33407D01*
X37920Y-33408D01*
X37919Y-33408D01*
X37918Y-33408D01*
X37902Y-33413D01*
X37886Y-33418D01*
X37886Y-33418D01*
X37885Y-33418D01*
X37870Y-33426D01*
X37856Y-33434D01*
X37855Y-33434D01*
X37854Y-33435D01*
X37842Y-33445D01*
X37829Y-33455D01*
X37827Y-33456D01*
X37827Y-33456D01*
X37827Y-33456D01*
X37827Y-33457D01*
X37756Y-33528D01*
X37753Y-33512D01*
X37735Y-33467D01*
X37708Y-33428D01*
X37675Y-33394D01*
X37635Y-33367D01*
X37591Y-33349D01*
X37545Y-33339D01*
X37497Y-33339D01*
X37450Y-33348D01*
X37406Y-33366D01*
X37366Y-33392D01*
X37332Y-33425D01*
X37305Y-33464D01*
X37286Y-33508D01*
X37276Y-33555D01*
X37276Y-33575D01*
X37236Y-33614D01*
X37226Y-33627D01*
X37216Y-33640D01*
X37215Y-33640D01*
X37214Y-33641D01*
X37207Y-33656D01*
X37199Y-33670D01*
X37199Y-33671D01*
X37198Y-33672D01*
X37193Y-33687D01*
X37188Y-33703D01*
X37188Y-33704D01*
X37188Y-33705D01*
X37186Y-33721D01*
X37185Y-33737D01*
X37185Y-33739D01*
X37185Y-33739D01*
X37185Y-33739D01*
X37185Y-33740D01*
X37185Y-33896D01*
X36671Y-33896D01*
X36671Y-34114D01*
X36476Y-34114D01*
X36459Y-34115D01*
X36443Y-34117D01*
X36442Y-34117D01*
X36441Y-34117D01*
X36425Y-34122D01*
X36410Y-34127D01*
X36409Y-34127D01*
X36408Y-34127D01*
X36394Y-34135D01*
X36379Y-34143D01*
X36378Y-34143D01*
X36378Y-34143D01*
X36365Y-34154D01*
X36352Y-34164D01*
X36352Y-34165D01*
X36351Y-34165D01*
X36340Y-34178D01*
X36330Y-34191D01*
X36329Y-34191D01*
X36329Y-34192D01*
X36321Y-34206D01*
X36313Y-34221D01*
X36313Y-34222D01*
X36313Y-34222D01*
X36308Y-34238D01*
X36303Y-34254D01*
X36303Y-34255D01*
X36302Y-34255D01*
X36301Y-34272D01*
X36299Y-34288D01*
X36299Y-34290D01*
X36299Y-34290D01*
X36299Y-34290D01*
X36299Y-34291D01*
X36299Y-34809D01*
X36282Y-34847D01*
X36272Y-34894D01*
X36272Y-34941D01*
X36280Y-34988D01*
X36298Y-35032D01*
X36324Y-35072D01*
X36357Y-35107D01*
X36396Y-35134D01*
X36440Y-35153D01*
X36486Y-35163D01*
X36534Y-35164D01*
X36581Y-35156D01*
X36600Y-35149D01*
X36161Y-35587D01*
X36131Y-35574D01*
X36046Y-35557D01*
X35959Y-35556D01*
X35874Y-35573D01*
X35793Y-35605D01*
X35721Y-35653D01*
X35659Y-35713D01*
X35609Y-35785D01*
X35575Y-35865D01*
X35557Y-35950D01*
X35556Y-36037D01*
X35572Y-36122D01*
X35604Y-36203D01*
X35651Y-36276D01*
X35711Y-36338D01*
X35782Y-36388D01*
X35862Y-36423D01*
X35947Y-36441D01*
X36034Y-36443D01*
X36119Y-36428D01*
X36200Y-36397D01*
X36274Y-36350D01*
X36336Y-36290D01*
X36386Y-36219D01*
X36422Y-36140D01*
X36441Y-36055D01*
X36442Y-35956D01*
X36426Y-35871D01*
X36412Y-35838D01*
X36855Y-35394D01*
X37185Y-35394D01*
X37185Y-35564D01*
X37161Y-35587D01*
X37131Y-35574D01*
X37046Y-35557D01*
X36959Y-35556D01*
X36874Y-35573D01*
X36793Y-35605D01*
X36721Y-35653D01*
X36659Y-35713D01*
X36609Y-35785D01*
X36575Y-35865D01*
X36557Y-35950D01*
X36556Y-36037D01*
X36572Y-36122D01*
X36604Y-36203D01*
X36651Y-36276D01*
X36711Y-36338D01*
X36782Y-36388D01*
X36862Y-36423D01*
X36947Y-36441D01*
X37034Y-36443D01*
X37119Y-36428D01*
X37200Y-36397D01*
X37274Y-36350D01*
X37336Y-36290D01*
X37386Y-36219D01*
X37422Y-36140D01*
X37441Y-36055D01*
X37442Y-35956D01*
X37426Y-35871D01*
X37412Y-35838D01*
X37487Y-35763D01*
X37497Y-35750D01*
X37508Y-35737D01*
X37508Y-35737D01*
X37509Y-35736D01*
X37510Y-35734D01*
X37512Y-35742D01*
X37513Y-35743D01*
X37513Y-35744D01*
X37521Y-35759D01*
X37528Y-35773D01*
X37529Y-35774D01*
X37529Y-35775D01*
X37539Y-35787D01*
X37550Y-35800D01*
X37551Y-35801D01*
X37551Y-35802D01*
X37551Y-35802D01*
X37551Y-35802D01*
X37587Y-35838D01*
X37575Y-35865D01*
X37557Y-35950D01*
X37556Y-36037D01*
X37572Y-36122D01*
X37604Y-36203D01*
X37651Y-36276D01*
X37711Y-36338D01*
X37782Y-36388D01*
X37862Y-36423D01*
X37947Y-36441D01*
X38034Y-36443D01*
X38119Y-36428D01*
X38200Y-36397D01*
X38274Y-36350D01*
X38336Y-36290D01*
X38386Y-36219D01*
X38422Y-36140D01*
X38441Y-36055D01*
X38442Y-35956D01*
X38426Y-35871D01*
X38392Y-35791D01*
X38344Y-35718D01*
X38283Y-35657D01*
X38211Y-35608D01*
X38131Y-35574D01*
X38046Y-35557D01*
X37959Y-35556D01*
X37874Y-35573D01*
X37854Y-35581D01*
X37854Y-35394D01*
X38144Y-35394D01*
X38587Y-35838D01*
X38575Y-35865D01*
X38557Y-35950D01*
X38556Y-36037D01*
X38572Y-36122D01*
X38604Y-36203D01*
X38651Y-36276D01*
X38711Y-36338D01*
X38782Y-36388D01*
X38862Y-36423D01*
X38947Y-36441D01*
X39034Y-36443D01*
X39119Y-36428D01*
X39200Y-36397D01*
X39274Y-36350D01*
X39336Y-36290D01*
X39386Y-36219D01*
X39422Y-36140D01*
X39441Y-36055D01*
X39442Y-35956D01*
X39442Y-36542D01*
X35442Y-36542D01*
X35442Y-35956D01*
X35426Y-35871D01*
X35392Y-35791D01*
X35344Y-35718D01*
X35283Y-35657D01*
X35211Y-35608D01*
X35131Y-35574D01*
X35046Y-35557D01*
X34959Y-35556D01*
X34874Y-35573D01*
X34838Y-35587D01*
X34351Y-35101D01*
X34351Y-34468D01*
X34822Y-34468D01*
X34822Y-34744D01*
X34812Y-34754D01*
X34785Y-34793D01*
X34767Y-34837D01*
X34757Y-34884D01*
X34756Y-34931D01*
X34765Y-34978D01*
X34782Y-35023D01*
X34808Y-35063D01*
X34841Y-35097D01*
X34880Y-35124D01*
X34924Y-35143D01*
X34971Y-35153D01*
X35018Y-35154D01*
X35065Y-35146D01*
X35110Y-35129D01*
X35150Y-35103D01*
X35184Y-35071D01*
X35212Y-35032D01*
X35231Y-34988D01*
X35242Y-34942D01*
X35243Y-34887D01*
X35233Y-34840D01*
X35215Y-34796D01*
X35189Y-34757D01*
X35177Y-34744D01*
X35177Y-34370D01*
X35175Y-34353D01*
X35174Y-34337D01*
X35173Y-34336D01*
X35173Y-34335D01*
X35169Y-34319D01*
X35164Y-34304D01*
X35164Y-34303D01*
X35163Y-34302D01*
X35156Y-34288D01*
X35148Y-34273D01*
X35148Y-34272D01*
X35147Y-34272D01*
X35137Y-34259D01*
X35127Y-34246D01*
X35125Y-34245D01*
X35125Y-34245D01*
X35125Y-34245D01*
X35125Y-34244D01*
X35046Y-34166D01*
X35033Y-34155D01*
X35021Y-34145D01*
X35020Y-34144D01*
X35019Y-34144D01*
X35005Y-34136D01*
X34991Y-34128D01*
X34990Y-34128D01*
X34989Y-34127D01*
X34973Y-34122D01*
X34958Y-34118D01*
X34957Y-34117D01*
X34956Y-34117D01*
X34939Y-34116D01*
X34923Y-34114D01*
X34921Y-34114D01*
X34921Y-34114D01*
X34921Y-34114D01*
X34921Y-34114D01*
X34351Y-34114D01*
X34351Y-33896D01*
X33846Y-33896D01*
X33982Y-33759D01*
X34321Y-33759D01*
X34329Y-33768D01*
X34369Y-33795D01*
X34412Y-33815D01*
X34459Y-33825D01*
X34506Y-33826D01*
X34553Y-33817D01*
X34598Y-33800D01*
X34638Y-33775D01*
X34673Y-33742D01*
X34700Y-33703D01*
X34719Y-33659D01*
X34730Y-33613D01*
X34731Y-33558D01*
X34722Y-33512D01*
X34703Y-33467D01*
X34677Y-33428D01*
X34643Y-33394D01*
X34604Y-33367D01*
X34560Y-33349D01*
X34513Y-33339D01*
X34466Y-33339D01*
X34419Y-33348D01*
X34375Y-33366D01*
X34335Y-33392D01*
X34321Y-33405D01*
X33909Y-33405D01*
X33893Y-33407D01*
X33876Y-33408D01*
X33875Y-33408D01*
X33875Y-33408D01*
X33859Y-33413D01*
X33843Y-33418D01*
X33842Y-33418D01*
X33841Y-33418D01*
X33827Y-33426D01*
X33812Y-33434D01*
X33812Y-33434D01*
X33811Y-33435D01*
X33798Y-33445D01*
X33785Y-33455D01*
X33784Y-33456D01*
X33784Y-33456D01*
X33784Y-33456D01*
X33784Y-33457D01*
X33735Y-33506D01*
X33719Y-33467D01*
X33693Y-33428D01*
X33659Y-33394D01*
X33620Y-33367D01*
X33576Y-33349D01*
X33529Y-33339D01*
X33481Y-33339D01*
X33434Y-33348D01*
X33390Y-33366D01*
X33350Y-33392D01*
X33316Y-33425D01*
X33289Y-33464D01*
X33271Y-33508D01*
X33261Y-33555D01*
X33260Y-33575D01*
X33221Y-33614D01*
X33210Y-33627D01*
X33200Y-33640D01*
X33199Y-33640D01*
X33199Y-33641D01*
X33191Y-33656D01*
X33183Y-33670D01*
X33183Y-33671D01*
X33182Y-33672D01*
X33178Y-33687D01*
X33173Y-33703D01*
X33173Y-33704D01*
X33172Y-33705D01*
X33171Y-33721D01*
X33169Y-33737D01*
X33169Y-33739D01*
X33169Y-33739D01*
X33169Y-33739D01*
X33169Y-33740D01*
X33169Y-33896D01*
X32656Y-33896D01*
X32656Y-34114D01*
X32500Y-34114D01*
X32483Y-34115D01*
X32466Y-34117D01*
X32466Y-34117D01*
X32465Y-34117D01*
X32449Y-34122D01*
X32433Y-34127D01*
X32433Y-34127D01*
X32432Y-34127D01*
X32417Y-34135D01*
X32402Y-34143D01*
X32402Y-34143D01*
X32401Y-34143D01*
X32389Y-34154D01*
X32376Y-34164D01*
X32375Y-34165D01*
X32375Y-34165D01*
X32364Y-34178D01*
X32353Y-34191D01*
X32353Y-34191D01*
X32353Y-34192D01*
X32345Y-34206D01*
X32337Y-34221D01*
X32336Y-34222D01*
X32336Y-34222D01*
X32331Y-34238D01*
X32326Y-34254D01*
X32326Y-34255D01*
X32326Y-34255D01*
X32324Y-34272D01*
X32322Y-34288D01*
X32322Y-34290D01*
X32322Y-34290D01*
X32322Y-34290D01*
X32322Y-34291D01*
X32322Y-34754D01*
X32312Y-34764D01*
X32285Y-34803D01*
X32267Y-34847D01*
X32257Y-34894D01*
X32256Y-34941D01*
X32265Y-34988D01*
X32282Y-35032D01*
X32308Y-35072D01*
X32341Y-35107D01*
X32380Y-35134D01*
X32424Y-35153D01*
X32471Y-35163D01*
X32518Y-35164D01*
X32565Y-35156D01*
X32610Y-35139D01*
X32161Y-35587D01*
X32131Y-35574D01*
X32046Y-35557D01*
X31959Y-35556D01*
X31874Y-35573D01*
X31793Y-35605D01*
X31721Y-35653D01*
X31659Y-35713D01*
X31609Y-35785D01*
X31575Y-35865D01*
X31557Y-35950D01*
X31556Y-36037D01*
X31572Y-36122D01*
X31604Y-36203D01*
X31651Y-36276D01*
X31711Y-36338D01*
X31782Y-36388D01*
X31862Y-36423D01*
X31947Y-36441D01*
X32034Y-36443D01*
X32119Y-36428D01*
X32200Y-36397D01*
X32274Y-36350D01*
X32336Y-36290D01*
X32386Y-36219D01*
X32422Y-36140D01*
X32441Y-36055D01*
X32442Y-35956D01*
X32426Y-35871D01*
X32412Y-35838D01*
X32855Y-35394D01*
X33169Y-35394D01*
X33169Y-35580D01*
X33161Y-35587D01*
X33131Y-35574D01*
X33046Y-35557D01*
X32959Y-35556D01*
X32874Y-35573D01*
X32793Y-35605D01*
X32721Y-35653D01*
X32659Y-35713D01*
X32609Y-35785D01*
X32575Y-35865D01*
X32557Y-35950D01*
X32556Y-36037D01*
X32572Y-36122D01*
X32604Y-36203D01*
X32651Y-36276D01*
X32711Y-36338D01*
X32782Y-36388D01*
X32862Y-36423D01*
X32947Y-36441D01*
X33034Y-36443D01*
X33119Y-36428D01*
X33200Y-36397D01*
X33274Y-36350D01*
X33336Y-36290D01*
X33386Y-36219D01*
X33422Y-36140D01*
X33441Y-36055D01*
X33442Y-35956D01*
X33426Y-35871D01*
X33412Y-35838D01*
X33471Y-35778D01*
X33482Y-35766D01*
X33492Y-35753D01*
X33493Y-35752D01*
X33493Y-35752D01*
X33501Y-35737D01*
X33501Y-35736D01*
X33505Y-35743D01*
X33512Y-35757D01*
X33513Y-35758D01*
X33513Y-35759D01*
X33524Y-35772D01*
X33534Y-35784D01*
X33535Y-35786D01*
X33535Y-35786D01*
X33535Y-35786D01*
X33536Y-35786D01*
X33587Y-35838D01*
X33575Y-35865D01*
X33557Y-35950D01*
X33556Y-36037D01*
X33572Y-36122D01*
X33604Y-36203D01*
X33651Y-36276D01*
X33711Y-36338D01*
X33782Y-36388D01*
X33862Y-36423D01*
X33947Y-36441D01*
X34034Y-36443D01*
X34119Y-36428D01*
X34200Y-36397D01*
X34274Y-36350D01*
X34336Y-36290D01*
X34386Y-36219D01*
X34422Y-36140D01*
X34441Y-36055D01*
X34442Y-35956D01*
X34426Y-35871D01*
X34392Y-35791D01*
X34344Y-35718D01*
X34283Y-35657D01*
X34211Y-35608D01*
X34131Y-35574D01*
X34046Y-35557D01*
X33959Y-35556D01*
X33874Y-35573D01*
X33838Y-35587D01*
X33838Y-35394D01*
X34144Y-35394D01*
X34587Y-35838D01*
X34575Y-35865D01*
X34557Y-35950D01*
X34556Y-36037D01*
X34572Y-36122D01*
X34604Y-36203D01*
X34651Y-36276D01*
X34711Y-36338D01*
X34782Y-36388D01*
X34862Y-36423D01*
X34947Y-36441D01*
X35034Y-36443D01*
X35119Y-36428D01*
X35200Y-36397D01*
X35274Y-36350D01*
X35336Y-36290D01*
X35386Y-36219D01*
X35422Y-36140D01*
X35441Y-36055D01*
X35442Y-35956D01*
X35442Y-36542D01*
X31507Y-36542D01*
X31491Y-36540D01*
X31484Y-36538D01*
X31476Y-36534D01*
X31470Y-36529D01*
X31465Y-36523D01*
X31461Y-36516D01*
X31459Y-36508D01*
X31457Y-36493D01*
X31457Y-33357D01*
X31459Y-33341D01*
X31461Y-33334D01*
X31465Y-33326D01*
X31470Y-33320D01*
X31476Y-33315D01*
X31483Y-33311D01*
X31491Y-33309D01*
X31506Y-33307D01*
X40462Y-33307D01*
X40478Y-33309D01*
X40485Y-33311D01*
X40493Y-33315D01*
X40499Y-33320D01*
X40504Y-33326D01*
X40508Y-33333D01*
X40510Y-33341D01*
X40512Y-33356D01*
X40512Y-36486D01*
X40512Y-36486D01*
G37*
G54D17*
X40512Y-36486D02*
X40511Y-36505D01*
X40509Y-36513D01*
X40506Y-36521D01*
X40501Y-36527D01*
X40495Y-36533D01*
X40488Y-36537D01*
X40480Y-36540D01*
X40469Y-36542D01*
X40462Y-36542D01*
X40462Y-36338D01*
X40462Y-36311D01*
X40462Y-36093D01*
X40462Y-35906D01*
X40462Y-35688D01*
X40462Y-35661D01*
X40457Y-35635D01*
X40446Y-35609D01*
X40431Y-35587D01*
X40412Y-35568D01*
X40390Y-35553D01*
X40364Y-35542D01*
X40338Y-35537D01*
X40093Y-35537D01*
X40059Y-35571D01*
X40059Y-35940D01*
X40428Y-35940D01*
X40462Y-35906D01*
X40462Y-36093D01*
X40428Y-36059D01*
X40059Y-36059D01*
X40059Y-36428D01*
X40093Y-36462D01*
X40338Y-36462D01*
X40364Y-36457D01*
X40390Y-36446D01*
X40412Y-36431D01*
X40431Y-36412D01*
X40446Y-36390D01*
X40457Y-36364D01*
X40462Y-36338D01*
X40462Y-36542D01*
X39940Y-36542D01*
X39940Y-36428D01*
X39940Y-36059D01*
X39940Y-35940D01*
X39940Y-35571D01*
X39906Y-35537D01*
X39661Y-35537D01*
X39635Y-35542D01*
X39609Y-35553D01*
X39587Y-35568D01*
X39568Y-35587D01*
X39553Y-35609D01*
X39542Y-35635D01*
X39537Y-35661D01*
X39537Y-35688D01*
X39537Y-35906D01*
X39571Y-35940D01*
X39940Y-35940D01*
X39940Y-36059D01*
X39571Y-36059D01*
X39537Y-36093D01*
X39537Y-36311D01*
X39537Y-36338D01*
X39542Y-36364D01*
X39553Y-36390D01*
X39568Y-36412D01*
X39587Y-36431D01*
X39609Y-36446D01*
X39635Y-36457D01*
X39661Y-36462D01*
X39906Y-36462D01*
X39940Y-36428D01*
X39940Y-36542D01*
X39442Y-36542D01*
X39442Y-35956D01*
X39426Y-35871D01*
X39392Y-35791D01*
X39344Y-35718D01*
X39283Y-35657D01*
X39211Y-35608D01*
X39131Y-35574D01*
X39046Y-35557D01*
X38959Y-35556D01*
X38874Y-35573D01*
X38838Y-35587D01*
X38367Y-35116D01*
X38367Y-34468D01*
X38807Y-34468D01*
X38822Y-34483D01*
X38822Y-34753D01*
X38812Y-34762D01*
X38785Y-34802D01*
X38767Y-34846D01*
X38757Y-34892D01*
X38756Y-34940D01*
X38765Y-34987D01*
X38782Y-35031D01*
X38808Y-35071D01*
X38841Y-35106D01*
X38880Y-35133D01*
X38924Y-35152D01*
X38971Y-35162D01*
X39018Y-35163D01*
X39065Y-35155D01*
X39110Y-35138D01*
X39150Y-35112D01*
X39184Y-35079D01*
X39212Y-35040D01*
X39231Y-34997D01*
X39242Y-34950D01*
X39243Y-34896D01*
X39233Y-34849D01*
X39215Y-34805D01*
X39189Y-34765D01*
X39177Y-34753D01*
X39177Y-34410D01*
X39175Y-34393D01*
X39174Y-34377D01*
X39173Y-34376D01*
X39173Y-34375D01*
X39169Y-34359D01*
X39164Y-34344D01*
X39164Y-34343D01*
X39163Y-34342D01*
X39156Y-34328D01*
X39148Y-34313D01*
X39148Y-34312D01*
X39147Y-34311D01*
X39137Y-34299D01*
X39127Y-34286D01*
X39125Y-34285D01*
X39125Y-34285D01*
X39125Y-34285D01*
X39125Y-34284D01*
X39006Y-34166D01*
X38993Y-34155D01*
X38981Y-34145D01*
X38980Y-34144D01*
X38979Y-34144D01*
X38965Y-34136D01*
X38951Y-34128D01*
X38950Y-34128D01*
X38949Y-34127D01*
X38933Y-34122D01*
X38918Y-34118D01*
X38917Y-34117D01*
X38916Y-34117D01*
X38900Y-34116D01*
X38883Y-34114D01*
X38881Y-34114D01*
X38881Y-34114D01*
X38881Y-34114D01*
X38881Y-34114D01*
X38367Y-34114D01*
X38367Y-33896D01*
X37889Y-33896D01*
X38026Y-33759D01*
X38337Y-33759D01*
X38345Y-33768D01*
X38384Y-33795D01*
X38428Y-33815D01*
X38475Y-33825D01*
X38522Y-33826D01*
X38569Y-33817D01*
X38614Y-33800D01*
X38654Y-33775D01*
X38688Y-33742D01*
X38716Y-33703D01*
X38735Y-33659D01*
X38746Y-33613D01*
X38747Y-33558D01*
X38737Y-33512D01*
X38719Y-33467D01*
X38693Y-33428D01*
X38659Y-33394D01*
X38620Y-33367D01*
X38576Y-33349D01*
X38529Y-33339D01*
X38481Y-33339D01*
X38434Y-33348D01*
X38390Y-33366D01*
X38350Y-33392D01*
X38337Y-33405D01*
X37952Y-33405D01*
X37936Y-33407D01*
X37920Y-33408D01*
X37919Y-33408D01*
X37918Y-33408D01*
X37902Y-33413D01*
X37886Y-33418D01*
X37886Y-33418D01*
X37885Y-33418D01*
X37870Y-33426D01*
X37856Y-33434D01*
X37855Y-33434D01*
X37854Y-33435D01*
X37842Y-33445D01*
X37829Y-33455D01*
X37827Y-33456D01*
X37827Y-33456D01*
X37827Y-33456D01*
X37827Y-33457D01*
X37756Y-33528D01*
X37753Y-33512D01*
X37735Y-33467D01*
X37708Y-33428D01*
X37675Y-33394D01*
X37635Y-33367D01*
X37591Y-33349D01*
X37545Y-33339D01*
X37497Y-33339D01*
X37450Y-33348D01*
X37406Y-33366D01*
X37366Y-33392D01*
X37332Y-33425D01*
X37305Y-33464D01*
X37286Y-33508D01*
X37276Y-33555D01*
X37276Y-33575D01*
X37236Y-33614D01*
X37226Y-33627D01*
X37216Y-33640D01*
X37215Y-33640D01*
X37214Y-33641D01*
X37207Y-33656D01*
X37199Y-33670D01*
X37199Y-33671D01*
X37198Y-33672D01*
X37193Y-33687D01*
X37188Y-33703D01*
X37188Y-33704D01*
X37188Y-33705D01*
X37186Y-33721D01*
X37185Y-33737D01*
X37185Y-33739D01*
X37185Y-33739D01*
X37185Y-33739D01*
X37185Y-33740D01*
X37185Y-33896D01*
X36671Y-33896D01*
X36671Y-34114D01*
X36476Y-34114D01*
X36459Y-34115D01*
X36443Y-34117D01*
X36442Y-34117D01*
X36441Y-34117D01*
X36425Y-34122D01*
X36410Y-34127D01*
X36409Y-34127D01*
X36408Y-34127D01*
X36394Y-34135D01*
X36379Y-34143D01*
X36378Y-34143D01*
X36378Y-34143D01*
X36365Y-34154D01*
X36352Y-34164D01*
X36352Y-34165D01*
X36351Y-34165D01*
X36340Y-34178D01*
X36330Y-34191D01*
X36329Y-34191D01*
X36329Y-34192D01*
X36321Y-34206D01*
X36313Y-34221D01*
X36313Y-34222D01*
X36313Y-34222D01*
X36308Y-34238D01*
X36303Y-34254D01*
X36303Y-34255D01*
X36302Y-34255D01*
X36301Y-34272D01*
X36299Y-34288D01*
X36299Y-34290D01*
X36299Y-34290D01*
X36299Y-34290D01*
X36299Y-34291D01*
X36299Y-34809D01*
X36282Y-34847D01*
X36272Y-34894D01*
X36272Y-34941D01*
X36280Y-34988D01*
X36298Y-35032D01*
X36324Y-35072D01*
X36357Y-35107D01*
X36396Y-35134D01*
X36440Y-35153D01*
X36486Y-35163D01*
X36534Y-35164D01*
X36581Y-35156D01*
X36600Y-35149D01*
X36161Y-35587D01*
X36131Y-35574D01*
X36046Y-35557D01*
X35959Y-35556D01*
X35874Y-35573D01*
X35793Y-35605D01*
X35721Y-35653D01*
X35659Y-35713D01*
X35609Y-35785D01*
X35575Y-35865D01*
X35557Y-35950D01*
X35556Y-36037D01*
X35572Y-36122D01*
X35604Y-36203D01*
X35651Y-36276D01*
X35711Y-36338D01*
X35782Y-36388D01*
X35862Y-36423D01*
X35947Y-36441D01*
X36034Y-36443D01*
X36119Y-36428D01*
X36200Y-36397D01*
X36274Y-36350D01*
X36336Y-36290D01*
X36386Y-36219D01*
X36422Y-36140D01*
X36441Y-36055D01*
X36442Y-35956D01*
X36426Y-35871D01*
X36412Y-35838D01*
X36855Y-35394D01*
X37185Y-35394D01*
X37185Y-35564D01*
X37161Y-35587D01*
X37131Y-35574D01*
X37046Y-35557D01*
X36959Y-35556D01*
X36874Y-35573D01*
X36793Y-35605D01*
X36721Y-35653D01*
X36659Y-35713D01*
X36609Y-35785D01*
X36575Y-35865D01*
X36557Y-35950D01*
X36556Y-36037D01*
X36572Y-36122D01*
X36604Y-36203D01*
X36651Y-36276D01*
X36711Y-36338D01*
X36782Y-36388D01*
X36862Y-36423D01*
X36947Y-36441D01*
X37034Y-36443D01*
X37119Y-36428D01*
X37200Y-36397D01*
X37274Y-36350D01*
X37336Y-36290D01*
X37386Y-36219D01*
X37422Y-36140D01*
X37441Y-36055D01*
X37442Y-35956D01*
X37426Y-35871D01*
X37412Y-35838D01*
X37487Y-35763D01*
X37497Y-35750D01*
X37508Y-35737D01*
X37508Y-35737D01*
X37509Y-35736D01*
X37510Y-35734D01*
X37512Y-35742D01*
X37513Y-35743D01*
X37513Y-35744D01*
X37521Y-35759D01*
X37528Y-35773D01*
X37529Y-35774D01*
X37529Y-35775D01*
X37539Y-35787D01*
X37550Y-35800D01*
X37551Y-35801D01*
X37551Y-35802D01*
X37551Y-35802D01*
X37551Y-35802D01*
X37587Y-35838D01*
X37575Y-35865D01*
X37557Y-35950D01*
X37556Y-36037D01*
X37572Y-36122D01*
X37604Y-36203D01*
X37651Y-36276D01*
X37711Y-36338D01*
X37782Y-36388D01*
X37862Y-36423D01*
X37947Y-36441D01*
X38034Y-36443D01*
X38119Y-36428D01*
X38200Y-36397D01*
X38274Y-36350D01*
X38336Y-36290D01*
X38386Y-36219D01*
X38422Y-36140D01*
X38441Y-36055D01*
X38442Y-35956D01*
X38426Y-35871D01*
X38392Y-35791D01*
X38344Y-35718D01*
X38283Y-35657D01*
X38211Y-35608D01*
X38131Y-35574D01*
X38046Y-35557D01*
X37959Y-35556D01*
X37874Y-35573D01*
X37854Y-35581D01*
X37854Y-35394D01*
X38144Y-35394D01*
X38587Y-35838D01*
X38575Y-35865D01*
X38557Y-35950D01*
X38556Y-36037D01*
X38572Y-36122D01*
X38604Y-36203D01*
X38651Y-36276D01*
X38711Y-36338D01*
X38782Y-36388D01*
X38862Y-36423D01*
X38947Y-36441D01*
X39034Y-36443D01*
X39119Y-36428D01*
X39200Y-36397D01*
X39274Y-36350D01*
X39336Y-36290D01*
X39386Y-36219D01*
X39422Y-36140D01*
X39441Y-36055D01*
X39442Y-35956D01*
X39442Y-36542D01*
X35442Y-36542D01*
X35442Y-35956D01*
X35426Y-35871D01*
X35392Y-35791D01*
X35344Y-35718D01*
X35283Y-35657D01*
X35211Y-35608D01*
X35131Y-35574D01*
X35046Y-35557D01*
X34959Y-35556D01*
X34874Y-35573D01*
X34838Y-35587D01*
X34351Y-35101D01*
X34351Y-34468D01*
X34822Y-34468D01*
X34822Y-34744D01*
X34812Y-34754D01*
X34785Y-34793D01*
X34767Y-34837D01*
X34757Y-34884D01*
X34756Y-34931D01*
X34765Y-34978D01*
X34782Y-35023D01*
X34808Y-35063D01*
X34841Y-35097D01*
X34880Y-35124D01*
X34924Y-35143D01*
X34971Y-35153D01*
X35018Y-35154D01*
X35065Y-35146D01*
X35110Y-35129D01*
X35150Y-35103D01*
X35184Y-35071D01*
X35212Y-35032D01*
X35231Y-34988D01*
X35242Y-34942D01*
X35243Y-34887D01*
X35233Y-34840D01*
X35215Y-34796D01*
X35189Y-34757D01*
X35177Y-34744D01*
X35177Y-34370D01*
X35175Y-34353D01*
X35174Y-34337D01*
X35173Y-34336D01*
X35173Y-34335D01*
X35169Y-34319D01*
X35164Y-34304D01*
X35164Y-34303D01*
X35163Y-34302D01*
X35156Y-34288D01*
X35148Y-34273D01*
X35148Y-34272D01*
X35147Y-34272D01*
X35137Y-34259D01*
X35127Y-34246D01*
X35125Y-34245D01*
X35125Y-34245D01*
X35125Y-34245D01*
X35125Y-34244D01*
X35046Y-34166D01*
X35033Y-34155D01*
X35021Y-34145D01*
X35020Y-34144D01*
X35019Y-34144D01*
X35005Y-34136D01*
X34991Y-34128D01*
X34990Y-34128D01*
X34989Y-34127D01*
X34973Y-34122D01*
X34958Y-34118D01*
X34957Y-34117D01*
X34956Y-34117D01*
X34939Y-34116D01*
X34923Y-34114D01*
X34921Y-34114D01*
X34921Y-34114D01*
X34921Y-34114D01*
X34921Y-34114D01*
X34351Y-34114D01*
X34351Y-33896D01*
X33846Y-33896D01*
X33982Y-33759D01*
X34321Y-33759D01*
X34329Y-33768D01*
X34369Y-33795D01*
X34412Y-33815D01*
X34459Y-33825D01*
X34506Y-33826D01*
X34553Y-33817D01*
X34598Y-33800D01*
X34638Y-33775D01*
X34673Y-33742D01*
X34700Y-33703D01*
X34719Y-33659D01*
X34730Y-33613D01*
X34731Y-33558D01*
X34722Y-33512D01*
X34703Y-33467D01*
X34677Y-33428D01*
X34643Y-33394D01*
X34604Y-33367D01*
X34560Y-33349D01*
X34513Y-33339D01*
X34466Y-33339D01*
X34419Y-33348D01*
X34375Y-33366D01*
X34335Y-33392D01*
X34321Y-33405D01*
X33909Y-33405D01*
X33893Y-33407D01*
X33876Y-33408D01*
X33875Y-33408D01*
X33875Y-33408D01*
X33859Y-33413D01*
X33843Y-33418D01*
X33842Y-33418D01*
X33841Y-33418D01*
X33827Y-33426D01*
X33812Y-33434D01*
X33812Y-33434D01*
X33811Y-33435D01*
X33798Y-33445D01*
X33785Y-33455D01*
X33784Y-33456D01*
X33784Y-33456D01*
X33784Y-33456D01*
X33784Y-33457D01*
X33735Y-33506D01*
X33719Y-33467D01*
X33693Y-33428D01*
X33659Y-33394D01*
X33620Y-33367D01*
X33576Y-33349D01*
X33529Y-33339D01*
X33481Y-33339D01*
X33434Y-33348D01*
X33390Y-33366D01*
X33350Y-33392D01*
X33316Y-33425D01*
X33289Y-33464D01*
X33271Y-33508D01*
X33261Y-33555D01*
X33260Y-33575D01*
X33221Y-33614D01*
X33210Y-33627D01*
X33200Y-33640D01*
X33199Y-33640D01*
X33199Y-33641D01*
X33191Y-33656D01*
X33183Y-33670D01*
X33183Y-33671D01*
X33182Y-33672D01*
X33178Y-33687D01*
X33173Y-33703D01*
X33173Y-33704D01*
X33172Y-33705D01*
X33171Y-33721D01*
X33169Y-33737D01*
X33169Y-33739D01*
X33169Y-33739D01*
X33169Y-33739D01*
X33169Y-33740D01*
X33169Y-33896D01*
X32656Y-33896D01*
X32656Y-34114D01*
X32500Y-34114D01*
X32483Y-34115D01*
X32466Y-34117D01*
X32466Y-34117D01*
X32465Y-34117D01*
X32449Y-34122D01*
X32433Y-34127D01*
X32433Y-34127D01*
X32432Y-34127D01*
X32417Y-34135D01*
X32402Y-34143D01*
X32402Y-34143D01*
X32401Y-34143D01*
X32389Y-34154D01*
X32376Y-34164D01*
X32375Y-34165D01*
X32375Y-34165D01*
X32364Y-34178D01*
X32353Y-34191D01*
X32353Y-34191D01*
X32353Y-34192D01*
X32345Y-34206D01*
X32337Y-34221D01*
X32336Y-34222D01*
X32336Y-34222D01*
X32331Y-34238D01*
X32326Y-34254D01*
X32326Y-34255D01*
X32326Y-34255D01*
X32324Y-34272D01*
X32322Y-34288D01*
X32322Y-34290D01*
X32322Y-34290D01*
X32322Y-34290D01*
X32322Y-34291D01*
X32322Y-34754D01*
X32312Y-34764D01*
X32285Y-34803D01*
X32267Y-34847D01*
X32257Y-34894D01*
X32256Y-34941D01*
X32265Y-34988D01*
X32282Y-35032D01*
X32308Y-35072D01*
X32341Y-35107D01*
X32380Y-35134D01*
X32424Y-35153D01*
X32471Y-35163D01*
X32518Y-35164D01*
X32565Y-35156D01*
X32610Y-35139D01*
X32161Y-35587D01*
X32131Y-35574D01*
X32046Y-35557D01*
X31959Y-35556D01*
X31874Y-35573D01*
X31793Y-35605D01*
X31721Y-35653D01*
X31659Y-35713D01*
X31609Y-35785D01*
X31575Y-35865D01*
X31557Y-35950D01*
X31556Y-36037D01*
X31572Y-36122D01*
X31604Y-36203D01*
X31651Y-36276D01*
X31711Y-36338D01*
X31782Y-36388D01*
X31862Y-36423D01*
X31947Y-36441D01*
X32034Y-36443D01*
X32119Y-36428D01*
X32200Y-36397D01*
X32274Y-36350D01*
X32336Y-36290D01*
X32386Y-36219D01*
X32422Y-36140D01*
X32441Y-36055D01*
X32442Y-35956D01*
X32426Y-35871D01*
X32412Y-35838D01*
X32855Y-35394D01*
X33169Y-35394D01*
X33169Y-35580D01*
X33161Y-35587D01*
X33131Y-35574D01*
X33046Y-35557D01*
X32959Y-35556D01*
X32874Y-35573D01*
X32793Y-35605D01*
X32721Y-35653D01*
X32659Y-35713D01*
X32609Y-35785D01*
X32575Y-35865D01*
X32557Y-35950D01*
X32556Y-36037D01*
X32572Y-36122D01*
X32604Y-36203D01*
X32651Y-36276D01*
X32711Y-36338D01*
X32782Y-36388D01*
X32862Y-36423D01*
X32947Y-36441D01*
X33034Y-36443D01*
X33119Y-36428D01*
X33200Y-36397D01*
X33274Y-36350D01*
X33336Y-36290D01*
X33386Y-36219D01*
X33422Y-36140D01*
X33441Y-36055D01*
X33442Y-35956D01*
X33426Y-35871D01*
X33412Y-35838D01*
X33471Y-35778D01*
X33482Y-35766D01*
X33492Y-35753D01*
X33493Y-35752D01*
X33493Y-35752D01*
X33501Y-35737D01*
X33501Y-35736D01*
X33505Y-35743D01*
X33512Y-35757D01*
X33513Y-35758D01*
X33513Y-35759D01*
X33524Y-35772D01*
X33534Y-35784D01*
X33535Y-35786D01*
X33535Y-35786D01*
X33535Y-35786D01*
X33536Y-35786D01*
X33587Y-35838D01*
X33575Y-35865D01*
X33557Y-35950D01*
X33556Y-36037D01*
X33572Y-36122D01*
X33604Y-36203D01*
X33651Y-36276D01*
X33711Y-36338D01*
X33782Y-36388D01*
X33862Y-36423D01*
X33947Y-36441D01*
X34034Y-36443D01*
X34119Y-36428D01*
X34200Y-36397D01*
X34274Y-36350D01*
X34336Y-36290D01*
X34386Y-36219D01*
X34422Y-36140D01*
X34441Y-36055D01*
X34442Y-35956D01*
X34426Y-35871D01*
X34392Y-35791D01*
X34344Y-35718D01*
X34283Y-35657D01*
X34211Y-35608D01*
X34131Y-35574D01*
X34046Y-35557D01*
X33959Y-35556D01*
X33874Y-35573D01*
X33838Y-35587D01*
X33838Y-35394D01*
X34144Y-35394D01*
X34587Y-35838D01*
X34575Y-35865D01*
X34557Y-35950D01*
X34556Y-36037D01*
X34572Y-36122D01*
X34604Y-36203D01*
X34651Y-36276D01*
X34711Y-36338D01*
X34782Y-36388D01*
X34862Y-36423D01*
X34947Y-36441D01*
X35034Y-36443D01*
X35119Y-36428D01*
X35200Y-36397D01*
X35274Y-36350D01*
X35336Y-36290D01*
X35386Y-36219D01*
X35422Y-36140D01*
X35441Y-36055D01*
X35442Y-35956D01*
X35442Y-36542D01*
X31507Y-36542D01*
X31491Y-36540D01*
X31484Y-36538D01*
X31476Y-36534D01*
X31470Y-36529D01*
X31465Y-36523D01*
X31461Y-36516D01*
X31459Y-36508D01*
X31457Y-36493D01*
X31457Y-33357D01*
X31459Y-33341D01*
X31461Y-33334D01*
X31465Y-33326D01*
X31470Y-33320D01*
X31476Y-33315D01*
X31483Y-33311D01*
X31491Y-33309D01*
X31506Y-33307D01*
X40462Y-33307D01*
X40478Y-33309D01*
X40485Y-33311D01*
X40493Y-33315D01*
X40499Y-33320D01*
X40504Y-33326D01*
X40508Y-33333D01*
X40510Y-33341D01*
X40512Y-33356D01*
X40512Y-36486D01*
M02*
