G04 (created by PCBNEW (2013-07-03 BZR 4236)-testing) date Thu 04 Jul 2013 02:37:25 PM CEST*
%MOIN*%
G04 Gerber Fmt 3.4, Leading zero omitted, Abs format*
%FSLAX34Y34*%
G01*
G70*
G90*
G04 APERTURE LIST*
%ADD10C,0.005906*%
%ADD11C,0.007874*%
%ADD12C,0.000100*%
%ADD13R,0.025591X0.039370*%
%ADD14R,0.019685X0.039370*%
%ADD15R,0.064961X0.064961*%
%ADD16C,0.064961*%
%ADD17C,0.010000*%
G04 APERTURE END LIST*
G54D10*
G54D11*
X32894Y-33461D02*
X32876Y-33443D01*
X32838Y-33424D01*
X32744Y-33424D01*
X32707Y-33443D01*
X32688Y-33461D01*
X32669Y-33499D01*
X32669Y-33536D01*
X32688Y-33593D01*
X32913Y-33818D01*
X32669Y-33818D01*
X32426Y-33424D02*
X32388Y-33424D01*
X32351Y-33443D01*
X32332Y-33461D01*
X32313Y-33499D01*
X32294Y-33574D01*
X32294Y-33668D01*
X32313Y-33743D01*
X32332Y-33780D01*
X32351Y-33799D01*
X32388Y-33818D01*
X32426Y-33818D01*
X32463Y-33799D01*
X32482Y-33780D01*
X32501Y-33743D01*
X32519Y-33668D01*
X32519Y-33574D01*
X32501Y-33499D01*
X32482Y-33461D01*
X32463Y-33443D01*
X32426Y-33424D01*
X31920Y-33818D02*
X32145Y-33818D01*
X32032Y-33818D02*
X32032Y-33424D01*
X32070Y-33480D01*
X32107Y-33518D01*
X32145Y-33536D01*
X31788Y-33424D02*
X31545Y-33424D01*
X31676Y-33574D01*
X31620Y-33574D01*
X31582Y-33593D01*
X31563Y-33611D01*
X31545Y-33649D01*
X31545Y-33743D01*
X31563Y-33780D01*
X31582Y-33799D01*
X31620Y-33818D01*
X31732Y-33818D01*
X31770Y-33799D01*
X31788Y-33780D01*
X35810Y-33792D02*
X35988Y-33792D01*
X35988Y-33477D01*
X35685Y-33627D02*
X35561Y-33627D01*
X35507Y-33792D02*
X35685Y-33792D01*
X35685Y-33477D01*
X35507Y-33477D01*
X35347Y-33792D02*
X35347Y-33477D01*
X35258Y-33477D01*
X35204Y-33492D01*
X35169Y-33522D01*
X35151Y-33552D01*
X35133Y-33612D01*
X35133Y-33657D01*
X35151Y-33717D01*
X35169Y-33747D01*
X35204Y-33777D01*
X35258Y-33792D01*
X35347Y-33792D01*
X36041Y-34102D02*
X36041Y-34417D01*
X36041Y-34117D02*
X36006Y-34102D01*
X35935Y-34102D01*
X35899Y-34117D01*
X35881Y-34132D01*
X35863Y-34162D01*
X35863Y-34252D01*
X35881Y-34282D01*
X35899Y-34297D01*
X35935Y-34312D01*
X36006Y-34312D01*
X36041Y-34297D01*
X35650Y-34312D02*
X35685Y-34297D01*
X35703Y-34282D01*
X35721Y-34252D01*
X35721Y-34162D01*
X35703Y-34132D01*
X35685Y-34117D01*
X35650Y-34102D01*
X35596Y-34102D01*
X35561Y-34117D01*
X35543Y-34132D01*
X35525Y-34162D01*
X35525Y-34252D01*
X35543Y-34282D01*
X35561Y-34297D01*
X35596Y-34312D01*
X35650Y-34312D01*
X35365Y-34312D02*
X35365Y-34102D01*
X35365Y-34162D02*
X35347Y-34132D01*
X35329Y-34117D01*
X35293Y-34102D01*
X35258Y-34102D01*
X35187Y-34102D02*
X35044Y-34102D01*
X35133Y-33997D02*
X35133Y-34267D01*
X35115Y-34297D01*
X35080Y-34312D01*
X35044Y-34312D01*
X36353Y-34816D02*
X36318Y-34831D01*
X36246Y-34831D01*
X36211Y-34816D01*
X36193Y-34786D01*
X36193Y-34771D01*
X36211Y-34741D01*
X36246Y-34726D01*
X36300Y-34726D01*
X36335Y-34711D01*
X36353Y-34681D01*
X36353Y-34666D01*
X36335Y-34636D01*
X36300Y-34621D01*
X36246Y-34621D01*
X36211Y-34636D01*
X36086Y-34621D02*
X35944Y-34621D01*
X36033Y-34516D02*
X36033Y-34786D01*
X36015Y-34816D01*
X35979Y-34831D01*
X35944Y-34831D01*
X35659Y-34831D02*
X35659Y-34666D01*
X35676Y-34636D01*
X35712Y-34621D01*
X35783Y-34621D01*
X35819Y-34636D01*
X35659Y-34816D02*
X35694Y-34831D01*
X35783Y-34831D01*
X35819Y-34816D01*
X35837Y-34786D01*
X35837Y-34756D01*
X35819Y-34726D01*
X35783Y-34711D01*
X35694Y-34711D01*
X35659Y-34696D01*
X35534Y-34621D02*
X35391Y-34621D01*
X35480Y-34516D02*
X35480Y-34786D01*
X35463Y-34816D01*
X35427Y-34831D01*
X35391Y-34831D01*
X35106Y-34621D02*
X35106Y-34831D01*
X35267Y-34621D02*
X35267Y-34786D01*
X35249Y-34816D01*
X35213Y-34831D01*
X35160Y-34831D01*
X35124Y-34816D01*
X35106Y-34801D01*
X34946Y-34816D02*
X34911Y-34831D01*
X34839Y-34831D01*
X34804Y-34816D01*
X34786Y-34786D01*
X34786Y-34771D01*
X34804Y-34741D01*
X34839Y-34726D01*
X34893Y-34726D01*
X34928Y-34711D01*
X34946Y-34681D01*
X34946Y-34666D01*
X34928Y-34636D01*
X34893Y-34621D01*
X34839Y-34621D01*
X34804Y-34636D01*
X36362Y-35321D02*
X36380Y-35336D01*
X36433Y-35351D01*
X36469Y-35351D01*
X36522Y-35336D01*
X36558Y-35306D01*
X36576Y-35276D01*
X36594Y-35216D01*
X36594Y-35171D01*
X36576Y-35111D01*
X36558Y-35081D01*
X36522Y-35051D01*
X36469Y-35036D01*
X36433Y-35036D01*
X36380Y-35051D01*
X36362Y-35066D01*
X36220Y-35261D02*
X36041Y-35261D01*
X36255Y-35351D02*
X36131Y-35036D01*
X36006Y-35351D01*
X35650Y-35036D02*
X35525Y-35351D01*
X35400Y-35036D01*
X35204Y-35036D02*
X35169Y-35036D01*
X35133Y-35051D01*
X35115Y-35066D01*
X35098Y-35096D01*
X35080Y-35156D01*
X35080Y-35231D01*
X35098Y-35291D01*
X35115Y-35321D01*
X35133Y-35336D01*
X35169Y-35351D01*
X35204Y-35351D01*
X35240Y-35336D01*
X35258Y-35321D01*
X35276Y-35291D01*
X35293Y-35231D01*
X35293Y-35156D01*
X35276Y-35096D01*
X35258Y-35066D01*
X35240Y-35051D01*
X35204Y-35036D01*
X34919Y-35321D02*
X34902Y-35336D01*
X34919Y-35351D01*
X34937Y-35336D01*
X34919Y-35321D01*
X34919Y-35351D01*
X34545Y-35351D02*
X34759Y-35351D01*
X34652Y-35351D02*
X34652Y-35036D01*
X34688Y-35081D01*
X34724Y-35111D01*
X34759Y-35126D01*
G54D10*
X33110Y-34960D02*
X32854Y-34960D01*
X33444Y-34960D02*
X33248Y-34960D01*
X33759Y-34960D02*
X33562Y-34960D01*
X34153Y-34960D02*
X33897Y-34960D01*
X33110Y-34330D02*
X32854Y-34330D01*
X33444Y-34330D02*
X33248Y-34330D01*
X33759Y-34330D02*
X33562Y-34330D01*
X34153Y-34330D02*
X33897Y-34330D01*
X33248Y-34960D02*
X33248Y-34881D01*
X33248Y-34881D02*
X33110Y-34881D01*
X33110Y-34881D02*
X33110Y-34960D01*
X33562Y-34960D02*
X33562Y-34881D01*
X33562Y-34881D02*
X33444Y-34881D01*
X33444Y-34881D02*
X33444Y-34960D01*
X33897Y-34960D02*
X33897Y-34881D01*
X33897Y-34881D02*
X33759Y-34881D01*
X33759Y-34881D02*
X33759Y-34960D01*
X33248Y-34330D02*
X33248Y-34409D01*
X33248Y-34409D02*
X33110Y-34409D01*
X33110Y-34409D02*
X33110Y-34330D01*
X33562Y-34330D02*
X33562Y-34409D01*
X33562Y-34409D02*
X33444Y-34409D01*
X33444Y-34409D02*
X33444Y-34330D01*
X33897Y-34330D02*
X33897Y-34409D01*
X33897Y-34409D02*
X33759Y-34409D01*
X33759Y-34409D02*
X33759Y-34330D01*
X32854Y-34330D02*
X32854Y-34960D01*
X34153Y-34960D02*
X34153Y-34330D01*
X37125Y-34960D02*
X36870Y-34960D01*
X37460Y-34960D02*
X37263Y-34960D01*
X37775Y-34960D02*
X37578Y-34960D01*
X38169Y-34960D02*
X37913Y-34960D01*
X37125Y-34330D02*
X36870Y-34330D01*
X37460Y-34330D02*
X37263Y-34330D01*
X37775Y-34330D02*
X37578Y-34330D01*
X38169Y-34330D02*
X37913Y-34330D01*
X37263Y-34960D02*
X37263Y-34881D01*
X37263Y-34881D02*
X37125Y-34881D01*
X37125Y-34881D02*
X37125Y-34960D01*
X37578Y-34960D02*
X37578Y-34881D01*
X37578Y-34881D02*
X37460Y-34881D01*
X37460Y-34881D02*
X37460Y-34960D01*
X37913Y-34960D02*
X37913Y-34881D01*
X37913Y-34881D02*
X37775Y-34881D01*
X37775Y-34881D02*
X37775Y-34960D01*
X37263Y-34330D02*
X37263Y-34409D01*
X37263Y-34409D02*
X37125Y-34409D01*
X37125Y-34409D02*
X37125Y-34330D01*
X37578Y-34330D02*
X37578Y-34409D01*
X37578Y-34409D02*
X37460Y-34409D01*
X37460Y-34409D02*
X37460Y-34330D01*
X37913Y-34330D02*
X37913Y-34409D01*
X37913Y-34409D02*
X37775Y-34409D01*
X37775Y-34409D02*
X37775Y-34330D01*
X36870Y-34330D02*
X36870Y-34960D01*
X38169Y-34960D02*
X38169Y-34330D01*
G54D12*
G36*
X39562Y-34370D02*
X39569Y-34367D01*
X39582Y-34358D01*
X39602Y-34345D01*
X39625Y-34330D01*
X39649Y-34314D01*
X39668Y-34301D01*
X39682Y-34292D01*
X39687Y-34289D01*
X39690Y-34290D01*
X39701Y-34296D01*
X39717Y-34304D01*
X39727Y-34309D01*
X39742Y-34315D01*
X39749Y-34317D01*
X39750Y-34315D01*
X39756Y-34303D01*
X39764Y-34284D01*
X39775Y-34258D01*
X39788Y-34228D01*
X39802Y-34196D01*
X39815Y-34163D01*
X39828Y-34132D01*
X39840Y-34103D01*
X39849Y-34080D01*
X39855Y-34064D01*
X39858Y-34057D01*
X39857Y-34056D01*
X39850Y-34049D01*
X39837Y-34039D01*
X39809Y-34016D01*
X39781Y-33982D01*
X39764Y-33943D01*
X39759Y-33899D01*
X39763Y-33859D01*
X39779Y-33821D01*
X39806Y-33786D01*
X39839Y-33760D01*
X39877Y-33744D01*
X39920Y-33739D01*
X39961Y-33743D01*
X40000Y-33759D01*
X40035Y-33785D01*
X40050Y-33802D01*
X40070Y-33838D01*
X40082Y-33875D01*
X40083Y-33884D01*
X40081Y-33926D01*
X40069Y-33966D01*
X40047Y-34001D01*
X40017Y-34030D01*
X40013Y-34033D01*
X39999Y-34044D01*
X39989Y-34051D01*
X39982Y-34057D01*
X40035Y-34184D01*
X40043Y-34204D01*
X40058Y-34239D01*
X40070Y-34269D01*
X40081Y-34293D01*
X40088Y-34309D01*
X40091Y-34315D01*
X40091Y-34315D01*
X40096Y-34316D01*
X40105Y-34313D01*
X40123Y-34304D01*
X40135Y-34298D01*
X40148Y-34292D01*
X40154Y-34289D01*
X40160Y-34292D01*
X40173Y-34300D01*
X40191Y-34313D01*
X40214Y-34328D01*
X40236Y-34343D01*
X40256Y-34356D01*
X40270Y-34366D01*
X40277Y-34369D01*
X40278Y-34369D01*
X40285Y-34366D01*
X40296Y-34356D01*
X40313Y-34340D01*
X40338Y-34316D01*
X40342Y-34312D01*
X40362Y-34292D01*
X40378Y-34274D01*
X40389Y-34262D01*
X40393Y-34257D01*
X40393Y-34257D01*
X40389Y-34250D01*
X40380Y-34235D01*
X40367Y-34215D01*
X40351Y-34191D01*
X40309Y-34130D01*
X40332Y-34073D01*
X40339Y-34055D01*
X40348Y-34033D01*
X40355Y-34018D01*
X40358Y-34011D01*
X40365Y-34009D01*
X40380Y-34005D01*
X40403Y-34001D01*
X40431Y-33996D01*
X40457Y-33991D01*
X40480Y-33986D01*
X40497Y-33983D01*
X40505Y-33982D01*
X40507Y-33980D01*
X40508Y-33977D01*
X40509Y-33969D01*
X40510Y-33954D01*
X40510Y-33932D01*
X40510Y-33899D01*
X40510Y-33896D01*
X40510Y-33865D01*
X40509Y-33840D01*
X40508Y-33825D01*
X40507Y-33818D01*
X40507Y-33818D01*
X40500Y-33816D01*
X40483Y-33813D01*
X40460Y-33808D01*
X40432Y-33803D01*
X40430Y-33803D01*
X40402Y-33797D01*
X40379Y-33792D01*
X40362Y-33789D01*
X40355Y-33786D01*
X40354Y-33784D01*
X40348Y-33773D01*
X40340Y-33756D01*
X40331Y-33735D01*
X40322Y-33713D01*
X40314Y-33693D01*
X40309Y-33679D01*
X40307Y-33672D01*
X40307Y-33672D01*
X40311Y-33665D01*
X40321Y-33651D01*
X40335Y-33631D01*
X40351Y-33607D01*
X40352Y-33605D01*
X40368Y-33581D01*
X40381Y-33561D01*
X40390Y-33547D01*
X40393Y-33541D01*
X40393Y-33540D01*
X40388Y-33533D01*
X40376Y-33520D01*
X40358Y-33502D01*
X40338Y-33481D01*
X40331Y-33475D01*
X40308Y-33452D01*
X40292Y-33438D01*
X40282Y-33430D01*
X40278Y-33428D01*
X40277Y-33428D01*
X40270Y-33432D01*
X40255Y-33442D01*
X40235Y-33456D01*
X40211Y-33472D01*
X40210Y-33473D01*
X40186Y-33489D01*
X40166Y-33503D01*
X40152Y-33512D01*
X40146Y-33515D01*
X40145Y-33515D01*
X40136Y-33513D01*
X40119Y-33507D01*
X40098Y-33499D01*
X40076Y-33490D01*
X40056Y-33482D01*
X40042Y-33475D01*
X40035Y-33471D01*
X40034Y-33471D01*
X40032Y-33462D01*
X40028Y-33444D01*
X40023Y-33420D01*
X40017Y-33391D01*
X40016Y-33387D01*
X40011Y-33358D01*
X40007Y-33335D01*
X40003Y-33319D01*
X40002Y-33312D01*
X39998Y-33312D01*
X39984Y-33311D01*
X39963Y-33310D01*
X39937Y-33310D01*
X39911Y-33310D01*
X39885Y-33310D01*
X39863Y-33311D01*
X39847Y-33312D01*
X39840Y-33314D01*
X39840Y-33314D01*
X39838Y-33323D01*
X39834Y-33340D01*
X39829Y-33365D01*
X39823Y-33394D01*
X39822Y-33399D01*
X39817Y-33427D01*
X39812Y-33450D01*
X39809Y-33466D01*
X39807Y-33472D01*
X39805Y-33473D01*
X39793Y-33479D01*
X39774Y-33486D01*
X39751Y-33496D01*
X39697Y-33518D01*
X39631Y-33472D01*
X39625Y-33468D01*
X39601Y-33452D01*
X39581Y-33439D01*
X39567Y-33430D01*
X39562Y-33427D01*
X39561Y-33427D01*
X39555Y-33433D01*
X39542Y-33445D01*
X39524Y-33463D01*
X39503Y-33483D01*
X39487Y-33499D01*
X39469Y-33517D01*
X39458Y-33530D01*
X39451Y-33538D01*
X39449Y-33543D01*
X39450Y-33546D01*
X39454Y-33553D01*
X39464Y-33567D01*
X39477Y-33588D01*
X39493Y-33611D01*
X39507Y-33631D01*
X39521Y-33653D01*
X39530Y-33669D01*
X39534Y-33676D01*
X39533Y-33680D01*
X39528Y-33693D01*
X39520Y-33712D01*
X39510Y-33736D01*
X39487Y-33788D01*
X39453Y-33795D01*
X39432Y-33799D01*
X39403Y-33804D01*
X39375Y-33810D01*
X39331Y-33818D01*
X39330Y-33977D01*
X39337Y-33980D01*
X39343Y-33982D01*
X39359Y-33986D01*
X39382Y-33990D01*
X39409Y-33995D01*
X39433Y-34000D01*
X39456Y-34004D01*
X39473Y-34007D01*
X39480Y-34009D01*
X39482Y-34011D01*
X39488Y-34023D01*
X39496Y-34041D01*
X39505Y-34062D01*
X39515Y-34085D01*
X39523Y-34105D01*
X39529Y-34121D01*
X39531Y-34129D01*
X39528Y-34135D01*
X39519Y-34149D01*
X39506Y-34169D01*
X39490Y-34192D01*
X39474Y-34215D01*
X39461Y-34235D01*
X39451Y-34249D01*
X39448Y-34256D01*
X39450Y-34260D01*
X39459Y-34271D01*
X39476Y-34289D01*
X39502Y-34315D01*
X39507Y-34319D01*
X39527Y-34339D01*
X39545Y-34355D01*
X39557Y-34366D01*
X39562Y-34370D01*
X39562Y-34370D01*
G37*
%LPC*%
G54D13*
X34025Y-34291D03*
G54D14*
X33661Y-34291D03*
X33346Y-34291D03*
G54D13*
X32982Y-34291D03*
X34025Y-35000D03*
G54D14*
X33661Y-35000D03*
X33346Y-35000D03*
G54D13*
X32982Y-35000D03*
X38041Y-34291D03*
G54D14*
X37677Y-34291D03*
X37362Y-34291D03*
G54D13*
X36998Y-34291D03*
X38041Y-35000D03*
G54D14*
X37677Y-35000D03*
X37362Y-35000D03*
G54D13*
X36998Y-35000D03*
G54D15*
X40000Y-36000D03*
G54D16*
X39000Y-36000D03*
X38000Y-36000D03*
X37000Y-36000D03*
X36000Y-36000D03*
X35000Y-36000D03*
X34000Y-36000D03*
X33000Y-36000D03*
X32000Y-36000D03*
G54D10*
G36*
X40390Y-35320D02*
X39610Y-35320D01*
X39610Y-34610D01*
X40390Y-34610D01*
X40390Y-35320D01*
X40390Y-35320D01*
G37*
G54D17*
X40390Y-35320D02*
X39610Y-35320D01*
X39610Y-34610D01*
X40390Y-34610D01*
X40390Y-35320D01*
M02*
