G04 #@! TF.FileFunction,Copper,L1,Top,Signal*
%FSLAX46Y46*%
G04 Gerber Fmt 4.6, Leading zero omitted, Abs format (unit mm)*
G04 Created by KiCad (PCBNEW (2015-04-05 BZR 5576)-product) date Tue 07 Apr 2015 01:19:09 PM CEST*
%MOMM*%
G01*
G04 APERTURE LIST*
%ADD10C,0.150000*%
%ADD11R,1.650000X1.650000*%
%ADD12C,1.650000*%
%ADD13R,0.800000X0.600000*%
%ADD14C,0.635000*%
%ADD15C,0.300000*%
%ADD16C,0.100000*%
G04 APERTURE END LIST*
D10*
D11*
X101600000Y-91440000D03*
D12*
X99060000Y-91440000D03*
X96520000Y-91440000D03*
X93980000Y-91440000D03*
X91440000Y-91440000D03*
X88900000Y-91440000D03*
X86360000Y-91440000D03*
X83820000Y-91440000D03*
X81280000Y-91440000D03*
D13*
X86360000Y-82685000D03*
X86360000Y-83685000D03*
X81280000Y-87130000D03*
X81280000Y-88130000D03*
X96520000Y-87130000D03*
X96520000Y-88130000D03*
X83820000Y-87130000D03*
X83820000Y-88130000D03*
X86360000Y-87130000D03*
X86360000Y-88130000D03*
X88900000Y-87130000D03*
X88900000Y-88130000D03*
X91440000Y-87130000D03*
X91440000Y-88130000D03*
X93980000Y-87130000D03*
X93980000Y-88130000D03*
X99060000Y-87130000D03*
X99060000Y-88130000D03*
X81280000Y-82685000D03*
X81280000Y-83685000D03*
X83820000Y-82685000D03*
X83820000Y-83685000D03*
X88900000Y-82685000D03*
X88900000Y-83685000D03*
X91440000Y-82685000D03*
X91440000Y-83685000D03*
X93980000Y-82685000D03*
X93980000Y-83685000D03*
X96520000Y-82685000D03*
X96520000Y-83685000D03*
X99060000Y-82685000D03*
X99060000Y-83685000D03*
D14*
X99550000Y-85300000D03*
X81300000Y-88800000D03*
X81299994Y-82000000D03*
X83800000Y-82050004D03*
X84682480Y-85930304D03*
X86350000Y-82049996D03*
X85500000Y-84500000D03*
X88900002Y-88750000D03*
X88900002Y-82050000D03*
X91450000Y-88750000D03*
X91450000Y-82050004D03*
X93950000Y-82050000D03*
X94900000Y-84584376D03*
X96550000Y-82050000D03*
X95700000Y-86049998D03*
X99050000Y-88750000D03*
X99100000Y-82050000D03*
D15*
X94776583Y-87130000D02*
X93980000Y-87130000D01*
X96520000Y-87130000D02*
X94776583Y-87130000D01*
X99060000Y-85295451D02*
X99060000Y-87130000D01*
X94776583Y-87130000D02*
X94776583Y-85837513D01*
X99060000Y-83685000D02*
X99060000Y-85295451D01*
X94776583Y-85837513D02*
X95331599Y-85282497D01*
X95331599Y-85282497D02*
X99047046Y-85282497D01*
X99047046Y-85282497D02*
X99060000Y-85295451D01*
X85535718Y-87130000D02*
X86360000Y-87130000D01*
X83820000Y-87130000D02*
X85535718Y-87130000D01*
X81280000Y-83685000D02*
X81280000Y-85302873D01*
X81280000Y-85302873D02*
X81280000Y-87130000D01*
X85535718Y-87130000D02*
X85535718Y-85647640D01*
X85535718Y-85647640D02*
X85050881Y-85162803D01*
X85050881Y-85162803D02*
X81420070Y-85162803D01*
X81420070Y-85162803D02*
X81280000Y-85302873D01*
X96520000Y-83685000D02*
X99060000Y-83685000D01*
X93980000Y-83685000D02*
X96520000Y-83685000D01*
X91440000Y-83685000D02*
X93980000Y-83685000D01*
X88900000Y-83685000D02*
X91440000Y-83685000D01*
X86360000Y-83685000D02*
X88900000Y-83685000D01*
X83820000Y-83685000D02*
X86360000Y-83685000D01*
X81280000Y-83685000D02*
X83820000Y-83685000D01*
X91440000Y-83685000D02*
X91440000Y-87130000D01*
X88900000Y-83685000D02*
X88900000Y-87130000D01*
X99064549Y-85300000D02*
X99060000Y-85295451D01*
X99550000Y-85300000D02*
X99064549Y-85300000D01*
X81280000Y-88780000D02*
X81300000Y-88800000D01*
X81280000Y-88130000D02*
X81280000Y-88780000D01*
X81280000Y-82685000D02*
X81280000Y-82019994D01*
X81280000Y-82019994D02*
X81299994Y-82000000D01*
X83820000Y-82685000D02*
X83820000Y-82070004D01*
X83820000Y-82070004D02*
X83800000Y-82050004D01*
X83820000Y-88130000D02*
X83120000Y-88130000D01*
X83120000Y-88130000D02*
X82650000Y-87660000D01*
X84233468Y-85930304D02*
X84682480Y-85930304D01*
X82650000Y-87660000D02*
X82650000Y-86300000D01*
X82650000Y-86300000D02*
X83019696Y-85930304D01*
X83019696Y-85930304D02*
X84233468Y-85930304D01*
X86360000Y-82059996D02*
X86350000Y-82049996D01*
X86360000Y-82685000D02*
X86360000Y-82059996D01*
X86360000Y-88130000D02*
X87060000Y-88130000D01*
X87060000Y-88130000D02*
X87450000Y-87740000D01*
X87450000Y-87740000D02*
X87450000Y-85500000D01*
X87450000Y-85500000D02*
X86767499Y-84817499D01*
X86767499Y-84817499D02*
X85817499Y-84817499D01*
X85817499Y-84817499D02*
X85500000Y-84500000D01*
X88900000Y-88749998D02*
X88900002Y-88750000D01*
X88900000Y-88130000D02*
X88900000Y-88749998D01*
X88900000Y-82685000D02*
X88900000Y-82050002D01*
X88900000Y-82050002D02*
X88900002Y-82050000D01*
X91440000Y-88740000D02*
X91450000Y-88750000D01*
X91440000Y-88130000D02*
X91440000Y-88740000D01*
X91440000Y-82060004D02*
X91450000Y-82050004D01*
X91440000Y-82685000D02*
X91440000Y-82060004D01*
X93980000Y-82080000D02*
X93950000Y-82050000D01*
X93980000Y-82685000D02*
X93980000Y-82080000D01*
X93980000Y-88130000D02*
X93280000Y-88130000D01*
X93280000Y-88130000D02*
X92900000Y-87750000D01*
X92900000Y-87750000D02*
X92900000Y-85400000D01*
X92900000Y-85400000D02*
X93450000Y-84850000D01*
X93450000Y-84850000D02*
X94634376Y-84850000D01*
X94634376Y-84850000D02*
X94900000Y-84584376D01*
X96520000Y-82080000D02*
X96550000Y-82050000D01*
X96520000Y-82685000D02*
X96520000Y-82080000D01*
X97650000Y-87700000D02*
X97650000Y-86200000D01*
X96149012Y-86049998D02*
X95700000Y-86049998D01*
X97220000Y-88130000D02*
X97650000Y-87700000D01*
X97650000Y-86200000D02*
X97499998Y-86049998D01*
X97499998Y-86049998D02*
X96149012Y-86049998D01*
X96520000Y-88130000D02*
X97220000Y-88130000D01*
X99060000Y-88740000D02*
X99050000Y-88750000D01*
X99060000Y-88130000D02*
X99060000Y-88740000D01*
X99095000Y-82050000D02*
X99100000Y-82050000D01*
X99060000Y-82685000D02*
X99060000Y-82085000D01*
X99060000Y-82085000D02*
X99095000Y-82050000D01*
D16*
G36*
X103026400Y-92697771D02*
X103020793Y-92754947D01*
X103007741Y-92798179D01*
X102986539Y-92838055D01*
X102957998Y-92873050D01*
X102923195Y-92901841D01*
X102883469Y-92923320D01*
X102840331Y-92936674D01*
X102783948Y-92942600D01*
X102725000Y-92942600D01*
X102725000Y-92294548D01*
X102725000Y-92235453D01*
X102725000Y-91615000D01*
X102725000Y-91265000D01*
X102725000Y-90644547D01*
X102725000Y-90585452D01*
X102713471Y-90527493D01*
X102690856Y-90472896D01*
X102658025Y-90423761D01*
X102616239Y-90381975D01*
X102567103Y-90349143D01*
X102512506Y-90326529D01*
X102454547Y-90315000D01*
X101775000Y-90315000D01*
X101700000Y-90390000D01*
X101700000Y-91340000D01*
X102650000Y-91340000D01*
X102725000Y-91265000D01*
X102725000Y-91615000D01*
X102650000Y-91540000D01*
X101700000Y-91540000D01*
X101700000Y-92490000D01*
X101775000Y-92565000D01*
X102454547Y-92565000D01*
X102512506Y-92553471D01*
X102567103Y-92530857D01*
X102616239Y-92498025D01*
X102658025Y-92456239D01*
X102690856Y-92407104D01*
X102713471Y-92352507D01*
X102725000Y-92294548D01*
X102725000Y-92942600D01*
X101500000Y-92942600D01*
X101500000Y-92490000D01*
X101500000Y-91540000D01*
X101500000Y-91340000D01*
X101500000Y-90390000D01*
X101425000Y-90315000D01*
X100745453Y-90315000D01*
X100687494Y-90326529D01*
X100632897Y-90349143D01*
X100583761Y-90381975D01*
X100541975Y-90423761D01*
X100509144Y-90472896D01*
X100486529Y-90527493D01*
X100475000Y-90585452D01*
X100475000Y-90644547D01*
X100475000Y-91265000D01*
X100550000Y-91340000D01*
X101500000Y-91340000D01*
X101500000Y-91540000D01*
X100550000Y-91540000D01*
X100475000Y-91615000D01*
X100475000Y-92235453D01*
X100475000Y-92294548D01*
X100486529Y-92352507D01*
X100509144Y-92407104D01*
X100541975Y-92456239D01*
X100583761Y-92498025D01*
X100632897Y-92530857D01*
X100687494Y-92553471D01*
X100745453Y-92565000D01*
X101425000Y-92565000D01*
X101500000Y-92490000D01*
X101500000Y-92942600D01*
X100235050Y-92942600D01*
X100235050Y-91324785D01*
X100190293Y-91098744D01*
X100102483Y-90885702D01*
X99974965Y-90693772D01*
X99812597Y-90530267D01*
X99811694Y-90529657D01*
X99811694Y-88430000D01*
X99811694Y-87830000D01*
X99811694Y-82985000D01*
X99811694Y-82385000D01*
X99807077Y-82328205D01*
X99777606Y-82233954D01*
X99751653Y-82194752D01*
X99765441Y-82134065D01*
X99767529Y-81984548D01*
X99742103Y-81856138D01*
X99692219Y-81735111D01*
X99619779Y-81626079D01*
X99527539Y-81533194D01*
X99419015Y-81459993D01*
X99298340Y-81409266D01*
X99170110Y-81382944D01*
X99039210Y-81382030D01*
X98910625Y-81406559D01*
X98789253Y-81455597D01*
X98679718Y-81527275D01*
X98586191Y-81618863D01*
X98512235Y-81726873D01*
X98460666Y-81847191D01*
X98433450Y-81975234D01*
X98431622Y-82106125D01*
X98433661Y-82117239D01*
X98426611Y-82121907D01*
X98362670Y-82197162D01*
X98322171Y-82287227D01*
X98308306Y-82385000D01*
X98308306Y-82985000D01*
X98312923Y-83041795D01*
X98342394Y-83136046D01*
X98396907Y-83218389D01*
X98405589Y-83225766D01*
X98394143Y-83242897D01*
X98371529Y-83297494D01*
X98360000Y-83355453D01*
X98360000Y-83510000D01*
X98435000Y-83585000D01*
X98960000Y-83585000D01*
X98960000Y-83565000D01*
X99160000Y-83565000D01*
X99160000Y-83585000D01*
X99685000Y-83585000D01*
X99760000Y-83510000D01*
X99760000Y-83355453D01*
X99748471Y-83297494D01*
X99725857Y-83242897D01*
X99713507Y-83224414D01*
X99757330Y-83172838D01*
X99797829Y-83082773D01*
X99811694Y-82985000D01*
X99811694Y-87830000D01*
X99807077Y-87773205D01*
X99777606Y-87678954D01*
X99723093Y-87596611D01*
X99714410Y-87589233D01*
X99725857Y-87572103D01*
X99748471Y-87517506D01*
X99760000Y-87459547D01*
X99760000Y-87305000D01*
X99760000Y-86955000D01*
X99760000Y-86800453D01*
X99760000Y-84014547D01*
X99760000Y-83860000D01*
X99685000Y-83785000D01*
X99160000Y-83785000D01*
X99160000Y-84210000D01*
X99235000Y-84285000D01*
X99430453Y-84285000D01*
X99489548Y-84285000D01*
X99547507Y-84273471D01*
X99602104Y-84250856D01*
X99651239Y-84218025D01*
X99693025Y-84176239D01*
X99725857Y-84127103D01*
X99748471Y-84072506D01*
X99760000Y-84014547D01*
X99760000Y-86800453D01*
X99748471Y-86742494D01*
X99725857Y-86687897D01*
X99693025Y-86638761D01*
X99651239Y-86596975D01*
X99602104Y-86564144D01*
X99547507Y-86541529D01*
X99489548Y-86530000D01*
X99430453Y-86530000D01*
X99235000Y-86530000D01*
X99160000Y-86605000D01*
X99160000Y-87030000D01*
X99685000Y-87030000D01*
X99760000Y-86955000D01*
X99760000Y-87305000D01*
X99685000Y-87230000D01*
X99160000Y-87230000D01*
X99160000Y-87250000D01*
X98960000Y-87250000D01*
X98960000Y-87230000D01*
X98960000Y-87030000D01*
X98960000Y-86605000D01*
X98960000Y-84210000D01*
X98960000Y-83785000D01*
X98435000Y-83785000D01*
X98360000Y-83860000D01*
X98360000Y-84014547D01*
X98371529Y-84072506D01*
X98394143Y-84127103D01*
X98426975Y-84176239D01*
X98468761Y-84218025D01*
X98517896Y-84250856D01*
X98572493Y-84273471D01*
X98630452Y-84285000D01*
X98689547Y-84285000D01*
X98885000Y-84285000D01*
X98960000Y-84210000D01*
X98960000Y-86605000D01*
X98885000Y-86530000D01*
X98689547Y-86530000D01*
X98630452Y-86530000D01*
X98572493Y-86541529D01*
X98517896Y-86564144D01*
X98468761Y-86596975D01*
X98426975Y-86638761D01*
X98394143Y-86687897D01*
X98371529Y-86742494D01*
X98360000Y-86800453D01*
X98360000Y-86955000D01*
X98435000Y-87030000D01*
X98960000Y-87030000D01*
X98960000Y-87230000D01*
X98435000Y-87230000D01*
X98360000Y-87305000D01*
X98360000Y-87459547D01*
X98371529Y-87517506D01*
X98394143Y-87572103D01*
X98406492Y-87590585D01*
X98362670Y-87642162D01*
X98322171Y-87732227D01*
X98308306Y-87830000D01*
X98308306Y-88430000D01*
X98312923Y-88486795D01*
X98342394Y-88581046D01*
X98388626Y-88650880D01*
X98383450Y-88675234D01*
X98381622Y-88806125D01*
X98405253Y-88934878D01*
X98453442Y-89056589D01*
X98524353Y-89166622D01*
X98615287Y-89260787D01*
X98722778Y-89335495D01*
X98842733Y-89387902D01*
X98970583Y-89416012D01*
X99101458Y-89418753D01*
X99230373Y-89396022D01*
X99352417Y-89348684D01*
X99462943Y-89278542D01*
X99557739Y-89188269D01*
X99633196Y-89081302D01*
X99686440Y-88961715D01*
X99715441Y-88834065D01*
X99717529Y-88684548D01*
X99714338Y-88668436D01*
X99757330Y-88617838D01*
X99797829Y-88527773D01*
X99811694Y-88430000D01*
X99811694Y-90529657D01*
X99621562Y-90401412D01*
X99409138Y-90312117D01*
X99183415Y-90265783D01*
X98952991Y-90264174D01*
X98726644Y-90307352D01*
X98512993Y-90393673D01*
X98320178Y-90519847D01*
X98155543Y-90681070D01*
X98150000Y-90689165D01*
X98150000Y-87700000D01*
X98150000Y-86200000D01*
X98145494Y-86154047D01*
X98141468Y-86108025D01*
X98140734Y-86105500D01*
X98140478Y-86102883D01*
X98127127Y-86058664D01*
X98114243Y-86014316D01*
X98113032Y-86011980D01*
X98112273Y-86009465D01*
X98090595Y-85968694D01*
X98069336Y-85927681D01*
X98067695Y-85925626D01*
X98066461Y-85923304D01*
X98037254Y-85887493D01*
X98008455Y-85851418D01*
X98004847Y-85847760D01*
X98004785Y-85847683D01*
X98004713Y-85847623D01*
X98003553Y-85846447D01*
X97853551Y-85696445D01*
X97817906Y-85667165D01*
X97782482Y-85637441D01*
X97780175Y-85636172D01*
X97778146Y-85634506D01*
X97737476Y-85612699D01*
X97696969Y-85590430D01*
X97694461Y-85589634D01*
X97692146Y-85588393D01*
X97647982Y-85574890D01*
X97603954Y-85560924D01*
X97601342Y-85560631D01*
X97598827Y-85559862D01*
X97552850Y-85555192D01*
X97506979Y-85550047D01*
X97501840Y-85550010D01*
X97501743Y-85550001D01*
X97501651Y-85550009D01*
X97499998Y-85549998D01*
X97271694Y-85549998D01*
X97271694Y-82985000D01*
X97271694Y-82385000D01*
X97267077Y-82328205D01*
X97237606Y-82233954D01*
X97204208Y-82183506D01*
X97215441Y-82134065D01*
X97217529Y-81984548D01*
X97192103Y-81856138D01*
X97142219Y-81735111D01*
X97069779Y-81626079D01*
X96977539Y-81533194D01*
X96869015Y-81459993D01*
X96748340Y-81409266D01*
X96620110Y-81382944D01*
X96489210Y-81382030D01*
X96360625Y-81406559D01*
X96239253Y-81455597D01*
X96129718Y-81527275D01*
X96036191Y-81618863D01*
X95962235Y-81726873D01*
X95910666Y-81847191D01*
X95883450Y-81975234D01*
X95881622Y-82106125D01*
X95884890Y-82123932D01*
X95822670Y-82197162D01*
X95782171Y-82287227D01*
X95768306Y-82385000D01*
X95768306Y-82985000D01*
X95772923Y-83041795D01*
X95802394Y-83136046D01*
X95856907Y-83218389D01*
X95865589Y-83225766D01*
X95854143Y-83242897D01*
X95831529Y-83297494D01*
X95820000Y-83355453D01*
X95820000Y-83510000D01*
X95895000Y-83585000D01*
X96420000Y-83585000D01*
X96420000Y-83565000D01*
X96620000Y-83565000D01*
X96620000Y-83585000D01*
X97145000Y-83585000D01*
X97220000Y-83510000D01*
X97220000Y-83355453D01*
X97208471Y-83297494D01*
X97185857Y-83242897D01*
X97173507Y-83224414D01*
X97217330Y-83172838D01*
X97257829Y-83082773D01*
X97271694Y-82985000D01*
X97271694Y-85549998D01*
X97220000Y-85549998D01*
X97220000Y-84014547D01*
X97220000Y-83860000D01*
X97145000Y-83785000D01*
X96620000Y-83785000D01*
X96620000Y-84210000D01*
X96695000Y-84285000D01*
X96890453Y-84285000D01*
X96949548Y-84285000D01*
X97007507Y-84273471D01*
X97062104Y-84250856D01*
X97111239Y-84218025D01*
X97153025Y-84176239D01*
X97185857Y-84127103D01*
X97208471Y-84072506D01*
X97220000Y-84014547D01*
X97220000Y-85549998D01*
X96420000Y-85549998D01*
X96420000Y-84210000D01*
X96420000Y-83785000D01*
X95895000Y-83785000D01*
X95820000Y-83860000D01*
X95820000Y-84014547D01*
X95831529Y-84072506D01*
X95854143Y-84127103D01*
X95886975Y-84176239D01*
X95928761Y-84218025D01*
X95977896Y-84250856D01*
X96032493Y-84273471D01*
X96090452Y-84285000D01*
X96149547Y-84285000D01*
X96345000Y-84285000D01*
X96420000Y-84210000D01*
X96420000Y-85549998D01*
X96149012Y-85549998D01*
X96144228Y-85549998D01*
X96127539Y-85533192D01*
X96019015Y-85459991D01*
X95898340Y-85409264D01*
X95770110Y-85382942D01*
X95639210Y-85382028D01*
X95567529Y-85395701D01*
X95567529Y-84518924D01*
X95542103Y-84390514D01*
X95492219Y-84269487D01*
X95419779Y-84160455D01*
X95327539Y-84067570D01*
X95219015Y-83994369D01*
X95098340Y-83943642D01*
X94970110Y-83917320D01*
X94839210Y-83916406D01*
X94731694Y-83936915D01*
X94731694Y-82985000D01*
X94731694Y-82385000D01*
X94727077Y-82328205D01*
X94697606Y-82233954D01*
X94643093Y-82151611D01*
X94615523Y-82128186D01*
X94617529Y-81984548D01*
X94592103Y-81856138D01*
X94542219Y-81735111D01*
X94469779Y-81626079D01*
X94377539Y-81533194D01*
X94269015Y-81459993D01*
X94148340Y-81409266D01*
X94020110Y-81382944D01*
X93889210Y-81382030D01*
X93760625Y-81406559D01*
X93639253Y-81455597D01*
X93529718Y-81527275D01*
X93436191Y-81618863D01*
X93362235Y-81726873D01*
X93310666Y-81847191D01*
X93283450Y-81975234D01*
X93281622Y-82106125D01*
X93295548Y-82182004D01*
X93282670Y-82197162D01*
X93242171Y-82287227D01*
X93228306Y-82385000D01*
X93228306Y-82985000D01*
X93232923Y-83041795D01*
X93262394Y-83136046D01*
X93316907Y-83218389D01*
X93325589Y-83225766D01*
X93314143Y-83242897D01*
X93291529Y-83297494D01*
X93280000Y-83355453D01*
X93280000Y-83510000D01*
X93355000Y-83585000D01*
X93880000Y-83585000D01*
X93880000Y-83565000D01*
X94080000Y-83565000D01*
X94080000Y-83585000D01*
X94605000Y-83585000D01*
X94680000Y-83510000D01*
X94680000Y-83355453D01*
X94668471Y-83297494D01*
X94645857Y-83242897D01*
X94633507Y-83224414D01*
X94677330Y-83172838D01*
X94717829Y-83082773D01*
X94731694Y-82985000D01*
X94731694Y-83936915D01*
X94710625Y-83940935D01*
X94680000Y-83953308D01*
X94680000Y-83860000D01*
X94605000Y-83785000D01*
X94080000Y-83785000D01*
X94080000Y-84210000D01*
X94155000Y-84285000D01*
X94302055Y-84285000D01*
X94274195Y-84350000D01*
X93880000Y-84350000D01*
X93880000Y-84210000D01*
X93880000Y-83785000D01*
X93355000Y-83785000D01*
X93280000Y-83860000D01*
X93280000Y-84014547D01*
X93291529Y-84072506D01*
X93314143Y-84127103D01*
X93346975Y-84176239D01*
X93388761Y-84218025D01*
X93437896Y-84250856D01*
X93492493Y-84273471D01*
X93550452Y-84285000D01*
X93609547Y-84285000D01*
X93805000Y-84285000D01*
X93880000Y-84210000D01*
X93880000Y-84350000D01*
X93450000Y-84350000D01*
X93404011Y-84354509D01*
X93358024Y-84358532D01*
X93355499Y-84359265D01*
X93352883Y-84359522D01*
X93308676Y-84372868D01*
X93264316Y-84385757D01*
X93261980Y-84386967D01*
X93259465Y-84387727D01*
X93218675Y-84409415D01*
X93177680Y-84430665D01*
X93175627Y-84432303D01*
X93173304Y-84433539D01*
X93137512Y-84462730D01*
X93101417Y-84491545D01*
X93097754Y-84495156D01*
X93097683Y-84495215D01*
X93097628Y-84495281D01*
X93096446Y-84496447D01*
X92546447Y-85046447D01*
X92517167Y-85082091D01*
X92487443Y-85117516D01*
X92486174Y-85119822D01*
X92484508Y-85121852D01*
X92462701Y-85162521D01*
X92440432Y-85203029D01*
X92439636Y-85205536D01*
X92438395Y-85207852D01*
X92424892Y-85252015D01*
X92410926Y-85296044D01*
X92410633Y-85298655D01*
X92409864Y-85301171D01*
X92405194Y-85347147D01*
X92400049Y-85393019D01*
X92400012Y-85398157D01*
X92400003Y-85398255D01*
X92400011Y-85398346D01*
X92400000Y-85400000D01*
X92400000Y-87750000D01*
X92404504Y-87795943D01*
X92408532Y-87841976D01*
X92409265Y-87844500D01*
X92409522Y-87847117D01*
X92422868Y-87891323D01*
X92435757Y-87935684D01*
X92436967Y-87938019D01*
X92437727Y-87940535D01*
X92459394Y-87981285D01*
X92480664Y-88022320D01*
X92482305Y-88024376D01*
X92483539Y-88026696D01*
X92512727Y-88062484D01*
X92541545Y-88098582D01*
X92545152Y-88102239D01*
X92545215Y-88102317D01*
X92545286Y-88102376D01*
X92546447Y-88103553D01*
X92926447Y-88483553D01*
X92962091Y-88512832D01*
X92997516Y-88542557D01*
X92999822Y-88543825D01*
X93001852Y-88545492D01*
X93042521Y-88567298D01*
X93083029Y-88589568D01*
X93085536Y-88590363D01*
X93087852Y-88591605D01*
X93132015Y-88605107D01*
X93176044Y-88619074D01*
X93178655Y-88619366D01*
X93181171Y-88620136D01*
X93227147Y-88624805D01*
X93273019Y-88629951D01*
X93278157Y-88629987D01*
X93278255Y-88629997D01*
X93278346Y-88629988D01*
X93280000Y-88630000D01*
X93294802Y-88630000D01*
X93316907Y-88663389D01*
X93392162Y-88727330D01*
X93482227Y-88767829D01*
X93580000Y-88781694D01*
X94380000Y-88781694D01*
X94436795Y-88777077D01*
X94531046Y-88747606D01*
X94613389Y-88693093D01*
X94677330Y-88617838D01*
X94717829Y-88527773D01*
X94731694Y-88430000D01*
X94731694Y-87830000D01*
X94727077Y-87773205D01*
X94697606Y-87678954D01*
X94643093Y-87596611D01*
X94634410Y-87589233D01*
X94645857Y-87572103D01*
X94668471Y-87517506D01*
X94680000Y-87459547D01*
X94680000Y-87305000D01*
X94680000Y-86955000D01*
X94680000Y-86800453D01*
X94668471Y-86742494D01*
X94645857Y-86687897D01*
X94613025Y-86638761D01*
X94571239Y-86596975D01*
X94522104Y-86564144D01*
X94467507Y-86541529D01*
X94409548Y-86530000D01*
X94350453Y-86530000D01*
X94155000Y-86530000D01*
X94080000Y-86605000D01*
X94080000Y-87030000D01*
X94605000Y-87030000D01*
X94680000Y-86955000D01*
X94680000Y-87305000D01*
X94605000Y-87230000D01*
X94080000Y-87230000D01*
X94080000Y-87250000D01*
X93880000Y-87250000D01*
X93880000Y-87230000D01*
X93860000Y-87230000D01*
X93860000Y-87030000D01*
X93880000Y-87030000D01*
X93880000Y-86605000D01*
X93805000Y-86530000D01*
X93609547Y-86530000D01*
X93550452Y-86530000D01*
X93492493Y-86541529D01*
X93437896Y-86564144D01*
X93400000Y-86589465D01*
X93400000Y-85607106D01*
X93657106Y-85350000D01*
X94634376Y-85350000D01*
X94680319Y-85345495D01*
X94726352Y-85341468D01*
X94728876Y-85340734D01*
X94731493Y-85340478D01*
X94775699Y-85327131D01*
X94820060Y-85314243D01*
X94822395Y-85313032D01*
X94824911Y-85312273D01*
X94865661Y-85290605D01*
X94906696Y-85269336D01*
X94908752Y-85267694D01*
X94911072Y-85266461D01*
X94928020Y-85252638D01*
X94951458Y-85253129D01*
X95080373Y-85230398D01*
X95202417Y-85183060D01*
X95312943Y-85112918D01*
X95407739Y-85022645D01*
X95483196Y-84915678D01*
X95536440Y-84796091D01*
X95565441Y-84668441D01*
X95567529Y-84518924D01*
X95567529Y-85395701D01*
X95510625Y-85406557D01*
X95389253Y-85455595D01*
X95279718Y-85527273D01*
X95186191Y-85618861D01*
X95112235Y-85726871D01*
X95060666Y-85847189D01*
X95033450Y-85975232D01*
X95031622Y-86106123D01*
X95055253Y-86234876D01*
X95103442Y-86356587D01*
X95174353Y-86466620D01*
X95265287Y-86560785D01*
X95372778Y-86635493D01*
X95492733Y-86687900D01*
X95620583Y-86716010D01*
X95751458Y-86718751D01*
X95848446Y-86701649D01*
X95831529Y-86742494D01*
X95820000Y-86800453D01*
X95820000Y-86955000D01*
X95895000Y-87030000D01*
X96420000Y-87030000D01*
X96420000Y-87010000D01*
X96620000Y-87010000D01*
X96620000Y-87030000D01*
X96640000Y-87030000D01*
X96640000Y-87230000D01*
X96620000Y-87230000D01*
X96620000Y-87250000D01*
X96420000Y-87250000D01*
X96420000Y-87230000D01*
X95895000Y-87230000D01*
X95820000Y-87305000D01*
X95820000Y-87459547D01*
X95831529Y-87517506D01*
X95854143Y-87572103D01*
X95866492Y-87590585D01*
X95822670Y-87642162D01*
X95782171Y-87732227D01*
X95768306Y-87830000D01*
X95768306Y-88430000D01*
X95772923Y-88486795D01*
X95802394Y-88581046D01*
X95856907Y-88663389D01*
X95932162Y-88727330D01*
X96022227Y-88767829D01*
X96120000Y-88781694D01*
X96920000Y-88781694D01*
X96976795Y-88777077D01*
X97071046Y-88747606D01*
X97153389Y-88693093D01*
X97206996Y-88630000D01*
X97220000Y-88630000D01*
X97265943Y-88625495D01*
X97311976Y-88621468D01*
X97314500Y-88620734D01*
X97317117Y-88620478D01*
X97361323Y-88607131D01*
X97405684Y-88594243D01*
X97408019Y-88593032D01*
X97410535Y-88592273D01*
X97451285Y-88570605D01*
X97492320Y-88549336D01*
X97494376Y-88547694D01*
X97496696Y-88546461D01*
X97532484Y-88517272D01*
X97568582Y-88488455D01*
X97572239Y-88484847D01*
X97572317Y-88484785D01*
X97572376Y-88484713D01*
X97573553Y-88483553D01*
X98003554Y-88053553D01*
X98032879Y-88017851D01*
X98062557Y-87982484D01*
X98063823Y-87980180D01*
X98065493Y-87978148D01*
X98087320Y-87937439D01*
X98109568Y-87896971D01*
X98110363Y-87894463D01*
X98111605Y-87892148D01*
X98125107Y-87847984D01*
X98139074Y-87803956D01*
X98139366Y-87801344D01*
X98140136Y-87798829D01*
X98144805Y-87752852D01*
X98149951Y-87706981D01*
X98149987Y-87701842D01*
X98149997Y-87701745D01*
X98149988Y-87701653D01*
X98150000Y-87700000D01*
X98150000Y-90689165D01*
X98025358Y-90871201D01*
X97934582Y-91082996D01*
X97886673Y-91308390D01*
X97883456Y-91538797D01*
X97925053Y-91765441D01*
X98009879Y-91979689D01*
X98134705Y-92173380D01*
X98294775Y-92339137D01*
X98483991Y-92470646D01*
X98695148Y-92562898D01*
X98920202Y-92612379D01*
X99150581Y-92617205D01*
X99377510Y-92577192D01*
X99592344Y-92493863D01*
X99786902Y-92370392D01*
X99953773Y-92211484D01*
X100086600Y-92023190D01*
X100180324Y-91812682D01*
X100231375Y-91587979D01*
X100235050Y-91324785D01*
X100235050Y-92942600D01*
X97695050Y-92942600D01*
X97695050Y-91324785D01*
X97650293Y-91098744D01*
X97562483Y-90885702D01*
X97434965Y-90693772D01*
X97272597Y-90530267D01*
X97081562Y-90401412D01*
X96869138Y-90312117D01*
X96643415Y-90265783D01*
X96412991Y-90264174D01*
X96186644Y-90307352D01*
X95972993Y-90393673D01*
X95780178Y-90519847D01*
X95615543Y-90681070D01*
X95485358Y-90871201D01*
X95394582Y-91082996D01*
X95346673Y-91308390D01*
X95343456Y-91538797D01*
X95385053Y-91765441D01*
X95469879Y-91979689D01*
X95594705Y-92173380D01*
X95754775Y-92339137D01*
X95943991Y-92470646D01*
X96155148Y-92562898D01*
X96380202Y-92612379D01*
X96610581Y-92617205D01*
X96837510Y-92577192D01*
X97052344Y-92493863D01*
X97246902Y-92370392D01*
X97413773Y-92211484D01*
X97546600Y-92023190D01*
X97640324Y-91812682D01*
X97691375Y-91587979D01*
X97695050Y-91324785D01*
X97695050Y-92942600D01*
X95155050Y-92942600D01*
X95155050Y-91324785D01*
X95110293Y-91098744D01*
X95022483Y-90885702D01*
X94894965Y-90693772D01*
X94732597Y-90530267D01*
X94541562Y-90401412D01*
X94329138Y-90312117D01*
X94103415Y-90265783D01*
X93872991Y-90264174D01*
X93646644Y-90307352D01*
X93432993Y-90393673D01*
X93240178Y-90519847D01*
X93075543Y-90681070D01*
X92945358Y-90871201D01*
X92854582Y-91082996D01*
X92806673Y-91308390D01*
X92803456Y-91538797D01*
X92845053Y-91765441D01*
X92929879Y-91979689D01*
X93054705Y-92173380D01*
X93214775Y-92339137D01*
X93403991Y-92470646D01*
X93615148Y-92562898D01*
X93840202Y-92612379D01*
X94070581Y-92617205D01*
X94297510Y-92577192D01*
X94512344Y-92493863D01*
X94706902Y-92370392D01*
X94873773Y-92211484D01*
X95006600Y-92023190D01*
X95100324Y-91812682D01*
X95151375Y-91587979D01*
X95155050Y-91324785D01*
X95155050Y-92942600D01*
X92615050Y-92942600D01*
X92615050Y-91324785D01*
X92570293Y-91098744D01*
X92482483Y-90885702D01*
X92354965Y-90693772D01*
X92192597Y-90530267D01*
X92191694Y-90529657D01*
X92191694Y-88430000D01*
X92191694Y-87830000D01*
X92191694Y-82985000D01*
X92191694Y-82385000D01*
X92187077Y-82328205D01*
X92157606Y-82233954D01*
X92109318Y-82161015D01*
X92115441Y-82134069D01*
X92117529Y-81984552D01*
X92092103Y-81856142D01*
X92042219Y-81735115D01*
X91969779Y-81626083D01*
X91877539Y-81533198D01*
X91769015Y-81459997D01*
X91648340Y-81409270D01*
X91520110Y-81382948D01*
X91389210Y-81382034D01*
X91260625Y-81406563D01*
X91139253Y-81455601D01*
X91029718Y-81527279D01*
X90936191Y-81618867D01*
X90862235Y-81726877D01*
X90810666Y-81847195D01*
X90783450Y-81975238D01*
X90781622Y-82106129D01*
X90788442Y-82143290D01*
X90742670Y-82197162D01*
X90702171Y-82287227D01*
X90688306Y-82385000D01*
X90688306Y-82985000D01*
X90692923Y-83041795D01*
X90722394Y-83136046D01*
X90776907Y-83218389D01*
X90785589Y-83225766D01*
X90774143Y-83242897D01*
X90751529Y-83297494D01*
X90740000Y-83355453D01*
X90740000Y-83510000D01*
X90815000Y-83585000D01*
X91340000Y-83585000D01*
X91340000Y-83565000D01*
X91540000Y-83565000D01*
X91540000Y-83585000D01*
X92065000Y-83585000D01*
X92140000Y-83510000D01*
X92140000Y-83355453D01*
X92128471Y-83297494D01*
X92105857Y-83242897D01*
X92093507Y-83224414D01*
X92137330Y-83172838D01*
X92177829Y-83082773D01*
X92191694Y-82985000D01*
X92191694Y-87830000D01*
X92187077Y-87773205D01*
X92157606Y-87678954D01*
X92103093Y-87596611D01*
X92094410Y-87589233D01*
X92105857Y-87572103D01*
X92128471Y-87517506D01*
X92140000Y-87459547D01*
X92140000Y-87305000D01*
X92140000Y-86955000D01*
X92140000Y-86800453D01*
X92140000Y-84014547D01*
X92140000Y-83860000D01*
X92065000Y-83785000D01*
X91540000Y-83785000D01*
X91540000Y-84210000D01*
X91615000Y-84285000D01*
X91810453Y-84285000D01*
X91869548Y-84285000D01*
X91927507Y-84273471D01*
X91982104Y-84250856D01*
X92031239Y-84218025D01*
X92073025Y-84176239D01*
X92105857Y-84127103D01*
X92128471Y-84072506D01*
X92140000Y-84014547D01*
X92140000Y-86800453D01*
X92128471Y-86742494D01*
X92105857Y-86687897D01*
X92073025Y-86638761D01*
X92031239Y-86596975D01*
X91982104Y-86564144D01*
X91927507Y-86541529D01*
X91869548Y-86530000D01*
X91810453Y-86530000D01*
X91615000Y-86530000D01*
X91540000Y-86605000D01*
X91540000Y-87030000D01*
X92065000Y-87030000D01*
X92140000Y-86955000D01*
X92140000Y-87305000D01*
X92065000Y-87230000D01*
X91540000Y-87230000D01*
X91540000Y-87250000D01*
X91340000Y-87250000D01*
X91340000Y-87230000D01*
X91340000Y-87030000D01*
X91340000Y-86605000D01*
X91340000Y-84210000D01*
X91340000Y-83785000D01*
X90815000Y-83785000D01*
X90740000Y-83860000D01*
X90740000Y-84014547D01*
X90751529Y-84072506D01*
X90774143Y-84127103D01*
X90806975Y-84176239D01*
X90848761Y-84218025D01*
X90897896Y-84250856D01*
X90952493Y-84273471D01*
X91010452Y-84285000D01*
X91069547Y-84285000D01*
X91265000Y-84285000D01*
X91340000Y-84210000D01*
X91340000Y-86605000D01*
X91265000Y-86530000D01*
X91069547Y-86530000D01*
X91010452Y-86530000D01*
X90952493Y-86541529D01*
X90897896Y-86564144D01*
X90848761Y-86596975D01*
X90806975Y-86638761D01*
X90774143Y-86687897D01*
X90751529Y-86742494D01*
X90740000Y-86800453D01*
X90740000Y-86955000D01*
X90815000Y-87030000D01*
X91340000Y-87030000D01*
X91340000Y-87230000D01*
X90815000Y-87230000D01*
X90740000Y-87305000D01*
X90740000Y-87459547D01*
X90751529Y-87517506D01*
X90774143Y-87572103D01*
X90786492Y-87590585D01*
X90742670Y-87642162D01*
X90702171Y-87732227D01*
X90688306Y-87830000D01*
X90688306Y-88430000D01*
X90692923Y-88486795D01*
X90722394Y-88581046D01*
X90776907Y-88663389D01*
X90784581Y-88669909D01*
X90783450Y-88675234D01*
X90781622Y-88806125D01*
X90805253Y-88934878D01*
X90853442Y-89056589D01*
X90924353Y-89166622D01*
X91015287Y-89260787D01*
X91122778Y-89335495D01*
X91242733Y-89387902D01*
X91370583Y-89416012D01*
X91501458Y-89418753D01*
X91630373Y-89396022D01*
X91752417Y-89348684D01*
X91862943Y-89278542D01*
X91957739Y-89188269D01*
X92033196Y-89081302D01*
X92086440Y-88961715D01*
X92115441Y-88834065D01*
X92117529Y-88684548D01*
X92110558Y-88649346D01*
X92137330Y-88617838D01*
X92177829Y-88527773D01*
X92191694Y-88430000D01*
X92191694Y-90529657D01*
X92001562Y-90401412D01*
X91789138Y-90312117D01*
X91563415Y-90265783D01*
X91332991Y-90264174D01*
X91106644Y-90307352D01*
X90892993Y-90393673D01*
X90700178Y-90519847D01*
X90535543Y-90681070D01*
X90405358Y-90871201D01*
X90314582Y-91082996D01*
X90266673Y-91308390D01*
X90263456Y-91538797D01*
X90305053Y-91765441D01*
X90389879Y-91979689D01*
X90514705Y-92173380D01*
X90674775Y-92339137D01*
X90863991Y-92470646D01*
X91075148Y-92562898D01*
X91300202Y-92612379D01*
X91530581Y-92617205D01*
X91757510Y-92577192D01*
X91972344Y-92493863D01*
X92166902Y-92370392D01*
X92333773Y-92211484D01*
X92466600Y-92023190D01*
X92560324Y-91812682D01*
X92611375Y-91587979D01*
X92615050Y-91324785D01*
X92615050Y-92942600D01*
X90075050Y-92942600D01*
X90075050Y-91324785D01*
X90030293Y-91098744D01*
X89942483Y-90885702D01*
X89814965Y-90693772D01*
X89652597Y-90530267D01*
X89651694Y-90529657D01*
X89651694Y-88430000D01*
X89651694Y-87830000D01*
X89651694Y-82985000D01*
X89651694Y-82385000D01*
X89647077Y-82328205D01*
X89617606Y-82233954D01*
X89563093Y-82151611D01*
X89561721Y-82150445D01*
X89565443Y-82134065D01*
X89567531Y-81984548D01*
X89542105Y-81856138D01*
X89492221Y-81735111D01*
X89419781Y-81626079D01*
X89327541Y-81533194D01*
X89219017Y-81459993D01*
X89098342Y-81409266D01*
X88970112Y-81382944D01*
X88839212Y-81382030D01*
X88710627Y-81406559D01*
X88589255Y-81455597D01*
X88479720Y-81527275D01*
X88386193Y-81618863D01*
X88312237Y-81726873D01*
X88260668Y-81847191D01*
X88233452Y-81975234D01*
X88231624Y-82106125D01*
X88240221Y-82152966D01*
X88202670Y-82197162D01*
X88162171Y-82287227D01*
X88148306Y-82385000D01*
X88148306Y-82985000D01*
X88152923Y-83041795D01*
X88182394Y-83136046D01*
X88236907Y-83218389D01*
X88245589Y-83225766D01*
X88234143Y-83242897D01*
X88211529Y-83297494D01*
X88200000Y-83355453D01*
X88200000Y-83510000D01*
X88275000Y-83585000D01*
X88800000Y-83585000D01*
X88800000Y-83565000D01*
X89000000Y-83565000D01*
X89000000Y-83585000D01*
X89525000Y-83585000D01*
X89600000Y-83510000D01*
X89600000Y-83355453D01*
X89588471Y-83297494D01*
X89565857Y-83242897D01*
X89553507Y-83224414D01*
X89597330Y-83172838D01*
X89637829Y-83082773D01*
X89651694Y-82985000D01*
X89651694Y-87830000D01*
X89647077Y-87773205D01*
X89617606Y-87678954D01*
X89563093Y-87596611D01*
X89554410Y-87589233D01*
X89565857Y-87572103D01*
X89588471Y-87517506D01*
X89600000Y-87459547D01*
X89600000Y-87305000D01*
X89600000Y-86955000D01*
X89600000Y-86800453D01*
X89600000Y-84014547D01*
X89600000Y-83860000D01*
X89525000Y-83785000D01*
X89000000Y-83785000D01*
X89000000Y-84210000D01*
X89075000Y-84285000D01*
X89270453Y-84285000D01*
X89329548Y-84285000D01*
X89387507Y-84273471D01*
X89442104Y-84250856D01*
X89491239Y-84218025D01*
X89533025Y-84176239D01*
X89565857Y-84127103D01*
X89588471Y-84072506D01*
X89600000Y-84014547D01*
X89600000Y-86800453D01*
X89588471Y-86742494D01*
X89565857Y-86687897D01*
X89533025Y-86638761D01*
X89491239Y-86596975D01*
X89442104Y-86564144D01*
X89387507Y-86541529D01*
X89329548Y-86530000D01*
X89270453Y-86530000D01*
X89075000Y-86530000D01*
X89000000Y-86605000D01*
X89000000Y-87030000D01*
X89525000Y-87030000D01*
X89600000Y-86955000D01*
X89600000Y-87305000D01*
X89525000Y-87230000D01*
X89000000Y-87230000D01*
X89000000Y-87250000D01*
X88800000Y-87250000D01*
X88800000Y-87230000D01*
X88800000Y-87030000D01*
X88800000Y-86605000D01*
X88800000Y-84210000D01*
X88800000Y-83785000D01*
X88275000Y-83785000D01*
X88200000Y-83860000D01*
X88200000Y-84014547D01*
X88211529Y-84072506D01*
X88234143Y-84127103D01*
X88266975Y-84176239D01*
X88308761Y-84218025D01*
X88357896Y-84250856D01*
X88412493Y-84273471D01*
X88470452Y-84285000D01*
X88529547Y-84285000D01*
X88725000Y-84285000D01*
X88800000Y-84210000D01*
X88800000Y-86605000D01*
X88725000Y-86530000D01*
X88529547Y-86530000D01*
X88470452Y-86530000D01*
X88412493Y-86541529D01*
X88357896Y-86564144D01*
X88308761Y-86596975D01*
X88266975Y-86638761D01*
X88234143Y-86687897D01*
X88211529Y-86742494D01*
X88200000Y-86800453D01*
X88200000Y-86955000D01*
X88275000Y-87030000D01*
X88800000Y-87030000D01*
X88800000Y-87230000D01*
X88275000Y-87230000D01*
X88200000Y-87305000D01*
X88200000Y-87459547D01*
X88211529Y-87517506D01*
X88234143Y-87572103D01*
X88246492Y-87590585D01*
X88202670Y-87642162D01*
X88162171Y-87732227D01*
X88148306Y-87830000D01*
X88148306Y-88430000D01*
X88152923Y-88486795D01*
X88182394Y-88581046D01*
X88236197Y-88662317D01*
X88233452Y-88675234D01*
X88231624Y-88806125D01*
X88255255Y-88934878D01*
X88303444Y-89056589D01*
X88374355Y-89166622D01*
X88465289Y-89260787D01*
X88572780Y-89335495D01*
X88692735Y-89387902D01*
X88820585Y-89416012D01*
X88951460Y-89418753D01*
X89080375Y-89396022D01*
X89202419Y-89348684D01*
X89312945Y-89278542D01*
X89407741Y-89188269D01*
X89483198Y-89081302D01*
X89536442Y-88961715D01*
X89565443Y-88834065D01*
X89567531Y-88684548D01*
X89562450Y-88658889D01*
X89597330Y-88617838D01*
X89637829Y-88527773D01*
X89651694Y-88430000D01*
X89651694Y-90529657D01*
X89461562Y-90401412D01*
X89249138Y-90312117D01*
X89023415Y-90265783D01*
X88792991Y-90264174D01*
X88566644Y-90307352D01*
X88352993Y-90393673D01*
X88160178Y-90519847D01*
X87995543Y-90681070D01*
X87950000Y-90747584D01*
X87950000Y-87740000D01*
X87950000Y-85500000D01*
X87945490Y-85454011D01*
X87941468Y-85408024D01*
X87940734Y-85405499D01*
X87940478Y-85402883D01*
X87927131Y-85358676D01*
X87914243Y-85314316D01*
X87913032Y-85311980D01*
X87912273Y-85309465D01*
X87890584Y-85268675D01*
X87869335Y-85227680D01*
X87867696Y-85225627D01*
X87866461Y-85223304D01*
X87837269Y-85187512D01*
X87808455Y-85151417D01*
X87804843Y-85147754D01*
X87804785Y-85147683D01*
X87804718Y-85147628D01*
X87803553Y-85146446D01*
X87121052Y-84463946D01*
X87111694Y-84456259D01*
X87111694Y-82985000D01*
X87111694Y-82385000D01*
X87107077Y-82328205D01*
X87077606Y-82233954D01*
X87023093Y-82151611D01*
X87013337Y-82143321D01*
X87015441Y-82134061D01*
X87017529Y-81984544D01*
X86992103Y-81856134D01*
X86942219Y-81735107D01*
X86869779Y-81626075D01*
X86777539Y-81533190D01*
X86669015Y-81459989D01*
X86548340Y-81409262D01*
X86420110Y-81382940D01*
X86289210Y-81382026D01*
X86160625Y-81406555D01*
X86039253Y-81455593D01*
X85929718Y-81527271D01*
X85836191Y-81618859D01*
X85762235Y-81726869D01*
X85710666Y-81847187D01*
X85683450Y-81975230D01*
X85681622Y-82106121D01*
X85691996Y-82162646D01*
X85662670Y-82197162D01*
X85622171Y-82287227D01*
X85608306Y-82385000D01*
X85608306Y-82985000D01*
X85612923Y-83041795D01*
X85642394Y-83136046D01*
X85696907Y-83218389D01*
X85705589Y-83225766D01*
X85694143Y-83242897D01*
X85671529Y-83297494D01*
X85660000Y-83355453D01*
X85660000Y-83510000D01*
X85735000Y-83585000D01*
X86260000Y-83585000D01*
X86260000Y-83565000D01*
X86460000Y-83565000D01*
X86460000Y-83585000D01*
X86985000Y-83585000D01*
X87060000Y-83510000D01*
X87060000Y-83355453D01*
X87048471Y-83297494D01*
X87025857Y-83242897D01*
X87013507Y-83224414D01*
X87057330Y-83172838D01*
X87097829Y-83082773D01*
X87111694Y-82985000D01*
X87111694Y-84456259D01*
X87085407Y-84434666D01*
X87060000Y-84413347D01*
X87060000Y-84014547D01*
X87060000Y-83860000D01*
X86985000Y-83785000D01*
X86460000Y-83785000D01*
X86460000Y-84210000D01*
X86535000Y-84285000D01*
X86730453Y-84285000D01*
X86789548Y-84285000D01*
X86847507Y-84273471D01*
X86902104Y-84250856D01*
X86951239Y-84218025D01*
X86993025Y-84176239D01*
X87025857Y-84127103D01*
X87048471Y-84072506D01*
X87060000Y-84014547D01*
X87060000Y-84413347D01*
X87049983Y-84404942D01*
X87047676Y-84403673D01*
X87045647Y-84402007D01*
X87004977Y-84380200D01*
X86964470Y-84357931D01*
X86961962Y-84357135D01*
X86959647Y-84355894D01*
X86915483Y-84342391D01*
X86871455Y-84328425D01*
X86868843Y-84328132D01*
X86866328Y-84327363D01*
X86820351Y-84322693D01*
X86774480Y-84317548D01*
X86769341Y-84317511D01*
X86769244Y-84317502D01*
X86769152Y-84317510D01*
X86767499Y-84317499D01*
X86144352Y-84317499D01*
X86142103Y-84306138D01*
X86133390Y-84285000D01*
X86185000Y-84285000D01*
X86260000Y-84210000D01*
X86260000Y-83785000D01*
X85735000Y-83785000D01*
X85667138Y-83852861D01*
X85570110Y-83832944D01*
X85439210Y-83832030D01*
X85310625Y-83856559D01*
X85189253Y-83905597D01*
X85079718Y-83977275D01*
X84986191Y-84068863D01*
X84912235Y-84176873D01*
X84860666Y-84297191D01*
X84833450Y-84425234D01*
X84831622Y-84556125D01*
X84855253Y-84684878D01*
X84903442Y-84806589D01*
X84974353Y-84916622D01*
X85065287Y-85010787D01*
X85172778Y-85085495D01*
X85292733Y-85137902D01*
X85420583Y-85166012D01*
X85459724Y-85166831D01*
X85463945Y-85171052D01*
X85499637Y-85200370D01*
X85535015Y-85230056D01*
X85537318Y-85231322D01*
X85539350Y-85232991D01*
X85580041Y-85254809D01*
X85620528Y-85277067D01*
X85623035Y-85277862D01*
X85625351Y-85279104D01*
X85669514Y-85292606D01*
X85713543Y-85306573D01*
X85716154Y-85306865D01*
X85718670Y-85307635D01*
X85764601Y-85312299D01*
X85810518Y-85317450D01*
X85815666Y-85317486D01*
X85815754Y-85317495D01*
X85815835Y-85317487D01*
X85817499Y-85317499D01*
X86560392Y-85317499D01*
X86950000Y-85707106D01*
X86950000Y-86596147D01*
X86902104Y-86564144D01*
X86847507Y-86541529D01*
X86789548Y-86530000D01*
X86730453Y-86530000D01*
X86535000Y-86530000D01*
X86460000Y-86605000D01*
X86460000Y-87030000D01*
X86480000Y-87030000D01*
X86480000Y-87230000D01*
X86460000Y-87230000D01*
X86460000Y-87250000D01*
X86260000Y-87250000D01*
X86260000Y-87230000D01*
X86260000Y-87030000D01*
X86260000Y-86605000D01*
X86185000Y-86530000D01*
X85989547Y-86530000D01*
X85930452Y-86530000D01*
X85872493Y-86541529D01*
X85817896Y-86564144D01*
X85768761Y-86596975D01*
X85726975Y-86638761D01*
X85694143Y-86687897D01*
X85671529Y-86742494D01*
X85660000Y-86800453D01*
X85660000Y-86955000D01*
X85735000Y-87030000D01*
X86260000Y-87030000D01*
X86260000Y-87230000D01*
X85735000Y-87230000D01*
X85660000Y-87305000D01*
X85660000Y-87459547D01*
X85671529Y-87517506D01*
X85694143Y-87572103D01*
X85706492Y-87590585D01*
X85662670Y-87642162D01*
X85622171Y-87732227D01*
X85608306Y-87830000D01*
X85608306Y-88430000D01*
X85612923Y-88486795D01*
X85642394Y-88581046D01*
X85696907Y-88663389D01*
X85772162Y-88727330D01*
X85862227Y-88767829D01*
X85960000Y-88781694D01*
X86760000Y-88781694D01*
X86816795Y-88777077D01*
X86911046Y-88747606D01*
X86993389Y-88693093D01*
X87046996Y-88630000D01*
X87060000Y-88630000D01*
X87105943Y-88625495D01*
X87151976Y-88621468D01*
X87154500Y-88620734D01*
X87157117Y-88620478D01*
X87201323Y-88607131D01*
X87245684Y-88594243D01*
X87248019Y-88593032D01*
X87250535Y-88592273D01*
X87291285Y-88570605D01*
X87332320Y-88549336D01*
X87334376Y-88547694D01*
X87336696Y-88546461D01*
X87372484Y-88517272D01*
X87408582Y-88488455D01*
X87412239Y-88484847D01*
X87412317Y-88484785D01*
X87412376Y-88484713D01*
X87413553Y-88483553D01*
X87803553Y-88093554D01*
X87832852Y-88057883D01*
X87862557Y-88022484D01*
X87863825Y-88020177D01*
X87865492Y-88018148D01*
X87887298Y-87977478D01*
X87909568Y-87936971D01*
X87910363Y-87934463D01*
X87911605Y-87932148D01*
X87925107Y-87887984D01*
X87939074Y-87843956D01*
X87939366Y-87841344D01*
X87940136Y-87838829D01*
X87944800Y-87792897D01*
X87949951Y-87746981D01*
X87949987Y-87741832D01*
X87949996Y-87741745D01*
X87949988Y-87741663D01*
X87950000Y-87740000D01*
X87950000Y-90747584D01*
X87865358Y-90871201D01*
X87774582Y-91082996D01*
X87726673Y-91308390D01*
X87723456Y-91538797D01*
X87765053Y-91765441D01*
X87849879Y-91979689D01*
X87974705Y-92173380D01*
X88134775Y-92339137D01*
X88323991Y-92470646D01*
X88535148Y-92562898D01*
X88760202Y-92612379D01*
X88990581Y-92617205D01*
X89217510Y-92577192D01*
X89432344Y-92493863D01*
X89626902Y-92370392D01*
X89793773Y-92211484D01*
X89926600Y-92023190D01*
X90020324Y-91812682D01*
X90071375Y-91587979D01*
X90075050Y-91324785D01*
X90075050Y-92942600D01*
X87535050Y-92942600D01*
X87535050Y-91324785D01*
X87490293Y-91098744D01*
X87402483Y-90885702D01*
X87274965Y-90693772D01*
X87112597Y-90530267D01*
X86921562Y-90401412D01*
X86709138Y-90312117D01*
X86483415Y-90265783D01*
X86252991Y-90264174D01*
X86026644Y-90307352D01*
X85812993Y-90393673D01*
X85620178Y-90519847D01*
X85455543Y-90681070D01*
X85350009Y-90835199D01*
X85350009Y-85864852D01*
X85324583Y-85736442D01*
X85274699Y-85615415D01*
X85202259Y-85506383D01*
X85110019Y-85413498D01*
X85001495Y-85340297D01*
X84880820Y-85289570D01*
X84752590Y-85263248D01*
X84621690Y-85262334D01*
X84571694Y-85271871D01*
X84571694Y-82985000D01*
X84571694Y-82385000D01*
X84567077Y-82328205D01*
X84537606Y-82233954D01*
X84483093Y-82151611D01*
X84464956Y-82136201D01*
X84465441Y-82134069D01*
X84467529Y-81984552D01*
X84442103Y-81856142D01*
X84392219Y-81735115D01*
X84319779Y-81626083D01*
X84227539Y-81533198D01*
X84119015Y-81459997D01*
X83998340Y-81409270D01*
X83870110Y-81382948D01*
X83739210Y-81382034D01*
X83610625Y-81406563D01*
X83489253Y-81455601D01*
X83379718Y-81527279D01*
X83286191Y-81618867D01*
X83212235Y-81726877D01*
X83160666Y-81847195D01*
X83133450Y-81975238D01*
X83131622Y-82106129D01*
X83143771Y-82172326D01*
X83122670Y-82197162D01*
X83082171Y-82287227D01*
X83068306Y-82385000D01*
X83068306Y-82985000D01*
X83072923Y-83041795D01*
X83102394Y-83136046D01*
X83156907Y-83218389D01*
X83165589Y-83225766D01*
X83154143Y-83242897D01*
X83131529Y-83297494D01*
X83120000Y-83355453D01*
X83120000Y-83510000D01*
X83195000Y-83585000D01*
X83720000Y-83585000D01*
X83720000Y-83565000D01*
X83920000Y-83565000D01*
X83920000Y-83585000D01*
X84445000Y-83585000D01*
X84520000Y-83510000D01*
X84520000Y-83355453D01*
X84508471Y-83297494D01*
X84485857Y-83242897D01*
X84473507Y-83224414D01*
X84517330Y-83172838D01*
X84557829Y-83082773D01*
X84571694Y-82985000D01*
X84571694Y-85271871D01*
X84520000Y-85281732D01*
X84520000Y-84014547D01*
X84520000Y-83860000D01*
X84445000Y-83785000D01*
X83920000Y-83785000D01*
X83920000Y-84210000D01*
X83995000Y-84285000D01*
X84190453Y-84285000D01*
X84249548Y-84285000D01*
X84307507Y-84273471D01*
X84362104Y-84250856D01*
X84411239Y-84218025D01*
X84453025Y-84176239D01*
X84485857Y-84127103D01*
X84508471Y-84072506D01*
X84520000Y-84014547D01*
X84520000Y-85281732D01*
X84493105Y-85286863D01*
X84371733Y-85335901D01*
X84262198Y-85407579D01*
X84238991Y-85430304D01*
X84233468Y-85430304D01*
X83720000Y-85430304D01*
X83720000Y-84210000D01*
X83720000Y-83785000D01*
X83195000Y-83785000D01*
X83120000Y-83860000D01*
X83120000Y-84014547D01*
X83131529Y-84072506D01*
X83154143Y-84127103D01*
X83186975Y-84176239D01*
X83228761Y-84218025D01*
X83277896Y-84250856D01*
X83332493Y-84273471D01*
X83390452Y-84285000D01*
X83449547Y-84285000D01*
X83645000Y-84285000D01*
X83720000Y-84210000D01*
X83720000Y-85430304D01*
X83019696Y-85430304D01*
X82973752Y-85434808D01*
X82927720Y-85438836D01*
X82925195Y-85439569D01*
X82922579Y-85439826D01*
X82878372Y-85453172D01*
X82834012Y-85466061D01*
X82831676Y-85467271D01*
X82829161Y-85468031D01*
X82788371Y-85489719D01*
X82747376Y-85510969D01*
X82745323Y-85512607D01*
X82743000Y-85513843D01*
X82707184Y-85543054D01*
X82671114Y-85571849D01*
X82667456Y-85575456D01*
X82667379Y-85575519D01*
X82667319Y-85575590D01*
X82666143Y-85576751D01*
X82296447Y-85946447D01*
X82267167Y-85982091D01*
X82237443Y-86017516D01*
X82236174Y-86019822D01*
X82234508Y-86021852D01*
X82212701Y-86062521D01*
X82190432Y-86103029D01*
X82189636Y-86105536D01*
X82188395Y-86107852D01*
X82174892Y-86152015D01*
X82160926Y-86196044D01*
X82160633Y-86198655D01*
X82159864Y-86201171D01*
X82155194Y-86247147D01*
X82150049Y-86293019D01*
X82150012Y-86298157D01*
X82150003Y-86298255D01*
X82150011Y-86298346D01*
X82150000Y-86300000D01*
X82150000Y-87660000D01*
X82154504Y-87705943D01*
X82158532Y-87751976D01*
X82159265Y-87754500D01*
X82159522Y-87757117D01*
X82172868Y-87801323D01*
X82185757Y-87845684D01*
X82186967Y-87848019D01*
X82187727Y-87850535D01*
X82209394Y-87891285D01*
X82230664Y-87932320D01*
X82232305Y-87934376D01*
X82233539Y-87936696D01*
X82262727Y-87972484D01*
X82291545Y-88008582D01*
X82295152Y-88012239D01*
X82295215Y-88012317D01*
X82295286Y-88012376D01*
X82296447Y-88013553D01*
X82766446Y-88483553D01*
X82802116Y-88512852D01*
X82837516Y-88542557D01*
X82839822Y-88543825D01*
X82841852Y-88545492D01*
X82882521Y-88567298D01*
X82923029Y-88589568D01*
X82925536Y-88590363D01*
X82927852Y-88591605D01*
X82972015Y-88605107D01*
X83016044Y-88619074D01*
X83018655Y-88619366D01*
X83021171Y-88620136D01*
X83067102Y-88624800D01*
X83113019Y-88629951D01*
X83118167Y-88629987D01*
X83118255Y-88629996D01*
X83118336Y-88629988D01*
X83120000Y-88630000D01*
X83134802Y-88630000D01*
X83156907Y-88663389D01*
X83232162Y-88727330D01*
X83322227Y-88767829D01*
X83420000Y-88781694D01*
X84220000Y-88781694D01*
X84276795Y-88777077D01*
X84371046Y-88747606D01*
X84453389Y-88693093D01*
X84517330Y-88617838D01*
X84557829Y-88527773D01*
X84571694Y-88430000D01*
X84571694Y-87830000D01*
X84567077Y-87773205D01*
X84537606Y-87678954D01*
X84483093Y-87596611D01*
X84474410Y-87589233D01*
X84485857Y-87572103D01*
X84508471Y-87517506D01*
X84520000Y-87459547D01*
X84520000Y-87305000D01*
X84520000Y-86955000D01*
X84520000Y-86800453D01*
X84508471Y-86742494D01*
X84485857Y-86687897D01*
X84453025Y-86638761D01*
X84411239Y-86596975D01*
X84362104Y-86564144D01*
X84307507Y-86541529D01*
X84249548Y-86530000D01*
X84190453Y-86530000D01*
X83995000Y-86530000D01*
X83920000Y-86605000D01*
X83920000Y-87030000D01*
X84445000Y-87030000D01*
X84520000Y-86955000D01*
X84520000Y-87305000D01*
X84445000Y-87230000D01*
X83920000Y-87230000D01*
X83920000Y-87250000D01*
X83720000Y-87250000D01*
X83720000Y-87230000D01*
X83700000Y-87230000D01*
X83700000Y-87030000D01*
X83720000Y-87030000D01*
X83720000Y-86605000D01*
X83645000Y-86530000D01*
X83449547Y-86530000D01*
X83390452Y-86530000D01*
X83332493Y-86541529D01*
X83277896Y-86564144D01*
X83228761Y-86596975D01*
X83186975Y-86638761D01*
X83154143Y-86687897D01*
X83150000Y-86697899D01*
X83150000Y-86507106D01*
X83226802Y-86430304D01*
X84233468Y-86430304D01*
X84237350Y-86430304D01*
X84247767Y-86441091D01*
X84355258Y-86515799D01*
X84475213Y-86568206D01*
X84603063Y-86596316D01*
X84733938Y-86599057D01*
X84862853Y-86576326D01*
X84984897Y-86528988D01*
X85095423Y-86458846D01*
X85190219Y-86368573D01*
X85265676Y-86261606D01*
X85318920Y-86142019D01*
X85347921Y-86014369D01*
X85350009Y-85864852D01*
X85350009Y-90835199D01*
X85325358Y-90871201D01*
X85234582Y-91082996D01*
X85186673Y-91308390D01*
X85183456Y-91538797D01*
X85225053Y-91765441D01*
X85309879Y-91979689D01*
X85434705Y-92173380D01*
X85594775Y-92339137D01*
X85783991Y-92470646D01*
X85995148Y-92562898D01*
X86220202Y-92612379D01*
X86450581Y-92617205D01*
X86677510Y-92577192D01*
X86892344Y-92493863D01*
X87086902Y-92370392D01*
X87253773Y-92211484D01*
X87386600Y-92023190D01*
X87480324Y-91812682D01*
X87531375Y-91587979D01*
X87535050Y-91324785D01*
X87535050Y-92942600D01*
X84995050Y-92942600D01*
X84995050Y-91324785D01*
X84950293Y-91098744D01*
X84862483Y-90885702D01*
X84734965Y-90693772D01*
X84572597Y-90530267D01*
X84381562Y-90401412D01*
X84169138Y-90312117D01*
X83943415Y-90265783D01*
X83712991Y-90264174D01*
X83486644Y-90307352D01*
X83272993Y-90393673D01*
X83080178Y-90519847D01*
X82915543Y-90681070D01*
X82785358Y-90871201D01*
X82694582Y-91082996D01*
X82646673Y-91308390D01*
X82643456Y-91538797D01*
X82685053Y-91765441D01*
X82769879Y-91979689D01*
X82894705Y-92173380D01*
X83054775Y-92339137D01*
X83243991Y-92470646D01*
X83455148Y-92562898D01*
X83680202Y-92612379D01*
X83910581Y-92617205D01*
X84137510Y-92577192D01*
X84352344Y-92493863D01*
X84546902Y-92370392D01*
X84713773Y-92211484D01*
X84846600Y-92023190D01*
X84940324Y-91812682D01*
X84991375Y-91587979D01*
X84995050Y-91324785D01*
X84995050Y-92942600D01*
X82455050Y-92942600D01*
X82455050Y-91324785D01*
X82410293Y-91098744D01*
X82322483Y-90885702D01*
X82194965Y-90693772D01*
X82032597Y-90530267D01*
X82031694Y-90529657D01*
X82031694Y-88430000D01*
X82031694Y-87830000D01*
X82031694Y-82985000D01*
X82031694Y-82385000D01*
X82027077Y-82328205D01*
X81997606Y-82233954D01*
X81948301Y-82159478D01*
X81965435Y-82084065D01*
X81967523Y-81934548D01*
X81942097Y-81806138D01*
X81892213Y-81685111D01*
X81819773Y-81576079D01*
X81727533Y-81483194D01*
X81619009Y-81409993D01*
X81498334Y-81359266D01*
X81370104Y-81332944D01*
X81239204Y-81332030D01*
X81110619Y-81356559D01*
X80989247Y-81405597D01*
X80879712Y-81477275D01*
X80786185Y-81568863D01*
X80712229Y-81676873D01*
X80660660Y-81797191D01*
X80633444Y-81925234D01*
X80631616Y-82056125D01*
X80644208Y-82124734D01*
X80582670Y-82197162D01*
X80542171Y-82287227D01*
X80528306Y-82385000D01*
X80528306Y-82985000D01*
X80532923Y-83041795D01*
X80562394Y-83136046D01*
X80616907Y-83218389D01*
X80625589Y-83225766D01*
X80614143Y-83242897D01*
X80591529Y-83297494D01*
X80580000Y-83355453D01*
X80580000Y-83510000D01*
X80655000Y-83585000D01*
X81180000Y-83585000D01*
X81180000Y-83565000D01*
X81380000Y-83565000D01*
X81380000Y-83585000D01*
X81905000Y-83585000D01*
X81980000Y-83510000D01*
X81980000Y-83355453D01*
X81968471Y-83297494D01*
X81945857Y-83242897D01*
X81933507Y-83224414D01*
X81977330Y-83172838D01*
X82017829Y-83082773D01*
X82031694Y-82985000D01*
X82031694Y-87830000D01*
X82027077Y-87773205D01*
X81997606Y-87678954D01*
X81943093Y-87596611D01*
X81934410Y-87589233D01*
X81945857Y-87572103D01*
X81968471Y-87517506D01*
X81980000Y-87459547D01*
X81980000Y-87305000D01*
X81980000Y-86955000D01*
X81980000Y-86800453D01*
X81980000Y-84014547D01*
X81980000Y-83860000D01*
X81905000Y-83785000D01*
X81380000Y-83785000D01*
X81380000Y-84210000D01*
X81455000Y-84285000D01*
X81650453Y-84285000D01*
X81709548Y-84285000D01*
X81767507Y-84273471D01*
X81822104Y-84250856D01*
X81871239Y-84218025D01*
X81913025Y-84176239D01*
X81945857Y-84127103D01*
X81968471Y-84072506D01*
X81980000Y-84014547D01*
X81980000Y-86800453D01*
X81968471Y-86742494D01*
X81945857Y-86687897D01*
X81913025Y-86638761D01*
X81871239Y-86596975D01*
X81822104Y-86564144D01*
X81767507Y-86541529D01*
X81709548Y-86530000D01*
X81650453Y-86530000D01*
X81455000Y-86530000D01*
X81380000Y-86605000D01*
X81380000Y-87030000D01*
X81905000Y-87030000D01*
X81980000Y-86955000D01*
X81980000Y-87305000D01*
X81905000Y-87230000D01*
X81380000Y-87230000D01*
X81380000Y-87250000D01*
X81180000Y-87250000D01*
X81180000Y-87230000D01*
X81180000Y-87030000D01*
X81180000Y-86605000D01*
X81180000Y-84210000D01*
X81180000Y-83785000D01*
X80655000Y-83785000D01*
X80580000Y-83860000D01*
X80580000Y-84014547D01*
X80591529Y-84072506D01*
X80614143Y-84127103D01*
X80646975Y-84176239D01*
X80688761Y-84218025D01*
X80737896Y-84250856D01*
X80792493Y-84273471D01*
X80850452Y-84285000D01*
X80909547Y-84285000D01*
X81105000Y-84285000D01*
X81180000Y-84210000D01*
X81180000Y-86605000D01*
X81105000Y-86530000D01*
X80909547Y-86530000D01*
X80850452Y-86530000D01*
X80792493Y-86541529D01*
X80737896Y-86564144D01*
X80688761Y-86596975D01*
X80646975Y-86638761D01*
X80614143Y-86687897D01*
X80591529Y-86742494D01*
X80580000Y-86800453D01*
X80580000Y-86955000D01*
X80655000Y-87030000D01*
X81180000Y-87030000D01*
X81180000Y-87230000D01*
X80655000Y-87230000D01*
X80580000Y-87305000D01*
X80580000Y-87459547D01*
X80591529Y-87517506D01*
X80614143Y-87572103D01*
X80626492Y-87590585D01*
X80582670Y-87642162D01*
X80542171Y-87732227D01*
X80528306Y-87830000D01*
X80528306Y-88430000D01*
X80532923Y-88486795D01*
X80562394Y-88581046D01*
X80616907Y-88663389D01*
X80642053Y-88684755D01*
X80633450Y-88725234D01*
X80631622Y-88856125D01*
X80655253Y-88984878D01*
X80703442Y-89106589D01*
X80774353Y-89216622D01*
X80865287Y-89310787D01*
X80972778Y-89385495D01*
X81092733Y-89437902D01*
X81220583Y-89466012D01*
X81351458Y-89468753D01*
X81480373Y-89446022D01*
X81602417Y-89398684D01*
X81712943Y-89328542D01*
X81807739Y-89238269D01*
X81883196Y-89131302D01*
X81936440Y-89011715D01*
X81965441Y-88884065D01*
X81967529Y-88734548D01*
X81950639Y-88649251D01*
X81977330Y-88617838D01*
X82017829Y-88527773D01*
X82031694Y-88430000D01*
X82031694Y-90529657D01*
X81841562Y-90401412D01*
X81629138Y-90312117D01*
X81403415Y-90265783D01*
X81172991Y-90264174D01*
X80946644Y-90307352D01*
X80732993Y-90393673D01*
X80540178Y-90519847D01*
X80375543Y-90681070D01*
X80245358Y-90871201D01*
X80154582Y-91082996D01*
X80106673Y-91308390D01*
X80103456Y-91538797D01*
X80145053Y-91765441D01*
X80229879Y-91979689D01*
X80354705Y-92173380D01*
X80514775Y-92339137D01*
X80703991Y-92470646D01*
X80915148Y-92562898D01*
X81140202Y-92612379D01*
X81370581Y-92617205D01*
X81597510Y-92577192D01*
X81812344Y-92493863D01*
X82006902Y-92370392D01*
X82173773Y-92211484D01*
X82306600Y-92023190D01*
X82400324Y-91812682D01*
X82451375Y-91587979D01*
X82455050Y-91324785D01*
X82455050Y-92942600D01*
X80022228Y-92942600D01*
X79965052Y-92936993D01*
X79921820Y-92923941D01*
X79881944Y-92902739D01*
X79846949Y-92874198D01*
X79818158Y-92839395D01*
X79796679Y-92799669D01*
X79783325Y-92756531D01*
X79777400Y-92700148D01*
X79777400Y-81190628D01*
X79783006Y-81133452D01*
X79796058Y-81090220D01*
X79817261Y-81050343D01*
X79845802Y-81015348D01*
X79880603Y-80986559D01*
X79920327Y-80965080D01*
X79963469Y-80951725D01*
X80019851Y-80945800D01*
X102781571Y-80945800D01*
X102838747Y-80951406D01*
X102881979Y-80964458D01*
X102921856Y-80985661D01*
X102956851Y-81014202D01*
X102985640Y-81049003D01*
X103007119Y-81088727D01*
X103020474Y-81131869D01*
X103026400Y-81188251D01*
X103026400Y-92697771D01*
X103026400Y-92697771D01*
G37*
X103026400Y-92697771D02*
X103020793Y-92754947D01*
X103007741Y-92798179D01*
X102986539Y-92838055D01*
X102957998Y-92873050D01*
X102923195Y-92901841D01*
X102883469Y-92923320D01*
X102840331Y-92936674D01*
X102783948Y-92942600D01*
X102725000Y-92942600D01*
X102725000Y-92294548D01*
X102725000Y-92235453D01*
X102725000Y-91615000D01*
X102725000Y-91265000D01*
X102725000Y-90644547D01*
X102725000Y-90585452D01*
X102713471Y-90527493D01*
X102690856Y-90472896D01*
X102658025Y-90423761D01*
X102616239Y-90381975D01*
X102567103Y-90349143D01*
X102512506Y-90326529D01*
X102454547Y-90315000D01*
X101775000Y-90315000D01*
X101700000Y-90390000D01*
X101700000Y-91340000D01*
X102650000Y-91340000D01*
X102725000Y-91265000D01*
X102725000Y-91615000D01*
X102650000Y-91540000D01*
X101700000Y-91540000D01*
X101700000Y-92490000D01*
X101775000Y-92565000D01*
X102454547Y-92565000D01*
X102512506Y-92553471D01*
X102567103Y-92530857D01*
X102616239Y-92498025D01*
X102658025Y-92456239D01*
X102690856Y-92407104D01*
X102713471Y-92352507D01*
X102725000Y-92294548D01*
X102725000Y-92942600D01*
X101500000Y-92942600D01*
X101500000Y-92490000D01*
X101500000Y-91540000D01*
X101500000Y-91340000D01*
X101500000Y-90390000D01*
X101425000Y-90315000D01*
X100745453Y-90315000D01*
X100687494Y-90326529D01*
X100632897Y-90349143D01*
X100583761Y-90381975D01*
X100541975Y-90423761D01*
X100509144Y-90472896D01*
X100486529Y-90527493D01*
X100475000Y-90585452D01*
X100475000Y-90644547D01*
X100475000Y-91265000D01*
X100550000Y-91340000D01*
X101500000Y-91340000D01*
X101500000Y-91540000D01*
X100550000Y-91540000D01*
X100475000Y-91615000D01*
X100475000Y-92235453D01*
X100475000Y-92294548D01*
X100486529Y-92352507D01*
X100509144Y-92407104D01*
X100541975Y-92456239D01*
X100583761Y-92498025D01*
X100632897Y-92530857D01*
X100687494Y-92553471D01*
X100745453Y-92565000D01*
X101425000Y-92565000D01*
X101500000Y-92490000D01*
X101500000Y-92942600D01*
X100235050Y-92942600D01*
X100235050Y-91324785D01*
X100190293Y-91098744D01*
X100102483Y-90885702D01*
X99974965Y-90693772D01*
X99812597Y-90530267D01*
X99811694Y-90529657D01*
X99811694Y-88430000D01*
X99811694Y-87830000D01*
X99811694Y-82985000D01*
X99811694Y-82385000D01*
X99807077Y-82328205D01*
X99777606Y-82233954D01*
X99751653Y-82194752D01*
X99765441Y-82134065D01*
X99767529Y-81984548D01*
X99742103Y-81856138D01*
X99692219Y-81735111D01*
X99619779Y-81626079D01*
X99527539Y-81533194D01*
X99419015Y-81459993D01*
X99298340Y-81409266D01*
X99170110Y-81382944D01*
X99039210Y-81382030D01*
X98910625Y-81406559D01*
X98789253Y-81455597D01*
X98679718Y-81527275D01*
X98586191Y-81618863D01*
X98512235Y-81726873D01*
X98460666Y-81847191D01*
X98433450Y-81975234D01*
X98431622Y-82106125D01*
X98433661Y-82117239D01*
X98426611Y-82121907D01*
X98362670Y-82197162D01*
X98322171Y-82287227D01*
X98308306Y-82385000D01*
X98308306Y-82985000D01*
X98312923Y-83041795D01*
X98342394Y-83136046D01*
X98396907Y-83218389D01*
X98405589Y-83225766D01*
X98394143Y-83242897D01*
X98371529Y-83297494D01*
X98360000Y-83355453D01*
X98360000Y-83510000D01*
X98435000Y-83585000D01*
X98960000Y-83585000D01*
X98960000Y-83565000D01*
X99160000Y-83565000D01*
X99160000Y-83585000D01*
X99685000Y-83585000D01*
X99760000Y-83510000D01*
X99760000Y-83355453D01*
X99748471Y-83297494D01*
X99725857Y-83242897D01*
X99713507Y-83224414D01*
X99757330Y-83172838D01*
X99797829Y-83082773D01*
X99811694Y-82985000D01*
X99811694Y-87830000D01*
X99807077Y-87773205D01*
X99777606Y-87678954D01*
X99723093Y-87596611D01*
X99714410Y-87589233D01*
X99725857Y-87572103D01*
X99748471Y-87517506D01*
X99760000Y-87459547D01*
X99760000Y-87305000D01*
X99760000Y-86955000D01*
X99760000Y-86800453D01*
X99760000Y-84014547D01*
X99760000Y-83860000D01*
X99685000Y-83785000D01*
X99160000Y-83785000D01*
X99160000Y-84210000D01*
X99235000Y-84285000D01*
X99430453Y-84285000D01*
X99489548Y-84285000D01*
X99547507Y-84273471D01*
X99602104Y-84250856D01*
X99651239Y-84218025D01*
X99693025Y-84176239D01*
X99725857Y-84127103D01*
X99748471Y-84072506D01*
X99760000Y-84014547D01*
X99760000Y-86800453D01*
X99748471Y-86742494D01*
X99725857Y-86687897D01*
X99693025Y-86638761D01*
X99651239Y-86596975D01*
X99602104Y-86564144D01*
X99547507Y-86541529D01*
X99489548Y-86530000D01*
X99430453Y-86530000D01*
X99235000Y-86530000D01*
X99160000Y-86605000D01*
X99160000Y-87030000D01*
X99685000Y-87030000D01*
X99760000Y-86955000D01*
X99760000Y-87305000D01*
X99685000Y-87230000D01*
X99160000Y-87230000D01*
X99160000Y-87250000D01*
X98960000Y-87250000D01*
X98960000Y-87230000D01*
X98960000Y-87030000D01*
X98960000Y-86605000D01*
X98960000Y-84210000D01*
X98960000Y-83785000D01*
X98435000Y-83785000D01*
X98360000Y-83860000D01*
X98360000Y-84014547D01*
X98371529Y-84072506D01*
X98394143Y-84127103D01*
X98426975Y-84176239D01*
X98468761Y-84218025D01*
X98517896Y-84250856D01*
X98572493Y-84273471D01*
X98630452Y-84285000D01*
X98689547Y-84285000D01*
X98885000Y-84285000D01*
X98960000Y-84210000D01*
X98960000Y-86605000D01*
X98885000Y-86530000D01*
X98689547Y-86530000D01*
X98630452Y-86530000D01*
X98572493Y-86541529D01*
X98517896Y-86564144D01*
X98468761Y-86596975D01*
X98426975Y-86638761D01*
X98394143Y-86687897D01*
X98371529Y-86742494D01*
X98360000Y-86800453D01*
X98360000Y-86955000D01*
X98435000Y-87030000D01*
X98960000Y-87030000D01*
X98960000Y-87230000D01*
X98435000Y-87230000D01*
X98360000Y-87305000D01*
X98360000Y-87459547D01*
X98371529Y-87517506D01*
X98394143Y-87572103D01*
X98406492Y-87590585D01*
X98362670Y-87642162D01*
X98322171Y-87732227D01*
X98308306Y-87830000D01*
X98308306Y-88430000D01*
X98312923Y-88486795D01*
X98342394Y-88581046D01*
X98388626Y-88650880D01*
X98383450Y-88675234D01*
X98381622Y-88806125D01*
X98405253Y-88934878D01*
X98453442Y-89056589D01*
X98524353Y-89166622D01*
X98615287Y-89260787D01*
X98722778Y-89335495D01*
X98842733Y-89387902D01*
X98970583Y-89416012D01*
X99101458Y-89418753D01*
X99230373Y-89396022D01*
X99352417Y-89348684D01*
X99462943Y-89278542D01*
X99557739Y-89188269D01*
X99633196Y-89081302D01*
X99686440Y-88961715D01*
X99715441Y-88834065D01*
X99717529Y-88684548D01*
X99714338Y-88668436D01*
X99757330Y-88617838D01*
X99797829Y-88527773D01*
X99811694Y-88430000D01*
X99811694Y-90529657D01*
X99621562Y-90401412D01*
X99409138Y-90312117D01*
X99183415Y-90265783D01*
X98952991Y-90264174D01*
X98726644Y-90307352D01*
X98512993Y-90393673D01*
X98320178Y-90519847D01*
X98155543Y-90681070D01*
X98150000Y-90689165D01*
X98150000Y-87700000D01*
X98150000Y-86200000D01*
X98145494Y-86154047D01*
X98141468Y-86108025D01*
X98140734Y-86105500D01*
X98140478Y-86102883D01*
X98127127Y-86058664D01*
X98114243Y-86014316D01*
X98113032Y-86011980D01*
X98112273Y-86009465D01*
X98090595Y-85968694D01*
X98069336Y-85927681D01*
X98067695Y-85925626D01*
X98066461Y-85923304D01*
X98037254Y-85887493D01*
X98008455Y-85851418D01*
X98004847Y-85847760D01*
X98004785Y-85847683D01*
X98004713Y-85847623D01*
X98003553Y-85846447D01*
X97853551Y-85696445D01*
X97817906Y-85667165D01*
X97782482Y-85637441D01*
X97780175Y-85636172D01*
X97778146Y-85634506D01*
X97737476Y-85612699D01*
X97696969Y-85590430D01*
X97694461Y-85589634D01*
X97692146Y-85588393D01*
X97647982Y-85574890D01*
X97603954Y-85560924D01*
X97601342Y-85560631D01*
X97598827Y-85559862D01*
X97552850Y-85555192D01*
X97506979Y-85550047D01*
X97501840Y-85550010D01*
X97501743Y-85550001D01*
X97501651Y-85550009D01*
X97499998Y-85549998D01*
X97271694Y-85549998D01*
X97271694Y-82985000D01*
X97271694Y-82385000D01*
X97267077Y-82328205D01*
X97237606Y-82233954D01*
X97204208Y-82183506D01*
X97215441Y-82134065D01*
X97217529Y-81984548D01*
X97192103Y-81856138D01*
X97142219Y-81735111D01*
X97069779Y-81626079D01*
X96977539Y-81533194D01*
X96869015Y-81459993D01*
X96748340Y-81409266D01*
X96620110Y-81382944D01*
X96489210Y-81382030D01*
X96360625Y-81406559D01*
X96239253Y-81455597D01*
X96129718Y-81527275D01*
X96036191Y-81618863D01*
X95962235Y-81726873D01*
X95910666Y-81847191D01*
X95883450Y-81975234D01*
X95881622Y-82106125D01*
X95884890Y-82123932D01*
X95822670Y-82197162D01*
X95782171Y-82287227D01*
X95768306Y-82385000D01*
X95768306Y-82985000D01*
X95772923Y-83041795D01*
X95802394Y-83136046D01*
X95856907Y-83218389D01*
X95865589Y-83225766D01*
X95854143Y-83242897D01*
X95831529Y-83297494D01*
X95820000Y-83355453D01*
X95820000Y-83510000D01*
X95895000Y-83585000D01*
X96420000Y-83585000D01*
X96420000Y-83565000D01*
X96620000Y-83565000D01*
X96620000Y-83585000D01*
X97145000Y-83585000D01*
X97220000Y-83510000D01*
X97220000Y-83355453D01*
X97208471Y-83297494D01*
X97185857Y-83242897D01*
X97173507Y-83224414D01*
X97217330Y-83172838D01*
X97257829Y-83082773D01*
X97271694Y-82985000D01*
X97271694Y-85549998D01*
X97220000Y-85549998D01*
X97220000Y-84014547D01*
X97220000Y-83860000D01*
X97145000Y-83785000D01*
X96620000Y-83785000D01*
X96620000Y-84210000D01*
X96695000Y-84285000D01*
X96890453Y-84285000D01*
X96949548Y-84285000D01*
X97007507Y-84273471D01*
X97062104Y-84250856D01*
X97111239Y-84218025D01*
X97153025Y-84176239D01*
X97185857Y-84127103D01*
X97208471Y-84072506D01*
X97220000Y-84014547D01*
X97220000Y-85549998D01*
X96420000Y-85549998D01*
X96420000Y-84210000D01*
X96420000Y-83785000D01*
X95895000Y-83785000D01*
X95820000Y-83860000D01*
X95820000Y-84014547D01*
X95831529Y-84072506D01*
X95854143Y-84127103D01*
X95886975Y-84176239D01*
X95928761Y-84218025D01*
X95977896Y-84250856D01*
X96032493Y-84273471D01*
X96090452Y-84285000D01*
X96149547Y-84285000D01*
X96345000Y-84285000D01*
X96420000Y-84210000D01*
X96420000Y-85549998D01*
X96149012Y-85549998D01*
X96144228Y-85549998D01*
X96127539Y-85533192D01*
X96019015Y-85459991D01*
X95898340Y-85409264D01*
X95770110Y-85382942D01*
X95639210Y-85382028D01*
X95567529Y-85395701D01*
X95567529Y-84518924D01*
X95542103Y-84390514D01*
X95492219Y-84269487D01*
X95419779Y-84160455D01*
X95327539Y-84067570D01*
X95219015Y-83994369D01*
X95098340Y-83943642D01*
X94970110Y-83917320D01*
X94839210Y-83916406D01*
X94731694Y-83936915D01*
X94731694Y-82985000D01*
X94731694Y-82385000D01*
X94727077Y-82328205D01*
X94697606Y-82233954D01*
X94643093Y-82151611D01*
X94615523Y-82128186D01*
X94617529Y-81984548D01*
X94592103Y-81856138D01*
X94542219Y-81735111D01*
X94469779Y-81626079D01*
X94377539Y-81533194D01*
X94269015Y-81459993D01*
X94148340Y-81409266D01*
X94020110Y-81382944D01*
X93889210Y-81382030D01*
X93760625Y-81406559D01*
X93639253Y-81455597D01*
X93529718Y-81527275D01*
X93436191Y-81618863D01*
X93362235Y-81726873D01*
X93310666Y-81847191D01*
X93283450Y-81975234D01*
X93281622Y-82106125D01*
X93295548Y-82182004D01*
X93282670Y-82197162D01*
X93242171Y-82287227D01*
X93228306Y-82385000D01*
X93228306Y-82985000D01*
X93232923Y-83041795D01*
X93262394Y-83136046D01*
X93316907Y-83218389D01*
X93325589Y-83225766D01*
X93314143Y-83242897D01*
X93291529Y-83297494D01*
X93280000Y-83355453D01*
X93280000Y-83510000D01*
X93355000Y-83585000D01*
X93880000Y-83585000D01*
X93880000Y-83565000D01*
X94080000Y-83565000D01*
X94080000Y-83585000D01*
X94605000Y-83585000D01*
X94680000Y-83510000D01*
X94680000Y-83355453D01*
X94668471Y-83297494D01*
X94645857Y-83242897D01*
X94633507Y-83224414D01*
X94677330Y-83172838D01*
X94717829Y-83082773D01*
X94731694Y-82985000D01*
X94731694Y-83936915D01*
X94710625Y-83940935D01*
X94680000Y-83953308D01*
X94680000Y-83860000D01*
X94605000Y-83785000D01*
X94080000Y-83785000D01*
X94080000Y-84210000D01*
X94155000Y-84285000D01*
X94302055Y-84285000D01*
X94274195Y-84350000D01*
X93880000Y-84350000D01*
X93880000Y-84210000D01*
X93880000Y-83785000D01*
X93355000Y-83785000D01*
X93280000Y-83860000D01*
X93280000Y-84014547D01*
X93291529Y-84072506D01*
X93314143Y-84127103D01*
X93346975Y-84176239D01*
X93388761Y-84218025D01*
X93437896Y-84250856D01*
X93492493Y-84273471D01*
X93550452Y-84285000D01*
X93609547Y-84285000D01*
X93805000Y-84285000D01*
X93880000Y-84210000D01*
X93880000Y-84350000D01*
X93450000Y-84350000D01*
X93404011Y-84354509D01*
X93358024Y-84358532D01*
X93355499Y-84359265D01*
X93352883Y-84359522D01*
X93308676Y-84372868D01*
X93264316Y-84385757D01*
X93261980Y-84386967D01*
X93259465Y-84387727D01*
X93218675Y-84409415D01*
X93177680Y-84430665D01*
X93175627Y-84432303D01*
X93173304Y-84433539D01*
X93137512Y-84462730D01*
X93101417Y-84491545D01*
X93097754Y-84495156D01*
X93097683Y-84495215D01*
X93097628Y-84495281D01*
X93096446Y-84496447D01*
X92546447Y-85046447D01*
X92517167Y-85082091D01*
X92487443Y-85117516D01*
X92486174Y-85119822D01*
X92484508Y-85121852D01*
X92462701Y-85162521D01*
X92440432Y-85203029D01*
X92439636Y-85205536D01*
X92438395Y-85207852D01*
X92424892Y-85252015D01*
X92410926Y-85296044D01*
X92410633Y-85298655D01*
X92409864Y-85301171D01*
X92405194Y-85347147D01*
X92400049Y-85393019D01*
X92400012Y-85398157D01*
X92400003Y-85398255D01*
X92400011Y-85398346D01*
X92400000Y-85400000D01*
X92400000Y-87750000D01*
X92404504Y-87795943D01*
X92408532Y-87841976D01*
X92409265Y-87844500D01*
X92409522Y-87847117D01*
X92422868Y-87891323D01*
X92435757Y-87935684D01*
X92436967Y-87938019D01*
X92437727Y-87940535D01*
X92459394Y-87981285D01*
X92480664Y-88022320D01*
X92482305Y-88024376D01*
X92483539Y-88026696D01*
X92512727Y-88062484D01*
X92541545Y-88098582D01*
X92545152Y-88102239D01*
X92545215Y-88102317D01*
X92545286Y-88102376D01*
X92546447Y-88103553D01*
X92926447Y-88483553D01*
X92962091Y-88512832D01*
X92997516Y-88542557D01*
X92999822Y-88543825D01*
X93001852Y-88545492D01*
X93042521Y-88567298D01*
X93083029Y-88589568D01*
X93085536Y-88590363D01*
X93087852Y-88591605D01*
X93132015Y-88605107D01*
X93176044Y-88619074D01*
X93178655Y-88619366D01*
X93181171Y-88620136D01*
X93227147Y-88624805D01*
X93273019Y-88629951D01*
X93278157Y-88629987D01*
X93278255Y-88629997D01*
X93278346Y-88629988D01*
X93280000Y-88630000D01*
X93294802Y-88630000D01*
X93316907Y-88663389D01*
X93392162Y-88727330D01*
X93482227Y-88767829D01*
X93580000Y-88781694D01*
X94380000Y-88781694D01*
X94436795Y-88777077D01*
X94531046Y-88747606D01*
X94613389Y-88693093D01*
X94677330Y-88617838D01*
X94717829Y-88527773D01*
X94731694Y-88430000D01*
X94731694Y-87830000D01*
X94727077Y-87773205D01*
X94697606Y-87678954D01*
X94643093Y-87596611D01*
X94634410Y-87589233D01*
X94645857Y-87572103D01*
X94668471Y-87517506D01*
X94680000Y-87459547D01*
X94680000Y-87305000D01*
X94680000Y-86955000D01*
X94680000Y-86800453D01*
X94668471Y-86742494D01*
X94645857Y-86687897D01*
X94613025Y-86638761D01*
X94571239Y-86596975D01*
X94522104Y-86564144D01*
X94467507Y-86541529D01*
X94409548Y-86530000D01*
X94350453Y-86530000D01*
X94155000Y-86530000D01*
X94080000Y-86605000D01*
X94080000Y-87030000D01*
X94605000Y-87030000D01*
X94680000Y-86955000D01*
X94680000Y-87305000D01*
X94605000Y-87230000D01*
X94080000Y-87230000D01*
X94080000Y-87250000D01*
X93880000Y-87250000D01*
X93880000Y-87230000D01*
X93860000Y-87230000D01*
X93860000Y-87030000D01*
X93880000Y-87030000D01*
X93880000Y-86605000D01*
X93805000Y-86530000D01*
X93609547Y-86530000D01*
X93550452Y-86530000D01*
X93492493Y-86541529D01*
X93437896Y-86564144D01*
X93400000Y-86589465D01*
X93400000Y-85607106D01*
X93657106Y-85350000D01*
X94634376Y-85350000D01*
X94680319Y-85345495D01*
X94726352Y-85341468D01*
X94728876Y-85340734D01*
X94731493Y-85340478D01*
X94775699Y-85327131D01*
X94820060Y-85314243D01*
X94822395Y-85313032D01*
X94824911Y-85312273D01*
X94865661Y-85290605D01*
X94906696Y-85269336D01*
X94908752Y-85267694D01*
X94911072Y-85266461D01*
X94928020Y-85252638D01*
X94951458Y-85253129D01*
X95080373Y-85230398D01*
X95202417Y-85183060D01*
X95312943Y-85112918D01*
X95407739Y-85022645D01*
X95483196Y-84915678D01*
X95536440Y-84796091D01*
X95565441Y-84668441D01*
X95567529Y-84518924D01*
X95567529Y-85395701D01*
X95510625Y-85406557D01*
X95389253Y-85455595D01*
X95279718Y-85527273D01*
X95186191Y-85618861D01*
X95112235Y-85726871D01*
X95060666Y-85847189D01*
X95033450Y-85975232D01*
X95031622Y-86106123D01*
X95055253Y-86234876D01*
X95103442Y-86356587D01*
X95174353Y-86466620D01*
X95265287Y-86560785D01*
X95372778Y-86635493D01*
X95492733Y-86687900D01*
X95620583Y-86716010D01*
X95751458Y-86718751D01*
X95848446Y-86701649D01*
X95831529Y-86742494D01*
X95820000Y-86800453D01*
X95820000Y-86955000D01*
X95895000Y-87030000D01*
X96420000Y-87030000D01*
X96420000Y-87010000D01*
X96620000Y-87010000D01*
X96620000Y-87030000D01*
X96640000Y-87030000D01*
X96640000Y-87230000D01*
X96620000Y-87230000D01*
X96620000Y-87250000D01*
X96420000Y-87250000D01*
X96420000Y-87230000D01*
X95895000Y-87230000D01*
X95820000Y-87305000D01*
X95820000Y-87459547D01*
X95831529Y-87517506D01*
X95854143Y-87572103D01*
X95866492Y-87590585D01*
X95822670Y-87642162D01*
X95782171Y-87732227D01*
X95768306Y-87830000D01*
X95768306Y-88430000D01*
X95772923Y-88486795D01*
X95802394Y-88581046D01*
X95856907Y-88663389D01*
X95932162Y-88727330D01*
X96022227Y-88767829D01*
X96120000Y-88781694D01*
X96920000Y-88781694D01*
X96976795Y-88777077D01*
X97071046Y-88747606D01*
X97153389Y-88693093D01*
X97206996Y-88630000D01*
X97220000Y-88630000D01*
X97265943Y-88625495D01*
X97311976Y-88621468D01*
X97314500Y-88620734D01*
X97317117Y-88620478D01*
X97361323Y-88607131D01*
X97405684Y-88594243D01*
X97408019Y-88593032D01*
X97410535Y-88592273D01*
X97451285Y-88570605D01*
X97492320Y-88549336D01*
X97494376Y-88547694D01*
X97496696Y-88546461D01*
X97532484Y-88517272D01*
X97568582Y-88488455D01*
X97572239Y-88484847D01*
X97572317Y-88484785D01*
X97572376Y-88484713D01*
X97573553Y-88483553D01*
X98003554Y-88053553D01*
X98032879Y-88017851D01*
X98062557Y-87982484D01*
X98063823Y-87980180D01*
X98065493Y-87978148D01*
X98087320Y-87937439D01*
X98109568Y-87896971D01*
X98110363Y-87894463D01*
X98111605Y-87892148D01*
X98125107Y-87847984D01*
X98139074Y-87803956D01*
X98139366Y-87801344D01*
X98140136Y-87798829D01*
X98144805Y-87752852D01*
X98149951Y-87706981D01*
X98149987Y-87701842D01*
X98149997Y-87701745D01*
X98149988Y-87701653D01*
X98150000Y-87700000D01*
X98150000Y-90689165D01*
X98025358Y-90871201D01*
X97934582Y-91082996D01*
X97886673Y-91308390D01*
X97883456Y-91538797D01*
X97925053Y-91765441D01*
X98009879Y-91979689D01*
X98134705Y-92173380D01*
X98294775Y-92339137D01*
X98483991Y-92470646D01*
X98695148Y-92562898D01*
X98920202Y-92612379D01*
X99150581Y-92617205D01*
X99377510Y-92577192D01*
X99592344Y-92493863D01*
X99786902Y-92370392D01*
X99953773Y-92211484D01*
X100086600Y-92023190D01*
X100180324Y-91812682D01*
X100231375Y-91587979D01*
X100235050Y-91324785D01*
X100235050Y-92942600D01*
X97695050Y-92942600D01*
X97695050Y-91324785D01*
X97650293Y-91098744D01*
X97562483Y-90885702D01*
X97434965Y-90693772D01*
X97272597Y-90530267D01*
X97081562Y-90401412D01*
X96869138Y-90312117D01*
X96643415Y-90265783D01*
X96412991Y-90264174D01*
X96186644Y-90307352D01*
X95972993Y-90393673D01*
X95780178Y-90519847D01*
X95615543Y-90681070D01*
X95485358Y-90871201D01*
X95394582Y-91082996D01*
X95346673Y-91308390D01*
X95343456Y-91538797D01*
X95385053Y-91765441D01*
X95469879Y-91979689D01*
X95594705Y-92173380D01*
X95754775Y-92339137D01*
X95943991Y-92470646D01*
X96155148Y-92562898D01*
X96380202Y-92612379D01*
X96610581Y-92617205D01*
X96837510Y-92577192D01*
X97052344Y-92493863D01*
X97246902Y-92370392D01*
X97413773Y-92211484D01*
X97546600Y-92023190D01*
X97640324Y-91812682D01*
X97691375Y-91587979D01*
X97695050Y-91324785D01*
X97695050Y-92942600D01*
X95155050Y-92942600D01*
X95155050Y-91324785D01*
X95110293Y-91098744D01*
X95022483Y-90885702D01*
X94894965Y-90693772D01*
X94732597Y-90530267D01*
X94541562Y-90401412D01*
X94329138Y-90312117D01*
X94103415Y-90265783D01*
X93872991Y-90264174D01*
X93646644Y-90307352D01*
X93432993Y-90393673D01*
X93240178Y-90519847D01*
X93075543Y-90681070D01*
X92945358Y-90871201D01*
X92854582Y-91082996D01*
X92806673Y-91308390D01*
X92803456Y-91538797D01*
X92845053Y-91765441D01*
X92929879Y-91979689D01*
X93054705Y-92173380D01*
X93214775Y-92339137D01*
X93403991Y-92470646D01*
X93615148Y-92562898D01*
X93840202Y-92612379D01*
X94070581Y-92617205D01*
X94297510Y-92577192D01*
X94512344Y-92493863D01*
X94706902Y-92370392D01*
X94873773Y-92211484D01*
X95006600Y-92023190D01*
X95100324Y-91812682D01*
X95151375Y-91587979D01*
X95155050Y-91324785D01*
X95155050Y-92942600D01*
X92615050Y-92942600D01*
X92615050Y-91324785D01*
X92570293Y-91098744D01*
X92482483Y-90885702D01*
X92354965Y-90693772D01*
X92192597Y-90530267D01*
X92191694Y-90529657D01*
X92191694Y-88430000D01*
X92191694Y-87830000D01*
X92191694Y-82985000D01*
X92191694Y-82385000D01*
X92187077Y-82328205D01*
X92157606Y-82233954D01*
X92109318Y-82161015D01*
X92115441Y-82134069D01*
X92117529Y-81984552D01*
X92092103Y-81856142D01*
X92042219Y-81735115D01*
X91969779Y-81626083D01*
X91877539Y-81533198D01*
X91769015Y-81459997D01*
X91648340Y-81409270D01*
X91520110Y-81382948D01*
X91389210Y-81382034D01*
X91260625Y-81406563D01*
X91139253Y-81455601D01*
X91029718Y-81527279D01*
X90936191Y-81618867D01*
X90862235Y-81726877D01*
X90810666Y-81847195D01*
X90783450Y-81975238D01*
X90781622Y-82106129D01*
X90788442Y-82143290D01*
X90742670Y-82197162D01*
X90702171Y-82287227D01*
X90688306Y-82385000D01*
X90688306Y-82985000D01*
X90692923Y-83041795D01*
X90722394Y-83136046D01*
X90776907Y-83218389D01*
X90785589Y-83225766D01*
X90774143Y-83242897D01*
X90751529Y-83297494D01*
X90740000Y-83355453D01*
X90740000Y-83510000D01*
X90815000Y-83585000D01*
X91340000Y-83585000D01*
X91340000Y-83565000D01*
X91540000Y-83565000D01*
X91540000Y-83585000D01*
X92065000Y-83585000D01*
X92140000Y-83510000D01*
X92140000Y-83355453D01*
X92128471Y-83297494D01*
X92105857Y-83242897D01*
X92093507Y-83224414D01*
X92137330Y-83172838D01*
X92177829Y-83082773D01*
X92191694Y-82985000D01*
X92191694Y-87830000D01*
X92187077Y-87773205D01*
X92157606Y-87678954D01*
X92103093Y-87596611D01*
X92094410Y-87589233D01*
X92105857Y-87572103D01*
X92128471Y-87517506D01*
X92140000Y-87459547D01*
X92140000Y-87305000D01*
X92140000Y-86955000D01*
X92140000Y-86800453D01*
X92140000Y-84014547D01*
X92140000Y-83860000D01*
X92065000Y-83785000D01*
X91540000Y-83785000D01*
X91540000Y-84210000D01*
X91615000Y-84285000D01*
X91810453Y-84285000D01*
X91869548Y-84285000D01*
X91927507Y-84273471D01*
X91982104Y-84250856D01*
X92031239Y-84218025D01*
X92073025Y-84176239D01*
X92105857Y-84127103D01*
X92128471Y-84072506D01*
X92140000Y-84014547D01*
X92140000Y-86800453D01*
X92128471Y-86742494D01*
X92105857Y-86687897D01*
X92073025Y-86638761D01*
X92031239Y-86596975D01*
X91982104Y-86564144D01*
X91927507Y-86541529D01*
X91869548Y-86530000D01*
X91810453Y-86530000D01*
X91615000Y-86530000D01*
X91540000Y-86605000D01*
X91540000Y-87030000D01*
X92065000Y-87030000D01*
X92140000Y-86955000D01*
X92140000Y-87305000D01*
X92065000Y-87230000D01*
X91540000Y-87230000D01*
X91540000Y-87250000D01*
X91340000Y-87250000D01*
X91340000Y-87230000D01*
X91340000Y-87030000D01*
X91340000Y-86605000D01*
X91340000Y-84210000D01*
X91340000Y-83785000D01*
X90815000Y-83785000D01*
X90740000Y-83860000D01*
X90740000Y-84014547D01*
X90751529Y-84072506D01*
X90774143Y-84127103D01*
X90806975Y-84176239D01*
X90848761Y-84218025D01*
X90897896Y-84250856D01*
X90952493Y-84273471D01*
X91010452Y-84285000D01*
X91069547Y-84285000D01*
X91265000Y-84285000D01*
X91340000Y-84210000D01*
X91340000Y-86605000D01*
X91265000Y-86530000D01*
X91069547Y-86530000D01*
X91010452Y-86530000D01*
X90952493Y-86541529D01*
X90897896Y-86564144D01*
X90848761Y-86596975D01*
X90806975Y-86638761D01*
X90774143Y-86687897D01*
X90751529Y-86742494D01*
X90740000Y-86800453D01*
X90740000Y-86955000D01*
X90815000Y-87030000D01*
X91340000Y-87030000D01*
X91340000Y-87230000D01*
X90815000Y-87230000D01*
X90740000Y-87305000D01*
X90740000Y-87459547D01*
X90751529Y-87517506D01*
X90774143Y-87572103D01*
X90786492Y-87590585D01*
X90742670Y-87642162D01*
X90702171Y-87732227D01*
X90688306Y-87830000D01*
X90688306Y-88430000D01*
X90692923Y-88486795D01*
X90722394Y-88581046D01*
X90776907Y-88663389D01*
X90784581Y-88669909D01*
X90783450Y-88675234D01*
X90781622Y-88806125D01*
X90805253Y-88934878D01*
X90853442Y-89056589D01*
X90924353Y-89166622D01*
X91015287Y-89260787D01*
X91122778Y-89335495D01*
X91242733Y-89387902D01*
X91370583Y-89416012D01*
X91501458Y-89418753D01*
X91630373Y-89396022D01*
X91752417Y-89348684D01*
X91862943Y-89278542D01*
X91957739Y-89188269D01*
X92033196Y-89081302D01*
X92086440Y-88961715D01*
X92115441Y-88834065D01*
X92117529Y-88684548D01*
X92110558Y-88649346D01*
X92137330Y-88617838D01*
X92177829Y-88527773D01*
X92191694Y-88430000D01*
X92191694Y-90529657D01*
X92001562Y-90401412D01*
X91789138Y-90312117D01*
X91563415Y-90265783D01*
X91332991Y-90264174D01*
X91106644Y-90307352D01*
X90892993Y-90393673D01*
X90700178Y-90519847D01*
X90535543Y-90681070D01*
X90405358Y-90871201D01*
X90314582Y-91082996D01*
X90266673Y-91308390D01*
X90263456Y-91538797D01*
X90305053Y-91765441D01*
X90389879Y-91979689D01*
X90514705Y-92173380D01*
X90674775Y-92339137D01*
X90863991Y-92470646D01*
X91075148Y-92562898D01*
X91300202Y-92612379D01*
X91530581Y-92617205D01*
X91757510Y-92577192D01*
X91972344Y-92493863D01*
X92166902Y-92370392D01*
X92333773Y-92211484D01*
X92466600Y-92023190D01*
X92560324Y-91812682D01*
X92611375Y-91587979D01*
X92615050Y-91324785D01*
X92615050Y-92942600D01*
X90075050Y-92942600D01*
X90075050Y-91324785D01*
X90030293Y-91098744D01*
X89942483Y-90885702D01*
X89814965Y-90693772D01*
X89652597Y-90530267D01*
X89651694Y-90529657D01*
X89651694Y-88430000D01*
X89651694Y-87830000D01*
X89651694Y-82985000D01*
X89651694Y-82385000D01*
X89647077Y-82328205D01*
X89617606Y-82233954D01*
X89563093Y-82151611D01*
X89561721Y-82150445D01*
X89565443Y-82134065D01*
X89567531Y-81984548D01*
X89542105Y-81856138D01*
X89492221Y-81735111D01*
X89419781Y-81626079D01*
X89327541Y-81533194D01*
X89219017Y-81459993D01*
X89098342Y-81409266D01*
X88970112Y-81382944D01*
X88839212Y-81382030D01*
X88710627Y-81406559D01*
X88589255Y-81455597D01*
X88479720Y-81527275D01*
X88386193Y-81618863D01*
X88312237Y-81726873D01*
X88260668Y-81847191D01*
X88233452Y-81975234D01*
X88231624Y-82106125D01*
X88240221Y-82152966D01*
X88202670Y-82197162D01*
X88162171Y-82287227D01*
X88148306Y-82385000D01*
X88148306Y-82985000D01*
X88152923Y-83041795D01*
X88182394Y-83136046D01*
X88236907Y-83218389D01*
X88245589Y-83225766D01*
X88234143Y-83242897D01*
X88211529Y-83297494D01*
X88200000Y-83355453D01*
X88200000Y-83510000D01*
X88275000Y-83585000D01*
X88800000Y-83585000D01*
X88800000Y-83565000D01*
X89000000Y-83565000D01*
X89000000Y-83585000D01*
X89525000Y-83585000D01*
X89600000Y-83510000D01*
X89600000Y-83355453D01*
X89588471Y-83297494D01*
X89565857Y-83242897D01*
X89553507Y-83224414D01*
X89597330Y-83172838D01*
X89637829Y-83082773D01*
X89651694Y-82985000D01*
X89651694Y-87830000D01*
X89647077Y-87773205D01*
X89617606Y-87678954D01*
X89563093Y-87596611D01*
X89554410Y-87589233D01*
X89565857Y-87572103D01*
X89588471Y-87517506D01*
X89600000Y-87459547D01*
X89600000Y-87305000D01*
X89600000Y-86955000D01*
X89600000Y-86800453D01*
X89600000Y-84014547D01*
X89600000Y-83860000D01*
X89525000Y-83785000D01*
X89000000Y-83785000D01*
X89000000Y-84210000D01*
X89075000Y-84285000D01*
X89270453Y-84285000D01*
X89329548Y-84285000D01*
X89387507Y-84273471D01*
X89442104Y-84250856D01*
X89491239Y-84218025D01*
X89533025Y-84176239D01*
X89565857Y-84127103D01*
X89588471Y-84072506D01*
X89600000Y-84014547D01*
X89600000Y-86800453D01*
X89588471Y-86742494D01*
X89565857Y-86687897D01*
X89533025Y-86638761D01*
X89491239Y-86596975D01*
X89442104Y-86564144D01*
X89387507Y-86541529D01*
X89329548Y-86530000D01*
X89270453Y-86530000D01*
X89075000Y-86530000D01*
X89000000Y-86605000D01*
X89000000Y-87030000D01*
X89525000Y-87030000D01*
X89600000Y-86955000D01*
X89600000Y-87305000D01*
X89525000Y-87230000D01*
X89000000Y-87230000D01*
X89000000Y-87250000D01*
X88800000Y-87250000D01*
X88800000Y-87230000D01*
X88800000Y-87030000D01*
X88800000Y-86605000D01*
X88800000Y-84210000D01*
X88800000Y-83785000D01*
X88275000Y-83785000D01*
X88200000Y-83860000D01*
X88200000Y-84014547D01*
X88211529Y-84072506D01*
X88234143Y-84127103D01*
X88266975Y-84176239D01*
X88308761Y-84218025D01*
X88357896Y-84250856D01*
X88412493Y-84273471D01*
X88470452Y-84285000D01*
X88529547Y-84285000D01*
X88725000Y-84285000D01*
X88800000Y-84210000D01*
X88800000Y-86605000D01*
X88725000Y-86530000D01*
X88529547Y-86530000D01*
X88470452Y-86530000D01*
X88412493Y-86541529D01*
X88357896Y-86564144D01*
X88308761Y-86596975D01*
X88266975Y-86638761D01*
X88234143Y-86687897D01*
X88211529Y-86742494D01*
X88200000Y-86800453D01*
X88200000Y-86955000D01*
X88275000Y-87030000D01*
X88800000Y-87030000D01*
X88800000Y-87230000D01*
X88275000Y-87230000D01*
X88200000Y-87305000D01*
X88200000Y-87459547D01*
X88211529Y-87517506D01*
X88234143Y-87572103D01*
X88246492Y-87590585D01*
X88202670Y-87642162D01*
X88162171Y-87732227D01*
X88148306Y-87830000D01*
X88148306Y-88430000D01*
X88152923Y-88486795D01*
X88182394Y-88581046D01*
X88236197Y-88662317D01*
X88233452Y-88675234D01*
X88231624Y-88806125D01*
X88255255Y-88934878D01*
X88303444Y-89056589D01*
X88374355Y-89166622D01*
X88465289Y-89260787D01*
X88572780Y-89335495D01*
X88692735Y-89387902D01*
X88820585Y-89416012D01*
X88951460Y-89418753D01*
X89080375Y-89396022D01*
X89202419Y-89348684D01*
X89312945Y-89278542D01*
X89407741Y-89188269D01*
X89483198Y-89081302D01*
X89536442Y-88961715D01*
X89565443Y-88834065D01*
X89567531Y-88684548D01*
X89562450Y-88658889D01*
X89597330Y-88617838D01*
X89637829Y-88527773D01*
X89651694Y-88430000D01*
X89651694Y-90529657D01*
X89461562Y-90401412D01*
X89249138Y-90312117D01*
X89023415Y-90265783D01*
X88792991Y-90264174D01*
X88566644Y-90307352D01*
X88352993Y-90393673D01*
X88160178Y-90519847D01*
X87995543Y-90681070D01*
X87950000Y-90747584D01*
X87950000Y-87740000D01*
X87950000Y-85500000D01*
X87945490Y-85454011D01*
X87941468Y-85408024D01*
X87940734Y-85405499D01*
X87940478Y-85402883D01*
X87927131Y-85358676D01*
X87914243Y-85314316D01*
X87913032Y-85311980D01*
X87912273Y-85309465D01*
X87890584Y-85268675D01*
X87869335Y-85227680D01*
X87867696Y-85225627D01*
X87866461Y-85223304D01*
X87837269Y-85187512D01*
X87808455Y-85151417D01*
X87804843Y-85147754D01*
X87804785Y-85147683D01*
X87804718Y-85147628D01*
X87803553Y-85146446D01*
X87121052Y-84463946D01*
X87111694Y-84456259D01*
X87111694Y-82985000D01*
X87111694Y-82385000D01*
X87107077Y-82328205D01*
X87077606Y-82233954D01*
X87023093Y-82151611D01*
X87013337Y-82143321D01*
X87015441Y-82134061D01*
X87017529Y-81984544D01*
X86992103Y-81856134D01*
X86942219Y-81735107D01*
X86869779Y-81626075D01*
X86777539Y-81533190D01*
X86669015Y-81459989D01*
X86548340Y-81409262D01*
X86420110Y-81382940D01*
X86289210Y-81382026D01*
X86160625Y-81406555D01*
X86039253Y-81455593D01*
X85929718Y-81527271D01*
X85836191Y-81618859D01*
X85762235Y-81726869D01*
X85710666Y-81847187D01*
X85683450Y-81975230D01*
X85681622Y-82106121D01*
X85691996Y-82162646D01*
X85662670Y-82197162D01*
X85622171Y-82287227D01*
X85608306Y-82385000D01*
X85608306Y-82985000D01*
X85612923Y-83041795D01*
X85642394Y-83136046D01*
X85696907Y-83218389D01*
X85705589Y-83225766D01*
X85694143Y-83242897D01*
X85671529Y-83297494D01*
X85660000Y-83355453D01*
X85660000Y-83510000D01*
X85735000Y-83585000D01*
X86260000Y-83585000D01*
X86260000Y-83565000D01*
X86460000Y-83565000D01*
X86460000Y-83585000D01*
X86985000Y-83585000D01*
X87060000Y-83510000D01*
X87060000Y-83355453D01*
X87048471Y-83297494D01*
X87025857Y-83242897D01*
X87013507Y-83224414D01*
X87057330Y-83172838D01*
X87097829Y-83082773D01*
X87111694Y-82985000D01*
X87111694Y-84456259D01*
X87085407Y-84434666D01*
X87060000Y-84413347D01*
X87060000Y-84014547D01*
X87060000Y-83860000D01*
X86985000Y-83785000D01*
X86460000Y-83785000D01*
X86460000Y-84210000D01*
X86535000Y-84285000D01*
X86730453Y-84285000D01*
X86789548Y-84285000D01*
X86847507Y-84273471D01*
X86902104Y-84250856D01*
X86951239Y-84218025D01*
X86993025Y-84176239D01*
X87025857Y-84127103D01*
X87048471Y-84072506D01*
X87060000Y-84014547D01*
X87060000Y-84413347D01*
X87049983Y-84404942D01*
X87047676Y-84403673D01*
X87045647Y-84402007D01*
X87004977Y-84380200D01*
X86964470Y-84357931D01*
X86961962Y-84357135D01*
X86959647Y-84355894D01*
X86915483Y-84342391D01*
X86871455Y-84328425D01*
X86868843Y-84328132D01*
X86866328Y-84327363D01*
X86820351Y-84322693D01*
X86774480Y-84317548D01*
X86769341Y-84317511D01*
X86769244Y-84317502D01*
X86769152Y-84317510D01*
X86767499Y-84317499D01*
X86144352Y-84317499D01*
X86142103Y-84306138D01*
X86133390Y-84285000D01*
X86185000Y-84285000D01*
X86260000Y-84210000D01*
X86260000Y-83785000D01*
X85735000Y-83785000D01*
X85667138Y-83852861D01*
X85570110Y-83832944D01*
X85439210Y-83832030D01*
X85310625Y-83856559D01*
X85189253Y-83905597D01*
X85079718Y-83977275D01*
X84986191Y-84068863D01*
X84912235Y-84176873D01*
X84860666Y-84297191D01*
X84833450Y-84425234D01*
X84831622Y-84556125D01*
X84855253Y-84684878D01*
X84903442Y-84806589D01*
X84974353Y-84916622D01*
X85065287Y-85010787D01*
X85172778Y-85085495D01*
X85292733Y-85137902D01*
X85420583Y-85166012D01*
X85459724Y-85166831D01*
X85463945Y-85171052D01*
X85499637Y-85200370D01*
X85535015Y-85230056D01*
X85537318Y-85231322D01*
X85539350Y-85232991D01*
X85580041Y-85254809D01*
X85620528Y-85277067D01*
X85623035Y-85277862D01*
X85625351Y-85279104D01*
X85669514Y-85292606D01*
X85713543Y-85306573D01*
X85716154Y-85306865D01*
X85718670Y-85307635D01*
X85764601Y-85312299D01*
X85810518Y-85317450D01*
X85815666Y-85317486D01*
X85815754Y-85317495D01*
X85815835Y-85317487D01*
X85817499Y-85317499D01*
X86560392Y-85317499D01*
X86950000Y-85707106D01*
X86950000Y-86596147D01*
X86902104Y-86564144D01*
X86847507Y-86541529D01*
X86789548Y-86530000D01*
X86730453Y-86530000D01*
X86535000Y-86530000D01*
X86460000Y-86605000D01*
X86460000Y-87030000D01*
X86480000Y-87030000D01*
X86480000Y-87230000D01*
X86460000Y-87230000D01*
X86460000Y-87250000D01*
X86260000Y-87250000D01*
X86260000Y-87230000D01*
X86260000Y-87030000D01*
X86260000Y-86605000D01*
X86185000Y-86530000D01*
X85989547Y-86530000D01*
X85930452Y-86530000D01*
X85872493Y-86541529D01*
X85817896Y-86564144D01*
X85768761Y-86596975D01*
X85726975Y-86638761D01*
X85694143Y-86687897D01*
X85671529Y-86742494D01*
X85660000Y-86800453D01*
X85660000Y-86955000D01*
X85735000Y-87030000D01*
X86260000Y-87030000D01*
X86260000Y-87230000D01*
X85735000Y-87230000D01*
X85660000Y-87305000D01*
X85660000Y-87459547D01*
X85671529Y-87517506D01*
X85694143Y-87572103D01*
X85706492Y-87590585D01*
X85662670Y-87642162D01*
X85622171Y-87732227D01*
X85608306Y-87830000D01*
X85608306Y-88430000D01*
X85612923Y-88486795D01*
X85642394Y-88581046D01*
X85696907Y-88663389D01*
X85772162Y-88727330D01*
X85862227Y-88767829D01*
X85960000Y-88781694D01*
X86760000Y-88781694D01*
X86816795Y-88777077D01*
X86911046Y-88747606D01*
X86993389Y-88693093D01*
X87046996Y-88630000D01*
X87060000Y-88630000D01*
X87105943Y-88625495D01*
X87151976Y-88621468D01*
X87154500Y-88620734D01*
X87157117Y-88620478D01*
X87201323Y-88607131D01*
X87245684Y-88594243D01*
X87248019Y-88593032D01*
X87250535Y-88592273D01*
X87291285Y-88570605D01*
X87332320Y-88549336D01*
X87334376Y-88547694D01*
X87336696Y-88546461D01*
X87372484Y-88517272D01*
X87408582Y-88488455D01*
X87412239Y-88484847D01*
X87412317Y-88484785D01*
X87412376Y-88484713D01*
X87413553Y-88483553D01*
X87803553Y-88093554D01*
X87832852Y-88057883D01*
X87862557Y-88022484D01*
X87863825Y-88020177D01*
X87865492Y-88018148D01*
X87887298Y-87977478D01*
X87909568Y-87936971D01*
X87910363Y-87934463D01*
X87911605Y-87932148D01*
X87925107Y-87887984D01*
X87939074Y-87843956D01*
X87939366Y-87841344D01*
X87940136Y-87838829D01*
X87944800Y-87792897D01*
X87949951Y-87746981D01*
X87949987Y-87741832D01*
X87949996Y-87741745D01*
X87949988Y-87741663D01*
X87950000Y-87740000D01*
X87950000Y-90747584D01*
X87865358Y-90871201D01*
X87774582Y-91082996D01*
X87726673Y-91308390D01*
X87723456Y-91538797D01*
X87765053Y-91765441D01*
X87849879Y-91979689D01*
X87974705Y-92173380D01*
X88134775Y-92339137D01*
X88323991Y-92470646D01*
X88535148Y-92562898D01*
X88760202Y-92612379D01*
X88990581Y-92617205D01*
X89217510Y-92577192D01*
X89432344Y-92493863D01*
X89626902Y-92370392D01*
X89793773Y-92211484D01*
X89926600Y-92023190D01*
X90020324Y-91812682D01*
X90071375Y-91587979D01*
X90075050Y-91324785D01*
X90075050Y-92942600D01*
X87535050Y-92942600D01*
X87535050Y-91324785D01*
X87490293Y-91098744D01*
X87402483Y-90885702D01*
X87274965Y-90693772D01*
X87112597Y-90530267D01*
X86921562Y-90401412D01*
X86709138Y-90312117D01*
X86483415Y-90265783D01*
X86252991Y-90264174D01*
X86026644Y-90307352D01*
X85812993Y-90393673D01*
X85620178Y-90519847D01*
X85455543Y-90681070D01*
X85350009Y-90835199D01*
X85350009Y-85864852D01*
X85324583Y-85736442D01*
X85274699Y-85615415D01*
X85202259Y-85506383D01*
X85110019Y-85413498D01*
X85001495Y-85340297D01*
X84880820Y-85289570D01*
X84752590Y-85263248D01*
X84621690Y-85262334D01*
X84571694Y-85271871D01*
X84571694Y-82985000D01*
X84571694Y-82385000D01*
X84567077Y-82328205D01*
X84537606Y-82233954D01*
X84483093Y-82151611D01*
X84464956Y-82136201D01*
X84465441Y-82134069D01*
X84467529Y-81984552D01*
X84442103Y-81856142D01*
X84392219Y-81735115D01*
X84319779Y-81626083D01*
X84227539Y-81533198D01*
X84119015Y-81459997D01*
X83998340Y-81409270D01*
X83870110Y-81382948D01*
X83739210Y-81382034D01*
X83610625Y-81406563D01*
X83489253Y-81455601D01*
X83379718Y-81527279D01*
X83286191Y-81618867D01*
X83212235Y-81726877D01*
X83160666Y-81847195D01*
X83133450Y-81975238D01*
X83131622Y-82106129D01*
X83143771Y-82172326D01*
X83122670Y-82197162D01*
X83082171Y-82287227D01*
X83068306Y-82385000D01*
X83068306Y-82985000D01*
X83072923Y-83041795D01*
X83102394Y-83136046D01*
X83156907Y-83218389D01*
X83165589Y-83225766D01*
X83154143Y-83242897D01*
X83131529Y-83297494D01*
X83120000Y-83355453D01*
X83120000Y-83510000D01*
X83195000Y-83585000D01*
X83720000Y-83585000D01*
X83720000Y-83565000D01*
X83920000Y-83565000D01*
X83920000Y-83585000D01*
X84445000Y-83585000D01*
X84520000Y-83510000D01*
X84520000Y-83355453D01*
X84508471Y-83297494D01*
X84485857Y-83242897D01*
X84473507Y-83224414D01*
X84517330Y-83172838D01*
X84557829Y-83082773D01*
X84571694Y-82985000D01*
X84571694Y-85271871D01*
X84520000Y-85281732D01*
X84520000Y-84014547D01*
X84520000Y-83860000D01*
X84445000Y-83785000D01*
X83920000Y-83785000D01*
X83920000Y-84210000D01*
X83995000Y-84285000D01*
X84190453Y-84285000D01*
X84249548Y-84285000D01*
X84307507Y-84273471D01*
X84362104Y-84250856D01*
X84411239Y-84218025D01*
X84453025Y-84176239D01*
X84485857Y-84127103D01*
X84508471Y-84072506D01*
X84520000Y-84014547D01*
X84520000Y-85281732D01*
X84493105Y-85286863D01*
X84371733Y-85335901D01*
X84262198Y-85407579D01*
X84238991Y-85430304D01*
X84233468Y-85430304D01*
X83720000Y-85430304D01*
X83720000Y-84210000D01*
X83720000Y-83785000D01*
X83195000Y-83785000D01*
X83120000Y-83860000D01*
X83120000Y-84014547D01*
X83131529Y-84072506D01*
X83154143Y-84127103D01*
X83186975Y-84176239D01*
X83228761Y-84218025D01*
X83277896Y-84250856D01*
X83332493Y-84273471D01*
X83390452Y-84285000D01*
X83449547Y-84285000D01*
X83645000Y-84285000D01*
X83720000Y-84210000D01*
X83720000Y-85430304D01*
X83019696Y-85430304D01*
X82973752Y-85434808D01*
X82927720Y-85438836D01*
X82925195Y-85439569D01*
X82922579Y-85439826D01*
X82878372Y-85453172D01*
X82834012Y-85466061D01*
X82831676Y-85467271D01*
X82829161Y-85468031D01*
X82788371Y-85489719D01*
X82747376Y-85510969D01*
X82745323Y-85512607D01*
X82743000Y-85513843D01*
X82707184Y-85543054D01*
X82671114Y-85571849D01*
X82667456Y-85575456D01*
X82667379Y-85575519D01*
X82667319Y-85575590D01*
X82666143Y-85576751D01*
X82296447Y-85946447D01*
X82267167Y-85982091D01*
X82237443Y-86017516D01*
X82236174Y-86019822D01*
X82234508Y-86021852D01*
X82212701Y-86062521D01*
X82190432Y-86103029D01*
X82189636Y-86105536D01*
X82188395Y-86107852D01*
X82174892Y-86152015D01*
X82160926Y-86196044D01*
X82160633Y-86198655D01*
X82159864Y-86201171D01*
X82155194Y-86247147D01*
X82150049Y-86293019D01*
X82150012Y-86298157D01*
X82150003Y-86298255D01*
X82150011Y-86298346D01*
X82150000Y-86300000D01*
X82150000Y-87660000D01*
X82154504Y-87705943D01*
X82158532Y-87751976D01*
X82159265Y-87754500D01*
X82159522Y-87757117D01*
X82172868Y-87801323D01*
X82185757Y-87845684D01*
X82186967Y-87848019D01*
X82187727Y-87850535D01*
X82209394Y-87891285D01*
X82230664Y-87932320D01*
X82232305Y-87934376D01*
X82233539Y-87936696D01*
X82262727Y-87972484D01*
X82291545Y-88008582D01*
X82295152Y-88012239D01*
X82295215Y-88012317D01*
X82295286Y-88012376D01*
X82296447Y-88013553D01*
X82766446Y-88483553D01*
X82802116Y-88512852D01*
X82837516Y-88542557D01*
X82839822Y-88543825D01*
X82841852Y-88545492D01*
X82882521Y-88567298D01*
X82923029Y-88589568D01*
X82925536Y-88590363D01*
X82927852Y-88591605D01*
X82972015Y-88605107D01*
X83016044Y-88619074D01*
X83018655Y-88619366D01*
X83021171Y-88620136D01*
X83067102Y-88624800D01*
X83113019Y-88629951D01*
X83118167Y-88629987D01*
X83118255Y-88629996D01*
X83118336Y-88629988D01*
X83120000Y-88630000D01*
X83134802Y-88630000D01*
X83156907Y-88663389D01*
X83232162Y-88727330D01*
X83322227Y-88767829D01*
X83420000Y-88781694D01*
X84220000Y-88781694D01*
X84276795Y-88777077D01*
X84371046Y-88747606D01*
X84453389Y-88693093D01*
X84517330Y-88617838D01*
X84557829Y-88527773D01*
X84571694Y-88430000D01*
X84571694Y-87830000D01*
X84567077Y-87773205D01*
X84537606Y-87678954D01*
X84483093Y-87596611D01*
X84474410Y-87589233D01*
X84485857Y-87572103D01*
X84508471Y-87517506D01*
X84520000Y-87459547D01*
X84520000Y-87305000D01*
X84520000Y-86955000D01*
X84520000Y-86800453D01*
X84508471Y-86742494D01*
X84485857Y-86687897D01*
X84453025Y-86638761D01*
X84411239Y-86596975D01*
X84362104Y-86564144D01*
X84307507Y-86541529D01*
X84249548Y-86530000D01*
X84190453Y-86530000D01*
X83995000Y-86530000D01*
X83920000Y-86605000D01*
X83920000Y-87030000D01*
X84445000Y-87030000D01*
X84520000Y-86955000D01*
X84520000Y-87305000D01*
X84445000Y-87230000D01*
X83920000Y-87230000D01*
X83920000Y-87250000D01*
X83720000Y-87250000D01*
X83720000Y-87230000D01*
X83700000Y-87230000D01*
X83700000Y-87030000D01*
X83720000Y-87030000D01*
X83720000Y-86605000D01*
X83645000Y-86530000D01*
X83449547Y-86530000D01*
X83390452Y-86530000D01*
X83332493Y-86541529D01*
X83277896Y-86564144D01*
X83228761Y-86596975D01*
X83186975Y-86638761D01*
X83154143Y-86687897D01*
X83150000Y-86697899D01*
X83150000Y-86507106D01*
X83226802Y-86430304D01*
X84233468Y-86430304D01*
X84237350Y-86430304D01*
X84247767Y-86441091D01*
X84355258Y-86515799D01*
X84475213Y-86568206D01*
X84603063Y-86596316D01*
X84733938Y-86599057D01*
X84862853Y-86576326D01*
X84984897Y-86528988D01*
X85095423Y-86458846D01*
X85190219Y-86368573D01*
X85265676Y-86261606D01*
X85318920Y-86142019D01*
X85347921Y-86014369D01*
X85350009Y-85864852D01*
X85350009Y-90835199D01*
X85325358Y-90871201D01*
X85234582Y-91082996D01*
X85186673Y-91308390D01*
X85183456Y-91538797D01*
X85225053Y-91765441D01*
X85309879Y-91979689D01*
X85434705Y-92173380D01*
X85594775Y-92339137D01*
X85783991Y-92470646D01*
X85995148Y-92562898D01*
X86220202Y-92612379D01*
X86450581Y-92617205D01*
X86677510Y-92577192D01*
X86892344Y-92493863D01*
X87086902Y-92370392D01*
X87253773Y-92211484D01*
X87386600Y-92023190D01*
X87480324Y-91812682D01*
X87531375Y-91587979D01*
X87535050Y-91324785D01*
X87535050Y-92942600D01*
X84995050Y-92942600D01*
X84995050Y-91324785D01*
X84950293Y-91098744D01*
X84862483Y-90885702D01*
X84734965Y-90693772D01*
X84572597Y-90530267D01*
X84381562Y-90401412D01*
X84169138Y-90312117D01*
X83943415Y-90265783D01*
X83712991Y-90264174D01*
X83486644Y-90307352D01*
X83272993Y-90393673D01*
X83080178Y-90519847D01*
X82915543Y-90681070D01*
X82785358Y-90871201D01*
X82694582Y-91082996D01*
X82646673Y-91308390D01*
X82643456Y-91538797D01*
X82685053Y-91765441D01*
X82769879Y-91979689D01*
X82894705Y-92173380D01*
X83054775Y-92339137D01*
X83243991Y-92470646D01*
X83455148Y-92562898D01*
X83680202Y-92612379D01*
X83910581Y-92617205D01*
X84137510Y-92577192D01*
X84352344Y-92493863D01*
X84546902Y-92370392D01*
X84713773Y-92211484D01*
X84846600Y-92023190D01*
X84940324Y-91812682D01*
X84991375Y-91587979D01*
X84995050Y-91324785D01*
X84995050Y-92942600D01*
X82455050Y-92942600D01*
X82455050Y-91324785D01*
X82410293Y-91098744D01*
X82322483Y-90885702D01*
X82194965Y-90693772D01*
X82032597Y-90530267D01*
X82031694Y-90529657D01*
X82031694Y-88430000D01*
X82031694Y-87830000D01*
X82031694Y-82985000D01*
X82031694Y-82385000D01*
X82027077Y-82328205D01*
X81997606Y-82233954D01*
X81948301Y-82159478D01*
X81965435Y-82084065D01*
X81967523Y-81934548D01*
X81942097Y-81806138D01*
X81892213Y-81685111D01*
X81819773Y-81576079D01*
X81727533Y-81483194D01*
X81619009Y-81409993D01*
X81498334Y-81359266D01*
X81370104Y-81332944D01*
X81239204Y-81332030D01*
X81110619Y-81356559D01*
X80989247Y-81405597D01*
X80879712Y-81477275D01*
X80786185Y-81568863D01*
X80712229Y-81676873D01*
X80660660Y-81797191D01*
X80633444Y-81925234D01*
X80631616Y-82056125D01*
X80644208Y-82124734D01*
X80582670Y-82197162D01*
X80542171Y-82287227D01*
X80528306Y-82385000D01*
X80528306Y-82985000D01*
X80532923Y-83041795D01*
X80562394Y-83136046D01*
X80616907Y-83218389D01*
X80625589Y-83225766D01*
X80614143Y-83242897D01*
X80591529Y-83297494D01*
X80580000Y-83355453D01*
X80580000Y-83510000D01*
X80655000Y-83585000D01*
X81180000Y-83585000D01*
X81180000Y-83565000D01*
X81380000Y-83565000D01*
X81380000Y-83585000D01*
X81905000Y-83585000D01*
X81980000Y-83510000D01*
X81980000Y-83355453D01*
X81968471Y-83297494D01*
X81945857Y-83242897D01*
X81933507Y-83224414D01*
X81977330Y-83172838D01*
X82017829Y-83082773D01*
X82031694Y-82985000D01*
X82031694Y-87830000D01*
X82027077Y-87773205D01*
X81997606Y-87678954D01*
X81943093Y-87596611D01*
X81934410Y-87589233D01*
X81945857Y-87572103D01*
X81968471Y-87517506D01*
X81980000Y-87459547D01*
X81980000Y-87305000D01*
X81980000Y-86955000D01*
X81980000Y-86800453D01*
X81980000Y-84014547D01*
X81980000Y-83860000D01*
X81905000Y-83785000D01*
X81380000Y-83785000D01*
X81380000Y-84210000D01*
X81455000Y-84285000D01*
X81650453Y-84285000D01*
X81709548Y-84285000D01*
X81767507Y-84273471D01*
X81822104Y-84250856D01*
X81871239Y-84218025D01*
X81913025Y-84176239D01*
X81945857Y-84127103D01*
X81968471Y-84072506D01*
X81980000Y-84014547D01*
X81980000Y-86800453D01*
X81968471Y-86742494D01*
X81945857Y-86687897D01*
X81913025Y-86638761D01*
X81871239Y-86596975D01*
X81822104Y-86564144D01*
X81767507Y-86541529D01*
X81709548Y-86530000D01*
X81650453Y-86530000D01*
X81455000Y-86530000D01*
X81380000Y-86605000D01*
X81380000Y-87030000D01*
X81905000Y-87030000D01*
X81980000Y-86955000D01*
X81980000Y-87305000D01*
X81905000Y-87230000D01*
X81380000Y-87230000D01*
X81380000Y-87250000D01*
X81180000Y-87250000D01*
X81180000Y-87230000D01*
X81180000Y-87030000D01*
X81180000Y-86605000D01*
X81180000Y-84210000D01*
X81180000Y-83785000D01*
X80655000Y-83785000D01*
X80580000Y-83860000D01*
X80580000Y-84014547D01*
X80591529Y-84072506D01*
X80614143Y-84127103D01*
X80646975Y-84176239D01*
X80688761Y-84218025D01*
X80737896Y-84250856D01*
X80792493Y-84273471D01*
X80850452Y-84285000D01*
X80909547Y-84285000D01*
X81105000Y-84285000D01*
X81180000Y-84210000D01*
X81180000Y-86605000D01*
X81105000Y-86530000D01*
X80909547Y-86530000D01*
X80850452Y-86530000D01*
X80792493Y-86541529D01*
X80737896Y-86564144D01*
X80688761Y-86596975D01*
X80646975Y-86638761D01*
X80614143Y-86687897D01*
X80591529Y-86742494D01*
X80580000Y-86800453D01*
X80580000Y-86955000D01*
X80655000Y-87030000D01*
X81180000Y-87030000D01*
X81180000Y-87230000D01*
X80655000Y-87230000D01*
X80580000Y-87305000D01*
X80580000Y-87459547D01*
X80591529Y-87517506D01*
X80614143Y-87572103D01*
X80626492Y-87590585D01*
X80582670Y-87642162D01*
X80542171Y-87732227D01*
X80528306Y-87830000D01*
X80528306Y-88430000D01*
X80532923Y-88486795D01*
X80562394Y-88581046D01*
X80616907Y-88663389D01*
X80642053Y-88684755D01*
X80633450Y-88725234D01*
X80631622Y-88856125D01*
X80655253Y-88984878D01*
X80703442Y-89106589D01*
X80774353Y-89216622D01*
X80865287Y-89310787D01*
X80972778Y-89385495D01*
X81092733Y-89437902D01*
X81220583Y-89466012D01*
X81351458Y-89468753D01*
X81480373Y-89446022D01*
X81602417Y-89398684D01*
X81712943Y-89328542D01*
X81807739Y-89238269D01*
X81883196Y-89131302D01*
X81936440Y-89011715D01*
X81965441Y-88884065D01*
X81967529Y-88734548D01*
X81950639Y-88649251D01*
X81977330Y-88617838D01*
X82017829Y-88527773D01*
X82031694Y-88430000D01*
X82031694Y-90529657D01*
X81841562Y-90401412D01*
X81629138Y-90312117D01*
X81403415Y-90265783D01*
X81172991Y-90264174D01*
X80946644Y-90307352D01*
X80732993Y-90393673D01*
X80540178Y-90519847D01*
X80375543Y-90681070D01*
X80245358Y-90871201D01*
X80154582Y-91082996D01*
X80106673Y-91308390D01*
X80103456Y-91538797D01*
X80145053Y-91765441D01*
X80229879Y-91979689D01*
X80354705Y-92173380D01*
X80514775Y-92339137D01*
X80703991Y-92470646D01*
X80915148Y-92562898D01*
X81140202Y-92612379D01*
X81370581Y-92617205D01*
X81597510Y-92577192D01*
X81812344Y-92493863D01*
X82006902Y-92370392D01*
X82173773Y-92211484D01*
X82306600Y-92023190D01*
X82400324Y-91812682D01*
X82451375Y-91587979D01*
X82455050Y-91324785D01*
X82455050Y-92942600D01*
X80022228Y-92942600D01*
X79965052Y-92936993D01*
X79921820Y-92923941D01*
X79881944Y-92902739D01*
X79846949Y-92874198D01*
X79818158Y-92839395D01*
X79796679Y-92799669D01*
X79783325Y-92756531D01*
X79777400Y-92700148D01*
X79777400Y-81190628D01*
X79783006Y-81133452D01*
X79796058Y-81090220D01*
X79817261Y-81050343D01*
X79845802Y-81015348D01*
X79880603Y-80986559D01*
X79920327Y-80965080D01*
X79963469Y-80951725D01*
X80019851Y-80945800D01*
X102781571Y-80945800D01*
X102838747Y-80951406D01*
X102881979Y-80964458D01*
X102921856Y-80985661D01*
X102956851Y-81014202D01*
X102985640Y-81049003D01*
X103007119Y-81088727D01*
X103020474Y-81131869D01*
X103026400Y-81188251D01*
X103026400Y-92697771D01*
M02*
