G04 #@! TF.FileFunction,Legend,Top*
%FSLAX46Y46*%
G04 Gerber Fmt 4.6, Leading zero omitted, Abs format (unit mm)*
G04 Created by KiCad (PCBNEW (2015-04-05 BZR 5576)-product) date Tue 07 Apr 2015 01:19:10 PM CEST*
%MOMM*%
G01*
G04 APERTURE LIST*
%ADD10C,0.150000*%
%ADD11C,0.200000*%
%ADD12C,0.100000*%
%ADD13C,0.250000*%
%ADD14R,1.650000X1.650000*%
%ADD15C,1.650000*%
%ADD16R,0.800000X0.600000*%
G04 APERTURE END LIST*
D10*
D11*
X80010000Y-92710000D02*
X80010000Y-90170000D01*
X80010000Y-90170000D02*
X102870000Y-90170000D01*
X102870000Y-90170000D02*
X102870000Y-92710000D01*
X80010000Y-92710000D02*
X102870000Y-92710000D01*
X100330000Y-92710000D02*
X100330000Y-90170000D01*
X87210000Y-81935000D02*
X87210000Y-84435000D01*
X87210000Y-84435000D02*
X85510000Y-84435000D01*
X85510000Y-84435000D02*
X85510000Y-81935000D01*
X85510000Y-81935000D02*
X87210000Y-81935000D01*
D12*
X86055200Y-82631280D02*
X86055200Y-82931000D01*
X86055200Y-82931000D02*
X86654640Y-82931000D01*
X86654640Y-82631280D02*
X86654640Y-82931000D01*
X86055200Y-82631280D02*
X86654640Y-82631280D01*
X86055200Y-83441540D02*
X86055200Y-83743800D01*
X86055200Y-83743800D02*
X86654640Y-83743800D01*
X86654640Y-83441540D02*
X86654640Y-83743800D01*
X86055200Y-83441540D02*
X86654640Y-83441540D01*
X86583520Y-82941160D02*
X86583520Y-83428840D01*
X86136480Y-83428840D02*
X86136480Y-82941160D01*
D11*
X82130000Y-86380000D02*
X82130000Y-88880000D01*
X82130000Y-88880000D02*
X80430000Y-88880000D01*
X80430000Y-88880000D02*
X80430000Y-86380000D01*
X80430000Y-86380000D02*
X82130000Y-86380000D01*
D12*
X80975200Y-87076280D02*
X80975200Y-87376000D01*
X80975200Y-87376000D02*
X81574640Y-87376000D01*
X81574640Y-87076280D02*
X81574640Y-87376000D01*
X80975200Y-87076280D02*
X81574640Y-87076280D01*
X80975200Y-87886540D02*
X80975200Y-88188800D01*
X80975200Y-88188800D02*
X81574640Y-88188800D01*
X81574640Y-87886540D02*
X81574640Y-88188800D01*
X80975200Y-87886540D02*
X81574640Y-87886540D01*
X81503520Y-87386160D02*
X81503520Y-87873840D01*
X81056480Y-87873840D02*
X81056480Y-87386160D01*
D11*
X97370000Y-86380000D02*
X97370000Y-88880000D01*
X97370000Y-88880000D02*
X95670000Y-88880000D01*
X95670000Y-88880000D02*
X95670000Y-86380000D01*
X95670000Y-86380000D02*
X97370000Y-86380000D01*
D12*
X96215200Y-87076280D02*
X96215200Y-87376000D01*
X96215200Y-87376000D02*
X96814640Y-87376000D01*
X96814640Y-87076280D02*
X96814640Y-87376000D01*
X96215200Y-87076280D02*
X96814640Y-87076280D01*
X96215200Y-87886540D02*
X96215200Y-88188800D01*
X96215200Y-88188800D02*
X96814640Y-88188800D01*
X96814640Y-87886540D02*
X96814640Y-88188800D01*
X96215200Y-87886540D02*
X96814640Y-87886540D01*
X96743520Y-87386160D02*
X96743520Y-87873840D01*
X96296480Y-87873840D02*
X96296480Y-87386160D01*
D11*
X84670000Y-86380000D02*
X84670000Y-88880000D01*
X84670000Y-88880000D02*
X82970000Y-88880000D01*
X82970000Y-88880000D02*
X82970000Y-86380000D01*
X82970000Y-86380000D02*
X84670000Y-86380000D01*
D12*
X83515200Y-87076280D02*
X83515200Y-87376000D01*
X83515200Y-87376000D02*
X84114640Y-87376000D01*
X84114640Y-87076280D02*
X84114640Y-87376000D01*
X83515200Y-87076280D02*
X84114640Y-87076280D01*
X83515200Y-87886540D02*
X83515200Y-88188800D01*
X83515200Y-88188800D02*
X84114640Y-88188800D01*
X84114640Y-87886540D02*
X84114640Y-88188800D01*
X83515200Y-87886540D02*
X84114640Y-87886540D01*
X84043520Y-87386160D02*
X84043520Y-87873840D01*
X83596480Y-87873840D02*
X83596480Y-87386160D01*
D11*
X87210000Y-86380000D02*
X87210000Y-88880000D01*
X87210000Y-88880000D02*
X85510000Y-88880000D01*
X85510000Y-88880000D02*
X85510000Y-86380000D01*
X85510000Y-86380000D02*
X87210000Y-86380000D01*
D12*
X86055200Y-87076280D02*
X86055200Y-87376000D01*
X86055200Y-87376000D02*
X86654640Y-87376000D01*
X86654640Y-87076280D02*
X86654640Y-87376000D01*
X86055200Y-87076280D02*
X86654640Y-87076280D01*
X86055200Y-87886540D02*
X86055200Y-88188800D01*
X86055200Y-88188800D02*
X86654640Y-88188800D01*
X86654640Y-87886540D02*
X86654640Y-88188800D01*
X86055200Y-87886540D02*
X86654640Y-87886540D01*
X86583520Y-87386160D02*
X86583520Y-87873840D01*
X86136480Y-87873840D02*
X86136480Y-87386160D01*
D11*
X89750000Y-86380000D02*
X89750000Y-88880000D01*
X89750000Y-88880000D02*
X88050000Y-88880000D01*
X88050000Y-88880000D02*
X88050000Y-86380000D01*
X88050000Y-86380000D02*
X89750000Y-86380000D01*
D12*
X88595200Y-87076280D02*
X88595200Y-87376000D01*
X88595200Y-87376000D02*
X89194640Y-87376000D01*
X89194640Y-87076280D02*
X89194640Y-87376000D01*
X88595200Y-87076280D02*
X89194640Y-87076280D01*
X88595200Y-87886540D02*
X88595200Y-88188800D01*
X88595200Y-88188800D02*
X89194640Y-88188800D01*
X89194640Y-87886540D02*
X89194640Y-88188800D01*
X88595200Y-87886540D02*
X89194640Y-87886540D01*
X89123520Y-87386160D02*
X89123520Y-87873840D01*
X88676480Y-87873840D02*
X88676480Y-87386160D01*
D11*
X92290000Y-86380000D02*
X92290000Y-88880000D01*
X92290000Y-88880000D02*
X90590000Y-88880000D01*
X90590000Y-88880000D02*
X90590000Y-86380000D01*
X90590000Y-86380000D02*
X92290000Y-86380000D01*
D12*
X91135200Y-87076280D02*
X91135200Y-87376000D01*
X91135200Y-87376000D02*
X91734640Y-87376000D01*
X91734640Y-87076280D02*
X91734640Y-87376000D01*
X91135200Y-87076280D02*
X91734640Y-87076280D01*
X91135200Y-87886540D02*
X91135200Y-88188800D01*
X91135200Y-88188800D02*
X91734640Y-88188800D01*
X91734640Y-87886540D02*
X91734640Y-88188800D01*
X91135200Y-87886540D02*
X91734640Y-87886540D01*
X91663520Y-87386160D02*
X91663520Y-87873840D01*
X91216480Y-87873840D02*
X91216480Y-87386160D01*
D11*
X94830000Y-86380000D02*
X94830000Y-88880000D01*
X94830000Y-88880000D02*
X93130000Y-88880000D01*
X93130000Y-88880000D02*
X93130000Y-86380000D01*
X93130000Y-86380000D02*
X94830000Y-86380000D01*
D12*
X93675200Y-87076280D02*
X93675200Y-87376000D01*
X93675200Y-87376000D02*
X94274640Y-87376000D01*
X94274640Y-87076280D02*
X94274640Y-87376000D01*
X93675200Y-87076280D02*
X94274640Y-87076280D01*
X93675200Y-87886540D02*
X93675200Y-88188800D01*
X93675200Y-88188800D02*
X94274640Y-88188800D01*
X94274640Y-87886540D02*
X94274640Y-88188800D01*
X93675200Y-87886540D02*
X94274640Y-87886540D01*
X94203520Y-87386160D02*
X94203520Y-87873840D01*
X93756480Y-87873840D02*
X93756480Y-87386160D01*
D11*
X99910000Y-86380000D02*
X99910000Y-88880000D01*
X99910000Y-88880000D02*
X98210000Y-88880000D01*
X98210000Y-88880000D02*
X98210000Y-86380000D01*
X98210000Y-86380000D02*
X99910000Y-86380000D01*
D12*
X98755200Y-87076280D02*
X98755200Y-87376000D01*
X98755200Y-87376000D02*
X99354640Y-87376000D01*
X99354640Y-87076280D02*
X99354640Y-87376000D01*
X98755200Y-87076280D02*
X99354640Y-87076280D01*
X98755200Y-87886540D02*
X98755200Y-88188800D01*
X98755200Y-88188800D02*
X99354640Y-88188800D01*
X99354640Y-87886540D02*
X99354640Y-88188800D01*
X98755200Y-87886540D02*
X99354640Y-87886540D01*
X99283520Y-87386160D02*
X99283520Y-87873840D01*
X98836480Y-87873840D02*
X98836480Y-87386160D01*
D11*
X82130000Y-81935000D02*
X82130000Y-84435000D01*
X82130000Y-84435000D02*
X80430000Y-84435000D01*
X80430000Y-84435000D02*
X80430000Y-81935000D01*
X80430000Y-81935000D02*
X82130000Y-81935000D01*
D12*
X80975200Y-82631280D02*
X80975200Y-82931000D01*
X80975200Y-82931000D02*
X81574640Y-82931000D01*
X81574640Y-82631280D02*
X81574640Y-82931000D01*
X80975200Y-82631280D02*
X81574640Y-82631280D01*
X80975200Y-83441540D02*
X80975200Y-83743800D01*
X80975200Y-83743800D02*
X81574640Y-83743800D01*
X81574640Y-83441540D02*
X81574640Y-83743800D01*
X80975200Y-83441540D02*
X81574640Y-83441540D01*
X81503520Y-82941160D02*
X81503520Y-83428840D01*
X81056480Y-83428840D02*
X81056480Y-82941160D01*
D11*
X84670000Y-81935000D02*
X84670000Y-84435000D01*
X84670000Y-84435000D02*
X82970000Y-84435000D01*
X82970000Y-84435000D02*
X82970000Y-81935000D01*
X82970000Y-81935000D02*
X84670000Y-81935000D01*
D12*
X83515200Y-82631280D02*
X83515200Y-82931000D01*
X83515200Y-82931000D02*
X84114640Y-82931000D01*
X84114640Y-82631280D02*
X84114640Y-82931000D01*
X83515200Y-82631280D02*
X84114640Y-82631280D01*
X83515200Y-83441540D02*
X83515200Y-83743800D01*
X83515200Y-83743800D02*
X84114640Y-83743800D01*
X84114640Y-83441540D02*
X84114640Y-83743800D01*
X83515200Y-83441540D02*
X84114640Y-83441540D01*
X84043520Y-82941160D02*
X84043520Y-83428840D01*
X83596480Y-83428840D02*
X83596480Y-82941160D01*
D11*
X89750000Y-81935000D02*
X89750000Y-84435000D01*
X89750000Y-84435000D02*
X88050000Y-84435000D01*
X88050000Y-84435000D02*
X88050000Y-81935000D01*
X88050000Y-81935000D02*
X89750000Y-81935000D01*
D12*
X88595200Y-82631280D02*
X88595200Y-82931000D01*
X88595200Y-82931000D02*
X89194640Y-82931000D01*
X89194640Y-82631280D02*
X89194640Y-82931000D01*
X88595200Y-82631280D02*
X89194640Y-82631280D01*
X88595200Y-83441540D02*
X88595200Y-83743800D01*
X88595200Y-83743800D02*
X89194640Y-83743800D01*
X89194640Y-83441540D02*
X89194640Y-83743800D01*
X88595200Y-83441540D02*
X89194640Y-83441540D01*
X89123520Y-82941160D02*
X89123520Y-83428840D01*
X88676480Y-83428840D02*
X88676480Y-82941160D01*
D11*
X92290000Y-81935000D02*
X92290000Y-84435000D01*
X92290000Y-84435000D02*
X90590000Y-84435000D01*
X90590000Y-84435000D02*
X90590000Y-81935000D01*
X90590000Y-81935000D02*
X92290000Y-81935000D01*
D12*
X91135200Y-82631280D02*
X91135200Y-82931000D01*
X91135200Y-82931000D02*
X91734640Y-82931000D01*
X91734640Y-82631280D02*
X91734640Y-82931000D01*
X91135200Y-82631280D02*
X91734640Y-82631280D01*
X91135200Y-83441540D02*
X91135200Y-83743800D01*
X91135200Y-83743800D02*
X91734640Y-83743800D01*
X91734640Y-83441540D02*
X91734640Y-83743800D01*
X91135200Y-83441540D02*
X91734640Y-83441540D01*
X91663520Y-82941160D02*
X91663520Y-83428840D01*
X91216480Y-83428840D02*
X91216480Y-82941160D01*
D11*
X94830000Y-81935000D02*
X94830000Y-84435000D01*
X94830000Y-84435000D02*
X93130000Y-84435000D01*
X93130000Y-84435000D02*
X93130000Y-81935000D01*
X93130000Y-81935000D02*
X94830000Y-81935000D01*
D12*
X93675200Y-82631280D02*
X93675200Y-82931000D01*
X93675200Y-82931000D02*
X94274640Y-82931000D01*
X94274640Y-82631280D02*
X94274640Y-82931000D01*
X93675200Y-82631280D02*
X94274640Y-82631280D01*
X93675200Y-83441540D02*
X93675200Y-83743800D01*
X93675200Y-83743800D02*
X94274640Y-83743800D01*
X94274640Y-83441540D02*
X94274640Y-83743800D01*
X93675200Y-83441540D02*
X94274640Y-83441540D01*
X94203520Y-82941160D02*
X94203520Y-83428840D01*
X93756480Y-83428840D02*
X93756480Y-82941160D01*
D11*
X97370000Y-81935000D02*
X97370000Y-84435000D01*
X97370000Y-84435000D02*
X95670000Y-84435000D01*
X95670000Y-84435000D02*
X95670000Y-81935000D01*
X95670000Y-81935000D02*
X97370000Y-81935000D01*
D12*
X96215200Y-82631280D02*
X96215200Y-82931000D01*
X96215200Y-82931000D02*
X96814640Y-82931000D01*
X96814640Y-82631280D02*
X96814640Y-82931000D01*
X96215200Y-82631280D02*
X96814640Y-82631280D01*
X96215200Y-83441540D02*
X96215200Y-83743800D01*
X96215200Y-83743800D02*
X96814640Y-83743800D01*
X96814640Y-83441540D02*
X96814640Y-83743800D01*
X96215200Y-83441540D02*
X96814640Y-83441540D01*
X96743520Y-82941160D02*
X96743520Y-83428840D01*
X96296480Y-83428840D02*
X96296480Y-82941160D01*
D11*
X99910000Y-81935000D02*
X99910000Y-84435000D01*
X99910000Y-84435000D02*
X98210000Y-84435000D01*
X98210000Y-84435000D02*
X98210000Y-81935000D01*
X98210000Y-81935000D02*
X99910000Y-81935000D01*
D12*
X98755200Y-82631280D02*
X98755200Y-82931000D01*
X98755200Y-82931000D02*
X99354640Y-82931000D01*
X99354640Y-82631280D02*
X99354640Y-82931000D01*
X98755200Y-82631280D02*
X99354640Y-82631280D01*
X98755200Y-83441540D02*
X98755200Y-83743800D01*
X98755200Y-83743800D02*
X99354640Y-83743800D01*
X99354640Y-83441540D02*
X99354640Y-83743800D01*
X98755200Y-83441540D02*
X99354640Y-83441540D01*
X99283520Y-82941160D02*
X99283520Y-83428840D01*
X98836480Y-83428840D02*
X98836480Y-82941160D01*
%LPC*%
D13*
X100997619Y-89223809D02*
X100997619Y-89119048D01*
X101050000Y-89014286D01*
X101102381Y-88961905D01*
X101207143Y-88909524D01*
X101416667Y-88857143D01*
X101678571Y-88857143D01*
X101888095Y-88909524D01*
X101992857Y-88961905D01*
X102045238Y-89014286D01*
X102097619Y-89119048D01*
X102097619Y-89223809D01*
X102045238Y-89328571D01*
X101992857Y-89380952D01*
X101888095Y-89433333D01*
X101678571Y-89485714D01*
X101416667Y-89485714D01*
X101207143Y-89433333D01*
X101102381Y-89380952D01*
X101050000Y-89328571D01*
X100997619Y-89223809D01*
X101364286Y-87914286D02*
X102097619Y-87914286D01*
X100945238Y-88176190D02*
X101730952Y-88438095D01*
X101730952Y-87757143D01*
X100997619Y-87128571D02*
X100997619Y-87023810D01*
X101050000Y-86919048D01*
X101102381Y-86866667D01*
X101207143Y-86814286D01*
X101416667Y-86761905D01*
X101678571Y-86761905D01*
X101888095Y-86814286D01*
X101992857Y-86866667D01*
X102045238Y-86919048D01*
X102097619Y-87023810D01*
X102097619Y-87128571D01*
X102045238Y-87233333D01*
X101992857Y-87285714D01*
X101888095Y-87338095D01*
X101678571Y-87390476D01*
X101416667Y-87390476D01*
X101207143Y-87338095D01*
X101102381Y-87285714D01*
X101050000Y-87233333D01*
X100997619Y-87128571D01*
X101102381Y-86342857D02*
X101050000Y-86290476D01*
X100997619Y-86185714D01*
X100997619Y-85923810D01*
X101050000Y-85819048D01*
X101102381Y-85766667D01*
X101207143Y-85714286D01*
X101311905Y-85714286D01*
X101469048Y-85766667D01*
X102097619Y-86395238D01*
X102097619Y-85714286D01*
X101364286Y-84561905D02*
X101364286Y-84142857D01*
X100997619Y-84404762D02*
X101940476Y-84404762D01*
X102045238Y-84352381D01*
X102097619Y-84247619D01*
X102097619Y-84142857D01*
X102097619Y-83776191D02*
X100997619Y-83776191D01*
X102097619Y-83304763D02*
X101521429Y-83304763D01*
X101416667Y-83357144D01*
X101364286Y-83461906D01*
X101364286Y-83619048D01*
X101416667Y-83723810D01*
X101469048Y-83776191D01*
X102097619Y-82780953D02*
X101364286Y-82780953D01*
X100997619Y-82780953D02*
X101050000Y-82833334D01*
X101102381Y-82780953D01*
X101050000Y-82728572D01*
X100997619Y-82780953D01*
X101102381Y-82780953D01*
X102045238Y-82309524D02*
X102097619Y-82204762D01*
X102097619Y-81995238D01*
X102045238Y-81890477D01*
X101940476Y-81838096D01*
X101888095Y-81838096D01*
X101783333Y-81890477D01*
X101730952Y-81995238D01*
X101730952Y-82152381D01*
X101678571Y-82257143D01*
X101573810Y-82309524D01*
X101521429Y-82309524D01*
X101416667Y-82257143D01*
X101364286Y-82152381D01*
X101364286Y-81995238D01*
X101416667Y-81890477D01*
X101992857Y-81366667D02*
X102045238Y-81314286D01*
X102097619Y-81366667D01*
X102045238Y-81419048D01*
X101992857Y-81366667D01*
X102097619Y-81366667D01*
X101678571Y-81366667D02*
X101050000Y-81419048D01*
X100997619Y-81366667D01*
X101050000Y-81314286D01*
X101678571Y-81366667D01*
X100997619Y-81366667D01*
D14*
X101600000Y-91440000D03*
D15*
X99060000Y-91440000D03*
X96520000Y-91440000D03*
X93980000Y-91440000D03*
X91440000Y-91440000D03*
X88900000Y-91440000D03*
X86360000Y-91440000D03*
X83820000Y-91440000D03*
X81280000Y-91440000D03*
D16*
X86360000Y-82685000D03*
X86360000Y-83685000D03*
X81280000Y-87130000D03*
X81280000Y-88130000D03*
X96520000Y-87130000D03*
X96520000Y-88130000D03*
X83820000Y-87130000D03*
X83820000Y-88130000D03*
X86360000Y-87130000D03*
X86360000Y-88130000D03*
X88900000Y-87130000D03*
X88900000Y-88130000D03*
X91440000Y-87130000D03*
X91440000Y-88130000D03*
X93980000Y-87130000D03*
X93980000Y-88130000D03*
X99060000Y-87130000D03*
X99060000Y-88130000D03*
X81280000Y-82685000D03*
X81280000Y-83685000D03*
X83820000Y-82685000D03*
X83820000Y-83685000D03*
X88900000Y-82685000D03*
X88900000Y-83685000D03*
X91440000Y-82685000D03*
X91440000Y-83685000D03*
X93980000Y-82685000D03*
X93980000Y-83685000D03*
X96520000Y-82685000D03*
X96520000Y-83685000D03*
X99060000Y-82685000D03*
X99060000Y-83685000D03*
M02*
