G04 #@! TF.FileFunction,Legend,Bot*
%FSLAX46Y46*%
G04 Gerber Fmt 4.6, Leading zero omitted, Abs format (unit mm)*
G04 Created by KiCad (PCBNEW (2015-04-05 BZR 5576)-product) date Tue 07 Apr 2015 01:01:35 AM CEST*
%MOMM*%
G01*
G04 APERTURE LIST*
%ADD10C,0.150000*%
%ADD11C,0.250000*%
%ADD12C,0.002540*%
%ADD13R,1.650000X1.650000*%
%ADD14C,1.650000*%
%ADD15R,0.650000X1.000000*%
%ADD16R,0.500000X1.000000*%
G04 APERTURE END LIST*
D10*
D11*
X98654763Y-83327381D02*
X98654763Y-82327381D01*
X98654763Y-82708333D02*
X98559525Y-82660714D01*
X98369048Y-82660714D01*
X98273810Y-82708333D01*
X98226191Y-82755952D01*
X98178572Y-82851190D01*
X98178572Y-83136905D01*
X98226191Y-83232143D01*
X98273810Y-83279762D01*
X98369048Y-83327381D01*
X98559525Y-83327381D01*
X98654763Y-83279762D01*
X97607144Y-83327381D02*
X97702382Y-83279762D01*
X97750001Y-83184524D01*
X97750001Y-82327381D01*
X97083334Y-83327381D02*
X97178572Y-83279762D01*
X97226191Y-83232143D01*
X97273810Y-83136905D01*
X97273810Y-82851190D01*
X97226191Y-82755952D01*
X97178572Y-82708333D01*
X97083334Y-82660714D01*
X96940476Y-82660714D01*
X96845238Y-82708333D01*
X96797619Y-82755952D01*
X96750000Y-82851190D01*
X96750000Y-83136905D01*
X96797619Y-83232143D01*
X96845238Y-83279762D01*
X96940476Y-83327381D01*
X97083334Y-83327381D01*
X95892857Y-82660714D02*
X95892857Y-83470238D01*
X95940476Y-83565476D01*
X95988095Y-83613095D01*
X96083334Y-83660714D01*
X96226191Y-83660714D01*
X96321429Y-83613095D01*
X95892857Y-83279762D02*
X95988095Y-83327381D01*
X96178572Y-83327381D01*
X96273810Y-83279762D01*
X96321429Y-83232143D01*
X96369048Y-83136905D01*
X96369048Y-82851190D01*
X96321429Y-82755952D01*
X96273810Y-82708333D01*
X96178572Y-82660714D01*
X95988095Y-82660714D01*
X95892857Y-82708333D01*
X95416667Y-83232143D02*
X95369048Y-83279762D01*
X95416667Y-83327381D01*
X95464286Y-83279762D01*
X95416667Y-83232143D01*
X95416667Y-83327381D01*
X94988096Y-83279762D02*
X94892858Y-83327381D01*
X94702382Y-83327381D01*
X94607143Y-83279762D01*
X94559524Y-83184524D01*
X94559524Y-83136905D01*
X94607143Y-83041667D01*
X94702382Y-82994048D01*
X94845239Y-82994048D01*
X94940477Y-82946429D01*
X94988096Y-82851190D01*
X94988096Y-82803571D01*
X94940477Y-82708333D01*
X94845239Y-82660714D01*
X94702382Y-82660714D01*
X94607143Y-82708333D01*
X94130953Y-82660714D02*
X94130953Y-83660714D01*
X94130953Y-82708333D02*
X94035715Y-82660714D01*
X93845238Y-82660714D01*
X93750000Y-82708333D01*
X93702381Y-82755952D01*
X93654762Y-82851190D01*
X93654762Y-83136905D01*
X93702381Y-83232143D01*
X93750000Y-83279762D01*
X93845238Y-83327381D01*
X94035715Y-83327381D01*
X94130953Y-83279762D01*
X93226191Y-83327381D02*
X93226191Y-82660714D01*
X93226191Y-82327381D02*
X93273810Y-82375000D01*
X93226191Y-82422619D01*
X93178572Y-82375000D01*
X93226191Y-82327381D01*
X93226191Y-82422619D01*
X92892858Y-82660714D02*
X92511906Y-82660714D01*
X92750001Y-82327381D02*
X92750001Y-83184524D01*
X92702382Y-83279762D01*
X92607144Y-83327381D01*
X92511906Y-83327381D01*
X92273810Y-82660714D02*
X91750000Y-82660714D01*
X92273810Y-83327381D01*
X91750000Y-83327381D01*
X90988095Y-83279762D02*
X91083333Y-83327381D01*
X91273810Y-83327381D01*
X91369048Y-83279762D01*
X91416667Y-83184524D01*
X91416667Y-82803571D01*
X91369048Y-82708333D01*
X91273810Y-82660714D01*
X91083333Y-82660714D01*
X90988095Y-82708333D01*
X90940476Y-82803571D01*
X90940476Y-82898810D01*
X91416667Y-82994048D01*
X90511905Y-82660714D02*
X90511905Y-83327381D01*
X90511905Y-82755952D02*
X90464286Y-82708333D01*
X90369048Y-82660714D01*
X90226190Y-82660714D01*
X90130952Y-82708333D01*
X90083333Y-82803571D01*
X90083333Y-83327381D01*
X89607143Y-82660714D02*
X89607143Y-83660714D01*
X89607143Y-82708333D02*
X89511905Y-82660714D01*
X89321428Y-82660714D01*
X89226190Y-82708333D01*
X89178571Y-82755952D01*
X89130952Y-82851190D01*
X89130952Y-83136905D01*
X89178571Y-83232143D01*
X89226190Y-83279762D01*
X89321428Y-83327381D01*
X89511905Y-83327381D01*
X89607143Y-83279762D01*
X88845238Y-82660714D02*
X88464286Y-82660714D01*
X88702381Y-83327381D02*
X88702381Y-82470238D01*
X88654762Y-82375000D01*
X88559524Y-82327381D01*
X88464286Y-82327381D01*
X87749999Y-83279762D02*
X87845237Y-83327381D01*
X88035714Y-83327381D01*
X88130952Y-83279762D01*
X88178571Y-83184524D01*
X88178571Y-82803571D01*
X88130952Y-82708333D01*
X88035714Y-82660714D01*
X87845237Y-82660714D01*
X87749999Y-82708333D01*
X87702380Y-82803571D01*
X87702380Y-82898810D01*
X88178571Y-82994048D01*
X87273809Y-83327381D02*
X87273809Y-82660714D01*
X87273809Y-82327381D02*
X87321428Y-82375000D01*
X87273809Y-82422619D01*
X87226190Y-82375000D01*
X87273809Y-82327381D01*
X87273809Y-82422619D01*
X86654762Y-83327381D02*
X86750000Y-83279762D01*
X86797619Y-83184524D01*
X86797619Y-82327381D01*
X86273809Y-83232143D02*
X86226190Y-83279762D01*
X86273809Y-83327381D01*
X86321428Y-83279762D01*
X86273809Y-83232143D01*
X86273809Y-83327381D01*
X85654762Y-83327381D02*
X85750000Y-83279762D01*
X85797619Y-83232143D01*
X85845238Y-83136905D01*
X85845238Y-82851190D01*
X85797619Y-82755952D01*
X85750000Y-82708333D01*
X85654762Y-82660714D01*
X85511904Y-82660714D01*
X85416666Y-82708333D01*
X85369047Y-82755952D01*
X85321428Y-82851190D01*
X85321428Y-83136905D01*
X85369047Y-83232143D01*
X85416666Y-83279762D01*
X85511904Y-83327381D01*
X85654762Y-83327381D01*
X84892857Y-83327381D02*
X84892857Y-82660714D01*
X84892857Y-82851190D02*
X84845238Y-82755952D01*
X84797619Y-82708333D01*
X84702381Y-82660714D01*
X84607142Y-82660714D01*
X83845237Y-82660714D02*
X83845237Y-83470238D01*
X83892856Y-83565476D01*
X83940475Y-83613095D01*
X84035714Y-83660714D01*
X84178571Y-83660714D01*
X84273809Y-83613095D01*
X83845237Y-83279762D02*
X83940475Y-83327381D01*
X84130952Y-83327381D01*
X84226190Y-83279762D01*
X84273809Y-83232143D01*
X84321428Y-83136905D01*
X84321428Y-82851190D01*
X84273809Y-82755952D01*
X84226190Y-82708333D01*
X84130952Y-82660714D01*
X83940475Y-82660714D01*
X83845237Y-82708333D01*
X96440476Y-84072619D02*
X96392857Y-84025000D01*
X96297619Y-83977381D01*
X96059523Y-83977381D01*
X95964285Y-84025000D01*
X95916666Y-84072619D01*
X95869047Y-84167857D01*
X95869047Y-84263095D01*
X95916666Y-84405952D01*
X96488095Y-84977381D01*
X95869047Y-84977381D01*
X95250000Y-83977381D02*
X95154761Y-83977381D01*
X95059523Y-84025000D01*
X95011904Y-84072619D01*
X94964285Y-84167857D01*
X94916666Y-84358333D01*
X94916666Y-84596429D01*
X94964285Y-84786905D01*
X95011904Y-84882143D01*
X95059523Y-84929762D01*
X95154761Y-84977381D01*
X95250000Y-84977381D01*
X95345238Y-84929762D01*
X95392857Y-84882143D01*
X95440476Y-84786905D01*
X95488095Y-84596429D01*
X95488095Y-84358333D01*
X95440476Y-84167857D01*
X95392857Y-84072619D01*
X95345238Y-84025000D01*
X95250000Y-83977381D01*
X93964285Y-84977381D02*
X94535714Y-84977381D01*
X94250000Y-84977381D02*
X94250000Y-83977381D01*
X94345238Y-84120238D01*
X94440476Y-84215476D01*
X94535714Y-84263095D01*
X93059523Y-83977381D02*
X93535714Y-83977381D01*
X93583333Y-84453571D01*
X93535714Y-84405952D01*
X93440476Y-84358333D01*
X93202380Y-84358333D01*
X93107142Y-84405952D01*
X93059523Y-84453571D01*
X93011904Y-84548810D01*
X93011904Y-84786905D01*
X93059523Y-84882143D01*
X93107142Y-84929762D01*
X93202380Y-84977381D01*
X93440476Y-84977381D01*
X93535714Y-84929762D01*
X93583333Y-84882143D01*
X91821428Y-84596429D02*
X91059523Y-84596429D01*
X89964285Y-83977381D02*
X89630952Y-84977381D01*
X89297618Y-83977381D01*
X88773809Y-83977381D02*
X88678570Y-83977381D01*
X88583332Y-84025000D01*
X88535713Y-84072619D01*
X88488094Y-84167857D01*
X88440475Y-84358333D01*
X88440475Y-84596429D01*
X88488094Y-84786905D01*
X88535713Y-84882143D01*
X88583332Y-84929762D01*
X88678570Y-84977381D01*
X88773809Y-84977381D01*
X88869047Y-84929762D01*
X88916666Y-84882143D01*
X88964285Y-84786905D01*
X89011904Y-84596429D01*
X89011904Y-84358333D01*
X88964285Y-84167857D01*
X88916666Y-84072619D01*
X88869047Y-84025000D01*
X88773809Y-83977381D01*
X88011904Y-84882143D02*
X87964285Y-84929762D01*
X88011904Y-84977381D01*
X88059523Y-84929762D01*
X88011904Y-84882143D01*
X88011904Y-84977381D01*
X87583333Y-84072619D02*
X87535714Y-84025000D01*
X87440476Y-83977381D01*
X87202380Y-83977381D01*
X87107142Y-84025000D01*
X87059523Y-84072619D01*
X87011904Y-84167857D01*
X87011904Y-84263095D01*
X87059523Y-84405952D01*
X87630952Y-84977381D01*
X87011904Y-84977381D01*
X86392857Y-83977381D02*
X86297618Y-83977381D01*
X86202380Y-84025000D01*
X86154761Y-84072619D01*
X86107142Y-84167857D01*
X86059523Y-84358333D01*
X86059523Y-84596429D01*
X86107142Y-84786905D01*
X86154761Y-84882143D01*
X86202380Y-84929762D01*
X86297618Y-84977381D01*
X86392857Y-84977381D01*
X86488095Y-84929762D01*
X86535714Y-84882143D01*
X86583333Y-84786905D01*
X86630952Y-84596429D01*
X86630952Y-84358333D01*
X86583333Y-84167857D01*
X86535714Y-84072619D01*
X86488095Y-84025000D01*
X86392857Y-83977381D01*
D12*
G36*
X80490680Y-84846200D02*
X80508460Y-84838580D01*
X80541480Y-84815720D01*
X80592280Y-84782700D01*
X80650700Y-84744600D01*
X80711660Y-84703960D01*
X80759920Y-84670940D01*
X80795480Y-84648080D01*
X80808180Y-84640460D01*
X80815800Y-84643000D01*
X80843740Y-84658240D01*
X80884380Y-84678560D01*
X80909780Y-84691260D01*
X80947880Y-84706500D01*
X80965660Y-84711580D01*
X80968200Y-84706500D01*
X80983440Y-84676020D01*
X81003760Y-84627760D01*
X81031700Y-84561720D01*
X81064720Y-84485520D01*
X81100280Y-84404240D01*
X81133300Y-84320420D01*
X81166320Y-84241680D01*
X81196800Y-84168020D01*
X81219660Y-84109600D01*
X81234900Y-84068960D01*
X81242520Y-84051180D01*
X81239980Y-84048640D01*
X81222200Y-84030860D01*
X81189180Y-84005460D01*
X81118060Y-83947040D01*
X81046940Y-83860680D01*
X81003760Y-83761620D01*
X80991060Y-83649860D01*
X81001220Y-83548260D01*
X81041860Y-83451740D01*
X81110440Y-83362840D01*
X81194260Y-83296800D01*
X81290780Y-83256160D01*
X81400000Y-83243460D01*
X81504140Y-83253620D01*
X81603200Y-83294260D01*
X81692100Y-83360300D01*
X81730200Y-83403480D01*
X81781000Y-83494920D01*
X81811480Y-83588900D01*
X81814020Y-83611760D01*
X81808940Y-83718440D01*
X81778460Y-83820040D01*
X81722580Y-83908940D01*
X81646380Y-83982600D01*
X81636220Y-83990220D01*
X81600660Y-84018160D01*
X81575260Y-84035940D01*
X81557480Y-84051180D01*
X81692100Y-84373760D01*
X81712420Y-84424560D01*
X81750520Y-84513460D01*
X81781000Y-84589660D01*
X81808940Y-84650620D01*
X81826720Y-84691260D01*
X81834340Y-84706500D01*
X81834340Y-84706500D01*
X81847040Y-84709040D01*
X81869900Y-84701420D01*
X81915620Y-84678560D01*
X81946100Y-84663320D01*
X81979120Y-84648080D01*
X81994360Y-84640460D01*
X82009600Y-84648080D01*
X82042620Y-84668400D01*
X82088340Y-84701420D01*
X82146760Y-84739520D01*
X82202640Y-84777620D01*
X82253440Y-84810640D01*
X82289000Y-84836040D01*
X82306780Y-84843660D01*
X82309320Y-84843660D01*
X82327100Y-84836040D01*
X82355040Y-84810640D01*
X82398220Y-84770000D01*
X82461720Y-84709040D01*
X82471880Y-84698880D01*
X82522680Y-84648080D01*
X82563320Y-84602360D01*
X82591260Y-84571880D01*
X82601420Y-84559180D01*
X82601420Y-84559180D01*
X82591260Y-84541400D01*
X82568400Y-84503300D01*
X82535380Y-84452500D01*
X82494740Y-84391540D01*
X82388060Y-84236600D01*
X82446480Y-84091820D01*
X82464260Y-84046100D01*
X82487120Y-83990220D01*
X82504900Y-83952120D01*
X82512520Y-83934340D01*
X82530300Y-83929260D01*
X82568400Y-83919100D01*
X82626820Y-83908940D01*
X82697940Y-83896240D01*
X82763980Y-83883540D01*
X82822400Y-83870840D01*
X82865580Y-83863220D01*
X82885900Y-83860680D01*
X82890980Y-83855600D01*
X82893520Y-83847980D01*
X82896060Y-83827660D01*
X82898600Y-83789560D01*
X82898600Y-83733680D01*
X82898600Y-83649860D01*
X82898600Y-83642240D01*
X82898600Y-83563500D01*
X82896060Y-83500000D01*
X82893520Y-83461900D01*
X82890980Y-83444120D01*
X82890980Y-83444120D01*
X82873200Y-83439040D01*
X82830020Y-83431420D01*
X82771600Y-83418720D01*
X82700480Y-83406020D01*
X82695400Y-83406020D01*
X82624280Y-83390780D01*
X82565860Y-83378080D01*
X82522680Y-83370460D01*
X82504900Y-83362840D01*
X82502360Y-83357760D01*
X82487120Y-83329820D01*
X82466800Y-83286640D01*
X82443940Y-83233300D01*
X82421080Y-83177420D01*
X82400760Y-83126620D01*
X82388060Y-83091060D01*
X82382980Y-83073280D01*
X82382980Y-83073280D01*
X82393140Y-83055500D01*
X82418540Y-83019940D01*
X82454100Y-82969140D01*
X82494740Y-82908180D01*
X82497280Y-82903100D01*
X82537920Y-82842140D01*
X82570940Y-82791340D01*
X82593800Y-82755780D01*
X82601420Y-82740540D01*
X82601420Y-82738000D01*
X82588720Y-82720220D01*
X82558240Y-82687200D01*
X82512520Y-82641480D01*
X82461720Y-82588140D01*
X82443940Y-82572900D01*
X82385520Y-82514480D01*
X82344880Y-82478920D01*
X82319480Y-82458600D01*
X82309320Y-82453520D01*
X82306780Y-82453520D01*
X82289000Y-82463680D01*
X82250900Y-82489080D01*
X82200100Y-82524640D01*
X82139140Y-82565280D01*
X82136600Y-82567820D01*
X82075640Y-82608460D01*
X82024840Y-82644020D01*
X81989280Y-82666880D01*
X81974040Y-82674500D01*
X81971500Y-82674500D01*
X81948640Y-82669420D01*
X81905460Y-82654180D01*
X81852120Y-82633860D01*
X81796240Y-82611000D01*
X81745440Y-82590680D01*
X81709880Y-82572900D01*
X81692100Y-82562740D01*
X81689560Y-82562740D01*
X81684480Y-82539880D01*
X81674320Y-82494160D01*
X81661620Y-82433200D01*
X81646380Y-82359540D01*
X81643840Y-82349380D01*
X81631140Y-82275720D01*
X81620980Y-82217300D01*
X81610820Y-82176660D01*
X81608280Y-82158880D01*
X81598120Y-82158880D01*
X81562560Y-82156340D01*
X81509220Y-82153800D01*
X81443180Y-82153800D01*
X81377140Y-82153800D01*
X81311100Y-82153800D01*
X81255220Y-82156340D01*
X81214580Y-82158880D01*
X81196800Y-82163960D01*
X81196800Y-82163960D01*
X81191720Y-82186820D01*
X81181560Y-82230000D01*
X81168860Y-82293500D01*
X81153620Y-82367160D01*
X81151080Y-82379860D01*
X81138380Y-82450980D01*
X81125680Y-82509400D01*
X81118060Y-82550040D01*
X81112980Y-82565280D01*
X81107900Y-82567820D01*
X81077420Y-82583060D01*
X81029160Y-82600840D01*
X80970740Y-82626240D01*
X80833580Y-82682120D01*
X80665940Y-82565280D01*
X80650700Y-82555120D01*
X80589740Y-82514480D01*
X80538940Y-82481460D01*
X80503380Y-82458600D01*
X80490680Y-82450980D01*
X80488140Y-82450980D01*
X80472900Y-82466220D01*
X80439880Y-82496700D01*
X80394160Y-82542420D01*
X80340820Y-82593220D01*
X80300180Y-82633860D01*
X80254460Y-82679580D01*
X80226520Y-82712600D01*
X80208740Y-82732920D01*
X80203660Y-82745620D01*
X80206200Y-82753240D01*
X80216360Y-82771020D01*
X80241760Y-82806580D01*
X80274780Y-82859920D01*
X80315420Y-82918340D01*
X80350980Y-82969140D01*
X80386540Y-83025020D01*
X80409400Y-83065660D01*
X80419560Y-83083440D01*
X80417020Y-83093600D01*
X80404320Y-83126620D01*
X80384000Y-83174880D01*
X80358600Y-83235840D01*
X80300180Y-83367920D01*
X80213820Y-83385700D01*
X80160480Y-83395860D01*
X80086820Y-83408560D01*
X80015700Y-83423800D01*
X79903940Y-83444120D01*
X79901400Y-83847980D01*
X79919180Y-83855600D01*
X79934420Y-83860680D01*
X79975060Y-83870840D01*
X80033480Y-83881000D01*
X80102060Y-83893700D01*
X80163020Y-83906400D01*
X80221440Y-83916560D01*
X80264620Y-83924180D01*
X80282400Y-83929260D01*
X80287480Y-83934340D01*
X80302720Y-83964820D01*
X80323040Y-84010540D01*
X80345900Y-84063880D01*
X80371300Y-84122300D01*
X80391620Y-84173100D01*
X80406860Y-84213740D01*
X80411940Y-84234060D01*
X80404320Y-84249300D01*
X80381460Y-84284860D01*
X80348440Y-84335660D01*
X80307800Y-84394080D01*
X80267160Y-84452500D01*
X80234140Y-84503300D01*
X80208740Y-84538860D01*
X80201120Y-84556640D01*
X80206200Y-84566800D01*
X80229060Y-84594740D01*
X80272240Y-84640460D01*
X80338280Y-84706500D01*
X80350980Y-84716660D01*
X80401780Y-84767460D01*
X80447500Y-84808100D01*
X80477980Y-84836040D01*
X80490680Y-84846200D01*
X80490680Y-84846200D01*
G37*
X80490680Y-84846200D02*
X80508460Y-84838580D01*
X80541480Y-84815720D01*
X80592280Y-84782700D01*
X80650700Y-84744600D01*
X80711660Y-84703960D01*
X80759920Y-84670940D01*
X80795480Y-84648080D01*
X80808180Y-84640460D01*
X80815800Y-84643000D01*
X80843740Y-84658240D01*
X80884380Y-84678560D01*
X80909780Y-84691260D01*
X80947880Y-84706500D01*
X80965660Y-84711580D01*
X80968200Y-84706500D01*
X80983440Y-84676020D01*
X81003760Y-84627760D01*
X81031700Y-84561720D01*
X81064720Y-84485520D01*
X81100280Y-84404240D01*
X81133300Y-84320420D01*
X81166320Y-84241680D01*
X81196800Y-84168020D01*
X81219660Y-84109600D01*
X81234900Y-84068960D01*
X81242520Y-84051180D01*
X81239980Y-84048640D01*
X81222200Y-84030860D01*
X81189180Y-84005460D01*
X81118060Y-83947040D01*
X81046940Y-83860680D01*
X81003760Y-83761620D01*
X80991060Y-83649860D01*
X81001220Y-83548260D01*
X81041860Y-83451740D01*
X81110440Y-83362840D01*
X81194260Y-83296800D01*
X81290780Y-83256160D01*
X81400000Y-83243460D01*
X81504140Y-83253620D01*
X81603200Y-83294260D01*
X81692100Y-83360300D01*
X81730200Y-83403480D01*
X81781000Y-83494920D01*
X81811480Y-83588900D01*
X81814020Y-83611760D01*
X81808940Y-83718440D01*
X81778460Y-83820040D01*
X81722580Y-83908940D01*
X81646380Y-83982600D01*
X81636220Y-83990220D01*
X81600660Y-84018160D01*
X81575260Y-84035940D01*
X81557480Y-84051180D01*
X81692100Y-84373760D01*
X81712420Y-84424560D01*
X81750520Y-84513460D01*
X81781000Y-84589660D01*
X81808940Y-84650620D01*
X81826720Y-84691260D01*
X81834340Y-84706500D01*
X81834340Y-84706500D01*
X81847040Y-84709040D01*
X81869900Y-84701420D01*
X81915620Y-84678560D01*
X81946100Y-84663320D01*
X81979120Y-84648080D01*
X81994360Y-84640460D01*
X82009600Y-84648080D01*
X82042620Y-84668400D01*
X82088340Y-84701420D01*
X82146760Y-84739520D01*
X82202640Y-84777620D01*
X82253440Y-84810640D01*
X82289000Y-84836040D01*
X82306780Y-84843660D01*
X82309320Y-84843660D01*
X82327100Y-84836040D01*
X82355040Y-84810640D01*
X82398220Y-84770000D01*
X82461720Y-84709040D01*
X82471880Y-84698880D01*
X82522680Y-84648080D01*
X82563320Y-84602360D01*
X82591260Y-84571880D01*
X82601420Y-84559180D01*
X82601420Y-84559180D01*
X82591260Y-84541400D01*
X82568400Y-84503300D01*
X82535380Y-84452500D01*
X82494740Y-84391540D01*
X82388060Y-84236600D01*
X82446480Y-84091820D01*
X82464260Y-84046100D01*
X82487120Y-83990220D01*
X82504900Y-83952120D01*
X82512520Y-83934340D01*
X82530300Y-83929260D01*
X82568400Y-83919100D01*
X82626820Y-83908940D01*
X82697940Y-83896240D01*
X82763980Y-83883540D01*
X82822400Y-83870840D01*
X82865580Y-83863220D01*
X82885900Y-83860680D01*
X82890980Y-83855600D01*
X82893520Y-83847980D01*
X82896060Y-83827660D01*
X82898600Y-83789560D01*
X82898600Y-83733680D01*
X82898600Y-83649860D01*
X82898600Y-83642240D01*
X82898600Y-83563500D01*
X82896060Y-83500000D01*
X82893520Y-83461900D01*
X82890980Y-83444120D01*
X82890980Y-83444120D01*
X82873200Y-83439040D01*
X82830020Y-83431420D01*
X82771600Y-83418720D01*
X82700480Y-83406020D01*
X82695400Y-83406020D01*
X82624280Y-83390780D01*
X82565860Y-83378080D01*
X82522680Y-83370460D01*
X82504900Y-83362840D01*
X82502360Y-83357760D01*
X82487120Y-83329820D01*
X82466800Y-83286640D01*
X82443940Y-83233300D01*
X82421080Y-83177420D01*
X82400760Y-83126620D01*
X82388060Y-83091060D01*
X82382980Y-83073280D01*
X82382980Y-83073280D01*
X82393140Y-83055500D01*
X82418540Y-83019940D01*
X82454100Y-82969140D01*
X82494740Y-82908180D01*
X82497280Y-82903100D01*
X82537920Y-82842140D01*
X82570940Y-82791340D01*
X82593800Y-82755780D01*
X82601420Y-82740540D01*
X82601420Y-82738000D01*
X82588720Y-82720220D01*
X82558240Y-82687200D01*
X82512520Y-82641480D01*
X82461720Y-82588140D01*
X82443940Y-82572900D01*
X82385520Y-82514480D01*
X82344880Y-82478920D01*
X82319480Y-82458600D01*
X82309320Y-82453520D01*
X82306780Y-82453520D01*
X82289000Y-82463680D01*
X82250900Y-82489080D01*
X82200100Y-82524640D01*
X82139140Y-82565280D01*
X82136600Y-82567820D01*
X82075640Y-82608460D01*
X82024840Y-82644020D01*
X81989280Y-82666880D01*
X81974040Y-82674500D01*
X81971500Y-82674500D01*
X81948640Y-82669420D01*
X81905460Y-82654180D01*
X81852120Y-82633860D01*
X81796240Y-82611000D01*
X81745440Y-82590680D01*
X81709880Y-82572900D01*
X81692100Y-82562740D01*
X81689560Y-82562740D01*
X81684480Y-82539880D01*
X81674320Y-82494160D01*
X81661620Y-82433200D01*
X81646380Y-82359540D01*
X81643840Y-82349380D01*
X81631140Y-82275720D01*
X81620980Y-82217300D01*
X81610820Y-82176660D01*
X81608280Y-82158880D01*
X81598120Y-82158880D01*
X81562560Y-82156340D01*
X81509220Y-82153800D01*
X81443180Y-82153800D01*
X81377140Y-82153800D01*
X81311100Y-82153800D01*
X81255220Y-82156340D01*
X81214580Y-82158880D01*
X81196800Y-82163960D01*
X81196800Y-82163960D01*
X81191720Y-82186820D01*
X81181560Y-82230000D01*
X81168860Y-82293500D01*
X81153620Y-82367160D01*
X81151080Y-82379860D01*
X81138380Y-82450980D01*
X81125680Y-82509400D01*
X81118060Y-82550040D01*
X81112980Y-82565280D01*
X81107900Y-82567820D01*
X81077420Y-82583060D01*
X81029160Y-82600840D01*
X80970740Y-82626240D01*
X80833580Y-82682120D01*
X80665940Y-82565280D01*
X80650700Y-82555120D01*
X80589740Y-82514480D01*
X80538940Y-82481460D01*
X80503380Y-82458600D01*
X80490680Y-82450980D01*
X80488140Y-82450980D01*
X80472900Y-82466220D01*
X80439880Y-82496700D01*
X80394160Y-82542420D01*
X80340820Y-82593220D01*
X80300180Y-82633860D01*
X80254460Y-82679580D01*
X80226520Y-82712600D01*
X80208740Y-82732920D01*
X80203660Y-82745620D01*
X80206200Y-82753240D01*
X80216360Y-82771020D01*
X80241760Y-82806580D01*
X80274780Y-82859920D01*
X80315420Y-82918340D01*
X80350980Y-82969140D01*
X80386540Y-83025020D01*
X80409400Y-83065660D01*
X80419560Y-83083440D01*
X80417020Y-83093600D01*
X80404320Y-83126620D01*
X80384000Y-83174880D01*
X80358600Y-83235840D01*
X80300180Y-83367920D01*
X80213820Y-83385700D01*
X80160480Y-83395860D01*
X80086820Y-83408560D01*
X80015700Y-83423800D01*
X79903940Y-83444120D01*
X79901400Y-83847980D01*
X79919180Y-83855600D01*
X79934420Y-83860680D01*
X79975060Y-83870840D01*
X80033480Y-83881000D01*
X80102060Y-83893700D01*
X80163020Y-83906400D01*
X80221440Y-83916560D01*
X80264620Y-83924180D01*
X80282400Y-83929260D01*
X80287480Y-83934340D01*
X80302720Y-83964820D01*
X80323040Y-84010540D01*
X80345900Y-84063880D01*
X80371300Y-84122300D01*
X80391620Y-84173100D01*
X80406860Y-84213740D01*
X80411940Y-84234060D01*
X80404320Y-84249300D01*
X80381460Y-84284860D01*
X80348440Y-84335660D01*
X80307800Y-84394080D01*
X80267160Y-84452500D01*
X80234140Y-84503300D01*
X80208740Y-84538860D01*
X80201120Y-84556640D01*
X80206200Y-84566800D01*
X80229060Y-84594740D01*
X80272240Y-84640460D01*
X80338280Y-84706500D01*
X80350980Y-84716660D01*
X80401780Y-84767460D01*
X80447500Y-84808100D01*
X80477980Y-84836040D01*
X80490680Y-84846200D01*
G36*
X101966420Y-84810640D02*
X102004520Y-84805560D01*
X102037540Y-84795400D01*
X102052780Y-84787780D01*
X102085800Y-84764920D01*
X102111200Y-84736980D01*
X102128980Y-84706500D01*
X102141680Y-84670940D01*
X102149300Y-84635380D01*
X102146760Y-84597280D01*
X102139140Y-84561720D01*
X102121360Y-84526160D01*
X102111200Y-84510920D01*
X102095960Y-84493140D01*
X102078180Y-84477900D01*
X102062940Y-84465200D01*
X102057860Y-84462660D01*
X102024840Y-84447420D01*
X101991820Y-84439800D01*
X101953720Y-84437260D01*
X101941020Y-84437260D01*
X101920700Y-84439800D01*
X101902920Y-84444880D01*
X101882600Y-84455040D01*
X101859740Y-84465200D01*
X101829260Y-84490600D01*
X101806400Y-84521080D01*
X101786080Y-84554100D01*
X101781000Y-84569340D01*
X101775920Y-84589660D01*
X101773380Y-84602360D01*
X101773380Y-84604900D01*
X101773380Y-84604900D01*
X101773380Y-84597280D01*
X101773380Y-84597280D01*
X101765760Y-84571880D01*
X101758140Y-84549020D01*
X101745440Y-84526160D01*
X101725120Y-84498220D01*
X101697180Y-84472820D01*
X101664160Y-84452500D01*
X101626060Y-84439800D01*
X101587960Y-84437260D01*
X101577800Y-84437260D01*
X101547320Y-84439800D01*
X101519380Y-84447420D01*
X101514300Y-84449960D01*
X101481280Y-84467740D01*
X101453340Y-84490600D01*
X101430480Y-84521080D01*
X101412700Y-84551560D01*
X101402540Y-84584580D01*
X101402540Y-84587120D01*
X101400000Y-84594740D01*
X101400000Y-84599820D01*
X101400000Y-84599820D01*
X101400000Y-84594740D01*
X101397460Y-84584580D01*
X101397460Y-84582040D01*
X101384760Y-84549020D01*
X101366980Y-84516000D01*
X101344120Y-84488060D01*
X101321260Y-84470280D01*
X101288240Y-84452500D01*
X101252680Y-84439800D01*
X101212040Y-84437260D01*
X101184100Y-84439800D01*
X101148540Y-84447420D01*
X101112980Y-84465200D01*
X101082500Y-84488060D01*
X101059640Y-84518540D01*
X101054560Y-84523620D01*
X101046940Y-84536320D01*
X101041860Y-84549020D01*
X101039320Y-84556640D01*
X101031700Y-84574420D01*
X101029160Y-84589660D01*
X101026620Y-84602360D01*
X101026620Y-84604900D01*
X101026620Y-84604900D01*
X101024080Y-84597280D01*
X101021540Y-84576960D01*
X101011380Y-84551560D01*
X101001220Y-84528700D01*
X100978360Y-84498220D01*
X100947880Y-84472820D01*
X100914860Y-84452500D01*
X100879300Y-84439800D01*
X100841200Y-84437260D01*
X100805640Y-84439800D01*
X100767540Y-84449960D01*
X100734520Y-84467740D01*
X100704040Y-84493140D01*
X100688800Y-84510920D01*
X100676100Y-84531240D01*
X100663400Y-84554100D01*
X100658320Y-84574420D01*
X100650700Y-84612520D01*
X100653240Y-84648080D01*
X100660860Y-84683640D01*
X100676100Y-84716660D01*
X100696420Y-84744600D01*
X100721820Y-84770000D01*
X100752300Y-84790320D01*
X100785320Y-84803020D01*
X100823420Y-84810640D01*
X100828500Y-84810640D01*
X100866600Y-84810640D01*
X100902160Y-84800480D01*
X100935180Y-84785240D01*
X100947880Y-84775080D01*
X100973280Y-84754760D01*
X100996140Y-84726820D01*
X101011380Y-84698880D01*
X101013920Y-84688720D01*
X101019000Y-84673480D01*
X101024080Y-84655700D01*
X101026620Y-84643000D01*
X101026620Y-84635380D01*
X101026620Y-84643000D01*
X101026620Y-84650620D01*
X101031700Y-84665860D01*
X101036780Y-84686180D01*
X101041860Y-84701420D01*
X101052020Y-84719200D01*
X101074880Y-84749680D01*
X101102820Y-84775080D01*
X101135840Y-84795400D01*
X101173940Y-84808100D01*
X101179020Y-84808100D01*
X101204420Y-84810640D01*
X101232360Y-84810640D01*
X101257760Y-84805560D01*
X101283160Y-84797940D01*
X101316180Y-84780160D01*
X101349200Y-84754760D01*
X101349200Y-84752220D01*
X101372060Y-84726820D01*
X101387300Y-84693800D01*
X101397460Y-84663320D01*
X101397460Y-84660780D01*
X101400000Y-84653160D01*
X101400000Y-84648080D01*
X101400000Y-84650620D01*
X101402540Y-84658240D01*
X101402540Y-84660780D01*
X101407620Y-84681100D01*
X101415240Y-84701420D01*
X101427940Y-84721740D01*
X101443180Y-84744600D01*
X101471120Y-84772540D01*
X101504140Y-84792860D01*
X101542240Y-84805560D01*
X101547320Y-84808100D01*
X101572720Y-84810640D01*
X101600660Y-84810640D01*
X101626060Y-84808100D01*
X101646380Y-84800480D01*
X101681940Y-84785240D01*
X101712420Y-84762380D01*
X101737820Y-84734440D01*
X101758140Y-84701420D01*
X101760680Y-84691260D01*
X101768300Y-84673480D01*
X101770840Y-84655700D01*
X101773380Y-84643000D01*
X101773380Y-84643000D01*
X101773380Y-84643000D01*
X101775920Y-84650620D01*
X101775920Y-84650620D01*
X101781000Y-84673480D01*
X101791160Y-84698880D01*
X101801320Y-84721740D01*
X101806400Y-84729360D01*
X101829260Y-84757300D01*
X101859740Y-84780160D01*
X101892760Y-84797940D01*
X101928320Y-84808100D01*
X101966420Y-84810640D01*
X101966420Y-84810640D01*
G37*
X101966420Y-84810640D02*
X102004520Y-84805560D01*
X102037540Y-84795400D01*
X102052780Y-84787780D01*
X102085800Y-84764920D01*
X102111200Y-84736980D01*
X102128980Y-84706500D01*
X102141680Y-84670940D01*
X102149300Y-84635380D01*
X102146760Y-84597280D01*
X102139140Y-84561720D01*
X102121360Y-84526160D01*
X102111200Y-84510920D01*
X102095960Y-84493140D01*
X102078180Y-84477900D01*
X102062940Y-84465200D01*
X102057860Y-84462660D01*
X102024840Y-84447420D01*
X101991820Y-84439800D01*
X101953720Y-84437260D01*
X101941020Y-84437260D01*
X101920700Y-84439800D01*
X101902920Y-84444880D01*
X101882600Y-84455040D01*
X101859740Y-84465200D01*
X101829260Y-84490600D01*
X101806400Y-84521080D01*
X101786080Y-84554100D01*
X101781000Y-84569340D01*
X101775920Y-84589660D01*
X101773380Y-84602360D01*
X101773380Y-84604900D01*
X101773380Y-84604900D01*
X101773380Y-84597280D01*
X101773380Y-84597280D01*
X101765760Y-84571880D01*
X101758140Y-84549020D01*
X101745440Y-84526160D01*
X101725120Y-84498220D01*
X101697180Y-84472820D01*
X101664160Y-84452500D01*
X101626060Y-84439800D01*
X101587960Y-84437260D01*
X101577800Y-84437260D01*
X101547320Y-84439800D01*
X101519380Y-84447420D01*
X101514300Y-84449960D01*
X101481280Y-84467740D01*
X101453340Y-84490600D01*
X101430480Y-84521080D01*
X101412700Y-84551560D01*
X101402540Y-84584580D01*
X101402540Y-84587120D01*
X101400000Y-84594740D01*
X101400000Y-84599820D01*
X101400000Y-84599820D01*
X101400000Y-84594740D01*
X101397460Y-84584580D01*
X101397460Y-84582040D01*
X101384760Y-84549020D01*
X101366980Y-84516000D01*
X101344120Y-84488060D01*
X101321260Y-84470280D01*
X101288240Y-84452500D01*
X101252680Y-84439800D01*
X101212040Y-84437260D01*
X101184100Y-84439800D01*
X101148540Y-84447420D01*
X101112980Y-84465200D01*
X101082500Y-84488060D01*
X101059640Y-84518540D01*
X101054560Y-84523620D01*
X101046940Y-84536320D01*
X101041860Y-84549020D01*
X101039320Y-84556640D01*
X101031700Y-84574420D01*
X101029160Y-84589660D01*
X101026620Y-84602360D01*
X101026620Y-84604900D01*
X101026620Y-84604900D01*
X101024080Y-84597280D01*
X101021540Y-84576960D01*
X101011380Y-84551560D01*
X101001220Y-84528700D01*
X100978360Y-84498220D01*
X100947880Y-84472820D01*
X100914860Y-84452500D01*
X100879300Y-84439800D01*
X100841200Y-84437260D01*
X100805640Y-84439800D01*
X100767540Y-84449960D01*
X100734520Y-84467740D01*
X100704040Y-84493140D01*
X100688800Y-84510920D01*
X100676100Y-84531240D01*
X100663400Y-84554100D01*
X100658320Y-84574420D01*
X100650700Y-84612520D01*
X100653240Y-84648080D01*
X100660860Y-84683640D01*
X100676100Y-84716660D01*
X100696420Y-84744600D01*
X100721820Y-84770000D01*
X100752300Y-84790320D01*
X100785320Y-84803020D01*
X100823420Y-84810640D01*
X100828500Y-84810640D01*
X100866600Y-84810640D01*
X100902160Y-84800480D01*
X100935180Y-84785240D01*
X100947880Y-84775080D01*
X100973280Y-84754760D01*
X100996140Y-84726820D01*
X101011380Y-84698880D01*
X101013920Y-84688720D01*
X101019000Y-84673480D01*
X101024080Y-84655700D01*
X101026620Y-84643000D01*
X101026620Y-84635380D01*
X101026620Y-84643000D01*
X101026620Y-84650620D01*
X101031700Y-84665860D01*
X101036780Y-84686180D01*
X101041860Y-84701420D01*
X101052020Y-84719200D01*
X101074880Y-84749680D01*
X101102820Y-84775080D01*
X101135840Y-84795400D01*
X101173940Y-84808100D01*
X101179020Y-84808100D01*
X101204420Y-84810640D01*
X101232360Y-84810640D01*
X101257760Y-84805560D01*
X101283160Y-84797940D01*
X101316180Y-84780160D01*
X101349200Y-84754760D01*
X101349200Y-84752220D01*
X101372060Y-84726820D01*
X101387300Y-84693800D01*
X101397460Y-84663320D01*
X101397460Y-84660780D01*
X101400000Y-84653160D01*
X101400000Y-84648080D01*
X101400000Y-84650620D01*
X101402540Y-84658240D01*
X101402540Y-84660780D01*
X101407620Y-84681100D01*
X101415240Y-84701420D01*
X101427940Y-84721740D01*
X101443180Y-84744600D01*
X101471120Y-84772540D01*
X101504140Y-84792860D01*
X101542240Y-84805560D01*
X101547320Y-84808100D01*
X101572720Y-84810640D01*
X101600660Y-84810640D01*
X101626060Y-84808100D01*
X101646380Y-84800480D01*
X101681940Y-84785240D01*
X101712420Y-84762380D01*
X101737820Y-84734440D01*
X101758140Y-84701420D01*
X101760680Y-84691260D01*
X101768300Y-84673480D01*
X101770840Y-84655700D01*
X101773380Y-84643000D01*
X101773380Y-84643000D01*
X101773380Y-84643000D01*
X101775920Y-84650620D01*
X101775920Y-84650620D01*
X101781000Y-84673480D01*
X101791160Y-84698880D01*
X101801320Y-84721740D01*
X101806400Y-84729360D01*
X101829260Y-84757300D01*
X101859740Y-84780160D01*
X101892760Y-84797940D01*
X101928320Y-84808100D01*
X101966420Y-84810640D01*
G36*
X100452580Y-84437260D02*
X100475440Y-84434720D01*
X100495760Y-84434720D01*
X100521160Y-84427100D01*
X100556720Y-84411860D01*
X100587200Y-84389000D01*
X100612600Y-84361060D01*
X100632920Y-84328040D01*
X100645620Y-84292480D01*
X100650700Y-84254380D01*
X100648160Y-84216280D01*
X100638000Y-84180720D01*
X100622760Y-84147700D01*
X100597360Y-84117220D01*
X100566880Y-84091820D01*
X100559260Y-84086740D01*
X100521160Y-84071500D01*
X100485600Y-84061340D01*
X100444960Y-84061340D01*
X100406860Y-84068960D01*
X100376380Y-84081660D01*
X100343360Y-84104520D01*
X100317960Y-84132460D01*
X100295100Y-84165480D01*
X100282400Y-84203580D01*
X100277320Y-84221360D01*
X100277320Y-84246760D01*
X100277320Y-84269620D01*
X100279860Y-84289940D01*
X100282400Y-84297560D01*
X100297640Y-84335660D01*
X100317960Y-84368680D01*
X100348440Y-84396620D01*
X100381460Y-84416940D01*
X100396700Y-84424560D01*
X100419560Y-84432180D01*
X100439880Y-84434720D01*
X100452580Y-84437260D01*
X100452580Y-84437260D01*
G37*
X100452580Y-84437260D02*
X100475440Y-84434720D01*
X100495760Y-84434720D01*
X100521160Y-84427100D01*
X100556720Y-84411860D01*
X100587200Y-84389000D01*
X100612600Y-84361060D01*
X100632920Y-84328040D01*
X100645620Y-84292480D01*
X100650700Y-84254380D01*
X100648160Y-84216280D01*
X100638000Y-84180720D01*
X100622760Y-84147700D01*
X100597360Y-84117220D01*
X100566880Y-84091820D01*
X100559260Y-84086740D01*
X100521160Y-84071500D01*
X100485600Y-84061340D01*
X100444960Y-84061340D01*
X100406860Y-84068960D01*
X100376380Y-84081660D01*
X100343360Y-84104520D01*
X100317960Y-84132460D01*
X100295100Y-84165480D01*
X100282400Y-84203580D01*
X100277320Y-84221360D01*
X100277320Y-84246760D01*
X100277320Y-84269620D01*
X100279860Y-84289940D01*
X100282400Y-84297560D01*
X100297640Y-84335660D01*
X100317960Y-84368680D01*
X100348440Y-84396620D01*
X100381460Y-84416940D01*
X100396700Y-84424560D01*
X100419560Y-84432180D01*
X100439880Y-84434720D01*
X100452580Y-84437260D01*
G36*
X102339800Y-84437260D02*
X102377900Y-84432180D01*
X102416000Y-84419480D01*
X102451560Y-84396620D01*
X102459180Y-84391540D01*
X102484580Y-84363600D01*
X102504900Y-84330580D01*
X102517600Y-84295020D01*
X102522680Y-84274700D01*
X102522680Y-84251840D01*
X102522680Y-84226440D01*
X102520140Y-84208660D01*
X102517600Y-84198500D01*
X102502360Y-84160400D01*
X102482040Y-84129920D01*
X102454100Y-84101980D01*
X102421080Y-84081660D01*
X102385520Y-84068960D01*
X102347420Y-84061340D01*
X102332180Y-84061340D01*
X102294080Y-84066420D01*
X102258520Y-84076580D01*
X102228040Y-84096900D01*
X102200100Y-84119760D01*
X102177240Y-84150240D01*
X102162000Y-84183260D01*
X102151840Y-84218820D01*
X102149300Y-84256920D01*
X102151840Y-84279780D01*
X102156920Y-84300100D01*
X102164540Y-84322960D01*
X102179780Y-84350900D01*
X102202640Y-84381380D01*
X102233120Y-84404240D01*
X102266140Y-84422020D01*
X102301700Y-84432180D01*
X102339800Y-84437260D01*
X102339800Y-84437260D01*
G37*
X102339800Y-84437260D02*
X102377900Y-84432180D01*
X102416000Y-84419480D01*
X102451560Y-84396620D01*
X102459180Y-84391540D01*
X102484580Y-84363600D01*
X102504900Y-84330580D01*
X102517600Y-84295020D01*
X102522680Y-84274700D01*
X102522680Y-84251840D01*
X102522680Y-84226440D01*
X102520140Y-84208660D01*
X102517600Y-84198500D01*
X102502360Y-84160400D01*
X102482040Y-84129920D01*
X102454100Y-84101980D01*
X102421080Y-84081660D01*
X102385520Y-84068960D01*
X102347420Y-84061340D01*
X102332180Y-84061340D01*
X102294080Y-84066420D01*
X102258520Y-84076580D01*
X102228040Y-84096900D01*
X102200100Y-84119760D01*
X102177240Y-84150240D01*
X102162000Y-84183260D01*
X102151840Y-84218820D01*
X102149300Y-84256920D01*
X102151840Y-84279780D01*
X102156920Y-84300100D01*
X102164540Y-84322960D01*
X102179780Y-84350900D01*
X102202640Y-84381380D01*
X102233120Y-84404240D01*
X102266140Y-84422020D01*
X102301700Y-84432180D01*
X102339800Y-84437260D01*
G36*
X100079200Y-84061340D02*
X100104600Y-84061340D01*
X100127460Y-84056260D01*
X100155400Y-84048640D01*
X100188420Y-84030860D01*
X100221440Y-84005460D01*
X100241760Y-83982600D01*
X100259540Y-83949580D01*
X100272240Y-83914020D01*
X100274780Y-83898780D01*
X100274780Y-83875920D01*
X100274780Y-83853060D01*
X100272240Y-83835280D01*
X100269700Y-83822580D01*
X100254460Y-83787020D01*
X100234140Y-83754000D01*
X100206200Y-83726060D01*
X100170640Y-83705740D01*
X100157940Y-83700660D01*
X100135080Y-83690500D01*
X100109680Y-83687960D01*
X100081740Y-83687960D01*
X100063960Y-83687960D01*
X100043640Y-83690500D01*
X100025860Y-83695580D01*
X100005540Y-83705740D01*
X99992840Y-83713360D01*
X99962360Y-83736220D01*
X99936960Y-83764160D01*
X99916640Y-83799720D01*
X99903940Y-83837820D01*
X99903940Y-83845440D01*
X99901400Y-83868300D01*
X99901400Y-83891160D01*
X99903940Y-83911480D01*
X99906480Y-83924180D01*
X99921720Y-83959740D01*
X99944580Y-83992760D01*
X99969980Y-84020700D01*
X100005540Y-84041020D01*
X100041100Y-84056260D01*
X100053800Y-84058800D01*
X100079200Y-84061340D01*
X100079200Y-84061340D01*
G37*
X100079200Y-84061340D02*
X100104600Y-84061340D01*
X100127460Y-84056260D01*
X100155400Y-84048640D01*
X100188420Y-84030860D01*
X100221440Y-84005460D01*
X100241760Y-83982600D01*
X100259540Y-83949580D01*
X100272240Y-83914020D01*
X100274780Y-83898780D01*
X100274780Y-83875920D01*
X100274780Y-83853060D01*
X100272240Y-83835280D01*
X100269700Y-83822580D01*
X100254460Y-83787020D01*
X100234140Y-83754000D01*
X100206200Y-83726060D01*
X100170640Y-83705740D01*
X100157940Y-83700660D01*
X100135080Y-83690500D01*
X100109680Y-83687960D01*
X100081740Y-83687960D01*
X100063960Y-83687960D01*
X100043640Y-83690500D01*
X100025860Y-83695580D01*
X100005540Y-83705740D01*
X99992840Y-83713360D01*
X99962360Y-83736220D01*
X99936960Y-83764160D01*
X99916640Y-83799720D01*
X99903940Y-83837820D01*
X99903940Y-83845440D01*
X99901400Y-83868300D01*
X99901400Y-83891160D01*
X99903940Y-83911480D01*
X99906480Y-83924180D01*
X99921720Y-83959740D01*
X99944580Y-83992760D01*
X99969980Y-84020700D01*
X100005540Y-84041020D01*
X100041100Y-84056260D01*
X100053800Y-84058800D01*
X100079200Y-84061340D01*
G36*
X101582880Y-84061340D02*
X101618440Y-84058800D01*
X101654000Y-84048640D01*
X101676860Y-84038480D01*
X101707340Y-84015620D01*
X101735280Y-83987680D01*
X101755600Y-83954660D01*
X101768300Y-83919100D01*
X101770840Y-83911480D01*
X101773380Y-83881000D01*
X101773380Y-83853060D01*
X101765760Y-83820040D01*
X101750520Y-83781940D01*
X101727660Y-83751460D01*
X101699720Y-83726060D01*
X101666700Y-83705740D01*
X101628600Y-83690500D01*
X101605740Y-83685420D01*
X101618440Y-83682880D01*
X101620980Y-83682880D01*
X101646380Y-83675260D01*
X101674320Y-83662560D01*
X101702260Y-83647320D01*
X101704800Y-83642240D01*
X101732740Y-83616840D01*
X101753060Y-83583820D01*
X101765760Y-83548260D01*
X101773380Y-83512700D01*
X101773380Y-83477140D01*
X101763220Y-83441580D01*
X101747980Y-83406020D01*
X101747980Y-83403480D01*
X101722580Y-83373000D01*
X101694640Y-83347600D01*
X101664160Y-83329820D01*
X101628600Y-83319660D01*
X101593040Y-83314580D01*
X101557480Y-83317120D01*
X101521920Y-83324740D01*
X101488900Y-83342520D01*
X101455880Y-83365380D01*
X101440640Y-83383160D01*
X101422860Y-83411100D01*
X101407620Y-83439040D01*
X101402540Y-83466980D01*
X101400000Y-83474600D01*
X101400000Y-83477140D01*
X101400000Y-83474600D01*
X101397460Y-83466980D01*
X101392380Y-83441580D01*
X101379680Y-83416180D01*
X101364440Y-83390780D01*
X101354280Y-83378080D01*
X101326340Y-83352680D01*
X101293320Y-83332360D01*
X101257760Y-83319660D01*
X101219660Y-83314580D01*
X101181560Y-83317120D01*
X101158700Y-83322200D01*
X101123140Y-83337440D01*
X101092660Y-83357760D01*
X101064720Y-83385700D01*
X101044400Y-83418720D01*
X101031700Y-83456820D01*
X101029160Y-83474600D01*
X101026620Y-83512700D01*
X101034240Y-83548260D01*
X101046940Y-83583820D01*
X101067260Y-83616840D01*
X101095200Y-83642240D01*
X101128220Y-83665100D01*
X101143460Y-83672720D01*
X101161240Y-83677800D01*
X101176480Y-83682880D01*
X101189180Y-83685420D01*
X101189180Y-83685420D01*
X101189180Y-83685420D01*
X101181560Y-83687960D01*
X101163780Y-83693040D01*
X101138380Y-83703200D01*
X101115520Y-83713360D01*
X101105360Y-83720980D01*
X101079960Y-83743840D01*
X101057100Y-83769240D01*
X101041860Y-83797180D01*
X101031700Y-83830200D01*
X101026620Y-83863220D01*
X101026620Y-83896240D01*
X101029160Y-83901320D01*
X101039320Y-83941960D01*
X101057100Y-83974980D01*
X101082500Y-84005460D01*
X101102820Y-84025780D01*
X101135840Y-84046100D01*
X101173940Y-84056260D01*
X101186640Y-84058800D01*
X101206960Y-84061340D01*
X101229820Y-84058800D01*
X101250140Y-84058800D01*
X101265380Y-84053720D01*
X101278080Y-84051180D01*
X101313640Y-84033400D01*
X101344120Y-84008000D01*
X101369520Y-83977520D01*
X101379680Y-83962280D01*
X101389840Y-83936880D01*
X101397460Y-83911480D01*
X101397460Y-83911480D01*
X101400000Y-83901320D01*
X101400000Y-83898780D01*
X101400000Y-83898780D01*
X101400000Y-83847980D01*
X101400000Y-83847980D01*
X101400000Y-83845440D01*
X101397460Y-83835280D01*
X101397460Y-83832740D01*
X101384760Y-83799720D01*
X101366980Y-83766700D01*
X101344120Y-83738760D01*
X101316180Y-83715900D01*
X101283160Y-83700660D01*
X101280620Y-83698120D01*
X101265380Y-83693040D01*
X101250140Y-83690500D01*
X101232360Y-83685420D01*
X101247600Y-83682880D01*
X101270460Y-83677800D01*
X101303480Y-83662560D01*
X101333960Y-83642240D01*
X101361900Y-83614300D01*
X101382220Y-83583820D01*
X101387300Y-83568580D01*
X101394920Y-83548260D01*
X101397460Y-83533020D01*
X101400000Y-83525400D01*
X101400000Y-83522860D01*
X101400000Y-83525400D01*
X101402540Y-83533020D01*
X101405080Y-83545720D01*
X101410160Y-83566040D01*
X101417780Y-83583820D01*
X101430480Y-83604140D01*
X101455880Y-83632080D01*
X101483820Y-83654940D01*
X101516840Y-83672720D01*
X101552400Y-83682880D01*
X101567640Y-83685420D01*
X101552400Y-83690500D01*
X101549860Y-83690500D01*
X101532080Y-83693040D01*
X101516840Y-83700660D01*
X101514300Y-83700660D01*
X101481280Y-83718440D01*
X101453340Y-83741300D01*
X101430480Y-83769240D01*
X101412700Y-83802260D01*
X101402540Y-83835280D01*
X101402540Y-83835280D01*
X101400000Y-83845440D01*
X101400000Y-83847980D01*
X101400000Y-83898780D01*
X101400000Y-83898780D01*
X101400000Y-83903860D01*
X101402540Y-83911480D01*
X101410160Y-83936880D01*
X101425400Y-83969900D01*
X101448260Y-84000380D01*
X101476200Y-84025780D01*
X101509220Y-84043560D01*
X101509220Y-84043560D01*
X101544780Y-84056260D01*
X101582880Y-84061340D01*
X101582880Y-84061340D01*
G37*
X101582880Y-84061340D02*
X101618440Y-84058800D01*
X101654000Y-84048640D01*
X101676860Y-84038480D01*
X101707340Y-84015620D01*
X101735280Y-83987680D01*
X101755600Y-83954660D01*
X101768300Y-83919100D01*
X101770840Y-83911480D01*
X101773380Y-83881000D01*
X101773380Y-83853060D01*
X101765760Y-83820040D01*
X101750520Y-83781940D01*
X101727660Y-83751460D01*
X101699720Y-83726060D01*
X101666700Y-83705740D01*
X101628600Y-83690500D01*
X101605740Y-83685420D01*
X101618440Y-83682880D01*
X101620980Y-83682880D01*
X101646380Y-83675260D01*
X101674320Y-83662560D01*
X101702260Y-83647320D01*
X101704800Y-83642240D01*
X101732740Y-83616840D01*
X101753060Y-83583820D01*
X101765760Y-83548260D01*
X101773380Y-83512700D01*
X101773380Y-83477140D01*
X101763220Y-83441580D01*
X101747980Y-83406020D01*
X101747980Y-83403480D01*
X101722580Y-83373000D01*
X101694640Y-83347600D01*
X101664160Y-83329820D01*
X101628600Y-83319660D01*
X101593040Y-83314580D01*
X101557480Y-83317120D01*
X101521920Y-83324740D01*
X101488900Y-83342520D01*
X101455880Y-83365380D01*
X101440640Y-83383160D01*
X101422860Y-83411100D01*
X101407620Y-83439040D01*
X101402540Y-83466980D01*
X101400000Y-83474600D01*
X101400000Y-83477140D01*
X101400000Y-83474600D01*
X101397460Y-83466980D01*
X101392380Y-83441580D01*
X101379680Y-83416180D01*
X101364440Y-83390780D01*
X101354280Y-83378080D01*
X101326340Y-83352680D01*
X101293320Y-83332360D01*
X101257760Y-83319660D01*
X101219660Y-83314580D01*
X101181560Y-83317120D01*
X101158700Y-83322200D01*
X101123140Y-83337440D01*
X101092660Y-83357760D01*
X101064720Y-83385700D01*
X101044400Y-83418720D01*
X101031700Y-83456820D01*
X101029160Y-83474600D01*
X101026620Y-83512700D01*
X101034240Y-83548260D01*
X101046940Y-83583820D01*
X101067260Y-83616840D01*
X101095200Y-83642240D01*
X101128220Y-83665100D01*
X101143460Y-83672720D01*
X101161240Y-83677800D01*
X101176480Y-83682880D01*
X101189180Y-83685420D01*
X101189180Y-83685420D01*
X101189180Y-83685420D01*
X101181560Y-83687960D01*
X101163780Y-83693040D01*
X101138380Y-83703200D01*
X101115520Y-83713360D01*
X101105360Y-83720980D01*
X101079960Y-83743840D01*
X101057100Y-83769240D01*
X101041860Y-83797180D01*
X101031700Y-83830200D01*
X101026620Y-83863220D01*
X101026620Y-83896240D01*
X101029160Y-83901320D01*
X101039320Y-83941960D01*
X101057100Y-83974980D01*
X101082500Y-84005460D01*
X101102820Y-84025780D01*
X101135840Y-84046100D01*
X101173940Y-84056260D01*
X101186640Y-84058800D01*
X101206960Y-84061340D01*
X101229820Y-84058800D01*
X101250140Y-84058800D01*
X101265380Y-84053720D01*
X101278080Y-84051180D01*
X101313640Y-84033400D01*
X101344120Y-84008000D01*
X101369520Y-83977520D01*
X101379680Y-83962280D01*
X101389840Y-83936880D01*
X101397460Y-83911480D01*
X101397460Y-83911480D01*
X101400000Y-83901320D01*
X101400000Y-83898780D01*
X101400000Y-83898780D01*
X101400000Y-83847980D01*
X101400000Y-83847980D01*
X101400000Y-83845440D01*
X101397460Y-83835280D01*
X101397460Y-83832740D01*
X101384760Y-83799720D01*
X101366980Y-83766700D01*
X101344120Y-83738760D01*
X101316180Y-83715900D01*
X101283160Y-83700660D01*
X101280620Y-83698120D01*
X101265380Y-83693040D01*
X101250140Y-83690500D01*
X101232360Y-83685420D01*
X101247600Y-83682880D01*
X101270460Y-83677800D01*
X101303480Y-83662560D01*
X101333960Y-83642240D01*
X101361900Y-83614300D01*
X101382220Y-83583820D01*
X101387300Y-83568580D01*
X101394920Y-83548260D01*
X101397460Y-83533020D01*
X101400000Y-83525400D01*
X101400000Y-83522860D01*
X101400000Y-83525400D01*
X101402540Y-83533020D01*
X101405080Y-83545720D01*
X101410160Y-83566040D01*
X101417780Y-83583820D01*
X101430480Y-83604140D01*
X101455880Y-83632080D01*
X101483820Y-83654940D01*
X101516840Y-83672720D01*
X101552400Y-83682880D01*
X101567640Y-83685420D01*
X101552400Y-83690500D01*
X101549860Y-83690500D01*
X101532080Y-83693040D01*
X101516840Y-83700660D01*
X101514300Y-83700660D01*
X101481280Y-83718440D01*
X101453340Y-83741300D01*
X101430480Y-83769240D01*
X101412700Y-83802260D01*
X101402540Y-83835280D01*
X101402540Y-83835280D01*
X101400000Y-83845440D01*
X101400000Y-83847980D01*
X101400000Y-83898780D01*
X101400000Y-83898780D01*
X101400000Y-83903860D01*
X101402540Y-83911480D01*
X101410160Y-83936880D01*
X101425400Y-83969900D01*
X101448260Y-84000380D01*
X101476200Y-84025780D01*
X101509220Y-84043560D01*
X101509220Y-84043560D01*
X101544780Y-84056260D01*
X101582880Y-84061340D01*
G36*
X102697940Y-84061340D02*
X102728420Y-84061340D01*
X102756360Y-84056260D01*
X102774140Y-84051180D01*
X102809700Y-84033400D01*
X102840180Y-84010540D01*
X102865580Y-83982600D01*
X102883360Y-83949580D01*
X102893520Y-83914020D01*
X102898600Y-83873380D01*
X102898600Y-83858140D01*
X102890980Y-83820040D01*
X102875740Y-83784480D01*
X102852880Y-83748920D01*
X102845260Y-83743840D01*
X102819860Y-83720980D01*
X102789380Y-83703200D01*
X102756360Y-83690500D01*
X102753820Y-83690500D01*
X102725880Y-83687960D01*
X102695400Y-83687960D01*
X102667460Y-83690500D01*
X102657300Y-83693040D01*
X102621740Y-83708280D01*
X102591260Y-83731140D01*
X102565860Y-83756540D01*
X102545540Y-83787020D01*
X102530300Y-83820040D01*
X102525220Y-83858140D01*
X102525220Y-83896240D01*
X102532840Y-83934340D01*
X102545540Y-83962280D01*
X102568400Y-83992760D01*
X102596340Y-84020700D01*
X102626820Y-84041020D01*
X102664920Y-84056260D01*
X102667460Y-84056260D01*
X102697940Y-84061340D01*
X102697940Y-84061340D01*
G37*
X102697940Y-84061340D02*
X102728420Y-84061340D01*
X102756360Y-84056260D01*
X102774140Y-84051180D01*
X102809700Y-84033400D01*
X102840180Y-84010540D01*
X102865580Y-83982600D01*
X102883360Y-83949580D01*
X102893520Y-83914020D01*
X102898600Y-83873380D01*
X102898600Y-83858140D01*
X102890980Y-83820040D01*
X102875740Y-83784480D01*
X102852880Y-83748920D01*
X102845260Y-83743840D01*
X102819860Y-83720980D01*
X102789380Y-83703200D01*
X102756360Y-83690500D01*
X102753820Y-83690500D01*
X102725880Y-83687960D01*
X102695400Y-83687960D01*
X102667460Y-83690500D01*
X102657300Y-83693040D01*
X102621740Y-83708280D01*
X102591260Y-83731140D01*
X102565860Y-83756540D01*
X102545540Y-83787020D01*
X102530300Y-83820040D01*
X102525220Y-83858140D01*
X102525220Y-83896240D01*
X102532840Y-83934340D01*
X102545540Y-83962280D01*
X102568400Y-83992760D01*
X102596340Y-84020700D01*
X102626820Y-84041020D01*
X102664920Y-84056260D01*
X102667460Y-84056260D01*
X102697940Y-84061340D01*
G36*
X100843740Y-82938660D02*
X100881840Y-82933580D01*
X100917400Y-82920880D01*
X100935180Y-82913260D01*
X100950420Y-82900560D01*
X100968200Y-82885320D01*
X100988520Y-82865000D01*
X101008840Y-82831980D01*
X101021540Y-82796420D01*
X101024080Y-82786260D01*
X101026620Y-82760860D01*
X101026620Y-82735460D01*
X101021540Y-82712600D01*
X101011380Y-82679580D01*
X100996140Y-82646560D01*
X100973280Y-82618620D01*
X100968200Y-82616080D01*
X100950420Y-82600840D01*
X100930100Y-82588140D01*
X100912320Y-82577980D01*
X100904700Y-82575440D01*
X100889460Y-82570360D01*
X100874220Y-82567820D01*
X100864060Y-82565280D01*
X100856440Y-82565280D01*
X100864060Y-82562740D01*
X100874220Y-82560200D01*
X100884380Y-82557660D01*
X100899620Y-82555120D01*
X100927560Y-82539880D01*
X100955500Y-82524640D01*
X100975820Y-82504320D01*
X100980900Y-82499240D01*
X101003760Y-82466220D01*
X101019000Y-82430660D01*
X101026620Y-82395100D01*
X101026620Y-82357000D01*
X101024080Y-82346840D01*
X101013920Y-82308740D01*
X100996140Y-82275720D01*
X100970740Y-82242700D01*
X100947880Y-82224920D01*
X100914860Y-82204600D01*
X100879300Y-82191900D01*
X100871680Y-82191900D01*
X100846280Y-82189360D01*
X100820880Y-82189360D01*
X100795480Y-82194440D01*
X100775160Y-82199520D01*
X100739600Y-82217300D01*
X100709120Y-82240160D01*
X100686260Y-82268100D01*
X100665940Y-82301120D01*
X100655780Y-82336680D01*
X100653240Y-82341760D01*
X100650700Y-82349380D01*
X100650700Y-82354460D01*
X100648160Y-82349380D01*
X100648160Y-82341760D01*
X100645620Y-82326520D01*
X100638000Y-82308740D01*
X100632920Y-82293500D01*
X100625300Y-82283340D01*
X100602440Y-82250320D01*
X100574500Y-82224920D01*
X100541480Y-82204600D01*
X100505920Y-82194440D01*
X100465280Y-82189360D01*
X100434800Y-82191900D01*
X100399240Y-82199520D01*
X100366220Y-82217300D01*
X100345900Y-82230000D01*
X100317960Y-82257940D01*
X100297640Y-82288420D01*
X100282400Y-82323980D01*
X100277320Y-82359540D01*
X100277320Y-82397640D01*
X100284940Y-82433200D01*
X100300180Y-82468760D01*
X100323040Y-82499240D01*
X100350980Y-82527180D01*
X100386540Y-82547500D01*
X100424640Y-82560200D01*
X100444960Y-82565280D01*
X100432260Y-82565280D01*
X100424640Y-82567820D01*
X100394160Y-82575440D01*
X100366220Y-82590680D01*
X100338280Y-82611000D01*
X100315420Y-82633860D01*
X100302720Y-82654180D01*
X100290020Y-82679580D01*
X100282400Y-82704980D01*
X100277320Y-82725300D01*
X100277320Y-82748160D01*
X100277320Y-82773560D01*
X100279860Y-82791340D01*
X100287480Y-82814200D01*
X100305260Y-82849760D01*
X100328120Y-82880240D01*
X100358600Y-82905640D01*
X100391620Y-82925960D01*
X100432260Y-82936120D01*
X100442420Y-82938660D01*
X100465280Y-82938660D01*
X100488140Y-82936120D01*
X100511000Y-82933580D01*
X100526240Y-82928500D01*
X100561800Y-82910720D01*
X100592280Y-82887860D01*
X100617680Y-82859920D01*
X100635460Y-82826900D01*
X100648160Y-82788800D01*
X100648160Y-82786260D01*
X100650700Y-82776100D01*
X100650700Y-82778640D01*
X100650700Y-82725300D01*
X100650700Y-82725300D01*
X100648160Y-82717680D01*
X100648160Y-82715140D01*
X100640540Y-82689740D01*
X100630380Y-82664340D01*
X100615140Y-82638940D01*
X100602440Y-82626240D01*
X100574500Y-82598300D01*
X100538940Y-82580520D01*
X100500840Y-82567820D01*
X100483060Y-82562740D01*
X100495760Y-82560200D01*
X100508460Y-82557660D01*
X100518620Y-82555120D01*
X100526240Y-82552580D01*
X100561800Y-82537340D01*
X100592280Y-82511940D01*
X100617680Y-82484000D01*
X100635460Y-82450980D01*
X100648160Y-82415420D01*
X100648160Y-82407800D01*
X100650700Y-82402720D01*
X100653240Y-82405260D01*
X100655780Y-82415420D01*
X100655780Y-82417960D01*
X100660860Y-82438280D01*
X100671020Y-82458600D01*
X100681180Y-82478920D01*
X100691340Y-82491620D01*
X100709120Y-82509400D01*
X100726900Y-82527180D01*
X100744680Y-82539880D01*
X100747220Y-82539880D01*
X100775160Y-82552580D01*
X100805640Y-82560200D01*
X100818340Y-82562740D01*
X100803100Y-82567820D01*
X100770080Y-82575440D01*
X100737060Y-82593220D01*
X100706580Y-82616080D01*
X100683720Y-82644020D01*
X100678640Y-82654180D01*
X100668480Y-82671960D01*
X100660860Y-82692280D01*
X100655780Y-82710060D01*
X100653240Y-82722760D01*
X100653240Y-82722760D01*
X100650700Y-82725300D01*
X100650700Y-82778640D01*
X100653240Y-82778640D01*
X100653240Y-82786260D01*
X100655780Y-82796420D01*
X100660860Y-82809120D01*
X100668480Y-82826900D01*
X100686260Y-82859920D01*
X100711660Y-82887860D01*
X100739600Y-82910720D01*
X100772620Y-82925960D01*
X100808180Y-82936120D01*
X100843740Y-82938660D01*
X100843740Y-82938660D01*
G37*
X100843740Y-82938660D02*
X100881840Y-82933580D01*
X100917400Y-82920880D01*
X100935180Y-82913260D01*
X100950420Y-82900560D01*
X100968200Y-82885320D01*
X100988520Y-82865000D01*
X101008840Y-82831980D01*
X101021540Y-82796420D01*
X101024080Y-82786260D01*
X101026620Y-82760860D01*
X101026620Y-82735460D01*
X101021540Y-82712600D01*
X101011380Y-82679580D01*
X100996140Y-82646560D01*
X100973280Y-82618620D01*
X100968200Y-82616080D01*
X100950420Y-82600840D01*
X100930100Y-82588140D01*
X100912320Y-82577980D01*
X100904700Y-82575440D01*
X100889460Y-82570360D01*
X100874220Y-82567820D01*
X100864060Y-82565280D01*
X100856440Y-82565280D01*
X100864060Y-82562740D01*
X100874220Y-82560200D01*
X100884380Y-82557660D01*
X100899620Y-82555120D01*
X100927560Y-82539880D01*
X100955500Y-82524640D01*
X100975820Y-82504320D01*
X100980900Y-82499240D01*
X101003760Y-82466220D01*
X101019000Y-82430660D01*
X101026620Y-82395100D01*
X101026620Y-82357000D01*
X101024080Y-82346840D01*
X101013920Y-82308740D01*
X100996140Y-82275720D01*
X100970740Y-82242700D01*
X100947880Y-82224920D01*
X100914860Y-82204600D01*
X100879300Y-82191900D01*
X100871680Y-82191900D01*
X100846280Y-82189360D01*
X100820880Y-82189360D01*
X100795480Y-82194440D01*
X100775160Y-82199520D01*
X100739600Y-82217300D01*
X100709120Y-82240160D01*
X100686260Y-82268100D01*
X100665940Y-82301120D01*
X100655780Y-82336680D01*
X100653240Y-82341760D01*
X100650700Y-82349380D01*
X100650700Y-82354460D01*
X100648160Y-82349380D01*
X100648160Y-82341760D01*
X100645620Y-82326520D01*
X100638000Y-82308740D01*
X100632920Y-82293500D01*
X100625300Y-82283340D01*
X100602440Y-82250320D01*
X100574500Y-82224920D01*
X100541480Y-82204600D01*
X100505920Y-82194440D01*
X100465280Y-82189360D01*
X100434800Y-82191900D01*
X100399240Y-82199520D01*
X100366220Y-82217300D01*
X100345900Y-82230000D01*
X100317960Y-82257940D01*
X100297640Y-82288420D01*
X100282400Y-82323980D01*
X100277320Y-82359540D01*
X100277320Y-82397640D01*
X100284940Y-82433200D01*
X100300180Y-82468760D01*
X100323040Y-82499240D01*
X100350980Y-82527180D01*
X100386540Y-82547500D01*
X100424640Y-82560200D01*
X100444960Y-82565280D01*
X100432260Y-82565280D01*
X100424640Y-82567820D01*
X100394160Y-82575440D01*
X100366220Y-82590680D01*
X100338280Y-82611000D01*
X100315420Y-82633860D01*
X100302720Y-82654180D01*
X100290020Y-82679580D01*
X100282400Y-82704980D01*
X100277320Y-82725300D01*
X100277320Y-82748160D01*
X100277320Y-82773560D01*
X100279860Y-82791340D01*
X100287480Y-82814200D01*
X100305260Y-82849760D01*
X100328120Y-82880240D01*
X100358600Y-82905640D01*
X100391620Y-82925960D01*
X100432260Y-82936120D01*
X100442420Y-82938660D01*
X100465280Y-82938660D01*
X100488140Y-82936120D01*
X100511000Y-82933580D01*
X100526240Y-82928500D01*
X100561800Y-82910720D01*
X100592280Y-82887860D01*
X100617680Y-82859920D01*
X100635460Y-82826900D01*
X100648160Y-82788800D01*
X100648160Y-82786260D01*
X100650700Y-82776100D01*
X100650700Y-82778640D01*
X100650700Y-82725300D01*
X100650700Y-82725300D01*
X100648160Y-82717680D01*
X100648160Y-82715140D01*
X100640540Y-82689740D01*
X100630380Y-82664340D01*
X100615140Y-82638940D01*
X100602440Y-82626240D01*
X100574500Y-82598300D01*
X100538940Y-82580520D01*
X100500840Y-82567820D01*
X100483060Y-82562740D01*
X100495760Y-82560200D01*
X100508460Y-82557660D01*
X100518620Y-82555120D01*
X100526240Y-82552580D01*
X100561800Y-82537340D01*
X100592280Y-82511940D01*
X100617680Y-82484000D01*
X100635460Y-82450980D01*
X100648160Y-82415420D01*
X100648160Y-82407800D01*
X100650700Y-82402720D01*
X100653240Y-82405260D01*
X100655780Y-82415420D01*
X100655780Y-82417960D01*
X100660860Y-82438280D01*
X100671020Y-82458600D01*
X100681180Y-82478920D01*
X100691340Y-82491620D01*
X100709120Y-82509400D01*
X100726900Y-82527180D01*
X100744680Y-82539880D01*
X100747220Y-82539880D01*
X100775160Y-82552580D01*
X100805640Y-82560200D01*
X100818340Y-82562740D01*
X100803100Y-82567820D01*
X100770080Y-82575440D01*
X100737060Y-82593220D01*
X100706580Y-82616080D01*
X100683720Y-82644020D01*
X100678640Y-82654180D01*
X100668480Y-82671960D01*
X100660860Y-82692280D01*
X100655780Y-82710060D01*
X100653240Y-82722760D01*
X100653240Y-82722760D01*
X100650700Y-82725300D01*
X100650700Y-82778640D01*
X100653240Y-82778640D01*
X100653240Y-82786260D01*
X100655780Y-82796420D01*
X100660860Y-82809120D01*
X100668480Y-82826900D01*
X100686260Y-82859920D01*
X100711660Y-82887860D01*
X100739600Y-82910720D01*
X100772620Y-82925960D01*
X100808180Y-82936120D01*
X100843740Y-82938660D01*
G36*
X101971500Y-82938660D02*
X102007060Y-82933580D01*
X102042620Y-82920880D01*
X102075640Y-82900560D01*
X102101040Y-82875160D01*
X102123900Y-82844680D01*
X102139140Y-82809120D01*
X102144220Y-82796420D01*
X102146760Y-82786260D01*
X102146760Y-82783720D01*
X102149300Y-82776100D01*
X102149300Y-82776100D01*
X102149300Y-82725300D01*
X102146760Y-82720220D01*
X102144220Y-82707520D01*
X102136600Y-82684660D01*
X102121360Y-82651640D01*
X102098500Y-82621160D01*
X102068020Y-82598300D01*
X102035000Y-82577980D01*
X101999440Y-82567820D01*
X101981660Y-82562740D01*
X101994360Y-82560200D01*
X101994360Y-82560200D01*
X102024840Y-82552580D01*
X102055320Y-82539880D01*
X102065480Y-82532260D01*
X102085800Y-82514480D01*
X102103580Y-82496700D01*
X102118820Y-82478920D01*
X102126440Y-82463680D01*
X102139140Y-82438280D01*
X102144220Y-82417960D01*
X102146760Y-82407800D01*
X102149300Y-82402720D01*
X102149300Y-82405260D01*
X102151840Y-82415420D01*
X102159460Y-82440820D01*
X102177240Y-82476380D01*
X102202640Y-82506860D01*
X102230580Y-82529720D01*
X102263600Y-82550040D01*
X102304240Y-82560200D01*
X102316940Y-82562740D01*
X102299160Y-82567820D01*
X102281380Y-82572900D01*
X102245820Y-82588140D01*
X102212800Y-82611000D01*
X102187400Y-82638940D01*
X102177240Y-82649100D01*
X102169620Y-82666880D01*
X102159460Y-82687200D01*
X102154380Y-82699900D01*
X102151840Y-82715140D01*
X102151840Y-82715140D01*
X102149300Y-82722760D01*
X102149300Y-82725300D01*
X102149300Y-82776100D01*
X102149300Y-82778640D01*
X102151840Y-82788800D01*
X102154380Y-82801500D01*
X102167080Y-82829440D01*
X102179780Y-82854840D01*
X102192480Y-82870080D01*
X102220420Y-82898020D01*
X102253440Y-82918340D01*
X102291540Y-82933580D01*
X102306780Y-82936120D01*
X102332180Y-82938660D01*
X102360120Y-82936120D01*
X102382980Y-82933580D01*
X102385520Y-82933580D01*
X102423620Y-82918340D01*
X102456640Y-82895480D01*
X102482040Y-82867540D01*
X102504900Y-82834520D01*
X102517600Y-82796420D01*
X102522680Y-82781180D01*
X102522680Y-82753240D01*
X102522680Y-82727840D01*
X102517600Y-82704980D01*
X102512520Y-82684660D01*
X102499820Y-82659260D01*
X102484580Y-82633860D01*
X102466800Y-82616080D01*
X102443940Y-82598300D01*
X102418540Y-82583060D01*
X102410920Y-82577980D01*
X102393140Y-82572900D01*
X102375360Y-82567820D01*
X102362660Y-82565280D01*
X102360120Y-82565280D01*
X102365200Y-82562740D01*
X102375360Y-82560200D01*
X102398220Y-82552580D01*
X102421080Y-82542420D01*
X102441400Y-82532260D01*
X102446480Y-82527180D01*
X102471880Y-82506860D01*
X102492200Y-82478920D01*
X102507440Y-82450980D01*
X102515060Y-82438280D01*
X102522680Y-82400180D01*
X102522680Y-82362080D01*
X102517600Y-82323980D01*
X102515060Y-82316360D01*
X102497280Y-82280800D01*
X102474420Y-82250320D01*
X102446480Y-82224920D01*
X102413460Y-82204600D01*
X102375360Y-82191900D01*
X102370280Y-82191900D01*
X102344880Y-82189360D01*
X102316940Y-82189360D01*
X102294080Y-82194440D01*
X102286460Y-82194440D01*
X102250900Y-82209680D01*
X102217880Y-82230000D01*
X102189940Y-82260480D01*
X102167080Y-82293500D01*
X102162000Y-82303660D01*
X102156920Y-82321440D01*
X102151840Y-82336680D01*
X102151840Y-82349380D01*
X102151840Y-82351920D01*
X102149300Y-82351920D01*
X102146760Y-82346840D01*
X102144220Y-82336680D01*
X102139140Y-82311280D01*
X102121360Y-82278260D01*
X102098500Y-82250320D01*
X102070560Y-82224920D01*
X102037540Y-82204600D01*
X102037540Y-82204600D01*
X102004520Y-82194440D01*
X101966420Y-82189360D01*
X101928320Y-82191900D01*
X101892760Y-82202060D01*
X101872440Y-82212220D01*
X101839420Y-82232540D01*
X101814020Y-82260480D01*
X101793700Y-82293500D01*
X101778460Y-82331600D01*
X101778460Y-82339220D01*
X101773380Y-82369700D01*
X101775920Y-82397640D01*
X101783540Y-82433200D01*
X101798780Y-82468760D01*
X101821640Y-82499240D01*
X101849580Y-82527180D01*
X101882600Y-82547500D01*
X101920700Y-82560200D01*
X101928320Y-82562740D01*
X101935940Y-82565280D01*
X101935940Y-82565280D01*
X101925780Y-82565280D01*
X101902920Y-82572900D01*
X101880060Y-82583060D01*
X101857200Y-82595760D01*
X101836880Y-82611000D01*
X101811480Y-82638940D01*
X101791160Y-82674500D01*
X101788620Y-82679580D01*
X101775920Y-82715140D01*
X101773380Y-82753240D01*
X101778460Y-82793880D01*
X101791160Y-82829440D01*
X101798780Y-82847220D01*
X101811480Y-82862460D01*
X101826720Y-82880240D01*
X101826720Y-82882780D01*
X101857200Y-82908180D01*
X101892760Y-82925960D01*
X101928320Y-82936120D01*
X101933400Y-82936120D01*
X101971500Y-82938660D01*
X101971500Y-82938660D01*
G37*
X101971500Y-82938660D02*
X102007060Y-82933580D01*
X102042620Y-82920880D01*
X102075640Y-82900560D01*
X102101040Y-82875160D01*
X102123900Y-82844680D01*
X102139140Y-82809120D01*
X102144220Y-82796420D01*
X102146760Y-82786260D01*
X102146760Y-82783720D01*
X102149300Y-82776100D01*
X102149300Y-82776100D01*
X102149300Y-82725300D01*
X102146760Y-82720220D01*
X102144220Y-82707520D01*
X102136600Y-82684660D01*
X102121360Y-82651640D01*
X102098500Y-82621160D01*
X102068020Y-82598300D01*
X102035000Y-82577980D01*
X101999440Y-82567820D01*
X101981660Y-82562740D01*
X101994360Y-82560200D01*
X101994360Y-82560200D01*
X102024840Y-82552580D01*
X102055320Y-82539880D01*
X102065480Y-82532260D01*
X102085800Y-82514480D01*
X102103580Y-82496700D01*
X102118820Y-82478920D01*
X102126440Y-82463680D01*
X102139140Y-82438280D01*
X102144220Y-82417960D01*
X102146760Y-82407800D01*
X102149300Y-82402720D01*
X102149300Y-82405260D01*
X102151840Y-82415420D01*
X102159460Y-82440820D01*
X102177240Y-82476380D01*
X102202640Y-82506860D01*
X102230580Y-82529720D01*
X102263600Y-82550040D01*
X102304240Y-82560200D01*
X102316940Y-82562740D01*
X102299160Y-82567820D01*
X102281380Y-82572900D01*
X102245820Y-82588140D01*
X102212800Y-82611000D01*
X102187400Y-82638940D01*
X102177240Y-82649100D01*
X102169620Y-82666880D01*
X102159460Y-82687200D01*
X102154380Y-82699900D01*
X102151840Y-82715140D01*
X102151840Y-82715140D01*
X102149300Y-82722760D01*
X102149300Y-82725300D01*
X102149300Y-82776100D01*
X102149300Y-82778640D01*
X102151840Y-82788800D01*
X102154380Y-82801500D01*
X102167080Y-82829440D01*
X102179780Y-82854840D01*
X102192480Y-82870080D01*
X102220420Y-82898020D01*
X102253440Y-82918340D01*
X102291540Y-82933580D01*
X102306780Y-82936120D01*
X102332180Y-82938660D01*
X102360120Y-82936120D01*
X102382980Y-82933580D01*
X102385520Y-82933580D01*
X102423620Y-82918340D01*
X102456640Y-82895480D01*
X102482040Y-82867540D01*
X102504900Y-82834520D01*
X102517600Y-82796420D01*
X102522680Y-82781180D01*
X102522680Y-82753240D01*
X102522680Y-82727840D01*
X102517600Y-82704980D01*
X102512520Y-82684660D01*
X102499820Y-82659260D01*
X102484580Y-82633860D01*
X102466800Y-82616080D01*
X102443940Y-82598300D01*
X102418540Y-82583060D01*
X102410920Y-82577980D01*
X102393140Y-82572900D01*
X102375360Y-82567820D01*
X102362660Y-82565280D01*
X102360120Y-82565280D01*
X102365200Y-82562740D01*
X102375360Y-82560200D01*
X102398220Y-82552580D01*
X102421080Y-82542420D01*
X102441400Y-82532260D01*
X102446480Y-82527180D01*
X102471880Y-82506860D01*
X102492200Y-82478920D01*
X102507440Y-82450980D01*
X102515060Y-82438280D01*
X102522680Y-82400180D01*
X102522680Y-82362080D01*
X102517600Y-82323980D01*
X102515060Y-82316360D01*
X102497280Y-82280800D01*
X102474420Y-82250320D01*
X102446480Y-82224920D01*
X102413460Y-82204600D01*
X102375360Y-82191900D01*
X102370280Y-82191900D01*
X102344880Y-82189360D01*
X102316940Y-82189360D01*
X102294080Y-82194440D01*
X102286460Y-82194440D01*
X102250900Y-82209680D01*
X102217880Y-82230000D01*
X102189940Y-82260480D01*
X102167080Y-82293500D01*
X102162000Y-82303660D01*
X102156920Y-82321440D01*
X102151840Y-82336680D01*
X102151840Y-82349380D01*
X102151840Y-82351920D01*
X102149300Y-82351920D01*
X102146760Y-82346840D01*
X102144220Y-82336680D01*
X102139140Y-82311280D01*
X102121360Y-82278260D01*
X102098500Y-82250320D01*
X102070560Y-82224920D01*
X102037540Y-82204600D01*
X102037540Y-82204600D01*
X102004520Y-82194440D01*
X101966420Y-82189360D01*
X101928320Y-82191900D01*
X101892760Y-82202060D01*
X101872440Y-82212220D01*
X101839420Y-82232540D01*
X101814020Y-82260480D01*
X101793700Y-82293500D01*
X101778460Y-82331600D01*
X101778460Y-82339220D01*
X101773380Y-82369700D01*
X101775920Y-82397640D01*
X101783540Y-82433200D01*
X101798780Y-82468760D01*
X101821640Y-82499240D01*
X101849580Y-82527180D01*
X101882600Y-82547500D01*
X101920700Y-82560200D01*
X101928320Y-82562740D01*
X101935940Y-82565280D01*
X101935940Y-82565280D01*
X101925780Y-82565280D01*
X101902920Y-82572900D01*
X101880060Y-82583060D01*
X101857200Y-82595760D01*
X101836880Y-82611000D01*
X101811480Y-82638940D01*
X101791160Y-82674500D01*
X101788620Y-82679580D01*
X101775920Y-82715140D01*
X101773380Y-82753240D01*
X101778460Y-82793880D01*
X101791160Y-82829440D01*
X101798780Y-82847220D01*
X101811480Y-82862460D01*
X101826720Y-82880240D01*
X101826720Y-82882780D01*
X101857200Y-82908180D01*
X101892760Y-82925960D01*
X101928320Y-82936120D01*
X101933400Y-82936120D01*
X101971500Y-82938660D01*
D10*
X84100000Y-88800000D02*
X83450000Y-88800000D01*
X84950000Y-88800000D02*
X84450000Y-88800000D01*
X85750000Y-88800000D02*
X85250000Y-88800000D01*
X86750000Y-88800000D02*
X86100000Y-88800000D01*
X84100000Y-87200000D02*
X83450000Y-87200000D01*
X84950000Y-87200000D02*
X84450000Y-87200000D01*
X85750000Y-87200000D02*
X85250000Y-87200000D01*
X86750000Y-87200000D02*
X86100000Y-87200000D01*
X84450000Y-88800000D02*
X84450000Y-88600000D01*
X84450000Y-88600000D02*
X84100000Y-88600000D01*
X84100000Y-88600000D02*
X84100000Y-88800000D01*
X85250000Y-88800000D02*
X85250000Y-88600000D01*
X85250000Y-88600000D02*
X84950000Y-88600000D01*
X84950000Y-88600000D02*
X84950000Y-88800000D01*
X86100000Y-88800000D02*
X86100000Y-88600000D01*
X86100000Y-88600000D02*
X85750000Y-88600000D01*
X85750000Y-88600000D02*
X85750000Y-88800000D01*
X84450000Y-87200000D02*
X84450000Y-87400000D01*
X84450000Y-87400000D02*
X84100000Y-87400000D01*
X84100000Y-87400000D02*
X84100000Y-87200000D01*
X85250000Y-87200000D02*
X85250000Y-87400000D01*
X85250000Y-87400000D02*
X84950000Y-87400000D01*
X84950000Y-87400000D02*
X84950000Y-87200000D01*
X86100000Y-87200000D02*
X86100000Y-87400000D01*
X86100000Y-87400000D02*
X85750000Y-87400000D01*
X85750000Y-87400000D02*
X85750000Y-87200000D01*
X83450000Y-87200000D02*
X83450000Y-88800000D01*
X86750000Y-88800000D02*
X86750000Y-87200000D01*
X94300000Y-88800000D02*
X93650000Y-88800000D01*
X95150000Y-88800000D02*
X94650000Y-88800000D01*
X95950000Y-88800000D02*
X95450000Y-88800000D01*
X96950000Y-88800000D02*
X96300000Y-88800000D01*
X94300000Y-87200000D02*
X93650000Y-87200000D01*
X95150000Y-87200000D02*
X94650000Y-87200000D01*
X95950000Y-87200000D02*
X95450000Y-87200000D01*
X96950000Y-87200000D02*
X96300000Y-87200000D01*
X94650000Y-88800000D02*
X94650000Y-88600000D01*
X94650000Y-88600000D02*
X94300000Y-88600000D01*
X94300000Y-88600000D02*
X94300000Y-88800000D01*
X95450000Y-88800000D02*
X95450000Y-88600000D01*
X95450000Y-88600000D02*
X95150000Y-88600000D01*
X95150000Y-88600000D02*
X95150000Y-88800000D01*
X96300000Y-88800000D02*
X96300000Y-88600000D01*
X96300000Y-88600000D02*
X95950000Y-88600000D01*
X95950000Y-88600000D02*
X95950000Y-88800000D01*
X94650000Y-87200000D02*
X94650000Y-87400000D01*
X94650000Y-87400000D02*
X94300000Y-87400000D01*
X94300000Y-87400000D02*
X94300000Y-87200000D01*
X95450000Y-87200000D02*
X95450000Y-87400000D01*
X95450000Y-87400000D02*
X95150000Y-87400000D01*
X95150000Y-87400000D02*
X95150000Y-87200000D01*
X96300000Y-87200000D02*
X96300000Y-87400000D01*
X96300000Y-87400000D02*
X95950000Y-87400000D01*
X95950000Y-87400000D02*
X95950000Y-87200000D01*
X93650000Y-87200000D02*
X93650000Y-88800000D01*
X96950000Y-88800000D02*
X96950000Y-87200000D01*
%LPC*%
D13*
X101600000Y-91440000D03*
D14*
X99060000Y-91440000D03*
X96520000Y-91440000D03*
X93980000Y-91440000D03*
X91440000Y-91440000D03*
X88900000Y-91440000D03*
X86360000Y-91440000D03*
X83820000Y-91440000D03*
X81280000Y-91440000D03*
D15*
X86425000Y-87100000D03*
D16*
X85500000Y-87100000D03*
X84700000Y-87100000D03*
D15*
X83775000Y-87100000D03*
X86425000Y-88900000D03*
D16*
X85500000Y-88900000D03*
X84700000Y-88900000D03*
D15*
X83775000Y-88900000D03*
X96625000Y-87100000D03*
D16*
X95700000Y-87100000D03*
X94900000Y-87100000D03*
D15*
X93975000Y-87100000D03*
X96625000Y-88900000D03*
D16*
X95700000Y-88900000D03*
X94900000Y-88900000D03*
D15*
X93975000Y-88900000D03*
M02*
