M48
INCH,TZ
T1C0.013
T2C0.040
%
G90
G05
T1
X3.1988Y-3.2087
X3.2008Y-3.5157
X3.2992Y-3.2087
X3.334Y-3.3831
X3.3661Y-3.3268
X3.3996Y-3.2087
X3.5Y-3.2087
X3.5Y-3.5157
X3.6004Y-3.2106
X3.6004Y-3.5157
X3.6969Y-3.2087
X3.7362Y-3.3301
X3.7677Y-3.3878
X3.7992Y-3.2067
X3.8996Y-3.2087
X3.8996Y-3.5157
X3.9193Y-3.3583
T2
X3.2Y-3.6
X3.3Y-3.6
X3.4Y-3.6
X3.5Y-3.6
X3.6Y-3.6
X3.7Y-3.6
X3.8Y-3.6
X3.9Y-3.6
X4.Y-3.6
T0
M30
