G04 #@! TF.FileFunction,Copper,L1,Top,Signal*
%FSLAX46Y46*%
G04 Gerber Fmt 4.6, Leading zero omitted, Abs format (unit mm)*
G04 Created by KiCad (PCBNEW (2015-04-05 BZR 5576)-product) date Tue 07 Apr 2015 01:01:35 AM CEST*
%MOMM*%
G01*
G04 APERTURE LIST*
%ADD10C,0.150000*%
%ADD11R,1.650000X1.650000*%
%ADD12C,1.650000*%
%ADD13R,0.800000X0.600000*%
%ADD14C,0.635000*%
%ADD15C,0.300000*%
G04 APERTURE END LIST*
D10*
D11*
X101600000Y-91440000D03*
D12*
X99060000Y-91440000D03*
X96520000Y-91440000D03*
X93980000Y-91440000D03*
X91440000Y-91440000D03*
X88900000Y-91440000D03*
X86360000Y-91440000D03*
X83820000Y-91440000D03*
X81280000Y-91440000D03*
D13*
X86360000Y-82685000D03*
X86360000Y-83685000D03*
X81280000Y-87130000D03*
X81280000Y-88130000D03*
X96520000Y-87130000D03*
X96520000Y-88130000D03*
X83820000Y-87130000D03*
X83820000Y-88130000D03*
X86360000Y-87130000D03*
X86360000Y-88130000D03*
X88900000Y-87130000D03*
X88900000Y-88130000D03*
X91440000Y-87130000D03*
X91440000Y-88130000D03*
X93980000Y-87130000D03*
X93980000Y-88130000D03*
X99060000Y-87130000D03*
X99060000Y-88130000D03*
X81280000Y-82685000D03*
X81280000Y-83685000D03*
X83820000Y-82685000D03*
X83820000Y-83685000D03*
X88900000Y-82685000D03*
X88900000Y-83685000D03*
X91440000Y-82685000D03*
X91440000Y-83685000D03*
X93980000Y-82685000D03*
X93980000Y-83685000D03*
X96520000Y-82685000D03*
X96520000Y-83685000D03*
X99060000Y-82685000D03*
X99060000Y-83685000D03*
D14*
X99550000Y-85300000D03*
X81250000Y-81500000D03*
X81300000Y-89300000D03*
X83799998Y-81500000D03*
X84682480Y-85930304D03*
X86350000Y-81500000D03*
X85500000Y-84500000D03*
X88900000Y-89299996D03*
X88900000Y-81500000D03*
X91450000Y-81550000D03*
X91450002Y-89300000D03*
X93900000Y-81500000D03*
X94900000Y-84584376D03*
X96500000Y-81450000D03*
X95700000Y-86049998D03*
X99050000Y-81500000D03*
X99050000Y-89299998D03*
D15*
X99550000Y-85300000D02*
X99064549Y-85300000D01*
X99064549Y-85300000D02*
X99060000Y-85295451D01*
X88900000Y-83685000D02*
X88900000Y-87130000D01*
X91440000Y-83685000D02*
X91440000Y-87130000D01*
X81280000Y-83685000D02*
X83820000Y-83685000D01*
X83820000Y-83685000D02*
X86360000Y-83685000D01*
X86360000Y-83685000D02*
X88900000Y-83685000D01*
X88900000Y-83685000D02*
X91440000Y-83685000D01*
X91440000Y-83685000D02*
X93980000Y-83685000D01*
X93980000Y-83685000D02*
X96520000Y-83685000D01*
X96520000Y-83685000D02*
X99060000Y-83685000D01*
X81420070Y-85162803D02*
X81280000Y-85302873D01*
X85050881Y-85162803D02*
X81420070Y-85162803D01*
X85535718Y-85647640D02*
X85050881Y-85162803D01*
X85535718Y-87130000D02*
X85535718Y-85647640D01*
X81280000Y-85302873D02*
X81280000Y-87130000D01*
X81280000Y-83685000D02*
X81280000Y-85302873D01*
X83820000Y-87130000D02*
X85535718Y-87130000D01*
X85535718Y-87130000D02*
X86360000Y-87130000D01*
X99047046Y-85282497D02*
X99060000Y-85295451D01*
X95331599Y-85282497D02*
X99047046Y-85282497D01*
X94776583Y-85837513D02*
X95331599Y-85282497D01*
X99060000Y-83685000D02*
X99060000Y-85295451D01*
X94776583Y-87130000D02*
X94776583Y-85837513D01*
X99060000Y-85295451D02*
X99060000Y-87130000D01*
X96520000Y-87130000D02*
X94776583Y-87130000D01*
X94776583Y-87130000D02*
X93980000Y-87130000D01*
X81250000Y-82655000D02*
X81280000Y-82685000D01*
X81250000Y-81500000D02*
X81250000Y-82655000D01*
X81300000Y-88150000D02*
X81300000Y-89300000D01*
X81280000Y-89280000D02*
X81300000Y-89300000D01*
X81280000Y-88130000D02*
X81280000Y-89280000D01*
X83820000Y-82685000D02*
X83820000Y-81520002D01*
X83820000Y-81520002D02*
X83799998Y-81500000D01*
X83019696Y-85930304D02*
X84233468Y-85930304D01*
X82650000Y-86300000D02*
X83019696Y-85930304D01*
X82650000Y-87660000D02*
X82650000Y-86300000D01*
X84233468Y-85930304D02*
X84682480Y-85930304D01*
X83120000Y-88130000D02*
X82650000Y-87660000D01*
X83820000Y-88130000D02*
X83120000Y-88130000D01*
X86360000Y-81510000D02*
X86350000Y-81500000D01*
X86350000Y-82675000D02*
X86350000Y-81500000D01*
X86360000Y-82685000D02*
X86360000Y-81510000D01*
X85817499Y-84817499D02*
X85500000Y-84500000D01*
X86767499Y-84817499D02*
X85817499Y-84817499D01*
X87450000Y-85500000D02*
X86767499Y-84817499D01*
X87450000Y-87740000D02*
X87450000Y-85500000D01*
X87060000Y-88130000D02*
X87450000Y-87740000D01*
X86360000Y-88130000D02*
X87060000Y-88130000D01*
X88900000Y-88130000D02*
X88900000Y-89299996D01*
X88900000Y-82685000D02*
X88900000Y-81500000D01*
X91450000Y-82675000D02*
X91440000Y-82685000D01*
X91450000Y-81550000D02*
X91450000Y-82675000D01*
X91440000Y-88130000D02*
X91440000Y-89289998D01*
X91440000Y-89289998D02*
X91450002Y-89300000D01*
X93900000Y-82605000D02*
X93980000Y-82685000D01*
X93900000Y-81500000D02*
X93900000Y-82605000D01*
X94634376Y-84850000D02*
X94900000Y-84584376D01*
X93450000Y-84850000D02*
X94634376Y-84850000D01*
X92900000Y-85400000D02*
X93450000Y-84850000D01*
X92900000Y-87750000D02*
X92900000Y-85400000D01*
X93280000Y-88130000D02*
X92900000Y-87750000D01*
X93980000Y-88130000D02*
X93280000Y-88130000D01*
X96500000Y-82665000D02*
X96520000Y-82685000D01*
X96500000Y-81450000D02*
X96500000Y-82665000D01*
X96520000Y-88130000D02*
X97220000Y-88130000D01*
X97499998Y-86049998D02*
X96149012Y-86049998D01*
X97650000Y-86200000D02*
X97499998Y-86049998D01*
X97220000Y-88130000D02*
X97650000Y-87700000D01*
X96149012Y-86049998D02*
X95700000Y-86049998D01*
X97650000Y-87700000D02*
X97650000Y-86200000D01*
X99050000Y-82675000D02*
X99060000Y-82685000D01*
X99050000Y-81500000D02*
X99050000Y-82675000D01*
X99060000Y-88130000D02*
X99060000Y-89289998D01*
X99060000Y-89289998D02*
X99050000Y-89299998D01*
M02*
