G04 #@! TF.FileFunction,Copper,L2,Bot,Signal*
%FSLAX46Y46*%
G04 Gerber Fmt 4.6, Leading zero omitted, Abs format (unit mm)*
G04 Created by KiCad (PCBNEW (2015-04-05 BZR 5576)-product) date Tue 07 Apr 2015 01:01:35 AM CEST*
%MOMM*%
G01*
G04 APERTURE LIST*
%ADD10C,0.150000*%
%ADD11R,1.650000X1.650000*%
%ADD12C,1.650000*%
%ADD13R,0.650000X1.000000*%
%ADD14R,0.500000X1.000000*%
%ADD15C,0.635000*%
%ADD16C,0.300000*%
G04 APERTURE END LIST*
D10*
D11*
X101600000Y-91440000D03*
D12*
X99060000Y-91440000D03*
X96520000Y-91440000D03*
X93980000Y-91440000D03*
X91440000Y-91440000D03*
X88900000Y-91440000D03*
X86360000Y-91440000D03*
X83820000Y-91440000D03*
X81280000Y-91440000D03*
D13*
X86425000Y-87100000D03*
D14*
X85500000Y-87100000D03*
X84700000Y-87100000D03*
D13*
X83775000Y-87100000D03*
X86425000Y-88900000D03*
D14*
X85500000Y-88900000D03*
X84700000Y-88900000D03*
D13*
X83775000Y-88900000D03*
X96625000Y-87100000D03*
D14*
X95700000Y-87100000D03*
X94900000Y-87100000D03*
D13*
X93975000Y-87100000D03*
X96625000Y-88900000D03*
D14*
X95700000Y-88900000D03*
X94900000Y-88900000D03*
D13*
X93975000Y-88900000D03*
D15*
X99550000Y-85300000D03*
X81250000Y-81500000D03*
X81300000Y-89300000D03*
X83799998Y-81500000D03*
X84682480Y-85930304D03*
X86350000Y-81500000D03*
X85500000Y-84500000D03*
X88900000Y-89299996D03*
X88900000Y-81500000D03*
X91450000Y-81550000D03*
X91450002Y-89300000D03*
X93900000Y-81500000D03*
X94900000Y-84584376D03*
X96500000Y-81450000D03*
X95700000Y-86049998D03*
X99050000Y-81500000D03*
X99050000Y-89299998D03*
D16*
X101600000Y-91440000D02*
X101600000Y-87350000D01*
X101600000Y-87350000D02*
X99550000Y-85300000D01*
X83775000Y-84025000D02*
X81250000Y-81500000D01*
X83775000Y-87100000D02*
X83775000Y-84025000D01*
X83775000Y-87100000D02*
X83775000Y-87275000D01*
X83775000Y-87275000D02*
X81750000Y-89300000D01*
X81750000Y-89300000D02*
X81749012Y-89300000D01*
X81749012Y-89300000D02*
X81300000Y-89300000D01*
X84700000Y-85947824D02*
X84682480Y-85930304D01*
X83799998Y-81500000D02*
X84682480Y-82382482D01*
X84682480Y-82382482D02*
X84682480Y-85481292D01*
X84700000Y-87100000D02*
X84700000Y-85947824D01*
X84682480Y-85481292D02*
X84682480Y-85930304D01*
X85500000Y-87100000D02*
X85500000Y-84500000D01*
X86350000Y-81500000D02*
X85500000Y-82350000D01*
X85500000Y-82350000D02*
X85500000Y-84050988D01*
X85500000Y-84050988D02*
X85500000Y-84500000D01*
X86425000Y-87100000D02*
X86425000Y-87275000D01*
X86425000Y-87275000D02*
X88449996Y-89299996D01*
X88449996Y-89299996D02*
X88450988Y-89299996D01*
X88450988Y-89299996D02*
X88900000Y-89299996D01*
X86425000Y-87100000D02*
X86425000Y-83975000D01*
X86425000Y-83975000D02*
X88582501Y-81817499D01*
X88582501Y-81817499D02*
X88900000Y-81500000D01*
X93975000Y-84075000D02*
X91450000Y-81550000D01*
X93975000Y-87100000D02*
X93975000Y-84075000D01*
X91950000Y-89300000D02*
X91899014Y-89300000D01*
X93975000Y-87100000D02*
X93975000Y-87275000D01*
X93975000Y-87275000D02*
X91950000Y-89300000D01*
X91899014Y-89300000D02*
X91450002Y-89300000D01*
X94900000Y-82500000D02*
X93900000Y-81500000D01*
X94900000Y-84584376D02*
X94900000Y-82500000D01*
X94900000Y-87100000D02*
X94900000Y-84584376D01*
X95700000Y-87100000D02*
X95700000Y-86049998D01*
X95700000Y-82250000D02*
X95700000Y-85600986D01*
X96500000Y-81450000D02*
X95700000Y-82250000D01*
X95700000Y-85600986D02*
X95700000Y-86049998D01*
X96625000Y-83925000D02*
X99050000Y-81500000D01*
X96625000Y-87100000D02*
X96625000Y-83925000D01*
X96625000Y-87100000D02*
X96625000Y-87275000D01*
X96625000Y-87275000D02*
X98649998Y-89299998D01*
X98649998Y-89299998D02*
X99050000Y-89299998D01*
X98990000Y-91440000D02*
X99060000Y-91440000D01*
X96625000Y-89075000D02*
X98990000Y-91440000D01*
X96625000Y-88900000D02*
X96625000Y-89075000D01*
X95700000Y-90620000D02*
X96520000Y-91440000D01*
X95700000Y-88900000D02*
X95700000Y-90620000D01*
X94900000Y-90520000D02*
X93980000Y-91440000D01*
X94900000Y-88900000D02*
X94900000Y-90520000D01*
X93975000Y-88905000D02*
X93975000Y-88900000D01*
X91440000Y-91440000D02*
X93975000Y-88905000D01*
X88790000Y-91440000D02*
X88900000Y-91440000D01*
X86425000Y-89075000D02*
X88790000Y-91440000D01*
X86425000Y-88900000D02*
X86425000Y-89075000D01*
X85500000Y-90580000D02*
X86360000Y-91440000D01*
X85500000Y-88900000D02*
X85500000Y-90580000D01*
X84700000Y-90560000D02*
X83820000Y-91440000D01*
X84700000Y-88900000D02*
X84700000Y-90560000D01*
X81410000Y-91440000D02*
X81280000Y-91440000D01*
X83775000Y-89075000D02*
X81410000Y-91440000D01*
X83775000Y-88900000D02*
X83775000Y-89075000D01*
M02*
