G04 (created by PCBNEW (2013-02-15 BZR 3956)-testing) date Sun 17 Feb 2013 03:26:27 PM CET*
%MOIN*%
G04 Gerber Fmt 3.4, Leading zero omitted, Abs format*
%FSLAX34Y34*%
G01*
G70*
G90*
G04 APERTURE LIST*
%ADD10C,0.006*%
%ADD11C,0.012*%
%ADD12C,0.0026*%
%ADD13C,0.004*%
%ADD14C,0.002*%
%ADD15C,0.0001*%
%ADD16R,0.0649606X0.0649606*%
%ADD17C,0.0649606*%
%ADD18R,0.0472X0.0472*%
G04 APERTURE END LIST*
G54D10*
G54D11*
X31500Y-36500D02*
X31500Y-35500D01*
X31500Y-35500D02*
X40500Y-35500D01*
X40500Y-35500D02*
X40500Y-36500D01*
X31500Y-36500D02*
X40500Y-36500D01*
X39500Y-36500D02*
X39500Y-35500D01*
G54D12*
X31882Y-34696D02*
X31754Y-34696D01*
X31754Y-34696D02*
X31754Y-34893D01*
X31882Y-34893D02*
X31754Y-34893D01*
X31882Y-34696D02*
X31882Y-34893D01*
X32127Y-34696D02*
X32068Y-34696D01*
X32068Y-34696D02*
X32068Y-34795D01*
X32127Y-34795D02*
X32068Y-34795D01*
X32127Y-34696D02*
X32127Y-34795D01*
X31932Y-34696D02*
X31873Y-34696D01*
X31873Y-34696D02*
X31873Y-34795D01*
X31932Y-34795D02*
X31873Y-34795D01*
X31932Y-34696D02*
X31932Y-34795D01*
X32078Y-34696D02*
X31922Y-34696D01*
X31922Y-34696D02*
X31922Y-34765D01*
X32078Y-34765D02*
X31922Y-34765D01*
X32078Y-34696D02*
X32078Y-34765D01*
X31882Y-34107D02*
X31754Y-34107D01*
X31754Y-34107D02*
X31754Y-34304D01*
X31882Y-34304D02*
X31754Y-34304D01*
X31882Y-34107D02*
X31882Y-34304D01*
X32246Y-34107D02*
X32118Y-34107D01*
X32118Y-34107D02*
X32118Y-34304D01*
X32246Y-34304D02*
X32118Y-34304D01*
X32246Y-34107D02*
X32246Y-34304D01*
X31932Y-34205D02*
X31873Y-34205D01*
X31873Y-34205D02*
X31873Y-34304D01*
X31932Y-34304D02*
X31873Y-34304D01*
X31932Y-34205D02*
X31932Y-34304D01*
X32127Y-34205D02*
X32068Y-34205D01*
X32068Y-34205D02*
X32068Y-34304D01*
X32127Y-34304D02*
X32068Y-34304D01*
X32127Y-34205D02*
X32127Y-34304D01*
X32078Y-34235D02*
X31922Y-34235D01*
X31922Y-34235D02*
X31922Y-34304D01*
X32078Y-34304D02*
X31922Y-34304D01*
X32078Y-34235D02*
X32078Y-34304D01*
X32039Y-34500D02*
X31961Y-34500D01*
X31961Y-34500D02*
X31961Y-34578D01*
X32039Y-34578D02*
X31961Y-34578D01*
X32039Y-34500D02*
X32039Y-34578D01*
X32236Y-34696D02*
X32118Y-34696D01*
X32118Y-34696D02*
X32118Y-34814D01*
X32236Y-34814D02*
X32118Y-34814D01*
X32236Y-34696D02*
X32236Y-34814D01*
X32246Y-34864D02*
X32157Y-34864D01*
X32157Y-34864D02*
X32157Y-34893D01*
X32246Y-34893D02*
X32157Y-34893D01*
X32246Y-34864D02*
X32246Y-34893D01*
G54D13*
X31774Y-34706D02*
X31774Y-34294D01*
X32226Y-34304D02*
X32226Y-34864D01*
G54D14*
X32205Y-34834D02*
G75*
G03X32205Y-34834I-28J0D01*
G74*
G01*
G54D13*
X32137Y-34893D02*
G75*
G03X31863Y-34893I-137J0D01*
G74*
G01*
X31863Y-34107D02*
G75*
G03X32137Y-34107I137J0D01*
G74*
G01*
G54D12*
X37882Y-34696D02*
X37754Y-34696D01*
X37754Y-34696D02*
X37754Y-34893D01*
X37882Y-34893D02*
X37754Y-34893D01*
X37882Y-34696D02*
X37882Y-34893D01*
X38127Y-34696D02*
X38068Y-34696D01*
X38068Y-34696D02*
X38068Y-34795D01*
X38127Y-34795D02*
X38068Y-34795D01*
X38127Y-34696D02*
X38127Y-34795D01*
X37932Y-34696D02*
X37873Y-34696D01*
X37873Y-34696D02*
X37873Y-34795D01*
X37932Y-34795D02*
X37873Y-34795D01*
X37932Y-34696D02*
X37932Y-34795D01*
X38078Y-34696D02*
X37922Y-34696D01*
X37922Y-34696D02*
X37922Y-34765D01*
X38078Y-34765D02*
X37922Y-34765D01*
X38078Y-34696D02*
X38078Y-34765D01*
X37882Y-34107D02*
X37754Y-34107D01*
X37754Y-34107D02*
X37754Y-34304D01*
X37882Y-34304D02*
X37754Y-34304D01*
X37882Y-34107D02*
X37882Y-34304D01*
X38246Y-34107D02*
X38118Y-34107D01*
X38118Y-34107D02*
X38118Y-34304D01*
X38246Y-34304D02*
X38118Y-34304D01*
X38246Y-34107D02*
X38246Y-34304D01*
X37932Y-34205D02*
X37873Y-34205D01*
X37873Y-34205D02*
X37873Y-34304D01*
X37932Y-34304D02*
X37873Y-34304D01*
X37932Y-34205D02*
X37932Y-34304D01*
X38127Y-34205D02*
X38068Y-34205D01*
X38068Y-34205D02*
X38068Y-34304D01*
X38127Y-34304D02*
X38068Y-34304D01*
X38127Y-34205D02*
X38127Y-34304D01*
X38078Y-34235D02*
X37922Y-34235D01*
X37922Y-34235D02*
X37922Y-34304D01*
X38078Y-34304D02*
X37922Y-34304D01*
X38078Y-34235D02*
X38078Y-34304D01*
X38039Y-34500D02*
X37961Y-34500D01*
X37961Y-34500D02*
X37961Y-34578D01*
X38039Y-34578D02*
X37961Y-34578D01*
X38039Y-34500D02*
X38039Y-34578D01*
X38236Y-34696D02*
X38118Y-34696D01*
X38118Y-34696D02*
X38118Y-34814D01*
X38236Y-34814D02*
X38118Y-34814D01*
X38236Y-34696D02*
X38236Y-34814D01*
X38246Y-34864D02*
X38157Y-34864D01*
X38157Y-34864D02*
X38157Y-34893D01*
X38246Y-34893D02*
X38157Y-34893D01*
X38246Y-34864D02*
X38246Y-34893D01*
G54D13*
X37774Y-34706D02*
X37774Y-34294D01*
X38226Y-34304D02*
X38226Y-34864D01*
G54D14*
X38205Y-34834D02*
G75*
G03X38205Y-34834I-28J0D01*
G74*
G01*
G54D13*
X38137Y-34893D02*
G75*
G03X37863Y-34893I-137J0D01*
G74*
G01*
X37863Y-34107D02*
G75*
G03X38137Y-34107I137J0D01*
G74*
G01*
G54D12*
X32882Y-34696D02*
X32754Y-34696D01*
X32754Y-34696D02*
X32754Y-34893D01*
X32882Y-34893D02*
X32754Y-34893D01*
X32882Y-34696D02*
X32882Y-34893D01*
X33127Y-34696D02*
X33068Y-34696D01*
X33068Y-34696D02*
X33068Y-34795D01*
X33127Y-34795D02*
X33068Y-34795D01*
X33127Y-34696D02*
X33127Y-34795D01*
X32932Y-34696D02*
X32873Y-34696D01*
X32873Y-34696D02*
X32873Y-34795D01*
X32932Y-34795D02*
X32873Y-34795D01*
X32932Y-34696D02*
X32932Y-34795D01*
X33078Y-34696D02*
X32922Y-34696D01*
X32922Y-34696D02*
X32922Y-34765D01*
X33078Y-34765D02*
X32922Y-34765D01*
X33078Y-34696D02*
X33078Y-34765D01*
X32882Y-34107D02*
X32754Y-34107D01*
X32754Y-34107D02*
X32754Y-34304D01*
X32882Y-34304D02*
X32754Y-34304D01*
X32882Y-34107D02*
X32882Y-34304D01*
X33246Y-34107D02*
X33118Y-34107D01*
X33118Y-34107D02*
X33118Y-34304D01*
X33246Y-34304D02*
X33118Y-34304D01*
X33246Y-34107D02*
X33246Y-34304D01*
X32932Y-34205D02*
X32873Y-34205D01*
X32873Y-34205D02*
X32873Y-34304D01*
X32932Y-34304D02*
X32873Y-34304D01*
X32932Y-34205D02*
X32932Y-34304D01*
X33127Y-34205D02*
X33068Y-34205D01*
X33068Y-34205D02*
X33068Y-34304D01*
X33127Y-34304D02*
X33068Y-34304D01*
X33127Y-34205D02*
X33127Y-34304D01*
X33078Y-34235D02*
X32922Y-34235D01*
X32922Y-34235D02*
X32922Y-34304D01*
X33078Y-34304D02*
X32922Y-34304D01*
X33078Y-34235D02*
X33078Y-34304D01*
X33039Y-34500D02*
X32961Y-34500D01*
X32961Y-34500D02*
X32961Y-34578D01*
X33039Y-34578D02*
X32961Y-34578D01*
X33039Y-34500D02*
X33039Y-34578D01*
X33236Y-34696D02*
X33118Y-34696D01*
X33118Y-34696D02*
X33118Y-34814D01*
X33236Y-34814D02*
X33118Y-34814D01*
X33236Y-34696D02*
X33236Y-34814D01*
X33246Y-34864D02*
X33157Y-34864D01*
X33157Y-34864D02*
X33157Y-34893D01*
X33246Y-34893D02*
X33157Y-34893D01*
X33246Y-34864D02*
X33246Y-34893D01*
G54D13*
X32774Y-34706D02*
X32774Y-34294D01*
X33226Y-34304D02*
X33226Y-34864D01*
G54D14*
X33205Y-34834D02*
G75*
G03X33205Y-34834I-28J0D01*
G74*
G01*
G54D13*
X33137Y-34893D02*
G75*
G03X32863Y-34893I-137J0D01*
G74*
G01*
X32863Y-34107D02*
G75*
G03X33137Y-34107I137J0D01*
G74*
G01*
G54D12*
X33882Y-34696D02*
X33754Y-34696D01*
X33754Y-34696D02*
X33754Y-34893D01*
X33882Y-34893D02*
X33754Y-34893D01*
X33882Y-34696D02*
X33882Y-34893D01*
X34127Y-34696D02*
X34068Y-34696D01*
X34068Y-34696D02*
X34068Y-34795D01*
X34127Y-34795D02*
X34068Y-34795D01*
X34127Y-34696D02*
X34127Y-34795D01*
X33932Y-34696D02*
X33873Y-34696D01*
X33873Y-34696D02*
X33873Y-34795D01*
X33932Y-34795D02*
X33873Y-34795D01*
X33932Y-34696D02*
X33932Y-34795D01*
X34078Y-34696D02*
X33922Y-34696D01*
X33922Y-34696D02*
X33922Y-34765D01*
X34078Y-34765D02*
X33922Y-34765D01*
X34078Y-34696D02*
X34078Y-34765D01*
X33882Y-34107D02*
X33754Y-34107D01*
X33754Y-34107D02*
X33754Y-34304D01*
X33882Y-34304D02*
X33754Y-34304D01*
X33882Y-34107D02*
X33882Y-34304D01*
X34246Y-34107D02*
X34118Y-34107D01*
X34118Y-34107D02*
X34118Y-34304D01*
X34246Y-34304D02*
X34118Y-34304D01*
X34246Y-34107D02*
X34246Y-34304D01*
X33932Y-34205D02*
X33873Y-34205D01*
X33873Y-34205D02*
X33873Y-34304D01*
X33932Y-34304D02*
X33873Y-34304D01*
X33932Y-34205D02*
X33932Y-34304D01*
X34127Y-34205D02*
X34068Y-34205D01*
X34068Y-34205D02*
X34068Y-34304D01*
X34127Y-34304D02*
X34068Y-34304D01*
X34127Y-34205D02*
X34127Y-34304D01*
X34078Y-34235D02*
X33922Y-34235D01*
X33922Y-34235D02*
X33922Y-34304D01*
X34078Y-34304D02*
X33922Y-34304D01*
X34078Y-34235D02*
X34078Y-34304D01*
X34039Y-34500D02*
X33961Y-34500D01*
X33961Y-34500D02*
X33961Y-34578D01*
X34039Y-34578D02*
X33961Y-34578D01*
X34039Y-34500D02*
X34039Y-34578D01*
X34236Y-34696D02*
X34118Y-34696D01*
X34118Y-34696D02*
X34118Y-34814D01*
X34236Y-34814D02*
X34118Y-34814D01*
X34236Y-34696D02*
X34236Y-34814D01*
X34246Y-34864D02*
X34157Y-34864D01*
X34157Y-34864D02*
X34157Y-34893D01*
X34246Y-34893D02*
X34157Y-34893D01*
X34246Y-34864D02*
X34246Y-34893D01*
G54D13*
X33774Y-34706D02*
X33774Y-34294D01*
X34226Y-34304D02*
X34226Y-34864D01*
G54D14*
X34205Y-34834D02*
G75*
G03X34205Y-34834I-28J0D01*
G74*
G01*
G54D13*
X34137Y-34893D02*
G75*
G03X33863Y-34893I-137J0D01*
G74*
G01*
X33863Y-34107D02*
G75*
G03X34137Y-34107I137J0D01*
G74*
G01*
G54D12*
X34882Y-34696D02*
X34754Y-34696D01*
X34754Y-34696D02*
X34754Y-34893D01*
X34882Y-34893D02*
X34754Y-34893D01*
X34882Y-34696D02*
X34882Y-34893D01*
X35127Y-34696D02*
X35068Y-34696D01*
X35068Y-34696D02*
X35068Y-34795D01*
X35127Y-34795D02*
X35068Y-34795D01*
X35127Y-34696D02*
X35127Y-34795D01*
X34932Y-34696D02*
X34873Y-34696D01*
X34873Y-34696D02*
X34873Y-34795D01*
X34932Y-34795D02*
X34873Y-34795D01*
X34932Y-34696D02*
X34932Y-34795D01*
X35078Y-34696D02*
X34922Y-34696D01*
X34922Y-34696D02*
X34922Y-34765D01*
X35078Y-34765D02*
X34922Y-34765D01*
X35078Y-34696D02*
X35078Y-34765D01*
X34882Y-34107D02*
X34754Y-34107D01*
X34754Y-34107D02*
X34754Y-34304D01*
X34882Y-34304D02*
X34754Y-34304D01*
X34882Y-34107D02*
X34882Y-34304D01*
X35246Y-34107D02*
X35118Y-34107D01*
X35118Y-34107D02*
X35118Y-34304D01*
X35246Y-34304D02*
X35118Y-34304D01*
X35246Y-34107D02*
X35246Y-34304D01*
X34932Y-34205D02*
X34873Y-34205D01*
X34873Y-34205D02*
X34873Y-34304D01*
X34932Y-34304D02*
X34873Y-34304D01*
X34932Y-34205D02*
X34932Y-34304D01*
X35127Y-34205D02*
X35068Y-34205D01*
X35068Y-34205D02*
X35068Y-34304D01*
X35127Y-34304D02*
X35068Y-34304D01*
X35127Y-34205D02*
X35127Y-34304D01*
X35078Y-34235D02*
X34922Y-34235D01*
X34922Y-34235D02*
X34922Y-34304D01*
X35078Y-34304D02*
X34922Y-34304D01*
X35078Y-34235D02*
X35078Y-34304D01*
X35039Y-34500D02*
X34961Y-34500D01*
X34961Y-34500D02*
X34961Y-34578D01*
X35039Y-34578D02*
X34961Y-34578D01*
X35039Y-34500D02*
X35039Y-34578D01*
X35236Y-34696D02*
X35118Y-34696D01*
X35118Y-34696D02*
X35118Y-34814D01*
X35236Y-34814D02*
X35118Y-34814D01*
X35236Y-34696D02*
X35236Y-34814D01*
X35246Y-34864D02*
X35157Y-34864D01*
X35157Y-34864D02*
X35157Y-34893D01*
X35246Y-34893D02*
X35157Y-34893D01*
X35246Y-34864D02*
X35246Y-34893D01*
G54D13*
X34774Y-34706D02*
X34774Y-34294D01*
X35226Y-34304D02*
X35226Y-34864D01*
G54D14*
X35205Y-34834D02*
G75*
G03X35205Y-34834I-28J0D01*
G74*
G01*
G54D13*
X35137Y-34893D02*
G75*
G03X34863Y-34893I-137J0D01*
G74*
G01*
X34863Y-34107D02*
G75*
G03X35137Y-34107I137J0D01*
G74*
G01*
G54D12*
X35882Y-34696D02*
X35754Y-34696D01*
X35754Y-34696D02*
X35754Y-34893D01*
X35882Y-34893D02*
X35754Y-34893D01*
X35882Y-34696D02*
X35882Y-34893D01*
X36127Y-34696D02*
X36068Y-34696D01*
X36068Y-34696D02*
X36068Y-34795D01*
X36127Y-34795D02*
X36068Y-34795D01*
X36127Y-34696D02*
X36127Y-34795D01*
X35932Y-34696D02*
X35873Y-34696D01*
X35873Y-34696D02*
X35873Y-34795D01*
X35932Y-34795D02*
X35873Y-34795D01*
X35932Y-34696D02*
X35932Y-34795D01*
X36078Y-34696D02*
X35922Y-34696D01*
X35922Y-34696D02*
X35922Y-34765D01*
X36078Y-34765D02*
X35922Y-34765D01*
X36078Y-34696D02*
X36078Y-34765D01*
X35882Y-34107D02*
X35754Y-34107D01*
X35754Y-34107D02*
X35754Y-34304D01*
X35882Y-34304D02*
X35754Y-34304D01*
X35882Y-34107D02*
X35882Y-34304D01*
X36246Y-34107D02*
X36118Y-34107D01*
X36118Y-34107D02*
X36118Y-34304D01*
X36246Y-34304D02*
X36118Y-34304D01*
X36246Y-34107D02*
X36246Y-34304D01*
X35932Y-34205D02*
X35873Y-34205D01*
X35873Y-34205D02*
X35873Y-34304D01*
X35932Y-34304D02*
X35873Y-34304D01*
X35932Y-34205D02*
X35932Y-34304D01*
X36127Y-34205D02*
X36068Y-34205D01*
X36068Y-34205D02*
X36068Y-34304D01*
X36127Y-34304D02*
X36068Y-34304D01*
X36127Y-34205D02*
X36127Y-34304D01*
X36078Y-34235D02*
X35922Y-34235D01*
X35922Y-34235D02*
X35922Y-34304D01*
X36078Y-34304D02*
X35922Y-34304D01*
X36078Y-34235D02*
X36078Y-34304D01*
X36039Y-34500D02*
X35961Y-34500D01*
X35961Y-34500D02*
X35961Y-34578D01*
X36039Y-34578D02*
X35961Y-34578D01*
X36039Y-34500D02*
X36039Y-34578D01*
X36236Y-34696D02*
X36118Y-34696D01*
X36118Y-34696D02*
X36118Y-34814D01*
X36236Y-34814D02*
X36118Y-34814D01*
X36236Y-34696D02*
X36236Y-34814D01*
X36246Y-34864D02*
X36157Y-34864D01*
X36157Y-34864D02*
X36157Y-34893D01*
X36246Y-34893D02*
X36157Y-34893D01*
X36246Y-34864D02*
X36246Y-34893D01*
G54D13*
X35774Y-34706D02*
X35774Y-34294D01*
X36226Y-34304D02*
X36226Y-34864D01*
G54D14*
X36205Y-34834D02*
G75*
G03X36205Y-34834I-28J0D01*
G74*
G01*
G54D13*
X36137Y-34893D02*
G75*
G03X35863Y-34893I-137J0D01*
G74*
G01*
X35863Y-34107D02*
G75*
G03X36137Y-34107I137J0D01*
G74*
G01*
G54D12*
X36882Y-34696D02*
X36754Y-34696D01*
X36754Y-34696D02*
X36754Y-34893D01*
X36882Y-34893D02*
X36754Y-34893D01*
X36882Y-34696D02*
X36882Y-34893D01*
X37127Y-34696D02*
X37068Y-34696D01*
X37068Y-34696D02*
X37068Y-34795D01*
X37127Y-34795D02*
X37068Y-34795D01*
X37127Y-34696D02*
X37127Y-34795D01*
X36932Y-34696D02*
X36873Y-34696D01*
X36873Y-34696D02*
X36873Y-34795D01*
X36932Y-34795D02*
X36873Y-34795D01*
X36932Y-34696D02*
X36932Y-34795D01*
X37078Y-34696D02*
X36922Y-34696D01*
X36922Y-34696D02*
X36922Y-34765D01*
X37078Y-34765D02*
X36922Y-34765D01*
X37078Y-34696D02*
X37078Y-34765D01*
X36882Y-34107D02*
X36754Y-34107D01*
X36754Y-34107D02*
X36754Y-34304D01*
X36882Y-34304D02*
X36754Y-34304D01*
X36882Y-34107D02*
X36882Y-34304D01*
X37246Y-34107D02*
X37118Y-34107D01*
X37118Y-34107D02*
X37118Y-34304D01*
X37246Y-34304D02*
X37118Y-34304D01*
X37246Y-34107D02*
X37246Y-34304D01*
X36932Y-34205D02*
X36873Y-34205D01*
X36873Y-34205D02*
X36873Y-34304D01*
X36932Y-34304D02*
X36873Y-34304D01*
X36932Y-34205D02*
X36932Y-34304D01*
X37127Y-34205D02*
X37068Y-34205D01*
X37068Y-34205D02*
X37068Y-34304D01*
X37127Y-34304D02*
X37068Y-34304D01*
X37127Y-34205D02*
X37127Y-34304D01*
X37078Y-34235D02*
X36922Y-34235D01*
X36922Y-34235D02*
X36922Y-34304D01*
X37078Y-34304D02*
X36922Y-34304D01*
X37078Y-34235D02*
X37078Y-34304D01*
X37039Y-34500D02*
X36961Y-34500D01*
X36961Y-34500D02*
X36961Y-34578D01*
X37039Y-34578D02*
X36961Y-34578D01*
X37039Y-34500D02*
X37039Y-34578D01*
X37236Y-34696D02*
X37118Y-34696D01*
X37118Y-34696D02*
X37118Y-34814D01*
X37236Y-34814D02*
X37118Y-34814D01*
X37236Y-34696D02*
X37236Y-34814D01*
X37246Y-34864D02*
X37157Y-34864D01*
X37157Y-34864D02*
X37157Y-34893D01*
X37246Y-34893D02*
X37157Y-34893D01*
X37246Y-34864D02*
X37246Y-34893D01*
G54D13*
X36774Y-34706D02*
X36774Y-34294D01*
X37226Y-34304D02*
X37226Y-34864D01*
G54D14*
X37205Y-34834D02*
G75*
G03X37205Y-34834I-28J0D01*
G74*
G01*
G54D13*
X37137Y-34893D02*
G75*
G03X36863Y-34893I-137J0D01*
G74*
G01*
X36863Y-34107D02*
G75*
G03X37137Y-34107I137J0D01*
G74*
G01*
G54D12*
X38882Y-34696D02*
X38754Y-34696D01*
X38754Y-34696D02*
X38754Y-34893D01*
X38882Y-34893D02*
X38754Y-34893D01*
X38882Y-34696D02*
X38882Y-34893D01*
X39127Y-34696D02*
X39068Y-34696D01*
X39068Y-34696D02*
X39068Y-34795D01*
X39127Y-34795D02*
X39068Y-34795D01*
X39127Y-34696D02*
X39127Y-34795D01*
X38932Y-34696D02*
X38873Y-34696D01*
X38873Y-34696D02*
X38873Y-34795D01*
X38932Y-34795D02*
X38873Y-34795D01*
X38932Y-34696D02*
X38932Y-34795D01*
X39078Y-34696D02*
X38922Y-34696D01*
X38922Y-34696D02*
X38922Y-34765D01*
X39078Y-34765D02*
X38922Y-34765D01*
X39078Y-34696D02*
X39078Y-34765D01*
X38882Y-34107D02*
X38754Y-34107D01*
X38754Y-34107D02*
X38754Y-34304D01*
X38882Y-34304D02*
X38754Y-34304D01*
X38882Y-34107D02*
X38882Y-34304D01*
X39246Y-34107D02*
X39118Y-34107D01*
X39118Y-34107D02*
X39118Y-34304D01*
X39246Y-34304D02*
X39118Y-34304D01*
X39246Y-34107D02*
X39246Y-34304D01*
X38932Y-34205D02*
X38873Y-34205D01*
X38873Y-34205D02*
X38873Y-34304D01*
X38932Y-34304D02*
X38873Y-34304D01*
X38932Y-34205D02*
X38932Y-34304D01*
X39127Y-34205D02*
X39068Y-34205D01*
X39068Y-34205D02*
X39068Y-34304D01*
X39127Y-34304D02*
X39068Y-34304D01*
X39127Y-34205D02*
X39127Y-34304D01*
X39078Y-34235D02*
X38922Y-34235D01*
X38922Y-34235D02*
X38922Y-34304D01*
X39078Y-34304D02*
X38922Y-34304D01*
X39078Y-34235D02*
X39078Y-34304D01*
X39039Y-34500D02*
X38961Y-34500D01*
X38961Y-34500D02*
X38961Y-34578D01*
X39039Y-34578D02*
X38961Y-34578D01*
X39039Y-34500D02*
X39039Y-34578D01*
X39236Y-34696D02*
X39118Y-34696D01*
X39118Y-34696D02*
X39118Y-34814D01*
X39236Y-34814D02*
X39118Y-34814D01*
X39236Y-34696D02*
X39236Y-34814D01*
X39246Y-34864D02*
X39157Y-34864D01*
X39157Y-34864D02*
X39157Y-34893D01*
X39246Y-34893D02*
X39157Y-34893D01*
X39246Y-34864D02*
X39246Y-34893D01*
G54D13*
X38774Y-34706D02*
X38774Y-34294D01*
X39226Y-34304D02*
X39226Y-34864D01*
G54D14*
X39205Y-34834D02*
G75*
G03X39205Y-34834I-28J0D01*
G74*
G01*
G54D13*
X39137Y-34893D02*
G75*
G03X38863Y-34893I-137J0D01*
G74*
G01*
X38863Y-34107D02*
G75*
G03X39137Y-34107I137J0D01*
G74*
G01*
G54D12*
X31882Y-32946D02*
X31754Y-32946D01*
X31754Y-32946D02*
X31754Y-33143D01*
X31882Y-33143D02*
X31754Y-33143D01*
X31882Y-32946D02*
X31882Y-33143D01*
X32127Y-32946D02*
X32068Y-32946D01*
X32068Y-32946D02*
X32068Y-33045D01*
X32127Y-33045D02*
X32068Y-33045D01*
X32127Y-32946D02*
X32127Y-33045D01*
X31932Y-32946D02*
X31873Y-32946D01*
X31873Y-32946D02*
X31873Y-33045D01*
X31932Y-33045D02*
X31873Y-33045D01*
X31932Y-32946D02*
X31932Y-33045D01*
X32078Y-32946D02*
X31922Y-32946D01*
X31922Y-32946D02*
X31922Y-33015D01*
X32078Y-33015D02*
X31922Y-33015D01*
X32078Y-32946D02*
X32078Y-33015D01*
X31882Y-32357D02*
X31754Y-32357D01*
X31754Y-32357D02*
X31754Y-32554D01*
X31882Y-32554D02*
X31754Y-32554D01*
X31882Y-32357D02*
X31882Y-32554D01*
X32246Y-32357D02*
X32118Y-32357D01*
X32118Y-32357D02*
X32118Y-32554D01*
X32246Y-32554D02*
X32118Y-32554D01*
X32246Y-32357D02*
X32246Y-32554D01*
X31932Y-32455D02*
X31873Y-32455D01*
X31873Y-32455D02*
X31873Y-32554D01*
X31932Y-32554D02*
X31873Y-32554D01*
X31932Y-32455D02*
X31932Y-32554D01*
X32127Y-32455D02*
X32068Y-32455D01*
X32068Y-32455D02*
X32068Y-32554D01*
X32127Y-32554D02*
X32068Y-32554D01*
X32127Y-32455D02*
X32127Y-32554D01*
X32078Y-32485D02*
X31922Y-32485D01*
X31922Y-32485D02*
X31922Y-32554D01*
X32078Y-32554D02*
X31922Y-32554D01*
X32078Y-32485D02*
X32078Y-32554D01*
X32039Y-32750D02*
X31961Y-32750D01*
X31961Y-32750D02*
X31961Y-32828D01*
X32039Y-32828D02*
X31961Y-32828D01*
X32039Y-32750D02*
X32039Y-32828D01*
X32236Y-32946D02*
X32118Y-32946D01*
X32118Y-32946D02*
X32118Y-33064D01*
X32236Y-33064D02*
X32118Y-33064D01*
X32236Y-32946D02*
X32236Y-33064D01*
X32246Y-33114D02*
X32157Y-33114D01*
X32157Y-33114D02*
X32157Y-33143D01*
X32246Y-33143D02*
X32157Y-33143D01*
X32246Y-33114D02*
X32246Y-33143D01*
G54D13*
X31774Y-32956D02*
X31774Y-32544D01*
X32226Y-32554D02*
X32226Y-33114D01*
G54D14*
X32205Y-33084D02*
G75*
G03X32205Y-33084I-28J0D01*
G74*
G01*
G54D13*
X32137Y-33143D02*
G75*
G03X31863Y-33143I-137J0D01*
G74*
G01*
X31863Y-32357D02*
G75*
G03X32137Y-32357I137J0D01*
G74*
G01*
G54D12*
X32882Y-32946D02*
X32754Y-32946D01*
X32754Y-32946D02*
X32754Y-33143D01*
X32882Y-33143D02*
X32754Y-33143D01*
X32882Y-32946D02*
X32882Y-33143D01*
X33127Y-32946D02*
X33068Y-32946D01*
X33068Y-32946D02*
X33068Y-33045D01*
X33127Y-33045D02*
X33068Y-33045D01*
X33127Y-32946D02*
X33127Y-33045D01*
X32932Y-32946D02*
X32873Y-32946D01*
X32873Y-32946D02*
X32873Y-33045D01*
X32932Y-33045D02*
X32873Y-33045D01*
X32932Y-32946D02*
X32932Y-33045D01*
X33078Y-32946D02*
X32922Y-32946D01*
X32922Y-32946D02*
X32922Y-33015D01*
X33078Y-33015D02*
X32922Y-33015D01*
X33078Y-32946D02*
X33078Y-33015D01*
X32882Y-32357D02*
X32754Y-32357D01*
X32754Y-32357D02*
X32754Y-32554D01*
X32882Y-32554D02*
X32754Y-32554D01*
X32882Y-32357D02*
X32882Y-32554D01*
X33246Y-32357D02*
X33118Y-32357D01*
X33118Y-32357D02*
X33118Y-32554D01*
X33246Y-32554D02*
X33118Y-32554D01*
X33246Y-32357D02*
X33246Y-32554D01*
X32932Y-32455D02*
X32873Y-32455D01*
X32873Y-32455D02*
X32873Y-32554D01*
X32932Y-32554D02*
X32873Y-32554D01*
X32932Y-32455D02*
X32932Y-32554D01*
X33127Y-32455D02*
X33068Y-32455D01*
X33068Y-32455D02*
X33068Y-32554D01*
X33127Y-32554D02*
X33068Y-32554D01*
X33127Y-32455D02*
X33127Y-32554D01*
X33078Y-32485D02*
X32922Y-32485D01*
X32922Y-32485D02*
X32922Y-32554D01*
X33078Y-32554D02*
X32922Y-32554D01*
X33078Y-32485D02*
X33078Y-32554D01*
X33039Y-32750D02*
X32961Y-32750D01*
X32961Y-32750D02*
X32961Y-32828D01*
X33039Y-32828D02*
X32961Y-32828D01*
X33039Y-32750D02*
X33039Y-32828D01*
X33236Y-32946D02*
X33118Y-32946D01*
X33118Y-32946D02*
X33118Y-33064D01*
X33236Y-33064D02*
X33118Y-33064D01*
X33236Y-32946D02*
X33236Y-33064D01*
X33246Y-33114D02*
X33157Y-33114D01*
X33157Y-33114D02*
X33157Y-33143D01*
X33246Y-33143D02*
X33157Y-33143D01*
X33246Y-33114D02*
X33246Y-33143D01*
G54D13*
X32774Y-32956D02*
X32774Y-32544D01*
X33226Y-32554D02*
X33226Y-33114D01*
G54D14*
X33205Y-33084D02*
G75*
G03X33205Y-33084I-28J0D01*
G74*
G01*
G54D13*
X33137Y-33143D02*
G75*
G03X32863Y-33143I-137J0D01*
G74*
G01*
X32863Y-32357D02*
G75*
G03X33137Y-32357I137J0D01*
G74*
G01*
G54D12*
X33882Y-32946D02*
X33754Y-32946D01*
X33754Y-32946D02*
X33754Y-33143D01*
X33882Y-33143D02*
X33754Y-33143D01*
X33882Y-32946D02*
X33882Y-33143D01*
X34127Y-32946D02*
X34068Y-32946D01*
X34068Y-32946D02*
X34068Y-33045D01*
X34127Y-33045D02*
X34068Y-33045D01*
X34127Y-32946D02*
X34127Y-33045D01*
X33932Y-32946D02*
X33873Y-32946D01*
X33873Y-32946D02*
X33873Y-33045D01*
X33932Y-33045D02*
X33873Y-33045D01*
X33932Y-32946D02*
X33932Y-33045D01*
X34078Y-32946D02*
X33922Y-32946D01*
X33922Y-32946D02*
X33922Y-33015D01*
X34078Y-33015D02*
X33922Y-33015D01*
X34078Y-32946D02*
X34078Y-33015D01*
X33882Y-32357D02*
X33754Y-32357D01*
X33754Y-32357D02*
X33754Y-32554D01*
X33882Y-32554D02*
X33754Y-32554D01*
X33882Y-32357D02*
X33882Y-32554D01*
X34246Y-32357D02*
X34118Y-32357D01*
X34118Y-32357D02*
X34118Y-32554D01*
X34246Y-32554D02*
X34118Y-32554D01*
X34246Y-32357D02*
X34246Y-32554D01*
X33932Y-32455D02*
X33873Y-32455D01*
X33873Y-32455D02*
X33873Y-32554D01*
X33932Y-32554D02*
X33873Y-32554D01*
X33932Y-32455D02*
X33932Y-32554D01*
X34127Y-32455D02*
X34068Y-32455D01*
X34068Y-32455D02*
X34068Y-32554D01*
X34127Y-32554D02*
X34068Y-32554D01*
X34127Y-32455D02*
X34127Y-32554D01*
X34078Y-32485D02*
X33922Y-32485D01*
X33922Y-32485D02*
X33922Y-32554D01*
X34078Y-32554D02*
X33922Y-32554D01*
X34078Y-32485D02*
X34078Y-32554D01*
X34039Y-32750D02*
X33961Y-32750D01*
X33961Y-32750D02*
X33961Y-32828D01*
X34039Y-32828D02*
X33961Y-32828D01*
X34039Y-32750D02*
X34039Y-32828D01*
X34236Y-32946D02*
X34118Y-32946D01*
X34118Y-32946D02*
X34118Y-33064D01*
X34236Y-33064D02*
X34118Y-33064D01*
X34236Y-32946D02*
X34236Y-33064D01*
X34246Y-33114D02*
X34157Y-33114D01*
X34157Y-33114D02*
X34157Y-33143D01*
X34246Y-33143D02*
X34157Y-33143D01*
X34246Y-33114D02*
X34246Y-33143D01*
G54D13*
X33774Y-32956D02*
X33774Y-32544D01*
X34226Y-32554D02*
X34226Y-33114D01*
G54D14*
X34205Y-33084D02*
G75*
G03X34205Y-33084I-28J0D01*
G74*
G01*
G54D13*
X34137Y-33143D02*
G75*
G03X33863Y-33143I-137J0D01*
G74*
G01*
X33863Y-32357D02*
G75*
G03X34137Y-32357I137J0D01*
G74*
G01*
G54D12*
X34882Y-32946D02*
X34754Y-32946D01*
X34754Y-32946D02*
X34754Y-33143D01*
X34882Y-33143D02*
X34754Y-33143D01*
X34882Y-32946D02*
X34882Y-33143D01*
X35127Y-32946D02*
X35068Y-32946D01*
X35068Y-32946D02*
X35068Y-33045D01*
X35127Y-33045D02*
X35068Y-33045D01*
X35127Y-32946D02*
X35127Y-33045D01*
X34932Y-32946D02*
X34873Y-32946D01*
X34873Y-32946D02*
X34873Y-33045D01*
X34932Y-33045D02*
X34873Y-33045D01*
X34932Y-32946D02*
X34932Y-33045D01*
X35078Y-32946D02*
X34922Y-32946D01*
X34922Y-32946D02*
X34922Y-33015D01*
X35078Y-33015D02*
X34922Y-33015D01*
X35078Y-32946D02*
X35078Y-33015D01*
X34882Y-32357D02*
X34754Y-32357D01*
X34754Y-32357D02*
X34754Y-32554D01*
X34882Y-32554D02*
X34754Y-32554D01*
X34882Y-32357D02*
X34882Y-32554D01*
X35246Y-32357D02*
X35118Y-32357D01*
X35118Y-32357D02*
X35118Y-32554D01*
X35246Y-32554D02*
X35118Y-32554D01*
X35246Y-32357D02*
X35246Y-32554D01*
X34932Y-32455D02*
X34873Y-32455D01*
X34873Y-32455D02*
X34873Y-32554D01*
X34932Y-32554D02*
X34873Y-32554D01*
X34932Y-32455D02*
X34932Y-32554D01*
X35127Y-32455D02*
X35068Y-32455D01*
X35068Y-32455D02*
X35068Y-32554D01*
X35127Y-32554D02*
X35068Y-32554D01*
X35127Y-32455D02*
X35127Y-32554D01*
X35078Y-32485D02*
X34922Y-32485D01*
X34922Y-32485D02*
X34922Y-32554D01*
X35078Y-32554D02*
X34922Y-32554D01*
X35078Y-32485D02*
X35078Y-32554D01*
X35039Y-32750D02*
X34961Y-32750D01*
X34961Y-32750D02*
X34961Y-32828D01*
X35039Y-32828D02*
X34961Y-32828D01*
X35039Y-32750D02*
X35039Y-32828D01*
X35236Y-32946D02*
X35118Y-32946D01*
X35118Y-32946D02*
X35118Y-33064D01*
X35236Y-33064D02*
X35118Y-33064D01*
X35236Y-32946D02*
X35236Y-33064D01*
X35246Y-33114D02*
X35157Y-33114D01*
X35157Y-33114D02*
X35157Y-33143D01*
X35246Y-33143D02*
X35157Y-33143D01*
X35246Y-33114D02*
X35246Y-33143D01*
G54D13*
X34774Y-32956D02*
X34774Y-32544D01*
X35226Y-32554D02*
X35226Y-33114D01*
G54D14*
X35205Y-33084D02*
G75*
G03X35205Y-33084I-28J0D01*
G74*
G01*
G54D13*
X35137Y-33143D02*
G75*
G03X34863Y-33143I-137J0D01*
G74*
G01*
X34863Y-32357D02*
G75*
G03X35137Y-32357I137J0D01*
G74*
G01*
G54D12*
X35882Y-32946D02*
X35754Y-32946D01*
X35754Y-32946D02*
X35754Y-33143D01*
X35882Y-33143D02*
X35754Y-33143D01*
X35882Y-32946D02*
X35882Y-33143D01*
X36127Y-32946D02*
X36068Y-32946D01*
X36068Y-32946D02*
X36068Y-33045D01*
X36127Y-33045D02*
X36068Y-33045D01*
X36127Y-32946D02*
X36127Y-33045D01*
X35932Y-32946D02*
X35873Y-32946D01*
X35873Y-32946D02*
X35873Y-33045D01*
X35932Y-33045D02*
X35873Y-33045D01*
X35932Y-32946D02*
X35932Y-33045D01*
X36078Y-32946D02*
X35922Y-32946D01*
X35922Y-32946D02*
X35922Y-33015D01*
X36078Y-33015D02*
X35922Y-33015D01*
X36078Y-32946D02*
X36078Y-33015D01*
X35882Y-32357D02*
X35754Y-32357D01*
X35754Y-32357D02*
X35754Y-32554D01*
X35882Y-32554D02*
X35754Y-32554D01*
X35882Y-32357D02*
X35882Y-32554D01*
X36246Y-32357D02*
X36118Y-32357D01*
X36118Y-32357D02*
X36118Y-32554D01*
X36246Y-32554D02*
X36118Y-32554D01*
X36246Y-32357D02*
X36246Y-32554D01*
X35932Y-32455D02*
X35873Y-32455D01*
X35873Y-32455D02*
X35873Y-32554D01*
X35932Y-32554D02*
X35873Y-32554D01*
X35932Y-32455D02*
X35932Y-32554D01*
X36127Y-32455D02*
X36068Y-32455D01*
X36068Y-32455D02*
X36068Y-32554D01*
X36127Y-32554D02*
X36068Y-32554D01*
X36127Y-32455D02*
X36127Y-32554D01*
X36078Y-32485D02*
X35922Y-32485D01*
X35922Y-32485D02*
X35922Y-32554D01*
X36078Y-32554D02*
X35922Y-32554D01*
X36078Y-32485D02*
X36078Y-32554D01*
X36039Y-32750D02*
X35961Y-32750D01*
X35961Y-32750D02*
X35961Y-32828D01*
X36039Y-32828D02*
X35961Y-32828D01*
X36039Y-32750D02*
X36039Y-32828D01*
X36236Y-32946D02*
X36118Y-32946D01*
X36118Y-32946D02*
X36118Y-33064D01*
X36236Y-33064D02*
X36118Y-33064D01*
X36236Y-32946D02*
X36236Y-33064D01*
X36246Y-33114D02*
X36157Y-33114D01*
X36157Y-33114D02*
X36157Y-33143D01*
X36246Y-33143D02*
X36157Y-33143D01*
X36246Y-33114D02*
X36246Y-33143D01*
G54D13*
X35774Y-32956D02*
X35774Y-32544D01*
X36226Y-32554D02*
X36226Y-33114D01*
G54D14*
X36205Y-33084D02*
G75*
G03X36205Y-33084I-28J0D01*
G74*
G01*
G54D13*
X36137Y-33143D02*
G75*
G03X35863Y-33143I-137J0D01*
G74*
G01*
X35863Y-32357D02*
G75*
G03X36137Y-32357I137J0D01*
G74*
G01*
G54D12*
X36882Y-32946D02*
X36754Y-32946D01*
X36754Y-32946D02*
X36754Y-33143D01*
X36882Y-33143D02*
X36754Y-33143D01*
X36882Y-32946D02*
X36882Y-33143D01*
X37127Y-32946D02*
X37068Y-32946D01*
X37068Y-32946D02*
X37068Y-33045D01*
X37127Y-33045D02*
X37068Y-33045D01*
X37127Y-32946D02*
X37127Y-33045D01*
X36932Y-32946D02*
X36873Y-32946D01*
X36873Y-32946D02*
X36873Y-33045D01*
X36932Y-33045D02*
X36873Y-33045D01*
X36932Y-32946D02*
X36932Y-33045D01*
X37078Y-32946D02*
X36922Y-32946D01*
X36922Y-32946D02*
X36922Y-33015D01*
X37078Y-33015D02*
X36922Y-33015D01*
X37078Y-32946D02*
X37078Y-33015D01*
X36882Y-32357D02*
X36754Y-32357D01*
X36754Y-32357D02*
X36754Y-32554D01*
X36882Y-32554D02*
X36754Y-32554D01*
X36882Y-32357D02*
X36882Y-32554D01*
X37246Y-32357D02*
X37118Y-32357D01*
X37118Y-32357D02*
X37118Y-32554D01*
X37246Y-32554D02*
X37118Y-32554D01*
X37246Y-32357D02*
X37246Y-32554D01*
X36932Y-32455D02*
X36873Y-32455D01*
X36873Y-32455D02*
X36873Y-32554D01*
X36932Y-32554D02*
X36873Y-32554D01*
X36932Y-32455D02*
X36932Y-32554D01*
X37127Y-32455D02*
X37068Y-32455D01*
X37068Y-32455D02*
X37068Y-32554D01*
X37127Y-32554D02*
X37068Y-32554D01*
X37127Y-32455D02*
X37127Y-32554D01*
X37078Y-32485D02*
X36922Y-32485D01*
X36922Y-32485D02*
X36922Y-32554D01*
X37078Y-32554D02*
X36922Y-32554D01*
X37078Y-32485D02*
X37078Y-32554D01*
X37039Y-32750D02*
X36961Y-32750D01*
X36961Y-32750D02*
X36961Y-32828D01*
X37039Y-32828D02*
X36961Y-32828D01*
X37039Y-32750D02*
X37039Y-32828D01*
X37236Y-32946D02*
X37118Y-32946D01*
X37118Y-32946D02*
X37118Y-33064D01*
X37236Y-33064D02*
X37118Y-33064D01*
X37236Y-32946D02*
X37236Y-33064D01*
X37246Y-33114D02*
X37157Y-33114D01*
X37157Y-33114D02*
X37157Y-33143D01*
X37246Y-33143D02*
X37157Y-33143D01*
X37246Y-33114D02*
X37246Y-33143D01*
G54D13*
X36774Y-32956D02*
X36774Y-32544D01*
X37226Y-32554D02*
X37226Y-33114D01*
G54D14*
X37205Y-33084D02*
G75*
G03X37205Y-33084I-28J0D01*
G74*
G01*
G54D13*
X37137Y-33143D02*
G75*
G03X36863Y-33143I-137J0D01*
G74*
G01*
X36863Y-32357D02*
G75*
G03X37137Y-32357I137J0D01*
G74*
G01*
G54D12*
X37882Y-32946D02*
X37754Y-32946D01*
X37754Y-32946D02*
X37754Y-33143D01*
X37882Y-33143D02*
X37754Y-33143D01*
X37882Y-32946D02*
X37882Y-33143D01*
X38127Y-32946D02*
X38068Y-32946D01*
X38068Y-32946D02*
X38068Y-33045D01*
X38127Y-33045D02*
X38068Y-33045D01*
X38127Y-32946D02*
X38127Y-33045D01*
X37932Y-32946D02*
X37873Y-32946D01*
X37873Y-32946D02*
X37873Y-33045D01*
X37932Y-33045D02*
X37873Y-33045D01*
X37932Y-32946D02*
X37932Y-33045D01*
X38078Y-32946D02*
X37922Y-32946D01*
X37922Y-32946D02*
X37922Y-33015D01*
X38078Y-33015D02*
X37922Y-33015D01*
X38078Y-32946D02*
X38078Y-33015D01*
X37882Y-32357D02*
X37754Y-32357D01*
X37754Y-32357D02*
X37754Y-32554D01*
X37882Y-32554D02*
X37754Y-32554D01*
X37882Y-32357D02*
X37882Y-32554D01*
X38246Y-32357D02*
X38118Y-32357D01*
X38118Y-32357D02*
X38118Y-32554D01*
X38246Y-32554D02*
X38118Y-32554D01*
X38246Y-32357D02*
X38246Y-32554D01*
X37932Y-32455D02*
X37873Y-32455D01*
X37873Y-32455D02*
X37873Y-32554D01*
X37932Y-32554D02*
X37873Y-32554D01*
X37932Y-32455D02*
X37932Y-32554D01*
X38127Y-32455D02*
X38068Y-32455D01*
X38068Y-32455D02*
X38068Y-32554D01*
X38127Y-32554D02*
X38068Y-32554D01*
X38127Y-32455D02*
X38127Y-32554D01*
X38078Y-32485D02*
X37922Y-32485D01*
X37922Y-32485D02*
X37922Y-32554D01*
X38078Y-32554D02*
X37922Y-32554D01*
X38078Y-32485D02*
X38078Y-32554D01*
X38039Y-32750D02*
X37961Y-32750D01*
X37961Y-32750D02*
X37961Y-32828D01*
X38039Y-32828D02*
X37961Y-32828D01*
X38039Y-32750D02*
X38039Y-32828D01*
X38236Y-32946D02*
X38118Y-32946D01*
X38118Y-32946D02*
X38118Y-33064D01*
X38236Y-33064D02*
X38118Y-33064D01*
X38236Y-32946D02*
X38236Y-33064D01*
X38246Y-33114D02*
X38157Y-33114D01*
X38157Y-33114D02*
X38157Y-33143D01*
X38246Y-33143D02*
X38157Y-33143D01*
X38246Y-33114D02*
X38246Y-33143D01*
G54D13*
X37774Y-32956D02*
X37774Y-32544D01*
X38226Y-32554D02*
X38226Y-33114D01*
G54D14*
X38205Y-33084D02*
G75*
G03X38205Y-33084I-28J0D01*
G74*
G01*
G54D13*
X38137Y-33143D02*
G75*
G03X37863Y-33143I-137J0D01*
G74*
G01*
X37863Y-32357D02*
G75*
G03X38137Y-32357I137J0D01*
G74*
G01*
G54D12*
X38882Y-32946D02*
X38754Y-32946D01*
X38754Y-32946D02*
X38754Y-33143D01*
X38882Y-33143D02*
X38754Y-33143D01*
X38882Y-32946D02*
X38882Y-33143D01*
X39127Y-32946D02*
X39068Y-32946D01*
X39068Y-32946D02*
X39068Y-33045D01*
X39127Y-33045D02*
X39068Y-33045D01*
X39127Y-32946D02*
X39127Y-33045D01*
X38932Y-32946D02*
X38873Y-32946D01*
X38873Y-32946D02*
X38873Y-33045D01*
X38932Y-33045D02*
X38873Y-33045D01*
X38932Y-32946D02*
X38932Y-33045D01*
X39078Y-32946D02*
X38922Y-32946D01*
X38922Y-32946D02*
X38922Y-33015D01*
X39078Y-33015D02*
X38922Y-33015D01*
X39078Y-32946D02*
X39078Y-33015D01*
X38882Y-32357D02*
X38754Y-32357D01*
X38754Y-32357D02*
X38754Y-32554D01*
X38882Y-32554D02*
X38754Y-32554D01*
X38882Y-32357D02*
X38882Y-32554D01*
X39246Y-32357D02*
X39118Y-32357D01*
X39118Y-32357D02*
X39118Y-32554D01*
X39246Y-32554D02*
X39118Y-32554D01*
X39246Y-32357D02*
X39246Y-32554D01*
X38932Y-32455D02*
X38873Y-32455D01*
X38873Y-32455D02*
X38873Y-32554D01*
X38932Y-32554D02*
X38873Y-32554D01*
X38932Y-32455D02*
X38932Y-32554D01*
X39127Y-32455D02*
X39068Y-32455D01*
X39068Y-32455D02*
X39068Y-32554D01*
X39127Y-32554D02*
X39068Y-32554D01*
X39127Y-32455D02*
X39127Y-32554D01*
X39078Y-32485D02*
X38922Y-32485D01*
X38922Y-32485D02*
X38922Y-32554D01*
X39078Y-32554D02*
X38922Y-32554D01*
X39078Y-32485D02*
X39078Y-32554D01*
X39039Y-32750D02*
X38961Y-32750D01*
X38961Y-32750D02*
X38961Y-32828D01*
X39039Y-32828D02*
X38961Y-32828D01*
X39039Y-32750D02*
X39039Y-32828D01*
X39236Y-32946D02*
X39118Y-32946D01*
X39118Y-32946D02*
X39118Y-33064D01*
X39236Y-33064D02*
X39118Y-33064D01*
X39236Y-32946D02*
X39236Y-33064D01*
X39246Y-33114D02*
X39157Y-33114D01*
X39157Y-33114D02*
X39157Y-33143D01*
X39246Y-33143D02*
X39157Y-33143D01*
X39246Y-33114D02*
X39246Y-33143D01*
G54D13*
X38774Y-32956D02*
X38774Y-32544D01*
X39226Y-32554D02*
X39226Y-33114D01*
G54D14*
X39205Y-33084D02*
G75*
G03X39205Y-33084I-28J0D01*
G74*
G01*
G54D13*
X39137Y-33143D02*
G75*
G03X38863Y-33143I-137J0D01*
G74*
G01*
X38863Y-32357D02*
G75*
G03X39137Y-32357I137J0D01*
G74*
G01*
%LPC*%
G54D15*
G36*
X40482Y-33137D02*
X40482Y-33144D01*
X40479Y-33155D01*
X40474Y-33165D01*
X40468Y-33172D01*
X40467Y-33172D01*
X40463Y-33175D01*
X40455Y-33179D01*
X40445Y-33184D01*
X40435Y-33189D01*
X40435Y-33133D01*
X40433Y-33127D01*
X40430Y-33120D01*
X40425Y-33113D01*
X40418Y-33105D01*
X40411Y-33097D01*
X40403Y-33090D01*
X40395Y-33085D01*
X40394Y-33085D01*
X40388Y-33082D01*
X40384Y-33081D01*
X40379Y-33080D01*
X40373Y-33080D01*
X40372Y-33080D01*
X40357Y-33081D01*
X40341Y-33085D01*
X40325Y-33091D01*
X40309Y-33099D01*
X40294Y-33107D01*
X40292Y-33108D01*
X40283Y-33116D01*
X40273Y-33125D01*
X40263Y-33135D01*
X40253Y-33147D01*
X40244Y-33158D01*
X40241Y-33162D01*
X40237Y-33168D01*
X40233Y-33176D01*
X40229Y-33184D01*
X40224Y-33192D01*
X40220Y-33200D01*
X40216Y-33208D01*
X40213Y-33215D01*
X40211Y-33221D01*
X40209Y-33225D01*
X40209Y-33227D01*
X40209Y-33227D01*
X40211Y-33226D01*
X40215Y-33225D01*
X40221Y-33223D01*
X40229Y-33220D01*
X40239Y-33216D01*
X40247Y-33213D01*
X40270Y-33204D01*
X40292Y-33196D01*
X40314Y-33188D01*
X40334Y-33180D01*
X40354Y-33172D01*
X40371Y-33165D01*
X40387Y-33158D01*
X40401Y-33153D01*
X40412Y-33148D01*
X40420Y-33145D01*
X40426Y-33141D01*
X40431Y-33139D01*
X40433Y-33137D01*
X40434Y-33135D01*
X40435Y-33133D01*
X40435Y-33189D01*
X40432Y-33190D01*
X40417Y-33197D01*
X40399Y-33204D01*
X40379Y-33212D01*
X40357Y-33221D01*
X40332Y-33231D01*
X40305Y-33241D01*
X40277Y-33252D01*
X40273Y-33253D01*
X40226Y-33271D01*
X40231Y-33283D01*
X40232Y-33286D01*
X40234Y-33293D01*
X40237Y-33301D01*
X40241Y-33312D01*
X40246Y-33324D01*
X40251Y-33338D01*
X40256Y-33352D01*
X40262Y-33367D01*
X40264Y-33374D01*
X40294Y-33453D01*
X40288Y-33587D01*
X40287Y-33607D01*
X40286Y-33625D01*
X40286Y-33643D01*
X40285Y-33660D01*
X40284Y-33676D01*
X40284Y-33689D01*
X40283Y-33701D01*
X40283Y-33710D01*
X40282Y-33717D01*
X40282Y-33722D01*
X40282Y-33723D01*
X40282Y-33725D01*
X40280Y-33728D01*
X40276Y-33731D01*
X40271Y-33736D01*
X40266Y-33739D01*
X40259Y-33745D01*
X40250Y-33751D01*
X40246Y-33754D01*
X40246Y-33460D01*
X40210Y-33363D01*
X40204Y-33346D01*
X40198Y-33331D01*
X40193Y-33316D01*
X40187Y-33302D01*
X40183Y-33291D01*
X40179Y-33280D01*
X40176Y-33272D01*
X40174Y-33267D01*
X40172Y-33264D01*
X40172Y-33263D01*
X40169Y-33260D01*
X40164Y-33256D01*
X40158Y-33252D01*
X40150Y-33247D01*
X40142Y-33242D01*
X40133Y-33237D01*
X40125Y-33232D01*
X40123Y-33232D01*
X40105Y-33224D01*
X40087Y-33218D01*
X40069Y-33215D01*
X40052Y-33213D01*
X40042Y-33214D01*
X40027Y-33215D01*
X40010Y-33218D01*
X39993Y-33222D01*
X39975Y-33227D01*
X39965Y-33229D01*
X39960Y-33232D01*
X39956Y-33233D01*
X39954Y-33235D01*
X39953Y-33236D01*
X39954Y-33236D01*
X39955Y-33240D01*
X39957Y-33246D01*
X39960Y-33254D01*
X39964Y-33265D01*
X39969Y-33277D01*
X39975Y-33291D01*
X39981Y-33306D01*
X39988Y-33322D01*
X39995Y-33340D01*
X40002Y-33358D01*
X40010Y-33377D01*
X40018Y-33396D01*
X40026Y-33415D01*
X40033Y-33434D01*
X40041Y-33452D01*
X40048Y-33470D01*
X40056Y-33487D01*
X40062Y-33504D01*
X40068Y-33519D01*
X40074Y-33532D01*
X40079Y-33544D01*
X40083Y-33554D01*
X40086Y-33562D01*
X40089Y-33567D01*
X40090Y-33571D01*
X40090Y-33571D01*
X40092Y-33571D01*
X40096Y-33569D01*
X40101Y-33568D01*
X40103Y-33567D01*
X40128Y-33561D01*
X40154Y-33557D01*
X40169Y-33556D01*
X40180Y-33555D01*
X40192Y-33555D01*
X40204Y-33556D01*
X40216Y-33556D01*
X40227Y-33557D01*
X40235Y-33558D01*
X40236Y-33558D01*
X40243Y-33559D01*
X40244Y-33509D01*
X40246Y-33460D01*
X40246Y-33754D01*
X40243Y-33757D01*
X40241Y-33758D01*
X40241Y-33588D01*
X40241Y-33584D01*
X40241Y-33581D01*
X40240Y-33580D01*
X40240Y-33580D01*
X40237Y-33580D01*
X40232Y-33579D01*
X40226Y-33578D01*
X40218Y-33578D01*
X40212Y-33577D01*
X40184Y-33576D01*
X40156Y-33578D01*
X40129Y-33583D01*
X40105Y-33589D01*
X40088Y-33596D01*
X40070Y-33604D01*
X40070Y-33580D01*
X40002Y-33413D01*
X39993Y-33391D01*
X39984Y-33370D01*
X39976Y-33350D01*
X39968Y-33332D01*
X39961Y-33314D01*
X39955Y-33298D01*
X39949Y-33284D01*
X39944Y-33271D01*
X39940Y-33261D01*
X39937Y-33253D01*
X39934Y-33247D01*
X39933Y-33244D01*
X39933Y-33244D01*
X39932Y-33243D01*
X39930Y-33243D01*
X39926Y-33245D01*
X39920Y-33247D01*
X39918Y-33248D01*
X39897Y-33260D01*
X39877Y-33275D01*
X39858Y-33291D01*
X39841Y-33310D01*
X39830Y-33325D01*
X39823Y-33336D01*
X39815Y-33349D01*
X39807Y-33364D01*
X39800Y-33378D01*
X39794Y-33392D01*
X39789Y-33402D01*
X39783Y-33417D01*
X39820Y-33515D01*
X39856Y-33612D01*
X39891Y-33646D01*
X39900Y-33656D01*
X39908Y-33663D01*
X39915Y-33669D01*
X39919Y-33674D01*
X39923Y-33677D01*
X39925Y-33678D01*
X39927Y-33679D01*
X39928Y-33679D01*
X39928Y-33679D01*
X39930Y-33677D01*
X39934Y-33674D01*
X39939Y-33669D01*
X39945Y-33664D01*
X39948Y-33662D01*
X39967Y-33646D01*
X39986Y-33631D01*
X40003Y-33620D01*
X40018Y-33609D01*
X40033Y-33599D01*
X40048Y-33591D01*
X40052Y-33589D01*
X40070Y-33580D01*
X40070Y-33604D01*
X40070Y-33604D01*
X40050Y-33615D01*
X40030Y-33626D01*
X40011Y-33639D01*
X40009Y-33641D01*
X40004Y-33645D01*
X39997Y-33650D01*
X39990Y-33655D01*
X39982Y-33662D01*
X39974Y-33668D01*
X39966Y-33675D01*
X39959Y-33681D01*
X39953Y-33687D01*
X39947Y-33691D01*
X39944Y-33694D01*
X39942Y-33696D01*
X39942Y-33696D01*
X39943Y-33697D01*
X39946Y-33701D01*
X39951Y-33706D01*
X39957Y-33712D01*
X39964Y-33720D01*
X39972Y-33728D01*
X39982Y-33738D01*
X39987Y-33743D01*
X40032Y-33788D01*
X40039Y-33788D01*
X40044Y-33787D01*
X40051Y-33786D01*
X40058Y-33786D01*
X40075Y-33783D01*
X40094Y-33779D01*
X40114Y-33772D01*
X40134Y-33764D01*
X40156Y-33754D01*
X40177Y-33743D01*
X40185Y-33738D01*
X40192Y-33734D01*
X40200Y-33729D01*
X40208Y-33723D01*
X40216Y-33718D01*
X40223Y-33713D01*
X40229Y-33708D01*
X40233Y-33705D01*
X40235Y-33703D01*
X40235Y-33702D01*
X40236Y-33697D01*
X40236Y-33690D01*
X40237Y-33681D01*
X40238Y-33671D01*
X40238Y-33659D01*
X40238Y-33655D01*
X40239Y-33642D01*
X40239Y-33630D01*
X40240Y-33620D01*
X40240Y-33610D01*
X40241Y-33601D01*
X40241Y-33596D01*
X40241Y-33595D01*
X40241Y-33588D01*
X40241Y-33758D01*
X40238Y-33761D01*
X40231Y-33765D01*
X40227Y-33769D01*
X40225Y-33771D01*
X40224Y-33773D01*
X40224Y-33776D01*
X40225Y-33781D01*
X40225Y-33788D01*
X40226Y-33798D01*
X40226Y-33810D01*
X40227Y-33824D01*
X40228Y-33839D01*
X40228Y-33855D01*
X40229Y-33873D01*
X40230Y-33881D01*
X40231Y-33899D01*
X40232Y-33916D01*
X40232Y-33931D01*
X40233Y-33946D01*
X40234Y-33959D01*
X40234Y-33969D01*
X40234Y-33978D01*
X40234Y-33984D01*
X40234Y-33988D01*
X40234Y-33988D01*
X40234Y-33990D01*
X40235Y-33992D01*
X40237Y-33993D01*
X40241Y-33993D01*
X40247Y-33994D01*
X40252Y-33995D01*
X40259Y-33996D01*
X40269Y-33998D01*
X40279Y-34000D01*
X40290Y-34002D01*
X40299Y-34005D01*
X40307Y-34007D01*
X40310Y-34009D01*
X40325Y-34016D01*
X40340Y-34027D01*
X40354Y-34039D01*
X40366Y-34052D01*
X40372Y-34061D01*
X40380Y-34073D01*
X40387Y-34087D01*
X40392Y-34102D01*
X40397Y-34115D01*
X40399Y-34127D01*
X40401Y-34141D01*
X40401Y-34154D01*
X40400Y-34166D01*
X40398Y-34176D01*
X40398Y-34177D01*
X40393Y-34188D01*
X40386Y-34197D01*
X40379Y-34204D01*
X40374Y-34207D01*
X40366Y-34211D01*
X40354Y-34211D01*
X40354Y-34164D01*
X40354Y-34149D01*
X40354Y-34139D01*
X40353Y-34132D01*
X40351Y-34125D01*
X40351Y-34122D01*
X40344Y-34105D01*
X40335Y-34089D01*
X40324Y-34076D01*
X40312Y-34064D01*
X40299Y-34056D01*
X40289Y-34052D01*
X40284Y-34050D01*
X40276Y-34048D01*
X40266Y-34046D01*
X40257Y-34043D01*
X40247Y-34042D01*
X40238Y-34040D01*
X40234Y-34040D01*
X40229Y-34039D01*
X40226Y-34039D01*
X40224Y-34040D01*
X40224Y-34042D01*
X40224Y-34042D01*
X40223Y-34045D01*
X40222Y-34050D01*
X40220Y-34057D01*
X40219Y-34065D01*
X40218Y-34067D01*
X40217Y-34076D01*
X40215Y-34082D01*
X40215Y-34086D01*
X40215Y-34090D01*
X40215Y-34092D01*
X40216Y-34094D01*
X40218Y-34102D01*
X40220Y-34111D01*
X40222Y-34122D01*
X40223Y-34133D01*
X40224Y-34143D01*
X40224Y-34150D01*
X40224Y-34165D01*
X40289Y-34165D01*
X40354Y-34164D01*
X40354Y-34211D01*
X40188Y-34211D01*
X40188Y-33981D01*
X40184Y-33895D01*
X40183Y-33879D01*
X40182Y-33863D01*
X40181Y-33849D01*
X40181Y-33836D01*
X40180Y-33824D01*
X40180Y-33815D01*
X40179Y-33808D01*
X40179Y-33804D01*
X40179Y-33803D01*
X40178Y-33796D01*
X40162Y-33804D01*
X40138Y-33814D01*
X40112Y-33822D01*
X40086Y-33829D01*
X40065Y-33833D01*
X40063Y-33833D01*
X40060Y-33834D01*
X40058Y-33837D01*
X40056Y-33841D01*
X40052Y-33847D01*
X40051Y-33848D01*
X40041Y-33865D01*
X40030Y-33880D01*
X40022Y-33890D01*
X40014Y-33898D01*
X40005Y-33945D01*
X40005Y-33833D01*
X40005Y-33831D01*
X40004Y-33830D01*
X40002Y-33827D01*
X39999Y-33823D01*
X39994Y-33818D01*
X39987Y-33811D01*
X39979Y-33802D01*
X39972Y-33795D01*
X39963Y-33786D01*
X39956Y-33779D01*
X39949Y-33772D01*
X39944Y-33766D01*
X39939Y-33763D01*
X39937Y-33760D01*
X39937Y-33760D01*
X39935Y-33761D01*
X39931Y-33764D01*
X39926Y-33768D01*
X39921Y-33772D01*
X39919Y-33773D01*
X39912Y-33780D01*
X39904Y-33787D01*
X39896Y-33795D01*
X39889Y-33802D01*
X39883Y-33808D01*
X39878Y-33814D01*
X39875Y-33818D01*
X39874Y-33820D01*
X39874Y-33825D01*
X39877Y-33831D01*
X39882Y-33837D01*
X39889Y-33844D01*
X39897Y-33851D01*
X39906Y-33857D01*
X39916Y-33863D01*
X39926Y-33868D01*
X39935Y-33872D01*
X39945Y-33874D01*
X39947Y-33874D01*
X39954Y-33874D01*
X39962Y-33874D01*
X39969Y-33872D01*
X39970Y-33871D01*
X39975Y-33869D01*
X39981Y-33864D01*
X39987Y-33857D01*
X39994Y-33850D01*
X39999Y-33843D01*
X40003Y-33837D01*
X40005Y-33833D01*
X40005Y-33945D01*
X40000Y-33971D01*
X39997Y-33986D01*
X39995Y-34000D01*
X39992Y-34012D01*
X39990Y-34023D01*
X39989Y-34029D01*
X39989Y-33916D01*
X39988Y-33916D01*
X39984Y-33917D01*
X39980Y-33918D01*
X39972Y-33920D01*
X39961Y-33921D01*
X39950Y-33921D01*
X39939Y-33920D01*
X39928Y-33918D01*
X39926Y-33918D01*
X39910Y-33912D01*
X39894Y-33905D01*
X39879Y-33896D01*
X39865Y-33886D01*
X39853Y-33875D01*
X39842Y-33863D01*
X39834Y-33851D01*
X39829Y-33839D01*
X39829Y-33839D01*
X39827Y-33833D01*
X39826Y-33826D01*
X39826Y-33821D01*
X39826Y-33816D01*
X39827Y-33811D01*
X39829Y-33806D01*
X39832Y-33800D01*
X39833Y-33798D01*
X39836Y-33792D01*
X39840Y-33786D01*
X39845Y-33780D01*
X39851Y-33773D01*
X39855Y-33769D01*
X39862Y-33761D01*
X39871Y-33753D01*
X39879Y-33745D01*
X39887Y-33739D01*
X39903Y-33725D01*
X39883Y-33705D01*
X39877Y-33699D01*
X39871Y-33694D01*
X39867Y-33690D01*
X39863Y-33687D01*
X39862Y-33687D01*
X39861Y-33688D01*
X39859Y-33692D01*
X39855Y-33698D01*
X39851Y-33706D01*
X39845Y-33716D01*
X39839Y-33727D01*
X39833Y-33739D01*
X39828Y-33747D01*
X39796Y-33806D01*
X39774Y-33893D01*
X39770Y-33910D01*
X39766Y-33926D01*
X39762Y-33942D01*
X39758Y-33957D01*
X39755Y-33970D01*
X39753Y-33982D01*
X39751Y-33992D01*
X39749Y-33999D01*
X39749Y-34002D01*
X39745Y-34022D01*
X39750Y-34030D01*
X39753Y-34034D01*
X39755Y-34036D01*
X39757Y-34036D01*
X39759Y-34035D01*
X39774Y-34026D01*
X39789Y-34019D01*
X39806Y-34013D01*
X39807Y-34013D01*
X39816Y-34012D01*
X39826Y-34011D01*
X39838Y-34010D01*
X39850Y-34010D01*
X39862Y-34011D01*
X39872Y-34012D01*
X39875Y-34012D01*
X39895Y-34017D01*
X39914Y-34024D01*
X39930Y-34033D01*
X39945Y-34044D01*
X39951Y-34050D01*
X39956Y-34055D01*
X39959Y-34058D01*
X39960Y-34060D01*
X39961Y-34060D01*
X39961Y-34059D01*
X39962Y-34054D01*
X39963Y-34048D01*
X39965Y-34039D01*
X39967Y-34028D01*
X39970Y-34016D01*
X39972Y-34002D01*
X39975Y-33988D01*
X39978Y-33974D01*
X39980Y-33960D01*
X39983Y-33948D01*
X39985Y-33937D01*
X39987Y-33928D01*
X39988Y-33921D01*
X39989Y-33917D01*
X39989Y-33916D01*
X39989Y-34029D01*
X39988Y-34032D01*
X39987Y-34039D01*
X39986Y-34044D01*
X39986Y-34046D01*
X39987Y-34046D01*
X39990Y-34044D01*
X39992Y-34042D01*
X39997Y-34038D01*
X40003Y-34034D01*
X40007Y-34031D01*
X40023Y-34023D01*
X40041Y-34017D01*
X40060Y-34013D01*
X40079Y-34010D01*
X40099Y-34010D01*
X40118Y-34012D01*
X40136Y-34015D01*
X40152Y-34021D01*
X40157Y-34024D01*
X40163Y-34027D01*
X40169Y-34030D01*
X40171Y-34032D01*
X40177Y-34036D01*
X40183Y-34008D01*
X40188Y-33981D01*
X40188Y-34211D01*
X40178Y-34211D01*
X40178Y-34167D01*
X40177Y-34147D01*
X40175Y-34128D01*
X40172Y-34111D01*
X40166Y-34096D01*
X40158Y-34084D01*
X40148Y-34074D01*
X40140Y-34068D01*
X40130Y-34063D01*
X40121Y-34060D01*
X40111Y-34058D01*
X40099Y-34057D01*
X40090Y-34057D01*
X40075Y-34058D01*
X40061Y-34060D01*
X40049Y-34064D01*
X40036Y-34069D01*
X40036Y-34069D01*
X40023Y-34078D01*
X40013Y-34089D01*
X40004Y-34101D01*
X39997Y-34116D01*
X39993Y-34132D01*
X39991Y-34150D01*
X39991Y-34155D01*
X39991Y-34165D01*
X40060Y-34166D01*
X40076Y-34166D01*
X40091Y-34166D01*
X40106Y-34166D01*
X40120Y-34166D01*
X40133Y-34166D01*
X40143Y-34166D01*
X40151Y-34166D01*
X40154Y-34166D01*
X40178Y-34167D01*
X40178Y-34211D01*
X40030Y-34211D01*
X39997Y-34211D01*
X39964Y-34211D01*
X39945Y-34211D01*
X39945Y-34165D01*
X39944Y-34152D01*
X39942Y-34132D01*
X39937Y-34115D01*
X39931Y-34101D01*
X39922Y-34088D01*
X39912Y-34078D01*
X39899Y-34070D01*
X39884Y-34063D01*
X39875Y-34061D01*
X39866Y-34059D01*
X39856Y-34058D01*
X39845Y-34057D01*
X39834Y-34057D01*
X39824Y-34058D01*
X39817Y-34059D01*
X39803Y-34064D01*
X39790Y-34071D01*
X39780Y-34080D01*
X39771Y-34092D01*
X39765Y-34106D01*
X39760Y-34123D01*
X39757Y-34142D01*
X39757Y-34149D01*
X39756Y-34165D01*
X39851Y-34165D01*
X39945Y-34165D01*
X39945Y-34211D01*
X39932Y-34211D01*
X39899Y-34211D01*
X39868Y-34211D01*
X39837Y-34212D01*
X39807Y-34212D01*
X39779Y-34212D01*
X39752Y-34212D01*
X39727Y-34212D01*
X39725Y-34212D01*
X39725Y-34078D01*
X39725Y-34076D01*
X39724Y-34074D01*
X39721Y-34070D01*
X39717Y-34065D01*
X39713Y-34058D01*
X39713Y-34058D01*
X39708Y-34051D01*
X39704Y-34047D01*
X39701Y-34044D01*
X39699Y-34042D01*
X39696Y-34041D01*
X39693Y-34040D01*
X39686Y-34039D01*
X39676Y-34039D01*
X39670Y-34040D01*
X39670Y-33990D01*
X39670Y-33990D01*
X39668Y-33988D01*
X39666Y-33985D01*
X39662Y-33979D01*
X39657Y-33972D01*
X39651Y-33964D01*
X39649Y-33962D01*
X39644Y-33955D01*
X39640Y-33949D01*
X39636Y-33944D01*
X39633Y-33940D01*
X39631Y-33935D01*
X39628Y-33930D01*
X39626Y-33924D01*
X39624Y-33917D01*
X39621Y-33909D01*
X39618Y-33898D01*
X39615Y-33885D01*
X39611Y-33874D01*
X39609Y-33865D01*
X39607Y-33858D01*
X39605Y-33853D01*
X39604Y-33850D01*
X39604Y-33849D01*
X39603Y-33850D01*
X39602Y-33854D01*
X39600Y-33860D01*
X39599Y-33867D01*
X39597Y-33874D01*
X39596Y-33882D01*
X39596Y-33885D01*
X39595Y-33895D01*
X39595Y-33906D01*
X39596Y-33916D01*
X39598Y-33927D01*
X39602Y-33939D01*
X39607Y-33952D01*
X39613Y-33967D01*
X39621Y-33984D01*
X39622Y-33985D01*
X39628Y-33997D01*
X39634Y-33996D01*
X39638Y-33996D01*
X39645Y-33995D01*
X39652Y-33994D01*
X39655Y-33994D01*
X39663Y-33993D01*
X39668Y-33992D01*
X39670Y-33990D01*
X39670Y-34040D01*
X39665Y-34040D01*
X39652Y-34041D01*
X39639Y-34043D01*
X39627Y-34046D01*
X39615Y-34049D01*
X39608Y-34052D01*
X39594Y-34058D01*
X39581Y-34068D01*
X39570Y-34079D01*
X39560Y-34093D01*
X39552Y-34109D01*
X39546Y-34125D01*
X39544Y-34134D01*
X39543Y-34143D01*
X39542Y-34149D01*
X39542Y-34154D01*
X39542Y-34157D01*
X39544Y-34164D01*
X39600Y-34165D01*
X39614Y-34165D01*
X39629Y-34166D01*
X39643Y-34166D01*
X39657Y-34166D01*
X39669Y-34166D01*
X39678Y-34166D01*
X39683Y-34166D01*
X39710Y-34167D01*
X39710Y-34156D01*
X39710Y-34143D01*
X39712Y-34129D01*
X39714Y-34114D01*
X39717Y-34101D01*
X39721Y-34090D01*
X39722Y-34086D01*
X39724Y-34082D01*
X39725Y-34078D01*
X39725Y-34212D01*
X39703Y-34212D01*
X39682Y-34212D01*
X39663Y-34212D01*
X39646Y-34212D01*
X39632Y-34212D01*
X39621Y-34212D01*
X39615Y-34213D01*
X39597Y-34213D01*
X39582Y-34213D01*
X39570Y-34213D01*
X39559Y-34213D01*
X39551Y-34213D01*
X39545Y-34213D01*
X39540Y-34213D01*
X39536Y-34212D01*
X39533Y-34212D01*
X39530Y-34212D01*
X39528Y-34211D01*
X39519Y-34206D01*
X39511Y-34199D01*
X39504Y-34189D01*
X39499Y-34178D01*
X39496Y-34165D01*
X39495Y-34151D01*
X39495Y-34143D01*
X39499Y-34121D01*
X39505Y-34100D01*
X39513Y-34081D01*
X39524Y-34062D01*
X39537Y-34046D01*
X39551Y-34031D01*
X39567Y-34019D01*
X39572Y-34017D01*
X39582Y-34011D01*
X39574Y-33995D01*
X39568Y-33981D01*
X39562Y-33968D01*
X39558Y-33956D01*
X39554Y-33946D01*
X39553Y-33942D01*
X39550Y-33927D01*
X39549Y-33911D01*
X39549Y-33893D01*
X39550Y-33875D01*
X39552Y-33859D01*
X39553Y-33854D01*
X39553Y-33851D01*
X39551Y-33849D01*
X39548Y-33848D01*
X39542Y-33847D01*
X39537Y-33847D01*
X39525Y-33847D01*
X39514Y-33844D01*
X39506Y-33840D01*
X39501Y-33835D01*
X39498Y-33828D01*
X39498Y-33820D01*
X39498Y-33819D01*
X39499Y-33814D01*
X39502Y-33809D01*
X39506Y-33805D01*
X39512Y-33802D01*
X39519Y-33799D01*
X39529Y-33797D01*
X39541Y-33795D01*
X39553Y-33793D01*
X39573Y-33790D01*
X39578Y-33780D01*
X39583Y-33770D01*
X39577Y-33766D01*
X39567Y-33756D01*
X39558Y-33745D01*
X39552Y-33733D01*
X39549Y-33720D01*
X39548Y-33706D01*
X39549Y-33693D01*
X39554Y-33680D01*
X39561Y-33667D01*
X39568Y-33658D01*
X39580Y-33649D01*
X39591Y-33642D01*
X39604Y-33639D01*
X39618Y-33637D01*
X39624Y-33637D01*
X39632Y-33638D01*
X39638Y-33639D01*
X39644Y-33641D01*
X39650Y-33644D01*
X39662Y-33652D01*
X39673Y-33661D01*
X39681Y-33673D01*
X39687Y-33686D01*
X39690Y-33700D01*
X39690Y-33709D01*
X39688Y-33724D01*
X39684Y-33737D01*
X39677Y-33750D01*
X39668Y-33760D01*
X39658Y-33768D01*
X39652Y-33771D01*
X39649Y-33773D01*
X39649Y-33711D01*
X39648Y-33702D01*
X39645Y-33693D01*
X39639Y-33686D01*
X39631Y-33681D01*
X39626Y-33679D01*
X39617Y-33678D01*
X39609Y-33680D01*
X39602Y-33684D01*
X39596Y-33689D01*
X39592Y-33696D01*
X39589Y-33704D01*
X39589Y-33712D01*
X39592Y-33720D01*
X39595Y-33725D01*
X39601Y-33732D01*
X39609Y-33737D01*
X39618Y-33738D01*
X39627Y-33737D01*
X39632Y-33735D01*
X39640Y-33729D01*
X39645Y-33722D01*
X39648Y-33713D01*
X39649Y-33711D01*
X39649Y-33773D01*
X39646Y-33774D01*
X39642Y-33776D01*
X39637Y-33777D01*
X39634Y-33779D01*
X39634Y-33781D01*
X39634Y-33783D01*
X39635Y-33785D01*
X39636Y-33786D01*
X39639Y-33786D01*
X39644Y-33787D01*
X39648Y-33787D01*
X39657Y-33787D01*
X39666Y-33788D01*
X39674Y-33789D01*
X39681Y-33790D01*
X39686Y-33791D01*
X39687Y-33792D01*
X39694Y-33796D01*
X39698Y-33803D01*
X39700Y-33810D01*
X39699Y-33817D01*
X39696Y-33824D01*
X39693Y-33828D01*
X39687Y-33831D01*
X39680Y-33835D01*
X39671Y-33837D01*
X39663Y-33839D01*
X39658Y-33840D01*
X39655Y-33841D01*
X39654Y-33841D01*
X39653Y-33843D01*
X39654Y-33847D01*
X39655Y-33854D01*
X39657Y-33861D01*
X39659Y-33870D01*
X39662Y-33879D01*
X39665Y-33889D01*
X39667Y-33898D01*
X39670Y-33905D01*
X39673Y-33912D01*
X39675Y-33916D01*
X39675Y-33917D01*
X39681Y-33925D01*
X39687Y-33933D01*
X39692Y-33941D01*
X39697Y-33948D01*
X39702Y-33953D01*
X39705Y-33958D01*
X39708Y-33960D01*
X39708Y-33960D01*
X39709Y-33958D01*
X39710Y-33954D01*
X39712Y-33947D01*
X39714Y-33938D01*
X39717Y-33927D01*
X39720Y-33914D01*
X39724Y-33900D01*
X39728Y-33885D01*
X39731Y-33873D01*
X39752Y-33787D01*
X39790Y-33719D01*
X39828Y-33650D01*
X39822Y-33644D01*
X39820Y-33643D01*
X39819Y-33641D01*
X39818Y-33639D01*
X39816Y-33636D01*
X39814Y-33632D01*
X39812Y-33626D01*
X39809Y-33621D01*
X39806Y-33613D01*
X39802Y-33602D01*
X39798Y-33590D01*
X39792Y-33576D01*
X39786Y-33559D01*
X39780Y-33545D01*
X39774Y-33528D01*
X39768Y-33513D01*
X39763Y-33498D01*
X39758Y-33485D01*
X39754Y-33473D01*
X39750Y-33464D01*
X39747Y-33456D01*
X39745Y-33451D01*
X39744Y-33448D01*
X39744Y-33448D01*
X39743Y-33447D01*
X39742Y-33447D01*
X39740Y-33447D01*
X39735Y-33447D01*
X39729Y-33448D01*
X39728Y-33448D01*
X39728Y-33400D01*
X39727Y-33398D01*
X39724Y-33396D01*
X39719Y-33392D01*
X39715Y-33389D01*
X39692Y-33374D01*
X39670Y-33361D01*
X39647Y-33352D01*
X39625Y-33345D01*
X39603Y-33341D01*
X39586Y-33341D01*
X39573Y-33341D01*
X39562Y-33342D01*
X39551Y-33344D01*
X39540Y-33347D01*
X39538Y-33348D01*
X39525Y-33352D01*
X39516Y-33356D01*
X39508Y-33361D01*
X39503Y-33365D01*
X39501Y-33368D01*
X39494Y-33379D01*
X39489Y-33392D01*
X39487Y-33400D01*
X39486Y-33406D01*
X39485Y-33414D01*
X39485Y-33422D01*
X39485Y-33428D01*
X39486Y-33434D01*
X39487Y-33435D01*
X39488Y-33437D01*
X39489Y-33438D01*
X39492Y-33438D01*
X39496Y-33438D01*
X39502Y-33438D01*
X39510Y-33437D01*
X39514Y-33436D01*
X39527Y-33435D01*
X39542Y-33432D01*
X39559Y-33430D01*
X39578Y-33427D01*
X39598Y-33424D01*
X39617Y-33420D01*
X39637Y-33417D01*
X39645Y-33415D01*
X39663Y-33412D01*
X39679Y-33409D01*
X39692Y-33407D01*
X39702Y-33405D01*
X39711Y-33404D01*
X39717Y-33402D01*
X39722Y-33402D01*
X39725Y-33401D01*
X39727Y-33400D01*
X39728Y-33400D01*
X39728Y-33400D01*
X39728Y-33448D01*
X39721Y-33450D01*
X39715Y-33451D01*
X39698Y-33454D01*
X39679Y-33457D01*
X39659Y-33461D01*
X39638Y-33464D01*
X39617Y-33468D01*
X39597Y-33471D01*
X39578Y-33474D01*
X39561Y-33477D01*
X39552Y-33479D01*
X39537Y-33481D01*
X39524Y-33482D01*
X39513Y-33483D01*
X39503Y-33484D01*
X39494Y-33484D01*
X39493Y-33484D01*
X39472Y-33485D01*
X39464Y-33479D01*
X39454Y-33471D01*
X39447Y-33460D01*
X39441Y-33448D01*
X39438Y-33433D01*
X39438Y-33417D01*
X39439Y-33405D01*
X39442Y-33387D01*
X39447Y-33370D01*
X39454Y-33354D01*
X39463Y-33340D01*
X39473Y-33328D01*
X39485Y-33319D01*
X39492Y-33315D01*
X39516Y-33305D01*
X39540Y-33298D01*
X39565Y-33294D01*
X39590Y-33294D01*
X39616Y-33296D01*
X39642Y-33301D01*
X39667Y-33309D01*
X39692Y-33319D01*
X39701Y-33324D01*
X39712Y-33330D01*
X39723Y-33337D01*
X39733Y-33344D01*
X39742Y-33350D01*
X39749Y-33355D01*
X39756Y-33361D01*
X39762Y-33349D01*
X39777Y-33320D01*
X39794Y-33294D01*
X39813Y-33271D01*
X39832Y-33250D01*
X39854Y-33232D01*
X39874Y-33219D01*
X39896Y-33207D01*
X39920Y-33196D01*
X39946Y-33186D01*
X39953Y-33184D01*
X39979Y-33177D01*
X40004Y-33171D01*
X40028Y-33168D01*
X40050Y-33167D01*
X40071Y-33168D01*
X40092Y-33171D01*
X40112Y-33176D01*
X40132Y-33184D01*
X40149Y-33192D01*
X40168Y-33201D01*
X40172Y-33191D01*
X40185Y-33164D01*
X40200Y-33139D01*
X40216Y-33116D01*
X40234Y-33096D01*
X40253Y-33079D01*
X40274Y-33064D01*
X40296Y-33052D01*
X40320Y-33042D01*
X40341Y-33037D01*
X40355Y-33034D01*
X40369Y-33033D01*
X40383Y-33033D01*
X40395Y-33035D01*
X40402Y-33037D01*
X40417Y-33044D01*
X40430Y-33052D01*
X40443Y-33062D01*
X40454Y-33074D01*
X40464Y-33086D01*
X40472Y-33099D01*
X40478Y-33112D01*
X40481Y-33125D01*
X40482Y-33137D01*
X40482Y-33137D01*
X40482Y-33137D01*
G37*
G36*
X39961Y-34014D02*
X39960Y-34018D01*
X39959Y-34023D01*
X39958Y-34023D01*
X39954Y-34026D01*
X39951Y-34026D01*
X39947Y-34025D01*
X39943Y-34022D01*
X39941Y-34018D01*
X39941Y-34013D01*
X39943Y-34009D01*
X39947Y-34006D01*
X39951Y-34005D01*
X39956Y-34006D01*
X39960Y-34009D01*
X39961Y-34014D01*
X39961Y-34014D01*
X39961Y-34014D01*
G37*
G36*
X39972Y-33973D02*
X39972Y-33978D01*
X39970Y-33983D01*
X39969Y-33983D01*
X39965Y-33986D01*
X39960Y-33986D01*
X39957Y-33984D01*
X39955Y-33983D01*
X39953Y-33979D01*
X39952Y-33974D01*
X39953Y-33971D01*
X39957Y-33967D01*
X39960Y-33965D01*
X39965Y-33965D01*
X39969Y-33968D01*
X39971Y-33970D01*
X39972Y-33973D01*
X39972Y-33973D01*
X39972Y-33973D01*
G37*
G36*
X39981Y-33938D02*
X39980Y-33943D01*
X39977Y-33947D01*
X39972Y-33949D01*
X39968Y-33949D01*
X39967Y-33949D01*
X39962Y-33946D01*
X39960Y-33941D01*
X39960Y-33936D01*
X39962Y-33932D01*
X39966Y-33929D01*
X39970Y-33928D01*
X39975Y-33930D01*
X39979Y-33932D01*
X39981Y-33936D01*
X39981Y-33938D01*
X39981Y-33938D01*
X39981Y-33938D01*
G37*
G36*
X40185Y-33641D02*
X40185Y-33645D01*
X40185Y-33647D01*
X40182Y-33658D01*
X40177Y-33669D01*
X40170Y-33680D01*
X40161Y-33691D01*
X40150Y-33701D01*
X40138Y-33710D01*
X40125Y-33718D01*
X40112Y-33723D01*
X40107Y-33725D01*
X40096Y-33727D01*
X40083Y-33728D01*
X40072Y-33728D01*
X40070Y-33727D01*
X40063Y-33726D01*
X40056Y-33724D01*
X40053Y-33723D01*
X40047Y-33720D01*
X40041Y-33717D01*
X40035Y-33713D01*
X40031Y-33710D01*
X40028Y-33708D01*
X40027Y-33706D01*
X40029Y-33705D01*
X40033Y-33703D01*
X40039Y-33700D01*
X40046Y-33696D01*
X40055Y-33691D01*
X40066Y-33687D01*
X40076Y-33681D01*
X40087Y-33676D01*
X40098Y-33671D01*
X40108Y-33667D01*
X40117Y-33662D01*
X40125Y-33659D01*
X40135Y-33655D01*
X40144Y-33651D01*
X40154Y-33648D01*
X40163Y-33644D01*
X40171Y-33642D01*
X40178Y-33640D01*
X40182Y-33639D01*
X40183Y-33639D01*
X40185Y-33639D01*
X40185Y-33641D01*
X40185Y-33641D01*
X40185Y-33641D01*
G37*
G36*
X40184Y-33595D02*
X40183Y-33600D01*
X40180Y-33603D01*
X40175Y-33605D01*
X40170Y-33605D01*
X40167Y-33602D01*
X40164Y-33598D01*
X40164Y-33593D01*
X40166Y-33588D01*
X40169Y-33585D01*
X40174Y-33584D01*
X40179Y-33585D01*
X40183Y-33589D01*
X40184Y-33594D01*
X40184Y-33595D01*
X40184Y-33595D01*
X40184Y-33595D01*
G37*
G36*
X40221Y-33594D02*
X40220Y-33600D01*
X40217Y-33603D01*
X40212Y-33605D01*
X40207Y-33604D01*
X40204Y-33602D01*
X40201Y-33598D01*
X40201Y-33593D01*
X40202Y-33588D01*
X40203Y-33587D01*
X40207Y-33584D01*
X40212Y-33584D01*
X40217Y-33586D01*
X40220Y-33589D01*
X40221Y-33594D01*
X40221Y-33594D01*
X40221Y-33594D01*
X40221Y-33594D01*
G37*
G36*
X39981Y-33505D02*
X39980Y-33519D01*
X39976Y-33533D01*
X39969Y-33546D01*
X39960Y-33558D01*
X39960Y-33558D01*
X39949Y-33567D01*
X39940Y-33572D01*
X39940Y-33511D01*
X39940Y-33503D01*
X39937Y-33494D01*
X39932Y-33487D01*
X39927Y-33482D01*
X39921Y-33479D01*
X39914Y-33478D01*
X39912Y-33478D01*
X39906Y-33478D01*
X39902Y-33478D01*
X39898Y-33480D01*
X39895Y-33482D01*
X39888Y-33488D01*
X39883Y-33495D01*
X39881Y-33504D01*
X39881Y-33512D01*
X39883Y-33520D01*
X39888Y-33527D01*
X39894Y-33532D01*
X39902Y-33536D01*
X39904Y-33537D01*
X39911Y-33537D01*
X39919Y-33536D01*
X39926Y-33532D01*
X39933Y-33527D01*
X39938Y-33519D01*
X39940Y-33511D01*
X39940Y-33572D01*
X39937Y-33574D01*
X39923Y-33578D01*
X39909Y-33579D01*
X39894Y-33577D01*
X39892Y-33576D01*
X39879Y-33571D01*
X39867Y-33564D01*
X39857Y-33555D01*
X39849Y-33544D01*
X39844Y-33532D01*
X39840Y-33520D01*
X39839Y-33506D01*
X39841Y-33493D01*
X39845Y-33480D01*
X39851Y-33468D01*
X39860Y-33457D01*
X39860Y-33457D01*
X39872Y-33448D01*
X39884Y-33441D01*
X39897Y-33437D01*
X39910Y-33436D01*
X39923Y-33437D01*
X39936Y-33441D01*
X39948Y-33447D01*
X39959Y-33455D01*
X39967Y-33465D01*
X39974Y-33477D01*
X39979Y-33491D01*
X39981Y-33505D01*
X39981Y-33505D01*
X39981Y-33505D01*
G37*
G36*
X40208Y-33420D02*
X40208Y-33434D01*
X40205Y-33447D01*
X40200Y-33459D01*
X40193Y-33471D01*
X40187Y-33477D01*
X40176Y-33486D01*
X40167Y-33491D01*
X40167Y-33424D01*
X40165Y-33416D01*
X40161Y-33409D01*
X40155Y-33403D01*
X40150Y-33400D01*
X40141Y-33397D01*
X40133Y-33397D01*
X40124Y-33399D01*
X40117Y-33404D01*
X40112Y-33411D01*
X40108Y-33419D01*
X40108Y-33427D01*
X40109Y-33436D01*
X40113Y-33443D01*
X40119Y-33449D01*
X40126Y-33454D01*
X40134Y-33456D01*
X40143Y-33456D01*
X40151Y-33453D01*
X40158Y-33448D01*
X40163Y-33441D01*
X40166Y-33433D01*
X40167Y-33424D01*
X40167Y-33491D01*
X40163Y-33493D01*
X40149Y-33497D01*
X40135Y-33498D01*
X40120Y-33496D01*
X40119Y-33495D01*
X40105Y-33490D01*
X40093Y-33482D01*
X40083Y-33472D01*
X40075Y-33461D01*
X40069Y-33447D01*
X40068Y-33446D01*
X40067Y-33440D01*
X40067Y-33433D01*
X40066Y-33426D01*
X40066Y-33425D01*
X40068Y-33411D01*
X40072Y-33397D01*
X40079Y-33385D01*
X40089Y-33374D01*
X40101Y-33365D01*
X40114Y-33359D01*
X40128Y-33356D01*
X40142Y-33355D01*
X40150Y-33356D01*
X40163Y-33360D01*
X40176Y-33366D01*
X40186Y-33374D01*
X40195Y-33384D01*
X40201Y-33396D01*
X40206Y-33408D01*
X40208Y-33420D01*
X40208Y-33420D01*
X40208Y-33420D01*
G37*
G36*
X40017Y-33328D02*
X40016Y-33334D01*
X40012Y-33337D01*
X40007Y-33339D01*
X40007Y-33339D01*
X40003Y-33338D01*
X40000Y-33337D01*
X39998Y-33334D01*
X39997Y-33329D01*
X39997Y-33328D01*
X39998Y-33323D01*
X40000Y-33320D01*
X40000Y-33320D01*
X40006Y-33317D01*
X40011Y-33318D01*
X40015Y-33321D01*
X40017Y-33325D01*
X40017Y-33328D01*
X40017Y-33328D01*
X40017Y-33328D01*
G37*
G36*
X40003Y-33296D02*
X40001Y-33301D01*
X40000Y-33302D01*
X39996Y-33304D01*
X39991Y-33304D01*
X39986Y-33302D01*
X39985Y-33302D01*
X39983Y-33297D01*
X39983Y-33292D01*
X39984Y-33287D01*
X39985Y-33286D01*
X39989Y-33284D01*
X39994Y-33284D01*
X39998Y-33285D01*
X40001Y-33287D01*
X40003Y-33291D01*
X40003Y-33296D01*
X40003Y-33296D01*
X40003Y-33296D01*
G37*
G36*
X39986Y-33258D02*
X39985Y-33262D01*
X39985Y-33264D01*
X39982Y-33266D01*
X39977Y-33268D01*
X39972Y-33267D01*
X39972Y-33267D01*
X39968Y-33265D01*
X39966Y-33261D01*
X39966Y-33257D01*
X39967Y-33251D01*
X39970Y-33248D01*
X39976Y-33247D01*
X39980Y-33248D01*
X39983Y-33249D01*
X39984Y-33249D01*
X39985Y-33253D01*
X39986Y-33258D01*
X39986Y-33258D01*
X39986Y-33258D01*
G37*
G54D16*
X40000Y-36000D03*
G54D17*
X39000Y-36000D03*
X38000Y-36000D03*
X37000Y-36000D03*
X36000Y-36000D03*
X35000Y-36000D03*
X34000Y-36000D03*
X33000Y-36000D03*
X32000Y-36000D03*
G54D18*
X32000Y-34087D03*
X32000Y-34913D03*
X38000Y-34087D03*
X38000Y-34913D03*
X33000Y-34087D03*
X33000Y-34913D03*
X34000Y-34087D03*
X34000Y-34913D03*
X35000Y-34087D03*
X35000Y-34913D03*
X36000Y-34087D03*
X36000Y-34913D03*
X37000Y-34087D03*
X37000Y-34913D03*
X39000Y-34087D03*
X39000Y-34913D03*
X32000Y-32337D03*
X32000Y-33163D03*
X33000Y-32337D03*
X33000Y-33163D03*
X34000Y-32337D03*
X34000Y-33163D03*
X35000Y-32337D03*
X35000Y-33163D03*
X36000Y-32337D03*
X36000Y-33163D03*
X37000Y-32337D03*
X37000Y-33163D03*
X38000Y-32337D03*
X38000Y-33163D03*
X39000Y-32337D03*
X39000Y-33163D03*
M02*
