G04 (created by PCBNEW (2013-02-15 BZR 3956)-testing) date Sun 17 Feb 2013 04:09:24 AM CET*
%MOIN*%
G04 Gerber Fmt 3.4, Leading zero omitted, Abs format*
%FSLAX34Y34*%
G01*
G70*
G90*
G04 APERTURE LIST*
%ADD10C,0.006*%
%ADD11C,0.0001*%
%ADD12R,0.0649606X0.0649606*%
%ADD13C,0.0649606*%
%ADD14R,0.0472X0.0472*%
G04 APERTURE END LIST*
G54D10*
G54D11*
G36*
X40462Y-33137D02*
X40462Y-33144D01*
X40459Y-33155D01*
X40454Y-33165D01*
X40448Y-33172D01*
X40447Y-33172D01*
X40443Y-33175D01*
X40435Y-33179D01*
X40425Y-33184D01*
X40415Y-33189D01*
X40415Y-33133D01*
X40413Y-33127D01*
X40410Y-33120D01*
X40405Y-33113D01*
X40398Y-33105D01*
X40391Y-33097D01*
X40383Y-33090D01*
X40375Y-33085D01*
X40374Y-33085D01*
X40368Y-33082D01*
X40364Y-33081D01*
X40359Y-33080D01*
X40353Y-33080D01*
X40352Y-33080D01*
X40337Y-33081D01*
X40321Y-33085D01*
X40305Y-33091D01*
X40289Y-33099D01*
X40274Y-33107D01*
X40272Y-33108D01*
X40263Y-33116D01*
X40253Y-33125D01*
X40243Y-33135D01*
X40233Y-33147D01*
X40224Y-33158D01*
X40221Y-33162D01*
X40217Y-33168D01*
X40213Y-33176D01*
X40209Y-33184D01*
X40204Y-33192D01*
X40200Y-33200D01*
X40196Y-33208D01*
X40193Y-33215D01*
X40191Y-33221D01*
X40189Y-33225D01*
X40189Y-33227D01*
X40189Y-33227D01*
X40191Y-33226D01*
X40195Y-33225D01*
X40201Y-33223D01*
X40209Y-33220D01*
X40219Y-33216D01*
X40227Y-33213D01*
X40250Y-33204D01*
X40272Y-33196D01*
X40294Y-33188D01*
X40314Y-33180D01*
X40334Y-33172D01*
X40351Y-33165D01*
X40367Y-33158D01*
X40381Y-33153D01*
X40392Y-33148D01*
X40400Y-33145D01*
X40406Y-33141D01*
X40411Y-33139D01*
X40413Y-33137D01*
X40414Y-33135D01*
X40415Y-33133D01*
X40415Y-33189D01*
X40412Y-33190D01*
X40397Y-33197D01*
X40379Y-33204D01*
X40359Y-33212D01*
X40337Y-33221D01*
X40312Y-33231D01*
X40285Y-33241D01*
X40257Y-33252D01*
X40253Y-33253D01*
X40206Y-33271D01*
X40211Y-33283D01*
X40212Y-33286D01*
X40214Y-33293D01*
X40217Y-33301D01*
X40221Y-33312D01*
X40226Y-33324D01*
X40231Y-33338D01*
X40236Y-33352D01*
X40242Y-33367D01*
X40244Y-33374D01*
X40274Y-33453D01*
X40268Y-33587D01*
X40267Y-33607D01*
X40266Y-33625D01*
X40266Y-33643D01*
X40265Y-33660D01*
X40264Y-33676D01*
X40264Y-33689D01*
X40263Y-33701D01*
X40263Y-33710D01*
X40262Y-33717D01*
X40262Y-33722D01*
X40262Y-33723D01*
X40262Y-33725D01*
X40260Y-33728D01*
X40256Y-33731D01*
X40251Y-33736D01*
X40246Y-33739D01*
X40239Y-33745D01*
X40230Y-33751D01*
X40226Y-33754D01*
X40226Y-33460D01*
X40190Y-33363D01*
X40184Y-33346D01*
X40178Y-33331D01*
X40173Y-33316D01*
X40167Y-33302D01*
X40163Y-33291D01*
X40159Y-33280D01*
X40156Y-33272D01*
X40154Y-33267D01*
X40152Y-33264D01*
X40152Y-33263D01*
X40149Y-33260D01*
X40144Y-33256D01*
X40138Y-33252D01*
X40130Y-33247D01*
X40122Y-33242D01*
X40113Y-33237D01*
X40105Y-33232D01*
X40103Y-33232D01*
X40085Y-33224D01*
X40067Y-33218D01*
X40049Y-33215D01*
X40032Y-33213D01*
X40022Y-33214D01*
X40007Y-33215D01*
X39990Y-33218D01*
X39973Y-33222D01*
X39955Y-33227D01*
X39945Y-33229D01*
X39940Y-33232D01*
X39936Y-33233D01*
X39934Y-33235D01*
X39933Y-33236D01*
X39934Y-33236D01*
X39935Y-33240D01*
X39937Y-33246D01*
X39940Y-33254D01*
X39944Y-33265D01*
X39949Y-33277D01*
X39955Y-33291D01*
X39961Y-33306D01*
X39968Y-33322D01*
X39975Y-33340D01*
X39982Y-33358D01*
X39990Y-33377D01*
X39998Y-33396D01*
X40006Y-33415D01*
X40013Y-33434D01*
X40021Y-33452D01*
X40028Y-33470D01*
X40036Y-33487D01*
X40042Y-33504D01*
X40048Y-33519D01*
X40054Y-33532D01*
X40059Y-33544D01*
X40063Y-33554D01*
X40066Y-33562D01*
X40069Y-33567D01*
X40070Y-33571D01*
X40070Y-33571D01*
X40072Y-33571D01*
X40076Y-33569D01*
X40081Y-33568D01*
X40083Y-33567D01*
X40108Y-33561D01*
X40134Y-33557D01*
X40149Y-33556D01*
X40160Y-33555D01*
X40172Y-33555D01*
X40184Y-33556D01*
X40196Y-33556D01*
X40207Y-33557D01*
X40215Y-33558D01*
X40216Y-33558D01*
X40223Y-33559D01*
X40224Y-33509D01*
X40226Y-33460D01*
X40226Y-33754D01*
X40223Y-33757D01*
X40221Y-33758D01*
X40221Y-33588D01*
X40221Y-33584D01*
X40221Y-33581D01*
X40220Y-33580D01*
X40220Y-33580D01*
X40217Y-33580D01*
X40212Y-33579D01*
X40206Y-33578D01*
X40198Y-33578D01*
X40192Y-33577D01*
X40164Y-33576D01*
X40136Y-33578D01*
X40109Y-33583D01*
X40085Y-33589D01*
X40068Y-33596D01*
X40050Y-33604D01*
X40050Y-33580D01*
X39982Y-33413D01*
X39973Y-33391D01*
X39964Y-33370D01*
X39956Y-33350D01*
X39948Y-33332D01*
X39941Y-33314D01*
X39935Y-33298D01*
X39929Y-33284D01*
X39924Y-33271D01*
X39920Y-33261D01*
X39917Y-33253D01*
X39914Y-33247D01*
X39913Y-33244D01*
X39913Y-33244D01*
X39912Y-33243D01*
X39910Y-33243D01*
X39906Y-33245D01*
X39900Y-33247D01*
X39898Y-33248D01*
X39877Y-33260D01*
X39857Y-33275D01*
X39838Y-33291D01*
X39821Y-33310D01*
X39810Y-33325D01*
X39803Y-33336D01*
X39795Y-33349D01*
X39787Y-33364D01*
X39780Y-33378D01*
X39774Y-33392D01*
X39769Y-33402D01*
X39763Y-33417D01*
X39800Y-33515D01*
X39836Y-33612D01*
X39871Y-33646D01*
X39880Y-33656D01*
X39888Y-33663D01*
X39895Y-33669D01*
X39899Y-33674D01*
X39903Y-33677D01*
X39905Y-33678D01*
X39907Y-33679D01*
X39908Y-33679D01*
X39908Y-33679D01*
X39910Y-33677D01*
X39914Y-33674D01*
X39919Y-33669D01*
X39925Y-33664D01*
X39928Y-33662D01*
X39947Y-33646D01*
X39966Y-33631D01*
X39983Y-33620D01*
X39998Y-33609D01*
X40013Y-33599D01*
X40028Y-33591D01*
X40032Y-33589D01*
X40050Y-33580D01*
X40050Y-33604D01*
X40050Y-33604D01*
X40030Y-33615D01*
X40010Y-33626D01*
X39991Y-33639D01*
X39989Y-33641D01*
X39984Y-33645D01*
X39977Y-33650D01*
X39970Y-33655D01*
X39962Y-33662D01*
X39954Y-33668D01*
X39946Y-33675D01*
X39939Y-33681D01*
X39933Y-33687D01*
X39927Y-33691D01*
X39924Y-33694D01*
X39922Y-33696D01*
X39922Y-33696D01*
X39923Y-33697D01*
X39926Y-33701D01*
X39931Y-33706D01*
X39937Y-33712D01*
X39944Y-33720D01*
X39952Y-33728D01*
X39962Y-33738D01*
X39967Y-33743D01*
X40012Y-33788D01*
X40019Y-33788D01*
X40024Y-33787D01*
X40031Y-33786D01*
X40038Y-33786D01*
X40055Y-33783D01*
X40074Y-33779D01*
X40094Y-33772D01*
X40114Y-33764D01*
X40136Y-33754D01*
X40157Y-33743D01*
X40165Y-33738D01*
X40172Y-33734D01*
X40180Y-33729D01*
X40188Y-33723D01*
X40196Y-33718D01*
X40203Y-33713D01*
X40209Y-33708D01*
X40213Y-33705D01*
X40215Y-33703D01*
X40215Y-33702D01*
X40216Y-33697D01*
X40216Y-33690D01*
X40217Y-33681D01*
X40218Y-33671D01*
X40218Y-33659D01*
X40218Y-33655D01*
X40219Y-33642D01*
X40219Y-33630D01*
X40220Y-33620D01*
X40220Y-33610D01*
X40221Y-33601D01*
X40221Y-33596D01*
X40221Y-33595D01*
X40221Y-33588D01*
X40221Y-33758D01*
X40218Y-33761D01*
X40211Y-33765D01*
X40207Y-33769D01*
X40205Y-33771D01*
X40204Y-33773D01*
X40204Y-33776D01*
X40205Y-33781D01*
X40205Y-33788D01*
X40206Y-33798D01*
X40206Y-33810D01*
X40207Y-33824D01*
X40208Y-33839D01*
X40208Y-33855D01*
X40209Y-33873D01*
X40210Y-33881D01*
X40211Y-33899D01*
X40212Y-33916D01*
X40212Y-33931D01*
X40213Y-33946D01*
X40214Y-33959D01*
X40214Y-33969D01*
X40214Y-33978D01*
X40214Y-33984D01*
X40214Y-33988D01*
X40214Y-33988D01*
X40214Y-33990D01*
X40215Y-33992D01*
X40217Y-33993D01*
X40221Y-33993D01*
X40227Y-33994D01*
X40232Y-33995D01*
X40239Y-33996D01*
X40249Y-33998D01*
X40259Y-34000D01*
X40270Y-34002D01*
X40279Y-34005D01*
X40287Y-34007D01*
X40290Y-34009D01*
X40305Y-34016D01*
X40320Y-34027D01*
X40334Y-34039D01*
X40346Y-34052D01*
X40352Y-34061D01*
X40360Y-34073D01*
X40367Y-34087D01*
X40372Y-34102D01*
X40377Y-34115D01*
X40379Y-34127D01*
X40381Y-34141D01*
X40381Y-34154D01*
X40380Y-34166D01*
X40378Y-34176D01*
X40378Y-34177D01*
X40373Y-34188D01*
X40366Y-34197D01*
X40359Y-34204D01*
X40354Y-34207D01*
X40346Y-34211D01*
X40334Y-34211D01*
X40334Y-34164D01*
X40334Y-34149D01*
X40334Y-34139D01*
X40333Y-34132D01*
X40331Y-34125D01*
X40331Y-34122D01*
X40324Y-34105D01*
X40315Y-34089D01*
X40304Y-34076D01*
X40292Y-34064D01*
X40279Y-34056D01*
X40269Y-34052D01*
X40264Y-34050D01*
X40256Y-34048D01*
X40246Y-34046D01*
X40237Y-34043D01*
X40227Y-34042D01*
X40218Y-34040D01*
X40214Y-34040D01*
X40209Y-34039D01*
X40206Y-34039D01*
X40204Y-34040D01*
X40204Y-34042D01*
X40204Y-34042D01*
X40203Y-34045D01*
X40202Y-34050D01*
X40200Y-34057D01*
X40199Y-34065D01*
X40198Y-34067D01*
X40197Y-34076D01*
X40195Y-34082D01*
X40195Y-34086D01*
X40195Y-34090D01*
X40195Y-34092D01*
X40196Y-34094D01*
X40198Y-34102D01*
X40200Y-34111D01*
X40202Y-34122D01*
X40203Y-34133D01*
X40204Y-34143D01*
X40204Y-34150D01*
X40204Y-34165D01*
X40269Y-34165D01*
X40334Y-34164D01*
X40334Y-34211D01*
X40168Y-34211D01*
X40168Y-33981D01*
X40164Y-33895D01*
X40163Y-33879D01*
X40162Y-33863D01*
X40161Y-33849D01*
X40161Y-33836D01*
X40160Y-33824D01*
X40160Y-33815D01*
X40159Y-33808D01*
X40159Y-33804D01*
X40159Y-33803D01*
X40158Y-33796D01*
X40142Y-33804D01*
X40118Y-33814D01*
X40092Y-33822D01*
X40066Y-33829D01*
X40045Y-33833D01*
X40043Y-33833D01*
X40040Y-33834D01*
X40038Y-33837D01*
X40036Y-33841D01*
X40032Y-33847D01*
X40031Y-33848D01*
X40021Y-33865D01*
X40010Y-33880D01*
X40002Y-33890D01*
X39994Y-33898D01*
X39985Y-33945D01*
X39985Y-33833D01*
X39985Y-33831D01*
X39984Y-33830D01*
X39982Y-33827D01*
X39979Y-33823D01*
X39974Y-33818D01*
X39967Y-33811D01*
X39959Y-33802D01*
X39952Y-33795D01*
X39943Y-33786D01*
X39936Y-33779D01*
X39929Y-33772D01*
X39924Y-33766D01*
X39919Y-33763D01*
X39917Y-33760D01*
X39917Y-33760D01*
X39915Y-33761D01*
X39911Y-33764D01*
X39906Y-33768D01*
X39901Y-33772D01*
X39899Y-33773D01*
X39892Y-33780D01*
X39884Y-33787D01*
X39876Y-33795D01*
X39869Y-33802D01*
X39863Y-33808D01*
X39858Y-33814D01*
X39855Y-33818D01*
X39854Y-33820D01*
X39854Y-33825D01*
X39857Y-33831D01*
X39862Y-33837D01*
X39869Y-33844D01*
X39877Y-33851D01*
X39886Y-33857D01*
X39896Y-33863D01*
X39906Y-33868D01*
X39915Y-33872D01*
X39925Y-33874D01*
X39927Y-33874D01*
X39934Y-33874D01*
X39942Y-33874D01*
X39949Y-33872D01*
X39950Y-33871D01*
X39955Y-33869D01*
X39961Y-33864D01*
X39967Y-33857D01*
X39974Y-33850D01*
X39979Y-33843D01*
X39983Y-33837D01*
X39985Y-33833D01*
X39985Y-33945D01*
X39980Y-33971D01*
X39977Y-33986D01*
X39975Y-34000D01*
X39972Y-34012D01*
X39970Y-34023D01*
X39969Y-34029D01*
X39969Y-33916D01*
X39968Y-33916D01*
X39964Y-33917D01*
X39960Y-33918D01*
X39952Y-33920D01*
X39941Y-33921D01*
X39930Y-33921D01*
X39919Y-33920D01*
X39908Y-33918D01*
X39906Y-33918D01*
X39890Y-33912D01*
X39874Y-33905D01*
X39859Y-33896D01*
X39845Y-33886D01*
X39833Y-33875D01*
X39822Y-33863D01*
X39814Y-33851D01*
X39809Y-33839D01*
X39809Y-33839D01*
X39807Y-33833D01*
X39806Y-33826D01*
X39806Y-33821D01*
X39806Y-33816D01*
X39807Y-33811D01*
X39809Y-33806D01*
X39812Y-33800D01*
X39813Y-33798D01*
X39816Y-33792D01*
X39820Y-33786D01*
X39825Y-33780D01*
X39831Y-33773D01*
X39835Y-33769D01*
X39842Y-33761D01*
X39851Y-33753D01*
X39859Y-33745D01*
X39867Y-33739D01*
X39883Y-33725D01*
X39863Y-33705D01*
X39857Y-33699D01*
X39851Y-33694D01*
X39847Y-33690D01*
X39843Y-33687D01*
X39842Y-33687D01*
X39841Y-33688D01*
X39839Y-33692D01*
X39835Y-33698D01*
X39831Y-33706D01*
X39825Y-33716D01*
X39819Y-33727D01*
X39813Y-33739D01*
X39808Y-33747D01*
X39776Y-33806D01*
X39754Y-33893D01*
X39750Y-33910D01*
X39746Y-33926D01*
X39742Y-33942D01*
X39738Y-33957D01*
X39735Y-33970D01*
X39733Y-33982D01*
X39731Y-33992D01*
X39729Y-33999D01*
X39729Y-34002D01*
X39725Y-34022D01*
X39730Y-34030D01*
X39733Y-34034D01*
X39735Y-34036D01*
X39737Y-34036D01*
X39739Y-34035D01*
X39754Y-34026D01*
X39769Y-34019D01*
X39786Y-34013D01*
X39787Y-34013D01*
X39796Y-34012D01*
X39806Y-34011D01*
X39818Y-34010D01*
X39830Y-34010D01*
X39842Y-34011D01*
X39852Y-34012D01*
X39855Y-34012D01*
X39875Y-34017D01*
X39894Y-34024D01*
X39910Y-34033D01*
X39925Y-34044D01*
X39931Y-34050D01*
X39936Y-34055D01*
X39939Y-34058D01*
X39940Y-34060D01*
X39941Y-34060D01*
X39941Y-34059D01*
X39942Y-34054D01*
X39943Y-34048D01*
X39945Y-34039D01*
X39947Y-34028D01*
X39950Y-34016D01*
X39952Y-34002D01*
X39955Y-33988D01*
X39958Y-33974D01*
X39960Y-33960D01*
X39963Y-33948D01*
X39965Y-33937D01*
X39967Y-33928D01*
X39968Y-33921D01*
X39969Y-33917D01*
X39969Y-33916D01*
X39969Y-34029D01*
X39968Y-34032D01*
X39967Y-34039D01*
X39966Y-34044D01*
X39966Y-34046D01*
X39967Y-34046D01*
X39970Y-34044D01*
X39972Y-34042D01*
X39977Y-34038D01*
X39983Y-34034D01*
X39987Y-34031D01*
X40003Y-34023D01*
X40021Y-34017D01*
X40040Y-34013D01*
X40059Y-34010D01*
X40079Y-34010D01*
X40098Y-34012D01*
X40116Y-34015D01*
X40132Y-34021D01*
X40137Y-34024D01*
X40143Y-34027D01*
X40149Y-34030D01*
X40151Y-34032D01*
X40157Y-34036D01*
X40163Y-34008D01*
X40168Y-33981D01*
X40168Y-34211D01*
X40158Y-34211D01*
X40158Y-34167D01*
X40157Y-34147D01*
X40155Y-34128D01*
X40152Y-34111D01*
X40146Y-34096D01*
X40138Y-34084D01*
X40128Y-34074D01*
X40120Y-34068D01*
X40110Y-34063D01*
X40101Y-34060D01*
X40091Y-34058D01*
X40079Y-34057D01*
X40070Y-34057D01*
X40055Y-34058D01*
X40041Y-34060D01*
X40029Y-34064D01*
X40016Y-34069D01*
X40016Y-34069D01*
X40003Y-34078D01*
X39993Y-34089D01*
X39984Y-34101D01*
X39977Y-34116D01*
X39973Y-34132D01*
X39971Y-34150D01*
X39971Y-34155D01*
X39971Y-34165D01*
X40040Y-34166D01*
X40056Y-34166D01*
X40071Y-34166D01*
X40086Y-34166D01*
X40100Y-34166D01*
X40113Y-34166D01*
X40123Y-34166D01*
X40131Y-34166D01*
X40134Y-34166D01*
X40158Y-34167D01*
X40158Y-34211D01*
X40010Y-34211D01*
X39977Y-34211D01*
X39944Y-34211D01*
X39925Y-34211D01*
X39925Y-34165D01*
X39924Y-34152D01*
X39922Y-34132D01*
X39917Y-34115D01*
X39911Y-34101D01*
X39902Y-34088D01*
X39892Y-34078D01*
X39879Y-34070D01*
X39864Y-34063D01*
X39855Y-34061D01*
X39846Y-34059D01*
X39836Y-34058D01*
X39825Y-34057D01*
X39814Y-34057D01*
X39804Y-34058D01*
X39797Y-34059D01*
X39783Y-34064D01*
X39770Y-34071D01*
X39760Y-34080D01*
X39751Y-34092D01*
X39745Y-34106D01*
X39740Y-34123D01*
X39737Y-34142D01*
X39737Y-34149D01*
X39736Y-34165D01*
X39831Y-34165D01*
X39925Y-34165D01*
X39925Y-34211D01*
X39912Y-34211D01*
X39879Y-34211D01*
X39848Y-34211D01*
X39817Y-34212D01*
X39787Y-34212D01*
X39759Y-34212D01*
X39732Y-34212D01*
X39707Y-34212D01*
X39705Y-34212D01*
X39705Y-34078D01*
X39705Y-34076D01*
X39704Y-34074D01*
X39701Y-34070D01*
X39697Y-34065D01*
X39693Y-34058D01*
X39693Y-34058D01*
X39688Y-34051D01*
X39684Y-34047D01*
X39681Y-34044D01*
X39679Y-34042D01*
X39676Y-34041D01*
X39673Y-34040D01*
X39666Y-34039D01*
X39656Y-34039D01*
X39650Y-34040D01*
X39650Y-33990D01*
X39650Y-33990D01*
X39648Y-33988D01*
X39646Y-33985D01*
X39642Y-33979D01*
X39637Y-33972D01*
X39631Y-33964D01*
X39629Y-33962D01*
X39624Y-33955D01*
X39620Y-33949D01*
X39616Y-33944D01*
X39613Y-33940D01*
X39611Y-33935D01*
X39608Y-33930D01*
X39606Y-33924D01*
X39604Y-33917D01*
X39601Y-33909D01*
X39598Y-33898D01*
X39595Y-33885D01*
X39591Y-33874D01*
X39589Y-33865D01*
X39587Y-33858D01*
X39585Y-33853D01*
X39584Y-33850D01*
X39584Y-33849D01*
X39583Y-33850D01*
X39582Y-33854D01*
X39580Y-33860D01*
X39579Y-33867D01*
X39577Y-33874D01*
X39576Y-33882D01*
X39576Y-33885D01*
X39575Y-33895D01*
X39575Y-33906D01*
X39576Y-33916D01*
X39578Y-33927D01*
X39582Y-33939D01*
X39587Y-33952D01*
X39593Y-33967D01*
X39601Y-33984D01*
X39602Y-33985D01*
X39608Y-33997D01*
X39614Y-33996D01*
X39618Y-33996D01*
X39625Y-33995D01*
X39632Y-33994D01*
X39635Y-33994D01*
X39643Y-33993D01*
X39648Y-33992D01*
X39650Y-33990D01*
X39650Y-34040D01*
X39645Y-34040D01*
X39632Y-34041D01*
X39619Y-34043D01*
X39607Y-34046D01*
X39595Y-34049D01*
X39588Y-34052D01*
X39574Y-34058D01*
X39561Y-34068D01*
X39550Y-34079D01*
X39540Y-34093D01*
X39532Y-34109D01*
X39526Y-34125D01*
X39524Y-34134D01*
X39523Y-34143D01*
X39522Y-34149D01*
X39522Y-34154D01*
X39522Y-34157D01*
X39524Y-34164D01*
X39580Y-34165D01*
X39594Y-34165D01*
X39609Y-34166D01*
X39623Y-34166D01*
X39637Y-34166D01*
X39649Y-34166D01*
X39658Y-34166D01*
X39663Y-34166D01*
X39690Y-34167D01*
X39690Y-34156D01*
X39690Y-34143D01*
X39692Y-34129D01*
X39694Y-34114D01*
X39697Y-34101D01*
X39701Y-34090D01*
X39702Y-34086D01*
X39704Y-34082D01*
X39705Y-34078D01*
X39705Y-34212D01*
X39683Y-34212D01*
X39662Y-34212D01*
X39643Y-34212D01*
X39626Y-34212D01*
X39612Y-34212D01*
X39601Y-34212D01*
X39595Y-34213D01*
X39577Y-34213D01*
X39562Y-34213D01*
X39550Y-34213D01*
X39539Y-34213D01*
X39531Y-34213D01*
X39525Y-34213D01*
X39520Y-34213D01*
X39516Y-34212D01*
X39513Y-34212D01*
X39510Y-34212D01*
X39508Y-34211D01*
X39499Y-34206D01*
X39491Y-34199D01*
X39484Y-34189D01*
X39479Y-34178D01*
X39476Y-34165D01*
X39475Y-34151D01*
X39475Y-34143D01*
X39479Y-34121D01*
X39485Y-34100D01*
X39493Y-34081D01*
X39504Y-34062D01*
X39517Y-34046D01*
X39531Y-34031D01*
X39547Y-34019D01*
X39552Y-34017D01*
X39562Y-34011D01*
X39554Y-33995D01*
X39548Y-33981D01*
X39542Y-33968D01*
X39538Y-33956D01*
X39534Y-33946D01*
X39533Y-33942D01*
X39530Y-33927D01*
X39529Y-33911D01*
X39529Y-33893D01*
X39530Y-33875D01*
X39532Y-33859D01*
X39533Y-33854D01*
X39533Y-33851D01*
X39531Y-33849D01*
X39528Y-33848D01*
X39522Y-33847D01*
X39517Y-33847D01*
X39505Y-33847D01*
X39494Y-33844D01*
X39486Y-33840D01*
X39481Y-33835D01*
X39478Y-33828D01*
X39478Y-33820D01*
X39478Y-33819D01*
X39479Y-33814D01*
X39482Y-33809D01*
X39486Y-33805D01*
X39492Y-33802D01*
X39499Y-33799D01*
X39509Y-33797D01*
X39521Y-33795D01*
X39533Y-33793D01*
X39553Y-33790D01*
X39558Y-33780D01*
X39563Y-33770D01*
X39557Y-33766D01*
X39547Y-33756D01*
X39538Y-33745D01*
X39532Y-33733D01*
X39529Y-33720D01*
X39528Y-33706D01*
X39529Y-33693D01*
X39534Y-33680D01*
X39541Y-33667D01*
X39548Y-33658D01*
X39560Y-33649D01*
X39571Y-33642D01*
X39584Y-33639D01*
X39598Y-33637D01*
X39604Y-33637D01*
X39612Y-33638D01*
X39618Y-33639D01*
X39624Y-33641D01*
X39630Y-33644D01*
X39642Y-33652D01*
X39653Y-33661D01*
X39661Y-33673D01*
X39667Y-33686D01*
X39670Y-33700D01*
X39670Y-33709D01*
X39668Y-33724D01*
X39664Y-33737D01*
X39657Y-33750D01*
X39648Y-33760D01*
X39638Y-33768D01*
X39632Y-33771D01*
X39629Y-33773D01*
X39629Y-33711D01*
X39628Y-33702D01*
X39625Y-33693D01*
X39619Y-33686D01*
X39611Y-33681D01*
X39606Y-33679D01*
X39597Y-33678D01*
X39589Y-33680D01*
X39582Y-33684D01*
X39576Y-33689D01*
X39572Y-33696D01*
X39569Y-33704D01*
X39569Y-33712D01*
X39572Y-33720D01*
X39575Y-33725D01*
X39581Y-33732D01*
X39589Y-33737D01*
X39598Y-33738D01*
X39607Y-33737D01*
X39612Y-33735D01*
X39620Y-33729D01*
X39625Y-33722D01*
X39628Y-33713D01*
X39629Y-33711D01*
X39629Y-33773D01*
X39626Y-33774D01*
X39622Y-33776D01*
X39617Y-33777D01*
X39614Y-33779D01*
X39614Y-33781D01*
X39614Y-33783D01*
X39615Y-33785D01*
X39616Y-33786D01*
X39619Y-33786D01*
X39624Y-33787D01*
X39628Y-33787D01*
X39637Y-33787D01*
X39646Y-33788D01*
X39654Y-33789D01*
X39661Y-33790D01*
X39666Y-33791D01*
X39667Y-33792D01*
X39674Y-33796D01*
X39678Y-33803D01*
X39680Y-33810D01*
X39679Y-33817D01*
X39676Y-33824D01*
X39673Y-33828D01*
X39667Y-33831D01*
X39660Y-33835D01*
X39651Y-33837D01*
X39643Y-33839D01*
X39638Y-33840D01*
X39635Y-33841D01*
X39634Y-33841D01*
X39633Y-33843D01*
X39634Y-33847D01*
X39635Y-33854D01*
X39637Y-33861D01*
X39639Y-33870D01*
X39642Y-33879D01*
X39645Y-33889D01*
X39647Y-33898D01*
X39650Y-33905D01*
X39653Y-33912D01*
X39655Y-33916D01*
X39655Y-33917D01*
X39661Y-33925D01*
X39667Y-33933D01*
X39672Y-33941D01*
X39677Y-33948D01*
X39682Y-33953D01*
X39685Y-33958D01*
X39688Y-33960D01*
X39688Y-33960D01*
X39689Y-33958D01*
X39690Y-33954D01*
X39692Y-33947D01*
X39694Y-33938D01*
X39697Y-33927D01*
X39700Y-33914D01*
X39704Y-33900D01*
X39708Y-33885D01*
X39711Y-33873D01*
X39732Y-33787D01*
X39770Y-33719D01*
X39808Y-33650D01*
X39802Y-33644D01*
X39800Y-33643D01*
X39799Y-33641D01*
X39798Y-33639D01*
X39796Y-33636D01*
X39794Y-33632D01*
X39792Y-33626D01*
X39789Y-33621D01*
X39786Y-33613D01*
X39782Y-33602D01*
X39778Y-33590D01*
X39772Y-33576D01*
X39766Y-33559D01*
X39760Y-33545D01*
X39754Y-33528D01*
X39748Y-33513D01*
X39743Y-33498D01*
X39738Y-33485D01*
X39734Y-33473D01*
X39730Y-33464D01*
X39727Y-33456D01*
X39725Y-33451D01*
X39724Y-33448D01*
X39724Y-33448D01*
X39723Y-33447D01*
X39722Y-33447D01*
X39720Y-33447D01*
X39715Y-33447D01*
X39709Y-33448D01*
X39708Y-33448D01*
X39708Y-33400D01*
X39707Y-33398D01*
X39704Y-33396D01*
X39699Y-33392D01*
X39695Y-33389D01*
X39672Y-33374D01*
X39650Y-33361D01*
X39627Y-33352D01*
X39605Y-33345D01*
X39583Y-33341D01*
X39566Y-33341D01*
X39553Y-33341D01*
X39542Y-33342D01*
X39531Y-33344D01*
X39520Y-33347D01*
X39518Y-33348D01*
X39505Y-33352D01*
X39496Y-33356D01*
X39488Y-33361D01*
X39483Y-33365D01*
X39481Y-33368D01*
X39474Y-33379D01*
X39469Y-33392D01*
X39467Y-33400D01*
X39466Y-33406D01*
X39465Y-33414D01*
X39465Y-33422D01*
X39465Y-33428D01*
X39466Y-33434D01*
X39467Y-33435D01*
X39468Y-33437D01*
X39469Y-33438D01*
X39472Y-33438D01*
X39476Y-33438D01*
X39482Y-33438D01*
X39490Y-33437D01*
X39494Y-33436D01*
X39507Y-33435D01*
X39522Y-33432D01*
X39539Y-33430D01*
X39558Y-33427D01*
X39578Y-33424D01*
X39597Y-33420D01*
X39617Y-33417D01*
X39625Y-33415D01*
X39643Y-33412D01*
X39659Y-33409D01*
X39672Y-33407D01*
X39682Y-33405D01*
X39691Y-33404D01*
X39697Y-33402D01*
X39702Y-33402D01*
X39705Y-33401D01*
X39707Y-33400D01*
X39708Y-33400D01*
X39708Y-33400D01*
X39708Y-33448D01*
X39701Y-33450D01*
X39695Y-33451D01*
X39678Y-33454D01*
X39659Y-33457D01*
X39639Y-33461D01*
X39618Y-33464D01*
X39597Y-33468D01*
X39577Y-33471D01*
X39558Y-33474D01*
X39541Y-33477D01*
X39532Y-33479D01*
X39517Y-33481D01*
X39504Y-33482D01*
X39493Y-33483D01*
X39483Y-33484D01*
X39474Y-33484D01*
X39473Y-33484D01*
X39452Y-33485D01*
X39444Y-33479D01*
X39434Y-33471D01*
X39427Y-33460D01*
X39421Y-33448D01*
X39418Y-33433D01*
X39418Y-33417D01*
X39419Y-33405D01*
X39422Y-33387D01*
X39427Y-33370D01*
X39434Y-33354D01*
X39443Y-33340D01*
X39453Y-33328D01*
X39465Y-33319D01*
X39472Y-33315D01*
X39496Y-33305D01*
X39520Y-33298D01*
X39545Y-33294D01*
X39570Y-33294D01*
X39596Y-33296D01*
X39622Y-33301D01*
X39647Y-33309D01*
X39672Y-33319D01*
X39681Y-33324D01*
X39692Y-33330D01*
X39703Y-33337D01*
X39713Y-33344D01*
X39722Y-33350D01*
X39729Y-33355D01*
X39736Y-33361D01*
X39742Y-33349D01*
X39757Y-33320D01*
X39774Y-33294D01*
X39793Y-33271D01*
X39812Y-33250D01*
X39834Y-33232D01*
X39854Y-33219D01*
X39876Y-33207D01*
X39900Y-33196D01*
X39926Y-33186D01*
X39933Y-33184D01*
X39959Y-33177D01*
X39984Y-33171D01*
X40008Y-33168D01*
X40030Y-33167D01*
X40051Y-33168D01*
X40072Y-33171D01*
X40092Y-33176D01*
X40112Y-33184D01*
X40129Y-33192D01*
X40148Y-33201D01*
X40152Y-33191D01*
X40165Y-33164D01*
X40180Y-33139D01*
X40196Y-33116D01*
X40214Y-33096D01*
X40233Y-33079D01*
X40254Y-33064D01*
X40276Y-33052D01*
X40300Y-33042D01*
X40321Y-33037D01*
X40335Y-33034D01*
X40349Y-33033D01*
X40363Y-33033D01*
X40375Y-33035D01*
X40382Y-33037D01*
X40397Y-33044D01*
X40410Y-33052D01*
X40423Y-33062D01*
X40434Y-33074D01*
X40444Y-33086D01*
X40452Y-33099D01*
X40458Y-33112D01*
X40461Y-33125D01*
X40462Y-33137D01*
X40462Y-33137D01*
X40462Y-33137D01*
G37*
G36*
X39941Y-34014D02*
X39940Y-34018D01*
X39939Y-34023D01*
X39938Y-34023D01*
X39934Y-34026D01*
X39931Y-34026D01*
X39927Y-34025D01*
X39923Y-34022D01*
X39921Y-34018D01*
X39921Y-34013D01*
X39923Y-34009D01*
X39927Y-34006D01*
X39931Y-34005D01*
X39936Y-34006D01*
X39940Y-34009D01*
X39941Y-34014D01*
X39941Y-34014D01*
X39941Y-34014D01*
G37*
G36*
X39952Y-33973D02*
X39952Y-33978D01*
X39950Y-33983D01*
X39949Y-33983D01*
X39945Y-33986D01*
X39940Y-33986D01*
X39937Y-33984D01*
X39935Y-33983D01*
X39933Y-33979D01*
X39932Y-33974D01*
X39933Y-33971D01*
X39937Y-33967D01*
X39940Y-33965D01*
X39945Y-33965D01*
X39949Y-33968D01*
X39951Y-33970D01*
X39952Y-33973D01*
X39952Y-33973D01*
X39952Y-33973D01*
G37*
G36*
X39961Y-33938D02*
X39960Y-33943D01*
X39957Y-33947D01*
X39952Y-33949D01*
X39948Y-33949D01*
X39947Y-33949D01*
X39942Y-33946D01*
X39940Y-33941D01*
X39940Y-33936D01*
X39942Y-33932D01*
X39946Y-33929D01*
X39950Y-33928D01*
X39955Y-33930D01*
X39959Y-33932D01*
X39961Y-33936D01*
X39961Y-33938D01*
X39961Y-33938D01*
X39961Y-33938D01*
G37*
G36*
X40165Y-33641D02*
X40165Y-33645D01*
X40165Y-33647D01*
X40162Y-33658D01*
X40157Y-33669D01*
X40150Y-33680D01*
X40141Y-33691D01*
X40130Y-33701D01*
X40118Y-33710D01*
X40105Y-33718D01*
X40092Y-33723D01*
X40087Y-33725D01*
X40076Y-33727D01*
X40063Y-33728D01*
X40052Y-33728D01*
X40050Y-33727D01*
X40043Y-33726D01*
X40036Y-33724D01*
X40033Y-33723D01*
X40027Y-33720D01*
X40021Y-33717D01*
X40015Y-33713D01*
X40011Y-33710D01*
X40008Y-33708D01*
X40007Y-33706D01*
X40009Y-33705D01*
X40013Y-33703D01*
X40019Y-33700D01*
X40026Y-33696D01*
X40035Y-33691D01*
X40046Y-33687D01*
X40056Y-33681D01*
X40067Y-33676D01*
X40078Y-33671D01*
X40088Y-33667D01*
X40097Y-33662D01*
X40105Y-33659D01*
X40115Y-33655D01*
X40124Y-33651D01*
X40134Y-33648D01*
X40143Y-33644D01*
X40151Y-33642D01*
X40158Y-33640D01*
X40162Y-33639D01*
X40163Y-33639D01*
X40165Y-33639D01*
X40165Y-33641D01*
X40165Y-33641D01*
X40165Y-33641D01*
G37*
G36*
X40164Y-33595D02*
X40163Y-33600D01*
X40160Y-33603D01*
X40155Y-33605D01*
X40150Y-33605D01*
X40147Y-33602D01*
X40144Y-33598D01*
X40144Y-33593D01*
X40146Y-33588D01*
X40149Y-33585D01*
X40154Y-33584D01*
X40159Y-33585D01*
X40163Y-33589D01*
X40164Y-33594D01*
X40164Y-33595D01*
X40164Y-33595D01*
X40164Y-33595D01*
G37*
G36*
X40201Y-33594D02*
X40200Y-33600D01*
X40197Y-33603D01*
X40192Y-33605D01*
X40187Y-33604D01*
X40184Y-33602D01*
X40181Y-33598D01*
X40181Y-33593D01*
X40182Y-33588D01*
X40183Y-33587D01*
X40187Y-33584D01*
X40192Y-33584D01*
X40197Y-33586D01*
X40200Y-33589D01*
X40201Y-33594D01*
X40201Y-33594D01*
X40201Y-33594D01*
X40201Y-33594D01*
G37*
G36*
X39961Y-33505D02*
X39960Y-33519D01*
X39956Y-33533D01*
X39949Y-33546D01*
X39940Y-33558D01*
X39940Y-33558D01*
X39929Y-33567D01*
X39920Y-33572D01*
X39920Y-33511D01*
X39920Y-33503D01*
X39917Y-33494D01*
X39912Y-33487D01*
X39907Y-33482D01*
X39901Y-33479D01*
X39894Y-33478D01*
X39892Y-33478D01*
X39886Y-33478D01*
X39882Y-33478D01*
X39878Y-33480D01*
X39875Y-33482D01*
X39868Y-33488D01*
X39863Y-33495D01*
X39861Y-33504D01*
X39861Y-33512D01*
X39863Y-33520D01*
X39868Y-33527D01*
X39874Y-33532D01*
X39882Y-33536D01*
X39884Y-33537D01*
X39891Y-33537D01*
X39899Y-33536D01*
X39906Y-33532D01*
X39913Y-33527D01*
X39918Y-33519D01*
X39920Y-33511D01*
X39920Y-33572D01*
X39917Y-33574D01*
X39903Y-33578D01*
X39889Y-33579D01*
X39874Y-33577D01*
X39872Y-33576D01*
X39859Y-33571D01*
X39847Y-33564D01*
X39837Y-33555D01*
X39829Y-33544D01*
X39824Y-33532D01*
X39820Y-33520D01*
X39819Y-33506D01*
X39821Y-33493D01*
X39825Y-33480D01*
X39831Y-33468D01*
X39840Y-33457D01*
X39840Y-33457D01*
X39852Y-33448D01*
X39864Y-33441D01*
X39877Y-33437D01*
X39890Y-33436D01*
X39903Y-33437D01*
X39916Y-33441D01*
X39928Y-33447D01*
X39939Y-33455D01*
X39947Y-33465D01*
X39954Y-33477D01*
X39959Y-33491D01*
X39961Y-33505D01*
X39961Y-33505D01*
X39961Y-33505D01*
G37*
G36*
X40188Y-33420D02*
X40188Y-33434D01*
X40185Y-33447D01*
X40180Y-33459D01*
X40173Y-33471D01*
X40167Y-33477D01*
X40156Y-33486D01*
X40147Y-33491D01*
X40147Y-33424D01*
X40145Y-33416D01*
X40141Y-33409D01*
X40135Y-33403D01*
X40130Y-33400D01*
X40121Y-33397D01*
X40113Y-33397D01*
X40104Y-33399D01*
X40097Y-33404D01*
X40092Y-33411D01*
X40088Y-33419D01*
X40088Y-33427D01*
X40089Y-33436D01*
X40093Y-33443D01*
X40099Y-33449D01*
X40106Y-33454D01*
X40114Y-33456D01*
X40123Y-33456D01*
X40131Y-33453D01*
X40138Y-33448D01*
X40143Y-33441D01*
X40146Y-33433D01*
X40147Y-33424D01*
X40147Y-33491D01*
X40143Y-33493D01*
X40129Y-33497D01*
X40115Y-33498D01*
X40100Y-33496D01*
X40099Y-33495D01*
X40085Y-33490D01*
X40073Y-33482D01*
X40063Y-33472D01*
X40055Y-33461D01*
X40049Y-33447D01*
X40048Y-33446D01*
X40047Y-33440D01*
X40047Y-33433D01*
X40046Y-33426D01*
X40046Y-33425D01*
X40048Y-33411D01*
X40052Y-33397D01*
X40059Y-33385D01*
X40069Y-33374D01*
X40081Y-33365D01*
X40094Y-33359D01*
X40108Y-33356D01*
X40122Y-33355D01*
X40130Y-33356D01*
X40143Y-33360D01*
X40156Y-33366D01*
X40166Y-33374D01*
X40175Y-33384D01*
X40181Y-33396D01*
X40186Y-33408D01*
X40188Y-33420D01*
X40188Y-33420D01*
X40188Y-33420D01*
G37*
G36*
X39997Y-33328D02*
X39996Y-33334D01*
X39992Y-33337D01*
X39987Y-33339D01*
X39987Y-33339D01*
X39983Y-33338D01*
X39980Y-33337D01*
X39978Y-33334D01*
X39977Y-33329D01*
X39977Y-33328D01*
X39978Y-33323D01*
X39980Y-33320D01*
X39980Y-33320D01*
X39986Y-33317D01*
X39991Y-33318D01*
X39995Y-33321D01*
X39997Y-33325D01*
X39997Y-33328D01*
X39997Y-33328D01*
X39997Y-33328D01*
G37*
G36*
X39983Y-33296D02*
X39981Y-33301D01*
X39980Y-33302D01*
X39976Y-33304D01*
X39971Y-33304D01*
X39966Y-33302D01*
X39965Y-33302D01*
X39963Y-33297D01*
X39963Y-33292D01*
X39964Y-33287D01*
X39965Y-33286D01*
X39969Y-33284D01*
X39974Y-33284D01*
X39978Y-33285D01*
X39981Y-33287D01*
X39983Y-33291D01*
X39983Y-33296D01*
X39983Y-33296D01*
X39983Y-33296D01*
G37*
G36*
X39966Y-33258D02*
X39965Y-33262D01*
X39965Y-33264D01*
X39962Y-33266D01*
X39957Y-33268D01*
X39952Y-33267D01*
X39952Y-33267D01*
X39948Y-33265D01*
X39946Y-33261D01*
X39946Y-33257D01*
X39947Y-33251D01*
X39950Y-33248D01*
X39956Y-33247D01*
X39960Y-33248D01*
X39963Y-33249D01*
X39964Y-33249D01*
X39965Y-33253D01*
X39966Y-33258D01*
X39966Y-33258D01*
X39966Y-33258D01*
G37*
G54D12*
X40000Y-36000D03*
G54D13*
X39000Y-36000D03*
X38000Y-36000D03*
X37000Y-36000D03*
X36000Y-36000D03*
X35000Y-36000D03*
X34000Y-36000D03*
X33000Y-36000D03*
X32000Y-36000D03*
G54D14*
X32000Y-34087D03*
X32000Y-34913D03*
X38000Y-34087D03*
X38000Y-34913D03*
X33000Y-34087D03*
X33000Y-34913D03*
X34000Y-34087D03*
X34000Y-34913D03*
X35000Y-34087D03*
X35000Y-34913D03*
X36000Y-34087D03*
X36000Y-34913D03*
X37000Y-34087D03*
X37000Y-34913D03*
X39000Y-34087D03*
X39000Y-34913D03*
X32000Y-32337D03*
X32000Y-33163D03*
X33000Y-32337D03*
X33000Y-33163D03*
X34000Y-32337D03*
X34000Y-33163D03*
X35000Y-32337D03*
X35000Y-33163D03*
X36000Y-32337D03*
X36000Y-33163D03*
X37000Y-32337D03*
X37000Y-33163D03*
X38000Y-32337D03*
X38000Y-33163D03*
X39000Y-32337D03*
X39000Y-33163D03*
M02*
