G04 (created by PCBNEW (2013-02-09 BZR 3938)-testing) date Mon 11 Feb 2013 04:53:39 PM CET*
%MOIN*%
G04 Gerber Fmt 3.4, Leading zero omitted, Abs format*
%FSLAX34Y34*%
G01*
G70*
G90*
G04 APERTURE LIST*
%ADD10C,0.006*%
%ADD11R,0.0649606X0.0649606*%
%ADD12C,0.0649606*%
%ADD13R,0.0433X0.0393*%
%ADD14C,0.025*%
%ADD15C,0.02*%
%ADD16C,0.008*%
G04 APERTURE END LIST*
G54D10*
G54D11*
X40000Y-36000D03*
G54D12*
X39000Y-36000D03*
X38000Y-36000D03*
X37000Y-36000D03*
X36000Y-36000D03*
X35000Y-36000D03*
X34000Y-36000D03*
X33000Y-36000D03*
X32000Y-36000D03*
G54D13*
X37992Y-35137D03*
X37992Y-34469D03*
X37007Y-35137D03*
X37007Y-34469D03*
X36003Y-35137D03*
X36003Y-34469D03*
X35000Y-35137D03*
X35000Y-34469D03*
X33996Y-35137D03*
X33996Y-34469D03*
X32992Y-35137D03*
X32992Y-34469D03*
X32007Y-35137D03*
X32007Y-34469D03*
X38996Y-35137D03*
X38996Y-34469D03*
G54D14*
X33500Y-34925D03*
X33500Y-32325D03*
X38500Y-34900D03*
X38500Y-32350D03*
X39550Y-34900D03*
X39550Y-32325D03*
X32500Y-34925D03*
X32500Y-32350D03*
X36500Y-34900D03*
X36500Y-32325D03*
X34475Y-34925D03*
X34475Y-32325D03*
X35525Y-34900D03*
X35525Y-32325D03*
X37525Y-34900D03*
X37525Y-32325D03*
G54D15*
X32992Y-34469D02*
X33500Y-34469D01*
X33475Y-34475D02*
X33500Y-34475D01*
X33494Y-34475D02*
X33475Y-34475D01*
X33500Y-34469D02*
X33494Y-34475D01*
X33500Y-32325D02*
X33500Y-34475D01*
X33500Y-34475D02*
X33500Y-34925D01*
X37992Y-34469D02*
X38500Y-34469D01*
X38475Y-34475D02*
X38500Y-34475D01*
X38494Y-34475D02*
X38475Y-34475D01*
X38500Y-34469D02*
X38494Y-34475D01*
X38500Y-32350D02*
X38500Y-34475D01*
X38500Y-34475D02*
X38500Y-34900D01*
X38996Y-34469D02*
X39550Y-34469D01*
X39525Y-34450D02*
X39550Y-34450D01*
X39530Y-34450D02*
X39525Y-34450D01*
X39550Y-34469D02*
X39530Y-34450D01*
X39550Y-32325D02*
X39550Y-34450D01*
X39550Y-34450D02*
X39550Y-34900D01*
X32007Y-34469D02*
X32480Y-34469D01*
X32480Y-34469D02*
X32500Y-34450D01*
X32500Y-32350D02*
X32500Y-34450D01*
X32500Y-34450D02*
X32500Y-34925D01*
X36003Y-34469D02*
X36500Y-34469D01*
X36475Y-34450D02*
X36500Y-34450D01*
X36480Y-34450D02*
X36475Y-34450D01*
X36500Y-34469D02*
X36480Y-34450D01*
X36500Y-32325D02*
X36500Y-34450D01*
X36500Y-34450D02*
X36500Y-34900D01*
X33996Y-34469D02*
X34475Y-34469D01*
X34450Y-34450D02*
X34475Y-34450D01*
X34455Y-34450D02*
X34450Y-34450D01*
X34475Y-34469D02*
X34455Y-34450D01*
X34475Y-32325D02*
X34475Y-34450D01*
X34475Y-34450D02*
X34475Y-34925D01*
X35000Y-34469D02*
X35525Y-34469D01*
X35525Y-34469D02*
X35525Y-34475D01*
X35525Y-32325D02*
X35525Y-34475D01*
X35525Y-34475D02*
X35525Y-34900D01*
X37007Y-34469D02*
X37525Y-34469D01*
X37475Y-34475D02*
X37525Y-34475D01*
X37519Y-34475D02*
X37475Y-34475D01*
X37525Y-34469D02*
X37519Y-34475D01*
X37525Y-32325D02*
X37525Y-34475D01*
X37525Y-34475D02*
X37525Y-34900D01*
X38996Y-35137D02*
X38996Y-35996D01*
X38996Y-35996D02*
X39000Y-36000D01*
X37992Y-35137D02*
X37992Y-35992D01*
X37992Y-35992D02*
X38000Y-36000D01*
X37007Y-35137D02*
X37007Y-35992D01*
X37007Y-35992D02*
X37000Y-36000D01*
X36003Y-35137D02*
X36003Y-35996D01*
X36003Y-35996D02*
X36000Y-36000D01*
X32000Y-36000D02*
X32000Y-35145D01*
X32000Y-35145D02*
X32007Y-35137D01*
X32992Y-35137D02*
X32992Y-35992D01*
X32992Y-35992D02*
X33000Y-36000D01*
X33996Y-35137D02*
X33996Y-35996D01*
X33996Y-35996D02*
X34000Y-36000D01*
X35000Y-35137D02*
X35000Y-36000D01*
G54D10*
G36*
X40471Y-36495D02*
X40463Y-36495D01*
X40463Y-36312D01*
X40463Y-35687D01*
X40463Y-35660D01*
X40457Y-35634D01*
X40447Y-35609D01*
X40431Y-35586D01*
X40412Y-35567D01*
X40390Y-35552D01*
X40365Y-35542D01*
X40338Y-35536D01*
X40093Y-35536D01*
X40058Y-35571D01*
X40058Y-35941D01*
X40428Y-35941D01*
X40463Y-35906D01*
X40463Y-35687D01*
X40463Y-36312D01*
X40463Y-36093D01*
X40428Y-36058D01*
X40058Y-36058D01*
X40058Y-36428D01*
X40093Y-36463D01*
X40338Y-36463D01*
X40365Y-36457D01*
X40390Y-36447D01*
X40412Y-36432D01*
X40431Y-36413D01*
X40447Y-36390D01*
X40457Y-36365D01*
X40463Y-36339D01*
X40463Y-36312D01*
X40463Y-36495D01*
X39941Y-36495D01*
X39941Y-36428D01*
X39941Y-36058D01*
X39941Y-35941D01*
X39941Y-35571D01*
X39906Y-35536D01*
X39815Y-35536D01*
X39815Y-34874D01*
X39804Y-34823D01*
X39790Y-34786D01*
X39790Y-34450D01*
X39790Y-32437D01*
X39802Y-32409D01*
X39814Y-32358D01*
X39815Y-32299D01*
X39804Y-32248D01*
X39785Y-32199D01*
X39756Y-32156D01*
X39719Y-32119D01*
X39676Y-32090D01*
X39628Y-32070D01*
X39577Y-32060D01*
X39525Y-32059D01*
X39474Y-32069D01*
X39426Y-32089D01*
X39383Y-32117D01*
X39346Y-32153D01*
X39316Y-32196D01*
X39296Y-32244D01*
X39285Y-32295D01*
X39284Y-32347D01*
X39294Y-32398D01*
X39310Y-32438D01*
X39310Y-34172D01*
X39302Y-34164D01*
X39279Y-34148D01*
X39254Y-34138D01*
X39227Y-34132D01*
X39199Y-34132D01*
X38765Y-34132D01*
X38740Y-34137D01*
X38740Y-32462D01*
X38752Y-32434D01*
X38764Y-32383D01*
X38765Y-32324D01*
X38754Y-32273D01*
X38735Y-32224D01*
X38706Y-32181D01*
X38669Y-32144D01*
X38626Y-32115D01*
X38578Y-32095D01*
X38527Y-32085D01*
X38475Y-32084D01*
X38424Y-32094D01*
X38376Y-32114D01*
X38333Y-32142D01*
X38296Y-32178D01*
X38266Y-32221D01*
X38246Y-32269D01*
X38235Y-32320D01*
X38234Y-32372D01*
X38244Y-32423D01*
X38260Y-32463D01*
X38260Y-34142D01*
X38250Y-34138D01*
X38223Y-34132D01*
X38195Y-34132D01*
X37765Y-34132D01*
X37765Y-32437D01*
X37777Y-32409D01*
X37789Y-32358D01*
X37790Y-32299D01*
X37779Y-32248D01*
X37760Y-32199D01*
X37731Y-32156D01*
X37694Y-32119D01*
X37651Y-32090D01*
X37603Y-32070D01*
X37552Y-32060D01*
X37500Y-32059D01*
X37449Y-32069D01*
X37401Y-32089D01*
X37358Y-32117D01*
X37321Y-32153D01*
X37291Y-32196D01*
X37271Y-32244D01*
X37260Y-32295D01*
X37259Y-32347D01*
X37269Y-32398D01*
X37285Y-32438D01*
X37285Y-34146D01*
X37265Y-34138D01*
X37239Y-34132D01*
X37211Y-34132D01*
X36777Y-34132D01*
X36750Y-34137D01*
X36740Y-34142D01*
X36740Y-32437D01*
X36752Y-32409D01*
X36764Y-32358D01*
X36765Y-32299D01*
X36754Y-32248D01*
X36735Y-32199D01*
X36706Y-32156D01*
X36669Y-32119D01*
X36626Y-32090D01*
X36578Y-32070D01*
X36527Y-32060D01*
X36475Y-32059D01*
X36424Y-32069D01*
X36376Y-32089D01*
X36333Y-32117D01*
X36296Y-32153D01*
X36266Y-32196D01*
X36246Y-32244D01*
X36235Y-32295D01*
X36234Y-32347D01*
X36244Y-32398D01*
X36260Y-32438D01*
X36260Y-34137D01*
X36235Y-34132D01*
X36207Y-34132D01*
X35773Y-34132D01*
X35765Y-34134D01*
X35765Y-32437D01*
X35777Y-32409D01*
X35789Y-32358D01*
X35790Y-32299D01*
X35779Y-32248D01*
X35760Y-32199D01*
X35731Y-32156D01*
X35694Y-32119D01*
X35651Y-32090D01*
X35603Y-32070D01*
X35552Y-32060D01*
X35500Y-32059D01*
X35449Y-32069D01*
X35401Y-32089D01*
X35358Y-32117D01*
X35321Y-32153D01*
X35291Y-32196D01*
X35271Y-32244D01*
X35260Y-32295D01*
X35259Y-32347D01*
X35269Y-32398D01*
X35285Y-32438D01*
X35285Y-34149D01*
X35283Y-34148D01*
X35258Y-34138D01*
X35231Y-34132D01*
X35203Y-34132D01*
X34769Y-34132D01*
X34742Y-34137D01*
X34717Y-34148D01*
X34715Y-34150D01*
X34715Y-32437D01*
X34727Y-32409D01*
X34739Y-32358D01*
X34740Y-32299D01*
X34729Y-32248D01*
X34710Y-32199D01*
X34681Y-32156D01*
X34644Y-32119D01*
X34601Y-32090D01*
X34553Y-32070D01*
X34502Y-32060D01*
X34450Y-32059D01*
X34399Y-32069D01*
X34351Y-32089D01*
X34308Y-32117D01*
X34271Y-32153D01*
X34241Y-32196D01*
X34221Y-32244D01*
X34210Y-32295D01*
X34209Y-32347D01*
X34219Y-32398D01*
X34235Y-32438D01*
X34235Y-34134D01*
X34227Y-34132D01*
X34199Y-34132D01*
X33765Y-34132D01*
X33740Y-34137D01*
X33740Y-32437D01*
X33752Y-32409D01*
X33764Y-32358D01*
X33765Y-32299D01*
X33754Y-32248D01*
X33735Y-32199D01*
X33706Y-32156D01*
X33669Y-32119D01*
X33626Y-32090D01*
X33578Y-32070D01*
X33527Y-32060D01*
X33475Y-32059D01*
X33424Y-32069D01*
X33376Y-32089D01*
X33333Y-32117D01*
X33296Y-32153D01*
X33266Y-32196D01*
X33246Y-32244D01*
X33235Y-32295D01*
X33234Y-32347D01*
X33244Y-32398D01*
X33260Y-32438D01*
X33260Y-34142D01*
X33250Y-34138D01*
X33223Y-34132D01*
X33195Y-34132D01*
X32761Y-34132D01*
X32740Y-34136D01*
X32740Y-32462D01*
X32752Y-32434D01*
X32764Y-32383D01*
X32765Y-32324D01*
X32754Y-32273D01*
X32735Y-32224D01*
X32706Y-32181D01*
X32669Y-32144D01*
X32626Y-32115D01*
X32578Y-32095D01*
X32527Y-32085D01*
X32475Y-32084D01*
X32424Y-32094D01*
X32376Y-32114D01*
X32333Y-32142D01*
X32296Y-32178D01*
X32266Y-32221D01*
X32246Y-32269D01*
X32235Y-32320D01*
X32234Y-32372D01*
X32244Y-32423D01*
X32260Y-32463D01*
X32260Y-34137D01*
X32239Y-34132D01*
X32211Y-34132D01*
X31777Y-34132D01*
X31750Y-34137D01*
X31725Y-34148D01*
X31702Y-34163D01*
X31682Y-34182D01*
X31667Y-34205D01*
X31656Y-34231D01*
X31651Y-34257D01*
X31651Y-34285D01*
X31651Y-34679D01*
X31656Y-34706D01*
X31667Y-34731D01*
X31682Y-34754D01*
X31701Y-34774D01*
X31724Y-34789D01*
X31749Y-34800D01*
X31764Y-34803D01*
X31750Y-34805D01*
X31725Y-34816D01*
X31702Y-34831D01*
X31682Y-34850D01*
X31667Y-34873D01*
X31656Y-34899D01*
X31651Y-34925D01*
X31651Y-34953D01*
X31651Y-35347D01*
X31656Y-35374D01*
X31667Y-35399D01*
X31682Y-35422D01*
X31701Y-35442D01*
X31724Y-35457D01*
X31749Y-35468D01*
X31760Y-35470D01*
X31760Y-35601D01*
X31707Y-35636D01*
X31642Y-35699D01*
X31590Y-35774D01*
X31554Y-35858D01*
X31535Y-35947D01*
X31534Y-36039D01*
X31551Y-36128D01*
X31584Y-36213D01*
X31633Y-36290D01*
X31697Y-36355D01*
X31772Y-36407D01*
X31855Y-36444D01*
X31944Y-36463D01*
X32035Y-36465D01*
X32125Y-36449D01*
X32210Y-36416D01*
X32287Y-36368D01*
X32353Y-36305D01*
X32406Y-36230D01*
X32443Y-36147D01*
X32463Y-36058D01*
X32464Y-35954D01*
X32447Y-35865D01*
X32412Y-35780D01*
X32361Y-35704D01*
X32297Y-35640D01*
X32240Y-35601D01*
X32240Y-35473D01*
X32265Y-35468D01*
X32290Y-35457D01*
X32313Y-35442D01*
X32332Y-35423D01*
X32348Y-35400D01*
X32358Y-35375D01*
X32364Y-35348D01*
X32364Y-35320D01*
X32364Y-35153D01*
X32370Y-35157D01*
X32417Y-35178D01*
X32468Y-35189D01*
X32520Y-35190D01*
X32571Y-35181D01*
X32620Y-35162D01*
X32635Y-35152D01*
X32635Y-35347D01*
X32640Y-35374D01*
X32651Y-35399D01*
X32666Y-35422D01*
X32685Y-35442D01*
X32708Y-35457D01*
X32734Y-35468D01*
X32752Y-35471D01*
X32752Y-35606D01*
X32707Y-35636D01*
X32642Y-35699D01*
X32590Y-35774D01*
X32554Y-35858D01*
X32535Y-35947D01*
X32534Y-36039D01*
X32551Y-36128D01*
X32584Y-36213D01*
X32633Y-36290D01*
X32697Y-36355D01*
X32772Y-36407D01*
X32855Y-36444D01*
X32944Y-36463D01*
X33035Y-36465D01*
X33125Y-36449D01*
X33210Y-36416D01*
X33287Y-36368D01*
X33353Y-36305D01*
X33406Y-36230D01*
X33443Y-36147D01*
X33463Y-36058D01*
X33464Y-35954D01*
X33447Y-35865D01*
X33412Y-35780D01*
X33361Y-35704D01*
X33297Y-35640D01*
X33232Y-35595D01*
X33232Y-35471D01*
X33249Y-35468D01*
X33274Y-35457D01*
X33297Y-35442D01*
X33317Y-35423D01*
X33332Y-35400D01*
X33343Y-35375D01*
X33348Y-35348D01*
X33348Y-35320D01*
X33348Y-35142D01*
X33370Y-35157D01*
X33417Y-35178D01*
X33468Y-35189D01*
X33520Y-35190D01*
X33571Y-35181D01*
X33620Y-35162D01*
X33639Y-35150D01*
X33639Y-35347D01*
X33644Y-35374D01*
X33655Y-35399D01*
X33670Y-35422D01*
X33689Y-35442D01*
X33712Y-35457D01*
X33737Y-35468D01*
X33756Y-35471D01*
X33756Y-35604D01*
X33707Y-35636D01*
X33642Y-35699D01*
X33590Y-35774D01*
X33554Y-35858D01*
X33535Y-35947D01*
X33534Y-36039D01*
X33551Y-36128D01*
X33584Y-36213D01*
X33633Y-36290D01*
X33697Y-36355D01*
X33772Y-36407D01*
X33855Y-36444D01*
X33944Y-36463D01*
X34035Y-36465D01*
X34125Y-36449D01*
X34210Y-36416D01*
X34287Y-36368D01*
X34353Y-36305D01*
X34406Y-36230D01*
X34443Y-36147D01*
X34463Y-36058D01*
X34464Y-35954D01*
X34447Y-35865D01*
X34412Y-35780D01*
X34361Y-35704D01*
X34297Y-35640D01*
X34236Y-35598D01*
X34236Y-35471D01*
X34253Y-35468D01*
X34278Y-35457D01*
X34301Y-35442D01*
X34320Y-35423D01*
X34336Y-35400D01*
X34346Y-35375D01*
X34352Y-35348D01*
X34352Y-35320D01*
X34352Y-35160D01*
X34392Y-35178D01*
X34443Y-35189D01*
X34495Y-35190D01*
X34546Y-35181D01*
X34595Y-35162D01*
X34638Y-35134D01*
X34643Y-35130D01*
X34643Y-35347D01*
X34648Y-35374D01*
X34659Y-35399D01*
X34674Y-35422D01*
X34693Y-35442D01*
X34716Y-35457D01*
X34741Y-35468D01*
X34760Y-35471D01*
X34760Y-35601D01*
X34707Y-35636D01*
X34642Y-35699D01*
X34590Y-35774D01*
X34554Y-35858D01*
X34535Y-35947D01*
X34534Y-36039D01*
X34551Y-36128D01*
X34584Y-36213D01*
X34633Y-36290D01*
X34697Y-36355D01*
X34772Y-36407D01*
X34855Y-36444D01*
X34944Y-36463D01*
X35035Y-36465D01*
X35125Y-36449D01*
X35210Y-36416D01*
X35287Y-36368D01*
X35353Y-36305D01*
X35406Y-36230D01*
X35443Y-36147D01*
X35463Y-36058D01*
X35464Y-35954D01*
X35447Y-35865D01*
X35412Y-35780D01*
X35361Y-35704D01*
X35297Y-35640D01*
X35240Y-35601D01*
X35240Y-35471D01*
X35257Y-35468D01*
X35282Y-35457D01*
X35305Y-35442D01*
X35324Y-35423D01*
X35340Y-35400D01*
X35350Y-35375D01*
X35356Y-35348D01*
X35356Y-35320D01*
X35356Y-35105D01*
X35395Y-35132D01*
X35442Y-35153D01*
X35493Y-35164D01*
X35545Y-35165D01*
X35596Y-35156D01*
X35645Y-35137D01*
X35647Y-35136D01*
X35647Y-35347D01*
X35652Y-35374D01*
X35663Y-35399D01*
X35678Y-35422D01*
X35697Y-35442D01*
X35720Y-35457D01*
X35745Y-35468D01*
X35763Y-35471D01*
X35763Y-35598D01*
X35707Y-35636D01*
X35642Y-35699D01*
X35590Y-35774D01*
X35554Y-35858D01*
X35535Y-35947D01*
X35534Y-36039D01*
X35551Y-36128D01*
X35584Y-36213D01*
X35633Y-36290D01*
X35697Y-36355D01*
X35772Y-36407D01*
X35855Y-36444D01*
X35944Y-36463D01*
X36035Y-36465D01*
X36125Y-36449D01*
X36210Y-36416D01*
X36287Y-36368D01*
X36353Y-36305D01*
X36406Y-36230D01*
X36443Y-36147D01*
X36463Y-36058D01*
X36464Y-35954D01*
X36447Y-35865D01*
X36412Y-35780D01*
X36361Y-35704D01*
X36297Y-35640D01*
X36243Y-35603D01*
X36243Y-35471D01*
X36261Y-35468D01*
X36286Y-35457D01*
X36309Y-35442D01*
X36328Y-35423D01*
X36344Y-35400D01*
X36354Y-35375D01*
X36360Y-35348D01*
X36360Y-35320D01*
X36360Y-35125D01*
X36370Y-35132D01*
X36417Y-35153D01*
X36468Y-35164D01*
X36520Y-35165D01*
X36571Y-35156D01*
X36620Y-35137D01*
X36651Y-35117D01*
X36651Y-35347D01*
X36656Y-35374D01*
X36667Y-35399D01*
X36682Y-35422D01*
X36701Y-35442D01*
X36724Y-35457D01*
X36749Y-35468D01*
X36767Y-35471D01*
X36767Y-35596D01*
X36707Y-35636D01*
X36642Y-35699D01*
X36590Y-35774D01*
X36554Y-35858D01*
X36535Y-35947D01*
X36534Y-36039D01*
X36551Y-36128D01*
X36584Y-36213D01*
X36633Y-36290D01*
X36697Y-36355D01*
X36772Y-36407D01*
X36855Y-36444D01*
X36944Y-36463D01*
X37035Y-36465D01*
X37125Y-36449D01*
X37210Y-36416D01*
X37287Y-36368D01*
X37353Y-36305D01*
X37406Y-36230D01*
X37443Y-36147D01*
X37463Y-36058D01*
X37464Y-35954D01*
X37447Y-35865D01*
X37412Y-35780D01*
X37361Y-35704D01*
X37297Y-35640D01*
X37247Y-35606D01*
X37247Y-35471D01*
X37265Y-35468D01*
X37290Y-35457D01*
X37313Y-35442D01*
X37332Y-35423D01*
X37348Y-35400D01*
X37358Y-35375D01*
X37364Y-35348D01*
X37364Y-35320D01*
X37364Y-35111D01*
X37395Y-35132D01*
X37442Y-35153D01*
X37493Y-35164D01*
X37545Y-35165D01*
X37596Y-35156D01*
X37635Y-35141D01*
X37635Y-35347D01*
X37640Y-35374D01*
X37651Y-35399D01*
X37666Y-35422D01*
X37685Y-35442D01*
X37708Y-35457D01*
X37734Y-35468D01*
X37752Y-35471D01*
X37752Y-35606D01*
X37707Y-35636D01*
X37642Y-35699D01*
X37590Y-35774D01*
X37554Y-35858D01*
X37535Y-35947D01*
X37534Y-36039D01*
X37551Y-36128D01*
X37584Y-36213D01*
X37633Y-36290D01*
X37697Y-36355D01*
X37772Y-36407D01*
X37855Y-36444D01*
X37944Y-36463D01*
X38035Y-36465D01*
X38125Y-36449D01*
X38210Y-36416D01*
X38287Y-36368D01*
X38353Y-36305D01*
X38406Y-36230D01*
X38443Y-36147D01*
X38463Y-36058D01*
X38464Y-35954D01*
X38447Y-35865D01*
X38412Y-35780D01*
X38361Y-35704D01*
X38297Y-35640D01*
X38232Y-35595D01*
X38232Y-35471D01*
X38249Y-35468D01*
X38274Y-35457D01*
X38297Y-35442D01*
X38317Y-35423D01*
X38332Y-35400D01*
X38343Y-35375D01*
X38348Y-35348D01*
X38348Y-35320D01*
X38348Y-35117D01*
X38370Y-35132D01*
X38417Y-35153D01*
X38468Y-35164D01*
X38520Y-35165D01*
X38571Y-35156D01*
X38620Y-35137D01*
X38639Y-35125D01*
X38639Y-35347D01*
X38644Y-35374D01*
X38655Y-35399D01*
X38670Y-35422D01*
X38689Y-35442D01*
X38712Y-35457D01*
X38737Y-35468D01*
X38756Y-35471D01*
X38756Y-35604D01*
X38707Y-35636D01*
X38642Y-35699D01*
X38590Y-35774D01*
X38554Y-35858D01*
X38535Y-35947D01*
X38534Y-36039D01*
X38551Y-36128D01*
X38584Y-36213D01*
X38633Y-36290D01*
X38697Y-36355D01*
X38772Y-36407D01*
X38855Y-36444D01*
X38944Y-36463D01*
X39035Y-36465D01*
X39125Y-36449D01*
X39210Y-36416D01*
X39287Y-36368D01*
X39353Y-36305D01*
X39406Y-36230D01*
X39443Y-36147D01*
X39463Y-36058D01*
X39464Y-35954D01*
X39447Y-35865D01*
X39412Y-35780D01*
X39361Y-35704D01*
X39297Y-35640D01*
X39236Y-35598D01*
X39236Y-35471D01*
X39253Y-35468D01*
X39278Y-35457D01*
X39301Y-35442D01*
X39320Y-35423D01*
X39336Y-35400D01*
X39346Y-35375D01*
X39352Y-35348D01*
X39352Y-35320D01*
X39352Y-35077D01*
X39377Y-35102D01*
X39420Y-35132D01*
X39467Y-35153D01*
X39518Y-35164D01*
X39570Y-35165D01*
X39621Y-35156D01*
X39670Y-35137D01*
X39713Y-35109D01*
X39751Y-35073D01*
X39781Y-35031D01*
X39802Y-34984D01*
X39814Y-34933D01*
X39815Y-34874D01*
X39815Y-35536D01*
X39661Y-35536D01*
X39634Y-35542D01*
X39609Y-35552D01*
X39587Y-35567D01*
X39568Y-35586D01*
X39552Y-35609D01*
X39542Y-35634D01*
X39536Y-35660D01*
X39536Y-35687D01*
X39536Y-35906D01*
X39571Y-35941D01*
X39941Y-35941D01*
X39941Y-36058D01*
X39571Y-36058D01*
X39536Y-36093D01*
X39536Y-36312D01*
X39536Y-36339D01*
X39542Y-36365D01*
X39552Y-36390D01*
X39568Y-36413D01*
X39587Y-36432D01*
X39609Y-36447D01*
X39634Y-36457D01*
X39661Y-36463D01*
X39906Y-36463D01*
X39941Y-36428D01*
X39941Y-36495D01*
X31496Y-36495D01*
X31496Y-31949D01*
X40471Y-31949D01*
X40471Y-36495D01*
X40471Y-36495D01*
G37*
G54D16*
X40471Y-36495D02*
X40463Y-36495D01*
X40463Y-36312D01*
X40463Y-35687D01*
X40463Y-35660D01*
X40457Y-35634D01*
X40447Y-35609D01*
X40431Y-35586D01*
X40412Y-35567D01*
X40390Y-35552D01*
X40365Y-35542D01*
X40338Y-35536D01*
X40093Y-35536D01*
X40058Y-35571D01*
X40058Y-35941D01*
X40428Y-35941D01*
X40463Y-35906D01*
X40463Y-35687D01*
X40463Y-36312D01*
X40463Y-36093D01*
X40428Y-36058D01*
X40058Y-36058D01*
X40058Y-36428D01*
X40093Y-36463D01*
X40338Y-36463D01*
X40365Y-36457D01*
X40390Y-36447D01*
X40412Y-36432D01*
X40431Y-36413D01*
X40447Y-36390D01*
X40457Y-36365D01*
X40463Y-36339D01*
X40463Y-36312D01*
X40463Y-36495D01*
X39941Y-36495D01*
X39941Y-36428D01*
X39941Y-36058D01*
X39941Y-35941D01*
X39941Y-35571D01*
X39906Y-35536D01*
X39815Y-35536D01*
X39815Y-34874D01*
X39804Y-34823D01*
X39790Y-34786D01*
X39790Y-34450D01*
X39790Y-32437D01*
X39802Y-32409D01*
X39814Y-32358D01*
X39815Y-32299D01*
X39804Y-32248D01*
X39785Y-32199D01*
X39756Y-32156D01*
X39719Y-32119D01*
X39676Y-32090D01*
X39628Y-32070D01*
X39577Y-32060D01*
X39525Y-32059D01*
X39474Y-32069D01*
X39426Y-32089D01*
X39383Y-32117D01*
X39346Y-32153D01*
X39316Y-32196D01*
X39296Y-32244D01*
X39285Y-32295D01*
X39284Y-32347D01*
X39294Y-32398D01*
X39310Y-32438D01*
X39310Y-34172D01*
X39302Y-34164D01*
X39279Y-34148D01*
X39254Y-34138D01*
X39227Y-34132D01*
X39199Y-34132D01*
X38765Y-34132D01*
X38740Y-34137D01*
X38740Y-32462D01*
X38752Y-32434D01*
X38764Y-32383D01*
X38765Y-32324D01*
X38754Y-32273D01*
X38735Y-32224D01*
X38706Y-32181D01*
X38669Y-32144D01*
X38626Y-32115D01*
X38578Y-32095D01*
X38527Y-32085D01*
X38475Y-32084D01*
X38424Y-32094D01*
X38376Y-32114D01*
X38333Y-32142D01*
X38296Y-32178D01*
X38266Y-32221D01*
X38246Y-32269D01*
X38235Y-32320D01*
X38234Y-32372D01*
X38244Y-32423D01*
X38260Y-32463D01*
X38260Y-34142D01*
X38250Y-34138D01*
X38223Y-34132D01*
X38195Y-34132D01*
X37765Y-34132D01*
X37765Y-32437D01*
X37777Y-32409D01*
X37789Y-32358D01*
X37790Y-32299D01*
X37779Y-32248D01*
X37760Y-32199D01*
X37731Y-32156D01*
X37694Y-32119D01*
X37651Y-32090D01*
X37603Y-32070D01*
X37552Y-32060D01*
X37500Y-32059D01*
X37449Y-32069D01*
X37401Y-32089D01*
X37358Y-32117D01*
X37321Y-32153D01*
X37291Y-32196D01*
X37271Y-32244D01*
X37260Y-32295D01*
X37259Y-32347D01*
X37269Y-32398D01*
X37285Y-32438D01*
X37285Y-34146D01*
X37265Y-34138D01*
X37239Y-34132D01*
X37211Y-34132D01*
X36777Y-34132D01*
X36750Y-34137D01*
X36740Y-34142D01*
X36740Y-32437D01*
X36752Y-32409D01*
X36764Y-32358D01*
X36765Y-32299D01*
X36754Y-32248D01*
X36735Y-32199D01*
X36706Y-32156D01*
X36669Y-32119D01*
X36626Y-32090D01*
X36578Y-32070D01*
X36527Y-32060D01*
X36475Y-32059D01*
X36424Y-32069D01*
X36376Y-32089D01*
X36333Y-32117D01*
X36296Y-32153D01*
X36266Y-32196D01*
X36246Y-32244D01*
X36235Y-32295D01*
X36234Y-32347D01*
X36244Y-32398D01*
X36260Y-32438D01*
X36260Y-34137D01*
X36235Y-34132D01*
X36207Y-34132D01*
X35773Y-34132D01*
X35765Y-34134D01*
X35765Y-32437D01*
X35777Y-32409D01*
X35789Y-32358D01*
X35790Y-32299D01*
X35779Y-32248D01*
X35760Y-32199D01*
X35731Y-32156D01*
X35694Y-32119D01*
X35651Y-32090D01*
X35603Y-32070D01*
X35552Y-32060D01*
X35500Y-32059D01*
X35449Y-32069D01*
X35401Y-32089D01*
X35358Y-32117D01*
X35321Y-32153D01*
X35291Y-32196D01*
X35271Y-32244D01*
X35260Y-32295D01*
X35259Y-32347D01*
X35269Y-32398D01*
X35285Y-32438D01*
X35285Y-34149D01*
X35283Y-34148D01*
X35258Y-34138D01*
X35231Y-34132D01*
X35203Y-34132D01*
X34769Y-34132D01*
X34742Y-34137D01*
X34717Y-34148D01*
X34715Y-34150D01*
X34715Y-32437D01*
X34727Y-32409D01*
X34739Y-32358D01*
X34740Y-32299D01*
X34729Y-32248D01*
X34710Y-32199D01*
X34681Y-32156D01*
X34644Y-32119D01*
X34601Y-32090D01*
X34553Y-32070D01*
X34502Y-32060D01*
X34450Y-32059D01*
X34399Y-32069D01*
X34351Y-32089D01*
X34308Y-32117D01*
X34271Y-32153D01*
X34241Y-32196D01*
X34221Y-32244D01*
X34210Y-32295D01*
X34209Y-32347D01*
X34219Y-32398D01*
X34235Y-32438D01*
X34235Y-34134D01*
X34227Y-34132D01*
X34199Y-34132D01*
X33765Y-34132D01*
X33740Y-34137D01*
X33740Y-32437D01*
X33752Y-32409D01*
X33764Y-32358D01*
X33765Y-32299D01*
X33754Y-32248D01*
X33735Y-32199D01*
X33706Y-32156D01*
X33669Y-32119D01*
X33626Y-32090D01*
X33578Y-32070D01*
X33527Y-32060D01*
X33475Y-32059D01*
X33424Y-32069D01*
X33376Y-32089D01*
X33333Y-32117D01*
X33296Y-32153D01*
X33266Y-32196D01*
X33246Y-32244D01*
X33235Y-32295D01*
X33234Y-32347D01*
X33244Y-32398D01*
X33260Y-32438D01*
X33260Y-34142D01*
X33250Y-34138D01*
X33223Y-34132D01*
X33195Y-34132D01*
X32761Y-34132D01*
X32740Y-34136D01*
X32740Y-32462D01*
X32752Y-32434D01*
X32764Y-32383D01*
X32765Y-32324D01*
X32754Y-32273D01*
X32735Y-32224D01*
X32706Y-32181D01*
X32669Y-32144D01*
X32626Y-32115D01*
X32578Y-32095D01*
X32527Y-32085D01*
X32475Y-32084D01*
X32424Y-32094D01*
X32376Y-32114D01*
X32333Y-32142D01*
X32296Y-32178D01*
X32266Y-32221D01*
X32246Y-32269D01*
X32235Y-32320D01*
X32234Y-32372D01*
X32244Y-32423D01*
X32260Y-32463D01*
X32260Y-34137D01*
X32239Y-34132D01*
X32211Y-34132D01*
X31777Y-34132D01*
X31750Y-34137D01*
X31725Y-34148D01*
X31702Y-34163D01*
X31682Y-34182D01*
X31667Y-34205D01*
X31656Y-34231D01*
X31651Y-34257D01*
X31651Y-34285D01*
X31651Y-34679D01*
X31656Y-34706D01*
X31667Y-34731D01*
X31682Y-34754D01*
X31701Y-34774D01*
X31724Y-34789D01*
X31749Y-34800D01*
X31764Y-34803D01*
X31750Y-34805D01*
X31725Y-34816D01*
X31702Y-34831D01*
X31682Y-34850D01*
X31667Y-34873D01*
X31656Y-34899D01*
X31651Y-34925D01*
X31651Y-34953D01*
X31651Y-35347D01*
X31656Y-35374D01*
X31667Y-35399D01*
X31682Y-35422D01*
X31701Y-35442D01*
X31724Y-35457D01*
X31749Y-35468D01*
X31760Y-35470D01*
X31760Y-35601D01*
X31707Y-35636D01*
X31642Y-35699D01*
X31590Y-35774D01*
X31554Y-35858D01*
X31535Y-35947D01*
X31534Y-36039D01*
X31551Y-36128D01*
X31584Y-36213D01*
X31633Y-36290D01*
X31697Y-36355D01*
X31772Y-36407D01*
X31855Y-36444D01*
X31944Y-36463D01*
X32035Y-36465D01*
X32125Y-36449D01*
X32210Y-36416D01*
X32287Y-36368D01*
X32353Y-36305D01*
X32406Y-36230D01*
X32443Y-36147D01*
X32463Y-36058D01*
X32464Y-35954D01*
X32447Y-35865D01*
X32412Y-35780D01*
X32361Y-35704D01*
X32297Y-35640D01*
X32240Y-35601D01*
X32240Y-35473D01*
X32265Y-35468D01*
X32290Y-35457D01*
X32313Y-35442D01*
X32332Y-35423D01*
X32348Y-35400D01*
X32358Y-35375D01*
X32364Y-35348D01*
X32364Y-35320D01*
X32364Y-35153D01*
X32370Y-35157D01*
X32417Y-35178D01*
X32468Y-35189D01*
X32520Y-35190D01*
X32571Y-35181D01*
X32620Y-35162D01*
X32635Y-35152D01*
X32635Y-35347D01*
X32640Y-35374D01*
X32651Y-35399D01*
X32666Y-35422D01*
X32685Y-35442D01*
X32708Y-35457D01*
X32734Y-35468D01*
X32752Y-35471D01*
X32752Y-35606D01*
X32707Y-35636D01*
X32642Y-35699D01*
X32590Y-35774D01*
X32554Y-35858D01*
X32535Y-35947D01*
X32534Y-36039D01*
X32551Y-36128D01*
X32584Y-36213D01*
X32633Y-36290D01*
X32697Y-36355D01*
X32772Y-36407D01*
X32855Y-36444D01*
X32944Y-36463D01*
X33035Y-36465D01*
X33125Y-36449D01*
X33210Y-36416D01*
X33287Y-36368D01*
X33353Y-36305D01*
X33406Y-36230D01*
X33443Y-36147D01*
X33463Y-36058D01*
X33464Y-35954D01*
X33447Y-35865D01*
X33412Y-35780D01*
X33361Y-35704D01*
X33297Y-35640D01*
X33232Y-35595D01*
X33232Y-35471D01*
X33249Y-35468D01*
X33274Y-35457D01*
X33297Y-35442D01*
X33317Y-35423D01*
X33332Y-35400D01*
X33343Y-35375D01*
X33348Y-35348D01*
X33348Y-35320D01*
X33348Y-35142D01*
X33370Y-35157D01*
X33417Y-35178D01*
X33468Y-35189D01*
X33520Y-35190D01*
X33571Y-35181D01*
X33620Y-35162D01*
X33639Y-35150D01*
X33639Y-35347D01*
X33644Y-35374D01*
X33655Y-35399D01*
X33670Y-35422D01*
X33689Y-35442D01*
X33712Y-35457D01*
X33737Y-35468D01*
X33756Y-35471D01*
X33756Y-35604D01*
X33707Y-35636D01*
X33642Y-35699D01*
X33590Y-35774D01*
X33554Y-35858D01*
X33535Y-35947D01*
X33534Y-36039D01*
X33551Y-36128D01*
X33584Y-36213D01*
X33633Y-36290D01*
X33697Y-36355D01*
X33772Y-36407D01*
X33855Y-36444D01*
X33944Y-36463D01*
X34035Y-36465D01*
X34125Y-36449D01*
X34210Y-36416D01*
X34287Y-36368D01*
X34353Y-36305D01*
X34406Y-36230D01*
X34443Y-36147D01*
X34463Y-36058D01*
X34464Y-35954D01*
X34447Y-35865D01*
X34412Y-35780D01*
X34361Y-35704D01*
X34297Y-35640D01*
X34236Y-35598D01*
X34236Y-35471D01*
X34253Y-35468D01*
X34278Y-35457D01*
X34301Y-35442D01*
X34320Y-35423D01*
X34336Y-35400D01*
X34346Y-35375D01*
X34352Y-35348D01*
X34352Y-35320D01*
X34352Y-35160D01*
X34392Y-35178D01*
X34443Y-35189D01*
X34495Y-35190D01*
X34546Y-35181D01*
X34595Y-35162D01*
X34638Y-35134D01*
X34643Y-35130D01*
X34643Y-35347D01*
X34648Y-35374D01*
X34659Y-35399D01*
X34674Y-35422D01*
X34693Y-35442D01*
X34716Y-35457D01*
X34741Y-35468D01*
X34760Y-35471D01*
X34760Y-35601D01*
X34707Y-35636D01*
X34642Y-35699D01*
X34590Y-35774D01*
X34554Y-35858D01*
X34535Y-35947D01*
X34534Y-36039D01*
X34551Y-36128D01*
X34584Y-36213D01*
X34633Y-36290D01*
X34697Y-36355D01*
X34772Y-36407D01*
X34855Y-36444D01*
X34944Y-36463D01*
X35035Y-36465D01*
X35125Y-36449D01*
X35210Y-36416D01*
X35287Y-36368D01*
X35353Y-36305D01*
X35406Y-36230D01*
X35443Y-36147D01*
X35463Y-36058D01*
X35464Y-35954D01*
X35447Y-35865D01*
X35412Y-35780D01*
X35361Y-35704D01*
X35297Y-35640D01*
X35240Y-35601D01*
X35240Y-35471D01*
X35257Y-35468D01*
X35282Y-35457D01*
X35305Y-35442D01*
X35324Y-35423D01*
X35340Y-35400D01*
X35350Y-35375D01*
X35356Y-35348D01*
X35356Y-35320D01*
X35356Y-35105D01*
X35395Y-35132D01*
X35442Y-35153D01*
X35493Y-35164D01*
X35545Y-35165D01*
X35596Y-35156D01*
X35645Y-35137D01*
X35647Y-35136D01*
X35647Y-35347D01*
X35652Y-35374D01*
X35663Y-35399D01*
X35678Y-35422D01*
X35697Y-35442D01*
X35720Y-35457D01*
X35745Y-35468D01*
X35763Y-35471D01*
X35763Y-35598D01*
X35707Y-35636D01*
X35642Y-35699D01*
X35590Y-35774D01*
X35554Y-35858D01*
X35535Y-35947D01*
X35534Y-36039D01*
X35551Y-36128D01*
X35584Y-36213D01*
X35633Y-36290D01*
X35697Y-36355D01*
X35772Y-36407D01*
X35855Y-36444D01*
X35944Y-36463D01*
X36035Y-36465D01*
X36125Y-36449D01*
X36210Y-36416D01*
X36287Y-36368D01*
X36353Y-36305D01*
X36406Y-36230D01*
X36443Y-36147D01*
X36463Y-36058D01*
X36464Y-35954D01*
X36447Y-35865D01*
X36412Y-35780D01*
X36361Y-35704D01*
X36297Y-35640D01*
X36243Y-35603D01*
X36243Y-35471D01*
X36261Y-35468D01*
X36286Y-35457D01*
X36309Y-35442D01*
X36328Y-35423D01*
X36344Y-35400D01*
X36354Y-35375D01*
X36360Y-35348D01*
X36360Y-35320D01*
X36360Y-35125D01*
X36370Y-35132D01*
X36417Y-35153D01*
X36468Y-35164D01*
X36520Y-35165D01*
X36571Y-35156D01*
X36620Y-35137D01*
X36651Y-35117D01*
X36651Y-35347D01*
X36656Y-35374D01*
X36667Y-35399D01*
X36682Y-35422D01*
X36701Y-35442D01*
X36724Y-35457D01*
X36749Y-35468D01*
X36767Y-35471D01*
X36767Y-35596D01*
X36707Y-35636D01*
X36642Y-35699D01*
X36590Y-35774D01*
X36554Y-35858D01*
X36535Y-35947D01*
X36534Y-36039D01*
X36551Y-36128D01*
X36584Y-36213D01*
X36633Y-36290D01*
X36697Y-36355D01*
X36772Y-36407D01*
X36855Y-36444D01*
X36944Y-36463D01*
X37035Y-36465D01*
X37125Y-36449D01*
X37210Y-36416D01*
X37287Y-36368D01*
X37353Y-36305D01*
X37406Y-36230D01*
X37443Y-36147D01*
X37463Y-36058D01*
X37464Y-35954D01*
X37447Y-35865D01*
X37412Y-35780D01*
X37361Y-35704D01*
X37297Y-35640D01*
X37247Y-35606D01*
X37247Y-35471D01*
X37265Y-35468D01*
X37290Y-35457D01*
X37313Y-35442D01*
X37332Y-35423D01*
X37348Y-35400D01*
X37358Y-35375D01*
X37364Y-35348D01*
X37364Y-35320D01*
X37364Y-35111D01*
X37395Y-35132D01*
X37442Y-35153D01*
X37493Y-35164D01*
X37545Y-35165D01*
X37596Y-35156D01*
X37635Y-35141D01*
X37635Y-35347D01*
X37640Y-35374D01*
X37651Y-35399D01*
X37666Y-35422D01*
X37685Y-35442D01*
X37708Y-35457D01*
X37734Y-35468D01*
X37752Y-35471D01*
X37752Y-35606D01*
X37707Y-35636D01*
X37642Y-35699D01*
X37590Y-35774D01*
X37554Y-35858D01*
X37535Y-35947D01*
X37534Y-36039D01*
X37551Y-36128D01*
X37584Y-36213D01*
X37633Y-36290D01*
X37697Y-36355D01*
X37772Y-36407D01*
X37855Y-36444D01*
X37944Y-36463D01*
X38035Y-36465D01*
X38125Y-36449D01*
X38210Y-36416D01*
X38287Y-36368D01*
X38353Y-36305D01*
X38406Y-36230D01*
X38443Y-36147D01*
X38463Y-36058D01*
X38464Y-35954D01*
X38447Y-35865D01*
X38412Y-35780D01*
X38361Y-35704D01*
X38297Y-35640D01*
X38232Y-35595D01*
X38232Y-35471D01*
X38249Y-35468D01*
X38274Y-35457D01*
X38297Y-35442D01*
X38317Y-35423D01*
X38332Y-35400D01*
X38343Y-35375D01*
X38348Y-35348D01*
X38348Y-35320D01*
X38348Y-35117D01*
X38370Y-35132D01*
X38417Y-35153D01*
X38468Y-35164D01*
X38520Y-35165D01*
X38571Y-35156D01*
X38620Y-35137D01*
X38639Y-35125D01*
X38639Y-35347D01*
X38644Y-35374D01*
X38655Y-35399D01*
X38670Y-35422D01*
X38689Y-35442D01*
X38712Y-35457D01*
X38737Y-35468D01*
X38756Y-35471D01*
X38756Y-35604D01*
X38707Y-35636D01*
X38642Y-35699D01*
X38590Y-35774D01*
X38554Y-35858D01*
X38535Y-35947D01*
X38534Y-36039D01*
X38551Y-36128D01*
X38584Y-36213D01*
X38633Y-36290D01*
X38697Y-36355D01*
X38772Y-36407D01*
X38855Y-36444D01*
X38944Y-36463D01*
X39035Y-36465D01*
X39125Y-36449D01*
X39210Y-36416D01*
X39287Y-36368D01*
X39353Y-36305D01*
X39406Y-36230D01*
X39443Y-36147D01*
X39463Y-36058D01*
X39464Y-35954D01*
X39447Y-35865D01*
X39412Y-35780D01*
X39361Y-35704D01*
X39297Y-35640D01*
X39236Y-35598D01*
X39236Y-35471D01*
X39253Y-35468D01*
X39278Y-35457D01*
X39301Y-35442D01*
X39320Y-35423D01*
X39336Y-35400D01*
X39346Y-35375D01*
X39352Y-35348D01*
X39352Y-35320D01*
X39352Y-35077D01*
X39377Y-35102D01*
X39420Y-35132D01*
X39467Y-35153D01*
X39518Y-35164D01*
X39570Y-35165D01*
X39621Y-35156D01*
X39670Y-35137D01*
X39713Y-35109D01*
X39751Y-35073D01*
X39781Y-35031D01*
X39802Y-34984D01*
X39814Y-34933D01*
X39815Y-34874D01*
X39815Y-35536D01*
X39661Y-35536D01*
X39634Y-35542D01*
X39609Y-35552D01*
X39587Y-35567D01*
X39568Y-35586D01*
X39552Y-35609D01*
X39542Y-35634D01*
X39536Y-35660D01*
X39536Y-35687D01*
X39536Y-35906D01*
X39571Y-35941D01*
X39941Y-35941D01*
X39941Y-36058D01*
X39571Y-36058D01*
X39536Y-36093D01*
X39536Y-36312D01*
X39536Y-36339D01*
X39542Y-36365D01*
X39552Y-36390D01*
X39568Y-36413D01*
X39587Y-36432D01*
X39609Y-36447D01*
X39634Y-36457D01*
X39661Y-36463D01*
X39906Y-36463D01*
X39941Y-36428D01*
X39941Y-36495D01*
X31496Y-36495D01*
X31496Y-31949D01*
X40471Y-31949D01*
X40471Y-36495D01*
M02*
