G04 (created by PCBNEW (2013-02-13 BZR 3947)-testing) date Fri 15 Feb 2013 04:57:32 AM CET*
%MOIN*%
G04 Gerber Fmt 3.4, Leading zero omitted, Abs format*
%FSLAX34Y34*%
G01*
G70*
G90*
G04 APERTURE LIST*
%ADD10C,0.006*%
%ADD11C,0.0001*%
%ADD12R,0.0649606X0.0649606*%
%ADD13C,0.0649606*%
%ADD14R,0.0472X0.0472*%
%ADD15C,0.025*%
%ADD16C,0.02*%
%ADD17C,0.01*%
%ADD18C,0.008*%
G04 APERTURE END LIST*
G54D10*
G54D11*
G36*
X40375Y-33218D02*
X40375Y-33224D01*
X40372Y-33233D01*
X40368Y-33241D01*
X40363Y-33247D01*
X40363Y-33247D01*
X40359Y-33250D01*
X40353Y-33253D01*
X40344Y-33257D01*
X40335Y-33261D01*
X40335Y-33215D01*
X40334Y-33210D01*
X40332Y-33204D01*
X40327Y-33198D01*
X40322Y-33191D01*
X40315Y-33185D01*
X40309Y-33179D01*
X40302Y-33175D01*
X40302Y-33175D01*
X40297Y-33172D01*
X40293Y-33171D01*
X40289Y-33170D01*
X40284Y-33170D01*
X40284Y-33170D01*
X40271Y-33172D01*
X40258Y-33175D01*
X40244Y-33180D01*
X40230Y-33186D01*
X40218Y-33193D01*
X40217Y-33194D01*
X40209Y-33200D01*
X40201Y-33208D01*
X40192Y-33217D01*
X40184Y-33226D01*
X40177Y-33235D01*
X40174Y-33239D01*
X40171Y-33244D01*
X40167Y-33250D01*
X40164Y-33257D01*
X40160Y-33264D01*
X40157Y-33271D01*
X40153Y-33277D01*
X40151Y-33283D01*
X40149Y-33288D01*
X40148Y-33291D01*
X40148Y-33293D01*
X40148Y-33293D01*
X40149Y-33292D01*
X40153Y-33291D01*
X40158Y-33289D01*
X40164Y-33287D01*
X40172Y-33284D01*
X40179Y-33281D01*
X40198Y-33274D01*
X40217Y-33267D01*
X40235Y-33260D01*
X40252Y-33253D01*
X40268Y-33247D01*
X40283Y-33241D01*
X40296Y-33236D01*
X40307Y-33231D01*
X40317Y-33227D01*
X40323Y-33224D01*
X40328Y-33222D01*
X40332Y-33220D01*
X40334Y-33218D01*
X40335Y-33217D01*
X40335Y-33215D01*
X40335Y-33261D01*
X40334Y-33262D01*
X40321Y-33268D01*
X40306Y-33274D01*
X40289Y-33281D01*
X40270Y-33288D01*
X40250Y-33296D01*
X40228Y-33305D01*
X40204Y-33314D01*
X40201Y-33315D01*
X40162Y-33330D01*
X40165Y-33339D01*
X40167Y-33342D01*
X40168Y-33348D01*
X40171Y-33355D01*
X40174Y-33364D01*
X40178Y-33374D01*
X40182Y-33385D01*
X40187Y-33397D01*
X40192Y-33410D01*
X40194Y-33415D01*
X40218Y-33482D01*
X40213Y-33593D01*
X40213Y-33609D01*
X40212Y-33625D01*
X40211Y-33640D01*
X40211Y-33654D01*
X40210Y-33667D01*
X40210Y-33678D01*
X40209Y-33688D01*
X40209Y-33696D01*
X40209Y-33701D01*
X40208Y-33705D01*
X40208Y-33706D01*
X40208Y-33708D01*
X40206Y-33710D01*
X40203Y-33713D01*
X40199Y-33717D01*
X40195Y-33720D01*
X40189Y-33724D01*
X40182Y-33730D01*
X40179Y-33732D01*
X40179Y-33487D01*
X40149Y-33406D01*
X40143Y-33392D01*
X40138Y-33379D01*
X40134Y-33367D01*
X40129Y-33356D01*
X40126Y-33346D01*
X40122Y-33337D01*
X40120Y-33331D01*
X40118Y-33326D01*
X40117Y-33323D01*
X40117Y-33323D01*
X40114Y-33321D01*
X40110Y-33317D01*
X40105Y-33314D01*
X40098Y-33309D01*
X40091Y-33305D01*
X40084Y-33301D01*
X40077Y-33297D01*
X40076Y-33297D01*
X40061Y-33290D01*
X40045Y-33286D01*
X40031Y-33283D01*
X40017Y-33282D01*
X40008Y-33282D01*
X39996Y-33283D01*
X39982Y-33286D01*
X39967Y-33289D01*
X39952Y-33293D01*
X39944Y-33295D01*
X39940Y-33297D01*
X39936Y-33298D01*
X39935Y-33299D01*
X39935Y-33300D01*
X39935Y-33300D01*
X39936Y-33303D01*
X39938Y-33309D01*
X39940Y-33316D01*
X39943Y-33324D01*
X39947Y-33334D01*
X39952Y-33346D01*
X39957Y-33359D01*
X39963Y-33372D01*
X39969Y-33387D01*
X39975Y-33402D01*
X39982Y-33418D01*
X39988Y-33433D01*
X39995Y-33449D01*
X40001Y-33465D01*
X40007Y-33481D01*
X40014Y-33496D01*
X40020Y-33510D01*
X40025Y-33523D01*
X40030Y-33536D01*
X40035Y-33547D01*
X40039Y-33557D01*
X40043Y-33565D01*
X40045Y-33572D01*
X40047Y-33577D01*
X40048Y-33579D01*
X40049Y-33580D01*
X40050Y-33579D01*
X40053Y-33578D01*
X40058Y-33577D01*
X40059Y-33576D01*
X40080Y-33571D01*
X40101Y-33568D01*
X40114Y-33567D01*
X40123Y-33567D01*
X40133Y-33567D01*
X40143Y-33567D01*
X40153Y-33567D01*
X40162Y-33568D01*
X40169Y-33568D01*
X40170Y-33569D01*
X40175Y-33569D01*
X40177Y-33528D01*
X40179Y-33487D01*
X40179Y-33732D01*
X40175Y-33734D01*
X40174Y-33735D01*
X40174Y-33594D01*
X40174Y-33590D01*
X40174Y-33588D01*
X40173Y-33587D01*
X40173Y-33587D01*
X40171Y-33587D01*
X40167Y-33586D01*
X40161Y-33586D01*
X40155Y-33585D01*
X40150Y-33585D01*
X40126Y-33584D01*
X40103Y-33586D01*
X40081Y-33589D01*
X40061Y-33595D01*
X40047Y-33600D01*
X40031Y-33607D01*
X40031Y-33587D01*
X39975Y-33448D01*
X39967Y-33430D01*
X39960Y-33412D01*
X39953Y-33396D01*
X39947Y-33380D01*
X39941Y-33365D01*
X39936Y-33352D01*
X39931Y-33340D01*
X39927Y-33330D01*
X39923Y-33321D01*
X39921Y-33315D01*
X39919Y-33310D01*
X39918Y-33307D01*
X39917Y-33307D01*
X39917Y-33306D01*
X39915Y-33307D01*
X39912Y-33308D01*
X39907Y-33310D01*
X39905Y-33311D01*
X39888Y-33320D01*
X39871Y-33333D01*
X39855Y-33347D01*
X39841Y-33362D01*
X39832Y-33375D01*
X39826Y-33384D01*
X39819Y-33395D01*
X39813Y-33407D01*
X39807Y-33419D01*
X39801Y-33430D01*
X39798Y-33439D01*
X39793Y-33451D01*
X39823Y-33533D01*
X39853Y-33614D01*
X39882Y-33642D01*
X39890Y-33650D01*
X39897Y-33656D01*
X39902Y-33661D01*
X39906Y-33665D01*
X39909Y-33667D01*
X39911Y-33669D01*
X39912Y-33669D01*
X39913Y-33669D01*
X39913Y-33669D01*
X39915Y-33668D01*
X39918Y-33665D01*
X39923Y-33661D01*
X39928Y-33657D01*
X39930Y-33655D01*
X39946Y-33642D01*
X39961Y-33630D01*
X39975Y-33620D01*
X39989Y-33611D01*
X40001Y-33603D01*
X40013Y-33596D01*
X40016Y-33595D01*
X40031Y-33587D01*
X40031Y-33607D01*
X40031Y-33607D01*
X40015Y-33616D01*
X39999Y-33625D01*
X39982Y-33636D01*
X39980Y-33638D01*
X39976Y-33641D01*
X39971Y-33645D01*
X39965Y-33650D01*
X39958Y-33655D01*
X39951Y-33661D01*
X39945Y-33666D01*
X39939Y-33671D01*
X39934Y-33676D01*
X39930Y-33680D01*
X39927Y-33682D01*
X39925Y-33684D01*
X39925Y-33684D01*
X39926Y-33685D01*
X39929Y-33687D01*
X39932Y-33692D01*
X39938Y-33697D01*
X39943Y-33703D01*
X39950Y-33711D01*
X39958Y-33719D01*
X39962Y-33723D01*
X40000Y-33761D01*
X40006Y-33760D01*
X40010Y-33759D01*
X40016Y-33759D01*
X40021Y-33758D01*
X40036Y-33756D01*
X40051Y-33753D01*
X40068Y-33747D01*
X40085Y-33740D01*
X40103Y-33732D01*
X40121Y-33723D01*
X40127Y-33719D01*
X40133Y-33715D01*
X40140Y-33711D01*
X40147Y-33706D01*
X40153Y-33702D01*
X40159Y-33698D01*
X40164Y-33694D01*
X40168Y-33691D01*
X40169Y-33690D01*
X40169Y-33688D01*
X40170Y-33684D01*
X40170Y-33678D01*
X40171Y-33671D01*
X40171Y-33662D01*
X40172Y-33653D01*
X40172Y-33649D01*
X40172Y-33639D01*
X40173Y-33629D01*
X40173Y-33620D01*
X40173Y-33612D01*
X40174Y-33605D01*
X40174Y-33600D01*
X40174Y-33600D01*
X40174Y-33594D01*
X40174Y-33735D01*
X40171Y-33737D01*
X40166Y-33741D01*
X40163Y-33744D01*
X40161Y-33746D01*
X40160Y-33748D01*
X40160Y-33750D01*
X40160Y-33754D01*
X40161Y-33760D01*
X40161Y-33769D01*
X40162Y-33778D01*
X40162Y-33790D01*
X40163Y-33803D01*
X40164Y-33816D01*
X40164Y-33831D01*
X40165Y-33838D01*
X40166Y-33852D01*
X40166Y-33867D01*
X40167Y-33880D01*
X40167Y-33892D01*
X40168Y-33902D01*
X40168Y-33911D01*
X40168Y-33919D01*
X40169Y-33924D01*
X40169Y-33927D01*
X40169Y-33927D01*
X40168Y-33929D01*
X40169Y-33930D01*
X40171Y-33931D01*
X40174Y-33931D01*
X40179Y-33932D01*
X40183Y-33933D01*
X40189Y-33933D01*
X40197Y-33935D01*
X40206Y-33937D01*
X40215Y-33939D01*
X40223Y-33941D01*
X40229Y-33943D01*
X40232Y-33944D01*
X40244Y-33951D01*
X40257Y-33959D01*
X40268Y-33969D01*
X40278Y-33981D01*
X40284Y-33988D01*
X40290Y-33998D01*
X40295Y-34009D01*
X40300Y-34022D01*
X40304Y-34033D01*
X40306Y-34043D01*
X40307Y-34054D01*
X40307Y-34065D01*
X40307Y-34075D01*
X40305Y-34084D01*
X40305Y-34085D01*
X40301Y-34094D01*
X40295Y-34101D01*
X40289Y-34107D01*
X40285Y-34109D01*
X40279Y-34112D01*
X40269Y-34112D01*
X40269Y-34074D01*
X40269Y-34061D01*
X40268Y-34053D01*
X40267Y-34047D01*
X40266Y-34041D01*
X40265Y-34039D01*
X40260Y-34024D01*
X40252Y-34011D01*
X40243Y-34000D01*
X40233Y-33991D01*
X40222Y-33983D01*
X40214Y-33980D01*
X40210Y-33978D01*
X40203Y-33977D01*
X40195Y-33975D01*
X40187Y-33973D01*
X40179Y-33972D01*
X40172Y-33970D01*
X40168Y-33970D01*
X40164Y-33970D01*
X40161Y-33970D01*
X40160Y-33970D01*
X40160Y-33972D01*
X40160Y-33972D01*
X40159Y-33975D01*
X40158Y-33979D01*
X40157Y-33985D01*
X40156Y-33991D01*
X40155Y-33993D01*
X40154Y-34000D01*
X40153Y-34005D01*
X40152Y-34009D01*
X40152Y-34012D01*
X40153Y-34014D01*
X40153Y-34016D01*
X40155Y-34022D01*
X40157Y-34030D01*
X40158Y-34039D01*
X40159Y-34048D01*
X40160Y-34056D01*
X40160Y-34062D01*
X40160Y-34075D01*
X40214Y-34074D01*
X40269Y-34074D01*
X40269Y-34112D01*
X40130Y-34113D01*
X40130Y-33921D01*
X40126Y-33849D01*
X40126Y-33836D01*
X40125Y-33823D01*
X40124Y-33811D01*
X40124Y-33800D01*
X40123Y-33791D01*
X40123Y-33783D01*
X40123Y-33777D01*
X40122Y-33773D01*
X40122Y-33772D01*
X40122Y-33767D01*
X40108Y-33773D01*
X40088Y-33782D01*
X40067Y-33789D01*
X40045Y-33794D01*
X40028Y-33797D01*
X40025Y-33798D01*
X40024Y-33799D01*
X40022Y-33801D01*
X40020Y-33804D01*
X40017Y-33809D01*
X40016Y-33810D01*
X40007Y-33825D01*
X39999Y-33837D01*
X39991Y-33845D01*
X39985Y-33852D01*
X39978Y-33891D01*
X39978Y-33797D01*
X39978Y-33796D01*
X39977Y-33795D01*
X39975Y-33793D01*
X39972Y-33789D01*
X39968Y-33785D01*
X39963Y-33779D01*
X39956Y-33772D01*
X39950Y-33766D01*
X39942Y-33759D01*
X39937Y-33752D01*
X39931Y-33747D01*
X39926Y-33742D01*
X39923Y-33739D01*
X39921Y-33737D01*
X39921Y-33737D01*
X39919Y-33738D01*
X39916Y-33740D01*
X39912Y-33743D01*
X39907Y-33747D01*
X39906Y-33748D01*
X39900Y-33753D01*
X39893Y-33760D01*
X39887Y-33766D01*
X39881Y-33772D01*
X39876Y-33777D01*
X39872Y-33782D01*
X39869Y-33785D01*
X39868Y-33787D01*
X39869Y-33791D01*
X39871Y-33796D01*
X39875Y-33801D01*
X39881Y-33807D01*
X39887Y-33813D01*
X39895Y-33818D01*
X39903Y-33823D01*
X39911Y-33827D01*
X39920Y-33830D01*
X39927Y-33832D01*
X39929Y-33832D01*
X39935Y-33832D01*
X39941Y-33832D01*
X39947Y-33830D01*
X39948Y-33830D01*
X39952Y-33827D01*
X39957Y-33823D01*
X39963Y-33818D01*
X39968Y-33812D01*
X39973Y-33806D01*
X39976Y-33801D01*
X39978Y-33797D01*
X39978Y-33891D01*
X39973Y-33913D01*
X39971Y-33925D01*
X39969Y-33937D01*
X39967Y-33947D01*
X39965Y-33956D01*
X39964Y-33961D01*
X39964Y-33867D01*
X39963Y-33867D01*
X39960Y-33867D01*
X39957Y-33869D01*
X39950Y-33870D01*
X39941Y-33871D01*
X39932Y-33871D01*
X39922Y-33870D01*
X39913Y-33869D01*
X39912Y-33868D01*
X39898Y-33864D01*
X39885Y-33858D01*
X39873Y-33850D01*
X39861Y-33842D01*
X39851Y-33833D01*
X39842Y-33823D01*
X39835Y-33813D01*
X39831Y-33803D01*
X39831Y-33803D01*
X39829Y-33798D01*
X39829Y-33792D01*
X39829Y-33788D01*
X39829Y-33784D01*
X39829Y-33780D01*
X39831Y-33776D01*
X39833Y-33770D01*
X39834Y-33769D01*
X39837Y-33764D01*
X39840Y-33759D01*
X39844Y-33754D01*
X39849Y-33748D01*
X39853Y-33744D01*
X39859Y-33738D01*
X39866Y-33731D01*
X39873Y-33725D01*
X39879Y-33719D01*
X39893Y-33708D01*
X39876Y-33691D01*
X39871Y-33686D01*
X39866Y-33682D01*
X39862Y-33678D01*
X39860Y-33676D01*
X39859Y-33676D01*
X39858Y-33677D01*
X39856Y-33680D01*
X39853Y-33685D01*
X39849Y-33692D01*
X39845Y-33700D01*
X39840Y-33709D01*
X39834Y-33719D01*
X39830Y-33726D01*
X39803Y-33775D01*
X39785Y-33848D01*
X39781Y-33862D01*
X39778Y-33876D01*
X39775Y-33889D01*
X39772Y-33901D01*
X39769Y-33912D01*
X39767Y-33922D01*
X39766Y-33930D01*
X39764Y-33936D01*
X39764Y-33938D01*
X39761Y-33956D01*
X39765Y-33962D01*
X39768Y-33965D01*
X39770Y-33967D01*
X39771Y-33967D01*
X39772Y-33966D01*
X39785Y-33958D01*
X39798Y-33952D01*
X39812Y-33948D01*
X39813Y-33948D01*
X39820Y-33947D01*
X39829Y-33946D01*
X39839Y-33946D01*
X39849Y-33946D01*
X39858Y-33946D01*
X39867Y-33947D01*
X39869Y-33947D01*
X39886Y-33951D01*
X39901Y-33957D01*
X39915Y-33965D01*
X39928Y-33974D01*
X39933Y-33979D01*
X39936Y-33982D01*
X39939Y-33985D01*
X39940Y-33987D01*
X39940Y-33987D01*
X39941Y-33986D01*
X39941Y-33982D01*
X39943Y-33977D01*
X39944Y-33969D01*
X39946Y-33960D01*
X39948Y-33950D01*
X39950Y-33939D01*
X39952Y-33927D01*
X39955Y-33915D01*
X39957Y-33904D01*
X39959Y-33893D01*
X39961Y-33884D01*
X39962Y-33877D01*
X39963Y-33871D01*
X39964Y-33868D01*
X39964Y-33867D01*
X39964Y-33961D01*
X39964Y-33964D01*
X39963Y-33970D01*
X39962Y-33974D01*
X39962Y-33975D01*
X39962Y-33975D01*
X39965Y-33973D01*
X39967Y-33972D01*
X39971Y-33969D01*
X39976Y-33965D01*
X39979Y-33963D01*
X39992Y-33956D01*
X40007Y-33951D01*
X40023Y-33948D01*
X40039Y-33946D01*
X40056Y-33945D01*
X40071Y-33947D01*
X40086Y-33950D01*
X40100Y-33954D01*
X40104Y-33957D01*
X40109Y-33959D01*
X40114Y-33962D01*
X40116Y-33963D01*
X40121Y-33967D01*
X40125Y-33944D01*
X40130Y-33921D01*
X40130Y-34113D01*
X40122Y-34113D01*
X40122Y-34076D01*
X40121Y-34059D01*
X40119Y-34043D01*
X40116Y-34029D01*
X40111Y-34017D01*
X40105Y-34007D01*
X40097Y-33999D01*
X40090Y-33994D01*
X40082Y-33990D01*
X40074Y-33987D01*
X40066Y-33985D01*
X40056Y-33985D01*
X40049Y-33985D01*
X40035Y-33985D01*
X40024Y-33987D01*
X40014Y-33990D01*
X40004Y-33995D01*
X40003Y-33995D01*
X39993Y-34002D01*
X39984Y-34011D01*
X39976Y-34021D01*
X39971Y-34034D01*
X39967Y-34047D01*
X39966Y-34062D01*
X39965Y-34066D01*
X39965Y-34075D01*
X40024Y-34075D01*
X40036Y-34075D01*
X40049Y-34075D01*
X40062Y-34075D01*
X40073Y-34075D01*
X40084Y-34075D01*
X40093Y-34075D01*
X40099Y-34076D01*
X40102Y-34076D01*
X40122Y-34076D01*
X40122Y-34113D01*
X39998Y-34113D01*
X39971Y-34113D01*
X39943Y-34113D01*
X39928Y-34113D01*
X39928Y-34075D01*
X39927Y-34063D01*
X39925Y-34047D01*
X39921Y-34033D01*
X39916Y-34021D01*
X39909Y-34010D01*
X39900Y-34002D01*
X39889Y-33995D01*
X39877Y-33990D01*
X39869Y-33987D01*
X39862Y-33986D01*
X39853Y-33985D01*
X39844Y-33985D01*
X39835Y-33985D01*
X39826Y-33985D01*
X39821Y-33986D01*
X39809Y-33990D01*
X39799Y-33996D01*
X39790Y-34004D01*
X39783Y-34014D01*
X39778Y-34026D01*
X39774Y-34039D01*
X39771Y-34055D01*
X39771Y-34061D01*
X39770Y-34075D01*
X39849Y-34075D01*
X39928Y-34075D01*
X39928Y-34113D01*
X39916Y-34113D01*
X39889Y-34113D01*
X39863Y-34113D01*
X39837Y-34113D01*
X39813Y-34113D01*
X39789Y-34113D01*
X39767Y-34113D01*
X39746Y-34114D01*
X39744Y-34114D01*
X39744Y-34002D01*
X39744Y-34000D01*
X39743Y-33999D01*
X39741Y-33995D01*
X39738Y-33991D01*
X39734Y-33986D01*
X39734Y-33985D01*
X39730Y-33980D01*
X39727Y-33976D01*
X39724Y-33974D01*
X39722Y-33972D01*
X39720Y-33971D01*
X39718Y-33971D01*
X39712Y-33970D01*
X39703Y-33970D01*
X39698Y-33970D01*
X39698Y-33929D01*
X39698Y-33929D01*
X39697Y-33927D01*
X39695Y-33924D01*
X39691Y-33919D01*
X39687Y-33914D01*
X39682Y-33907D01*
X39681Y-33905D01*
X39677Y-33899D01*
X39673Y-33895D01*
X39670Y-33891D01*
X39668Y-33887D01*
X39666Y-33883D01*
X39664Y-33879D01*
X39662Y-33874D01*
X39660Y-33868D01*
X39658Y-33861D01*
X39655Y-33852D01*
X39652Y-33841D01*
X39650Y-33832D01*
X39648Y-33825D01*
X39646Y-33819D01*
X39644Y-33814D01*
X39643Y-33812D01*
X39643Y-33811D01*
X39642Y-33812D01*
X39641Y-33815D01*
X39640Y-33820D01*
X39639Y-33826D01*
X39638Y-33832D01*
X39637Y-33838D01*
X39637Y-33841D01*
X39636Y-33850D01*
X39636Y-33858D01*
X39637Y-33867D01*
X39639Y-33876D01*
X39642Y-33886D01*
X39646Y-33897D01*
X39651Y-33909D01*
X39658Y-33923D01*
X39658Y-33924D01*
X39663Y-33935D01*
X39668Y-33934D01*
X39672Y-33933D01*
X39677Y-33933D01*
X39684Y-33932D01*
X39686Y-33932D01*
X39693Y-33931D01*
X39697Y-33930D01*
X39698Y-33929D01*
X39698Y-33970D01*
X39694Y-33970D01*
X39683Y-33971D01*
X39673Y-33973D01*
X39662Y-33975D01*
X39653Y-33978D01*
X39647Y-33980D01*
X39635Y-33985D01*
X39625Y-33993D01*
X39615Y-34003D01*
X39607Y-34015D01*
X39600Y-34027D01*
X39595Y-34041D01*
X39594Y-34049D01*
X39592Y-34056D01*
X39592Y-34061D01*
X39592Y-34066D01*
X39592Y-34068D01*
X39593Y-34074D01*
X39640Y-34075D01*
X39652Y-34075D01*
X39664Y-34075D01*
X39676Y-34075D01*
X39687Y-34075D01*
X39697Y-34075D01*
X39705Y-34076D01*
X39709Y-34076D01*
X39731Y-34076D01*
X39731Y-34067D01*
X39732Y-34056D01*
X39733Y-34044D01*
X39735Y-34032D01*
X39738Y-34021D01*
X39741Y-34012D01*
X39742Y-34009D01*
X39743Y-34005D01*
X39744Y-34002D01*
X39744Y-34114D01*
X39726Y-34114D01*
X39708Y-34114D01*
X39692Y-34114D01*
X39679Y-34114D01*
X39667Y-34114D01*
X39657Y-34114D01*
X39653Y-34114D01*
X39638Y-34114D01*
X39625Y-34114D01*
X39615Y-34114D01*
X39606Y-34114D01*
X39599Y-34114D01*
X39594Y-34114D01*
X39590Y-34114D01*
X39586Y-34114D01*
X39584Y-34114D01*
X39582Y-34113D01*
X39580Y-34113D01*
X39573Y-34109D01*
X39566Y-34102D01*
X39560Y-34094D01*
X39556Y-34085D01*
X39553Y-34074D01*
X39553Y-34063D01*
X39553Y-34056D01*
X39556Y-34038D01*
X39561Y-34020D01*
X39568Y-34004D01*
X39577Y-33989D01*
X39587Y-33975D01*
X39599Y-33963D01*
X39613Y-33953D01*
X39616Y-33951D01*
X39625Y-33946D01*
X39619Y-33933D01*
X39613Y-33921D01*
X39609Y-33910D01*
X39605Y-33900D01*
X39602Y-33892D01*
X39601Y-33888D01*
X39599Y-33876D01*
X39598Y-33863D01*
X39597Y-33848D01*
X39598Y-33833D01*
X39600Y-33820D01*
X39601Y-33815D01*
X39601Y-33813D01*
X39600Y-33811D01*
X39597Y-33810D01*
X39592Y-33810D01*
X39588Y-33810D01*
X39577Y-33809D01*
X39568Y-33807D01*
X39562Y-33804D01*
X39557Y-33799D01*
X39555Y-33794D01*
X39555Y-33787D01*
X39555Y-33786D01*
X39556Y-33782D01*
X39558Y-33778D01*
X39562Y-33775D01*
X39566Y-33772D01*
X39573Y-33770D01*
X39581Y-33768D01*
X39591Y-33766D01*
X39601Y-33765D01*
X39618Y-33762D01*
X39622Y-33754D01*
X39626Y-33746D01*
X39621Y-33742D01*
X39612Y-33734D01*
X39605Y-33725D01*
X39600Y-33714D01*
X39597Y-33703D01*
X39597Y-33692D01*
X39598Y-33681D01*
X39601Y-33670D01*
X39607Y-33660D01*
X39614Y-33652D01*
X39623Y-33644D01*
X39633Y-33639D01*
X39644Y-33636D01*
X39655Y-33635D01*
X39660Y-33635D01*
X39667Y-33635D01*
X39672Y-33636D01*
X39677Y-33638D01*
X39681Y-33640D01*
X39692Y-33647D01*
X39701Y-33655D01*
X39708Y-33664D01*
X39712Y-33675D01*
X39715Y-33687D01*
X39715Y-33694D01*
X39714Y-33707D01*
X39710Y-33718D01*
X39704Y-33728D01*
X39696Y-33737D01*
X39688Y-33743D01*
X39684Y-33746D01*
X39681Y-33748D01*
X39681Y-33696D01*
X39680Y-33688D01*
X39677Y-33681D01*
X39672Y-33675D01*
X39666Y-33671D01*
X39662Y-33670D01*
X39654Y-33669D01*
X39648Y-33670D01*
X39642Y-33673D01*
X39637Y-33678D01*
X39633Y-33684D01*
X39631Y-33690D01*
X39631Y-33697D01*
X39633Y-33704D01*
X39636Y-33708D01*
X39641Y-33714D01*
X39648Y-33717D01*
X39655Y-33719D01*
X39663Y-33718D01*
X39667Y-33716D01*
X39673Y-33711D01*
X39678Y-33705D01*
X39680Y-33698D01*
X39681Y-33696D01*
X39681Y-33748D01*
X39679Y-33749D01*
X39675Y-33750D01*
X39671Y-33751D01*
X39669Y-33753D01*
X39668Y-33754D01*
X39669Y-33756D01*
X39669Y-33758D01*
X39670Y-33759D01*
X39673Y-33759D01*
X39677Y-33759D01*
X39680Y-33759D01*
X39688Y-33759D01*
X39695Y-33760D01*
X39702Y-33761D01*
X39708Y-33762D01*
X39712Y-33763D01*
X39713Y-33763D01*
X39718Y-33767D01*
X39722Y-33773D01*
X39723Y-33779D01*
X39723Y-33785D01*
X39720Y-33791D01*
X39717Y-33793D01*
X39713Y-33796D01*
X39707Y-33799D01*
X39699Y-33801D01*
X39693Y-33803D01*
X39689Y-33803D01*
X39686Y-33804D01*
X39685Y-33805D01*
X39684Y-33806D01*
X39685Y-33810D01*
X39686Y-33815D01*
X39688Y-33821D01*
X39690Y-33829D01*
X39692Y-33836D01*
X39694Y-33844D01*
X39696Y-33852D01*
X39699Y-33858D01*
X39701Y-33863D01*
X39702Y-33867D01*
X39703Y-33868D01*
X39707Y-33875D01*
X39712Y-33881D01*
X39717Y-33888D01*
X39721Y-33893D01*
X39725Y-33898D01*
X39728Y-33902D01*
X39730Y-33903D01*
X39730Y-33904D01*
X39731Y-33902D01*
X39732Y-33898D01*
X39733Y-33893D01*
X39735Y-33885D01*
X39738Y-33876D01*
X39740Y-33865D01*
X39743Y-33854D01*
X39746Y-33841D01*
X39749Y-33831D01*
X39767Y-33759D01*
X39798Y-33702D01*
X39830Y-33646D01*
X39825Y-33640D01*
X39824Y-33639D01*
X39823Y-33638D01*
X39822Y-33636D01*
X39820Y-33633D01*
X39819Y-33630D01*
X39817Y-33626D01*
X39815Y-33621D01*
X39812Y-33614D01*
X39809Y-33606D01*
X39805Y-33596D01*
X39800Y-33584D01*
X39795Y-33569D01*
X39790Y-33558D01*
X39785Y-33544D01*
X39780Y-33531D01*
X39776Y-33519D01*
X39772Y-33508D01*
X39768Y-33498D01*
X39765Y-33490D01*
X39763Y-33484D01*
X39761Y-33479D01*
X39760Y-33477D01*
X39760Y-33477D01*
X39760Y-33476D01*
X39758Y-33476D01*
X39756Y-33476D01*
X39753Y-33476D01*
X39748Y-33477D01*
X39747Y-33477D01*
X39747Y-33437D01*
X39746Y-33436D01*
X39743Y-33434D01*
X39740Y-33431D01*
X39736Y-33428D01*
X39717Y-33415D01*
X39698Y-33405D01*
X39680Y-33397D01*
X39661Y-33391D01*
X39643Y-33388D01*
X39628Y-33388D01*
X39618Y-33388D01*
X39608Y-33389D01*
X39600Y-33390D01*
X39590Y-33393D01*
X39588Y-33393D01*
X39578Y-33397D01*
X39570Y-33401D01*
X39564Y-33404D01*
X39559Y-33408D01*
X39558Y-33410D01*
X39552Y-33419D01*
X39548Y-33430D01*
X39546Y-33437D01*
X39545Y-33442D01*
X39544Y-33449D01*
X39544Y-33455D01*
X39544Y-33461D01*
X39545Y-33465D01*
X39546Y-33466D01*
X39547Y-33468D01*
X39548Y-33469D01*
X39550Y-33469D01*
X39553Y-33469D01*
X39558Y-33469D01*
X39565Y-33468D01*
X39569Y-33467D01*
X39579Y-33466D01*
X39592Y-33464D01*
X39606Y-33462D01*
X39622Y-33459D01*
X39638Y-33457D01*
X39654Y-33454D01*
X39671Y-33451D01*
X39678Y-33450D01*
X39693Y-33447D01*
X39706Y-33445D01*
X39717Y-33443D01*
X39725Y-33441D01*
X39732Y-33440D01*
X39738Y-33439D01*
X39742Y-33438D01*
X39744Y-33438D01*
X39746Y-33437D01*
X39747Y-33437D01*
X39747Y-33437D01*
X39747Y-33477D01*
X39741Y-33478D01*
X39736Y-33479D01*
X39722Y-33482D01*
X39706Y-33485D01*
X39689Y-33488D01*
X39672Y-33491D01*
X39654Y-33494D01*
X39637Y-33496D01*
X39621Y-33499D01*
X39607Y-33501D01*
X39600Y-33503D01*
X39587Y-33504D01*
X39577Y-33506D01*
X39568Y-33507D01*
X39560Y-33507D01*
X39552Y-33507D01*
X39551Y-33507D01*
X39533Y-33508D01*
X39527Y-33503D01*
X39519Y-33496D01*
X39512Y-33487D01*
X39508Y-33477D01*
X39505Y-33465D01*
X39505Y-33451D01*
X39506Y-33442D01*
X39508Y-33426D01*
X39513Y-33412D01*
X39519Y-33399D01*
X39526Y-33387D01*
X39535Y-33377D01*
X39544Y-33370D01*
X39550Y-33366D01*
X39570Y-33358D01*
X39590Y-33352D01*
X39611Y-33349D01*
X39632Y-33348D01*
X39653Y-33350D01*
X39675Y-33354D01*
X39696Y-33361D01*
X39717Y-33370D01*
X39724Y-33374D01*
X39733Y-33379D01*
X39742Y-33385D01*
X39751Y-33390D01*
X39759Y-33395D01*
X39765Y-33400D01*
X39770Y-33404D01*
X39775Y-33394D01*
X39788Y-33370D01*
X39802Y-33349D01*
X39817Y-33329D01*
X39834Y-33312D01*
X39851Y-33297D01*
X39868Y-33286D01*
X39887Y-33276D01*
X39907Y-33267D01*
X39929Y-33259D01*
X39934Y-33257D01*
X39956Y-33251D01*
X39977Y-33247D01*
X39996Y-33244D01*
X40015Y-33243D01*
X40032Y-33244D01*
X40050Y-33246D01*
X40066Y-33251D01*
X40083Y-33257D01*
X40097Y-33264D01*
X40113Y-33272D01*
X40117Y-33263D01*
X40127Y-33240D01*
X40140Y-33219D01*
X40153Y-33201D01*
X40168Y-33184D01*
X40184Y-33169D01*
X40202Y-33157D01*
X40220Y-33147D01*
X40240Y-33139D01*
X40257Y-33134D01*
X40269Y-33132D01*
X40281Y-33131D01*
X40292Y-33131D01*
X40302Y-33133D01*
X40309Y-33135D01*
X40321Y-33140D01*
X40332Y-33147D01*
X40342Y-33156D01*
X40352Y-33165D01*
X40360Y-33175D01*
X40367Y-33186D01*
X40371Y-33197D01*
X40374Y-33208D01*
X40375Y-33218D01*
X40375Y-33218D01*
X40375Y-33218D01*
G37*
G36*
X39941Y-33948D02*
X39940Y-33952D01*
X39939Y-33956D01*
X39938Y-33956D01*
X39935Y-33958D01*
X39933Y-33959D01*
X39929Y-33958D01*
X39926Y-33955D01*
X39924Y-33952D01*
X39924Y-33948D01*
X39926Y-33944D01*
X39929Y-33942D01*
X39933Y-33941D01*
X39937Y-33942D01*
X39940Y-33945D01*
X39941Y-33948D01*
X39941Y-33948D01*
X39941Y-33948D01*
G37*
G36*
X39950Y-33915D02*
X39950Y-33919D01*
X39948Y-33922D01*
X39948Y-33923D01*
X39944Y-33925D01*
X39940Y-33925D01*
X39937Y-33924D01*
X39936Y-33923D01*
X39934Y-33919D01*
X39934Y-33915D01*
X39935Y-33913D01*
X39937Y-33909D01*
X39940Y-33908D01*
X39944Y-33908D01*
X39948Y-33910D01*
X39949Y-33912D01*
X39950Y-33915D01*
X39950Y-33915D01*
X39950Y-33915D01*
G37*
G36*
X39958Y-33886D02*
X39957Y-33890D01*
X39954Y-33893D01*
X39950Y-33895D01*
X39946Y-33895D01*
X39946Y-33894D01*
X39942Y-33892D01*
X39940Y-33888D01*
X39940Y-33883D01*
X39942Y-33880D01*
X39945Y-33878D01*
X39948Y-33877D01*
X39952Y-33878D01*
X39956Y-33881D01*
X39957Y-33884D01*
X39958Y-33886D01*
X39958Y-33886D01*
X39958Y-33886D01*
G37*
G36*
X40128Y-33638D02*
X40128Y-33641D01*
X40127Y-33643D01*
X40125Y-33652D01*
X40121Y-33661D01*
X40115Y-33671D01*
X40107Y-33680D01*
X40098Y-33688D01*
X40088Y-33696D01*
X40078Y-33702D01*
X40067Y-33706D01*
X40063Y-33708D01*
X40053Y-33710D01*
X40043Y-33710D01*
X40033Y-33710D01*
X40031Y-33710D01*
X40026Y-33708D01*
X40020Y-33707D01*
X40017Y-33706D01*
X40012Y-33703D01*
X40007Y-33701D01*
X40003Y-33698D01*
X39999Y-33695D01*
X39996Y-33693D01*
X39996Y-33692D01*
X39997Y-33691D01*
X40000Y-33689D01*
X40005Y-33687D01*
X40012Y-33684D01*
X40019Y-33680D01*
X40028Y-33676D01*
X40037Y-33671D01*
X40046Y-33667D01*
X40055Y-33663D01*
X40063Y-33659D01*
X40071Y-33656D01*
X40078Y-33653D01*
X40086Y-33650D01*
X40094Y-33646D01*
X40102Y-33643D01*
X40109Y-33641D01*
X40116Y-33638D01*
X40121Y-33637D01*
X40125Y-33636D01*
X40126Y-33636D01*
X40127Y-33636D01*
X40128Y-33638D01*
X40128Y-33638D01*
X40128Y-33638D01*
G37*
G36*
X40127Y-33599D02*
X40126Y-33604D01*
X40123Y-33607D01*
X40119Y-33608D01*
X40115Y-33608D01*
X40112Y-33606D01*
X40110Y-33602D01*
X40110Y-33598D01*
X40111Y-33594D01*
X40114Y-33591D01*
X40118Y-33590D01*
X40123Y-33591D01*
X40126Y-33594D01*
X40127Y-33599D01*
X40127Y-33599D01*
X40127Y-33599D01*
X40127Y-33599D01*
G37*
G36*
X40158Y-33599D02*
X40157Y-33604D01*
X40154Y-33607D01*
X40150Y-33608D01*
X40146Y-33607D01*
X40143Y-33606D01*
X40141Y-33602D01*
X40140Y-33598D01*
X40142Y-33594D01*
X40143Y-33593D01*
X40146Y-33590D01*
X40150Y-33590D01*
X40154Y-33592D01*
X40156Y-33595D01*
X40158Y-33599D01*
X40158Y-33599D01*
X40158Y-33599D01*
X40158Y-33599D01*
G37*
G36*
X39957Y-33525D02*
X39956Y-33537D01*
X39953Y-33548D01*
X39948Y-33559D01*
X39940Y-33568D01*
X39940Y-33569D01*
X39931Y-33576D01*
X39923Y-33580D01*
X39923Y-33530D01*
X39923Y-33523D01*
X39921Y-33516D01*
X39917Y-33510D01*
X39912Y-33506D01*
X39908Y-33503D01*
X39902Y-33502D01*
X39900Y-33502D01*
X39895Y-33502D01*
X39891Y-33502D01*
X39888Y-33504D01*
X39886Y-33505D01*
X39880Y-33511D01*
X39876Y-33517D01*
X39874Y-33523D01*
X39874Y-33530D01*
X39876Y-33537D01*
X39880Y-33543D01*
X39885Y-33547D01*
X39892Y-33550D01*
X39893Y-33551D01*
X39900Y-33552D01*
X39906Y-33550D01*
X39912Y-33547D01*
X39918Y-33543D01*
X39922Y-33536D01*
X39923Y-33530D01*
X39923Y-33580D01*
X39921Y-33582D01*
X39909Y-33585D01*
X39897Y-33586D01*
X39885Y-33585D01*
X39884Y-33584D01*
X39872Y-33580D01*
X39862Y-33574D01*
X39854Y-33566D01*
X39848Y-33557D01*
X39843Y-33547D01*
X39840Y-33537D01*
X39840Y-33526D01*
X39841Y-33515D01*
X39844Y-33504D01*
X39849Y-33494D01*
X39857Y-33485D01*
X39857Y-33484D01*
X39866Y-33477D01*
X39877Y-33471D01*
X39887Y-33468D01*
X39898Y-33467D01*
X39909Y-33468D01*
X39920Y-33471D01*
X39930Y-33476D01*
X39939Y-33483D01*
X39946Y-33491D01*
X39951Y-33501D01*
X39955Y-33513D01*
X39957Y-33525D01*
X39957Y-33525D01*
X39957Y-33525D01*
G37*
G36*
X40147Y-33454D02*
X40147Y-33465D01*
X40144Y-33476D01*
X40140Y-33486D01*
X40134Y-33496D01*
X40129Y-33502D01*
X40120Y-33509D01*
X40112Y-33513D01*
X40112Y-33457D01*
X40111Y-33451D01*
X40108Y-33444D01*
X40103Y-33439D01*
X40099Y-33437D01*
X40091Y-33435D01*
X40084Y-33435D01*
X40077Y-33437D01*
X40071Y-33441D01*
X40067Y-33446D01*
X40064Y-33453D01*
X40063Y-33460D01*
X40064Y-33467D01*
X40067Y-33473D01*
X40072Y-33478D01*
X40078Y-33482D01*
X40085Y-33484D01*
X40092Y-33483D01*
X40099Y-33481D01*
X40105Y-33477D01*
X40109Y-33471D01*
X40112Y-33464D01*
X40112Y-33457D01*
X40112Y-33513D01*
X40109Y-33515D01*
X40097Y-33518D01*
X40085Y-33519D01*
X40074Y-33517D01*
X40072Y-33517D01*
X40061Y-33512D01*
X40051Y-33506D01*
X40042Y-33497D01*
X40035Y-33488D01*
X40031Y-33476D01*
X40030Y-33475D01*
X40029Y-33471D01*
X40029Y-33465D01*
X40029Y-33459D01*
X40029Y-33458D01*
X40030Y-33446D01*
X40033Y-33435D01*
X40039Y-33425D01*
X40047Y-33416D01*
X40057Y-33408D01*
X40068Y-33403D01*
X40080Y-33400D01*
X40092Y-33400D01*
X40098Y-33400D01*
X40109Y-33404D01*
X40120Y-33409D01*
X40128Y-33416D01*
X40136Y-33424D01*
X40141Y-33433D01*
X40145Y-33443D01*
X40147Y-33454D01*
X40147Y-33454D01*
X40147Y-33454D01*
G37*
G36*
X39988Y-33377D02*
X39987Y-33382D01*
X39984Y-33385D01*
X39979Y-33386D01*
X39979Y-33386D01*
X39976Y-33385D01*
X39974Y-33384D01*
X39971Y-33382D01*
X39971Y-33378D01*
X39971Y-33377D01*
X39971Y-33373D01*
X39973Y-33370D01*
X39974Y-33370D01*
X39978Y-33368D01*
X39982Y-33369D01*
X39985Y-33371D01*
X39987Y-33375D01*
X39988Y-33377D01*
X39988Y-33377D01*
X39988Y-33377D01*
G37*
G36*
X39976Y-33351D02*
X39974Y-33355D01*
X39973Y-33356D01*
X39970Y-33357D01*
X39965Y-33357D01*
X39962Y-33356D01*
X39961Y-33355D01*
X39959Y-33351D01*
X39959Y-33347D01*
X39960Y-33343D01*
X39961Y-33342D01*
X39964Y-33341D01*
X39968Y-33340D01*
X39972Y-33341D01*
X39974Y-33343D01*
X39976Y-33346D01*
X39976Y-33351D01*
X39976Y-33351D01*
X39976Y-33351D01*
G37*
G36*
X39962Y-33318D02*
X39961Y-33322D01*
X39961Y-33323D01*
X39958Y-33326D01*
X39954Y-33327D01*
X39950Y-33326D01*
X39950Y-33326D01*
X39947Y-33324D01*
X39945Y-33322D01*
X39945Y-33318D01*
X39946Y-33313D01*
X39949Y-33311D01*
X39953Y-33310D01*
X39957Y-33310D01*
X39959Y-33312D01*
X39960Y-33312D01*
X39961Y-33314D01*
X39962Y-33318D01*
X39962Y-33318D01*
X39962Y-33318D01*
G37*
G54D12*
X40000Y-36000D03*
G54D13*
X39000Y-36000D03*
X38000Y-36000D03*
X37000Y-36000D03*
X36000Y-36000D03*
X35000Y-36000D03*
X34000Y-36000D03*
X33000Y-36000D03*
X32000Y-36000D03*
G54D14*
X32000Y-34087D03*
X32000Y-34913D03*
X38000Y-34087D03*
X38000Y-34913D03*
X33000Y-34087D03*
X33000Y-34913D03*
X34000Y-34087D03*
X34000Y-34913D03*
X35000Y-34087D03*
X35000Y-34913D03*
X36000Y-34087D03*
X36000Y-34913D03*
X37000Y-34087D03*
X37000Y-34913D03*
X39000Y-34087D03*
X39000Y-34913D03*
X32000Y-32337D03*
X32000Y-33163D03*
X33000Y-32337D03*
X33000Y-33163D03*
X34000Y-32337D03*
X34000Y-33163D03*
X35000Y-32337D03*
X35000Y-33163D03*
X36000Y-32337D03*
X36000Y-33163D03*
X37000Y-32337D03*
X37000Y-33163D03*
X38000Y-32337D03*
X38000Y-33163D03*
X39000Y-32337D03*
X39000Y-33163D03*
G54D15*
X33500Y-34925D03*
X33500Y-32325D03*
X38500Y-34900D03*
X38500Y-32350D03*
X39550Y-34900D03*
X39550Y-32325D03*
X32500Y-34925D03*
X32500Y-32350D03*
X36500Y-34900D03*
X36500Y-32325D03*
X34475Y-34925D03*
X34475Y-32325D03*
X35525Y-34900D03*
X35525Y-32325D03*
X37525Y-34900D03*
X37525Y-32325D03*
G54D16*
X33000Y-32337D02*
X33488Y-32337D01*
X33488Y-34913D02*
X33000Y-34913D01*
X33500Y-34925D02*
X33488Y-34913D01*
X33488Y-32337D02*
X33500Y-32325D01*
X38000Y-32337D02*
X38487Y-32337D01*
X38487Y-34913D02*
X38000Y-34913D01*
X38500Y-34900D02*
X38487Y-34913D01*
X38487Y-32337D02*
X38500Y-32350D01*
X39000Y-32337D02*
X39538Y-32337D01*
X39537Y-34913D02*
X39000Y-34913D01*
X39550Y-34900D02*
X39537Y-34913D01*
X39538Y-32337D02*
X39550Y-32325D01*
X32000Y-32337D02*
X32487Y-32337D01*
X32488Y-34913D02*
X32000Y-34913D01*
X32500Y-34925D02*
X32488Y-34913D01*
X32487Y-32337D02*
X32500Y-32350D01*
X36000Y-32337D02*
X36488Y-32337D01*
X36487Y-34913D02*
X36000Y-34913D01*
X36500Y-34900D02*
X36487Y-34913D01*
X36488Y-32337D02*
X36500Y-32325D01*
X34000Y-32337D02*
X34463Y-32337D01*
X34463Y-34913D02*
X34000Y-34913D01*
X34475Y-34925D02*
X34463Y-34913D01*
X34463Y-32337D02*
X34475Y-32325D01*
X35000Y-32337D02*
X35513Y-32337D01*
X35512Y-34913D02*
X35000Y-34913D01*
X35525Y-34900D02*
X35512Y-34913D01*
X35513Y-32337D02*
X35525Y-32325D01*
X37000Y-32337D02*
X37513Y-32337D01*
X37512Y-34913D02*
X37000Y-34913D01*
X37525Y-34900D02*
X37512Y-34913D01*
X37513Y-32337D02*
X37525Y-32325D01*
G54D17*
X40000Y-36000D02*
X40000Y-34822D01*
X40000Y-34822D02*
X39409Y-34232D01*
X39000Y-34087D02*
X39362Y-34087D01*
X39409Y-34133D02*
X39409Y-34232D01*
X39362Y-34087D02*
X39409Y-34133D01*
G54D16*
X39000Y-33163D02*
X39000Y-34087D01*
X39000Y-34087D02*
X39125Y-34212D01*
X32000Y-33163D02*
X33000Y-33163D01*
X38000Y-33163D02*
X38000Y-34087D01*
X37000Y-33163D02*
X37000Y-34087D01*
X36000Y-33163D02*
X36000Y-34087D01*
X35000Y-34087D02*
X35000Y-33163D01*
X34000Y-33163D02*
X34000Y-34087D01*
X33000Y-33163D02*
X33000Y-34087D01*
X33000Y-33163D02*
X34000Y-33163D01*
X34000Y-33163D02*
X35000Y-33163D01*
X35000Y-33163D02*
X36000Y-33163D01*
X36000Y-33163D02*
X37000Y-33163D01*
X37000Y-33163D02*
X38000Y-33163D01*
X38000Y-33163D02*
X39000Y-33163D01*
X39000Y-34087D02*
X38000Y-34087D01*
X38000Y-34087D02*
X37000Y-34087D01*
X37000Y-34087D02*
X36987Y-34100D01*
X36987Y-34100D02*
X36013Y-34100D01*
X36013Y-34100D02*
X36000Y-34087D01*
X36000Y-34087D02*
X34000Y-34087D01*
X34000Y-34087D02*
X33000Y-34087D01*
X33000Y-34087D02*
X32000Y-34087D01*
X32000Y-34087D02*
X32000Y-33163D01*
G54D10*
G36*
X40471Y-36495D02*
X40463Y-36495D01*
X40463Y-36312D01*
X40463Y-35687D01*
X40463Y-35660D01*
X40457Y-35634D01*
X40453Y-35623D01*
X40453Y-34193D01*
X40453Y-33050D01*
X39815Y-33050D01*
X39815Y-32299D01*
X39804Y-32248D01*
X39785Y-32199D01*
X39756Y-32156D01*
X39719Y-32119D01*
X39676Y-32090D01*
X39628Y-32070D01*
X39577Y-32060D01*
X39525Y-32059D01*
X39474Y-32069D01*
X39426Y-32089D01*
X39414Y-32097D01*
X39376Y-32097D01*
X39376Y-32087D01*
X39370Y-32060D01*
X39360Y-32034D01*
X39345Y-32012D01*
X39325Y-31992D01*
X39302Y-31977D01*
X39277Y-31966D01*
X39250Y-31961D01*
X39223Y-31960D01*
X38750Y-31960D01*
X38723Y-31966D01*
X38697Y-31976D01*
X38675Y-31991D01*
X38655Y-32011D01*
X38640Y-32034D01*
X38629Y-32059D01*
X38624Y-32086D01*
X38623Y-32113D01*
X38623Y-32114D01*
X38578Y-32095D01*
X38527Y-32085D01*
X38475Y-32084D01*
X38424Y-32094D01*
X38418Y-32097D01*
X38376Y-32097D01*
X38376Y-32087D01*
X38370Y-32060D01*
X38360Y-32034D01*
X38345Y-32012D01*
X38325Y-31992D01*
X38302Y-31977D01*
X38277Y-31966D01*
X38250Y-31961D01*
X38223Y-31960D01*
X37750Y-31960D01*
X37723Y-31966D01*
X37697Y-31976D01*
X37675Y-31991D01*
X37655Y-32011D01*
X37640Y-32034D01*
X37629Y-32059D01*
X37625Y-32079D01*
X37603Y-32070D01*
X37552Y-32060D01*
X37500Y-32059D01*
X37449Y-32069D01*
X37401Y-32089D01*
X37389Y-32097D01*
X37376Y-32097D01*
X37376Y-32087D01*
X37370Y-32060D01*
X37360Y-32034D01*
X37345Y-32012D01*
X37325Y-31992D01*
X37302Y-31977D01*
X37277Y-31966D01*
X37250Y-31961D01*
X37223Y-31960D01*
X36750Y-31960D01*
X36723Y-31966D01*
X36697Y-31976D01*
X36675Y-31991D01*
X36655Y-32011D01*
X36640Y-32034D01*
X36629Y-32059D01*
X36624Y-32086D01*
X36624Y-32089D01*
X36578Y-32070D01*
X36527Y-32060D01*
X36475Y-32059D01*
X36424Y-32069D01*
X36376Y-32089D01*
X36376Y-32089D01*
X36376Y-32087D01*
X36370Y-32060D01*
X36360Y-32034D01*
X36345Y-32012D01*
X36325Y-31992D01*
X36302Y-31977D01*
X36277Y-31966D01*
X36250Y-31961D01*
X36223Y-31960D01*
X35750Y-31960D01*
X35723Y-31966D01*
X35697Y-31976D01*
X35675Y-31991D01*
X35655Y-32011D01*
X35640Y-32034D01*
X35629Y-32059D01*
X35625Y-32079D01*
X35603Y-32070D01*
X35552Y-32060D01*
X35500Y-32059D01*
X35449Y-32069D01*
X35401Y-32089D01*
X35389Y-32097D01*
X35376Y-32097D01*
X35376Y-32087D01*
X35370Y-32060D01*
X35360Y-32034D01*
X35345Y-32012D01*
X35325Y-31992D01*
X35302Y-31977D01*
X35277Y-31966D01*
X35250Y-31961D01*
X35223Y-31960D01*
X34750Y-31960D01*
X34723Y-31966D01*
X34697Y-31976D01*
X34675Y-31991D01*
X34655Y-32011D01*
X34640Y-32034D01*
X34629Y-32059D01*
X34624Y-32086D01*
X34623Y-32105D01*
X34601Y-32090D01*
X34553Y-32070D01*
X34502Y-32060D01*
X34450Y-32059D01*
X34399Y-32069D01*
X34374Y-32079D01*
X34370Y-32060D01*
X34360Y-32034D01*
X34345Y-32012D01*
X34325Y-31992D01*
X34302Y-31977D01*
X34277Y-31966D01*
X34250Y-31961D01*
X34223Y-31960D01*
X33750Y-31960D01*
X33723Y-31966D01*
X33697Y-31976D01*
X33675Y-31991D01*
X33655Y-32011D01*
X33640Y-32034D01*
X33629Y-32059D01*
X33624Y-32086D01*
X33624Y-32089D01*
X33578Y-32070D01*
X33527Y-32060D01*
X33475Y-32059D01*
X33424Y-32069D01*
X33376Y-32089D01*
X33376Y-32089D01*
X33376Y-32087D01*
X33370Y-32060D01*
X33360Y-32034D01*
X33345Y-32012D01*
X33325Y-31992D01*
X33302Y-31977D01*
X33277Y-31966D01*
X33250Y-31961D01*
X33223Y-31960D01*
X32750Y-31960D01*
X32723Y-31966D01*
X32697Y-31976D01*
X32675Y-31991D01*
X32655Y-32011D01*
X32640Y-32034D01*
X32629Y-32059D01*
X32624Y-32086D01*
X32623Y-32113D01*
X32623Y-32114D01*
X32578Y-32095D01*
X32527Y-32085D01*
X32475Y-32084D01*
X32424Y-32094D01*
X32418Y-32097D01*
X32376Y-32097D01*
X32376Y-32087D01*
X32370Y-32060D01*
X32360Y-32034D01*
X32345Y-32012D01*
X32325Y-31992D01*
X32302Y-31977D01*
X32277Y-31966D01*
X32250Y-31961D01*
X32223Y-31960D01*
X31750Y-31960D01*
X31723Y-31966D01*
X31697Y-31976D01*
X31675Y-31991D01*
X31655Y-32011D01*
X31640Y-32034D01*
X31629Y-32059D01*
X31624Y-32086D01*
X31623Y-32113D01*
X31623Y-32586D01*
X31629Y-32613D01*
X31639Y-32639D01*
X31654Y-32661D01*
X31674Y-32681D01*
X31697Y-32696D01*
X31722Y-32707D01*
X31749Y-32712D01*
X31776Y-32713D01*
X32249Y-32713D01*
X32276Y-32707D01*
X32302Y-32697D01*
X32324Y-32682D01*
X32344Y-32662D01*
X32359Y-32639D01*
X32370Y-32614D01*
X32375Y-32587D01*
X32375Y-32584D01*
X32417Y-32603D01*
X32468Y-32614D01*
X32520Y-32615D01*
X32571Y-32606D01*
X32620Y-32587D01*
X32623Y-32585D01*
X32623Y-32586D01*
X32629Y-32613D01*
X32639Y-32639D01*
X32654Y-32661D01*
X32674Y-32681D01*
X32697Y-32696D01*
X32722Y-32707D01*
X32749Y-32712D01*
X32776Y-32713D01*
X33249Y-32713D01*
X33276Y-32707D01*
X33302Y-32697D01*
X33324Y-32682D01*
X33344Y-32662D01*
X33359Y-32639D01*
X33370Y-32614D01*
X33375Y-32587D01*
X33375Y-32577D01*
X33414Y-32577D01*
X33417Y-32578D01*
X33468Y-32589D01*
X33520Y-32590D01*
X33571Y-32581D01*
X33620Y-32562D01*
X33623Y-32560D01*
X33623Y-32586D01*
X33629Y-32613D01*
X33639Y-32639D01*
X33654Y-32661D01*
X33674Y-32681D01*
X33697Y-32696D01*
X33722Y-32707D01*
X33749Y-32712D01*
X33776Y-32713D01*
X34249Y-32713D01*
X34276Y-32707D01*
X34302Y-32697D01*
X34324Y-32682D01*
X34344Y-32662D01*
X34359Y-32639D01*
X34370Y-32614D01*
X34375Y-32587D01*
X34375Y-32577D01*
X34389Y-32577D01*
X34392Y-32578D01*
X34443Y-32589D01*
X34495Y-32590D01*
X34546Y-32581D01*
X34595Y-32562D01*
X34623Y-32544D01*
X34623Y-32586D01*
X34629Y-32613D01*
X34639Y-32639D01*
X34654Y-32661D01*
X34674Y-32681D01*
X34697Y-32696D01*
X34722Y-32707D01*
X34749Y-32712D01*
X34776Y-32713D01*
X35249Y-32713D01*
X35276Y-32707D01*
X35302Y-32697D01*
X35324Y-32682D01*
X35344Y-32662D01*
X35359Y-32639D01*
X35370Y-32614D01*
X35375Y-32587D01*
X35375Y-32577D01*
X35439Y-32577D01*
X35442Y-32578D01*
X35493Y-32589D01*
X35545Y-32590D01*
X35596Y-32581D01*
X35623Y-32570D01*
X35623Y-32586D01*
X35629Y-32613D01*
X35639Y-32639D01*
X35654Y-32661D01*
X35674Y-32681D01*
X35697Y-32696D01*
X35722Y-32707D01*
X35749Y-32712D01*
X35776Y-32713D01*
X36249Y-32713D01*
X36276Y-32707D01*
X36302Y-32697D01*
X36324Y-32682D01*
X36344Y-32662D01*
X36359Y-32639D01*
X36370Y-32614D01*
X36375Y-32587D01*
X36375Y-32577D01*
X36414Y-32577D01*
X36417Y-32578D01*
X36468Y-32589D01*
X36520Y-32590D01*
X36571Y-32581D01*
X36620Y-32562D01*
X36623Y-32560D01*
X36623Y-32586D01*
X36629Y-32613D01*
X36639Y-32639D01*
X36654Y-32661D01*
X36674Y-32681D01*
X36697Y-32696D01*
X36722Y-32707D01*
X36749Y-32712D01*
X36776Y-32713D01*
X37249Y-32713D01*
X37276Y-32707D01*
X37302Y-32697D01*
X37324Y-32682D01*
X37344Y-32662D01*
X37359Y-32639D01*
X37370Y-32614D01*
X37375Y-32587D01*
X37375Y-32577D01*
X37439Y-32577D01*
X37442Y-32578D01*
X37493Y-32589D01*
X37545Y-32590D01*
X37596Y-32581D01*
X37623Y-32570D01*
X37623Y-32586D01*
X37629Y-32613D01*
X37639Y-32639D01*
X37654Y-32661D01*
X37674Y-32681D01*
X37697Y-32696D01*
X37722Y-32707D01*
X37749Y-32712D01*
X37776Y-32713D01*
X38249Y-32713D01*
X38276Y-32707D01*
X38302Y-32697D01*
X38324Y-32682D01*
X38344Y-32662D01*
X38359Y-32639D01*
X38370Y-32614D01*
X38375Y-32587D01*
X38375Y-32584D01*
X38417Y-32603D01*
X38468Y-32614D01*
X38520Y-32615D01*
X38571Y-32606D01*
X38620Y-32587D01*
X38623Y-32585D01*
X38623Y-32586D01*
X38629Y-32613D01*
X38639Y-32639D01*
X38654Y-32661D01*
X38674Y-32681D01*
X38697Y-32696D01*
X38722Y-32707D01*
X38749Y-32712D01*
X38776Y-32713D01*
X39249Y-32713D01*
X39276Y-32707D01*
X39302Y-32697D01*
X39324Y-32682D01*
X39344Y-32662D01*
X39359Y-32639D01*
X39370Y-32614D01*
X39375Y-32587D01*
X39375Y-32577D01*
X39464Y-32577D01*
X39467Y-32578D01*
X39518Y-32589D01*
X39570Y-32590D01*
X39621Y-32581D01*
X39670Y-32562D01*
X39713Y-32534D01*
X39751Y-32498D01*
X39781Y-32456D01*
X39802Y-32409D01*
X39814Y-32358D01*
X39815Y-32299D01*
X39815Y-33050D01*
X39428Y-33050D01*
X39428Y-34193D01*
X40453Y-34193D01*
X40453Y-35623D01*
X40447Y-35609D01*
X40431Y-35586D01*
X40412Y-35567D01*
X40390Y-35552D01*
X40365Y-35542D01*
X40338Y-35536D01*
X40093Y-35536D01*
X40058Y-35571D01*
X40058Y-35941D01*
X40428Y-35941D01*
X40463Y-35906D01*
X40463Y-35687D01*
X40463Y-36312D01*
X40463Y-36093D01*
X40428Y-36058D01*
X40058Y-36058D01*
X40058Y-36428D01*
X40093Y-36463D01*
X40338Y-36463D01*
X40365Y-36457D01*
X40390Y-36447D01*
X40412Y-36432D01*
X40431Y-36413D01*
X40447Y-36390D01*
X40457Y-36365D01*
X40463Y-36339D01*
X40463Y-36312D01*
X40463Y-36495D01*
X39941Y-36495D01*
X39941Y-36428D01*
X39941Y-36058D01*
X39941Y-35941D01*
X39941Y-35571D01*
X39906Y-35536D01*
X39815Y-35536D01*
X39815Y-34874D01*
X39804Y-34823D01*
X39785Y-34774D01*
X39756Y-34731D01*
X39719Y-34694D01*
X39676Y-34665D01*
X39628Y-34645D01*
X39577Y-34635D01*
X39525Y-34634D01*
X39474Y-34644D01*
X39426Y-34664D01*
X39412Y-34673D01*
X39376Y-34673D01*
X39376Y-34663D01*
X39374Y-34655D01*
X39374Y-34336D01*
X39374Y-33837D01*
X39374Y-33412D01*
X39374Y-32913D01*
X39369Y-32886D01*
X39358Y-32861D01*
X39343Y-32839D01*
X39324Y-32819D01*
X39302Y-32804D01*
X39277Y-32794D01*
X39250Y-32788D01*
X39223Y-32788D01*
X39093Y-32788D01*
X39058Y-32823D01*
X39058Y-33104D01*
X39339Y-33104D01*
X39374Y-33069D01*
X39374Y-32913D01*
X39374Y-33412D01*
X39374Y-33256D01*
X39339Y-33221D01*
X39058Y-33221D01*
X39058Y-33502D01*
X39093Y-33537D01*
X39223Y-33537D01*
X39250Y-33537D01*
X39277Y-33531D01*
X39302Y-33521D01*
X39324Y-33506D01*
X39343Y-33486D01*
X39358Y-33464D01*
X39369Y-33439D01*
X39374Y-33412D01*
X39374Y-33837D01*
X39369Y-33810D01*
X39358Y-33785D01*
X39343Y-33763D01*
X39324Y-33743D01*
X39302Y-33728D01*
X39277Y-33718D01*
X39250Y-33712D01*
X39223Y-33712D01*
X39093Y-33712D01*
X39058Y-33747D01*
X39058Y-34028D01*
X39339Y-34028D01*
X39374Y-33993D01*
X39374Y-33837D01*
X39374Y-34336D01*
X39374Y-34180D01*
X39339Y-34145D01*
X39058Y-34145D01*
X39058Y-34426D01*
X39093Y-34461D01*
X39223Y-34461D01*
X39250Y-34461D01*
X39277Y-34455D01*
X39302Y-34445D01*
X39324Y-34430D01*
X39343Y-34410D01*
X39358Y-34388D01*
X39369Y-34363D01*
X39374Y-34336D01*
X39374Y-34655D01*
X39370Y-34636D01*
X39360Y-34610D01*
X39345Y-34588D01*
X39325Y-34568D01*
X39302Y-34553D01*
X39277Y-34542D01*
X39250Y-34537D01*
X39223Y-34536D01*
X38941Y-34536D01*
X38941Y-34426D01*
X38941Y-34145D01*
X38941Y-34028D01*
X38941Y-33747D01*
X38941Y-33502D01*
X38941Y-33221D01*
X38941Y-33104D01*
X38941Y-32823D01*
X38906Y-32788D01*
X38776Y-32788D01*
X38749Y-32788D01*
X38722Y-32794D01*
X38697Y-32804D01*
X38675Y-32819D01*
X38656Y-32839D01*
X38641Y-32861D01*
X38630Y-32886D01*
X38625Y-32913D01*
X38625Y-33069D01*
X38660Y-33104D01*
X38941Y-33104D01*
X38941Y-33221D01*
X38660Y-33221D01*
X38625Y-33256D01*
X38625Y-33412D01*
X38630Y-33439D01*
X38641Y-33464D01*
X38656Y-33486D01*
X38675Y-33506D01*
X38697Y-33521D01*
X38722Y-33531D01*
X38749Y-33537D01*
X38776Y-33537D01*
X38906Y-33537D01*
X38941Y-33502D01*
X38941Y-33747D01*
X38906Y-33712D01*
X38776Y-33712D01*
X38749Y-33712D01*
X38722Y-33718D01*
X38697Y-33728D01*
X38675Y-33743D01*
X38656Y-33763D01*
X38641Y-33785D01*
X38630Y-33810D01*
X38625Y-33837D01*
X38625Y-33993D01*
X38660Y-34028D01*
X38941Y-34028D01*
X38941Y-34145D01*
X38660Y-34145D01*
X38625Y-34180D01*
X38625Y-34336D01*
X38630Y-34363D01*
X38641Y-34388D01*
X38656Y-34410D01*
X38675Y-34430D01*
X38697Y-34445D01*
X38722Y-34455D01*
X38749Y-34461D01*
X38776Y-34461D01*
X38906Y-34461D01*
X38941Y-34426D01*
X38941Y-34536D01*
X38750Y-34536D01*
X38723Y-34542D01*
X38697Y-34552D01*
X38675Y-34567D01*
X38655Y-34587D01*
X38640Y-34610D01*
X38629Y-34635D01*
X38624Y-34662D01*
X38624Y-34664D01*
X38578Y-34645D01*
X38527Y-34635D01*
X38475Y-34634D01*
X38424Y-34644D01*
X38376Y-34664D01*
X38376Y-34664D01*
X38376Y-34663D01*
X38374Y-34655D01*
X38374Y-34336D01*
X38374Y-33837D01*
X38374Y-33412D01*
X38374Y-32913D01*
X38369Y-32886D01*
X38358Y-32861D01*
X38343Y-32839D01*
X38324Y-32819D01*
X38302Y-32804D01*
X38277Y-32794D01*
X38250Y-32788D01*
X38223Y-32788D01*
X38093Y-32788D01*
X38058Y-32823D01*
X38058Y-33104D01*
X38339Y-33104D01*
X38374Y-33069D01*
X38374Y-32913D01*
X38374Y-33412D01*
X38374Y-33256D01*
X38339Y-33221D01*
X38058Y-33221D01*
X38058Y-33502D01*
X38093Y-33537D01*
X38223Y-33537D01*
X38250Y-33537D01*
X38277Y-33531D01*
X38302Y-33521D01*
X38324Y-33506D01*
X38343Y-33486D01*
X38358Y-33464D01*
X38369Y-33439D01*
X38374Y-33412D01*
X38374Y-33837D01*
X38369Y-33810D01*
X38358Y-33785D01*
X38343Y-33763D01*
X38324Y-33743D01*
X38302Y-33728D01*
X38277Y-33718D01*
X38250Y-33712D01*
X38223Y-33712D01*
X38093Y-33712D01*
X38058Y-33747D01*
X38058Y-34028D01*
X38339Y-34028D01*
X38374Y-33993D01*
X38374Y-33837D01*
X38374Y-34336D01*
X38374Y-34180D01*
X38339Y-34145D01*
X38058Y-34145D01*
X38058Y-34426D01*
X38093Y-34461D01*
X38223Y-34461D01*
X38250Y-34461D01*
X38277Y-34455D01*
X38302Y-34445D01*
X38324Y-34430D01*
X38343Y-34410D01*
X38358Y-34388D01*
X38369Y-34363D01*
X38374Y-34336D01*
X38374Y-34655D01*
X38370Y-34636D01*
X38360Y-34610D01*
X38345Y-34588D01*
X38325Y-34568D01*
X38302Y-34553D01*
X38277Y-34542D01*
X38250Y-34537D01*
X38223Y-34536D01*
X37941Y-34536D01*
X37941Y-34426D01*
X37941Y-34145D01*
X37941Y-34028D01*
X37941Y-33747D01*
X37941Y-33502D01*
X37941Y-33221D01*
X37941Y-33104D01*
X37941Y-32823D01*
X37906Y-32788D01*
X37776Y-32788D01*
X37749Y-32788D01*
X37722Y-32794D01*
X37697Y-32804D01*
X37675Y-32819D01*
X37656Y-32839D01*
X37641Y-32861D01*
X37630Y-32886D01*
X37625Y-32913D01*
X37625Y-33069D01*
X37660Y-33104D01*
X37941Y-33104D01*
X37941Y-33221D01*
X37660Y-33221D01*
X37625Y-33256D01*
X37625Y-33412D01*
X37630Y-33439D01*
X37641Y-33464D01*
X37656Y-33486D01*
X37675Y-33506D01*
X37697Y-33521D01*
X37722Y-33531D01*
X37749Y-33537D01*
X37776Y-33537D01*
X37906Y-33537D01*
X37941Y-33502D01*
X37941Y-33747D01*
X37906Y-33712D01*
X37776Y-33712D01*
X37749Y-33712D01*
X37722Y-33718D01*
X37697Y-33728D01*
X37675Y-33743D01*
X37656Y-33763D01*
X37641Y-33785D01*
X37630Y-33810D01*
X37625Y-33837D01*
X37625Y-33993D01*
X37660Y-34028D01*
X37941Y-34028D01*
X37941Y-34145D01*
X37660Y-34145D01*
X37625Y-34180D01*
X37625Y-34336D01*
X37630Y-34363D01*
X37641Y-34388D01*
X37656Y-34410D01*
X37675Y-34430D01*
X37697Y-34445D01*
X37722Y-34455D01*
X37749Y-34461D01*
X37776Y-34461D01*
X37906Y-34461D01*
X37941Y-34426D01*
X37941Y-34536D01*
X37750Y-34536D01*
X37723Y-34542D01*
X37697Y-34552D01*
X37675Y-34567D01*
X37655Y-34587D01*
X37640Y-34610D01*
X37629Y-34635D01*
X37625Y-34654D01*
X37603Y-34645D01*
X37552Y-34635D01*
X37500Y-34634D01*
X37449Y-34644D01*
X37401Y-34664D01*
X37387Y-34673D01*
X37376Y-34673D01*
X37376Y-34663D01*
X37374Y-34655D01*
X37374Y-34336D01*
X37374Y-33837D01*
X37374Y-33412D01*
X37374Y-32913D01*
X37369Y-32886D01*
X37358Y-32861D01*
X37343Y-32839D01*
X37324Y-32819D01*
X37302Y-32804D01*
X37277Y-32794D01*
X37250Y-32788D01*
X37223Y-32788D01*
X37093Y-32788D01*
X37058Y-32823D01*
X37058Y-33104D01*
X37339Y-33104D01*
X37374Y-33069D01*
X37374Y-32913D01*
X37374Y-33412D01*
X37374Y-33256D01*
X37339Y-33221D01*
X37058Y-33221D01*
X37058Y-33502D01*
X37093Y-33537D01*
X37223Y-33537D01*
X37250Y-33537D01*
X37277Y-33531D01*
X37302Y-33521D01*
X37324Y-33506D01*
X37343Y-33486D01*
X37358Y-33464D01*
X37369Y-33439D01*
X37374Y-33412D01*
X37374Y-33837D01*
X37369Y-33810D01*
X37358Y-33785D01*
X37343Y-33763D01*
X37324Y-33743D01*
X37302Y-33728D01*
X37277Y-33718D01*
X37250Y-33712D01*
X37223Y-33712D01*
X37093Y-33712D01*
X37058Y-33747D01*
X37058Y-34028D01*
X37339Y-34028D01*
X37374Y-33993D01*
X37374Y-33837D01*
X37374Y-34336D01*
X37374Y-34180D01*
X37339Y-34145D01*
X37058Y-34145D01*
X37058Y-34426D01*
X37093Y-34461D01*
X37223Y-34461D01*
X37250Y-34461D01*
X37277Y-34455D01*
X37302Y-34445D01*
X37324Y-34430D01*
X37343Y-34410D01*
X37358Y-34388D01*
X37369Y-34363D01*
X37374Y-34336D01*
X37374Y-34655D01*
X37370Y-34636D01*
X37360Y-34610D01*
X37345Y-34588D01*
X37325Y-34568D01*
X37302Y-34553D01*
X37277Y-34542D01*
X37250Y-34537D01*
X37223Y-34536D01*
X36941Y-34536D01*
X36941Y-34426D01*
X36941Y-34145D01*
X36941Y-34028D01*
X36941Y-33747D01*
X36941Y-33502D01*
X36941Y-33221D01*
X36941Y-33104D01*
X36941Y-32823D01*
X36906Y-32788D01*
X36776Y-32788D01*
X36749Y-32788D01*
X36722Y-32794D01*
X36697Y-32804D01*
X36675Y-32819D01*
X36656Y-32839D01*
X36641Y-32861D01*
X36630Y-32886D01*
X36625Y-32913D01*
X36625Y-33069D01*
X36660Y-33104D01*
X36941Y-33104D01*
X36941Y-33221D01*
X36660Y-33221D01*
X36625Y-33256D01*
X36625Y-33412D01*
X36630Y-33439D01*
X36641Y-33464D01*
X36656Y-33486D01*
X36675Y-33506D01*
X36697Y-33521D01*
X36722Y-33531D01*
X36749Y-33537D01*
X36776Y-33537D01*
X36906Y-33537D01*
X36941Y-33502D01*
X36941Y-33747D01*
X36906Y-33712D01*
X36776Y-33712D01*
X36749Y-33712D01*
X36722Y-33718D01*
X36697Y-33728D01*
X36675Y-33743D01*
X36656Y-33763D01*
X36641Y-33785D01*
X36630Y-33810D01*
X36625Y-33837D01*
X36625Y-33993D01*
X36660Y-34028D01*
X36941Y-34028D01*
X36941Y-34145D01*
X36660Y-34145D01*
X36625Y-34180D01*
X36625Y-34336D01*
X36630Y-34363D01*
X36641Y-34388D01*
X36656Y-34410D01*
X36675Y-34430D01*
X36697Y-34445D01*
X36722Y-34455D01*
X36749Y-34461D01*
X36776Y-34461D01*
X36906Y-34461D01*
X36941Y-34426D01*
X36941Y-34536D01*
X36750Y-34536D01*
X36723Y-34542D01*
X36697Y-34552D01*
X36675Y-34567D01*
X36655Y-34587D01*
X36640Y-34610D01*
X36629Y-34635D01*
X36624Y-34662D01*
X36624Y-34664D01*
X36578Y-34645D01*
X36527Y-34635D01*
X36475Y-34634D01*
X36424Y-34644D01*
X36376Y-34664D01*
X36376Y-34664D01*
X36376Y-34663D01*
X36374Y-34655D01*
X36374Y-34336D01*
X36374Y-33837D01*
X36374Y-33412D01*
X36374Y-32913D01*
X36369Y-32886D01*
X36358Y-32861D01*
X36343Y-32839D01*
X36324Y-32819D01*
X36302Y-32804D01*
X36277Y-32794D01*
X36250Y-32788D01*
X36223Y-32788D01*
X36093Y-32788D01*
X36058Y-32823D01*
X36058Y-33104D01*
X36339Y-33104D01*
X36374Y-33069D01*
X36374Y-32913D01*
X36374Y-33412D01*
X36374Y-33256D01*
X36339Y-33221D01*
X36058Y-33221D01*
X36058Y-33502D01*
X36093Y-33537D01*
X36223Y-33537D01*
X36250Y-33537D01*
X36277Y-33531D01*
X36302Y-33521D01*
X36324Y-33506D01*
X36343Y-33486D01*
X36358Y-33464D01*
X36369Y-33439D01*
X36374Y-33412D01*
X36374Y-33837D01*
X36369Y-33810D01*
X36358Y-33785D01*
X36343Y-33763D01*
X36324Y-33743D01*
X36302Y-33728D01*
X36277Y-33718D01*
X36250Y-33712D01*
X36223Y-33712D01*
X36093Y-33712D01*
X36058Y-33747D01*
X36058Y-34028D01*
X36339Y-34028D01*
X36374Y-33993D01*
X36374Y-33837D01*
X36374Y-34336D01*
X36374Y-34180D01*
X36339Y-34145D01*
X36058Y-34145D01*
X36058Y-34426D01*
X36093Y-34461D01*
X36223Y-34461D01*
X36250Y-34461D01*
X36277Y-34455D01*
X36302Y-34445D01*
X36324Y-34430D01*
X36343Y-34410D01*
X36358Y-34388D01*
X36369Y-34363D01*
X36374Y-34336D01*
X36374Y-34655D01*
X36370Y-34636D01*
X36360Y-34610D01*
X36345Y-34588D01*
X36325Y-34568D01*
X36302Y-34553D01*
X36277Y-34542D01*
X36250Y-34537D01*
X36223Y-34536D01*
X35941Y-34536D01*
X35941Y-34426D01*
X35941Y-34145D01*
X35941Y-34028D01*
X35941Y-33747D01*
X35941Y-33502D01*
X35941Y-33221D01*
X35941Y-33104D01*
X35941Y-32823D01*
X35906Y-32788D01*
X35776Y-32788D01*
X35749Y-32788D01*
X35722Y-32794D01*
X35697Y-32804D01*
X35675Y-32819D01*
X35656Y-32839D01*
X35641Y-32861D01*
X35630Y-32886D01*
X35625Y-32913D01*
X35625Y-33069D01*
X35660Y-33104D01*
X35941Y-33104D01*
X35941Y-33221D01*
X35660Y-33221D01*
X35625Y-33256D01*
X35625Y-33412D01*
X35630Y-33439D01*
X35641Y-33464D01*
X35656Y-33486D01*
X35675Y-33506D01*
X35697Y-33521D01*
X35722Y-33531D01*
X35749Y-33537D01*
X35776Y-33537D01*
X35906Y-33537D01*
X35941Y-33502D01*
X35941Y-33747D01*
X35906Y-33712D01*
X35776Y-33712D01*
X35749Y-33712D01*
X35722Y-33718D01*
X35697Y-33728D01*
X35675Y-33743D01*
X35656Y-33763D01*
X35641Y-33785D01*
X35630Y-33810D01*
X35625Y-33837D01*
X35625Y-33993D01*
X35660Y-34028D01*
X35941Y-34028D01*
X35941Y-34145D01*
X35660Y-34145D01*
X35625Y-34180D01*
X35625Y-34336D01*
X35630Y-34363D01*
X35641Y-34388D01*
X35656Y-34410D01*
X35675Y-34430D01*
X35697Y-34445D01*
X35722Y-34455D01*
X35749Y-34461D01*
X35776Y-34461D01*
X35906Y-34461D01*
X35941Y-34426D01*
X35941Y-34536D01*
X35750Y-34536D01*
X35723Y-34542D01*
X35697Y-34552D01*
X35675Y-34567D01*
X35655Y-34587D01*
X35640Y-34610D01*
X35629Y-34635D01*
X35625Y-34654D01*
X35603Y-34645D01*
X35552Y-34635D01*
X35500Y-34634D01*
X35449Y-34644D01*
X35401Y-34664D01*
X35387Y-34673D01*
X35376Y-34673D01*
X35376Y-34663D01*
X35374Y-34655D01*
X35374Y-34336D01*
X35374Y-33837D01*
X35374Y-33412D01*
X35374Y-32913D01*
X35369Y-32886D01*
X35358Y-32861D01*
X35343Y-32839D01*
X35324Y-32819D01*
X35302Y-32804D01*
X35277Y-32794D01*
X35250Y-32788D01*
X35223Y-32788D01*
X35093Y-32788D01*
X35058Y-32823D01*
X35058Y-33104D01*
X35339Y-33104D01*
X35374Y-33069D01*
X35374Y-32913D01*
X35374Y-33412D01*
X35374Y-33256D01*
X35339Y-33221D01*
X35058Y-33221D01*
X35058Y-33502D01*
X35093Y-33537D01*
X35223Y-33537D01*
X35250Y-33537D01*
X35277Y-33531D01*
X35302Y-33521D01*
X35324Y-33506D01*
X35343Y-33486D01*
X35358Y-33464D01*
X35369Y-33439D01*
X35374Y-33412D01*
X35374Y-33837D01*
X35369Y-33810D01*
X35358Y-33785D01*
X35343Y-33763D01*
X35324Y-33743D01*
X35302Y-33728D01*
X35277Y-33718D01*
X35250Y-33712D01*
X35223Y-33712D01*
X35093Y-33712D01*
X35058Y-33747D01*
X35058Y-34028D01*
X35339Y-34028D01*
X35374Y-33993D01*
X35374Y-33837D01*
X35374Y-34336D01*
X35374Y-34180D01*
X35339Y-34145D01*
X35058Y-34145D01*
X35058Y-34426D01*
X35093Y-34461D01*
X35223Y-34461D01*
X35250Y-34461D01*
X35277Y-34455D01*
X35302Y-34445D01*
X35324Y-34430D01*
X35343Y-34410D01*
X35358Y-34388D01*
X35369Y-34363D01*
X35374Y-34336D01*
X35374Y-34655D01*
X35370Y-34636D01*
X35360Y-34610D01*
X35345Y-34588D01*
X35325Y-34568D01*
X35302Y-34553D01*
X35277Y-34542D01*
X35250Y-34537D01*
X35223Y-34536D01*
X34941Y-34536D01*
X34941Y-34426D01*
X34941Y-34145D01*
X34941Y-34028D01*
X34941Y-33747D01*
X34941Y-33502D01*
X34941Y-33221D01*
X34941Y-33104D01*
X34941Y-32823D01*
X34906Y-32788D01*
X34776Y-32788D01*
X34749Y-32788D01*
X34722Y-32794D01*
X34697Y-32804D01*
X34675Y-32819D01*
X34656Y-32839D01*
X34641Y-32861D01*
X34630Y-32886D01*
X34625Y-32913D01*
X34625Y-33069D01*
X34660Y-33104D01*
X34941Y-33104D01*
X34941Y-33221D01*
X34660Y-33221D01*
X34625Y-33256D01*
X34625Y-33412D01*
X34630Y-33439D01*
X34641Y-33464D01*
X34656Y-33486D01*
X34675Y-33506D01*
X34697Y-33521D01*
X34722Y-33531D01*
X34749Y-33537D01*
X34776Y-33537D01*
X34906Y-33537D01*
X34941Y-33502D01*
X34941Y-33747D01*
X34906Y-33712D01*
X34776Y-33712D01*
X34749Y-33712D01*
X34722Y-33718D01*
X34697Y-33728D01*
X34675Y-33743D01*
X34656Y-33763D01*
X34641Y-33785D01*
X34630Y-33810D01*
X34625Y-33837D01*
X34625Y-33993D01*
X34660Y-34028D01*
X34941Y-34028D01*
X34941Y-34145D01*
X34660Y-34145D01*
X34625Y-34180D01*
X34625Y-34336D01*
X34630Y-34363D01*
X34641Y-34388D01*
X34656Y-34410D01*
X34675Y-34430D01*
X34697Y-34445D01*
X34722Y-34455D01*
X34749Y-34461D01*
X34776Y-34461D01*
X34906Y-34461D01*
X34941Y-34426D01*
X34941Y-34536D01*
X34750Y-34536D01*
X34723Y-34542D01*
X34697Y-34552D01*
X34675Y-34567D01*
X34655Y-34587D01*
X34640Y-34610D01*
X34629Y-34635D01*
X34624Y-34662D01*
X34623Y-34689D01*
X34623Y-34705D01*
X34601Y-34690D01*
X34553Y-34670D01*
X34502Y-34660D01*
X34450Y-34659D01*
X34399Y-34669D01*
X34391Y-34673D01*
X34376Y-34673D01*
X34376Y-34663D01*
X34374Y-34655D01*
X34374Y-34336D01*
X34374Y-33837D01*
X34374Y-33412D01*
X34374Y-32913D01*
X34369Y-32886D01*
X34358Y-32861D01*
X34343Y-32839D01*
X34324Y-32819D01*
X34302Y-32804D01*
X34277Y-32794D01*
X34250Y-32788D01*
X34223Y-32788D01*
X34093Y-32788D01*
X34058Y-32823D01*
X34058Y-33104D01*
X34339Y-33104D01*
X34374Y-33069D01*
X34374Y-32913D01*
X34374Y-33412D01*
X34374Y-33256D01*
X34339Y-33221D01*
X34058Y-33221D01*
X34058Y-33502D01*
X34093Y-33537D01*
X34223Y-33537D01*
X34250Y-33537D01*
X34277Y-33531D01*
X34302Y-33521D01*
X34324Y-33506D01*
X34343Y-33486D01*
X34358Y-33464D01*
X34369Y-33439D01*
X34374Y-33412D01*
X34374Y-33837D01*
X34369Y-33810D01*
X34358Y-33785D01*
X34343Y-33763D01*
X34324Y-33743D01*
X34302Y-33728D01*
X34277Y-33718D01*
X34250Y-33712D01*
X34223Y-33712D01*
X34093Y-33712D01*
X34058Y-33747D01*
X34058Y-34028D01*
X34339Y-34028D01*
X34374Y-33993D01*
X34374Y-33837D01*
X34374Y-34336D01*
X34374Y-34180D01*
X34339Y-34145D01*
X34058Y-34145D01*
X34058Y-34426D01*
X34093Y-34461D01*
X34223Y-34461D01*
X34250Y-34461D01*
X34277Y-34455D01*
X34302Y-34445D01*
X34324Y-34430D01*
X34343Y-34410D01*
X34358Y-34388D01*
X34369Y-34363D01*
X34374Y-34336D01*
X34374Y-34655D01*
X34370Y-34636D01*
X34360Y-34610D01*
X34345Y-34588D01*
X34325Y-34568D01*
X34302Y-34553D01*
X34277Y-34542D01*
X34250Y-34537D01*
X34223Y-34536D01*
X33941Y-34536D01*
X33941Y-34426D01*
X33941Y-34145D01*
X33941Y-34028D01*
X33941Y-33747D01*
X33941Y-33502D01*
X33941Y-33221D01*
X33941Y-33104D01*
X33941Y-32823D01*
X33906Y-32788D01*
X33776Y-32788D01*
X33749Y-32788D01*
X33722Y-32794D01*
X33697Y-32804D01*
X33675Y-32819D01*
X33656Y-32839D01*
X33641Y-32861D01*
X33630Y-32886D01*
X33625Y-32913D01*
X33625Y-33069D01*
X33660Y-33104D01*
X33941Y-33104D01*
X33941Y-33221D01*
X33660Y-33221D01*
X33625Y-33256D01*
X33625Y-33412D01*
X33630Y-33439D01*
X33641Y-33464D01*
X33656Y-33486D01*
X33675Y-33506D01*
X33697Y-33521D01*
X33722Y-33531D01*
X33749Y-33537D01*
X33776Y-33537D01*
X33906Y-33537D01*
X33941Y-33502D01*
X33941Y-33747D01*
X33906Y-33712D01*
X33776Y-33712D01*
X33749Y-33712D01*
X33722Y-33718D01*
X33697Y-33728D01*
X33675Y-33743D01*
X33656Y-33763D01*
X33641Y-33785D01*
X33630Y-33810D01*
X33625Y-33837D01*
X33625Y-33993D01*
X33660Y-34028D01*
X33941Y-34028D01*
X33941Y-34145D01*
X33660Y-34145D01*
X33625Y-34180D01*
X33625Y-34336D01*
X33630Y-34363D01*
X33641Y-34388D01*
X33656Y-34410D01*
X33675Y-34430D01*
X33697Y-34445D01*
X33722Y-34455D01*
X33749Y-34461D01*
X33776Y-34461D01*
X33906Y-34461D01*
X33941Y-34426D01*
X33941Y-34536D01*
X33750Y-34536D01*
X33723Y-34542D01*
X33697Y-34552D01*
X33675Y-34567D01*
X33655Y-34587D01*
X33640Y-34610D01*
X33629Y-34635D01*
X33624Y-34662D01*
X33623Y-34689D01*
X33578Y-34670D01*
X33527Y-34660D01*
X33475Y-34659D01*
X33424Y-34669D01*
X33416Y-34673D01*
X33376Y-34673D01*
X33376Y-34663D01*
X33374Y-34655D01*
X33374Y-34336D01*
X33374Y-33837D01*
X33374Y-33412D01*
X33374Y-32913D01*
X33369Y-32886D01*
X33358Y-32861D01*
X33343Y-32839D01*
X33324Y-32819D01*
X33302Y-32804D01*
X33277Y-32794D01*
X33250Y-32788D01*
X33223Y-32788D01*
X33093Y-32788D01*
X33058Y-32823D01*
X33058Y-33104D01*
X33339Y-33104D01*
X33374Y-33069D01*
X33374Y-32913D01*
X33374Y-33412D01*
X33374Y-33256D01*
X33339Y-33221D01*
X33058Y-33221D01*
X33058Y-33502D01*
X33093Y-33537D01*
X33223Y-33537D01*
X33250Y-33537D01*
X33277Y-33531D01*
X33302Y-33521D01*
X33324Y-33506D01*
X33343Y-33486D01*
X33358Y-33464D01*
X33369Y-33439D01*
X33374Y-33412D01*
X33374Y-33837D01*
X33369Y-33810D01*
X33358Y-33785D01*
X33343Y-33763D01*
X33324Y-33743D01*
X33302Y-33728D01*
X33277Y-33718D01*
X33250Y-33712D01*
X33223Y-33712D01*
X33093Y-33712D01*
X33058Y-33747D01*
X33058Y-34028D01*
X33339Y-34028D01*
X33374Y-33993D01*
X33374Y-33837D01*
X33374Y-34336D01*
X33374Y-34180D01*
X33339Y-34145D01*
X33058Y-34145D01*
X33058Y-34426D01*
X33093Y-34461D01*
X33223Y-34461D01*
X33250Y-34461D01*
X33277Y-34455D01*
X33302Y-34445D01*
X33324Y-34430D01*
X33343Y-34410D01*
X33358Y-34388D01*
X33369Y-34363D01*
X33374Y-34336D01*
X33374Y-34655D01*
X33370Y-34636D01*
X33360Y-34610D01*
X33345Y-34588D01*
X33325Y-34568D01*
X33302Y-34553D01*
X33277Y-34542D01*
X33250Y-34537D01*
X33223Y-34536D01*
X32941Y-34536D01*
X32941Y-34426D01*
X32941Y-34145D01*
X32941Y-34028D01*
X32941Y-33747D01*
X32941Y-33502D01*
X32941Y-33221D01*
X32941Y-33104D01*
X32941Y-32823D01*
X32906Y-32788D01*
X32776Y-32788D01*
X32749Y-32788D01*
X32722Y-32794D01*
X32697Y-32804D01*
X32675Y-32819D01*
X32656Y-32839D01*
X32641Y-32861D01*
X32630Y-32886D01*
X32625Y-32913D01*
X32625Y-33069D01*
X32660Y-33104D01*
X32941Y-33104D01*
X32941Y-33221D01*
X32660Y-33221D01*
X32625Y-33256D01*
X32625Y-33412D01*
X32630Y-33439D01*
X32641Y-33464D01*
X32656Y-33486D01*
X32675Y-33506D01*
X32697Y-33521D01*
X32722Y-33531D01*
X32749Y-33537D01*
X32776Y-33537D01*
X32906Y-33537D01*
X32941Y-33502D01*
X32941Y-33747D01*
X32906Y-33712D01*
X32776Y-33712D01*
X32749Y-33712D01*
X32722Y-33718D01*
X32697Y-33728D01*
X32675Y-33743D01*
X32656Y-33763D01*
X32641Y-33785D01*
X32630Y-33810D01*
X32625Y-33837D01*
X32625Y-33993D01*
X32660Y-34028D01*
X32941Y-34028D01*
X32941Y-34145D01*
X32660Y-34145D01*
X32625Y-34180D01*
X32625Y-34336D01*
X32630Y-34363D01*
X32641Y-34388D01*
X32656Y-34410D01*
X32675Y-34430D01*
X32697Y-34445D01*
X32722Y-34455D01*
X32749Y-34461D01*
X32776Y-34461D01*
X32906Y-34461D01*
X32941Y-34426D01*
X32941Y-34536D01*
X32750Y-34536D01*
X32723Y-34542D01*
X32697Y-34552D01*
X32675Y-34567D01*
X32655Y-34587D01*
X32640Y-34610D01*
X32629Y-34635D01*
X32624Y-34662D01*
X32623Y-34689D01*
X32578Y-34670D01*
X32527Y-34660D01*
X32475Y-34659D01*
X32424Y-34669D01*
X32416Y-34673D01*
X32376Y-34673D01*
X32376Y-34663D01*
X32374Y-34655D01*
X32374Y-34336D01*
X32374Y-33837D01*
X32374Y-33412D01*
X32374Y-32913D01*
X32369Y-32886D01*
X32358Y-32861D01*
X32343Y-32839D01*
X32324Y-32819D01*
X32302Y-32804D01*
X32277Y-32794D01*
X32250Y-32788D01*
X32223Y-32788D01*
X32093Y-32788D01*
X32058Y-32823D01*
X32058Y-33104D01*
X32339Y-33104D01*
X32374Y-33069D01*
X32374Y-32913D01*
X32374Y-33412D01*
X32374Y-33256D01*
X32339Y-33221D01*
X32058Y-33221D01*
X32058Y-33502D01*
X32093Y-33537D01*
X32223Y-33537D01*
X32250Y-33537D01*
X32277Y-33531D01*
X32302Y-33521D01*
X32324Y-33506D01*
X32343Y-33486D01*
X32358Y-33464D01*
X32369Y-33439D01*
X32374Y-33412D01*
X32374Y-33837D01*
X32369Y-33810D01*
X32358Y-33785D01*
X32343Y-33763D01*
X32324Y-33743D01*
X32302Y-33728D01*
X32277Y-33718D01*
X32250Y-33712D01*
X32223Y-33712D01*
X32093Y-33712D01*
X32058Y-33747D01*
X32058Y-34028D01*
X32339Y-34028D01*
X32374Y-33993D01*
X32374Y-33837D01*
X32374Y-34336D01*
X32374Y-34180D01*
X32339Y-34145D01*
X32058Y-34145D01*
X32058Y-34426D01*
X32093Y-34461D01*
X32223Y-34461D01*
X32250Y-34461D01*
X32277Y-34455D01*
X32302Y-34445D01*
X32324Y-34430D01*
X32343Y-34410D01*
X32358Y-34388D01*
X32369Y-34363D01*
X32374Y-34336D01*
X32374Y-34655D01*
X32370Y-34636D01*
X32360Y-34610D01*
X32345Y-34588D01*
X32325Y-34568D01*
X32302Y-34553D01*
X32277Y-34542D01*
X32250Y-34537D01*
X32223Y-34536D01*
X31941Y-34536D01*
X31941Y-34426D01*
X31941Y-34145D01*
X31941Y-34028D01*
X31941Y-33747D01*
X31941Y-33502D01*
X31941Y-33221D01*
X31941Y-33104D01*
X31941Y-32823D01*
X31906Y-32788D01*
X31776Y-32788D01*
X31749Y-32788D01*
X31722Y-32794D01*
X31697Y-32804D01*
X31675Y-32819D01*
X31656Y-32839D01*
X31641Y-32861D01*
X31630Y-32886D01*
X31625Y-32913D01*
X31625Y-33069D01*
X31660Y-33104D01*
X31941Y-33104D01*
X31941Y-33221D01*
X31660Y-33221D01*
X31625Y-33256D01*
X31625Y-33412D01*
X31630Y-33439D01*
X31641Y-33464D01*
X31656Y-33486D01*
X31675Y-33506D01*
X31697Y-33521D01*
X31722Y-33531D01*
X31749Y-33537D01*
X31776Y-33537D01*
X31906Y-33537D01*
X31941Y-33502D01*
X31941Y-33747D01*
X31906Y-33712D01*
X31776Y-33712D01*
X31749Y-33712D01*
X31722Y-33718D01*
X31697Y-33728D01*
X31675Y-33743D01*
X31656Y-33763D01*
X31641Y-33785D01*
X31630Y-33810D01*
X31625Y-33837D01*
X31625Y-33993D01*
X31660Y-34028D01*
X31941Y-34028D01*
X31941Y-34145D01*
X31660Y-34145D01*
X31625Y-34180D01*
X31625Y-34336D01*
X31630Y-34363D01*
X31641Y-34388D01*
X31656Y-34410D01*
X31675Y-34430D01*
X31697Y-34445D01*
X31722Y-34455D01*
X31749Y-34461D01*
X31776Y-34461D01*
X31906Y-34461D01*
X31941Y-34426D01*
X31941Y-34536D01*
X31750Y-34536D01*
X31723Y-34542D01*
X31697Y-34552D01*
X31675Y-34567D01*
X31655Y-34587D01*
X31640Y-34610D01*
X31629Y-34635D01*
X31624Y-34662D01*
X31623Y-34689D01*
X31623Y-35162D01*
X31629Y-35189D01*
X31639Y-35215D01*
X31654Y-35237D01*
X31674Y-35257D01*
X31697Y-35272D01*
X31722Y-35283D01*
X31749Y-35288D01*
X31776Y-35289D01*
X32249Y-35289D01*
X32276Y-35283D01*
X32302Y-35273D01*
X32324Y-35258D01*
X32344Y-35238D01*
X32359Y-35215D01*
X32370Y-35190D01*
X32375Y-35163D01*
X32375Y-35159D01*
X32417Y-35178D01*
X32468Y-35189D01*
X32520Y-35190D01*
X32571Y-35181D01*
X32620Y-35162D01*
X32623Y-35160D01*
X32623Y-35162D01*
X32629Y-35189D01*
X32639Y-35215D01*
X32654Y-35237D01*
X32674Y-35257D01*
X32697Y-35272D01*
X32722Y-35283D01*
X32749Y-35288D01*
X32776Y-35289D01*
X33249Y-35289D01*
X33276Y-35283D01*
X33302Y-35273D01*
X33324Y-35258D01*
X33344Y-35238D01*
X33359Y-35215D01*
X33370Y-35190D01*
X33375Y-35163D01*
X33375Y-35159D01*
X33417Y-35178D01*
X33468Y-35189D01*
X33520Y-35190D01*
X33571Y-35181D01*
X33620Y-35162D01*
X33623Y-35160D01*
X33623Y-35162D01*
X33629Y-35189D01*
X33639Y-35215D01*
X33654Y-35237D01*
X33674Y-35257D01*
X33697Y-35272D01*
X33722Y-35283D01*
X33749Y-35288D01*
X33776Y-35289D01*
X34249Y-35289D01*
X34276Y-35283D01*
X34302Y-35273D01*
X34324Y-35258D01*
X34344Y-35238D01*
X34359Y-35215D01*
X34370Y-35190D01*
X34374Y-35170D01*
X34392Y-35178D01*
X34443Y-35189D01*
X34495Y-35190D01*
X34546Y-35181D01*
X34595Y-35162D01*
X34623Y-35144D01*
X34623Y-35162D01*
X34629Y-35189D01*
X34639Y-35215D01*
X34654Y-35237D01*
X34674Y-35257D01*
X34697Y-35272D01*
X34722Y-35283D01*
X34749Y-35288D01*
X34776Y-35289D01*
X35249Y-35289D01*
X35276Y-35283D01*
X35302Y-35273D01*
X35324Y-35258D01*
X35344Y-35238D01*
X35359Y-35215D01*
X35370Y-35190D01*
X35375Y-35163D01*
X35375Y-35153D01*
X35442Y-35153D01*
X35442Y-35153D01*
X35493Y-35164D01*
X35545Y-35165D01*
X35596Y-35156D01*
X35623Y-35145D01*
X35623Y-35162D01*
X35629Y-35189D01*
X35639Y-35215D01*
X35654Y-35237D01*
X35674Y-35257D01*
X35697Y-35272D01*
X35722Y-35283D01*
X35749Y-35288D01*
X35776Y-35289D01*
X36249Y-35289D01*
X36276Y-35283D01*
X36302Y-35273D01*
X36324Y-35258D01*
X36344Y-35238D01*
X36359Y-35215D01*
X36370Y-35190D01*
X36375Y-35163D01*
X36375Y-35153D01*
X36417Y-35153D01*
X36417Y-35153D01*
X36468Y-35164D01*
X36520Y-35165D01*
X36571Y-35156D01*
X36620Y-35137D01*
X36623Y-35135D01*
X36623Y-35162D01*
X36629Y-35189D01*
X36639Y-35215D01*
X36654Y-35237D01*
X36674Y-35257D01*
X36697Y-35272D01*
X36722Y-35283D01*
X36749Y-35288D01*
X36776Y-35289D01*
X37249Y-35289D01*
X37276Y-35283D01*
X37302Y-35273D01*
X37324Y-35258D01*
X37344Y-35238D01*
X37359Y-35215D01*
X37370Y-35190D01*
X37375Y-35163D01*
X37375Y-35153D01*
X37442Y-35153D01*
X37442Y-35153D01*
X37493Y-35164D01*
X37545Y-35165D01*
X37596Y-35156D01*
X37623Y-35145D01*
X37623Y-35162D01*
X37629Y-35189D01*
X37639Y-35215D01*
X37654Y-35237D01*
X37674Y-35257D01*
X37697Y-35272D01*
X37722Y-35283D01*
X37749Y-35288D01*
X37776Y-35289D01*
X38249Y-35289D01*
X38276Y-35283D01*
X38302Y-35273D01*
X38324Y-35258D01*
X38344Y-35238D01*
X38359Y-35215D01*
X38370Y-35190D01*
X38375Y-35163D01*
X38375Y-35153D01*
X38417Y-35153D01*
X38417Y-35153D01*
X38468Y-35164D01*
X38520Y-35165D01*
X38571Y-35156D01*
X38620Y-35137D01*
X38623Y-35135D01*
X38623Y-35162D01*
X38629Y-35189D01*
X38639Y-35215D01*
X38654Y-35237D01*
X38674Y-35257D01*
X38697Y-35272D01*
X38722Y-35283D01*
X38749Y-35288D01*
X38776Y-35289D01*
X39249Y-35289D01*
X39276Y-35283D01*
X39302Y-35273D01*
X39324Y-35258D01*
X39344Y-35238D01*
X39359Y-35215D01*
X39370Y-35190D01*
X39375Y-35163D01*
X39375Y-35153D01*
X39467Y-35153D01*
X39467Y-35153D01*
X39518Y-35164D01*
X39570Y-35165D01*
X39621Y-35156D01*
X39670Y-35137D01*
X39713Y-35109D01*
X39751Y-35073D01*
X39781Y-35031D01*
X39802Y-34984D01*
X39814Y-34933D01*
X39815Y-34874D01*
X39815Y-35536D01*
X39661Y-35536D01*
X39634Y-35542D01*
X39609Y-35552D01*
X39587Y-35567D01*
X39568Y-35586D01*
X39552Y-35609D01*
X39542Y-35634D01*
X39536Y-35660D01*
X39536Y-35687D01*
X39536Y-35906D01*
X39571Y-35941D01*
X39941Y-35941D01*
X39941Y-36058D01*
X39571Y-36058D01*
X39536Y-36093D01*
X39536Y-36312D01*
X39536Y-36339D01*
X39542Y-36365D01*
X39552Y-36390D01*
X39568Y-36413D01*
X39587Y-36432D01*
X39609Y-36447D01*
X39634Y-36457D01*
X39661Y-36463D01*
X39906Y-36463D01*
X39941Y-36428D01*
X39941Y-36495D01*
X39464Y-36495D01*
X39464Y-35954D01*
X39447Y-35865D01*
X39412Y-35780D01*
X39361Y-35704D01*
X39297Y-35640D01*
X39222Y-35589D01*
X39138Y-35553D01*
X39048Y-35535D01*
X38957Y-35534D01*
X38868Y-35551D01*
X38783Y-35586D01*
X38707Y-35636D01*
X38642Y-35699D01*
X38590Y-35774D01*
X38554Y-35858D01*
X38535Y-35947D01*
X38534Y-36039D01*
X38551Y-36128D01*
X38584Y-36213D01*
X38633Y-36290D01*
X38697Y-36355D01*
X38772Y-36407D01*
X38855Y-36444D01*
X38944Y-36463D01*
X39035Y-36465D01*
X39125Y-36449D01*
X39210Y-36416D01*
X39287Y-36368D01*
X39353Y-36305D01*
X39406Y-36230D01*
X39443Y-36147D01*
X39463Y-36058D01*
X39464Y-35954D01*
X39464Y-36495D01*
X38464Y-36495D01*
X38464Y-35954D01*
X38447Y-35865D01*
X38412Y-35780D01*
X38361Y-35704D01*
X38297Y-35640D01*
X38222Y-35589D01*
X38138Y-35553D01*
X38048Y-35535D01*
X37957Y-35534D01*
X37868Y-35551D01*
X37783Y-35586D01*
X37707Y-35636D01*
X37642Y-35699D01*
X37590Y-35774D01*
X37554Y-35858D01*
X37535Y-35947D01*
X37534Y-36039D01*
X37551Y-36128D01*
X37584Y-36213D01*
X37633Y-36290D01*
X37697Y-36355D01*
X37772Y-36407D01*
X37855Y-36444D01*
X37944Y-36463D01*
X38035Y-36465D01*
X38125Y-36449D01*
X38210Y-36416D01*
X38287Y-36368D01*
X38353Y-36305D01*
X38406Y-36230D01*
X38443Y-36147D01*
X38463Y-36058D01*
X38464Y-35954D01*
X38464Y-36495D01*
X37464Y-36495D01*
X37464Y-35954D01*
X37447Y-35865D01*
X37412Y-35780D01*
X37361Y-35704D01*
X37297Y-35640D01*
X37222Y-35589D01*
X37138Y-35553D01*
X37048Y-35535D01*
X36957Y-35534D01*
X36868Y-35551D01*
X36783Y-35586D01*
X36707Y-35636D01*
X36642Y-35699D01*
X36590Y-35774D01*
X36554Y-35858D01*
X36535Y-35947D01*
X36534Y-36039D01*
X36551Y-36128D01*
X36584Y-36213D01*
X36633Y-36290D01*
X36697Y-36355D01*
X36772Y-36407D01*
X36855Y-36444D01*
X36944Y-36463D01*
X37035Y-36465D01*
X37125Y-36449D01*
X37210Y-36416D01*
X37287Y-36368D01*
X37353Y-36305D01*
X37406Y-36230D01*
X37443Y-36147D01*
X37463Y-36058D01*
X37464Y-35954D01*
X37464Y-36495D01*
X36464Y-36495D01*
X36464Y-35954D01*
X36447Y-35865D01*
X36412Y-35780D01*
X36361Y-35704D01*
X36297Y-35640D01*
X36222Y-35589D01*
X36138Y-35553D01*
X36048Y-35535D01*
X35957Y-35534D01*
X35868Y-35551D01*
X35783Y-35586D01*
X35707Y-35636D01*
X35642Y-35699D01*
X35590Y-35774D01*
X35554Y-35858D01*
X35535Y-35947D01*
X35534Y-36039D01*
X35551Y-36128D01*
X35584Y-36213D01*
X35633Y-36290D01*
X35697Y-36355D01*
X35772Y-36407D01*
X35855Y-36444D01*
X35944Y-36463D01*
X36035Y-36465D01*
X36125Y-36449D01*
X36210Y-36416D01*
X36287Y-36368D01*
X36353Y-36305D01*
X36406Y-36230D01*
X36443Y-36147D01*
X36463Y-36058D01*
X36464Y-35954D01*
X36464Y-36495D01*
X35464Y-36495D01*
X35464Y-35954D01*
X35447Y-35865D01*
X35412Y-35780D01*
X35361Y-35704D01*
X35297Y-35640D01*
X35222Y-35589D01*
X35138Y-35553D01*
X35048Y-35535D01*
X34957Y-35534D01*
X34868Y-35551D01*
X34783Y-35586D01*
X34707Y-35636D01*
X34642Y-35699D01*
X34590Y-35774D01*
X34554Y-35858D01*
X34535Y-35947D01*
X34534Y-36039D01*
X34551Y-36128D01*
X34584Y-36213D01*
X34633Y-36290D01*
X34697Y-36355D01*
X34772Y-36407D01*
X34855Y-36444D01*
X34944Y-36463D01*
X35035Y-36465D01*
X35125Y-36449D01*
X35210Y-36416D01*
X35287Y-36368D01*
X35353Y-36305D01*
X35406Y-36230D01*
X35443Y-36147D01*
X35463Y-36058D01*
X35464Y-35954D01*
X35464Y-36495D01*
X34464Y-36495D01*
X34464Y-35954D01*
X34447Y-35865D01*
X34412Y-35780D01*
X34361Y-35704D01*
X34297Y-35640D01*
X34222Y-35589D01*
X34138Y-35553D01*
X34048Y-35535D01*
X33957Y-35534D01*
X33868Y-35551D01*
X33783Y-35586D01*
X33707Y-35636D01*
X33642Y-35699D01*
X33590Y-35774D01*
X33554Y-35858D01*
X33535Y-35947D01*
X33534Y-36039D01*
X33551Y-36128D01*
X33584Y-36213D01*
X33633Y-36290D01*
X33697Y-36355D01*
X33772Y-36407D01*
X33855Y-36444D01*
X33944Y-36463D01*
X34035Y-36465D01*
X34125Y-36449D01*
X34210Y-36416D01*
X34287Y-36368D01*
X34353Y-36305D01*
X34406Y-36230D01*
X34443Y-36147D01*
X34463Y-36058D01*
X34464Y-35954D01*
X34464Y-36495D01*
X33464Y-36495D01*
X33464Y-35954D01*
X33447Y-35865D01*
X33412Y-35780D01*
X33361Y-35704D01*
X33297Y-35640D01*
X33222Y-35589D01*
X33138Y-35553D01*
X33048Y-35535D01*
X32957Y-35534D01*
X32868Y-35551D01*
X32783Y-35586D01*
X32707Y-35636D01*
X32642Y-35699D01*
X32590Y-35774D01*
X32554Y-35858D01*
X32535Y-35947D01*
X32534Y-36039D01*
X32551Y-36128D01*
X32584Y-36213D01*
X32633Y-36290D01*
X32697Y-36355D01*
X32772Y-36407D01*
X32855Y-36444D01*
X32944Y-36463D01*
X33035Y-36465D01*
X33125Y-36449D01*
X33210Y-36416D01*
X33287Y-36368D01*
X33353Y-36305D01*
X33406Y-36230D01*
X33443Y-36147D01*
X33463Y-36058D01*
X33464Y-35954D01*
X33464Y-36495D01*
X32464Y-36495D01*
X32464Y-35954D01*
X32447Y-35865D01*
X32412Y-35780D01*
X32361Y-35704D01*
X32297Y-35640D01*
X32222Y-35589D01*
X32138Y-35553D01*
X32048Y-35535D01*
X31957Y-35534D01*
X31868Y-35551D01*
X31783Y-35586D01*
X31707Y-35636D01*
X31642Y-35699D01*
X31590Y-35774D01*
X31554Y-35858D01*
X31535Y-35947D01*
X31534Y-36039D01*
X31551Y-36128D01*
X31584Y-36213D01*
X31633Y-36290D01*
X31697Y-36355D01*
X31772Y-36407D01*
X31855Y-36444D01*
X31944Y-36463D01*
X32035Y-36465D01*
X32125Y-36449D01*
X32210Y-36416D01*
X32287Y-36368D01*
X32353Y-36305D01*
X32406Y-36230D01*
X32443Y-36147D01*
X32463Y-36058D01*
X32464Y-35954D01*
X32464Y-36495D01*
X31496Y-36495D01*
X31496Y-31949D01*
X40471Y-31949D01*
X40471Y-36495D01*
X40471Y-36495D01*
G37*
G54D18*
X40471Y-36495D02*
X40463Y-36495D01*
X40463Y-36312D01*
X40463Y-35687D01*
X40463Y-35660D01*
X40457Y-35634D01*
X40453Y-35623D01*
X40453Y-34193D01*
X40453Y-33050D01*
X39815Y-33050D01*
X39815Y-32299D01*
X39804Y-32248D01*
X39785Y-32199D01*
X39756Y-32156D01*
X39719Y-32119D01*
X39676Y-32090D01*
X39628Y-32070D01*
X39577Y-32060D01*
X39525Y-32059D01*
X39474Y-32069D01*
X39426Y-32089D01*
X39414Y-32097D01*
X39376Y-32097D01*
X39376Y-32087D01*
X39370Y-32060D01*
X39360Y-32034D01*
X39345Y-32012D01*
X39325Y-31992D01*
X39302Y-31977D01*
X39277Y-31966D01*
X39250Y-31961D01*
X39223Y-31960D01*
X38750Y-31960D01*
X38723Y-31966D01*
X38697Y-31976D01*
X38675Y-31991D01*
X38655Y-32011D01*
X38640Y-32034D01*
X38629Y-32059D01*
X38624Y-32086D01*
X38623Y-32113D01*
X38623Y-32114D01*
X38578Y-32095D01*
X38527Y-32085D01*
X38475Y-32084D01*
X38424Y-32094D01*
X38418Y-32097D01*
X38376Y-32097D01*
X38376Y-32087D01*
X38370Y-32060D01*
X38360Y-32034D01*
X38345Y-32012D01*
X38325Y-31992D01*
X38302Y-31977D01*
X38277Y-31966D01*
X38250Y-31961D01*
X38223Y-31960D01*
X37750Y-31960D01*
X37723Y-31966D01*
X37697Y-31976D01*
X37675Y-31991D01*
X37655Y-32011D01*
X37640Y-32034D01*
X37629Y-32059D01*
X37625Y-32079D01*
X37603Y-32070D01*
X37552Y-32060D01*
X37500Y-32059D01*
X37449Y-32069D01*
X37401Y-32089D01*
X37389Y-32097D01*
X37376Y-32097D01*
X37376Y-32087D01*
X37370Y-32060D01*
X37360Y-32034D01*
X37345Y-32012D01*
X37325Y-31992D01*
X37302Y-31977D01*
X37277Y-31966D01*
X37250Y-31961D01*
X37223Y-31960D01*
X36750Y-31960D01*
X36723Y-31966D01*
X36697Y-31976D01*
X36675Y-31991D01*
X36655Y-32011D01*
X36640Y-32034D01*
X36629Y-32059D01*
X36624Y-32086D01*
X36624Y-32089D01*
X36578Y-32070D01*
X36527Y-32060D01*
X36475Y-32059D01*
X36424Y-32069D01*
X36376Y-32089D01*
X36376Y-32089D01*
X36376Y-32087D01*
X36370Y-32060D01*
X36360Y-32034D01*
X36345Y-32012D01*
X36325Y-31992D01*
X36302Y-31977D01*
X36277Y-31966D01*
X36250Y-31961D01*
X36223Y-31960D01*
X35750Y-31960D01*
X35723Y-31966D01*
X35697Y-31976D01*
X35675Y-31991D01*
X35655Y-32011D01*
X35640Y-32034D01*
X35629Y-32059D01*
X35625Y-32079D01*
X35603Y-32070D01*
X35552Y-32060D01*
X35500Y-32059D01*
X35449Y-32069D01*
X35401Y-32089D01*
X35389Y-32097D01*
X35376Y-32097D01*
X35376Y-32087D01*
X35370Y-32060D01*
X35360Y-32034D01*
X35345Y-32012D01*
X35325Y-31992D01*
X35302Y-31977D01*
X35277Y-31966D01*
X35250Y-31961D01*
X35223Y-31960D01*
X34750Y-31960D01*
X34723Y-31966D01*
X34697Y-31976D01*
X34675Y-31991D01*
X34655Y-32011D01*
X34640Y-32034D01*
X34629Y-32059D01*
X34624Y-32086D01*
X34623Y-32105D01*
X34601Y-32090D01*
X34553Y-32070D01*
X34502Y-32060D01*
X34450Y-32059D01*
X34399Y-32069D01*
X34374Y-32079D01*
X34370Y-32060D01*
X34360Y-32034D01*
X34345Y-32012D01*
X34325Y-31992D01*
X34302Y-31977D01*
X34277Y-31966D01*
X34250Y-31961D01*
X34223Y-31960D01*
X33750Y-31960D01*
X33723Y-31966D01*
X33697Y-31976D01*
X33675Y-31991D01*
X33655Y-32011D01*
X33640Y-32034D01*
X33629Y-32059D01*
X33624Y-32086D01*
X33624Y-32089D01*
X33578Y-32070D01*
X33527Y-32060D01*
X33475Y-32059D01*
X33424Y-32069D01*
X33376Y-32089D01*
X33376Y-32089D01*
X33376Y-32087D01*
X33370Y-32060D01*
X33360Y-32034D01*
X33345Y-32012D01*
X33325Y-31992D01*
X33302Y-31977D01*
X33277Y-31966D01*
X33250Y-31961D01*
X33223Y-31960D01*
X32750Y-31960D01*
X32723Y-31966D01*
X32697Y-31976D01*
X32675Y-31991D01*
X32655Y-32011D01*
X32640Y-32034D01*
X32629Y-32059D01*
X32624Y-32086D01*
X32623Y-32113D01*
X32623Y-32114D01*
X32578Y-32095D01*
X32527Y-32085D01*
X32475Y-32084D01*
X32424Y-32094D01*
X32418Y-32097D01*
X32376Y-32097D01*
X32376Y-32087D01*
X32370Y-32060D01*
X32360Y-32034D01*
X32345Y-32012D01*
X32325Y-31992D01*
X32302Y-31977D01*
X32277Y-31966D01*
X32250Y-31961D01*
X32223Y-31960D01*
X31750Y-31960D01*
X31723Y-31966D01*
X31697Y-31976D01*
X31675Y-31991D01*
X31655Y-32011D01*
X31640Y-32034D01*
X31629Y-32059D01*
X31624Y-32086D01*
X31623Y-32113D01*
X31623Y-32586D01*
X31629Y-32613D01*
X31639Y-32639D01*
X31654Y-32661D01*
X31674Y-32681D01*
X31697Y-32696D01*
X31722Y-32707D01*
X31749Y-32712D01*
X31776Y-32713D01*
X32249Y-32713D01*
X32276Y-32707D01*
X32302Y-32697D01*
X32324Y-32682D01*
X32344Y-32662D01*
X32359Y-32639D01*
X32370Y-32614D01*
X32375Y-32587D01*
X32375Y-32584D01*
X32417Y-32603D01*
X32468Y-32614D01*
X32520Y-32615D01*
X32571Y-32606D01*
X32620Y-32587D01*
X32623Y-32585D01*
X32623Y-32586D01*
X32629Y-32613D01*
X32639Y-32639D01*
X32654Y-32661D01*
X32674Y-32681D01*
X32697Y-32696D01*
X32722Y-32707D01*
X32749Y-32712D01*
X32776Y-32713D01*
X33249Y-32713D01*
X33276Y-32707D01*
X33302Y-32697D01*
X33324Y-32682D01*
X33344Y-32662D01*
X33359Y-32639D01*
X33370Y-32614D01*
X33375Y-32587D01*
X33375Y-32577D01*
X33414Y-32577D01*
X33417Y-32578D01*
X33468Y-32589D01*
X33520Y-32590D01*
X33571Y-32581D01*
X33620Y-32562D01*
X33623Y-32560D01*
X33623Y-32586D01*
X33629Y-32613D01*
X33639Y-32639D01*
X33654Y-32661D01*
X33674Y-32681D01*
X33697Y-32696D01*
X33722Y-32707D01*
X33749Y-32712D01*
X33776Y-32713D01*
X34249Y-32713D01*
X34276Y-32707D01*
X34302Y-32697D01*
X34324Y-32682D01*
X34344Y-32662D01*
X34359Y-32639D01*
X34370Y-32614D01*
X34375Y-32587D01*
X34375Y-32577D01*
X34389Y-32577D01*
X34392Y-32578D01*
X34443Y-32589D01*
X34495Y-32590D01*
X34546Y-32581D01*
X34595Y-32562D01*
X34623Y-32544D01*
X34623Y-32586D01*
X34629Y-32613D01*
X34639Y-32639D01*
X34654Y-32661D01*
X34674Y-32681D01*
X34697Y-32696D01*
X34722Y-32707D01*
X34749Y-32712D01*
X34776Y-32713D01*
X35249Y-32713D01*
X35276Y-32707D01*
X35302Y-32697D01*
X35324Y-32682D01*
X35344Y-32662D01*
X35359Y-32639D01*
X35370Y-32614D01*
X35375Y-32587D01*
X35375Y-32577D01*
X35439Y-32577D01*
X35442Y-32578D01*
X35493Y-32589D01*
X35545Y-32590D01*
X35596Y-32581D01*
X35623Y-32570D01*
X35623Y-32586D01*
X35629Y-32613D01*
X35639Y-32639D01*
X35654Y-32661D01*
X35674Y-32681D01*
X35697Y-32696D01*
X35722Y-32707D01*
X35749Y-32712D01*
X35776Y-32713D01*
X36249Y-32713D01*
X36276Y-32707D01*
X36302Y-32697D01*
X36324Y-32682D01*
X36344Y-32662D01*
X36359Y-32639D01*
X36370Y-32614D01*
X36375Y-32587D01*
X36375Y-32577D01*
X36414Y-32577D01*
X36417Y-32578D01*
X36468Y-32589D01*
X36520Y-32590D01*
X36571Y-32581D01*
X36620Y-32562D01*
X36623Y-32560D01*
X36623Y-32586D01*
X36629Y-32613D01*
X36639Y-32639D01*
X36654Y-32661D01*
X36674Y-32681D01*
X36697Y-32696D01*
X36722Y-32707D01*
X36749Y-32712D01*
X36776Y-32713D01*
X37249Y-32713D01*
X37276Y-32707D01*
X37302Y-32697D01*
X37324Y-32682D01*
X37344Y-32662D01*
X37359Y-32639D01*
X37370Y-32614D01*
X37375Y-32587D01*
X37375Y-32577D01*
X37439Y-32577D01*
X37442Y-32578D01*
X37493Y-32589D01*
X37545Y-32590D01*
X37596Y-32581D01*
X37623Y-32570D01*
X37623Y-32586D01*
X37629Y-32613D01*
X37639Y-32639D01*
X37654Y-32661D01*
X37674Y-32681D01*
X37697Y-32696D01*
X37722Y-32707D01*
X37749Y-32712D01*
X37776Y-32713D01*
X38249Y-32713D01*
X38276Y-32707D01*
X38302Y-32697D01*
X38324Y-32682D01*
X38344Y-32662D01*
X38359Y-32639D01*
X38370Y-32614D01*
X38375Y-32587D01*
X38375Y-32584D01*
X38417Y-32603D01*
X38468Y-32614D01*
X38520Y-32615D01*
X38571Y-32606D01*
X38620Y-32587D01*
X38623Y-32585D01*
X38623Y-32586D01*
X38629Y-32613D01*
X38639Y-32639D01*
X38654Y-32661D01*
X38674Y-32681D01*
X38697Y-32696D01*
X38722Y-32707D01*
X38749Y-32712D01*
X38776Y-32713D01*
X39249Y-32713D01*
X39276Y-32707D01*
X39302Y-32697D01*
X39324Y-32682D01*
X39344Y-32662D01*
X39359Y-32639D01*
X39370Y-32614D01*
X39375Y-32587D01*
X39375Y-32577D01*
X39464Y-32577D01*
X39467Y-32578D01*
X39518Y-32589D01*
X39570Y-32590D01*
X39621Y-32581D01*
X39670Y-32562D01*
X39713Y-32534D01*
X39751Y-32498D01*
X39781Y-32456D01*
X39802Y-32409D01*
X39814Y-32358D01*
X39815Y-32299D01*
X39815Y-33050D01*
X39428Y-33050D01*
X39428Y-34193D01*
X40453Y-34193D01*
X40453Y-35623D01*
X40447Y-35609D01*
X40431Y-35586D01*
X40412Y-35567D01*
X40390Y-35552D01*
X40365Y-35542D01*
X40338Y-35536D01*
X40093Y-35536D01*
X40058Y-35571D01*
X40058Y-35941D01*
X40428Y-35941D01*
X40463Y-35906D01*
X40463Y-35687D01*
X40463Y-36312D01*
X40463Y-36093D01*
X40428Y-36058D01*
X40058Y-36058D01*
X40058Y-36428D01*
X40093Y-36463D01*
X40338Y-36463D01*
X40365Y-36457D01*
X40390Y-36447D01*
X40412Y-36432D01*
X40431Y-36413D01*
X40447Y-36390D01*
X40457Y-36365D01*
X40463Y-36339D01*
X40463Y-36312D01*
X40463Y-36495D01*
X39941Y-36495D01*
X39941Y-36428D01*
X39941Y-36058D01*
X39941Y-35941D01*
X39941Y-35571D01*
X39906Y-35536D01*
X39815Y-35536D01*
X39815Y-34874D01*
X39804Y-34823D01*
X39785Y-34774D01*
X39756Y-34731D01*
X39719Y-34694D01*
X39676Y-34665D01*
X39628Y-34645D01*
X39577Y-34635D01*
X39525Y-34634D01*
X39474Y-34644D01*
X39426Y-34664D01*
X39412Y-34673D01*
X39376Y-34673D01*
X39376Y-34663D01*
X39374Y-34655D01*
X39374Y-34336D01*
X39374Y-33837D01*
X39374Y-33412D01*
X39374Y-32913D01*
X39369Y-32886D01*
X39358Y-32861D01*
X39343Y-32839D01*
X39324Y-32819D01*
X39302Y-32804D01*
X39277Y-32794D01*
X39250Y-32788D01*
X39223Y-32788D01*
X39093Y-32788D01*
X39058Y-32823D01*
X39058Y-33104D01*
X39339Y-33104D01*
X39374Y-33069D01*
X39374Y-32913D01*
X39374Y-33412D01*
X39374Y-33256D01*
X39339Y-33221D01*
X39058Y-33221D01*
X39058Y-33502D01*
X39093Y-33537D01*
X39223Y-33537D01*
X39250Y-33537D01*
X39277Y-33531D01*
X39302Y-33521D01*
X39324Y-33506D01*
X39343Y-33486D01*
X39358Y-33464D01*
X39369Y-33439D01*
X39374Y-33412D01*
X39374Y-33837D01*
X39369Y-33810D01*
X39358Y-33785D01*
X39343Y-33763D01*
X39324Y-33743D01*
X39302Y-33728D01*
X39277Y-33718D01*
X39250Y-33712D01*
X39223Y-33712D01*
X39093Y-33712D01*
X39058Y-33747D01*
X39058Y-34028D01*
X39339Y-34028D01*
X39374Y-33993D01*
X39374Y-33837D01*
X39374Y-34336D01*
X39374Y-34180D01*
X39339Y-34145D01*
X39058Y-34145D01*
X39058Y-34426D01*
X39093Y-34461D01*
X39223Y-34461D01*
X39250Y-34461D01*
X39277Y-34455D01*
X39302Y-34445D01*
X39324Y-34430D01*
X39343Y-34410D01*
X39358Y-34388D01*
X39369Y-34363D01*
X39374Y-34336D01*
X39374Y-34655D01*
X39370Y-34636D01*
X39360Y-34610D01*
X39345Y-34588D01*
X39325Y-34568D01*
X39302Y-34553D01*
X39277Y-34542D01*
X39250Y-34537D01*
X39223Y-34536D01*
X38941Y-34536D01*
X38941Y-34426D01*
X38941Y-34145D01*
X38941Y-34028D01*
X38941Y-33747D01*
X38941Y-33502D01*
X38941Y-33221D01*
X38941Y-33104D01*
X38941Y-32823D01*
X38906Y-32788D01*
X38776Y-32788D01*
X38749Y-32788D01*
X38722Y-32794D01*
X38697Y-32804D01*
X38675Y-32819D01*
X38656Y-32839D01*
X38641Y-32861D01*
X38630Y-32886D01*
X38625Y-32913D01*
X38625Y-33069D01*
X38660Y-33104D01*
X38941Y-33104D01*
X38941Y-33221D01*
X38660Y-33221D01*
X38625Y-33256D01*
X38625Y-33412D01*
X38630Y-33439D01*
X38641Y-33464D01*
X38656Y-33486D01*
X38675Y-33506D01*
X38697Y-33521D01*
X38722Y-33531D01*
X38749Y-33537D01*
X38776Y-33537D01*
X38906Y-33537D01*
X38941Y-33502D01*
X38941Y-33747D01*
X38906Y-33712D01*
X38776Y-33712D01*
X38749Y-33712D01*
X38722Y-33718D01*
X38697Y-33728D01*
X38675Y-33743D01*
X38656Y-33763D01*
X38641Y-33785D01*
X38630Y-33810D01*
X38625Y-33837D01*
X38625Y-33993D01*
X38660Y-34028D01*
X38941Y-34028D01*
X38941Y-34145D01*
X38660Y-34145D01*
X38625Y-34180D01*
X38625Y-34336D01*
X38630Y-34363D01*
X38641Y-34388D01*
X38656Y-34410D01*
X38675Y-34430D01*
X38697Y-34445D01*
X38722Y-34455D01*
X38749Y-34461D01*
X38776Y-34461D01*
X38906Y-34461D01*
X38941Y-34426D01*
X38941Y-34536D01*
X38750Y-34536D01*
X38723Y-34542D01*
X38697Y-34552D01*
X38675Y-34567D01*
X38655Y-34587D01*
X38640Y-34610D01*
X38629Y-34635D01*
X38624Y-34662D01*
X38624Y-34664D01*
X38578Y-34645D01*
X38527Y-34635D01*
X38475Y-34634D01*
X38424Y-34644D01*
X38376Y-34664D01*
X38376Y-34664D01*
X38376Y-34663D01*
X38374Y-34655D01*
X38374Y-34336D01*
X38374Y-33837D01*
X38374Y-33412D01*
X38374Y-32913D01*
X38369Y-32886D01*
X38358Y-32861D01*
X38343Y-32839D01*
X38324Y-32819D01*
X38302Y-32804D01*
X38277Y-32794D01*
X38250Y-32788D01*
X38223Y-32788D01*
X38093Y-32788D01*
X38058Y-32823D01*
X38058Y-33104D01*
X38339Y-33104D01*
X38374Y-33069D01*
X38374Y-32913D01*
X38374Y-33412D01*
X38374Y-33256D01*
X38339Y-33221D01*
X38058Y-33221D01*
X38058Y-33502D01*
X38093Y-33537D01*
X38223Y-33537D01*
X38250Y-33537D01*
X38277Y-33531D01*
X38302Y-33521D01*
X38324Y-33506D01*
X38343Y-33486D01*
X38358Y-33464D01*
X38369Y-33439D01*
X38374Y-33412D01*
X38374Y-33837D01*
X38369Y-33810D01*
X38358Y-33785D01*
X38343Y-33763D01*
X38324Y-33743D01*
X38302Y-33728D01*
X38277Y-33718D01*
X38250Y-33712D01*
X38223Y-33712D01*
X38093Y-33712D01*
X38058Y-33747D01*
X38058Y-34028D01*
X38339Y-34028D01*
X38374Y-33993D01*
X38374Y-33837D01*
X38374Y-34336D01*
X38374Y-34180D01*
X38339Y-34145D01*
X38058Y-34145D01*
X38058Y-34426D01*
X38093Y-34461D01*
X38223Y-34461D01*
X38250Y-34461D01*
X38277Y-34455D01*
X38302Y-34445D01*
X38324Y-34430D01*
X38343Y-34410D01*
X38358Y-34388D01*
X38369Y-34363D01*
X38374Y-34336D01*
X38374Y-34655D01*
X38370Y-34636D01*
X38360Y-34610D01*
X38345Y-34588D01*
X38325Y-34568D01*
X38302Y-34553D01*
X38277Y-34542D01*
X38250Y-34537D01*
X38223Y-34536D01*
X37941Y-34536D01*
X37941Y-34426D01*
X37941Y-34145D01*
X37941Y-34028D01*
X37941Y-33747D01*
X37941Y-33502D01*
X37941Y-33221D01*
X37941Y-33104D01*
X37941Y-32823D01*
X37906Y-32788D01*
X37776Y-32788D01*
X37749Y-32788D01*
X37722Y-32794D01*
X37697Y-32804D01*
X37675Y-32819D01*
X37656Y-32839D01*
X37641Y-32861D01*
X37630Y-32886D01*
X37625Y-32913D01*
X37625Y-33069D01*
X37660Y-33104D01*
X37941Y-33104D01*
X37941Y-33221D01*
X37660Y-33221D01*
X37625Y-33256D01*
X37625Y-33412D01*
X37630Y-33439D01*
X37641Y-33464D01*
X37656Y-33486D01*
X37675Y-33506D01*
X37697Y-33521D01*
X37722Y-33531D01*
X37749Y-33537D01*
X37776Y-33537D01*
X37906Y-33537D01*
X37941Y-33502D01*
X37941Y-33747D01*
X37906Y-33712D01*
X37776Y-33712D01*
X37749Y-33712D01*
X37722Y-33718D01*
X37697Y-33728D01*
X37675Y-33743D01*
X37656Y-33763D01*
X37641Y-33785D01*
X37630Y-33810D01*
X37625Y-33837D01*
X37625Y-33993D01*
X37660Y-34028D01*
X37941Y-34028D01*
X37941Y-34145D01*
X37660Y-34145D01*
X37625Y-34180D01*
X37625Y-34336D01*
X37630Y-34363D01*
X37641Y-34388D01*
X37656Y-34410D01*
X37675Y-34430D01*
X37697Y-34445D01*
X37722Y-34455D01*
X37749Y-34461D01*
X37776Y-34461D01*
X37906Y-34461D01*
X37941Y-34426D01*
X37941Y-34536D01*
X37750Y-34536D01*
X37723Y-34542D01*
X37697Y-34552D01*
X37675Y-34567D01*
X37655Y-34587D01*
X37640Y-34610D01*
X37629Y-34635D01*
X37625Y-34654D01*
X37603Y-34645D01*
X37552Y-34635D01*
X37500Y-34634D01*
X37449Y-34644D01*
X37401Y-34664D01*
X37387Y-34673D01*
X37376Y-34673D01*
X37376Y-34663D01*
X37374Y-34655D01*
X37374Y-34336D01*
X37374Y-33837D01*
X37374Y-33412D01*
X37374Y-32913D01*
X37369Y-32886D01*
X37358Y-32861D01*
X37343Y-32839D01*
X37324Y-32819D01*
X37302Y-32804D01*
X37277Y-32794D01*
X37250Y-32788D01*
X37223Y-32788D01*
X37093Y-32788D01*
X37058Y-32823D01*
X37058Y-33104D01*
X37339Y-33104D01*
X37374Y-33069D01*
X37374Y-32913D01*
X37374Y-33412D01*
X37374Y-33256D01*
X37339Y-33221D01*
X37058Y-33221D01*
X37058Y-33502D01*
X37093Y-33537D01*
X37223Y-33537D01*
X37250Y-33537D01*
X37277Y-33531D01*
X37302Y-33521D01*
X37324Y-33506D01*
X37343Y-33486D01*
X37358Y-33464D01*
X37369Y-33439D01*
X37374Y-33412D01*
X37374Y-33837D01*
X37369Y-33810D01*
X37358Y-33785D01*
X37343Y-33763D01*
X37324Y-33743D01*
X37302Y-33728D01*
X37277Y-33718D01*
X37250Y-33712D01*
X37223Y-33712D01*
X37093Y-33712D01*
X37058Y-33747D01*
X37058Y-34028D01*
X37339Y-34028D01*
X37374Y-33993D01*
X37374Y-33837D01*
X37374Y-34336D01*
X37374Y-34180D01*
X37339Y-34145D01*
X37058Y-34145D01*
X37058Y-34426D01*
X37093Y-34461D01*
X37223Y-34461D01*
X37250Y-34461D01*
X37277Y-34455D01*
X37302Y-34445D01*
X37324Y-34430D01*
X37343Y-34410D01*
X37358Y-34388D01*
X37369Y-34363D01*
X37374Y-34336D01*
X37374Y-34655D01*
X37370Y-34636D01*
X37360Y-34610D01*
X37345Y-34588D01*
X37325Y-34568D01*
X37302Y-34553D01*
X37277Y-34542D01*
X37250Y-34537D01*
X37223Y-34536D01*
X36941Y-34536D01*
X36941Y-34426D01*
X36941Y-34145D01*
X36941Y-34028D01*
X36941Y-33747D01*
X36941Y-33502D01*
X36941Y-33221D01*
X36941Y-33104D01*
X36941Y-32823D01*
X36906Y-32788D01*
X36776Y-32788D01*
X36749Y-32788D01*
X36722Y-32794D01*
X36697Y-32804D01*
X36675Y-32819D01*
X36656Y-32839D01*
X36641Y-32861D01*
X36630Y-32886D01*
X36625Y-32913D01*
X36625Y-33069D01*
X36660Y-33104D01*
X36941Y-33104D01*
X36941Y-33221D01*
X36660Y-33221D01*
X36625Y-33256D01*
X36625Y-33412D01*
X36630Y-33439D01*
X36641Y-33464D01*
X36656Y-33486D01*
X36675Y-33506D01*
X36697Y-33521D01*
X36722Y-33531D01*
X36749Y-33537D01*
X36776Y-33537D01*
X36906Y-33537D01*
X36941Y-33502D01*
X36941Y-33747D01*
X36906Y-33712D01*
X36776Y-33712D01*
X36749Y-33712D01*
X36722Y-33718D01*
X36697Y-33728D01*
X36675Y-33743D01*
X36656Y-33763D01*
X36641Y-33785D01*
X36630Y-33810D01*
X36625Y-33837D01*
X36625Y-33993D01*
X36660Y-34028D01*
X36941Y-34028D01*
X36941Y-34145D01*
X36660Y-34145D01*
X36625Y-34180D01*
X36625Y-34336D01*
X36630Y-34363D01*
X36641Y-34388D01*
X36656Y-34410D01*
X36675Y-34430D01*
X36697Y-34445D01*
X36722Y-34455D01*
X36749Y-34461D01*
X36776Y-34461D01*
X36906Y-34461D01*
X36941Y-34426D01*
X36941Y-34536D01*
X36750Y-34536D01*
X36723Y-34542D01*
X36697Y-34552D01*
X36675Y-34567D01*
X36655Y-34587D01*
X36640Y-34610D01*
X36629Y-34635D01*
X36624Y-34662D01*
X36624Y-34664D01*
X36578Y-34645D01*
X36527Y-34635D01*
X36475Y-34634D01*
X36424Y-34644D01*
X36376Y-34664D01*
X36376Y-34664D01*
X36376Y-34663D01*
X36374Y-34655D01*
X36374Y-34336D01*
X36374Y-33837D01*
X36374Y-33412D01*
X36374Y-32913D01*
X36369Y-32886D01*
X36358Y-32861D01*
X36343Y-32839D01*
X36324Y-32819D01*
X36302Y-32804D01*
X36277Y-32794D01*
X36250Y-32788D01*
X36223Y-32788D01*
X36093Y-32788D01*
X36058Y-32823D01*
X36058Y-33104D01*
X36339Y-33104D01*
X36374Y-33069D01*
X36374Y-32913D01*
X36374Y-33412D01*
X36374Y-33256D01*
X36339Y-33221D01*
X36058Y-33221D01*
X36058Y-33502D01*
X36093Y-33537D01*
X36223Y-33537D01*
X36250Y-33537D01*
X36277Y-33531D01*
X36302Y-33521D01*
X36324Y-33506D01*
X36343Y-33486D01*
X36358Y-33464D01*
X36369Y-33439D01*
X36374Y-33412D01*
X36374Y-33837D01*
X36369Y-33810D01*
X36358Y-33785D01*
X36343Y-33763D01*
X36324Y-33743D01*
X36302Y-33728D01*
X36277Y-33718D01*
X36250Y-33712D01*
X36223Y-33712D01*
X36093Y-33712D01*
X36058Y-33747D01*
X36058Y-34028D01*
X36339Y-34028D01*
X36374Y-33993D01*
X36374Y-33837D01*
X36374Y-34336D01*
X36374Y-34180D01*
X36339Y-34145D01*
X36058Y-34145D01*
X36058Y-34426D01*
X36093Y-34461D01*
X36223Y-34461D01*
X36250Y-34461D01*
X36277Y-34455D01*
X36302Y-34445D01*
X36324Y-34430D01*
X36343Y-34410D01*
X36358Y-34388D01*
X36369Y-34363D01*
X36374Y-34336D01*
X36374Y-34655D01*
X36370Y-34636D01*
X36360Y-34610D01*
X36345Y-34588D01*
X36325Y-34568D01*
X36302Y-34553D01*
X36277Y-34542D01*
X36250Y-34537D01*
X36223Y-34536D01*
X35941Y-34536D01*
X35941Y-34426D01*
X35941Y-34145D01*
X35941Y-34028D01*
X35941Y-33747D01*
X35941Y-33502D01*
X35941Y-33221D01*
X35941Y-33104D01*
X35941Y-32823D01*
X35906Y-32788D01*
X35776Y-32788D01*
X35749Y-32788D01*
X35722Y-32794D01*
X35697Y-32804D01*
X35675Y-32819D01*
X35656Y-32839D01*
X35641Y-32861D01*
X35630Y-32886D01*
X35625Y-32913D01*
X35625Y-33069D01*
X35660Y-33104D01*
X35941Y-33104D01*
X35941Y-33221D01*
X35660Y-33221D01*
X35625Y-33256D01*
X35625Y-33412D01*
X35630Y-33439D01*
X35641Y-33464D01*
X35656Y-33486D01*
X35675Y-33506D01*
X35697Y-33521D01*
X35722Y-33531D01*
X35749Y-33537D01*
X35776Y-33537D01*
X35906Y-33537D01*
X35941Y-33502D01*
X35941Y-33747D01*
X35906Y-33712D01*
X35776Y-33712D01*
X35749Y-33712D01*
X35722Y-33718D01*
X35697Y-33728D01*
X35675Y-33743D01*
X35656Y-33763D01*
X35641Y-33785D01*
X35630Y-33810D01*
X35625Y-33837D01*
X35625Y-33993D01*
X35660Y-34028D01*
X35941Y-34028D01*
X35941Y-34145D01*
X35660Y-34145D01*
X35625Y-34180D01*
X35625Y-34336D01*
X35630Y-34363D01*
X35641Y-34388D01*
X35656Y-34410D01*
X35675Y-34430D01*
X35697Y-34445D01*
X35722Y-34455D01*
X35749Y-34461D01*
X35776Y-34461D01*
X35906Y-34461D01*
X35941Y-34426D01*
X35941Y-34536D01*
X35750Y-34536D01*
X35723Y-34542D01*
X35697Y-34552D01*
X35675Y-34567D01*
X35655Y-34587D01*
X35640Y-34610D01*
X35629Y-34635D01*
X35625Y-34654D01*
X35603Y-34645D01*
X35552Y-34635D01*
X35500Y-34634D01*
X35449Y-34644D01*
X35401Y-34664D01*
X35387Y-34673D01*
X35376Y-34673D01*
X35376Y-34663D01*
X35374Y-34655D01*
X35374Y-34336D01*
X35374Y-33837D01*
X35374Y-33412D01*
X35374Y-32913D01*
X35369Y-32886D01*
X35358Y-32861D01*
X35343Y-32839D01*
X35324Y-32819D01*
X35302Y-32804D01*
X35277Y-32794D01*
X35250Y-32788D01*
X35223Y-32788D01*
X35093Y-32788D01*
X35058Y-32823D01*
X35058Y-33104D01*
X35339Y-33104D01*
X35374Y-33069D01*
X35374Y-32913D01*
X35374Y-33412D01*
X35374Y-33256D01*
X35339Y-33221D01*
X35058Y-33221D01*
X35058Y-33502D01*
X35093Y-33537D01*
X35223Y-33537D01*
X35250Y-33537D01*
X35277Y-33531D01*
X35302Y-33521D01*
X35324Y-33506D01*
X35343Y-33486D01*
X35358Y-33464D01*
X35369Y-33439D01*
X35374Y-33412D01*
X35374Y-33837D01*
X35369Y-33810D01*
X35358Y-33785D01*
X35343Y-33763D01*
X35324Y-33743D01*
X35302Y-33728D01*
X35277Y-33718D01*
X35250Y-33712D01*
X35223Y-33712D01*
X35093Y-33712D01*
X35058Y-33747D01*
X35058Y-34028D01*
X35339Y-34028D01*
X35374Y-33993D01*
X35374Y-33837D01*
X35374Y-34336D01*
X35374Y-34180D01*
X35339Y-34145D01*
X35058Y-34145D01*
X35058Y-34426D01*
X35093Y-34461D01*
X35223Y-34461D01*
X35250Y-34461D01*
X35277Y-34455D01*
X35302Y-34445D01*
X35324Y-34430D01*
X35343Y-34410D01*
X35358Y-34388D01*
X35369Y-34363D01*
X35374Y-34336D01*
X35374Y-34655D01*
X35370Y-34636D01*
X35360Y-34610D01*
X35345Y-34588D01*
X35325Y-34568D01*
X35302Y-34553D01*
X35277Y-34542D01*
X35250Y-34537D01*
X35223Y-34536D01*
X34941Y-34536D01*
X34941Y-34426D01*
X34941Y-34145D01*
X34941Y-34028D01*
X34941Y-33747D01*
X34941Y-33502D01*
X34941Y-33221D01*
X34941Y-33104D01*
X34941Y-32823D01*
X34906Y-32788D01*
X34776Y-32788D01*
X34749Y-32788D01*
X34722Y-32794D01*
X34697Y-32804D01*
X34675Y-32819D01*
X34656Y-32839D01*
X34641Y-32861D01*
X34630Y-32886D01*
X34625Y-32913D01*
X34625Y-33069D01*
X34660Y-33104D01*
X34941Y-33104D01*
X34941Y-33221D01*
X34660Y-33221D01*
X34625Y-33256D01*
X34625Y-33412D01*
X34630Y-33439D01*
X34641Y-33464D01*
X34656Y-33486D01*
X34675Y-33506D01*
X34697Y-33521D01*
X34722Y-33531D01*
X34749Y-33537D01*
X34776Y-33537D01*
X34906Y-33537D01*
X34941Y-33502D01*
X34941Y-33747D01*
X34906Y-33712D01*
X34776Y-33712D01*
X34749Y-33712D01*
X34722Y-33718D01*
X34697Y-33728D01*
X34675Y-33743D01*
X34656Y-33763D01*
X34641Y-33785D01*
X34630Y-33810D01*
X34625Y-33837D01*
X34625Y-33993D01*
X34660Y-34028D01*
X34941Y-34028D01*
X34941Y-34145D01*
X34660Y-34145D01*
X34625Y-34180D01*
X34625Y-34336D01*
X34630Y-34363D01*
X34641Y-34388D01*
X34656Y-34410D01*
X34675Y-34430D01*
X34697Y-34445D01*
X34722Y-34455D01*
X34749Y-34461D01*
X34776Y-34461D01*
X34906Y-34461D01*
X34941Y-34426D01*
X34941Y-34536D01*
X34750Y-34536D01*
X34723Y-34542D01*
X34697Y-34552D01*
X34675Y-34567D01*
X34655Y-34587D01*
X34640Y-34610D01*
X34629Y-34635D01*
X34624Y-34662D01*
X34623Y-34689D01*
X34623Y-34705D01*
X34601Y-34690D01*
X34553Y-34670D01*
X34502Y-34660D01*
X34450Y-34659D01*
X34399Y-34669D01*
X34391Y-34673D01*
X34376Y-34673D01*
X34376Y-34663D01*
X34374Y-34655D01*
X34374Y-34336D01*
X34374Y-33837D01*
X34374Y-33412D01*
X34374Y-32913D01*
X34369Y-32886D01*
X34358Y-32861D01*
X34343Y-32839D01*
X34324Y-32819D01*
X34302Y-32804D01*
X34277Y-32794D01*
X34250Y-32788D01*
X34223Y-32788D01*
X34093Y-32788D01*
X34058Y-32823D01*
X34058Y-33104D01*
X34339Y-33104D01*
X34374Y-33069D01*
X34374Y-32913D01*
X34374Y-33412D01*
X34374Y-33256D01*
X34339Y-33221D01*
X34058Y-33221D01*
X34058Y-33502D01*
X34093Y-33537D01*
X34223Y-33537D01*
X34250Y-33537D01*
X34277Y-33531D01*
X34302Y-33521D01*
X34324Y-33506D01*
X34343Y-33486D01*
X34358Y-33464D01*
X34369Y-33439D01*
X34374Y-33412D01*
X34374Y-33837D01*
X34369Y-33810D01*
X34358Y-33785D01*
X34343Y-33763D01*
X34324Y-33743D01*
X34302Y-33728D01*
X34277Y-33718D01*
X34250Y-33712D01*
X34223Y-33712D01*
X34093Y-33712D01*
X34058Y-33747D01*
X34058Y-34028D01*
X34339Y-34028D01*
X34374Y-33993D01*
X34374Y-33837D01*
X34374Y-34336D01*
X34374Y-34180D01*
X34339Y-34145D01*
X34058Y-34145D01*
X34058Y-34426D01*
X34093Y-34461D01*
X34223Y-34461D01*
X34250Y-34461D01*
X34277Y-34455D01*
X34302Y-34445D01*
X34324Y-34430D01*
X34343Y-34410D01*
X34358Y-34388D01*
X34369Y-34363D01*
X34374Y-34336D01*
X34374Y-34655D01*
X34370Y-34636D01*
X34360Y-34610D01*
X34345Y-34588D01*
X34325Y-34568D01*
X34302Y-34553D01*
X34277Y-34542D01*
X34250Y-34537D01*
X34223Y-34536D01*
X33941Y-34536D01*
X33941Y-34426D01*
X33941Y-34145D01*
X33941Y-34028D01*
X33941Y-33747D01*
X33941Y-33502D01*
X33941Y-33221D01*
X33941Y-33104D01*
X33941Y-32823D01*
X33906Y-32788D01*
X33776Y-32788D01*
X33749Y-32788D01*
X33722Y-32794D01*
X33697Y-32804D01*
X33675Y-32819D01*
X33656Y-32839D01*
X33641Y-32861D01*
X33630Y-32886D01*
X33625Y-32913D01*
X33625Y-33069D01*
X33660Y-33104D01*
X33941Y-33104D01*
X33941Y-33221D01*
X33660Y-33221D01*
X33625Y-33256D01*
X33625Y-33412D01*
X33630Y-33439D01*
X33641Y-33464D01*
X33656Y-33486D01*
X33675Y-33506D01*
X33697Y-33521D01*
X33722Y-33531D01*
X33749Y-33537D01*
X33776Y-33537D01*
X33906Y-33537D01*
X33941Y-33502D01*
X33941Y-33747D01*
X33906Y-33712D01*
X33776Y-33712D01*
X33749Y-33712D01*
X33722Y-33718D01*
X33697Y-33728D01*
X33675Y-33743D01*
X33656Y-33763D01*
X33641Y-33785D01*
X33630Y-33810D01*
X33625Y-33837D01*
X33625Y-33993D01*
X33660Y-34028D01*
X33941Y-34028D01*
X33941Y-34145D01*
X33660Y-34145D01*
X33625Y-34180D01*
X33625Y-34336D01*
X33630Y-34363D01*
X33641Y-34388D01*
X33656Y-34410D01*
X33675Y-34430D01*
X33697Y-34445D01*
X33722Y-34455D01*
X33749Y-34461D01*
X33776Y-34461D01*
X33906Y-34461D01*
X33941Y-34426D01*
X33941Y-34536D01*
X33750Y-34536D01*
X33723Y-34542D01*
X33697Y-34552D01*
X33675Y-34567D01*
X33655Y-34587D01*
X33640Y-34610D01*
X33629Y-34635D01*
X33624Y-34662D01*
X33623Y-34689D01*
X33578Y-34670D01*
X33527Y-34660D01*
X33475Y-34659D01*
X33424Y-34669D01*
X33416Y-34673D01*
X33376Y-34673D01*
X33376Y-34663D01*
X33374Y-34655D01*
X33374Y-34336D01*
X33374Y-33837D01*
X33374Y-33412D01*
X33374Y-32913D01*
X33369Y-32886D01*
X33358Y-32861D01*
X33343Y-32839D01*
X33324Y-32819D01*
X33302Y-32804D01*
X33277Y-32794D01*
X33250Y-32788D01*
X33223Y-32788D01*
X33093Y-32788D01*
X33058Y-32823D01*
X33058Y-33104D01*
X33339Y-33104D01*
X33374Y-33069D01*
X33374Y-32913D01*
X33374Y-33412D01*
X33374Y-33256D01*
X33339Y-33221D01*
X33058Y-33221D01*
X33058Y-33502D01*
X33093Y-33537D01*
X33223Y-33537D01*
X33250Y-33537D01*
X33277Y-33531D01*
X33302Y-33521D01*
X33324Y-33506D01*
X33343Y-33486D01*
X33358Y-33464D01*
X33369Y-33439D01*
X33374Y-33412D01*
X33374Y-33837D01*
X33369Y-33810D01*
X33358Y-33785D01*
X33343Y-33763D01*
X33324Y-33743D01*
X33302Y-33728D01*
X33277Y-33718D01*
X33250Y-33712D01*
X33223Y-33712D01*
X33093Y-33712D01*
X33058Y-33747D01*
X33058Y-34028D01*
X33339Y-34028D01*
X33374Y-33993D01*
X33374Y-33837D01*
X33374Y-34336D01*
X33374Y-34180D01*
X33339Y-34145D01*
X33058Y-34145D01*
X33058Y-34426D01*
X33093Y-34461D01*
X33223Y-34461D01*
X33250Y-34461D01*
X33277Y-34455D01*
X33302Y-34445D01*
X33324Y-34430D01*
X33343Y-34410D01*
X33358Y-34388D01*
X33369Y-34363D01*
X33374Y-34336D01*
X33374Y-34655D01*
X33370Y-34636D01*
X33360Y-34610D01*
X33345Y-34588D01*
X33325Y-34568D01*
X33302Y-34553D01*
X33277Y-34542D01*
X33250Y-34537D01*
X33223Y-34536D01*
X32941Y-34536D01*
X32941Y-34426D01*
X32941Y-34145D01*
X32941Y-34028D01*
X32941Y-33747D01*
X32941Y-33502D01*
X32941Y-33221D01*
X32941Y-33104D01*
X32941Y-32823D01*
X32906Y-32788D01*
X32776Y-32788D01*
X32749Y-32788D01*
X32722Y-32794D01*
X32697Y-32804D01*
X32675Y-32819D01*
X32656Y-32839D01*
X32641Y-32861D01*
X32630Y-32886D01*
X32625Y-32913D01*
X32625Y-33069D01*
X32660Y-33104D01*
X32941Y-33104D01*
X32941Y-33221D01*
X32660Y-33221D01*
X32625Y-33256D01*
X32625Y-33412D01*
X32630Y-33439D01*
X32641Y-33464D01*
X32656Y-33486D01*
X32675Y-33506D01*
X32697Y-33521D01*
X32722Y-33531D01*
X32749Y-33537D01*
X32776Y-33537D01*
X32906Y-33537D01*
X32941Y-33502D01*
X32941Y-33747D01*
X32906Y-33712D01*
X32776Y-33712D01*
X32749Y-33712D01*
X32722Y-33718D01*
X32697Y-33728D01*
X32675Y-33743D01*
X32656Y-33763D01*
X32641Y-33785D01*
X32630Y-33810D01*
X32625Y-33837D01*
X32625Y-33993D01*
X32660Y-34028D01*
X32941Y-34028D01*
X32941Y-34145D01*
X32660Y-34145D01*
X32625Y-34180D01*
X32625Y-34336D01*
X32630Y-34363D01*
X32641Y-34388D01*
X32656Y-34410D01*
X32675Y-34430D01*
X32697Y-34445D01*
X32722Y-34455D01*
X32749Y-34461D01*
X32776Y-34461D01*
X32906Y-34461D01*
X32941Y-34426D01*
X32941Y-34536D01*
X32750Y-34536D01*
X32723Y-34542D01*
X32697Y-34552D01*
X32675Y-34567D01*
X32655Y-34587D01*
X32640Y-34610D01*
X32629Y-34635D01*
X32624Y-34662D01*
X32623Y-34689D01*
X32578Y-34670D01*
X32527Y-34660D01*
X32475Y-34659D01*
X32424Y-34669D01*
X32416Y-34673D01*
X32376Y-34673D01*
X32376Y-34663D01*
X32374Y-34655D01*
X32374Y-34336D01*
X32374Y-33837D01*
X32374Y-33412D01*
X32374Y-32913D01*
X32369Y-32886D01*
X32358Y-32861D01*
X32343Y-32839D01*
X32324Y-32819D01*
X32302Y-32804D01*
X32277Y-32794D01*
X32250Y-32788D01*
X32223Y-32788D01*
X32093Y-32788D01*
X32058Y-32823D01*
X32058Y-33104D01*
X32339Y-33104D01*
X32374Y-33069D01*
X32374Y-32913D01*
X32374Y-33412D01*
X32374Y-33256D01*
X32339Y-33221D01*
X32058Y-33221D01*
X32058Y-33502D01*
X32093Y-33537D01*
X32223Y-33537D01*
X32250Y-33537D01*
X32277Y-33531D01*
X32302Y-33521D01*
X32324Y-33506D01*
X32343Y-33486D01*
X32358Y-33464D01*
X32369Y-33439D01*
X32374Y-33412D01*
X32374Y-33837D01*
X32369Y-33810D01*
X32358Y-33785D01*
X32343Y-33763D01*
X32324Y-33743D01*
X32302Y-33728D01*
X32277Y-33718D01*
X32250Y-33712D01*
X32223Y-33712D01*
X32093Y-33712D01*
X32058Y-33747D01*
X32058Y-34028D01*
X32339Y-34028D01*
X32374Y-33993D01*
X32374Y-33837D01*
X32374Y-34336D01*
X32374Y-34180D01*
X32339Y-34145D01*
X32058Y-34145D01*
X32058Y-34426D01*
X32093Y-34461D01*
X32223Y-34461D01*
X32250Y-34461D01*
X32277Y-34455D01*
X32302Y-34445D01*
X32324Y-34430D01*
X32343Y-34410D01*
X32358Y-34388D01*
X32369Y-34363D01*
X32374Y-34336D01*
X32374Y-34655D01*
X32370Y-34636D01*
X32360Y-34610D01*
X32345Y-34588D01*
X32325Y-34568D01*
X32302Y-34553D01*
X32277Y-34542D01*
X32250Y-34537D01*
X32223Y-34536D01*
X31941Y-34536D01*
X31941Y-34426D01*
X31941Y-34145D01*
X31941Y-34028D01*
X31941Y-33747D01*
X31941Y-33502D01*
X31941Y-33221D01*
X31941Y-33104D01*
X31941Y-32823D01*
X31906Y-32788D01*
X31776Y-32788D01*
X31749Y-32788D01*
X31722Y-32794D01*
X31697Y-32804D01*
X31675Y-32819D01*
X31656Y-32839D01*
X31641Y-32861D01*
X31630Y-32886D01*
X31625Y-32913D01*
X31625Y-33069D01*
X31660Y-33104D01*
X31941Y-33104D01*
X31941Y-33221D01*
X31660Y-33221D01*
X31625Y-33256D01*
X31625Y-33412D01*
X31630Y-33439D01*
X31641Y-33464D01*
X31656Y-33486D01*
X31675Y-33506D01*
X31697Y-33521D01*
X31722Y-33531D01*
X31749Y-33537D01*
X31776Y-33537D01*
X31906Y-33537D01*
X31941Y-33502D01*
X31941Y-33747D01*
X31906Y-33712D01*
X31776Y-33712D01*
X31749Y-33712D01*
X31722Y-33718D01*
X31697Y-33728D01*
X31675Y-33743D01*
X31656Y-33763D01*
X31641Y-33785D01*
X31630Y-33810D01*
X31625Y-33837D01*
X31625Y-33993D01*
X31660Y-34028D01*
X31941Y-34028D01*
X31941Y-34145D01*
X31660Y-34145D01*
X31625Y-34180D01*
X31625Y-34336D01*
X31630Y-34363D01*
X31641Y-34388D01*
X31656Y-34410D01*
X31675Y-34430D01*
X31697Y-34445D01*
X31722Y-34455D01*
X31749Y-34461D01*
X31776Y-34461D01*
X31906Y-34461D01*
X31941Y-34426D01*
X31941Y-34536D01*
X31750Y-34536D01*
X31723Y-34542D01*
X31697Y-34552D01*
X31675Y-34567D01*
X31655Y-34587D01*
X31640Y-34610D01*
X31629Y-34635D01*
X31624Y-34662D01*
X31623Y-34689D01*
X31623Y-35162D01*
X31629Y-35189D01*
X31639Y-35215D01*
X31654Y-35237D01*
X31674Y-35257D01*
X31697Y-35272D01*
X31722Y-35283D01*
X31749Y-35288D01*
X31776Y-35289D01*
X32249Y-35289D01*
X32276Y-35283D01*
X32302Y-35273D01*
X32324Y-35258D01*
X32344Y-35238D01*
X32359Y-35215D01*
X32370Y-35190D01*
X32375Y-35163D01*
X32375Y-35159D01*
X32417Y-35178D01*
X32468Y-35189D01*
X32520Y-35190D01*
X32571Y-35181D01*
X32620Y-35162D01*
X32623Y-35160D01*
X32623Y-35162D01*
X32629Y-35189D01*
X32639Y-35215D01*
X32654Y-35237D01*
X32674Y-35257D01*
X32697Y-35272D01*
X32722Y-35283D01*
X32749Y-35288D01*
X32776Y-35289D01*
X33249Y-35289D01*
X33276Y-35283D01*
X33302Y-35273D01*
X33324Y-35258D01*
X33344Y-35238D01*
X33359Y-35215D01*
X33370Y-35190D01*
X33375Y-35163D01*
X33375Y-35159D01*
X33417Y-35178D01*
X33468Y-35189D01*
X33520Y-35190D01*
X33571Y-35181D01*
X33620Y-35162D01*
X33623Y-35160D01*
X33623Y-35162D01*
X33629Y-35189D01*
X33639Y-35215D01*
X33654Y-35237D01*
X33674Y-35257D01*
X33697Y-35272D01*
X33722Y-35283D01*
X33749Y-35288D01*
X33776Y-35289D01*
X34249Y-35289D01*
X34276Y-35283D01*
X34302Y-35273D01*
X34324Y-35258D01*
X34344Y-35238D01*
X34359Y-35215D01*
X34370Y-35190D01*
X34374Y-35170D01*
X34392Y-35178D01*
X34443Y-35189D01*
X34495Y-35190D01*
X34546Y-35181D01*
X34595Y-35162D01*
X34623Y-35144D01*
X34623Y-35162D01*
X34629Y-35189D01*
X34639Y-35215D01*
X34654Y-35237D01*
X34674Y-35257D01*
X34697Y-35272D01*
X34722Y-35283D01*
X34749Y-35288D01*
X34776Y-35289D01*
X35249Y-35289D01*
X35276Y-35283D01*
X35302Y-35273D01*
X35324Y-35258D01*
X35344Y-35238D01*
X35359Y-35215D01*
X35370Y-35190D01*
X35375Y-35163D01*
X35375Y-35153D01*
X35442Y-35153D01*
X35442Y-35153D01*
X35493Y-35164D01*
X35545Y-35165D01*
X35596Y-35156D01*
X35623Y-35145D01*
X35623Y-35162D01*
X35629Y-35189D01*
X35639Y-35215D01*
X35654Y-35237D01*
X35674Y-35257D01*
X35697Y-35272D01*
X35722Y-35283D01*
X35749Y-35288D01*
X35776Y-35289D01*
X36249Y-35289D01*
X36276Y-35283D01*
X36302Y-35273D01*
X36324Y-35258D01*
X36344Y-35238D01*
X36359Y-35215D01*
X36370Y-35190D01*
X36375Y-35163D01*
X36375Y-35153D01*
X36417Y-35153D01*
X36417Y-35153D01*
X36468Y-35164D01*
X36520Y-35165D01*
X36571Y-35156D01*
X36620Y-35137D01*
X36623Y-35135D01*
X36623Y-35162D01*
X36629Y-35189D01*
X36639Y-35215D01*
X36654Y-35237D01*
X36674Y-35257D01*
X36697Y-35272D01*
X36722Y-35283D01*
X36749Y-35288D01*
X36776Y-35289D01*
X37249Y-35289D01*
X37276Y-35283D01*
X37302Y-35273D01*
X37324Y-35258D01*
X37344Y-35238D01*
X37359Y-35215D01*
X37370Y-35190D01*
X37375Y-35163D01*
X37375Y-35153D01*
X37442Y-35153D01*
X37442Y-35153D01*
X37493Y-35164D01*
X37545Y-35165D01*
X37596Y-35156D01*
X37623Y-35145D01*
X37623Y-35162D01*
X37629Y-35189D01*
X37639Y-35215D01*
X37654Y-35237D01*
X37674Y-35257D01*
X37697Y-35272D01*
X37722Y-35283D01*
X37749Y-35288D01*
X37776Y-35289D01*
X38249Y-35289D01*
X38276Y-35283D01*
X38302Y-35273D01*
X38324Y-35258D01*
X38344Y-35238D01*
X38359Y-35215D01*
X38370Y-35190D01*
X38375Y-35163D01*
X38375Y-35153D01*
X38417Y-35153D01*
X38417Y-35153D01*
X38468Y-35164D01*
X38520Y-35165D01*
X38571Y-35156D01*
X38620Y-35137D01*
X38623Y-35135D01*
X38623Y-35162D01*
X38629Y-35189D01*
X38639Y-35215D01*
X38654Y-35237D01*
X38674Y-35257D01*
X38697Y-35272D01*
X38722Y-35283D01*
X38749Y-35288D01*
X38776Y-35289D01*
X39249Y-35289D01*
X39276Y-35283D01*
X39302Y-35273D01*
X39324Y-35258D01*
X39344Y-35238D01*
X39359Y-35215D01*
X39370Y-35190D01*
X39375Y-35163D01*
X39375Y-35153D01*
X39467Y-35153D01*
X39467Y-35153D01*
X39518Y-35164D01*
X39570Y-35165D01*
X39621Y-35156D01*
X39670Y-35137D01*
X39713Y-35109D01*
X39751Y-35073D01*
X39781Y-35031D01*
X39802Y-34984D01*
X39814Y-34933D01*
X39815Y-34874D01*
X39815Y-35536D01*
X39661Y-35536D01*
X39634Y-35542D01*
X39609Y-35552D01*
X39587Y-35567D01*
X39568Y-35586D01*
X39552Y-35609D01*
X39542Y-35634D01*
X39536Y-35660D01*
X39536Y-35687D01*
X39536Y-35906D01*
X39571Y-35941D01*
X39941Y-35941D01*
X39941Y-36058D01*
X39571Y-36058D01*
X39536Y-36093D01*
X39536Y-36312D01*
X39536Y-36339D01*
X39542Y-36365D01*
X39552Y-36390D01*
X39568Y-36413D01*
X39587Y-36432D01*
X39609Y-36447D01*
X39634Y-36457D01*
X39661Y-36463D01*
X39906Y-36463D01*
X39941Y-36428D01*
X39941Y-36495D01*
X39464Y-36495D01*
X39464Y-35954D01*
X39447Y-35865D01*
X39412Y-35780D01*
X39361Y-35704D01*
X39297Y-35640D01*
X39222Y-35589D01*
X39138Y-35553D01*
X39048Y-35535D01*
X38957Y-35534D01*
X38868Y-35551D01*
X38783Y-35586D01*
X38707Y-35636D01*
X38642Y-35699D01*
X38590Y-35774D01*
X38554Y-35858D01*
X38535Y-35947D01*
X38534Y-36039D01*
X38551Y-36128D01*
X38584Y-36213D01*
X38633Y-36290D01*
X38697Y-36355D01*
X38772Y-36407D01*
X38855Y-36444D01*
X38944Y-36463D01*
X39035Y-36465D01*
X39125Y-36449D01*
X39210Y-36416D01*
X39287Y-36368D01*
X39353Y-36305D01*
X39406Y-36230D01*
X39443Y-36147D01*
X39463Y-36058D01*
X39464Y-35954D01*
X39464Y-36495D01*
X38464Y-36495D01*
X38464Y-35954D01*
X38447Y-35865D01*
X38412Y-35780D01*
X38361Y-35704D01*
X38297Y-35640D01*
X38222Y-35589D01*
X38138Y-35553D01*
X38048Y-35535D01*
X37957Y-35534D01*
X37868Y-35551D01*
X37783Y-35586D01*
X37707Y-35636D01*
X37642Y-35699D01*
X37590Y-35774D01*
X37554Y-35858D01*
X37535Y-35947D01*
X37534Y-36039D01*
X37551Y-36128D01*
X37584Y-36213D01*
X37633Y-36290D01*
X37697Y-36355D01*
X37772Y-36407D01*
X37855Y-36444D01*
X37944Y-36463D01*
X38035Y-36465D01*
X38125Y-36449D01*
X38210Y-36416D01*
X38287Y-36368D01*
X38353Y-36305D01*
X38406Y-36230D01*
X38443Y-36147D01*
X38463Y-36058D01*
X38464Y-35954D01*
X38464Y-36495D01*
X37464Y-36495D01*
X37464Y-35954D01*
X37447Y-35865D01*
X37412Y-35780D01*
X37361Y-35704D01*
X37297Y-35640D01*
X37222Y-35589D01*
X37138Y-35553D01*
X37048Y-35535D01*
X36957Y-35534D01*
X36868Y-35551D01*
X36783Y-35586D01*
X36707Y-35636D01*
X36642Y-35699D01*
X36590Y-35774D01*
X36554Y-35858D01*
X36535Y-35947D01*
X36534Y-36039D01*
X36551Y-36128D01*
X36584Y-36213D01*
X36633Y-36290D01*
X36697Y-36355D01*
X36772Y-36407D01*
X36855Y-36444D01*
X36944Y-36463D01*
X37035Y-36465D01*
X37125Y-36449D01*
X37210Y-36416D01*
X37287Y-36368D01*
X37353Y-36305D01*
X37406Y-36230D01*
X37443Y-36147D01*
X37463Y-36058D01*
X37464Y-35954D01*
X37464Y-36495D01*
X36464Y-36495D01*
X36464Y-35954D01*
X36447Y-35865D01*
X36412Y-35780D01*
X36361Y-35704D01*
X36297Y-35640D01*
X36222Y-35589D01*
X36138Y-35553D01*
X36048Y-35535D01*
X35957Y-35534D01*
X35868Y-35551D01*
X35783Y-35586D01*
X35707Y-35636D01*
X35642Y-35699D01*
X35590Y-35774D01*
X35554Y-35858D01*
X35535Y-35947D01*
X35534Y-36039D01*
X35551Y-36128D01*
X35584Y-36213D01*
X35633Y-36290D01*
X35697Y-36355D01*
X35772Y-36407D01*
X35855Y-36444D01*
X35944Y-36463D01*
X36035Y-36465D01*
X36125Y-36449D01*
X36210Y-36416D01*
X36287Y-36368D01*
X36353Y-36305D01*
X36406Y-36230D01*
X36443Y-36147D01*
X36463Y-36058D01*
X36464Y-35954D01*
X36464Y-36495D01*
X35464Y-36495D01*
X35464Y-35954D01*
X35447Y-35865D01*
X35412Y-35780D01*
X35361Y-35704D01*
X35297Y-35640D01*
X35222Y-35589D01*
X35138Y-35553D01*
X35048Y-35535D01*
X34957Y-35534D01*
X34868Y-35551D01*
X34783Y-35586D01*
X34707Y-35636D01*
X34642Y-35699D01*
X34590Y-35774D01*
X34554Y-35858D01*
X34535Y-35947D01*
X34534Y-36039D01*
X34551Y-36128D01*
X34584Y-36213D01*
X34633Y-36290D01*
X34697Y-36355D01*
X34772Y-36407D01*
X34855Y-36444D01*
X34944Y-36463D01*
X35035Y-36465D01*
X35125Y-36449D01*
X35210Y-36416D01*
X35287Y-36368D01*
X35353Y-36305D01*
X35406Y-36230D01*
X35443Y-36147D01*
X35463Y-36058D01*
X35464Y-35954D01*
X35464Y-36495D01*
X34464Y-36495D01*
X34464Y-35954D01*
X34447Y-35865D01*
X34412Y-35780D01*
X34361Y-35704D01*
X34297Y-35640D01*
X34222Y-35589D01*
X34138Y-35553D01*
X34048Y-35535D01*
X33957Y-35534D01*
X33868Y-35551D01*
X33783Y-35586D01*
X33707Y-35636D01*
X33642Y-35699D01*
X33590Y-35774D01*
X33554Y-35858D01*
X33535Y-35947D01*
X33534Y-36039D01*
X33551Y-36128D01*
X33584Y-36213D01*
X33633Y-36290D01*
X33697Y-36355D01*
X33772Y-36407D01*
X33855Y-36444D01*
X33944Y-36463D01*
X34035Y-36465D01*
X34125Y-36449D01*
X34210Y-36416D01*
X34287Y-36368D01*
X34353Y-36305D01*
X34406Y-36230D01*
X34443Y-36147D01*
X34463Y-36058D01*
X34464Y-35954D01*
X34464Y-36495D01*
X33464Y-36495D01*
X33464Y-35954D01*
X33447Y-35865D01*
X33412Y-35780D01*
X33361Y-35704D01*
X33297Y-35640D01*
X33222Y-35589D01*
X33138Y-35553D01*
X33048Y-35535D01*
X32957Y-35534D01*
X32868Y-35551D01*
X32783Y-35586D01*
X32707Y-35636D01*
X32642Y-35699D01*
X32590Y-35774D01*
X32554Y-35858D01*
X32535Y-35947D01*
X32534Y-36039D01*
X32551Y-36128D01*
X32584Y-36213D01*
X32633Y-36290D01*
X32697Y-36355D01*
X32772Y-36407D01*
X32855Y-36444D01*
X32944Y-36463D01*
X33035Y-36465D01*
X33125Y-36449D01*
X33210Y-36416D01*
X33287Y-36368D01*
X33353Y-36305D01*
X33406Y-36230D01*
X33443Y-36147D01*
X33463Y-36058D01*
X33464Y-35954D01*
X33464Y-36495D01*
X32464Y-36495D01*
X32464Y-35954D01*
X32447Y-35865D01*
X32412Y-35780D01*
X32361Y-35704D01*
X32297Y-35640D01*
X32222Y-35589D01*
X32138Y-35553D01*
X32048Y-35535D01*
X31957Y-35534D01*
X31868Y-35551D01*
X31783Y-35586D01*
X31707Y-35636D01*
X31642Y-35699D01*
X31590Y-35774D01*
X31554Y-35858D01*
X31535Y-35947D01*
X31534Y-36039D01*
X31551Y-36128D01*
X31584Y-36213D01*
X31633Y-36290D01*
X31697Y-36355D01*
X31772Y-36407D01*
X31855Y-36444D01*
X31944Y-36463D01*
X32035Y-36465D01*
X32125Y-36449D01*
X32210Y-36416D01*
X32287Y-36368D01*
X32353Y-36305D01*
X32406Y-36230D01*
X32443Y-36147D01*
X32463Y-36058D01*
X32464Y-35954D01*
X32464Y-36495D01*
X31496Y-36495D01*
X31496Y-31949D01*
X40471Y-31949D01*
X40471Y-36495D01*
M02*
