G04 (created by PCBNEW (2012-12-10 BZR 3841)-testing) date Tue 11 Dec 2012 12:44:15 PM CET*
%MOIN*%
G04 Gerber Fmt 3.4, Leading zero omitted, Abs format*
%FSLAX34Y34*%
G01*
G70*
G90*
G04 APERTURE LIST*
%ADD10C,0.006*%
%ADD11R,0.055X0.055*%
%ADD12C,0.055*%
%ADD13R,0.0472X0.0472*%
%ADD14C,0.025*%
%ADD15C,0.02*%
%ADD16C,0.008*%
G04 APERTURE END LIST*
G54D10*
G54D11*
X40000Y-36000D03*
G54D12*
X39000Y-36000D03*
X38000Y-36000D03*
X37000Y-36000D03*
X36000Y-36000D03*
X35000Y-36000D03*
X34000Y-36000D03*
X33000Y-36000D03*
X32000Y-36000D03*
G54D13*
X32000Y-34087D03*
X32000Y-34913D03*
X38000Y-34087D03*
X38000Y-34913D03*
X33000Y-34087D03*
X33000Y-34913D03*
X34000Y-34087D03*
X34000Y-34913D03*
X35000Y-34087D03*
X35000Y-34913D03*
X36000Y-34087D03*
X36000Y-34913D03*
X37000Y-34087D03*
X37000Y-34913D03*
X39000Y-34087D03*
X39000Y-34913D03*
X32000Y-32337D03*
X32000Y-33163D03*
X33000Y-32337D03*
X33000Y-33163D03*
X34000Y-32337D03*
X34000Y-33163D03*
X35000Y-32337D03*
X35000Y-33163D03*
X36000Y-32337D03*
X36000Y-33163D03*
X37000Y-32337D03*
X37000Y-33163D03*
X38000Y-32337D03*
X38000Y-33163D03*
X39000Y-32337D03*
X39000Y-33163D03*
G54D14*
X33500Y-34925D03*
X33500Y-32325D03*
X38500Y-34900D03*
X38500Y-32350D03*
X39550Y-34900D03*
X39550Y-32325D03*
X32500Y-34925D03*
X32500Y-32350D03*
X36500Y-34900D03*
X36500Y-32325D03*
X34475Y-34925D03*
X34475Y-32325D03*
X35525Y-34900D03*
X35525Y-32325D03*
X37525Y-34900D03*
X37525Y-32325D03*
G54D15*
X33000Y-32337D02*
X33488Y-32337D01*
X33488Y-34913D02*
X33000Y-34913D01*
X33500Y-34925D02*
X33488Y-34913D01*
X33488Y-32337D02*
X33500Y-32325D01*
X38000Y-32337D02*
X38487Y-32337D01*
X38487Y-34913D02*
X38000Y-34913D01*
X38500Y-34900D02*
X38487Y-34913D01*
X38487Y-32337D02*
X38500Y-32350D01*
X39000Y-32337D02*
X39538Y-32337D01*
X39537Y-34913D02*
X39000Y-34913D01*
X39550Y-34900D02*
X39537Y-34913D01*
X39538Y-32337D02*
X39550Y-32325D01*
X32000Y-32337D02*
X32487Y-32337D01*
X32488Y-34913D02*
X32000Y-34913D01*
X32500Y-34925D02*
X32488Y-34913D01*
X32487Y-32337D02*
X32500Y-32350D01*
X36000Y-32337D02*
X36488Y-32337D01*
X36487Y-34913D02*
X36000Y-34913D01*
X36500Y-34900D02*
X36487Y-34913D01*
X36488Y-32337D02*
X36500Y-32325D01*
X34000Y-32337D02*
X34463Y-32337D01*
X34463Y-34913D02*
X34000Y-34913D01*
X34475Y-34925D02*
X34463Y-34913D01*
X34463Y-32337D02*
X34475Y-32325D01*
X35000Y-32337D02*
X35513Y-32337D01*
X35512Y-34913D02*
X35000Y-34913D01*
X35525Y-34900D02*
X35512Y-34913D01*
X35513Y-32337D02*
X35525Y-32325D01*
X37000Y-32337D02*
X37513Y-32337D01*
X37512Y-34913D02*
X37000Y-34913D01*
X37525Y-34900D02*
X37512Y-34913D01*
X37513Y-32337D02*
X37525Y-32325D01*
X39000Y-34087D02*
X39337Y-34087D01*
X40000Y-34750D02*
X40000Y-36000D01*
X39337Y-34087D02*
X40000Y-34750D01*
X32000Y-33163D02*
X33000Y-33163D01*
X38000Y-33163D02*
X38000Y-34087D01*
X37000Y-33163D02*
X37000Y-34087D01*
X36000Y-33163D02*
X36000Y-34087D01*
X35000Y-34087D02*
X35000Y-33163D01*
X34000Y-33163D02*
X34000Y-34087D01*
X33000Y-33163D02*
X33000Y-34087D01*
X33000Y-33163D02*
X34000Y-33163D01*
X34000Y-33163D02*
X35000Y-33163D01*
X35000Y-33163D02*
X36000Y-33163D01*
X36000Y-33163D02*
X37000Y-33163D01*
X37000Y-33163D02*
X38000Y-33163D01*
X38000Y-33163D02*
X39000Y-33163D01*
X39000Y-33163D02*
X39000Y-34087D01*
X39000Y-34087D02*
X38000Y-34087D01*
X38000Y-34087D02*
X37000Y-34087D01*
X37000Y-34087D02*
X36987Y-34100D01*
X36987Y-34100D02*
X36013Y-34100D01*
X36013Y-34100D02*
X36000Y-34087D01*
X36000Y-34087D02*
X34000Y-34087D01*
X34000Y-34087D02*
X33000Y-34087D01*
X33000Y-34087D02*
X32000Y-34087D01*
X32000Y-34087D02*
X32000Y-33163D01*
G54D10*
G36*
X40471Y-36495D02*
X40413Y-36495D01*
X40413Y-36262D01*
X40413Y-35737D01*
X40413Y-35710D01*
X40407Y-35683D01*
X40397Y-35658D01*
X40382Y-35636D01*
X40362Y-35617D01*
X40340Y-35602D01*
X40315Y-35591D01*
X40288Y-35586D01*
X40093Y-35586D01*
X40058Y-35621D01*
X40058Y-35941D01*
X40378Y-35941D01*
X40413Y-35906D01*
X40413Y-35737D01*
X40413Y-36262D01*
X40413Y-36093D01*
X40378Y-36058D01*
X40058Y-36058D01*
X40058Y-36378D01*
X40093Y-36413D01*
X40288Y-36413D01*
X40315Y-36408D01*
X40340Y-36397D01*
X40362Y-36382D01*
X40382Y-36363D01*
X40397Y-36341D01*
X40407Y-36316D01*
X40413Y-36289D01*
X40413Y-36262D01*
X40413Y-36495D01*
X39941Y-36495D01*
X39941Y-36378D01*
X39941Y-36058D01*
X39941Y-35941D01*
X39941Y-35621D01*
X39906Y-35586D01*
X39815Y-35586D01*
X39815Y-34874D01*
X39815Y-32299D01*
X39804Y-32248D01*
X39785Y-32199D01*
X39756Y-32156D01*
X39719Y-32119D01*
X39676Y-32090D01*
X39628Y-32070D01*
X39577Y-32060D01*
X39525Y-32059D01*
X39474Y-32069D01*
X39426Y-32089D01*
X39414Y-32097D01*
X39376Y-32097D01*
X39376Y-32087D01*
X39370Y-32060D01*
X39360Y-32034D01*
X39345Y-32012D01*
X39325Y-31992D01*
X39302Y-31977D01*
X39277Y-31966D01*
X39250Y-31961D01*
X39223Y-31960D01*
X38750Y-31960D01*
X38723Y-31966D01*
X38697Y-31976D01*
X38675Y-31991D01*
X38655Y-32011D01*
X38640Y-32034D01*
X38629Y-32059D01*
X38624Y-32086D01*
X38623Y-32113D01*
X38623Y-32114D01*
X38578Y-32095D01*
X38527Y-32085D01*
X38475Y-32084D01*
X38424Y-32094D01*
X38418Y-32097D01*
X38376Y-32097D01*
X38376Y-32087D01*
X38370Y-32060D01*
X38360Y-32034D01*
X38345Y-32012D01*
X38325Y-31992D01*
X38302Y-31977D01*
X38277Y-31966D01*
X38250Y-31961D01*
X38223Y-31960D01*
X37750Y-31960D01*
X37723Y-31966D01*
X37697Y-31976D01*
X37675Y-31991D01*
X37655Y-32011D01*
X37640Y-32034D01*
X37629Y-32059D01*
X37625Y-32079D01*
X37603Y-32070D01*
X37552Y-32060D01*
X37500Y-32059D01*
X37449Y-32069D01*
X37401Y-32089D01*
X37389Y-32097D01*
X37376Y-32097D01*
X37376Y-32087D01*
X37370Y-32060D01*
X37360Y-32034D01*
X37345Y-32012D01*
X37325Y-31992D01*
X37302Y-31977D01*
X37277Y-31966D01*
X37250Y-31961D01*
X37223Y-31960D01*
X36750Y-31960D01*
X36723Y-31966D01*
X36697Y-31976D01*
X36675Y-31991D01*
X36655Y-32011D01*
X36640Y-32034D01*
X36629Y-32059D01*
X36624Y-32086D01*
X36624Y-32089D01*
X36578Y-32070D01*
X36527Y-32060D01*
X36475Y-32059D01*
X36424Y-32069D01*
X36376Y-32089D01*
X36376Y-32089D01*
X36376Y-32087D01*
X36370Y-32060D01*
X36360Y-32034D01*
X36345Y-32012D01*
X36325Y-31992D01*
X36302Y-31977D01*
X36277Y-31966D01*
X36250Y-31961D01*
X36223Y-31960D01*
X35750Y-31960D01*
X35723Y-31966D01*
X35697Y-31976D01*
X35675Y-31991D01*
X35655Y-32011D01*
X35640Y-32034D01*
X35629Y-32059D01*
X35625Y-32079D01*
X35603Y-32070D01*
X35552Y-32060D01*
X35500Y-32059D01*
X35449Y-32069D01*
X35401Y-32089D01*
X35389Y-32097D01*
X35376Y-32097D01*
X35376Y-32087D01*
X35370Y-32060D01*
X35360Y-32034D01*
X35345Y-32012D01*
X35325Y-31992D01*
X35302Y-31977D01*
X35277Y-31966D01*
X35250Y-31961D01*
X35223Y-31960D01*
X34750Y-31960D01*
X34723Y-31966D01*
X34697Y-31976D01*
X34675Y-31991D01*
X34655Y-32011D01*
X34640Y-32034D01*
X34629Y-32059D01*
X34624Y-32086D01*
X34623Y-32105D01*
X34601Y-32090D01*
X34553Y-32070D01*
X34502Y-32060D01*
X34450Y-32059D01*
X34399Y-32069D01*
X34374Y-32079D01*
X34370Y-32060D01*
X34360Y-32034D01*
X34345Y-32012D01*
X34325Y-31992D01*
X34302Y-31977D01*
X34277Y-31966D01*
X34250Y-31961D01*
X34223Y-31960D01*
X33750Y-31960D01*
X33723Y-31966D01*
X33697Y-31976D01*
X33675Y-31991D01*
X33655Y-32011D01*
X33640Y-32034D01*
X33629Y-32059D01*
X33624Y-32086D01*
X33624Y-32089D01*
X33578Y-32070D01*
X33527Y-32060D01*
X33475Y-32059D01*
X33424Y-32069D01*
X33376Y-32089D01*
X33376Y-32089D01*
X33376Y-32087D01*
X33370Y-32060D01*
X33360Y-32034D01*
X33345Y-32012D01*
X33325Y-31992D01*
X33302Y-31977D01*
X33277Y-31966D01*
X33250Y-31961D01*
X33223Y-31960D01*
X32750Y-31960D01*
X32723Y-31966D01*
X32697Y-31976D01*
X32675Y-31991D01*
X32655Y-32011D01*
X32640Y-32034D01*
X32629Y-32059D01*
X32624Y-32086D01*
X32623Y-32113D01*
X32623Y-32114D01*
X32578Y-32095D01*
X32527Y-32085D01*
X32475Y-32084D01*
X32424Y-32094D01*
X32418Y-32097D01*
X32376Y-32097D01*
X32376Y-32087D01*
X32370Y-32060D01*
X32360Y-32034D01*
X32345Y-32012D01*
X32325Y-31992D01*
X32302Y-31977D01*
X32277Y-31966D01*
X32250Y-31961D01*
X32223Y-31960D01*
X31750Y-31960D01*
X31723Y-31966D01*
X31697Y-31976D01*
X31675Y-31991D01*
X31655Y-32011D01*
X31640Y-32034D01*
X31629Y-32059D01*
X31624Y-32086D01*
X31623Y-32113D01*
X31623Y-32586D01*
X31629Y-32613D01*
X31639Y-32639D01*
X31654Y-32661D01*
X31674Y-32681D01*
X31697Y-32696D01*
X31722Y-32707D01*
X31749Y-32712D01*
X31776Y-32713D01*
X32249Y-32713D01*
X32276Y-32707D01*
X32302Y-32697D01*
X32324Y-32682D01*
X32344Y-32662D01*
X32359Y-32639D01*
X32370Y-32614D01*
X32375Y-32587D01*
X32375Y-32584D01*
X32417Y-32603D01*
X32468Y-32614D01*
X32520Y-32615D01*
X32571Y-32606D01*
X32620Y-32587D01*
X32623Y-32585D01*
X32623Y-32586D01*
X32629Y-32613D01*
X32639Y-32639D01*
X32654Y-32661D01*
X32674Y-32681D01*
X32697Y-32696D01*
X32722Y-32707D01*
X32749Y-32712D01*
X32776Y-32713D01*
X33249Y-32713D01*
X33276Y-32707D01*
X33302Y-32697D01*
X33324Y-32682D01*
X33344Y-32662D01*
X33359Y-32639D01*
X33370Y-32614D01*
X33375Y-32587D01*
X33375Y-32577D01*
X33414Y-32577D01*
X33417Y-32578D01*
X33468Y-32589D01*
X33520Y-32590D01*
X33571Y-32581D01*
X33620Y-32562D01*
X33623Y-32560D01*
X33623Y-32586D01*
X33629Y-32613D01*
X33639Y-32639D01*
X33654Y-32661D01*
X33674Y-32681D01*
X33697Y-32696D01*
X33722Y-32707D01*
X33749Y-32712D01*
X33776Y-32713D01*
X34249Y-32713D01*
X34276Y-32707D01*
X34302Y-32697D01*
X34324Y-32682D01*
X34344Y-32662D01*
X34359Y-32639D01*
X34370Y-32614D01*
X34375Y-32587D01*
X34375Y-32577D01*
X34389Y-32577D01*
X34392Y-32578D01*
X34443Y-32589D01*
X34495Y-32590D01*
X34546Y-32581D01*
X34595Y-32562D01*
X34623Y-32544D01*
X34623Y-32586D01*
X34629Y-32613D01*
X34639Y-32639D01*
X34654Y-32661D01*
X34674Y-32681D01*
X34697Y-32696D01*
X34722Y-32707D01*
X34749Y-32712D01*
X34776Y-32713D01*
X35249Y-32713D01*
X35276Y-32707D01*
X35302Y-32697D01*
X35324Y-32682D01*
X35344Y-32662D01*
X35359Y-32639D01*
X35370Y-32614D01*
X35375Y-32587D01*
X35375Y-32577D01*
X35439Y-32577D01*
X35442Y-32578D01*
X35493Y-32589D01*
X35545Y-32590D01*
X35596Y-32581D01*
X35623Y-32570D01*
X35623Y-32586D01*
X35629Y-32613D01*
X35639Y-32639D01*
X35654Y-32661D01*
X35674Y-32681D01*
X35697Y-32696D01*
X35722Y-32707D01*
X35749Y-32712D01*
X35776Y-32713D01*
X36249Y-32713D01*
X36276Y-32707D01*
X36302Y-32697D01*
X36324Y-32682D01*
X36344Y-32662D01*
X36359Y-32639D01*
X36370Y-32614D01*
X36375Y-32587D01*
X36375Y-32577D01*
X36414Y-32577D01*
X36417Y-32578D01*
X36468Y-32589D01*
X36520Y-32590D01*
X36571Y-32581D01*
X36620Y-32562D01*
X36623Y-32560D01*
X36623Y-32586D01*
X36629Y-32613D01*
X36639Y-32639D01*
X36654Y-32661D01*
X36674Y-32681D01*
X36697Y-32696D01*
X36722Y-32707D01*
X36749Y-32712D01*
X36776Y-32713D01*
X37249Y-32713D01*
X37276Y-32707D01*
X37302Y-32697D01*
X37324Y-32682D01*
X37344Y-32662D01*
X37359Y-32639D01*
X37370Y-32614D01*
X37375Y-32587D01*
X37375Y-32577D01*
X37439Y-32577D01*
X37442Y-32578D01*
X37493Y-32589D01*
X37545Y-32590D01*
X37596Y-32581D01*
X37623Y-32570D01*
X37623Y-32586D01*
X37629Y-32613D01*
X37639Y-32639D01*
X37654Y-32661D01*
X37674Y-32681D01*
X37697Y-32696D01*
X37722Y-32707D01*
X37749Y-32712D01*
X37776Y-32713D01*
X38249Y-32713D01*
X38276Y-32707D01*
X38302Y-32697D01*
X38324Y-32682D01*
X38344Y-32662D01*
X38359Y-32639D01*
X38370Y-32614D01*
X38375Y-32587D01*
X38375Y-32584D01*
X38417Y-32603D01*
X38468Y-32614D01*
X38520Y-32615D01*
X38571Y-32606D01*
X38620Y-32587D01*
X38623Y-32585D01*
X38623Y-32586D01*
X38629Y-32613D01*
X38639Y-32639D01*
X38654Y-32661D01*
X38674Y-32681D01*
X38697Y-32696D01*
X38722Y-32707D01*
X38749Y-32712D01*
X38776Y-32713D01*
X39249Y-32713D01*
X39276Y-32707D01*
X39302Y-32697D01*
X39324Y-32682D01*
X39344Y-32662D01*
X39359Y-32639D01*
X39370Y-32614D01*
X39375Y-32587D01*
X39375Y-32577D01*
X39464Y-32577D01*
X39467Y-32578D01*
X39518Y-32589D01*
X39570Y-32590D01*
X39621Y-32581D01*
X39670Y-32562D01*
X39713Y-32534D01*
X39751Y-32498D01*
X39781Y-32456D01*
X39802Y-32409D01*
X39814Y-32358D01*
X39815Y-32299D01*
X39815Y-34874D01*
X39804Y-34823D01*
X39785Y-34774D01*
X39756Y-34731D01*
X39719Y-34694D01*
X39676Y-34665D01*
X39628Y-34645D01*
X39577Y-34635D01*
X39525Y-34634D01*
X39474Y-34644D01*
X39426Y-34664D01*
X39412Y-34673D01*
X39376Y-34673D01*
X39376Y-34663D01*
X39374Y-34655D01*
X39374Y-34336D01*
X39374Y-33837D01*
X39374Y-33412D01*
X39374Y-32913D01*
X39369Y-32886D01*
X39358Y-32861D01*
X39343Y-32839D01*
X39324Y-32819D01*
X39302Y-32804D01*
X39277Y-32794D01*
X39250Y-32788D01*
X39223Y-32788D01*
X39093Y-32788D01*
X39058Y-32823D01*
X39058Y-33104D01*
X39339Y-33104D01*
X39374Y-33069D01*
X39374Y-32913D01*
X39374Y-33412D01*
X39374Y-33256D01*
X39339Y-33221D01*
X39058Y-33221D01*
X39058Y-33502D01*
X39093Y-33537D01*
X39223Y-33537D01*
X39250Y-33537D01*
X39277Y-33531D01*
X39302Y-33521D01*
X39324Y-33506D01*
X39343Y-33486D01*
X39358Y-33464D01*
X39369Y-33439D01*
X39374Y-33412D01*
X39374Y-33837D01*
X39369Y-33810D01*
X39358Y-33785D01*
X39343Y-33763D01*
X39324Y-33743D01*
X39302Y-33728D01*
X39277Y-33718D01*
X39250Y-33712D01*
X39223Y-33712D01*
X39093Y-33712D01*
X39058Y-33747D01*
X39058Y-34028D01*
X39339Y-34028D01*
X39374Y-33993D01*
X39374Y-33837D01*
X39374Y-34336D01*
X39374Y-34180D01*
X39339Y-34145D01*
X39058Y-34145D01*
X39058Y-34426D01*
X39093Y-34461D01*
X39223Y-34461D01*
X39250Y-34461D01*
X39277Y-34455D01*
X39302Y-34445D01*
X39324Y-34430D01*
X39343Y-34410D01*
X39358Y-34388D01*
X39369Y-34363D01*
X39374Y-34336D01*
X39374Y-34655D01*
X39370Y-34636D01*
X39360Y-34610D01*
X39345Y-34588D01*
X39325Y-34568D01*
X39302Y-34553D01*
X39277Y-34542D01*
X39250Y-34537D01*
X39223Y-34536D01*
X38941Y-34536D01*
X38941Y-34426D01*
X38941Y-34145D01*
X38941Y-34028D01*
X38941Y-33747D01*
X38941Y-33502D01*
X38941Y-33221D01*
X38941Y-33104D01*
X38941Y-32823D01*
X38906Y-32788D01*
X38776Y-32788D01*
X38749Y-32788D01*
X38722Y-32794D01*
X38697Y-32804D01*
X38675Y-32819D01*
X38656Y-32839D01*
X38641Y-32861D01*
X38630Y-32886D01*
X38625Y-32913D01*
X38625Y-33069D01*
X38660Y-33104D01*
X38941Y-33104D01*
X38941Y-33221D01*
X38660Y-33221D01*
X38625Y-33256D01*
X38625Y-33412D01*
X38630Y-33439D01*
X38641Y-33464D01*
X38656Y-33486D01*
X38675Y-33506D01*
X38697Y-33521D01*
X38722Y-33531D01*
X38749Y-33537D01*
X38776Y-33537D01*
X38906Y-33537D01*
X38941Y-33502D01*
X38941Y-33747D01*
X38906Y-33712D01*
X38776Y-33712D01*
X38749Y-33712D01*
X38722Y-33718D01*
X38697Y-33728D01*
X38675Y-33743D01*
X38656Y-33763D01*
X38641Y-33785D01*
X38630Y-33810D01*
X38625Y-33837D01*
X38625Y-33993D01*
X38660Y-34028D01*
X38941Y-34028D01*
X38941Y-34145D01*
X38660Y-34145D01*
X38625Y-34180D01*
X38625Y-34336D01*
X38630Y-34363D01*
X38641Y-34388D01*
X38656Y-34410D01*
X38675Y-34430D01*
X38697Y-34445D01*
X38722Y-34455D01*
X38749Y-34461D01*
X38776Y-34461D01*
X38906Y-34461D01*
X38941Y-34426D01*
X38941Y-34536D01*
X38750Y-34536D01*
X38723Y-34542D01*
X38697Y-34552D01*
X38675Y-34567D01*
X38655Y-34587D01*
X38640Y-34610D01*
X38629Y-34635D01*
X38624Y-34662D01*
X38624Y-34664D01*
X38578Y-34645D01*
X38527Y-34635D01*
X38475Y-34634D01*
X38424Y-34644D01*
X38376Y-34664D01*
X38376Y-34664D01*
X38376Y-34663D01*
X38374Y-34655D01*
X38374Y-34336D01*
X38374Y-33837D01*
X38374Y-33412D01*
X38374Y-32913D01*
X38369Y-32886D01*
X38358Y-32861D01*
X38343Y-32839D01*
X38324Y-32819D01*
X38302Y-32804D01*
X38277Y-32794D01*
X38250Y-32788D01*
X38223Y-32788D01*
X38093Y-32788D01*
X38058Y-32823D01*
X38058Y-33104D01*
X38339Y-33104D01*
X38374Y-33069D01*
X38374Y-32913D01*
X38374Y-33412D01*
X38374Y-33256D01*
X38339Y-33221D01*
X38058Y-33221D01*
X38058Y-33502D01*
X38093Y-33537D01*
X38223Y-33537D01*
X38250Y-33537D01*
X38277Y-33531D01*
X38302Y-33521D01*
X38324Y-33506D01*
X38343Y-33486D01*
X38358Y-33464D01*
X38369Y-33439D01*
X38374Y-33412D01*
X38374Y-33837D01*
X38369Y-33810D01*
X38358Y-33785D01*
X38343Y-33763D01*
X38324Y-33743D01*
X38302Y-33728D01*
X38277Y-33718D01*
X38250Y-33712D01*
X38223Y-33712D01*
X38093Y-33712D01*
X38058Y-33747D01*
X38058Y-34028D01*
X38339Y-34028D01*
X38374Y-33993D01*
X38374Y-33837D01*
X38374Y-34336D01*
X38374Y-34180D01*
X38339Y-34145D01*
X38058Y-34145D01*
X38058Y-34426D01*
X38093Y-34461D01*
X38223Y-34461D01*
X38250Y-34461D01*
X38277Y-34455D01*
X38302Y-34445D01*
X38324Y-34430D01*
X38343Y-34410D01*
X38358Y-34388D01*
X38369Y-34363D01*
X38374Y-34336D01*
X38374Y-34655D01*
X38370Y-34636D01*
X38360Y-34610D01*
X38345Y-34588D01*
X38325Y-34568D01*
X38302Y-34553D01*
X38277Y-34542D01*
X38250Y-34537D01*
X38223Y-34536D01*
X37941Y-34536D01*
X37941Y-34426D01*
X37941Y-34145D01*
X37941Y-34028D01*
X37941Y-33747D01*
X37941Y-33502D01*
X37941Y-33221D01*
X37941Y-33104D01*
X37941Y-32823D01*
X37906Y-32788D01*
X37776Y-32788D01*
X37749Y-32788D01*
X37722Y-32794D01*
X37697Y-32804D01*
X37675Y-32819D01*
X37656Y-32839D01*
X37641Y-32861D01*
X37630Y-32886D01*
X37625Y-32913D01*
X37625Y-33069D01*
X37660Y-33104D01*
X37941Y-33104D01*
X37941Y-33221D01*
X37660Y-33221D01*
X37625Y-33256D01*
X37625Y-33412D01*
X37630Y-33439D01*
X37641Y-33464D01*
X37656Y-33486D01*
X37675Y-33506D01*
X37697Y-33521D01*
X37722Y-33531D01*
X37749Y-33537D01*
X37776Y-33537D01*
X37906Y-33537D01*
X37941Y-33502D01*
X37941Y-33747D01*
X37906Y-33712D01*
X37776Y-33712D01*
X37749Y-33712D01*
X37722Y-33718D01*
X37697Y-33728D01*
X37675Y-33743D01*
X37656Y-33763D01*
X37641Y-33785D01*
X37630Y-33810D01*
X37625Y-33837D01*
X37625Y-33993D01*
X37660Y-34028D01*
X37941Y-34028D01*
X37941Y-34145D01*
X37660Y-34145D01*
X37625Y-34180D01*
X37625Y-34336D01*
X37630Y-34363D01*
X37641Y-34388D01*
X37656Y-34410D01*
X37675Y-34430D01*
X37697Y-34445D01*
X37722Y-34455D01*
X37749Y-34461D01*
X37776Y-34461D01*
X37906Y-34461D01*
X37941Y-34426D01*
X37941Y-34536D01*
X37750Y-34536D01*
X37723Y-34542D01*
X37697Y-34552D01*
X37675Y-34567D01*
X37655Y-34587D01*
X37640Y-34610D01*
X37629Y-34635D01*
X37625Y-34654D01*
X37603Y-34645D01*
X37552Y-34635D01*
X37500Y-34634D01*
X37449Y-34644D01*
X37401Y-34664D01*
X37387Y-34673D01*
X37376Y-34673D01*
X37376Y-34663D01*
X37374Y-34655D01*
X37374Y-34336D01*
X37374Y-33837D01*
X37374Y-33412D01*
X37374Y-32913D01*
X37369Y-32886D01*
X37358Y-32861D01*
X37343Y-32839D01*
X37324Y-32819D01*
X37302Y-32804D01*
X37277Y-32794D01*
X37250Y-32788D01*
X37223Y-32788D01*
X37093Y-32788D01*
X37058Y-32823D01*
X37058Y-33104D01*
X37339Y-33104D01*
X37374Y-33069D01*
X37374Y-32913D01*
X37374Y-33412D01*
X37374Y-33256D01*
X37339Y-33221D01*
X37058Y-33221D01*
X37058Y-33502D01*
X37093Y-33537D01*
X37223Y-33537D01*
X37250Y-33537D01*
X37277Y-33531D01*
X37302Y-33521D01*
X37324Y-33506D01*
X37343Y-33486D01*
X37358Y-33464D01*
X37369Y-33439D01*
X37374Y-33412D01*
X37374Y-33837D01*
X37369Y-33810D01*
X37358Y-33785D01*
X37343Y-33763D01*
X37324Y-33743D01*
X37302Y-33728D01*
X37277Y-33718D01*
X37250Y-33712D01*
X37223Y-33712D01*
X37093Y-33712D01*
X37058Y-33747D01*
X37058Y-34028D01*
X37339Y-34028D01*
X37374Y-33993D01*
X37374Y-33837D01*
X37374Y-34336D01*
X37374Y-34180D01*
X37339Y-34145D01*
X37058Y-34145D01*
X37058Y-34426D01*
X37093Y-34461D01*
X37223Y-34461D01*
X37250Y-34461D01*
X37277Y-34455D01*
X37302Y-34445D01*
X37324Y-34430D01*
X37343Y-34410D01*
X37358Y-34388D01*
X37369Y-34363D01*
X37374Y-34336D01*
X37374Y-34655D01*
X37370Y-34636D01*
X37360Y-34610D01*
X37345Y-34588D01*
X37325Y-34568D01*
X37302Y-34553D01*
X37277Y-34542D01*
X37250Y-34537D01*
X37223Y-34536D01*
X36941Y-34536D01*
X36941Y-34426D01*
X36941Y-34145D01*
X36941Y-34028D01*
X36941Y-33747D01*
X36941Y-33502D01*
X36941Y-33221D01*
X36941Y-33104D01*
X36941Y-32823D01*
X36906Y-32788D01*
X36776Y-32788D01*
X36749Y-32788D01*
X36722Y-32794D01*
X36697Y-32804D01*
X36675Y-32819D01*
X36656Y-32839D01*
X36641Y-32861D01*
X36630Y-32886D01*
X36625Y-32913D01*
X36625Y-33069D01*
X36660Y-33104D01*
X36941Y-33104D01*
X36941Y-33221D01*
X36660Y-33221D01*
X36625Y-33256D01*
X36625Y-33412D01*
X36630Y-33439D01*
X36641Y-33464D01*
X36656Y-33486D01*
X36675Y-33506D01*
X36697Y-33521D01*
X36722Y-33531D01*
X36749Y-33537D01*
X36776Y-33537D01*
X36906Y-33537D01*
X36941Y-33502D01*
X36941Y-33747D01*
X36906Y-33712D01*
X36776Y-33712D01*
X36749Y-33712D01*
X36722Y-33718D01*
X36697Y-33728D01*
X36675Y-33743D01*
X36656Y-33763D01*
X36641Y-33785D01*
X36630Y-33810D01*
X36625Y-33837D01*
X36625Y-33993D01*
X36660Y-34028D01*
X36941Y-34028D01*
X36941Y-34145D01*
X36660Y-34145D01*
X36625Y-34180D01*
X36625Y-34336D01*
X36630Y-34363D01*
X36641Y-34388D01*
X36656Y-34410D01*
X36675Y-34430D01*
X36697Y-34445D01*
X36722Y-34455D01*
X36749Y-34461D01*
X36776Y-34461D01*
X36906Y-34461D01*
X36941Y-34426D01*
X36941Y-34536D01*
X36750Y-34536D01*
X36723Y-34542D01*
X36697Y-34552D01*
X36675Y-34567D01*
X36655Y-34587D01*
X36640Y-34610D01*
X36629Y-34635D01*
X36624Y-34662D01*
X36624Y-34664D01*
X36578Y-34645D01*
X36527Y-34635D01*
X36475Y-34634D01*
X36424Y-34644D01*
X36376Y-34664D01*
X36376Y-34664D01*
X36376Y-34663D01*
X36374Y-34655D01*
X36374Y-34336D01*
X36374Y-33837D01*
X36374Y-33412D01*
X36374Y-32913D01*
X36369Y-32886D01*
X36358Y-32861D01*
X36343Y-32839D01*
X36324Y-32819D01*
X36302Y-32804D01*
X36277Y-32794D01*
X36250Y-32788D01*
X36223Y-32788D01*
X36093Y-32788D01*
X36058Y-32823D01*
X36058Y-33104D01*
X36339Y-33104D01*
X36374Y-33069D01*
X36374Y-32913D01*
X36374Y-33412D01*
X36374Y-33256D01*
X36339Y-33221D01*
X36058Y-33221D01*
X36058Y-33502D01*
X36093Y-33537D01*
X36223Y-33537D01*
X36250Y-33537D01*
X36277Y-33531D01*
X36302Y-33521D01*
X36324Y-33506D01*
X36343Y-33486D01*
X36358Y-33464D01*
X36369Y-33439D01*
X36374Y-33412D01*
X36374Y-33837D01*
X36369Y-33810D01*
X36358Y-33785D01*
X36343Y-33763D01*
X36324Y-33743D01*
X36302Y-33728D01*
X36277Y-33718D01*
X36250Y-33712D01*
X36223Y-33712D01*
X36093Y-33712D01*
X36058Y-33747D01*
X36058Y-34028D01*
X36339Y-34028D01*
X36374Y-33993D01*
X36374Y-33837D01*
X36374Y-34336D01*
X36374Y-34180D01*
X36339Y-34145D01*
X36058Y-34145D01*
X36058Y-34426D01*
X36093Y-34461D01*
X36223Y-34461D01*
X36250Y-34461D01*
X36277Y-34455D01*
X36302Y-34445D01*
X36324Y-34430D01*
X36343Y-34410D01*
X36358Y-34388D01*
X36369Y-34363D01*
X36374Y-34336D01*
X36374Y-34655D01*
X36370Y-34636D01*
X36360Y-34610D01*
X36345Y-34588D01*
X36325Y-34568D01*
X36302Y-34553D01*
X36277Y-34542D01*
X36250Y-34537D01*
X36223Y-34536D01*
X35941Y-34536D01*
X35941Y-34426D01*
X35941Y-34145D01*
X35941Y-34028D01*
X35941Y-33747D01*
X35941Y-33502D01*
X35941Y-33221D01*
X35941Y-33104D01*
X35941Y-32823D01*
X35906Y-32788D01*
X35776Y-32788D01*
X35749Y-32788D01*
X35722Y-32794D01*
X35697Y-32804D01*
X35675Y-32819D01*
X35656Y-32839D01*
X35641Y-32861D01*
X35630Y-32886D01*
X35625Y-32913D01*
X35625Y-33069D01*
X35660Y-33104D01*
X35941Y-33104D01*
X35941Y-33221D01*
X35660Y-33221D01*
X35625Y-33256D01*
X35625Y-33412D01*
X35630Y-33439D01*
X35641Y-33464D01*
X35656Y-33486D01*
X35675Y-33506D01*
X35697Y-33521D01*
X35722Y-33531D01*
X35749Y-33537D01*
X35776Y-33537D01*
X35906Y-33537D01*
X35941Y-33502D01*
X35941Y-33747D01*
X35906Y-33712D01*
X35776Y-33712D01*
X35749Y-33712D01*
X35722Y-33718D01*
X35697Y-33728D01*
X35675Y-33743D01*
X35656Y-33763D01*
X35641Y-33785D01*
X35630Y-33810D01*
X35625Y-33837D01*
X35625Y-33993D01*
X35660Y-34028D01*
X35941Y-34028D01*
X35941Y-34145D01*
X35660Y-34145D01*
X35625Y-34180D01*
X35625Y-34336D01*
X35630Y-34363D01*
X35641Y-34388D01*
X35656Y-34410D01*
X35675Y-34430D01*
X35697Y-34445D01*
X35722Y-34455D01*
X35749Y-34461D01*
X35776Y-34461D01*
X35906Y-34461D01*
X35941Y-34426D01*
X35941Y-34536D01*
X35750Y-34536D01*
X35723Y-34542D01*
X35697Y-34552D01*
X35675Y-34567D01*
X35655Y-34587D01*
X35640Y-34610D01*
X35629Y-34635D01*
X35625Y-34654D01*
X35603Y-34645D01*
X35552Y-34635D01*
X35500Y-34634D01*
X35449Y-34644D01*
X35401Y-34664D01*
X35387Y-34673D01*
X35376Y-34673D01*
X35376Y-34663D01*
X35374Y-34655D01*
X35374Y-34336D01*
X35374Y-33837D01*
X35374Y-33412D01*
X35374Y-32913D01*
X35369Y-32886D01*
X35358Y-32861D01*
X35343Y-32839D01*
X35324Y-32819D01*
X35302Y-32804D01*
X35277Y-32794D01*
X35250Y-32788D01*
X35223Y-32788D01*
X35093Y-32788D01*
X35058Y-32823D01*
X35058Y-33104D01*
X35339Y-33104D01*
X35374Y-33069D01*
X35374Y-32913D01*
X35374Y-33412D01*
X35374Y-33256D01*
X35339Y-33221D01*
X35058Y-33221D01*
X35058Y-33502D01*
X35093Y-33537D01*
X35223Y-33537D01*
X35250Y-33537D01*
X35277Y-33531D01*
X35302Y-33521D01*
X35324Y-33506D01*
X35343Y-33486D01*
X35358Y-33464D01*
X35369Y-33439D01*
X35374Y-33412D01*
X35374Y-33837D01*
X35369Y-33810D01*
X35358Y-33785D01*
X35343Y-33763D01*
X35324Y-33743D01*
X35302Y-33728D01*
X35277Y-33718D01*
X35250Y-33712D01*
X35223Y-33712D01*
X35093Y-33712D01*
X35058Y-33747D01*
X35058Y-34028D01*
X35339Y-34028D01*
X35374Y-33993D01*
X35374Y-33837D01*
X35374Y-34336D01*
X35374Y-34180D01*
X35339Y-34145D01*
X35058Y-34145D01*
X35058Y-34426D01*
X35093Y-34461D01*
X35223Y-34461D01*
X35250Y-34461D01*
X35277Y-34455D01*
X35302Y-34445D01*
X35324Y-34430D01*
X35343Y-34410D01*
X35358Y-34388D01*
X35369Y-34363D01*
X35374Y-34336D01*
X35374Y-34655D01*
X35370Y-34636D01*
X35360Y-34610D01*
X35345Y-34588D01*
X35325Y-34568D01*
X35302Y-34553D01*
X35277Y-34542D01*
X35250Y-34537D01*
X35223Y-34536D01*
X34941Y-34536D01*
X34941Y-34426D01*
X34941Y-34145D01*
X34941Y-34028D01*
X34941Y-33747D01*
X34941Y-33502D01*
X34941Y-33221D01*
X34941Y-33104D01*
X34941Y-32823D01*
X34906Y-32788D01*
X34776Y-32788D01*
X34749Y-32788D01*
X34722Y-32794D01*
X34697Y-32804D01*
X34675Y-32819D01*
X34656Y-32839D01*
X34641Y-32861D01*
X34630Y-32886D01*
X34625Y-32913D01*
X34625Y-33069D01*
X34660Y-33104D01*
X34941Y-33104D01*
X34941Y-33221D01*
X34660Y-33221D01*
X34625Y-33256D01*
X34625Y-33412D01*
X34630Y-33439D01*
X34641Y-33464D01*
X34656Y-33486D01*
X34675Y-33506D01*
X34697Y-33521D01*
X34722Y-33531D01*
X34749Y-33537D01*
X34776Y-33537D01*
X34906Y-33537D01*
X34941Y-33502D01*
X34941Y-33747D01*
X34906Y-33712D01*
X34776Y-33712D01*
X34749Y-33712D01*
X34722Y-33718D01*
X34697Y-33728D01*
X34675Y-33743D01*
X34656Y-33763D01*
X34641Y-33785D01*
X34630Y-33810D01*
X34625Y-33837D01*
X34625Y-33993D01*
X34660Y-34028D01*
X34941Y-34028D01*
X34941Y-34145D01*
X34660Y-34145D01*
X34625Y-34180D01*
X34625Y-34336D01*
X34630Y-34363D01*
X34641Y-34388D01*
X34656Y-34410D01*
X34675Y-34430D01*
X34697Y-34445D01*
X34722Y-34455D01*
X34749Y-34461D01*
X34776Y-34461D01*
X34906Y-34461D01*
X34941Y-34426D01*
X34941Y-34536D01*
X34750Y-34536D01*
X34723Y-34542D01*
X34697Y-34552D01*
X34675Y-34567D01*
X34655Y-34587D01*
X34640Y-34610D01*
X34629Y-34635D01*
X34624Y-34662D01*
X34623Y-34689D01*
X34623Y-34705D01*
X34601Y-34690D01*
X34553Y-34670D01*
X34502Y-34660D01*
X34450Y-34659D01*
X34399Y-34669D01*
X34391Y-34673D01*
X34376Y-34673D01*
X34376Y-34663D01*
X34374Y-34655D01*
X34374Y-34336D01*
X34374Y-33837D01*
X34374Y-33412D01*
X34374Y-32913D01*
X34369Y-32886D01*
X34358Y-32861D01*
X34343Y-32839D01*
X34324Y-32819D01*
X34302Y-32804D01*
X34277Y-32794D01*
X34250Y-32788D01*
X34223Y-32788D01*
X34093Y-32788D01*
X34058Y-32823D01*
X34058Y-33104D01*
X34339Y-33104D01*
X34374Y-33069D01*
X34374Y-32913D01*
X34374Y-33412D01*
X34374Y-33256D01*
X34339Y-33221D01*
X34058Y-33221D01*
X34058Y-33502D01*
X34093Y-33537D01*
X34223Y-33537D01*
X34250Y-33537D01*
X34277Y-33531D01*
X34302Y-33521D01*
X34324Y-33506D01*
X34343Y-33486D01*
X34358Y-33464D01*
X34369Y-33439D01*
X34374Y-33412D01*
X34374Y-33837D01*
X34369Y-33810D01*
X34358Y-33785D01*
X34343Y-33763D01*
X34324Y-33743D01*
X34302Y-33728D01*
X34277Y-33718D01*
X34250Y-33712D01*
X34223Y-33712D01*
X34093Y-33712D01*
X34058Y-33747D01*
X34058Y-34028D01*
X34339Y-34028D01*
X34374Y-33993D01*
X34374Y-33837D01*
X34374Y-34336D01*
X34374Y-34180D01*
X34339Y-34145D01*
X34058Y-34145D01*
X34058Y-34426D01*
X34093Y-34461D01*
X34223Y-34461D01*
X34250Y-34461D01*
X34277Y-34455D01*
X34302Y-34445D01*
X34324Y-34430D01*
X34343Y-34410D01*
X34358Y-34388D01*
X34369Y-34363D01*
X34374Y-34336D01*
X34374Y-34655D01*
X34370Y-34636D01*
X34360Y-34610D01*
X34345Y-34588D01*
X34325Y-34568D01*
X34302Y-34553D01*
X34277Y-34542D01*
X34250Y-34537D01*
X34223Y-34536D01*
X33941Y-34536D01*
X33941Y-34426D01*
X33941Y-34145D01*
X33941Y-34028D01*
X33941Y-33747D01*
X33941Y-33502D01*
X33941Y-33221D01*
X33941Y-33104D01*
X33941Y-32823D01*
X33906Y-32788D01*
X33776Y-32788D01*
X33749Y-32788D01*
X33722Y-32794D01*
X33697Y-32804D01*
X33675Y-32819D01*
X33656Y-32839D01*
X33641Y-32861D01*
X33630Y-32886D01*
X33625Y-32913D01*
X33625Y-33069D01*
X33660Y-33104D01*
X33941Y-33104D01*
X33941Y-33221D01*
X33660Y-33221D01*
X33625Y-33256D01*
X33625Y-33412D01*
X33630Y-33439D01*
X33641Y-33464D01*
X33656Y-33486D01*
X33675Y-33506D01*
X33697Y-33521D01*
X33722Y-33531D01*
X33749Y-33537D01*
X33776Y-33537D01*
X33906Y-33537D01*
X33941Y-33502D01*
X33941Y-33747D01*
X33906Y-33712D01*
X33776Y-33712D01*
X33749Y-33712D01*
X33722Y-33718D01*
X33697Y-33728D01*
X33675Y-33743D01*
X33656Y-33763D01*
X33641Y-33785D01*
X33630Y-33810D01*
X33625Y-33837D01*
X33625Y-33993D01*
X33660Y-34028D01*
X33941Y-34028D01*
X33941Y-34145D01*
X33660Y-34145D01*
X33625Y-34180D01*
X33625Y-34336D01*
X33630Y-34363D01*
X33641Y-34388D01*
X33656Y-34410D01*
X33675Y-34430D01*
X33697Y-34445D01*
X33722Y-34455D01*
X33749Y-34461D01*
X33776Y-34461D01*
X33906Y-34461D01*
X33941Y-34426D01*
X33941Y-34536D01*
X33750Y-34536D01*
X33723Y-34542D01*
X33697Y-34552D01*
X33675Y-34567D01*
X33655Y-34587D01*
X33640Y-34610D01*
X33629Y-34635D01*
X33624Y-34662D01*
X33623Y-34689D01*
X33578Y-34670D01*
X33527Y-34660D01*
X33475Y-34659D01*
X33424Y-34669D01*
X33416Y-34673D01*
X33376Y-34673D01*
X33376Y-34663D01*
X33374Y-34655D01*
X33374Y-34336D01*
X33374Y-33837D01*
X33374Y-33412D01*
X33374Y-32913D01*
X33369Y-32886D01*
X33358Y-32861D01*
X33343Y-32839D01*
X33324Y-32819D01*
X33302Y-32804D01*
X33277Y-32794D01*
X33250Y-32788D01*
X33223Y-32788D01*
X33093Y-32788D01*
X33058Y-32823D01*
X33058Y-33104D01*
X33339Y-33104D01*
X33374Y-33069D01*
X33374Y-32913D01*
X33374Y-33412D01*
X33374Y-33256D01*
X33339Y-33221D01*
X33058Y-33221D01*
X33058Y-33502D01*
X33093Y-33537D01*
X33223Y-33537D01*
X33250Y-33537D01*
X33277Y-33531D01*
X33302Y-33521D01*
X33324Y-33506D01*
X33343Y-33486D01*
X33358Y-33464D01*
X33369Y-33439D01*
X33374Y-33412D01*
X33374Y-33837D01*
X33369Y-33810D01*
X33358Y-33785D01*
X33343Y-33763D01*
X33324Y-33743D01*
X33302Y-33728D01*
X33277Y-33718D01*
X33250Y-33712D01*
X33223Y-33712D01*
X33093Y-33712D01*
X33058Y-33747D01*
X33058Y-34028D01*
X33339Y-34028D01*
X33374Y-33993D01*
X33374Y-33837D01*
X33374Y-34336D01*
X33374Y-34180D01*
X33339Y-34145D01*
X33058Y-34145D01*
X33058Y-34426D01*
X33093Y-34461D01*
X33223Y-34461D01*
X33250Y-34461D01*
X33277Y-34455D01*
X33302Y-34445D01*
X33324Y-34430D01*
X33343Y-34410D01*
X33358Y-34388D01*
X33369Y-34363D01*
X33374Y-34336D01*
X33374Y-34655D01*
X33370Y-34636D01*
X33360Y-34610D01*
X33345Y-34588D01*
X33325Y-34568D01*
X33302Y-34553D01*
X33277Y-34542D01*
X33250Y-34537D01*
X33223Y-34536D01*
X32941Y-34536D01*
X32941Y-34426D01*
X32941Y-34145D01*
X32941Y-34028D01*
X32941Y-33747D01*
X32941Y-33502D01*
X32941Y-33221D01*
X32941Y-33104D01*
X32941Y-32823D01*
X32906Y-32788D01*
X32776Y-32788D01*
X32749Y-32788D01*
X32722Y-32794D01*
X32697Y-32804D01*
X32675Y-32819D01*
X32656Y-32839D01*
X32641Y-32861D01*
X32630Y-32886D01*
X32625Y-32913D01*
X32625Y-33069D01*
X32660Y-33104D01*
X32941Y-33104D01*
X32941Y-33221D01*
X32660Y-33221D01*
X32625Y-33256D01*
X32625Y-33412D01*
X32630Y-33439D01*
X32641Y-33464D01*
X32656Y-33486D01*
X32675Y-33506D01*
X32697Y-33521D01*
X32722Y-33531D01*
X32749Y-33537D01*
X32776Y-33537D01*
X32906Y-33537D01*
X32941Y-33502D01*
X32941Y-33747D01*
X32906Y-33712D01*
X32776Y-33712D01*
X32749Y-33712D01*
X32722Y-33718D01*
X32697Y-33728D01*
X32675Y-33743D01*
X32656Y-33763D01*
X32641Y-33785D01*
X32630Y-33810D01*
X32625Y-33837D01*
X32625Y-33993D01*
X32660Y-34028D01*
X32941Y-34028D01*
X32941Y-34145D01*
X32660Y-34145D01*
X32625Y-34180D01*
X32625Y-34336D01*
X32630Y-34363D01*
X32641Y-34388D01*
X32656Y-34410D01*
X32675Y-34430D01*
X32697Y-34445D01*
X32722Y-34455D01*
X32749Y-34461D01*
X32776Y-34461D01*
X32906Y-34461D01*
X32941Y-34426D01*
X32941Y-34536D01*
X32750Y-34536D01*
X32723Y-34542D01*
X32697Y-34552D01*
X32675Y-34567D01*
X32655Y-34587D01*
X32640Y-34610D01*
X32629Y-34635D01*
X32624Y-34662D01*
X32623Y-34689D01*
X32578Y-34670D01*
X32527Y-34660D01*
X32475Y-34659D01*
X32424Y-34669D01*
X32416Y-34673D01*
X32376Y-34673D01*
X32376Y-34663D01*
X32374Y-34655D01*
X32374Y-34336D01*
X32374Y-33837D01*
X32374Y-33412D01*
X32374Y-32913D01*
X32369Y-32886D01*
X32358Y-32861D01*
X32343Y-32839D01*
X32324Y-32819D01*
X32302Y-32804D01*
X32277Y-32794D01*
X32250Y-32788D01*
X32223Y-32788D01*
X32093Y-32788D01*
X32058Y-32823D01*
X32058Y-33104D01*
X32339Y-33104D01*
X32374Y-33069D01*
X32374Y-32913D01*
X32374Y-33412D01*
X32374Y-33256D01*
X32339Y-33221D01*
X32058Y-33221D01*
X32058Y-33502D01*
X32093Y-33537D01*
X32223Y-33537D01*
X32250Y-33537D01*
X32277Y-33531D01*
X32302Y-33521D01*
X32324Y-33506D01*
X32343Y-33486D01*
X32358Y-33464D01*
X32369Y-33439D01*
X32374Y-33412D01*
X32374Y-33837D01*
X32369Y-33810D01*
X32358Y-33785D01*
X32343Y-33763D01*
X32324Y-33743D01*
X32302Y-33728D01*
X32277Y-33718D01*
X32250Y-33712D01*
X32223Y-33712D01*
X32093Y-33712D01*
X32058Y-33747D01*
X32058Y-34028D01*
X32339Y-34028D01*
X32374Y-33993D01*
X32374Y-33837D01*
X32374Y-34336D01*
X32374Y-34180D01*
X32339Y-34145D01*
X32058Y-34145D01*
X32058Y-34426D01*
X32093Y-34461D01*
X32223Y-34461D01*
X32250Y-34461D01*
X32277Y-34455D01*
X32302Y-34445D01*
X32324Y-34430D01*
X32343Y-34410D01*
X32358Y-34388D01*
X32369Y-34363D01*
X32374Y-34336D01*
X32374Y-34655D01*
X32370Y-34636D01*
X32360Y-34610D01*
X32345Y-34588D01*
X32325Y-34568D01*
X32302Y-34553D01*
X32277Y-34542D01*
X32250Y-34537D01*
X32223Y-34536D01*
X31941Y-34536D01*
X31941Y-34426D01*
X31941Y-34145D01*
X31941Y-34028D01*
X31941Y-33747D01*
X31941Y-33502D01*
X31941Y-33221D01*
X31941Y-33104D01*
X31941Y-32823D01*
X31906Y-32788D01*
X31776Y-32788D01*
X31749Y-32788D01*
X31722Y-32794D01*
X31697Y-32804D01*
X31675Y-32819D01*
X31656Y-32839D01*
X31641Y-32861D01*
X31630Y-32886D01*
X31625Y-32913D01*
X31625Y-33069D01*
X31660Y-33104D01*
X31941Y-33104D01*
X31941Y-33221D01*
X31660Y-33221D01*
X31625Y-33256D01*
X31625Y-33412D01*
X31630Y-33439D01*
X31641Y-33464D01*
X31656Y-33486D01*
X31675Y-33506D01*
X31697Y-33521D01*
X31722Y-33531D01*
X31749Y-33537D01*
X31776Y-33537D01*
X31906Y-33537D01*
X31941Y-33502D01*
X31941Y-33747D01*
X31906Y-33712D01*
X31776Y-33712D01*
X31749Y-33712D01*
X31722Y-33718D01*
X31697Y-33728D01*
X31675Y-33743D01*
X31656Y-33763D01*
X31641Y-33785D01*
X31630Y-33810D01*
X31625Y-33837D01*
X31625Y-33993D01*
X31660Y-34028D01*
X31941Y-34028D01*
X31941Y-34145D01*
X31660Y-34145D01*
X31625Y-34180D01*
X31625Y-34336D01*
X31630Y-34363D01*
X31641Y-34388D01*
X31656Y-34410D01*
X31675Y-34430D01*
X31697Y-34445D01*
X31722Y-34455D01*
X31749Y-34461D01*
X31776Y-34461D01*
X31906Y-34461D01*
X31941Y-34426D01*
X31941Y-34536D01*
X31750Y-34536D01*
X31723Y-34542D01*
X31697Y-34552D01*
X31675Y-34567D01*
X31655Y-34587D01*
X31640Y-34610D01*
X31629Y-34635D01*
X31624Y-34662D01*
X31623Y-34689D01*
X31623Y-35162D01*
X31629Y-35189D01*
X31639Y-35215D01*
X31654Y-35237D01*
X31674Y-35257D01*
X31697Y-35272D01*
X31722Y-35283D01*
X31749Y-35288D01*
X31776Y-35289D01*
X32249Y-35289D01*
X32276Y-35283D01*
X32302Y-35273D01*
X32324Y-35258D01*
X32344Y-35238D01*
X32359Y-35215D01*
X32370Y-35190D01*
X32375Y-35163D01*
X32375Y-35159D01*
X32417Y-35178D01*
X32468Y-35189D01*
X32520Y-35190D01*
X32571Y-35181D01*
X32620Y-35162D01*
X32623Y-35160D01*
X32623Y-35162D01*
X32629Y-35189D01*
X32639Y-35215D01*
X32654Y-35237D01*
X32674Y-35257D01*
X32697Y-35272D01*
X32722Y-35283D01*
X32749Y-35288D01*
X32776Y-35289D01*
X33249Y-35289D01*
X33276Y-35283D01*
X33302Y-35273D01*
X33324Y-35258D01*
X33344Y-35238D01*
X33359Y-35215D01*
X33370Y-35190D01*
X33375Y-35163D01*
X33375Y-35159D01*
X33417Y-35178D01*
X33468Y-35189D01*
X33520Y-35190D01*
X33571Y-35181D01*
X33620Y-35162D01*
X33623Y-35160D01*
X33623Y-35162D01*
X33629Y-35189D01*
X33639Y-35215D01*
X33654Y-35237D01*
X33674Y-35257D01*
X33697Y-35272D01*
X33722Y-35283D01*
X33749Y-35288D01*
X33776Y-35289D01*
X34249Y-35289D01*
X34276Y-35283D01*
X34302Y-35273D01*
X34324Y-35258D01*
X34344Y-35238D01*
X34359Y-35215D01*
X34370Y-35190D01*
X34374Y-35170D01*
X34392Y-35178D01*
X34443Y-35189D01*
X34495Y-35190D01*
X34546Y-35181D01*
X34595Y-35162D01*
X34623Y-35144D01*
X34623Y-35162D01*
X34629Y-35189D01*
X34639Y-35215D01*
X34654Y-35237D01*
X34674Y-35257D01*
X34697Y-35272D01*
X34722Y-35283D01*
X34749Y-35288D01*
X34776Y-35289D01*
X35249Y-35289D01*
X35276Y-35283D01*
X35302Y-35273D01*
X35324Y-35258D01*
X35344Y-35238D01*
X35359Y-35215D01*
X35370Y-35190D01*
X35375Y-35163D01*
X35375Y-35153D01*
X35442Y-35153D01*
X35442Y-35153D01*
X35493Y-35164D01*
X35545Y-35165D01*
X35596Y-35156D01*
X35623Y-35145D01*
X35623Y-35162D01*
X35629Y-35189D01*
X35639Y-35215D01*
X35654Y-35237D01*
X35674Y-35257D01*
X35697Y-35272D01*
X35722Y-35283D01*
X35749Y-35288D01*
X35776Y-35289D01*
X36249Y-35289D01*
X36276Y-35283D01*
X36302Y-35273D01*
X36324Y-35258D01*
X36344Y-35238D01*
X36359Y-35215D01*
X36370Y-35190D01*
X36375Y-35163D01*
X36375Y-35153D01*
X36417Y-35153D01*
X36417Y-35153D01*
X36468Y-35164D01*
X36520Y-35165D01*
X36571Y-35156D01*
X36620Y-35137D01*
X36623Y-35135D01*
X36623Y-35162D01*
X36629Y-35189D01*
X36639Y-35215D01*
X36654Y-35237D01*
X36674Y-35257D01*
X36697Y-35272D01*
X36722Y-35283D01*
X36749Y-35288D01*
X36776Y-35289D01*
X37249Y-35289D01*
X37276Y-35283D01*
X37302Y-35273D01*
X37324Y-35258D01*
X37344Y-35238D01*
X37359Y-35215D01*
X37370Y-35190D01*
X37375Y-35163D01*
X37375Y-35153D01*
X37442Y-35153D01*
X37442Y-35153D01*
X37493Y-35164D01*
X37545Y-35165D01*
X37596Y-35156D01*
X37623Y-35145D01*
X37623Y-35162D01*
X37629Y-35189D01*
X37639Y-35215D01*
X37654Y-35237D01*
X37674Y-35257D01*
X37697Y-35272D01*
X37722Y-35283D01*
X37749Y-35288D01*
X37776Y-35289D01*
X38249Y-35289D01*
X38276Y-35283D01*
X38302Y-35273D01*
X38324Y-35258D01*
X38344Y-35238D01*
X38359Y-35215D01*
X38370Y-35190D01*
X38375Y-35163D01*
X38375Y-35153D01*
X38417Y-35153D01*
X38417Y-35153D01*
X38468Y-35164D01*
X38520Y-35165D01*
X38571Y-35156D01*
X38620Y-35137D01*
X38623Y-35135D01*
X38623Y-35162D01*
X38629Y-35189D01*
X38639Y-35215D01*
X38654Y-35237D01*
X38674Y-35257D01*
X38697Y-35272D01*
X38722Y-35283D01*
X38749Y-35288D01*
X38776Y-35289D01*
X39249Y-35289D01*
X39276Y-35283D01*
X39302Y-35273D01*
X39324Y-35258D01*
X39344Y-35238D01*
X39359Y-35215D01*
X39370Y-35190D01*
X39375Y-35163D01*
X39375Y-35153D01*
X39467Y-35153D01*
X39467Y-35153D01*
X39518Y-35164D01*
X39570Y-35165D01*
X39621Y-35156D01*
X39670Y-35137D01*
X39713Y-35109D01*
X39751Y-35073D01*
X39781Y-35031D01*
X39802Y-34984D01*
X39814Y-34933D01*
X39815Y-34874D01*
X39815Y-35586D01*
X39711Y-35586D01*
X39684Y-35591D01*
X39659Y-35602D01*
X39637Y-35617D01*
X39617Y-35636D01*
X39602Y-35658D01*
X39592Y-35683D01*
X39586Y-35710D01*
X39586Y-35737D01*
X39586Y-35906D01*
X39621Y-35941D01*
X39941Y-35941D01*
X39941Y-36058D01*
X39621Y-36058D01*
X39586Y-36093D01*
X39586Y-36262D01*
X39586Y-36289D01*
X39592Y-36316D01*
X39602Y-36341D01*
X39617Y-36363D01*
X39637Y-36382D01*
X39659Y-36397D01*
X39684Y-36408D01*
X39711Y-36413D01*
X39906Y-36413D01*
X39941Y-36378D01*
X39941Y-36495D01*
X39415Y-36495D01*
X39415Y-35959D01*
X39399Y-35879D01*
X39368Y-35804D01*
X39323Y-35736D01*
X39265Y-35678D01*
X39198Y-35633D01*
X39123Y-35601D01*
X39043Y-35585D01*
X38962Y-35584D01*
X38882Y-35599D01*
X38806Y-35630D01*
X38738Y-35675D01*
X38680Y-35731D01*
X38634Y-35799D01*
X38602Y-35873D01*
X38585Y-35953D01*
X38584Y-36034D01*
X38599Y-36114D01*
X38629Y-36190D01*
X38673Y-36259D01*
X38729Y-36317D01*
X38796Y-36364D01*
X38871Y-36396D01*
X38950Y-36414D01*
X39031Y-36415D01*
X39112Y-36401D01*
X39188Y-36372D01*
X39256Y-36328D01*
X39315Y-36272D01*
X39362Y-36205D01*
X39395Y-36131D01*
X39413Y-36052D01*
X39415Y-35959D01*
X39415Y-36495D01*
X38415Y-36495D01*
X38415Y-35959D01*
X38399Y-35879D01*
X38368Y-35804D01*
X38323Y-35736D01*
X38265Y-35678D01*
X38198Y-35633D01*
X38123Y-35601D01*
X38043Y-35585D01*
X37962Y-35584D01*
X37882Y-35599D01*
X37806Y-35630D01*
X37738Y-35675D01*
X37680Y-35731D01*
X37634Y-35799D01*
X37602Y-35873D01*
X37585Y-35953D01*
X37584Y-36034D01*
X37599Y-36114D01*
X37629Y-36190D01*
X37673Y-36259D01*
X37729Y-36317D01*
X37796Y-36364D01*
X37871Y-36396D01*
X37950Y-36414D01*
X38031Y-36415D01*
X38112Y-36401D01*
X38188Y-36372D01*
X38256Y-36328D01*
X38315Y-36272D01*
X38362Y-36205D01*
X38395Y-36131D01*
X38413Y-36052D01*
X38415Y-35959D01*
X38415Y-36495D01*
X37415Y-36495D01*
X37415Y-35959D01*
X37399Y-35879D01*
X37368Y-35804D01*
X37323Y-35736D01*
X37265Y-35678D01*
X37198Y-35633D01*
X37123Y-35601D01*
X37043Y-35585D01*
X36962Y-35584D01*
X36882Y-35599D01*
X36806Y-35630D01*
X36738Y-35675D01*
X36680Y-35731D01*
X36634Y-35799D01*
X36602Y-35873D01*
X36585Y-35953D01*
X36584Y-36034D01*
X36599Y-36114D01*
X36629Y-36190D01*
X36673Y-36259D01*
X36729Y-36317D01*
X36796Y-36364D01*
X36871Y-36396D01*
X36950Y-36414D01*
X37031Y-36415D01*
X37112Y-36401D01*
X37188Y-36372D01*
X37256Y-36328D01*
X37315Y-36272D01*
X37362Y-36205D01*
X37395Y-36131D01*
X37413Y-36052D01*
X37415Y-35959D01*
X37415Y-36495D01*
X36415Y-36495D01*
X36415Y-35959D01*
X36399Y-35879D01*
X36368Y-35804D01*
X36323Y-35736D01*
X36265Y-35678D01*
X36198Y-35633D01*
X36123Y-35601D01*
X36043Y-35585D01*
X35962Y-35584D01*
X35882Y-35599D01*
X35806Y-35630D01*
X35738Y-35675D01*
X35680Y-35731D01*
X35634Y-35799D01*
X35602Y-35873D01*
X35585Y-35953D01*
X35584Y-36034D01*
X35599Y-36114D01*
X35629Y-36190D01*
X35673Y-36259D01*
X35729Y-36317D01*
X35796Y-36364D01*
X35871Y-36396D01*
X35950Y-36414D01*
X36031Y-36415D01*
X36112Y-36401D01*
X36188Y-36372D01*
X36256Y-36328D01*
X36315Y-36272D01*
X36362Y-36205D01*
X36395Y-36131D01*
X36413Y-36052D01*
X36415Y-35959D01*
X36415Y-36495D01*
X35415Y-36495D01*
X35415Y-35959D01*
X35399Y-35879D01*
X35368Y-35804D01*
X35323Y-35736D01*
X35265Y-35678D01*
X35198Y-35633D01*
X35123Y-35601D01*
X35043Y-35585D01*
X34962Y-35584D01*
X34882Y-35599D01*
X34806Y-35630D01*
X34738Y-35675D01*
X34680Y-35731D01*
X34634Y-35799D01*
X34602Y-35873D01*
X34585Y-35953D01*
X34584Y-36034D01*
X34599Y-36114D01*
X34629Y-36190D01*
X34673Y-36259D01*
X34729Y-36317D01*
X34796Y-36364D01*
X34871Y-36396D01*
X34950Y-36414D01*
X35031Y-36415D01*
X35112Y-36401D01*
X35188Y-36372D01*
X35256Y-36328D01*
X35315Y-36272D01*
X35362Y-36205D01*
X35395Y-36131D01*
X35413Y-36052D01*
X35415Y-35959D01*
X35415Y-36495D01*
X34415Y-36495D01*
X34415Y-35959D01*
X34399Y-35879D01*
X34368Y-35804D01*
X34323Y-35736D01*
X34265Y-35678D01*
X34198Y-35633D01*
X34123Y-35601D01*
X34043Y-35585D01*
X33962Y-35584D01*
X33882Y-35599D01*
X33806Y-35630D01*
X33738Y-35675D01*
X33680Y-35731D01*
X33634Y-35799D01*
X33602Y-35873D01*
X33585Y-35953D01*
X33584Y-36034D01*
X33599Y-36114D01*
X33629Y-36190D01*
X33673Y-36259D01*
X33729Y-36317D01*
X33796Y-36364D01*
X33871Y-36396D01*
X33950Y-36414D01*
X34031Y-36415D01*
X34112Y-36401D01*
X34188Y-36372D01*
X34256Y-36328D01*
X34315Y-36272D01*
X34362Y-36205D01*
X34395Y-36131D01*
X34413Y-36052D01*
X34415Y-35959D01*
X34415Y-36495D01*
X33415Y-36495D01*
X33415Y-35959D01*
X33399Y-35879D01*
X33368Y-35804D01*
X33323Y-35736D01*
X33265Y-35678D01*
X33198Y-35633D01*
X33123Y-35601D01*
X33043Y-35585D01*
X32962Y-35584D01*
X32882Y-35599D01*
X32806Y-35630D01*
X32738Y-35675D01*
X32680Y-35731D01*
X32634Y-35799D01*
X32602Y-35873D01*
X32585Y-35953D01*
X32584Y-36034D01*
X32599Y-36114D01*
X32629Y-36190D01*
X32673Y-36259D01*
X32729Y-36317D01*
X32796Y-36364D01*
X32871Y-36396D01*
X32950Y-36414D01*
X33031Y-36415D01*
X33112Y-36401D01*
X33188Y-36372D01*
X33256Y-36328D01*
X33315Y-36272D01*
X33362Y-36205D01*
X33395Y-36131D01*
X33413Y-36052D01*
X33415Y-35959D01*
X33415Y-36495D01*
X32415Y-36495D01*
X32415Y-35959D01*
X32399Y-35879D01*
X32368Y-35804D01*
X32323Y-35736D01*
X32265Y-35678D01*
X32198Y-35633D01*
X32123Y-35601D01*
X32043Y-35585D01*
X31962Y-35584D01*
X31882Y-35599D01*
X31806Y-35630D01*
X31738Y-35675D01*
X31680Y-35731D01*
X31634Y-35799D01*
X31602Y-35873D01*
X31585Y-35953D01*
X31584Y-36034D01*
X31599Y-36114D01*
X31629Y-36190D01*
X31673Y-36259D01*
X31729Y-36317D01*
X31796Y-36364D01*
X31871Y-36396D01*
X31950Y-36414D01*
X32031Y-36415D01*
X32112Y-36401D01*
X32188Y-36372D01*
X32256Y-36328D01*
X32315Y-36272D01*
X32362Y-36205D01*
X32395Y-36131D01*
X32413Y-36052D01*
X32415Y-35959D01*
X32415Y-36495D01*
X31496Y-36495D01*
X31496Y-31949D01*
X40471Y-31949D01*
X40471Y-36495D01*
X40471Y-36495D01*
G37*
G54D16*
X40471Y-36495D02*
X40413Y-36495D01*
X40413Y-36262D01*
X40413Y-35737D01*
X40413Y-35710D01*
X40407Y-35683D01*
X40397Y-35658D01*
X40382Y-35636D01*
X40362Y-35617D01*
X40340Y-35602D01*
X40315Y-35591D01*
X40288Y-35586D01*
X40093Y-35586D01*
X40058Y-35621D01*
X40058Y-35941D01*
X40378Y-35941D01*
X40413Y-35906D01*
X40413Y-35737D01*
X40413Y-36262D01*
X40413Y-36093D01*
X40378Y-36058D01*
X40058Y-36058D01*
X40058Y-36378D01*
X40093Y-36413D01*
X40288Y-36413D01*
X40315Y-36408D01*
X40340Y-36397D01*
X40362Y-36382D01*
X40382Y-36363D01*
X40397Y-36341D01*
X40407Y-36316D01*
X40413Y-36289D01*
X40413Y-36262D01*
X40413Y-36495D01*
X39941Y-36495D01*
X39941Y-36378D01*
X39941Y-36058D01*
X39941Y-35941D01*
X39941Y-35621D01*
X39906Y-35586D01*
X39815Y-35586D01*
X39815Y-34874D01*
X39815Y-32299D01*
X39804Y-32248D01*
X39785Y-32199D01*
X39756Y-32156D01*
X39719Y-32119D01*
X39676Y-32090D01*
X39628Y-32070D01*
X39577Y-32060D01*
X39525Y-32059D01*
X39474Y-32069D01*
X39426Y-32089D01*
X39414Y-32097D01*
X39376Y-32097D01*
X39376Y-32087D01*
X39370Y-32060D01*
X39360Y-32034D01*
X39345Y-32012D01*
X39325Y-31992D01*
X39302Y-31977D01*
X39277Y-31966D01*
X39250Y-31961D01*
X39223Y-31960D01*
X38750Y-31960D01*
X38723Y-31966D01*
X38697Y-31976D01*
X38675Y-31991D01*
X38655Y-32011D01*
X38640Y-32034D01*
X38629Y-32059D01*
X38624Y-32086D01*
X38623Y-32113D01*
X38623Y-32114D01*
X38578Y-32095D01*
X38527Y-32085D01*
X38475Y-32084D01*
X38424Y-32094D01*
X38418Y-32097D01*
X38376Y-32097D01*
X38376Y-32087D01*
X38370Y-32060D01*
X38360Y-32034D01*
X38345Y-32012D01*
X38325Y-31992D01*
X38302Y-31977D01*
X38277Y-31966D01*
X38250Y-31961D01*
X38223Y-31960D01*
X37750Y-31960D01*
X37723Y-31966D01*
X37697Y-31976D01*
X37675Y-31991D01*
X37655Y-32011D01*
X37640Y-32034D01*
X37629Y-32059D01*
X37625Y-32079D01*
X37603Y-32070D01*
X37552Y-32060D01*
X37500Y-32059D01*
X37449Y-32069D01*
X37401Y-32089D01*
X37389Y-32097D01*
X37376Y-32097D01*
X37376Y-32087D01*
X37370Y-32060D01*
X37360Y-32034D01*
X37345Y-32012D01*
X37325Y-31992D01*
X37302Y-31977D01*
X37277Y-31966D01*
X37250Y-31961D01*
X37223Y-31960D01*
X36750Y-31960D01*
X36723Y-31966D01*
X36697Y-31976D01*
X36675Y-31991D01*
X36655Y-32011D01*
X36640Y-32034D01*
X36629Y-32059D01*
X36624Y-32086D01*
X36624Y-32089D01*
X36578Y-32070D01*
X36527Y-32060D01*
X36475Y-32059D01*
X36424Y-32069D01*
X36376Y-32089D01*
X36376Y-32089D01*
X36376Y-32087D01*
X36370Y-32060D01*
X36360Y-32034D01*
X36345Y-32012D01*
X36325Y-31992D01*
X36302Y-31977D01*
X36277Y-31966D01*
X36250Y-31961D01*
X36223Y-31960D01*
X35750Y-31960D01*
X35723Y-31966D01*
X35697Y-31976D01*
X35675Y-31991D01*
X35655Y-32011D01*
X35640Y-32034D01*
X35629Y-32059D01*
X35625Y-32079D01*
X35603Y-32070D01*
X35552Y-32060D01*
X35500Y-32059D01*
X35449Y-32069D01*
X35401Y-32089D01*
X35389Y-32097D01*
X35376Y-32097D01*
X35376Y-32087D01*
X35370Y-32060D01*
X35360Y-32034D01*
X35345Y-32012D01*
X35325Y-31992D01*
X35302Y-31977D01*
X35277Y-31966D01*
X35250Y-31961D01*
X35223Y-31960D01*
X34750Y-31960D01*
X34723Y-31966D01*
X34697Y-31976D01*
X34675Y-31991D01*
X34655Y-32011D01*
X34640Y-32034D01*
X34629Y-32059D01*
X34624Y-32086D01*
X34623Y-32105D01*
X34601Y-32090D01*
X34553Y-32070D01*
X34502Y-32060D01*
X34450Y-32059D01*
X34399Y-32069D01*
X34374Y-32079D01*
X34370Y-32060D01*
X34360Y-32034D01*
X34345Y-32012D01*
X34325Y-31992D01*
X34302Y-31977D01*
X34277Y-31966D01*
X34250Y-31961D01*
X34223Y-31960D01*
X33750Y-31960D01*
X33723Y-31966D01*
X33697Y-31976D01*
X33675Y-31991D01*
X33655Y-32011D01*
X33640Y-32034D01*
X33629Y-32059D01*
X33624Y-32086D01*
X33624Y-32089D01*
X33578Y-32070D01*
X33527Y-32060D01*
X33475Y-32059D01*
X33424Y-32069D01*
X33376Y-32089D01*
X33376Y-32089D01*
X33376Y-32087D01*
X33370Y-32060D01*
X33360Y-32034D01*
X33345Y-32012D01*
X33325Y-31992D01*
X33302Y-31977D01*
X33277Y-31966D01*
X33250Y-31961D01*
X33223Y-31960D01*
X32750Y-31960D01*
X32723Y-31966D01*
X32697Y-31976D01*
X32675Y-31991D01*
X32655Y-32011D01*
X32640Y-32034D01*
X32629Y-32059D01*
X32624Y-32086D01*
X32623Y-32113D01*
X32623Y-32114D01*
X32578Y-32095D01*
X32527Y-32085D01*
X32475Y-32084D01*
X32424Y-32094D01*
X32418Y-32097D01*
X32376Y-32097D01*
X32376Y-32087D01*
X32370Y-32060D01*
X32360Y-32034D01*
X32345Y-32012D01*
X32325Y-31992D01*
X32302Y-31977D01*
X32277Y-31966D01*
X32250Y-31961D01*
X32223Y-31960D01*
X31750Y-31960D01*
X31723Y-31966D01*
X31697Y-31976D01*
X31675Y-31991D01*
X31655Y-32011D01*
X31640Y-32034D01*
X31629Y-32059D01*
X31624Y-32086D01*
X31623Y-32113D01*
X31623Y-32586D01*
X31629Y-32613D01*
X31639Y-32639D01*
X31654Y-32661D01*
X31674Y-32681D01*
X31697Y-32696D01*
X31722Y-32707D01*
X31749Y-32712D01*
X31776Y-32713D01*
X32249Y-32713D01*
X32276Y-32707D01*
X32302Y-32697D01*
X32324Y-32682D01*
X32344Y-32662D01*
X32359Y-32639D01*
X32370Y-32614D01*
X32375Y-32587D01*
X32375Y-32584D01*
X32417Y-32603D01*
X32468Y-32614D01*
X32520Y-32615D01*
X32571Y-32606D01*
X32620Y-32587D01*
X32623Y-32585D01*
X32623Y-32586D01*
X32629Y-32613D01*
X32639Y-32639D01*
X32654Y-32661D01*
X32674Y-32681D01*
X32697Y-32696D01*
X32722Y-32707D01*
X32749Y-32712D01*
X32776Y-32713D01*
X33249Y-32713D01*
X33276Y-32707D01*
X33302Y-32697D01*
X33324Y-32682D01*
X33344Y-32662D01*
X33359Y-32639D01*
X33370Y-32614D01*
X33375Y-32587D01*
X33375Y-32577D01*
X33414Y-32577D01*
X33417Y-32578D01*
X33468Y-32589D01*
X33520Y-32590D01*
X33571Y-32581D01*
X33620Y-32562D01*
X33623Y-32560D01*
X33623Y-32586D01*
X33629Y-32613D01*
X33639Y-32639D01*
X33654Y-32661D01*
X33674Y-32681D01*
X33697Y-32696D01*
X33722Y-32707D01*
X33749Y-32712D01*
X33776Y-32713D01*
X34249Y-32713D01*
X34276Y-32707D01*
X34302Y-32697D01*
X34324Y-32682D01*
X34344Y-32662D01*
X34359Y-32639D01*
X34370Y-32614D01*
X34375Y-32587D01*
X34375Y-32577D01*
X34389Y-32577D01*
X34392Y-32578D01*
X34443Y-32589D01*
X34495Y-32590D01*
X34546Y-32581D01*
X34595Y-32562D01*
X34623Y-32544D01*
X34623Y-32586D01*
X34629Y-32613D01*
X34639Y-32639D01*
X34654Y-32661D01*
X34674Y-32681D01*
X34697Y-32696D01*
X34722Y-32707D01*
X34749Y-32712D01*
X34776Y-32713D01*
X35249Y-32713D01*
X35276Y-32707D01*
X35302Y-32697D01*
X35324Y-32682D01*
X35344Y-32662D01*
X35359Y-32639D01*
X35370Y-32614D01*
X35375Y-32587D01*
X35375Y-32577D01*
X35439Y-32577D01*
X35442Y-32578D01*
X35493Y-32589D01*
X35545Y-32590D01*
X35596Y-32581D01*
X35623Y-32570D01*
X35623Y-32586D01*
X35629Y-32613D01*
X35639Y-32639D01*
X35654Y-32661D01*
X35674Y-32681D01*
X35697Y-32696D01*
X35722Y-32707D01*
X35749Y-32712D01*
X35776Y-32713D01*
X36249Y-32713D01*
X36276Y-32707D01*
X36302Y-32697D01*
X36324Y-32682D01*
X36344Y-32662D01*
X36359Y-32639D01*
X36370Y-32614D01*
X36375Y-32587D01*
X36375Y-32577D01*
X36414Y-32577D01*
X36417Y-32578D01*
X36468Y-32589D01*
X36520Y-32590D01*
X36571Y-32581D01*
X36620Y-32562D01*
X36623Y-32560D01*
X36623Y-32586D01*
X36629Y-32613D01*
X36639Y-32639D01*
X36654Y-32661D01*
X36674Y-32681D01*
X36697Y-32696D01*
X36722Y-32707D01*
X36749Y-32712D01*
X36776Y-32713D01*
X37249Y-32713D01*
X37276Y-32707D01*
X37302Y-32697D01*
X37324Y-32682D01*
X37344Y-32662D01*
X37359Y-32639D01*
X37370Y-32614D01*
X37375Y-32587D01*
X37375Y-32577D01*
X37439Y-32577D01*
X37442Y-32578D01*
X37493Y-32589D01*
X37545Y-32590D01*
X37596Y-32581D01*
X37623Y-32570D01*
X37623Y-32586D01*
X37629Y-32613D01*
X37639Y-32639D01*
X37654Y-32661D01*
X37674Y-32681D01*
X37697Y-32696D01*
X37722Y-32707D01*
X37749Y-32712D01*
X37776Y-32713D01*
X38249Y-32713D01*
X38276Y-32707D01*
X38302Y-32697D01*
X38324Y-32682D01*
X38344Y-32662D01*
X38359Y-32639D01*
X38370Y-32614D01*
X38375Y-32587D01*
X38375Y-32584D01*
X38417Y-32603D01*
X38468Y-32614D01*
X38520Y-32615D01*
X38571Y-32606D01*
X38620Y-32587D01*
X38623Y-32585D01*
X38623Y-32586D01*
X38629Y-32613D01*
X38639Y-32639D01*
X38654Y-32661D01*
X38674Y-32681D01*
X38697Y-32696D01*
X38722Y-32707D01*
X38749Y-32712D01*
X38776Y-32713D01*
X39249Y-32713D01*
X39276Y-32707D01*
X39302Y-32697D01*
X39324Y-32682D01*
X39344Y-32662D01*
X39359Y-32639D01*
X39370Y-32614D01*
X39375Y-32587D01*
X39375Y-32577D01*
X39464Y-32577D01*
X39467Y-32578D01*
X39518Y-32589D01*
X39570Y-32590D01*
X39621Y-32581D01*
X39670Y-32562D01*
X39713Y-32534D01*
X39751Y-32498D01*
X39781Y-32456D01*
X39802Y-32409D01*
X39814Y-32358D01*
X39815Y-32299D01*
X39815Y-34874D01*
X39804Y-34823D01*
X39785Y-34774D01*
X39756Y-34731D01*
X39719Y-34694D01*
X39676Y-34665D01*
X39628Y-34645D01*
X39577Y-34635D01*
X39525Y-34634D01*
X39474Y-34644D01*
X39426Y-34664D01*
X39412Y-34673D01*
X39376Y-34673D01*
X39376Y-34663D01*
X39374Y-34655D01*
X39374Y-34336D01*
X39374Y-33837D01*
X39374Y-33412D01*
X39374Y-32913D01*
X39369Y-32886D01*
X39358Y-32861D01*
X39343Y-32839D01*
X39324Y-32819D01*
X39302Y-32804D01*
X39277Y-32794D01*
X39250Y-32788D01*
X39223Y-32788D01*
X39093Y-32788D01*
X39058Y-32823D01*
X39058Y-33104D01*
X39339Y-33104D01*
X39374Y-33069D01*
X39374Y-32913D01*
X39374Y-33412D01*
X39374Y-33256D01*
X39339Y-33221D01*
X39058Y-33221D01*
X39058Y-33502D01*
X39093Y-33537D01*
X39223Y-33537D01*
X39250Y-33537D01*
X39277Y-33531D01*
X39302Y-33521D01*
X39324Y-33506D01*
X39343Y-33486D01*
X39358Y-33464D01*
X39369Y-33439D01*
X39374Y-33412D01*
X39374Y-33837D01*
X39369Y-33810D01*
X39358Y-33785D01*
X39343Y-33763D01*
X39324Y-33743D01*
X39302Y-33728D01*
X39277Y-33718D01*
X39250Y-33712D01*
X39223Y-33712D01*
X39093Y-33712D01*
X39058Y-33747D01*
X39058Y-34028D01*
X39339Y-34028D01*
X39374Y-33993D01*
X39374Y-33837D01*
X39374Y-34336D01*
X39374Y-34180D01*
X39339Y-34145D01*
X39058Y-34145D01*
X39058Y-34426D01*
X39093Y-34461D01*
X39223Y-34461D01*
X39250Y-34461D01*
X39277Y-34455D01*
X39302Y-34445D01*
X39324Y-34430D01*
X39343Y-34410D01*
X39358Y-34388D01*
X39369Y-34363D01*
X39374Y-34336D01*
X39374Y-34655D01*
X39370Y-34636D01*
X39360Y-34610D01*
X39345Y-34588D01*
X39325Y-34568D01*
X39302Y-34553D01*
X39277Y-34542D01*
X39250Y-34537D01*
X39223Y-34536D01*
X38941Y-34536D01*
X38941Y-34426D01*
X38941Y-34145D01*
X38941Y-34028D01*
X38941Y-33747D01*
X38941Y-33502D01*
X38941Y-33221D01*
X38941Y-33104D01*
X38941Y-32823D01*
X38906Y-32788D01*
X38776Y-32788D01*
X38749Y-32788D01*
X38722Y-32794D01*
X38697Y-32804D01*
X38675Y-32819D01*
X38656Y-32839D01*
X38641Y-32861D01*
X38630Y-32886D01*
X38625Y-32913D01*
X38625Y-33069D01*
X38660Y-33104D01*
X38941Y-33104D01*
X38941Y-33221D01*
X38660Y-33221D01*
X38625Y-33256D01*
X38625Y-33412D01*
X38630Y-33439D01*
X38641Y-33464D01*
X38656Y-33486D01*
X38675Y-33506D01*
X38697Y-33521D01*
X38722Y-33531D01*
X38749Y-33537D01*
X38776Y-33537D01*
X38906Y-33537D01*
X38941Y-33502D01*
X38941Y-33747D01*
X38906Y-33712D01*
X38776Y-33712D01*
X38749Y-33712D01*
X38722Y-33718D01*
X38697Y-33728D01*
X38675Y-33743D01*
X38656Y-33763D01*
X38641Y-33785D01*
X38630Y-33810D01*
X38625Y-33837D01*
X38625Y-33993D01*
X38660Y-34028D01*
X38941Y-34028D01*
X38941Y-34145D01*
X38660Y-34145D01*
X38625Y-34180D01*
X38625Y-34336D01*
X38630Y-34363D01*
X38641Y-34388D01*
X38656Y-34410D01*
X38675Y-34430D01*
X38697Y-34445D01*
X38722Y-34455D01*
X38749Y-34461D01*
X38776Y-34461D01*
X38906Y-34461D01*
X38941Y-34426D01*
X38941Y-34536D01*
X38750Y-34536D01*
X38723Y-34542D01*
X38697Y-34552D01*
X38675Y-34567D01*
X38655Y-34587D01*
X38640Y-34610D01*
X38629Y-34635D01*
X38624Y-34662D01*
X38624Y-34664D01*
X38578Y-34645D01*
X38527Y-34635D01*
X38475Y-34634D01*
X38424Y-34644D01*
X38376Y-34664D01*
X38376Y-34664D01*
X38376Y-34663D01*
X38374Y-34655D01*
X38374Y-34336D01*
X38374Y-33837D01*
X38374Y-33412D01*
X38374Y-32913D01*
X38369Y-32886D01*
X38358Y-32861D01*
X38343Y-32839D01*
X38324Y-32819D01*
X38302Y-32804D01*
X38277Y-32794D01*
X38250Y-32788D01*
X38223Y-32788D01*
X38093Y-32788D01*
X38058Y-32823D01*
X38058Y-33104D01*
X38339Y-33104D01*
X38374Y-33069D01*
X38374Y-32913D01*
X38374Y-33412D01*
X38374Y-33256D01*
X38339Y-33221D01*
X38058Y-33221D01*
X38058Y-33502D01*
X38093Y-33537D01*
X38223Y-33537D01*
X38250Y-33537D01*
X38277Y-33531D01*
X38302Y-33521D01*
X38324Y-33506D01*
X38343Y-33486D01*
X38358Y-33464D01*
X38369Y-33439D01*
X38374Y-33412D01*
X38374Y-33837D01*
X38369Y-33810D01*
X38358Y-33785D01*
X38343Y-33763D01*
X38324Y-33743D01*
X38302Y-33728D01*
X38277Y-33718D01*
X38250Y-33712D01*
X38223Y-33712D01*
X38093Y-33712D01*
X38058Y-33747D01*
X38058Y-34028D01*
X38339Y-34028D01*
X38374Y-33993D01*
X38374Y-33837D01*
X38374Y-34336D01*
X38374Y-34180D01*
X38339Y-34145D01*
X38058Y-34145D01*
X38058Y-34426D01*
X38093Y-34461D01*
X38223Y-34461D01*
X38250Y-34461D01*
X38277Y-34455D01*
X38302Y-34445D01*
X38324Y-34430D01*
X38343Y-34410D01*
X38358Y-34388D01*
X38369Y-34363D01*
X38374Y-34336D01*
X38374Y-34655D01*
X38370Y-34636D01*
X38360Y-34610D01*
X38345Y-34588D01*
X38325Y-34568D01*
X38302Y-34553D01*
X38277Y-34542D01*
X38250Y-34537D01*
X38223Y-34536D01*
X37941Y-34536D01*
X37941Y-34426D01*
X37941Y-34145D01*
X37941Y-34028D01*
X37941Y-33747D01*
X37941Y-33502D01*
X37941Y-33221D01*
X37941Y-33104D01*
X37941Y-32823D01*
X37906Y-32788D01*
X37776Y-32788D01*
X37749Y-32788D01*
X37722Y-32794D01*
X37697Y-32804D01*
X37675Y-32819D01*
X37656Y-32839D01*
X37641Y-32861D01*
X37630Y-32886D01*
X37625Y-32913D01*
X37625Y-33069D01*
X37660Y-33104D01*
X37941Y-33104D01*
X37941Y-33221D01*
X37660Y-33221D01*
X37625Y-33256D01*
X37625Y-33412D01*
X37630Y-33439D01*
X37641Y-33464D01*
X37656Y-33486D01*
X37675Y-33506D01*
X37697Y-33521D01*
X37722Y-33531D01*
X37749Y-33537D01*
X37776Y-33537D01*
X37906Y-33537D01*
X37941Y-33502D01*
X37941Y-33747D01*
X37906Y-33712D01*
X37776Y-33712D01*
X37749Y-33712D01*
X37722Y-33718D01*
X37697Y-33728D01*
X37675Y-33743D01*
X37656Y-33763D01*
X37641Y-33785D01*
X37630Y-33810D01*
X37625Y-33837D01*
X37625Y-33993D01*
X37660Y-34028D01*
X37941Y-34028D01*
X37941Y-34145D01*
X37660Y-34145D01*
X37625Y-34180D01*
X37625Y-34336D01*
X37630Y-34363D01*
X37641Y-34388D01*
X37656Y-34410D01*
X37675Y-34430D01*
X37697Y-34445D01*
X37722Y-34455D01*
X37749Y-34461D01*
X37776Y-34461D01*
X37906Y-34461D01*
X37941Y-34426D01*
X37941Y-34536D01*
X37750Y-34536D01*
X37723Y-34542D01*
X37697Y-34552D01*
X37675Y-34567D01*
X37655Y-34587D01*
X37640Y-34610D01*
X37629Y-34635D01*
X37625Y-34654D01*
X37603Y-34645D01*
X37552Y-34635D01*
X37500Y-34634D01*
X37449Y-34644D01*
X37401Y-34664D01*
X37387Y-34673D01*
X37376Y-34673D01*
X37376Y-34663D01*
X37374Y-34655D01*
X37374Y-34336D01*
X37374Y-33837D01*
X37374Y-33412D01*
X37374Y-32913D01*
X37369Y-32886D01*
X37358Y-32861D01*
X37343Y-32839D01*
X37324Y-32819D01*
X37302Y-32804D01*
X37277Y-32794D01*
X37250Y-32788D01*
X37223Y-32788D01*
X37093Y-32788D01*
X37058Y-32823D01*
X37058Y-33104D01*
X37339Y-33104D01*
X37374Y-33069D01*
X37374Y-32913D01*
X37374Y-33412D01*
X37374Y-33256D01*
X37339Y-33221D01*
X37058Y-33221D01*
X37058Y-33502D01*
X37093Y-33537D01*
X37223Y-33537D01*
X37250Y-33537D01*
X37277Y-33531D01*
X37302Y-33521D01*
X37324Y-33506D01*
X37343Y-33486D01*
X37358Y-33464D01*
X37369Y-33439D01*
X37374Y-33412D01*
X37374Y-33837D01*
X37369Y-33810D01*
X37358Y-33785D01*
X37343Y-33763D01*
X37324Y-33743D01*
X37302Y-33728D01*
X37277Y-33718D01*
X37250Y-33712D01*
X37223Y-33712D01*
X37093Y-33712D01*
X37058Y-33747D01*
X37058Y-34028D01*
X37339Y-34028D01*
X37374Y-33993D01*
X37374Y-33837D01*
X37374Y-34336D01*
X37374Y-34180D01*
X37339Y-34145D01*
X37058Y-34145D01*
X37058Y-34426D01*
X37093Y-34461D01*
X37223Y-34461D01*
X37250Y-34461D01*
X37277Y-34455D01*
X37302Y-34445D01*
X37324Y-34430D01*
X37343Y-34410D01*
X37358Y-34388D01*
X37369Y-34363D01*
X37374Y-34336D01*
X37374Y-34655D01*
X37370Y-34636D01*
X37360Y-34610D01*
X37345Y-34588D01*
X37325Y-34568D01*
X37302Y-34553D01*
X37277Y-34542D01*
X37250Y-34537D01*
X37223Y-34536D01*
X36941Y-34536D01*
X36941Y-34426D01*
X36941Y-34145D01*
X36941Y-34028D01*
X36941Y-33747D01*
X36941Y-33502D01*
X36941Y-33221D01*
X36941Y-33104D01*
X36941Y-32823D01*
X36906Y-32788D01*
X36776Y-32788D01*
X36749Y-32788D01*
X36722Y-32794D01*
X36697Y-32804D01*
X36675Y-32819D01*
X36656Y-32839D01*
X36641Y-32861D01*
X36630Y-32886D01*
X36625Y-32913D01*
X36625Y-33069D01*
X36660Y-33104D01*
X36941Y-33104D01*
X36941Y-33221D01*
X36660Y-33221D01*
X36625Y-33256D01*
X36625Y-33412D01*
X36630Y-33439D01*
X36641Y-33464D01*
X36656Y-33486D01*
X36675Y-33506D01*
X36697Y-33521D01*
X36722Y-33531D01*
X36749Y-33537D01*
X36776Y-33537D01*
X36906Y-33537D01*
X36941Y-33502D01*
X36941Y-33747D01*
X36906Y-33712D01*
X36776Y-33712D01*
X36749Y-33712D01*
X36722Y-33718D01*
X36697Y-33728D01*
X36675Y-33743D01*
X36656Y-33763D01*
X36641Y-33785D01*
X36630Y-33810D01*
X36625Y-33837D01*
X36625Y-33993D01*
X36660Y-34028D01*
X36941Y-34028D01*
X36941Y-34145D01*
X36660Y-34145D01*
X36625Y-34180D01*
X36625Y-34336D01*
X36630Y-34363D01*
X36641Y-34388D01*
X36656Y-34410D01*
X36675Y-34430D01*
X36697Y-34445D01*
X36722Y-34455D01*
X36749Y-34461D01*
X36776Y-34461D01*
X36906Y-34461D01*
X36941Y-34426D01*
X36941Y-34536D01*
X36750Y-34536D01*
X36723Y-34542D01*
X36697Y-34552D01*
X36675Y-34567D01*
X36655Y-34587D01*
X36640Y-34610D01*
X36629Y-34635D01*
X36624Y-34662D01*
X36624Y-34664D01*
X36578Y-34645D01*
X36527Y-34635D01*
X36475Y-34634D01*
X36424Y-34644D01*
X36376Y-34664D01*
X36376Y-34664D01*
X36376Y-34663D01*
X36374Y-34655D01*
X36374Y-34336D01*
X36374Y-33837D01*
X36374Y-33412D01*
X36374Y-32913D01*
X36369Y-32886D01*
X36358Y-32861D01*
X36343Y-32839D01*
X36324Y-32819D01*
X36302Y-32804D01*
X36277Y-32794D01*
X36250Y-32788D01*
X36223Y-32788D01*
X36093Y-32788D01*
X36058Y-32823D01*
X36058Y-33104D01*
X36339Y-33104D01*
X36374Y-33069D01*
X36374Y-32913D01*
X36374Y-33412D01*
X36374Y-33256D01*
X36339Y-33221D01*
X36058Y-33221D01*
X36058Y-33502D01*
X36093Y-33537D01*
X36223Y-33537D01*
X36250Y-33537D01*
X36277Y-33531D01*
X36302Y-33521D01*
X36324Y-33506D01*
X36343Y-33486D01*
X36358Y-33464D01*
X36369Y-33439D01*
X36374Y-33412D01*
X36374Y-33837D01*
X36369Y-33810D01*
X36358Y-33785D01*
X36343Y-33763D01*
X36324Y-33743D01*
X36302Y-33728D01*
X36277Y-33718D01*
X36250Y-33712D01*
X36223Y-33712D01*
X36093Y-33712D01*
X36058Y-33747D01*
X36058Y-34028D01*
X36339Y-34028D01*
X36374Y-33993D01*
X36374Y-33837D01*
X36374Y-34336D01*
X36374Y-34180D01*
X36339Y-34145D01*
X36058Y-34145D01*
X36058Y-34426D01*
X36093Y-34461D01*
X36223Y-34461D01*
X36250Y-34461D01*
X36277Y-34455D01*
X36302Y-34445D01*
X36324Y-34430D01*
X36343Y-34410D01*
X36358Y-34388D01*
X36369Y-34363D01*
X36374Y-34336D01*
X36374Y-34655D01*
X36370Y-34636D01*
X36360Y-34610D01*
X36345Y-34588D01*
X36325Y-34568D01*
X36302Y-34553D01*
X36277Y-34542D01*
X36250Y-34537D01*
X36223Y-34536D01*
X35941Y-34536D01*
X35941Y-34426D01*
X35941Y-34145D01*
X35941Y-34028D01*
X35941Y-33747D01*
X35941Y-33502D01*
X35941Y-33221D01*
X35941Y-33104D01*
X35941Y-32823D01*
X35906Y-32788D01*
X35776Y-32788D01*
X35749Y-32788D01*
X35722Y-32794D01*
X35697Y-32804D01*
X35675Y-32819D01*
X35656Y-32839D01*
X35641Y-32861D01*
X35630Y-32886D01*
X35625Y-32913D01*
X35625Y-33069D01*
X35660Y-33104D01*
X35941Y-33104D01*
X35941Y-33221D01*
X35660Y-33221D01*
X35625Y-33256D01*
X35625Y-33412D01*
X35630Y-33439D01*
X35641Y-33464D01*
X35656Y-33486D01*
X35675Y-33506D01*
X35697Y-33521D01*
X35722Y-33531D01*
X35749Y-33537D01*
X35776Y-33537D01*
X35906Y-33537D01*
X35941Y-33502D01*
X35941Y-33747D01*
X35906Y-33712D01*
X35776Y-33712D01*
X35749Y-33712D01*
X35722Y-33718D01*
X35697Y-33728D01*
X35675Y-33743D01*
X35656Y-33763D01*
X35641Y-33785D01*
X35630Y-33810D01*
X35625Y-33837D01*
X35625Y-33993D01*
X35660Y-34028D01*
X35941Y-34028D01*
X35941Y-34145D01*
X35660Y-34145D01*
X35625Y-34180D01*
X35625Y-34336D01*
X35630Y-34363D01*
X35641Y-34388D01*
X35656Y-34410D01*
X35675Y-34430D01*
X35697Y-34445D01*
X35722Y-34455D01*
X35749Y-34461D01*
X35776Y-34461D01*
X35906Y-34461D01*
X35941Y-34426D01*
X35941Y-34536D01*
X35750Y-34536D01*
X35723Y-34542D01*
X35697Y-34552D01*
X35675Y-34567D01*
X35655Y-34587D01*
X35640Y-34610D01*
X35629Y-34635D01*
X35625Y-34654D01*
X35603Y-34645D01*
X35552Y-34635D01*
X35500Y-34634D01*
X35449Y-34644D01*
X35401Y-34664D01*
X35387Y-34673D01*
X35376Y-34673D01*
X35376Y-34663D01*
X35374Y-34655D01*
X35374Y-34336D01*
X35374Y-33837D01*
X35374Y-33412D01*
X35374Y-32913D01*
X35369Y-32886D01*
X35358Y-32861D01*
X35343Y-32839D01*
X35324Y-32819D01*
X35302Y-32804D01*
X35277Y-32794D01*
X35250Y-32788D01*
X35223Y-32788D01*
X35093Y-32788D01*
X35058Y-32823D01*
X35058Y-33104D01*
X35339Y-33104D01*
X35374Y-33069D01*
X35374Y-32913D01*
X35374Y-33412D01*
X35374Y-33256D01*
X35339Y-33221D01*
X35058Y-33221D01*
X35058Y-33502D01*
X35093Y-33537D01*
X35223Y-33537D01*
X35250Y-33537D01*
X35277Y-33531D01*
X35302Y-33521D01*
X35324Y-33506D01*
X35343Y-33486D01*
X35358Y-33464D01*
X35369Y-33439D01*
X35374Y-33412D01*
X35374Y-33837D01*
X35369Y-33810D01*
X35358Y-33785D01*
X35343Y-33763D01*
X35324Y-33743D01*
X35302Y-33728D01*
X35277Y-33718D01*
X35250Y-33712D01*
X35223Y-33712D01*
X35093Y-33712D01*
X35058Y-33747D01*
X35058Y-34028D01*
X35339Y-34028D01*
X35374Y-33993D01*
X35374Y-33837D01*
X35374Y-34336D01*
X35374Y-34180D01*
X35339Y-34145D01*
X35058Y-34145D01*
X35058Y-34426D01*
X35093Y-34461D01*
X35223Y-34461D01*
X35250Y-34461D01*
X35277Y-34455D01*
X35302Y-34445D01*
X35324Y-34430D01*
X35343Y-34410D01*
X35358Y-34388D01*
X35369Y-34363D01*
X35374Y-34336D01*
X35374Y-34655D01*
X35370Y-34636D01*
X35360Y-34610D01*
X35345Y-34588D01*
X35325Y-34568D01*
X35302Y-34553D01*
X35277Y-34542D01*
X35250Y-34537D01*
X35223Y-34536D01*
X34941Y-34536D01*
X34941Y-34426D01*
X34941Y-34145D01*
X34941Y-34028D01*
X34941Y-33747D01*
X34941Y-33502D01*
X34941Y-33221D01*
X34941Y-33104D01*
X34941Y-32823D01*
X34906Y-32788D01*
X34776Y-32788D01*
X34749Y-32788D01*
X34722Y-32794D01*
X34697Y-32804D01*
X34675Y-32819D01*
X34656Y-32839D01*
X34641Y-32861D01*
X34630Y-32886D01*
X34625Y-32913D01*
X34625Y-33069D01*
X34660Y-33104D01*
X34941Y-33104D01*
X34941Y-33221D01*
X34660Y-33221D01*
X34625Y-33256D01*
X34625Y-33412D01*
X34630Y-33439D01*
X34641Y-33464D01*
X34656Y-33486D01*
X34675Y-33506D01*
X34697Y-33521D01*
X34722Y-33531D01*
X34749Y-33537D01*
X34776Y-33537D01*
X34906Y-33537D01*
X34941Y-33502D01*
X34941Y-33747D01*
X34906Y-33712D01*
X34776Y-33712D01*
X34749Y-33712D01*
X34722Y-33718D01*
X34697Y-33728D01*
X34675Y-33743D01*
X34656Y-33763D01*
X34641Y-33785D01*
X34630Y-33810D01*
X34625Y-33837D01*
X34625Y-33993D01*
X34660Y-34028D01*
X34941Y-34028D01*
X34941Y-34145D01*
X34660Y-34145D01*
X34625Y-34180D01*
X34625Y-34336D01*
X34630Y-34363D01*
X34641Y-34388D01*
X34656Y-34410D01*
X34675Y-34430D01*
X34697Y-34445D01*
X34722Y-34455D01*
X34749Y-34461D01*
X34776Y-34461D01*
X34906Y-34461D01*
X34941Y-34426D01*
X34941Y-34536D01*
X34750Y-34536D01*
X34723Y-34542D01*
X34697Y-34552D01*
X34675Y-34567D01*
X34655Y-34587D01*
X34640Y-34610D01*
X34629Y-34635D01*
X34624Y-34662D01*
X34623Y-34689D01*
X34623Y-34705D01*
X34601Y-34690D01*
X34553Y-34670D01*
X34502Y-34660D01*
X34450Y-34659D01*
X34399Y-34669D01*
X34391Y-34673D01*
X34376Y-34673D01*
X34376Y-34663D01*
X34374Y-34655D01*
X34374Y-34336D01*
X34374Y-33837D01*
X34374Y-33412D01*
X34374Y-32913D01*
X34369Y-32886D01*
X34358Y-32861D01*
X34343Y-32839D01*
X34324Y-32819D01*
X34302Y-32804D01*
X34277Y-32794D01*
X34250Y-32788D01*
X34223Y-32788D01*
X34093Y-32788D01*
X34058Y-32823D01*
X34058Y-33104D01*
X34339Y-33104D01*
X34374Y-33069D01*
X34374Y-32913D01*
X34374Y-33412D01*
X34374Y-33256D01*
X34339Y-33221D01*
X34058Y-33221D01*
X34058Y-33502D01*
X34093Y-33537D01*
X34223Y-33537D01*
X34250Y-33537D01*
X34277Y-33531D01*
X34302Y-33521D01*
X34324Y-33506D01*
X34343Y-33486D01*
X34358Y-33464D01*
X34369Y-33439D01*
X34374Y-33412D01*
X34374Y-33837D01*
X34369Y-33810D01*
X34358Y-33785D01*
X34343Y-33763D01*
X34324Y-33743D01*
X34302Y-33728D01*
X34277Y-33718D01*
X34250Y-33712D01*
X34223Y-33712D01*
X34093Y-33712D01*
X34058Y-33747D01*
X34058Y-34028D01*
X34339Y-34028D01*
X34374Y-33993D01*
X34374Y-33837D01*
X34374Y-34336D01*
X34374Y-34180D01*
X34339Y-34145D01*
X34058Y-34145D01*
X34058Y-34426D01*
X34093Y-34461D01*
X34223Y-34461D01*
X34250Y-34461D01*
X34277Y-34455D01*
X34302Y-34445D01*
X34324Y-34430D01*
X34343Y-34410D01*
X34358Y-34388D01*
X34369Y-34363D01*
X34374Y-34336D01*
X34374Y-34655D01*
X34370Y-34636D01*
X34360Y-34610D01*
X34345Y-34588D01*
X34325Y-34568D01*
X34302Y-34553D01*
X34277Y-34542D01*
X34250Y-34537D01*
X34223Y-34536D01*
X33941Y-34536D01*
X33941Y-34426D01*
X33941Y-34145D01*
X33941Y-34028D01*
X33941Y-33747D01*
X33941Y-33502D01*
X33941Y-33221D01*
X33941Y-33104D01*
X33941Y-32823D01*
X33906Y-32788D01*
X33776Y-32788D01*
X33749Y-32788D01*
X33722Y-32794D01*
X33697Y-32804D01*
X33675Y-32819D01*
X33656Y-32839D01*
X33641Y-32861D01*
X33630Y-32886D01*
X33625Y-32913D01*
X33625Y-33069D01*
X33660Y-33104D01*
X33941Y-33104D01*
X33941Y-33221D01*
X33660Y-33221D01*
X33625Y-33256D01*
X33625Y-33412D01*
X33630Y-33439D01*
X33641Y-33464D01*
X33656Y-33486D01*
X33675Y-33506D01*
X33697Y-33521D01*
X33722Y-33531D01*
X33749Y-33537D01*
X33776Y-33537D01*
X33906Y-33537D01*
X33941Y-33502D01*
X33941Y-33747D01*
X33906Y-33712D01*
X33776Y-33712D01*
X33749Y-33712D01*
X33722Y-33718D01*
X33697Y-33728D01*
X33675Y-33743D01*
X33656Y-33763D01*
X33641Y-33785D01*
X33630Y-33810D01*
X33625Y-33837D01*
X33625Y-33993D01*
X33660Y-34028D01*
X33941Y-34028D01*
X33941Y-34145D01*
X33660Y-34145D01*
X33625Y-34180D01*
X33625Y-34336D01*
X33630Y-34363D01*
X33641Y-34388D01*
X33656Y-34410D01*
X33675Y-34430D01*
X33697Y-34445D01*
X33722Y-34455D01*
X33749Y-34461D01*
X33776Y-34461D01*
X33906Y-34461D01*
X33941Y-34426D01*
X33941Y-34536D01*
X33750Y-34536D01*
X33723Y-34542D01*
X33697Y-34552D01*
X33675Y-34567D01*
X33655Y-34587D01*
X33640Y-34610D01*
X33629Y-34635D01*
X33624Y-34662D01*
X33623Y-34689D01*
X33578Y-34670D01*
X33527Y-34660D01*
X33475Y-34659D01*
X33424Y-34669D01*
X33416Y-34673D01*
X33376Y-34673D01*
X33376Y-34663D01*
X33374Y-34655D01*
X33374Y-34336D01*
X33374Y-33837D01*
X33374Y-33412D01*
X33374Y-32913D01*
X33369Y-32886D01*
X33358Y-32861D01*
X33343Y-32839D01*
X33324Y-32819D01*
X33302Y-32804D01*
X33277Y-32794D01*
X33250Y-32788D01*
X33223Y-32788D01*
X33093Y-32788D01*
X33058Y-32823D01*
X33058Y-33104D01*
X33339Y-33104D01*
X33374Y-33069D01*
X33374Y-32913D01*
X33374Y-33412D01*
X33374Y-33256D01*
X33339Y-33221D01*
X33058Y-33221D01*
X33058Y-33502D01*
X33093Y-33537D01*
X33223Y-33537D01*
X33250Y-33537D01*
X33277Y-33531D01*
X33302Y-33521D01*
X33324Y-33506D01*
X33343Y-33486D01*
X33358Y-33464D01*
X33369Y-33439D01*
X33374Y-33412D01*
X33374Y-33837D01*
X33369Y-33810D01*
X33358Y-33785D01*
X33343Y-33763D01*
X33324Y-33743D01*
X33302Y-33728D01*
X33277Y-33718D01*
X33250Y-33712D01*
X33223Y-33712D01*
X33093Y-33712D01*
X33058Y-33747D01*
X33058Y-34028D01*
X33339Y-34028D01*
X33374Y-33993D01*
X33374Y-33837D01*
X33374Y-34336D01*
X33374Y-34180D01*
X33339Y-34145D01*
X33058Y-34145D01*
X33058Y-34426D01*
X33093Y-34461D01*
X33223Y-34461D01*
X33250Y-34461D01*
X33277Y-34455D01*
X33302Y-34445D01*
X33324Y-34430D01*
X33343Y-34410D01*
X33358Y-34388D01*
X33369Y-34363D01*
X33374Y-34336D01*
X33374Y-34655D01*
X33370Y-34636D01*
X33360Y-34610D01*
X33345Y-34588D01*
X33325Y-34568D01*
X33302Y-34553D01*
X33277Y-34542D01*
X33250Y-34537D01*
X33223Y-34536D01*
X32941Y-34536D01*
X32941Y-34426D01*
X32941Y-34145D01*
X32941Y-34028D01*
X32941Y-33747D01*
X32941Y-33502D01*
X32941Y-33221D01*
X32941Y-33104D01*
X32941Y-32823D01*
X32906Y-32788D01*
X32776Y-32788D01*
X32749Y-32788D01*
X32722Y-32794D01*
X32697Y-32804D01*
X32675Y-32819D01*
X32656Y-32839D01*
X32641Y-32861D01*
X32630Y-32886D01*
X32625Y-32913D01*
X32625Y-33069D01*
X32660Y-33104D01*
X32941Y-33104D01*
X32941Y-33221D01*
X32660Y-33221D01*
X32625Y-33256D01*
X32625Y-33412D01*
X32630Y-33439D01*
X32641Y-33464D01*
X32656Y-33486D01*
X32675Y-33506D01*
X32697Y-33521D01*
X32722Y-33531D01*
X32749Y-33537D01*
X32776Y-33537D01*
X32906Y-33537D01*
X32941Y-33502D01*
X32941Y-33747D01*
X32906Y-33712D01*
X32776Y-33712D01*
X32749Y-33712D01*
X32722Y-33718D01*
X32697Y-33728D01*
X32675Y-33743D01*
X32656Y-33763D01*
X32641Y-33785D01*
X32630Y-33810D01*
X32625Y-33837D01*
X32625Y-33993D01*
X32660Y-34028D01*
X32941Y-34028D01*
X32941Y-34145D01*
X32660Y-34145D01*
X32625Y-34180D01*
X32625Y-34336D01*
X32630Y-34363D01*
X32641Y-34388D01*
X32656Y-34410D01*
X32675Y-34430D01*
X32697Y-34445D01*
X32722Y-34455D01*
X32749Y-34461D01*
X32776Y-34461D01*
X32906Y-34461D01*
X32941Y-34426D01*
X32941Y-34536D01*
X32750Y-34536D01*
X32723Y-34542D01*
X32697Y-34552D01*
X32675Y-34567D01*
X32655Y-34587D01*
X32640Y-34610D01*
X32629Y-34635D01*
X32624Y-34662D01*
X32623Y-34689D01*
X32578Y-34670D01*
X32527Y-34660D01*
X32475Y-34659D01*
X32424Y-34669D01*
X32416Y-34673D01*
X32376Y-34673D01*
X32376Y-34663D01*
X32374Y-34655D01*
X32374Y-34336D01*
X32374Y-33837D01*
X32374Y-33412D01*
X32374Y-32913D01*
X32369Y-32886D01*
X32358Y-32861D01*
X32343Y-32839D01*
X32324Y-32819D01*
X32302Y-32804D01*
X32277Y-32794D01*
X32250Y-32788D01*
X32223Y-32788D01*
X32093Y-32788D01*
X32058Y-32823D01*
X32058Y-33104D01*
X32339Y-33104D01*
X32374Y-33069D01*
X32374Y-32913D01*
X32374Y-33412D01*
X32374Y-33256D01*
X32339Y-33221D01*
X32058Y-33221D01*
X32058Y-33502D01*
X32093Y-33537D01*
X32223Y-33537D01*
X32250Y-33537D01*
X32277Y-33531D01*
X32302Y-33521D01*
X32324Y-33506D01*
X32343Y-33486D01*
X32358Y-33464D01*
X32369Y-33439D01*
X32374Y-33412D01*
X32374Y-33837D01*
X32369Y-33810D01*
X32358Y-33785D01*
X32343Y-33763D01*
X32324Y-33743D01*
X32302Y-33728D01*
X32277Y-33718D01*
X32250Y-33712D01*
X32223Y-33712D01*
X32093Y-33712D01*
X32058Y-33747D01*
X32058Y-34028D01*
X32339Y-34028D01*
X32374Y-33993D01*
X32374Y-33837D01*
X32374Y-34336D01*
X32374Y-34180D01*
X32339Y-34145D01*
X32058Y-34145D01*
X32058Y-34426D01*
X32093Y-34461D01*
X32223Y-34461D01*
X32250Y-34461D01*
X32277Y-34455D01*
X32302Y-34445D01*
X32324Y-34430D01*
X32343Y-34410D01*
X32358Y-34388D01*
X32369Y-34363D01*
X32374Y-34336D01*
X32374Y-34655D01*
X32370Y-34636D01*
X32360Y-34610D01*
X32345Y-34588D01*
X32325Y-34568D01*
X32302Y-34553D01*
X32277Y-34542D01*
X32250Y-34537D01*
X32223Y-34536D01*
X31941Y-34536D01*
X31941Y-34426D01*
X31941Y-34145D01*
X31941Y-34028D01*
X31941Y-33747D01*
X31941Y-33502D01*
X31941Y-33221D01*
X31941Y-33104D01*
X31941Y-32823D01*
X31906Y-32788D01*
X31776Y-32788D01*
X31749Y-32788D01*
X31722Y-32794D01*
X31697Y-32804D01*
X31675Y-32819D01*
X31656Y-32839D01*
X31641Y-32861D01*
X31630Y-32886D01*
X31625Y-32913D01*
X31625Y-33069D01*
X31660Y-33104D01*
X31941Y-33104D01*
X31941Y-33221D01*
X31660Y-33221D01*
X31625Y-33256D01*
X31625Y-33412D01*
X31630Y-33439D01*
X31641Y-33464D01*
X31656Y-33486D01*
X31675Y-33506D01*
X31697Y-33521D01*
X31722Y-33531D01*
X31749Y-33537D01*
X31776Y-33537D01*
X31906Y-33537D01*
X31941Y-33502D01*
X31941Y-33747D01*
X31906Y-33712D01*
X31776Y-33712D01*
X31749Y-33712D01*
X31722Y-33718D01*
X31697Y-33728D01*
X31675Y-33743D01*
X31656Y-33763D01*
X31641Y-33785D01*
X31630Y-33810D01*
X31625Y-33837D01*
X31625Y-33993D01*
X31660Y-34028D01*
X31941Y-34028D01*
X31941Y-34145D01*
X31660Y-34145D01*
X31625Y-34180D01*
X31625Y-34336D01*
X31630Y-34363D01*
X31641Y-34388D01*
X31656Y-34410D01*
X31675Y-34430D01*
X31697Y-34445D01*
X31722Y-34455D01*
X31749Y-34461D01*
X31776Y-34461D01*
X31906Y-34461D01*
X31941Y-34426D01*
X31941Y-34536D01*
X31750Y-34536D01*
X31723Y-34542D01*
X31697Y-34552D01*
X31675Y-34567D01*
X31655Y-34587D01*
X31640Y-34610D01*
X31629Y-34635D01*
X31624Y-34662D01*
X31623Y-34689D01*
X31623Y-35162D01*
X31629Y-35189D01*
X31639Y-35215D01*
X31654Y-35237D01*
X31674Y-35257D01*
X31697Y-35272D01*
X31722Y-35283D01*
X31749Y-35288D01*
X31776Y-35289D01*
X32249Y-35289D01*
X32276Y-35283D01*
X32302Y-35273D01*
X32324Y-35258D01*
X32344Y-35238D01*
X32359Y-35215D01*
X32370Y-35190D01*
X32375Y-35163D01*
X32375Y-35159D01*
X32417Y-35178D01*
X32468Y-35189D01*
X32520Y-35190D01*
X32571Y-35181D01*
X32620Y-35162D01*
X32623Y-35160D01*
X32623Y-35162D01*
X32629Y-35189D01*
X32639Y-35215D01*
X32654Y-35237D01*
X32674Y-35257D01*
X32697Y-35272D01*
X32722Y-35283D01*
X32749Y-35288D01*
X32776Y-35289D01*
X33249Y-35289D01*
X33276Y-35283D01*
X33302Y-35273D01*
X33324Y-35258D01*
X33344Y-35238D01*
X33359Y-35215D01*
X33370Y-35190D01*
X33375Y-35163D01*
X33375Y-35159D01*
X33417Y-35178D01*
X33468Y-35189D01*
X33520Y-35190D01*
X33571Y-35181D01*
X33620Y-35162D01*
X33623Y-35160D01*
X33623Y-35162D01*
X33629Y-35189D01*
X33639Y-35215D01*
X33654Y-35237D01*
X33674Y-35257D01*
X33697Y-35272D01*
X33722Y-35283D01*
X33749Y-35288D01*
X33776Y-35289D01*
X34249Y-35289D01*
X34276Y-35283D01*
X34302Y-35273D01*
X34324Y-35258D01*
X34344Y-35238D01*
X34359Y-35215D01*
X34370Y-35190D01*
X34374Y-35170D01*
X34392Y-35178D01*
X34443Y-35189D01*
X34495Y-35190D01*
X34546Y-35181D01*
X34595Y-35162D01*
X34623Y-35144D01*
X34623Y-35162D01*
X34629Y-35189D01*
X34639Y-35215D01*
X34654Y-35237D01*
X34674Y-35257D01*
X34697Y-35272D01*
X34722Y-35283D01*
X34749Y-35288D01*
X34776Y-35289D01*
X35249Y-35289D01*
X35276Y-35283D01*
X35302Y-35273D01*
X35324Y-35258D01*
X35344Y-35238D01*
X35359Y-35215D01*
X35370Y-35190D01*
X35375Y-35163D01*
X35375Y-35153D01*
X35442Y-35153D01*
X35442Y-35153D01*
X35493Y-35164D01*
X35545Y-35165D01*
X35596Y-35156D01*
X35623Y-35145D01*
X35623Y-35162D01*
X35629Y-35189D01*
X35639Y-35215D01*
X35654Y-35237D01*
X35674Y-35257D01*
X35697Y-35272D01*
X35722Y-35283D01*
X35749Y-35288D01*
X35776Y-35289D01*
X36249Y-35289D01*
X36276Y-35283D01*
X36302Y-35273D01*
X36324Y-35258D01*
X36344Y-35238D01*
X36359Y-35215D01*
X36370Y-35190D01*
X36375Y-35163D01*
X36375Y-35153D01*
X36417Y-35153D01*
X36417Y-35153D01*
X36468Y-35164D01*
X36520Y-35165D01*
X36571Y-35156D01*
X36620Y-35137D01*
X36623Y-35135D01*
X36623Y-35162D01*
X36629Y-35189D01*
X36639Y-35215D01*
X36654Y-35237D01*
X36674Y-35257D01*
X36697Y-35272D01*
X36722Y-35283D01*
X36749Y-35288D01*
X36776Y-35289D01*
X37249Y-35289D01*
X37276Y-35283D01*
X37302Y-35273D01*
X37324Y-35258D01*
X37344Y-35238D01*
X37359Y-35215D01*
X37370Y-35190D01*
X37375Y-35163D01*
X37375Y-35153D01*
X37442Y-35153D01*
X37442Y-35153D01*
X37493Y-35164D01*
X37545Y-35165D01*
X37596Y-35156D01*
X37623Y-35145D01*
X37623Y-35162D01*
X37629Y-35189D01*
X37639Y-35215D01*
X37654Y-35237D01*
X37674Y-35257D01*
X37697Y-35272D01*
X37722Y-35283D01*
X37749Y-35288D01*
X37776Y-35289D01*
X38249Y-35289D01*
X38276Y-35283D01*
X38302Y-35273D01*
X38324Y-35258D01*
X38344Y-35238D01*
X38359Y-35215D01*
X38370Y-35190D01*
X38375Y-35163D01*
X38375Y-35153D01*
X38417Y-35153D01*
X38417Y-35153D01*
X38468Y-35164D01*
X38520Y-35165D01*
X38571Y-35156D01*
X38620Y-35137D01*
X38623Y-35135D01*
X38623Y-35162D01*
X38629Y-35189D01*
X38639Y-35215D01*
X38654Y-35237D01*
X38674Y-35257D01*
X38697Y-35272D01*
X38722Y-35283D01*
X38749Y-35288D01*
X38776Y-35289D01*
X39249Y-35289D01*
X39276Y-35283D01*
X39302Y-35273D01*
X39324Y-35258D01*
X39344Y-35238D01*
X39359Y-35215D01*
X39370Y-35190D01*
X39375Y-35163D01*
X39375Y-35153D01*
X39467Y-35153D01*
X39467Y-35153D01*
X39518Y-35164D01*
X39570Y-35165D01*
X39621Y-35156D01*
X39670Y-35137D01*
X39713Y-35109D01*
X39751Y-35073D01*
X39781Y-35031D01*
X39802Y-34984D01*
X39814Y-34933D01*
X39815Y-34874D01*
X39815Y-35586D01*
X39711Y-35586D01*
X39684Y-35591D01*
X39659Y-35602D01*
X39637Y-35617D01*
X39617Y-35636D01*
X39602Y-35658D01*
X39592Y-35683D01*
X39586Y-35710D01*
X39586Y-35737D01*
X39586Y-35906D01*
X39621Y-35941D01*
X39941Y-35941D01*
X39941Y-36058D01*
X39621Y-36058D01*
X39586Y-36093D01*
X39586Y-36262D01*
X39586Y-36289D01*
X39592Y-36316D01*
X39602Y-36341D01*
X39617Y-36363D01*
X39637Y-36382D01*
X39659Y-36397D01*
X39684Y-36408D01*
X39711Y-36413D01*
X39906Y-36413D01*
X39941Y-36378D01*
X39941Y-36495D01*
X39415Y-36495D01*
X39415Y-35959D01*
X39399Y-35879D01*
X39368Y-35804D01*
X39323Y-35736D01*
X39265Y-35678D01*
X39198Y-35633D01*
X39123Y-35601D01*
X39043Y-35585D01*
X38962Y-35584D01*
X38882Y-35599D01*
X38806Y-35630D01*
X38738Y-35675D01*
X38680Y-35731D01*
X38634Y-35799D01*
X38602Y-35873D01*
X38585Y-35953D01*
X38584Y-36034D01*
X38599Y-36114D01*
X38629Y-36190D01*
X38673Y-36259D01*
X38729Y-36317D01*
X38796Y-36364D01*
X38871Y-36396D01*
X38950Y-36414D01*
X39031Y-36415D01*
X39112Y-36401D01*
X39188Y-36372D01*
X39256Y-36328D01*
X39315Y-36272D01*
X39362Y-36205D01*
X39395Y-36131D01*
X39413Y-36052D01*
X39415Y-35959D01*
X39415Y-36495D01*
X38415Y-36495D01*
X38415Y-35959D01*
X38399Y-35879D01*
X38368Y-35804D01*
X38323Y-35736D01*
X38265Y-35678D01*
X38198Y-35633D01*
X38123Y-35601D01*
X38043Y-35585D01*
X37962Y-35584D01*
X37882Y-35599D01*
X37806Y-35630D01*
X37738Y-35675D01*
X37680Y-35731D01*
X37634Y-35799D01*
X37602Y-35873D01*
X37585Y-35953D01*
X37584Y-36034D01*
X37599Y-36114D01*
X37629Y-36190D01*
X37673Y-36259D01*
X37729Y-36317D01*
X37796Y-36364D01*
X37871Y-36396D01*
X37950Y-36414D01*
X38031Y-36415D01*
X38112Y-36401D01*
X38188Y-36372D01*
X38256Y-36328D01*
X38315Y-36272D01*
X38362Y-36205D01*
X38395Y-36131D01*
X38413Y-36052D01*
X38415Y-35959D01*
X38415Y-36495D01*
X37415Y-36495D01*
X37415Y-35959D01*
X37399Y-35879D01*
X37368Y-35804D01*
X37323Y-35736D01*
X37265Y-35678D01*
X37198Y-35633D01*
X37123Y-35601D01*
X37043Y-35585D01*
X36962Y-35584D01*
X36882Y-35599D01*
X36806Y-35630D01*
X36738Y-35675D01*
X36680Y-35731D01*
X36634Y-35799D01*
X36602Y-35873D01*
X36585Y-35953D01*
X36584Y-36034D01*
X36599Y-36114D01*
X36629Y-36190D01*
X36673Y-36259D01*
X36729Y-36317D01*
X36796Y-36364D01*
X36871Y-36396D01*
X36950Y-36414D01*
X37031Y-36415D01*
X37112Y-36401D01*
X37188Y-36372D01*
X37256Y-36328D01*
X37315Y-36272D01*
X37362Y-36205D01*
X37395Y-36131D01*
X37413Y-36052D01*
X37415Y-35959D01*
X37415Y-36495D01*
X36415Y-36495D01*
X36415Y-35959D01*
X36399Y-35879D01*
X36368Y-35804D01*
X36323Y-35736D01*
X36265Y-35678D01*
X36198Y-35633D01*
X36123Y-35601D01*
X36043Y-35585D01*
X35962Y-35584D01*
X35882Y-35599D01*
X35806Y-35630D01*
X35738Y-35675D01*
X35680Y-35731D01*
X35634Y-35799D01*
X35602Y-35873D01*
X35585Y-35953D01*
X35584Y-36034D01*
X35599Y-36114D01*
X35629Y-36190D01*
X35673Y-36259D01*
X35729Y-36317D01*
X35796Y-36364D01*
X35871Y-36396D01*
X35950Y-36414D01*
X36031Y-36415D01*
X36112Y-36401D01*
X36188Y-36372D01*
X36256Y-36328D01*
X36315Y-36272D01*
X36362Y-36205D01*
X36395Y-36131D01*
X36413Y-36052D01*
X36415Y-35959D01*
X36415Y-36495D01*
X35415Y-36495D01*
X35415Y-35959D01*
X35399Y-35879D01*
X35368Y-35804D01*
X35323Y-35736D01*
X35265Y-35678D01*
X35198Y-35633D01*
X35123Y-35601D01*
X35043Y-35585D01*
X34962Y-35584D01*
X34882Y-35599D01*
X34806Y-35630D01*
X34738Y-35675D01*
X34680Y-35731D01*
X34634Y-35799D01*
X34602Y-35873D01*
X34585Y-35953D01*
X34584Y-36034D01*
X34599Y-36114D01*
X34629Y-36190D01*
X34673Y-36259D01*
X34729Y-36317D01*
X34796Y-36364D01*
X34871Y-36396D01*
X34950Y-36414D01*
X35031Y-36415D01*
X35112Y-36401D01*
X35188Y-36372D01*
X35256Y-36328D01*
X35315Y-36272D01*
X35362Y-36205D01*
X35395Y-36131D01*
X35413Y-36052D01*
X35415Y-35959D01*
X35415Y-36495D01*
X34415Y-36495D01*
X34415Y-35959D01*
X34399Y-35879D01*
X34368Y-35804D01*
X34323Y-35736D01*
X34265Y-35678D01*
X34198Y-35633D01*
X34123Y-35601D01*
X34043Y-35585D01*
X33962Y-35584D01*
X33882Y-35599D01*
X33806Y-35630D01*
X33738Y-35675D01*
X33680Y-35731D01*
X33634Y-35799D01*
X33602Y-35873D01*
X33585Y-35953D01*
X33584Y-36034D01*
X33599Y-36114D01*
X33629Y-36190D01*
X33673Y-36259D01*
X33729Y-36317D01*
X33796Y-36364D01*
X33871Y-36396D01*
X33950Y-36414D01*
X34031Y-36415D01*
X34112Y-36401D01*
X34188Y-36372D01*
X34256Y-36328D01*
X34315Y-36272D01*
X34362Y-36205D01*
X34395Y-36131D01*
X34413Y-36052D01*
X34415Y-35959D01*
X34415Y-36495D01*
X33415Y-36495D01*
X33415Y-35959D01*
X33399Y-35879D01*
X33368Y-35804D01*
X33323Y-35736D01*
X33265Y-35678D01*
X33198Y-35633D01*
X33123Y-35601D01*
X33043Y-35585D01*
X32962Y-35584D01*
X32882Y-35599D01*
X32806Y-35630D01*
X32738Y-35675D01*
X32680Y-35731D01*
X32634Y-35799D01*
X32602Y-35873D01*
X32585Y-35953D01*
X32584Y-36034D01*
X32599Y-36114D01*
X32629Y-36190D01*
X32673Y-36259D01*
X32729Y-36317D01*
X32796Y-36364D01*
X32871Y-36396D01*
X32950Y-36414D01*
X33031Y-36415D01*
X33112Y-36401D01*
X33188Y-36372D01*
X33256Y-36328D01*
X33315Y-36272D01*
X33362Y-36205D01*
X33395Y-36131D01*
X33413Y-36052D01*
X33415Y-35959D01*
X33415Y-36495D01*
X32415Y-36495D01*
X32415Y-35959D01*
X32399Y-35879D01*
X32368Y-35804D01*
X32323Y-35736D01*
X32265Y-35678D01*
X32198Y-35633D01*
X32123Y-35601D01*
X32043Y-35585D01*
X31962Y-35584D01*
X31882Y-35599D01*
X31806Y-35630D01*
X31738Y-35675D01*
X31680Y-35731D01*
X31634Y-35799D01*
X31602Y-35873D01*
X31585Y-35953D01*
X31584Y-36034D01*
X31599Y-36114D01*
X31629Y-36190D01*
X31673Y-36259D01*
X31729Y-36317D01*
X31796Y-36364D01*
X31871Y-36396D01*
X31950Y-36414D01*
X32031Y-36415D01*
X32112Y-36401D01*
X32188Y-36372D01*
X32256Y-36328D01*
X32315Y-36272D01*
X32362Y-36205D01*
X32395Y-36131D01*
X32413Y-36052D01*
X32415Y-35959D01*
X32415Y-36495D01*
X31496Y-36495D01*
X31496Y-31949D01*
X40471Y-31949D01*
X40471Y-36495D01*
M02*
