G04 (created by PCBNEW (2013-01-15 BZR 3905)-testing) date Thu 17 Jan 2013 07:41:06 PM CET*
%MOIN*%
G04 Gerber Fmt 3.4, Leading zero omitted, Abs format*
%FSLAX34Y34*%
G01*
G70*
G90*
G04 APERTURE LIST*
%ADD10C,0.006*%
%ADD11R,0.06X0.06*%
%ADD12C,0.06*%
%ADD13R,0.0433X0.0393*%
%ADD14C,0.025*%
%ADD15C,0.02*%
%ADD16C,0.008*%
G04 APERTURE END LIST*
G54D10*
G54D11*
X40000Y-36000D03*
G54D12*
X39000Y-36000D03*
X38000Y-36000D03*
X37000Y-36000D03*
X36000Y-36000D03*
X35000Y-36000D03*
X34000Y-36000D03*
X33000Y-36000D03*
X32000Y-36000D03*
G54D13*
X37992Y-35137D03*
X37992Y-34469D03*
X37007Y-35137D03*
X37007Y-34469D03*
X36003Y-35137D03*
X36003Y-34469D03*
X35000Y-35137D03*
X35000Y-34469D03*
X33996Y-35137D03*
X33996Y-34469D03*
X32992Y-35137D03*
X32992Y-34469D03*
X32007Y-35137D03*
X32007Y-34469D03*
X38996Y-35137D03*
X38996Y-34469D03*
G54D14*
X33500Y-34925D03*
X33500Y-32325D03*
X38500Y-34900D03*
X38500Y-32350D03*
X39550Y-34900D03*
X39550Y-32325D03*
X32500Y-34925D03*
X32500Y-32350D03*
X36500Y-34900D03*
X36500Y-32325D03*
X34475Y-34925D03*
X34475Y-32325D03*
X35525Y-34900D03*
X35525Y-32325D03*
X37525Y-34900D03*
X37525Y-32325D03*
G54D15*
X32992Y-34469D02*
X33500Y-34469D01*
X33475Y-34475D02*
X33500Y-34475D01*
X33494Y-34475D02*
X33475Y-34475D01*
X33500Y-34469D02*
X33494Y-34475D01*
X33500Y-32325D02*
X33500Y-34475D01*
X33500Y-34475D02*
X33500Y-34925D01*
X37992Y-34469D02*
X38500Y-34469D01*
X38475Y-34475D02*
X38500Y-34475D01*
X38494Y-34475D02*
X38475Y-34475D01*
X38500Y-34469D02*
X38494Y-34475D01*
X38500Y-32350D02*
X38500Y-34475D01*
X38500Y-34475D02*
X38500Y-34900D01*
X38996Y-34469D02*
X39550Y-34469D01*
X39525Y-34450D02*
X39550Y-34450D01*
X39530Y-34450D02*
X39525Y-34450D01*
X39550Y-34469D02*
X39530Y-34450D01*
X39550Y-32325D02*
X39550Y-34450D01*
X39550Y-34450D02*
X39550Y-34900D01*
X32007Y-34469D02*
X32480Y-34469D01*
X32480Y-34469D02*
X32500Y-34450D01*
X32500Y-32350D02*
X32500Y-34450D01*
X32500Y-34450D02*
X32500Y-34925D01*
X36003Y-34469D02*
X36500Y-34469D01*
X36475Y-34450D02*
X36500Y-34450D01*
X36480Y-34450D02*
X36475Y-34450D01*
X36500Y-34469D02*
X36480Y-34450D01*
X36500Y-32325D02*
X36500Y-34450D01*
X36500Y-34450D02*
X36500Y-34900D01*
X33996Y-34469D02*
X34475Y-34469D01*
X34450Y-34450D02*
X34475Y-34450D01*
X34455Y-34450D02*
X34450Y-34450D01*
X34475Y-34469D02*
X34455Y-34450D01*
X34475Y-32325D02*
X34475Y-34450D01*
X34475Y-34450D02*
X34475Y-34925D01*
X35000Y-34469D02*
X35525Y-34469D01*
X35525Y-34469D02*
X35525Y-34475D01*
X35525Y-32325D02*
X35525Y-34475D01*
X35525Y-34475D02*
X35525Y-34900D01*
X37007Y-34469D02*
X37525Y-34469D01*
X37475Y-34475D02*
X37525Y-34475D01*
X37519Y-34475D02*
X37475Y-34475D01*
X37525Y-34469D02*
X37519Y-34475D01*
X37525Y-32325D02*
X37525Y-34475D01*
X37525Y-34475D02*
X37525Y-34900D01*
X38996Y-35137D02*
X38996Y-35996D01*
X38996Y-35996D02*
X39000Y-36000D01*
X37992Y-35137D02*
X37992Y-35992D01*
X37992Y-35992D02*
X38000Y-36000D01*
X37007Y-35137D02*
X37007Y-35992D01*
X37007Y-35992D02*
X37000Y-36000D01*
X36003Y-35137D02*
X36003Y-35996D01*
X36003Y-35996D02*
X36000Y-36000D01*
X32000Y-36000D02*
X32000Y-35145D01*
X32000Y-35145D02*
X32007Y-35137D01*
X32992Y-35137D02*
X32992Y-35992D01*
X32992Y-35992D02*
X33000Y-36000D01*
X33996Y-35137D02*
X33996Y-35996D01*
X33996Y-35996D02*
X34000Y-36000D01*
X35000Y-35137D02*
X35000Y-36000D01*
G54D10*
G36*
X40471Y-36495D02*
X40438Y-36495D01*
X40438Y-36287D01*
X40438Y-35712D01*
X40438Y-35685D01*
X40432Y-35658D01*
X40422Y-35633D01*
X40407Y-35611D01*
X40387Y-35592D01*
X40365Y-35577D01*
X40340Y-35566D01*
X40313Y-35561D01*
X40093Y-35561D01*
X40058Y-35596D01*
X40058Y-35941D01*
X40403Y-35941D01*
X40438Y-35906D01*
X40438Y-35712D01*
X40438Y-36287D01*
X40438Y-36093D01*
X40403Y-36058D01*
X40058Y-36058D01*
X40058Y-36403D01*
X40093Y-36438D01*
X40313Y-36438D01*
X40340Y-36433D01*
X40365Y-36422D01*
X40387Y-36407D01*
X40407Y-36388D01*
X40422Y-36366D01*
X40432Y-36341D01*
X40438Y-36314D01*
X40438Y-36287D01*
X40438Y-36495D01*
X39941Y-36495D01*
X39941Y-36403D01*
X39941Y-36058D01*
X39941Y-35941D01*
X39941Y-35596D01*
X39906Y-35561D01*
X39815Y-35561D01*
X39815Y-34874D01*
X39804Y-34823D01*
X39790Y-34786D01*
X39790Y-34450D01*
X39790Y-32437D01*
X39802Y-32409D01*
X39814Y-32358D01*
X39815Y-32299D01*
X39804Y-32248D01*
X39785Y-32199D01*
X39756Y-32156D01*
X39719Y-32119D01*
X39676Y-32090D01*
X39628Y-32070D01*
X39577Y-32060D01*
X39525Y-32059D01*
X39474Y-32069D01*
X39426Y-32089D01*
X39383Y-32117D01*
X39346Y-32153D01*
X39316Y-32196D01*
X39296Y-32244D01*
X39285Y-32295D01*
X39284Y-32347D01*
X39294Y-32398D01*
X39310Y-32438D01*
X39310Y-34172D01*
X39302Y-34164D01*
X39279Y-34148D01*
X39254Y-34138D01*
X39227Y-34132D01*
X39199Y-34132D01*
X38765Y-34132D01*
X38740Y-34137D01*
X38740Y-32462D01*
X38752Y-32434D01*
X38764Y-32383D01*
X38765Y-32324D01*
X38754Y-32273D01*
X38735Y-32224D01*
X38706Y-32181D01*
X38669Y-32144D01*
X38626Y-32115D01*
X38578Y-32095D01*
X38527Y-32085D01*
X38475Y-32084D01*
X38424Y-32094D01*
X38376Y-32114D01*
X38333Y-32142D01*
X38296Y-32178D01*
X38266Y-32221D01*
X38246Y-32269D01*
X38235Y-32320D01*
X38234Y-32372D01*
X38244Y-32423D01*
X38260Y-32463D01*
X38260Y-34142D01*
X38250Y-34138D01*
X38223Y-34132D01*
X38195Y-34132D01*
X37765Y-34132D01*
X37765Y-32437D01*
X37777Y-32409D01*
X37789Y-32358D01*
X37790Y-32299D01*
X37779Y-32248D01*
X37760Y-32199D01*
X37731Y-32156D01*
X37694Y-32119D01*
X37651Y-32090D01*
X37603Y-32070D01*
X37552Y-32060D01*
X37500Y-32059D01*
X37449Y-32069D01*
X37401Y-32089D01*
X37358Y-32117D01*
X37321Y-32153D01*
X37291Y-32196D01*
X37271Y-32244D01*
X37260Y-32295D01*
X37259Y-32347D01*
X37269Y-32398D01*
X37285Y-32438D01*
X37285Y-34146D01*
X37265Y-34138D01*
X37239Y-34132D01*
X37211Y-34132D01*
X36777Y-34132D01*
X36750Y-34137D01*
X36740Y-34142D01*
X36740Y-32437D01*
X36752Y-32409D01*
X36764Y-32358D01*
X36765Y-32299D01*
X36754Y-32248D01*
X36735Y-32199D01*
X36706Y-32156D01*
X36669Y-32119D01*
X36626Y-32090D01*
X36578Y-32070D01*
X36527Y-32060D01*
X36475Y-32059D01*
X36424Y-32069D01*
X36376Y-32089D01*
X36333Y-32117D01*
X36296Y-32153D01*
X36266Y-32196D01*
X36246Y-32244D01*
X36235Y-32295D01*
X36234Y-32347D01*
X36244Y-32398D01*
X36260Y-32438D01*
X36260Y-34137D01*
X36235Y-34132D01*
X36207Y-34132D01*
X35773Y-34132D01*
X35765Y-34134D01*
X35765Y-32437D01*
X35777Y-32409D01*
X35789Y-32358D01*
X35790Y-32299D01*
X35779Y-32248D01*
X35760Y-32199D01*
X35731Y-32156D01*
X35694Y-32119D01*
X35651Y-32090D01*
X35603Y-32070D01*
X35552Y-32060D01*
X35500Y-32059D01*
X35449Y-32069D01*
X35401Y-32089D01*
X35358Y-32117D01*
X35321Y-32153D01*
X35291Y-32196D01*
X35271Y-32244D01*
X35260Y-32295D01*
X35259Y-32347D01*
X35269Y-32398D01*
X35285Y-32438D01*
X35285Y-34149D01*
X35283Y-34148D01*
X35258Y-34138D01*
X35231Y-34132D01*
X35203Y-34132D01*
X34769Y-34132D01*
X34742Y-34137D01*
X34717Y-34148D01*
X34715Y-34150D01*
X34715Y-32437D01*
X34727Y-32409D01*
X34739Y-32358D01*
X34740Y-32299D01*
X34729Y-32248D01*
X34710Y-32199D01*
X34681Y-32156D01*
X34644Y-32119D01*
X34601Y-32090D01*
X34553Y-32070D01*
X34502Y-32060D01*
X34450Y-32059D01*
X34399Y-32069D01*
X34351Y-32089D01*
X34308Y-32117D01*
X34271Y-32153D01*
X34241Y-32196D01*
X34221Y-32244D01*
X34210Y-32295D01*
X34209Y-32347D01*
X34219Y-32398D01*
X34235Y-32438D01*
X34235Y-34134D01*
X34227Y-34132D01*
X34199Y-34132D01*
X33765Y-34132D01*
X33740Y-34137D01*
X33740Y-32437D01*
X33752Y-32409D01*
X33764Y-32358D01*
X33765Y-32299D01*
X33754Y-32248D01*
X33735Y-32199D01*
X33706Y-32156D01*
X33669Y-32119D01*
X33626Y-32090D01*
X33578Y-32070D01*
X33527Y-32060D01*
X33475Y-32059D01*
X33424Y-32069D01*
X33376Y-32089D01*
X33333Y-32117D01*
X33296Y-32153D01*
X33266Y-32196D01*
X33246Y-32244D01*
X33235Y-32295D01*
X33234Y-32347D01*
X33244Y-32398D01*
X33260Y-32438D01*
X33260Y-34142D01*
X33250Y-34138D01*
X33223Y-34132D01*
X33195Y-34132D01*
X32761Y-34132D01*
X32740Y-34136D01*
X32740Y-32462D01*
X32752Y-32434D01*
X32764Y-32383D01*
X32765Y-32324D01*
X32754Y-32273D01*
X32735Y-32224D01*
X32706Y-32181D01*
X32669Y-32144D01*
X32626Y-32115D01*
X32578Y-32095D01*
X32527Y-32085D01*
X32475Y-32084D01*
X32424Y-32094D01*
X32376Y-32114D01*
X32333Y-32142D01*
X32296Y-32178D01*
X32266Y-32221D01*
X32246Y-32269D01*
X32235Y-32320D01*
X32234Y-32372D01*
X32244Y-32423D01*
X32260Y-32463D01*
X32260Y-34137D01*
X32239Y-34132D01*
X32211Y-34132D01*
X31777Y-34132D01*
X31750Y-34137D01*
X31725Y-34148D01*
X31702Y-34163D01*
X31682Y-34182D01*
X31667Y-34205D01*
X31656Y-34231D01*
X31651Y-34257D01*
X31651Y-34285D01*
X31651Y-34679D01*
X31656Y-34706D01*
X31667Y-34731D01*
X31682Y-34754D01*
X31701Y-34774D01*
X31724Y-34789D01*
X31749Y-34800D01*
X31764Y-34803D01*
X31750Y-34805D01*
X31725Y-34816D01*
X31702Y-34831D01*
X31682Y-34850D01*
X31667Y-34873D01*
X31656Y-34899D01*
X31651Y-34925D01*
X31651Y-34953D01*
X31651Y-35347D01*
X31656Y-35374D01*
X31667Y-35399D01*
X31682Y-35422D01*
X31701Y-35442D01*
X31724Y-35457D01*
X31749Y-35468D01*
X31760Y-35470D01*
X31760Y-35631D01*
X31722Y-35655D01*
X31661Y-35715D01*
X31612Y-35787D01*
X31578Y-35866D01*
X31560Y-35950D01*
X31559Y-36036D01*
X31574Y-36121D01*
X31606Y-36202D01*
X31653Y-36274D01*
X31713Y-36336D01*
X31784Y-36385D01*
X31863Y-36420D01*
X31947Y-36439D01*
X32033Y-36440D01*
X32118Y-36425D01*
X32199Y-36394D01*
X32272Y-36348D01*
X32334Y-36288D01*
X32384Y-36218D01*
X32419Y-36139D01*
X32438Y-36055D01*
X32440Y-35956D01*
X32423Y-35872D01*
X32390Y-35792D01*
X32342Y-35720D01*
X32281Y-35659D01*
X32240Y-35631D01*
X32240Y-35473D01*
X32265Y-35468D01*
X32290Y-35457D01*
X32313Y-35442D01*
X32332Y-35423D01*
X32348Y-35400D01*
X32358Y-35375D01*
X32364Y-35348D01*
X32364Y-35320D01*
X32364Y-35153D01*
X32370Y-35157D01*
X32417Y-35178D01*
X32468Y-35189D01*
X32520Y-35190D01*
X32571Y-35181D01*
X32620Y-35162D01*
X32635Y-35152D01*
X32635Y-35347D01*
X32640Y-35374D01*
X32651Y-35399D01*
X32666Y-35422D01*
X32685Y-35442D01*
X32708Y-35457D01*
X32734Y-35468D01*
X32752Y-35471D01*
X32752Y-35636D01*
X32722Y-35655D01*
X32661Y-35715D01*
X32612Y-35787D01*
X32578Y-35866D01*
X32560Y-35950D01*
X32559Y-36036D01*
X32574Y-36121D01*
X32606Y-36202D01*
X32653Y-36274D01*
X32713Y-36336D01*
X32784Y-36385D01*
X32863Y-36420D01*
X32947Y-36439D01*
X33033Y-36440D01*
X33118Y-36425D01*
X33199Y-36394D01*
X33272Y-36348D01*
X33334Y-36288D01*
X33384Y-36218D01*
X33419Y-36139D01*
X33438Y-36055D01*
X33440Y-35956D01*
X33423Y-35872D01*
X33390Y-35792D01*
X33342Y-35720D01*
X33281Y-35659D01*
X33232Y-35625D01*
X33232Y-35471D01*
X33249Y-35468D01*
X33274Y-35457D01*
X33297Y-35442D01*
X33317Y-35423D01*
X33332Y-35400D01*
X33343Y-35375D01*
X33348Y-35348D01*
X33348Y-35320D01*
X33348Y-35142D01*
X33370Y-35157D01*
X33417Y-35178D01*
X33468Y-35189D01*
X33520Y-35190D01*
X33571Y-35181D01*
X33620Y-35162D01*
X33639Y-35150D01*
X33639Y-35347D01*
X33644Y-35374D01*
X33655Y-35399D01*
X33670Y-35422D01*
X33689Y-35442D01*
X33712Y-35457D01*
X33737Y-35468D01*
X33756Y-35471D01*
X33756Y-35633D01*
X33722Y-35655D01*
X33661Y-35715D01*
X33612Y-35787D01*
X33578Y-35866D01*
X33560Y-35950D01*
X33559Y-36036D01*
X33574Y-36121D01*
X33606Y-36202D01*
X33653Y-36274D01*
X33713Y-36336D01*
X33784Y-36385D01*
X33863Y-36420D01*
X33947Y-36439D01*
X34033Y-36440D01*
X34118Y-36425D01*
X34199Y-36394D01*
X34272Y-36348D01*
X34334Y-36288D01*
X34384Y-36218D01*
X34419Y-36139D01*
X34438Y-36055D01*
X34440Y-35956D01*
X34423Y-35872D01*
X34390Y-35792D01*
X34342Y-35720D01*
X34281Y-35659D01*
X34236Y-35628D01*
X34236Y-35471D01*
X34253Y-35468D01*
X34278Y-35457D01*
X34301Y-35442D01*
X34320Y-35423D01*
X34336Y-35400D01*
X34346Y-35375D01*
X34352Y-35348D01*
X34352Y-35320D01*
X34352Y-35160D01*
X34392Y-35178D01*
X34443Y-35189D01*
X34495Y-35190D01*
X34546Y-35181D01*
X34595Y-35162D01*
X34638Y-35134D01*
X34643Y-35130D01*
X34643Y-35347D01*
X34648Y-35374D01*
X34659Y-35399D01*
X34674Y-35422D01*
X34693Y-35442D01*
X34716Y-35457D01*
X34741Y-35468D01*
X34760Y-35471D01*
X34760Y-35631D01*
X34722Y-35655D01*
X34661Y-35715D01*
X34612Y-35787D01*
X34578Y-35866D01*
X34560Y-35950D01*
X34559Y-36036D01*
X34574Y-36121D01*
X34606Y-36202D01*
X34653Y-36274D01*
X34713Y-36336D01*
X34784Y-36385D01*
X34863Y-36420D01*
X34947Y-36439D01*
X35033Y-36440D01*
X35118Y-36425D01*
X35199Y-36394D01*
X35272Y-36348D01*
X35334Y-36288D01*
X35384Y-36218D01*
X35419Y-36139D01*
X35438Y-36055D01*
X35440Y-35956D01*
X35423Y-35872D01*
X35390Y-35792D01*
X35342Y-35720D01*
X35281Y-35659D01*
X35240Y-35631D01*
X35240Y-35471D01*
X35257Y-35468D01*
X35282Y-35457D01*
X35305Y-35442D01*
X35324Y-35423D01*
X35340Y-35400D01*
X35350Y-35375D01*
X35356Y-35348D01*
X35356Y-35320D01*
X35356Y-35105D01*
X35395Y-35132D01*
X35442Y-35153D01*
X35493Y-35164D01*
X35545Y-35165D01*
X35596Y-35156D01*
X35645Y-35137D01*
X35647Y-35136D01*
X35647Y-35347D01*
X35652Y-35374D01*
X35663Y-35399D01*
X35678Y-35422D01*
X35697Y-35442D01*
X35720Y-35457D01*
X35745Y-35468D01*
X35763Y-35471D01*
X35763Y-35628D01*
X35722Y-35655D01*
X35661Y-35715D01*
X35612Y-35787D01*
X35578Y-35866D01*
X35560Y-35950D01*
X35559Y-36036D01*
X35574Y-36121D01*
X35606Y-36202D01*
X35653Y-36274D01*
X35713Y-36336D01*
X35784Y-36385D01*
X35863Y-36420D01*
X35947Y-36439D01*
X36033Y-36440D01*
X36118Y-36425D01*
X36199Y-36394D01*
X36272Y-36348D01*
X36334Y-36288D01*
X36384Y-36218D01*
X36419Y-36139D01*
X36438Y-36055D01*
X36440Y-35956D01*
X36423Y-35872D01*
X36390Y-35792D01*
X36342Y-35720D01*
X36281Y-35659D01*
X36243Y-35633D01*
X36243Y-35471D01*
X36261Y-35468D01*
X36286Y-35457D01*
X36309Y-35442D01*
X36328Y-35423D01*
X36344Y-35400D01*
X36354Y-35375D01*
X36360Y-35348D01*
X36360Y-35320D01*
X36360Y-35125D01*
X36370Y-35132D01*
X36417Y-35153D01*
X36468Y-35164D01*
X36520Y-35165D01*
X36571Y-35156D01*
X36620Y-35137D01*
X36651Y-35117D01*
X36651Y-35347D01*
X36656Y-35374D01*
X36667Y-35399D01*
X36682Y-35422D01*
X36701Y-35442D01*
X36724Y-35457D01*
X36749Y-35468D01*
X36767Y-35471D01*
X36767Y-35626D01*
X36722Y-35655D01*
X36661Y-35715D01*
X36612Y-35787D01*
X36578Y-35866D01*
X36560Y-35950D01*
X36559Y-36036D01*
X36574Y-36121D01*
X36606Y-36202D01*
X36653Y-36274D01*
X36713Y-36336D01*
X36784Y-36385D01*
X36863Y-36420D01*
X36947Y-36439D01*
X37033Y-36440D01*
X37118Y-36425D01*
X37199Y-36394D01*
X37272Y-36348D01*
X37334Y-36288D01*
X37384Y-36218D01*
X37419Y-36139D01*
X37438Y-36055D01*
X37440Y-35956D01*
X37423Y-35872D01*
X37390Y-35792D01*
X37342Y-35720D01*
X37281Y-35659D01*
X37247Y-35636D01*
X37247Y-35471D01*
X37265Y-35468D01*
X37290Y-35457D01*
X37313Y-35442D01*
X37332Y-35423D01*
X37348Y-35400D01*
X37358Y-35375D01*
X37364Y-35348D01*
X37364Y-35320D01*
X37364Y-35111D01*
X37395Y-35132D01*
X37442Y-35153D01*
X37493Y-35164D01*
X37545Y-35165D01*
X37596Y-35156D01*
X37635Y-35141D01*
X37635Y-35347D01*
X37640Y-35374D01*
X37651Y-35399D01*
X37666Y-35422D01*
X37685Y-35442D01*
X37708Y-35457D01*
X37734Y-35468D01*
X37752Y-35471D01*
X37752Y-35636D01*
X37722Y-35655D01*
X37661Y-35715D01*
X37612Y-35787D01*
X37578Y-35866D01*
X37560Y-35950D01*
X37559Y-36036D01*
X37574Y-36121D01*
X37606Y-36202D01*
X37653Y-36274D01*
X37713Y-36336D01*
X37784Y-36385D01*
X37863Y-36420D01*
X37947Y-36439D01*
X38033Y-36440D01*
X38118Y-36425D01*
X38199Y-36394D01*
X38272Y-36348D01*
X38334Y-36288D01*
X38384Y-36218D01*
X38419Y-36139D01*
X38438Y-36055D01*
X38440Y-35956D01*
X38423Y-35872D01*
X38390Y-35792D01*
X38342Y-35720D01*
X38281Y-35659D01*
X38232Y-35625D01*
X38232Y-35471D01*
X38249Y-35468D01*
X38274Y-35457D01*
X38297Y-35442D01*
X38317Y-35423D01*
X38332Y-35400D01*
X38343Y-35375D01*
X38348Y-35348D01*
X38348Y-35320D01*
X38348Y-35117D01*
X38370Y-35132D01*
X38417Y-35153D01*
X38468Y-35164D01*
X38520Y-35165D01*
X38571Y-35156D01*
X38620Y-35137D01*
X38639Y-35125D01*
X38639Y-35347D01*
X38644Y-35374D01*
X38655Y-35399D01*
X38670Y-35422D01*
X38689Y-35442D01*
X38712Y-35457D01*
X38737Y-35468D01*
X38756Y-35471D01*
X38756Y-35633D01*
X38722Y-35655D01*
X38661Y-35715D01*
X38612Y-35787D01*
X38578Y-35866D01*
X38560Y-35950D01*
X38559Y-36036D01*
X38574Y-36121D01*
X38606Y-36202D01*
X38653Y-36274D01*
X38713Y-36336D01*
X38784Y-36385D01*
X38863Y-36420D01*
X38947Y-36439D01*
X39033Y-36440D01*
X39118Y-36425D01*
X39199Y-36394D01*
X39272Y-36348D01*
X39334Y-36288D01*
X39384Y-36218D01*
X39419Y-36139D01*
X39438Y-36055D01*
X39440Y-35956D01*
X39423Y-35872D01*
X39390Y-35792D01*
X39342Y-35720D01*
X39281Y-35659D01*
X39236Y-35628D01*
X39236Y-35471D01*
X39253Y-35468D01*
X39278Y-35457D01*
X39301Y-35442D01*
X39320Y-35423D01*
X39336Y-35400D01*
X39346Y-35375D01*
X39352Y-35348D01*
X39352Y-35320D01*
X39352Y-35077D01*
X39377Y-35102D01*
X39420Y-35132D01*
X39467Y-35153D01*
X39518Y-35164D01*
X39570Y-35165D01*
X39621Y-35156D01*
X39670Y-35137D01*
X39713Y-35109D01*
X39751Y-35073D01*
X39781Y-35031D01*
X39802Y-34984D01*
X39814Y-34933D01*
X39815Y-34874D01*
X39815Y-35561D01*
X39686Y-35561D01*
X39659Y-35566D01*
X39634Y-35577D01*
X39612Y-35592D01*
X39592Y-35611D01*
X39577Y-35633D01*
X39567Y-35658D01*
X39561Y-35685D01*
X39561Y-35712D01*
X39561Y-35906D01*
X39596Y-35941D01*
X39941Y-35941D01*
X39941Y-36058D01*
X39596Y-36058D01*
X39561Y-36093D01*
X39561Y-36287D01*
X39561Y-36314D01*
X39567Y-36341D01*
X39577Y-36366D01*
X39592Y-36388D01*
X39612Y-36407D01*
X39634Y-36422D01*
X39659Y-36433D01*
X39686Y-36438D01*
X39906Y-36438D01*
X39941Y-36403D01*
X39941Y-36495D01*
X31496Y-36495D01*
X31496Y-31949D01*
X40471Y-31949D01*
X40471Y-36495D01*
X40471Y-36495D01*
G37*
G54D16*
X40471Y-36495D02*
X40438Y-36495D01*
X40438Y-36287D01*
X40438Y-35712D01*
X40438Y-35685D01*
X40432Y-35658D01*
X40422Y-35633D01*
X40407Y-35611D01*
X40387Y-35592D01*
X40365Y-35577D01*
X40340Y-35566D01*
X40313Y-35561D01*
X40093Y-35561D01*
X40058Y-35596D01*
X40058Y-35941D01*
X40403Y-35941D01*
X40438Y-35906D01*
X40438Y-35712D01*
X40438Y-36287D01*
X40438Y-36093D01*
X40403Y-36058D01*
X40058Y-36058D01*
X40058Y-36403D01*
X40093Y-36438D01*
X40313Y-36438D01*
X40340Y-36433D01*
X40365Y-36422D01*
X40387Y-36407D01*
X40407Y-36388D01*
X40422Y-36366D01*
X40432Y-36341D01*
X40438Y-36314D01*
X40438Y-36287D01*
X40438Y-36495D01*
X39941Y-36495D01*
X39941Y-36403D01*
X39941Y-36058D01*
X39941Y-35941D01*
X39941Y-35596D01*
X39906Y-35561D01*
X39815Y-35561D01*
X39815Y-34874D01*
X39804Y-34823D01*
X39790Y-34786D01*
X39790Y-34450D01*
X39790Y-32437D01*
X39802Y-32409D01*
X39814Y-32358D01*
X39815Y-32299D01*
X39804Y-32248D01*
X39785Y-32199D01*
X39756Y-32156D01*
X39719Y-32119D01*
X39676Y-32090D01*
X39628Y-32070D01*
X39577Y-32060D01*
X39525Y-32059D01*
X39474Y-32069D01*
X39426Y-32089D01*
X39383Y-32117D01*
X39346Y-32153D01*
X39316Y-32196D01*
X39296Y-32244D01*
X39285Y-32295D01*
X39284Y-32347D01*
X39294Y-32398D01*
X39310Y-32438D01*
X39310Y-34172D01*
X39302Y-34164D01*
X39279Y-34148D01*
X39254Y-34138D01*
X39227Y-34132D01*
X39199Y-34132D01*
X38765Y-34132D01*
X38740Y-34137D01*
X38740Y-32462D01*
X38752Y-32434D01*
X38764Y-32383D01*
X38765Y-32324D01*
X38754Y-32273D01*
X38735Y-32224D01*
X38706Y-32181D01*
X38669Y-32144D01*
X38626Y-32115D01*
X38578Y-32095D01*
X38527Y-32085D01*
X38475Y-32084D01*
X38424Y-32094D01*
X38376Y-32114D01*
X38333Y-32142D01*
X38296Y-32178D01*
X38266Y-32221D01*
X38246Y-32269D01*
X38235Y-32320D01*
X38234Y-32372D01*
X38244Y-32423D01*
X38260Y-32463D01*
X38260Y-34142D01*
X38250Y-34138D01*
X38223Y-34132D01*
X38195Y-34132D01*
X37765Y-34132D01*
X37765Y-32437D01*
X37777Y-32409D01*
X37789Y-32358D01*
X37790Y-32299D01*
X37779Y-32248D01*
X37760Y-32199D01*
X37731Y-32156D01*
X37694Y-32119D01*
X37651Y-32090D01*
X37603Y-32070D01*
X37552Y-32060D01*
X37500Y-32059D01*
X37449Y-32069D01*
X37401Y-32089D01*
X37358Y-32117D01*
X37321Y-32153D01*
X37291Y-32196D01*
X37271Y-32244D01*
X37260Y-32295D01*
X37259Y-32347D01*
X37269Y-32398D01*
X37285Y-32438D01*
X37285Y-34146D01*
X37265Y-34138D01*
X37239Y-34132D01*
X37211Y-34132D01*
X36777Y-34132D01*
X36750Y-34137D01*
X36740Y-34142D01*
X36740Y-32437D01*
X36752Y-32409D01*
X36764Y-32358D01*
X36765Y-32299D01*
X36754Y-32248D01*
X36735Y-32199D01*
X36706Y-32156D01*
X36669Y-32119D01*
X36626Y-32090D01*
X36578Y-32070D01*
X36527Y-32060D01*
X36475Y-32059D01*
X36424Y-32069D01*
X36376Y-32089D01*
X36333Y-32117D01*
X36296Y-32153D01*
X36266Y-32196D01*
X36246Y-32244D01*
X36235Y-32295D01*
X36234Y-32347D01*
X36244Y-32398D01*
X36260Y-32438D01*
X36260Y-34137D01*
X36235Y-34132D01*
X36207Y-34132D01*
X35773Y-34132D01*
X35765Y-34134D01*
X35765Y-32437D01*
X35777Y-32409D01*
X35789Y-32358D01*
X35790Y-32299D01*
X35779Y-32248D01*
X35760Y-32199D01*
X35731Y-32156D01*
X35694Y-32119D01*
X35651Y-32090D01*
X35603Y-32070D01*
X35552Y-32060D01*
X35500Y-32059D01*
X35449Y-32069D01*
X35401Y-32089D01*
X35358Y-32117D01*
X35321Y-32153D01*
X35291Y-32196D01*
X35271Y-32244D01*
X35260Y-32295D01*
X35259Y-32347D01*
X35269Y-32398D01*
X35285Y-32438D01*
X35285Y-34149D01*
X35283Y-34148D01*
X35258Y-34138D01*
X35231Y-34132D01*
X35203Y-34132D01*
X34769Y-34132D01*
X34742Y-34137D01*
X34717Y-34148D01*
X34715Y-34150D01*
X34715Y-32437D01*
X34727Y-32409D01*
X34739Y-32358D01*
X34740Y-32299D01*
X34729Y-32248D01*
X34710Y-32199D01*
X34681Y-32156D01*
X34644Y-32119D01*
X34601Y-32090D01*
X34553Y-32070D01*
X34502Y-32060D01*
X34450Y-32059D01*
X34399Y-32069D01*
X34351Y-32089D01*
X34308Y-32117D01*
X34271Y-32153D01*
X34241Y-32196D01*
X34221Y-32244D01*
X34210Y-32295D01*
X34209Y-32347D01*
X34219Y-32398D01*
X34235Y-32438D01*
X34235Y-34134D01*
X34227Y-34132D01*
X34199Y-34132D01*
X33765Y-34132D01*
X33740Y-34137D01*
X33740Y-32437D01*
X33752Y-32409D01*
X33764Y-32358D01*
X33765Y-32299D01*
X33754Y-32248D01*
X33735Y-32199D01*
X33706Y-32156D01*
X33669Y-32119D01*
X33626Y-32090D01*
X33578Y-32070D01*
X33527Y-32060D01*
X33475Y-32059D01*
X33424Y-32069D01*
X33376Y-32089D01*
X33333Y-32117D01*
X33296Y-32153D01*
X33266Y-32196D01*
X33246Y-32244D01*
X33235Y-32295D01*
X33234Y-32347D01*
X33244Y-32398D01*
X33260Y-32438D01*
X33260Y-34142D01*
X33250Y-34138D01*
X33223Y-34132D01*
X33195Y-34132D01*
X32761Y-34132D01*
X32740Y-34136D01*
X32740Y-32462D01*
X32752Y-32434D01*
X32764Y-32383D01*
X32765Y-32324D01*
X32754Y-32273D01*
X32735Y-32224D01*
X32706Y-32181D01*
X32669Y-32144D01*
X32626Y-32115D01*
X32578Y-32095D01*
X32527Y-32085D01*
X32475Y-32084D01*
X32424Y-32094D01*
X32376Y-32114D01*
X32333Y-32142D01*
X32296Y-32178D01*
X32266Y-32221D01*
X32246Y-32269D01*
X32235Y-32320D01*
X32234Y-32372D01*
X32244Y-32423D01*
X32260Y-32463D01*
X32260Y-34137D01*
X32239Y-34132D01*
X32211Y-34132D01*
X31777Y-34132D01*
X31750Y-34137D01*
X31725Y-34148D01*
X31702Y-34163D01*
X31682Y-34182D01*
X31667Y-34205D01*
X31656Y-34231D01*
X31651Y-34257D01*
X31651Y-34285D01*
X31651Y-34679D01*
X31656Y-34706D01*
X31667Y-34731D01*
X31682Y-34754D01*
X31701Y-34774D01*
X31724Y-34789D01*
X31749Y-34800D01*
X31764Y-34803D01*
X31750Y-34805D01*
X31725Y-34816D01*
X31702Y-34831D01*
X31682Y-34850D01*
X31667Y-34873D01*
X31656Y-34899D01*
X31651Y-34925D01*
X31651Y-34953D01*
X31651Y-35347D01*
X31656Y-35374D01*
X31667Y-35399D01*
X31682Y-35422D01*
X31701Y-35442D01*
X31724Y-35457D01*
X31749Y-35468D01*
X31760Y-35470D01*
X31760Y-35631D01*
X31722Y-35655D01*
X31661Y-35715D01*
X31612Y-35787D01*
X31578Y-35866D01*
X31560Y-35950D01*
X31559Y-36036D01*
X31574Y-36121D01*
X31606Y-36202D01*
X31653Y-36274D01*
X31713Y-36336D01*
X31784Y-36385D01*
X31863Y-36420D01*
X31947Y-36439D01*
X32033Y-36440D01*
X32118Y-36425D01*
X32199Y-36394D01*
X32272Y-36348D01*
X32334Y-36288D01*
X32384Y-36218D01*
X32419Y-36139D01*
X32438Y-36055D01*
X32440Y-35956D01*
X32423Y-35872D01*
X32390Y-35792D01*
X32342Y-35720D01*
X32281Y-35659D01*
X32240Y-35631D01*
X32240Y-35473D01*
X32265Y-35468D01*
X32290Y-35457D01*
X32313Y-35442D01*
X32332Y-35423D01*
X32348Y-35400D01*
X32358Y-35375D01*
X32364Y-35348D01*
X32364Y-35320D01*
X32364Y-35153D01*
X32370Y-35157D01*
X32417Y-35178D01*
X32468Y-35189D01*
X32520Y-35190D01*
X32571Y-35181D01*
X32620Y-35162D01*
X32635Y-35152D01*
X32635Y-35347D01*
X32640Y-35374D01*
X32651Y-35399D01*
X32666Y-35422D01*
X32685Y-35442D01*
X32708Y-35457D01*
X32734Y-35468D01*
X32752Y-35471D01*
X32752Y-35636D01*
X32722Y-35655D01*
X32661Y-35715D01*
X32612Y-35787D01*
X32578Y-35866D01*
X32560Y-35950D01*
X32559Y-36036D01*
X32574Y-36121D01*
X32606Y-36202D01*
X32653Y-36274D01*
X32713Y-36336D01*
X32784Y-36385D01*
X32863Y-36420D01*
X32947Y-36439D01*
X33033Y-36440D01*
X33118Y-36425D01*
X33199Y-36394D01*
X33272Y-36348D01*
X33334Y-36288D01*
X33384Y-36218D01*
X33419Y-36139D01*
X33438Y-36055D01*
X33440Y-35956D01*
X33423Y-35872D01*
X33390Y-35792D01*
X33342Y-35720D01*
X33281Y-35659D01*
X33232Y-35625D01*
X33232Y-35471D01*
X33249Y-35468D01*
X33274Y-35457D01*
X33297Y-35442D01*
X33317Y-35423D01*
X33332Y-35400D01*
X33343Y-35375D01*
X33348Y-35348D01*
X33348Y-35320D01*
X33348Y-35142D01*
X33370Y-35157D01*
X33417Y-35178D01*
X33468Y-35189D01*
X33520Y-35190D01*
X33571Y-35181D01*
X33620Y-35162D01*
X33639Y-35150D01*
X33639Y-35347D01*
X33644Y-35374D01*
X33655Y-35399D01*
X33670Y-35422D01*
X33689Y-35442D01*
X33712Y-35457D01*
X33737Y-35468D01*
X33756Y-35471D01*
X33756Y-35633D01*
X33722Y-35655D01*
X33661Y-35715D01*
X33612Y-35787D01*
X33578Y-35866D01*
X33560Y-35950D01*
X33559Y-36036D01*
X33574Y-36121D01*
X33606Y-36202D01*
X33653Y-36274D01*
X33713Y-36336D01*
X33784Y-36385D01*
X33863Y-36420D01*
X33947Y-36439D01*
X34033Y-36440D01*
X34118Y-36425D01*
X34199Y-36394D01*
X34272Y-36348D01*
X34334Y-36288D01*
X34384Y-36218D01*
X34419Y-36139D01*
X34438Y-36055D01*
X34440Y-35956D01*
X34423Y-35872D01*
X34390Y-35792D01*
X34342Y-35720D01*
X34281Y-35659D01*
X34236Y-35628D01*
X34236Y-35471D01*
X34253Y-35468D01*
X34278Y-35457D01*
X34301Y-35442D01*
X34320Y-35423D01*
X34336Y-35400D01*
X34346Y-35375D01*
X34352Y-35348D01*
X34352Y-35320D01*
X34352Y-35160D01*
X34392Y-35178D01*
X34443Y-35189D01*
X34495Y-35190D01*
X34546Y-35181D01*
X34595Y-35162D01*
X34638Y-35134D01*
X34643Y-35130D01*
X34643Y-35347D01*
X34648Y-35374D01*
X34659Y-35399D01*
X34674Y-35422D01*
X34693Y-35442D01*
X34716Y-35457D01*
X34741Y-35468D01*
X34760Y-35471D01*
X34760Y-35631D01*
X34722Y-35655D01*
X34661Y-35715D01*
X34612Y-35787D01*
X34578Y-35866D01*
X34560Y-35950D01*
X34559Y-36036D01*
X34574Y-36121D01*
X34606Y-36202D01*
X34653Y-36274D01*
X34713Y-36336D01*
X34784Y-36385D01*
X34863Y-36420D01*
X34947Y-36439D01*
X35033Y-36440D01*
X35118Y-36425D01*
X35199Y-36394D01*
X35272Y-36348D01*
X35334Y-36288D01*
X35384Y-36218D01*
X35419Y-36139D01*
X35438Y-36055D01*
X35440Y-35956D01*
X35423Y-35872D01*
X35390Y-35792D01*
X35342Y-35720D01*
X35281Y-35659D01*
X35240Y-35631D01*
X35240Y-35471D01*
X35257Y-35468D01*
X35282Y-35457D01*
X35305Y-35442D01*
X35324Y-35423D01*
X35340Y-35400D01*
X35350Y-35375D01*
X35356Y-35348D01*
X35356Y-35320D01*
X35356Y-35105D01*
X35395Y-35132D01*
X35442Y-35153D01*
X35493Y-35164D01*
X35545Y-35165D01*
X35596Y-35156D01*
X35645Y-35137D01*
X35647Y-35136D01*
X35647Y-35347D01*
X35652Y-35374D01*
X35663Y-35399D01*
X35678Y-35422D01*
X35697Y-35442D01*
X35720Y-35457D01*
X35745Y-35468D01*
X35763Y-35471D01*
X35763Y-35628D01*
X35722Y-35655D01*
X35661Y-35715D01*
X35612Y-35787D01*
X35578Y-35866D01*
X35560Y-35950D01*
X35559Y-36036D01*
X35574Y-36121D01*
X35606Y-36202D01*
X35653Y-36274D01*
X35713Y-36336D01*
X35784Y-36385D01*
X35863Y-36420D01*
X35947Y-36439D01*
X36033Y-36440D01*
X36118Y-36425D01*
X36199Y-36394D01*
X36272Y-36348D01*
X36334Y-36288D01*
X36384Y-36218D01*
X36419Y-36139D01*
X36438Y-36055D01*
X36440Y-35956D01*
X36423Y-35872D01*
X36390Y-35792D01*
X36342Y-35720D01*
X36281Y-35659D01*
X36243Y-35633D01*
X36243Y-35471D01*
X36261Y-35468D01*
X36286Y-35457D01*
X36309Y-35442D01*
X36328Y-35423D01*
X36344Y-35400D01*
X36354Y-35375D01*
X36360Y-35348D01*
X36360Y-35320D01*
X36360Y-35125D01*
X36370Y-35132D01*
X36417Y-35153D01*
X36468Y-35164D01*
X36520Y-35165D01*
X36571Y-35156D01*
X36620Y-35137D01*
X36651Y-35117D01*
X36651Y-35347D01*
X36656Y-35374D01*
X36667Y-35399D01*
X36682Y-35422D01*
X36701Y-35442D01*
X36724Y-35457D01*
X36749Y-35468D01*
X36767Y-35471D01*
X36767Y-35626D01*
X36722Y-35655D01*
X36661Y-35715D01*
X36612Y-35787D01*
X36578Y-35866D01*
X36560Y-35950D01*
X36559Y-36036D01*
X36574Y-36121D01*
X36606Y-36202D01*
X36653Y-36274D01*
X36713Y-36336D01*
X36784Y-36385D01*
X36863Y-36420D01*
X36947Y-36439D01*
X37033Y-36440D01*
X37118Y-36425D01*
X37199Y-36394D01*
X37272Y-36348D01*
X37334Y-36288D01*
X37384Y-36218D01*
X37419Y-36139D01*
X37438Y-36055D01*
X37440Y-35956D01*
X37423Y-35872D01*
X37390Y-35792D01*
X37342Y-35720D01*
X37281Y-35659D01*
X37247Y-35636D01*
X37247Y-35471D01*
X37265Y-35468D01*
X37290Y-35457D01*
X37313Y-35442D01*
X37332Y-35423D01*
X37348Y-35400D01*
X37358Y-35375D01*
X37364Y-35348D01*
X37364Y-35320D01*
X37364Y-35111D01*
X37395Y-35132D01*
X37442Y-35153D01*
X37493Y-35164D01*
X37545Y-35165D01*
X37596Y-35156D01*
X37635Y-35141D01*
X37635Y-35347D01*
X37640Y-35374D01*
X37651Y-35399D01*
X37666Y-35422D01*
X37685Y-35442D01*
X37708Y-35457D01*
X37734Y-35468D01*
X37752Y-35471D01*
X37752Y-35636D01*
X37722Y-35655D01*
X37661Y-35715D01*
X37612Y-35787D01*
X37578Y-35866D01*
X37560Y-35950D01*
X37559Y-36036D01*
X37574Y-36121D01*
X37606Y-36202D01*
X37653Y-36274D01*
X37713Y-36336D01*
X37784Y-36385D01*
X37863Y-36420D01*
X37947Y-36439D01*
X38033Y-36440D01*
X38118Y-36425D01*
X38199Y-36394D01*
X38272Y-36348D01*
X38334Y-36288D01*
X38384Y-36218D01*
X38419Y-36139D01*
X38438Y-36055D01*
X38440Y-35956D01*
X38423Y-35872D01*
X38390Y-35792D01*
X38342Y-35720D01*
X38281Y-35659D01*
X38232Y-35625D01*
X38232Y-35471D01*
X38249Y-35468D01*
X38274Y-35457D01*
X38297Y-35442D01*
X38317Y-35423D01*
X38332Y-35400D01*
X38343Y-35375D01*
X38348Y-35348D01*
X38348Y-35320D01*
X38348Y-35117D01*
X38370Y-35132D01*
X38417Y-35153D01*
X38468Y-35164D01*
X38520Y-35165D01*
X38571Y-35156D01*
X38620Y-35137D01*
X38639Y-35125D01*
X38639Y-35347D01*
X38644Y-35374D01*
X38655Y-35399D01*
X38670Y-35422D01*
X38689Y-35442D01*
X38712Y-35457D01*
X38737Y-35468D01*
X38756Y-35471D01*
X38756Y-35633D01*
X38722Y-35655D01*
X38661Y-35715D01*
X38612Y-35787D01*
X38578Y-35866D01*
X38560Y-35950D01*
X38559Y-36036D01*
X38574Y-36121D01*
X38606Y-36202D01*
X38653Y-36274D01*
X38713Y-36336D01*
X38784Y-36385D01*
X38863Y-36420D01*
X38947Y-36439D01*
X39033Y-36440D01*
X39118Y-36425D01*
X39199Y-36394D01*
X39272Y-36348D01*
X39334Y-36288D01*
X39384Y-36218D01*
X39419Y-36139D01*
X39438Y-36055D01*
X39440Y-35956D01*
X39423Y-35872D01*
X39390Y-35792D01*
X39342Y-35720D01*
X39281Y-35659D01*
X39236Y-35628D01*
X39236Y-35471D01*
X39253Y-35468D01*
X39278Y-35457D01*
X39301Y-35442D01*
X39320Y-35423D01*
X39336Y-35400D01*
X39346Y-35375D01*
X39352Y-35348D01*
X39352Y-35320D01*
X39352Y-35077D01*
X39377Y-35102D01*
X39420Y-35132D01*
X39467Y-35153D01*
X39518Y-35164D01*
X39570Y-35165D01*
X39621Y-35156D01*
X39670Y-35137D01*
X39713Y-35109D01*
X39751Y-35073D01*
X39781Y-35031D01*
X39802Y-34984D01*
X39814Y-34933D01*
X39815Y-34874D01*
X39815Y-35561D01*
X39686Y-35561D01*
X39659Y-35566D01*
X39634Y-35577D01*
X39612Y-35592D01*
X39592Y-35611D01*
X39577Y-35633D01*
X39567Y-35658D01*
X39561Y-35685D01*
X39561Y-35712D01*
X39561Y-35906D01*
X39596Y-35941D01*
X39941Y-35941D01*
X39941Y-36058D01*
X39596Y-36058D01*
X39561Y-36093D01*
X39561Y-36287D01*
X39561Y-36314D01*
X39567Y-36341D01*
X39577Y-36366D01*
X39592Y-36388D01*
X39612Y-36407D01*
X39634Y-36422D01*
X39659Y-36433D01*
X39686Y-36438D01*
X39906Y-36438D01*
X39941Y-36403D01*
X39941Y-36495D01*
X31496Y-36495D01*
X31496Y-31949D01*
X40471Y-31949D01*
X40471Y-36495D01*
M02*
