G04 (created by PCBNEW (2012-12-10 BZR 3841)-testing) date Mon 10 Dec 2012 09:45:11 PM CET*
%MOIN*%
G04 Gerber Fmt 3.4, Leading zero omitted, Abs format*
%FSLAX34Y34*%
G01*
G70*
G90*
G04 APERTURE LIST*
%ADD10C,0.006*%
%ADD11R,0.055X0.055*%
%ADD12C,0.055*%
%ADD13R,0.0433X0.0393*%
%ADD14C,0.025*%
%ADD15C,0.02*%
G04 APERTURE END LIST*
G54D10*
G54D11*
X40000Y-36000D03*
G54D12*
X39000Y-36000D03*
X38000Y-36000D03*
X37000Y-36000D03*
X36000Y-36000D03*
X35000Y-36000D03*
X34000Y-36000D03*
X33000Y-36000D03*
X32000Y-36000D03*
G54D13*
X37992Y-35137D03*
X37992Y-34469D03*
X37007Y-35137D03*
X37007Y-34469D03*
X36003Y-35137D03*
X36003Y-34469D03*
X35000Y-35137D03*
X35000Y-34469D03*
X33996Y-35137D03*
X33996Y-34469D03*
X32992Y-35137D03*
X32992Y-34469D03*
X32007Y-35137D03*
X32007Y-34469D03*
X38996Y-35137D03*
X38996Y-34469D03*
G54D14*
X33500Y-34925D03*
X33500Y-32325D03*
X38500Y-34900D03*
X38500Y-32350D03*
X39550Y-34900D03*
X39550Y-32325D03*
X32500Y-34925D03*
X32500Y-32350D03*
X36500Y-34900D03*
X36500Y-32325D03*
X34475Y-34925D03*
X34475Y-32325D03*
X35525Y-34900D03*
X35525Y-32325D03*
X37525Y-34900D03*
X37525Y-32325D03*
G54D15*
X32992Y-34469D02*
X33500Y-34469D01*
X33475Y-34475D02*
X33500Y-34475D01*
X33494Y-34475D02*
X33475Y-34475D01*
X33500Y-34469D02*
X33494Y-34475D01*
X33500Y-32325D02*
X33500Y-34475D01*
X33500Y-34475D02*
X33500Y-34925D01*
X37992Y-34469D02*
X38500Y-34469D01*
X38475Y-34475D02*
X38500Y-34475D01*
X38494Y-34475D02*
X38475Y-34475D01*
X38500Y-34469D02*
X38494Y-34475D01*
X38500Y-32350D02*
X38500Y-34475D01*
X38500Y-34475D02*
X38500Y-34900D01*
X38996Y-34469D02*
X39550Y-34469D01*
X39525Y-34450D02*
X39550Y-34450D01*
X39530Y-34450D02*
X39525Y-34450D01*
X39550Y-34469D02*
X39530Y-34450D01*
X39550Y-32325D02*
X39550Y-34450D01*
X39550Y-34450D02*
X39550Y-34900D01*
X32007Y-34469D02*
X32480Y-34469D01*
X32480Y-34469D02*
X32500Y-34450D01*
X32500Y-32350D02*
X32500Y-34450D01*
X32500Y-34450D02*
X32500Y-34925D01*
X36003Y-34469D02*
X36500Y-34469D01*
X36475Y-34450D02*
X36500Y-34450D01*
X36480Y-34450D02*
X36475Y-34450D01*
X36500Y-34469D02*
X36480Y-34450D01*
X36500Y-32325D02*
X36500Y-34450D01*
X36500Y-34450D02*
X36500Y-34900D01*
X33996Y-34469D02*
X34475Y-34469D01*
X34450Y-34450D02*
X34475Y-34450D01*
X34455Y-34450D02*
X34450Y-34450D01*
X34475Y-34469D02*
X34455Y-34450D01*
X34475Y-32325D02*
X34475Y-34450D01*
X34475Y-34450D02*
X34475Y-34925D01*
X35000Y-34469D02*
X35525Y-34469D01*
X35525Y-34469D02*
X35525Y-34475D01*
X35525Y-32325D02*
X35525Y-34475D01*
X35525Y-34475D02*
X35525Y-34900D01*
X37007Y-34469D02*
X37525Y-34469D01*
X37475Y-34475D02*
X37525Y-34475D01*
X37519Y-34475D02*
X37475Y-34475D01*
X37525Y-34469D02*
X37519Y-34475D01*
X37525Y-32325D02*
X37525Y-34475D01*
X37525Y-34475D02*
X37525Y-34900D01*
X38996Y-35137D02*
X38996Y-35996D01*
X38996Y-35996D02*
X39000Y-36000D01*
X37992Y-35137D02*
X37992Y-35992D01*
X37992Y-35992D02*
X38000Y-36000D01*
X37007Y-35137D02*
X37007Y-35992D01*
X37007Y-35992D02*
X37000Y-36000D01*
X36003Y-35137D02*
X36003Y-35996D01*
X36003Y-35996D02*
X36000Y-36000D01*
X32000Y-36000D02*
X32000Y-35145D01*
X32000Y-35145D02*
X32007Y-35137D01*
X32992Y-35137D02*
X32992Y-35992D01*
X32992Y-35992D02*
X33000Y-36000D01*
X33996Y-35137D02*
X33996Y-35996D01*
X33996Y-35996D02*
X34000Y-36000D01*
X35000Y-35137D02*
X35000Y-36000D01*
M02*
