G04 (created by PCBNEW (2012-12-10 BZR 3841)-testing) date Mon 10 Dec 2012 09:45:11 PM CET*
%MOIN*%
G04 Gerber Fmt 3.4, Leading zero omitted, Abs format*
%FSLAX34Y34*%
G01*
G70*
G90*
G04 APERTURE LIST*
%ADD10C,0.006*%
%ADD11R,0.055X0.055*%
%ADD12C,0.055*%
%ADD13R,0.0472X0.0472*%
%ADD14C,0.025*%
%ADD15C,0.02*%
G04 APERTURE END LIST*
G54D10*
G54D11*
X40000Y-36000D03*
G54D12*
X39000Y-36000D03*
X38000Y-36000D03*
X37000Y-36000D03*
X36000Y-36000D03*
X35000Y-36000D03*
X34000Y-36000D03*
X33000Y-36000D03*
X32000Y-36000D03*
G54D13*
X32000Y-34087D03*
X32000Y-34913D03*
X38000Y-34087D03*
X38000Y-34913D03*
X33000Y-34087D03*
X33000Y-34913D03*
X34000Y-34087D03*
X34000Y-34913D03*
X35000Y-34087D03*
X35000Y-34913D03*
X36000Y-34087D03*
X36000Y-34913D03*
X37000Y-34087D03*
X37000Y-34913D03*
X39000Y-34087D03*
X39000Y-34913D03*
X32000Y-32337D03*
X32000Y-33163D03*
X33000Y-32337D03*
X33000Y-33163D03*
X34000Y-32337D03*
X34000Y-33163D03*
X35000Y-32337D03*
X35000Y-33163D03*
X36000Y-32337D03*
X36000Y-33163D03*
X37000Y-32337D03*
X37000Y-33163D03*
X38000Y-32337D03*
X38000Y-33163D03*
X39000Y-32337D03*
X39000Y-33163D03*
G54D14*
X33500Y-34925D03*
X33500Y-32325D03*
X38500Y-34900D03*
X38500Y-32350D03*
X39550Y-34900D03*
X39550Y-32325D03*
X32500Y-34925D03*
X32500Y-32350D03*
X36500Y-34900D03*
X36500Y-32325D03*
X34475Y-34925D03*
X34475Y-32325D03*
X35525Y-34900D03*
X35525Y-32325D03*
X37525Y-34900D03*
X37525Y-32325D03*
G54D15*
X33000Y-32337D02*
X33488Y-32337D01*
X33488Y-34913D02*
X33000Y-34913D01*
X33500Y-34925D02*
X33488Y-34913D01*
X33488Y-32337D02*
X33500Y-32325D01*
X38000Y-32337D02*
X38487Y-32337D01*
X38487Y-34913D02*
X38000Y-34913D01*
X38500Y-34900D02*
X38487Y-34913D01*
X38487Y-32337D02*
X38500Y-32350D01*
X39000Y-32337D02*
X39538Y-32337D01*
X39537Y-34913D02*
X39000Y-34913D01*
X39550Y-34900D02*
X39537Y-34913D01*
X39538Y-32337D02*
X39550Y-32325D01*
X32000Y-32337D02*
X32487Y-32337D01*
X32488Y-34913D02*
X32000Y-34913D01*
X32500Y-34925D02*
X32488Y-34913D01*
X32487Y-32337D02*
X32500Y-32350D01*
X36000Y-32337D02*
X36488Y-32337D01*
X36487Y-34913D02*
X36000Y-34913D01*
X36500Y-34900D02*
X36487Y-34913D01*
X36488Y-32337D02*
X36500Y-32325D01*
X34000Y-32337D02*
X34463Y-32337D01*
X34463Y-34913D02*
X34000Y-34913D01*
X34475Y-34925D02*
X34463Y-34913D01*
X34463Y-32337D02*
X34475Y-32325D01*
X35000Y-32337D02*
X35513Y-32337D01*
X35512Y-34913D02*
X35000Y-34913D01*
X35525Y-34900D02*
X35512Y-34913D01*
X35513Y-32337D02*
X35525Y-32325D01*
X37000Y-32337D02*
X37513Y-32337D01*
X37512Y-34913D02*
X37000Y-34913D01*
X37525Y-34900D02*
X37512Y-34913D01*
X37513Y-32337D02*
X37525Y-32325D01*
X39000Y-34087D02*
X39337Y-34087D01*
X40000Y-34750D02*
X40000Y-36000D01*
X39337Y-34087D02*
X40000Y-34750D01*
X32000Y-33163D02*
X33000Y-33163D01*
X38000Y-33163D02*
X38000Y-34087D01*
X37000Y-33163D02*
X37000Y-34087D01*
X36000Y-33163D02*
X36000Y-34087D01*
X35000Y-34087D02*
X35000Y-33163D01*
X34000Y-33163D02*
X34000Y-34087D01*
X33000Y-33163D02*
X33000Y-34087D01*
X33000Y-33163D02*
X34000Y-33163D01*
X34000Y-33163D02*
X35000Y-33163D01*
X35000Y-33163D02*
X36000Y-33163D01*
X36000Y-33163D02*
X37000Y-33163D01*
X37000Y-33163D02*
X38000Y-33163D01*
X38000Y-33163D02*
X39000Y-33163D01*
X39000Y-33163D02*
X39000Y-34087D01*
X39000Y-34087D02*
X38000Y-34087D01*
X38000Y-34087D02*
X37000Y-34087D01*
X37000Y-34087D02*
X36987Y-34100D01*
X36987Y-34100D02*
X36013Y-34100D01*
X36013Y-34100D02*
X36000Y-34087D01*
X36000Y-34087D02*
X34000Y-34087D01*
X34000Y-34087D02*
X33000Y-34087D01*
X33000Y-34087D02*
X32000Y-34087D01*
X32000Y-34087D02*
X32000Y-33163D01*
M02*
