G04 (created by PCBNEW (2013-01-15 BZR 3905)-testing) date Thu 17 Jan 2013 07:41:06 PM CET*
%MOIN*%
G04 Gerber Fmt 3.4, Leading zero omitted, Abs format*
%FSLAX34Y34*%
G01*
G70*
G90*
G04 APERTURE LIST*
%ADD10C,0.006*%
%ADD11R,0.06X0.06*%
%ADD12C,0.06*%
%ADD13R,0.0472X0.0472*%
%ADD14C,0.025*%
%ADD15C,0.02*%
%ADD16C,0.008*%
G04 APERTURE END LIST*
G54D10*
G54D11*
X40000Y-36000D03*
G54D12*
X39000Y-36000D03*
X38000Y-36000D03*
X37000Y-36000D03*
X36000Y-36000D03*
X35000Y-36000D03*
X34000Y-36000D03*
X33000Y-36000D03*
X32000Y-36000D03*
G54D13*
X32000Y-34087D03*
X32000Y-34913D03*
X38000Y-34087D03*
X38000Y-34913D03*
X33000Y-34087D03*
X33000Y-34913D03*
X34000Y-34087D03*
X34000Y-34913D03*
X35000Y-34087D03*
X35000Y-34913D03*
X36000Y-34087D03*
X36000Y-34913D03*
X37000Y-34087D03*
X37000Y-34913D03*
X39000Y-34087D03*
X39000Y-34913D03*
X32000Y-32337D03*
X32000Y-33163D03*
X33000Y-32337D03*
X33000Y-33163D03*
X34000Y-32337D03*
X34000Y-33163D03*
X35000Y-32337D03*
X35000Y-33163D03*
X36000Y-32337D03*
X36000Y-33163D03*
X37000Y-32337D03*
X37000Y-33163D03*
X38000Y-32337D03*
X38000Y-33163D03*
X39000Y-32337D03*
X39000Y-33163D03*
G54D14*
X33500Y-34925D03*
X33500Y-32325D03*
X38500Y-34900D03*
X38500Y-32350D03*
X39550Y-34900D03*
X39550Y-32325D03*
X32500Y-34925D03*
X32500Y-32350D03*
X36500Y-34900D03*
X36500Y-32325D03*
X34475Y-34925D03*
X34475Y-32325D03*
X35525Y-34900D03*
X35525Y-32325D03*
X37525Y-34900D03*
X37525Y-32325D03*
G54D15*
X33000Y-32337D02*
X33488Y-32337D01*
X33488Y-34913D02*
X33000Y-34913D01*
X33500Y-34925D02*
X33488Y-34913D01*
X33488Y-32337D02*
X33500Y-32325D01*
X38000Y-32337D02*
X38487Y-32337D01*
X38487Y-34913D02*
X38000Y-34913D01*
X38500Y-34900D02*
X38487Y-34913D01*
X38487Y-32337D02*
X38500Y-32350D01*
X39000Y-32337D02*
X39538Y-32337D01*
X39537Y-34913D02*
X39000Y-34913D01*
X39550Y-34900D02*
X39537Y-34913D01*
X39538Y-32337D02*
X39550Y-32325D01*
X32000Y-32337D02*
X32487Y-32337D01*
X32488Y-34913D02*
X32000Y-34913D01*
X32500Y-34925D02*
X32488Y-34913D01*
X32487Y-32337D02*
X32500Y-32350D01*
X36000Y-32337D02*
X36488Y-32337D01*
X36487Y-34913D02*
X36000Y-34913D01*
X36500Y-34900D02*
X36487Y-34913D01*
X36488Y-32337D02*
X36500Y-32325D01*
X34000Y-32337D02*
X34463Y-32337D01*
X34463Y-34913D02*
X34000Y-34913D01*
X34475Y-34925D02*
X34463Y-34913D01*
X34463Y-32337D02*
X34475Y-32325D01*
X35000Y-32337D02*
X35513Y-32337D01*
X35512Y-34913D02*
X35000Y-34913D01*
X35525Y-34900D02*
X35512Y-34913D01*
X35513Y-32337D02*
X35525Y-32325D01*
X37000Y-32337D02*
X37513Y-32337D01*
X37512Y-34913D02*
X37000Y-34913D01*
X37525Y-34900D02*
X37512Y-34913D01*
X37513Y-32337D02*
X37525Y-32325D01*
X39000Y-34087D02*
X39337Y-34087D01*
X40000Y-34750D02*
X40000Y-36000D01*
X39337Y-34087D02*
X40000Y-34750D01*
X32000Y-33163D02*
X33000Y-33163D01*
X38000Y-33163D02*
X38000Y-34087D01*
X37000Y-33163D02*
X37000Y-34087D01*
X36000Y-33163D02*
X36000Y-34087D01*
X35000Y-34087D02*
X35000Y-33163D01*
X34000Y-33163D02*
X34000Y-34087D01*
X33000Y-33163D02*
X33000Y-34087D01*
X33000Y-33163D02*
X34000Y-33163D01*
X34000Y-33163D02*
X35000Y-33163D01*
X35000Y-33163D02*
X36000Y-33163D01*
X36000Y-33163D02*
X37000Y-33163D01*
X37000Y-33163D02*
X38000Y-33163D01*
X38000Y-33163D02*
X39000Y-33163D01*
X39000Y-33163D02*
X39000Y-34087D01*
X39000Y-34087D02*
X38000Y-34087D01*
X38000Y-34087D02*
X37000Y-34087D01*
X37000Y-34087D02*
X36987Y-34100D01*
X36987Y-34100D02*
X36013Y-34100D01*
X36013Y-34100D02*
X36000Y-34087D01*
X36000Y-34087D02*
X34000Y-34087D01*
X34000Y-34087D02*
X33000Y-34087D01*
X33000Y-34087D02*
X32000Y-34087D01*
X32000Y-34087D02*
X32000Y-33163D01*
G54D10*
G36*
X40471Y-36495D02*
X40438Y-36495D01*
X40438Y-36287D01*
X40438Y-35712D01*
X40438Y-35685D01*
X40432Y-35658D01*
X40422Y-35633D01*
X40407Y-35611D01*
X40387Y-35592D01*
X40365Y-35577D01*
X40340Y-35566D01*
X40313Y-35561D01*
X40093Y-35561D01*
X40058Y-35596D01*
X40058Y-35941D01*
X40403Y-35941D01*
X40438Y-35906D01*
X40438Y-35712D01*
X40438Y-36287D01*
X40438Y-36093D01*
X40403Y-36058D01*
X40058Y-36058D01*
X40058Y-36403D01*
X40093Y-36438D01*
X40313Y-36438D01*
X40340Y-36433D01*
X40365Y-36422D01*
X40387Y-36407D01*
X40407Y-36388D01*
X40422Y-36366D01*
X40432Y-36341D01*
X40438Y-36314D01*
X40438Y-36287D01*
X40438Y-36495D01*
X39941Y-36495D01*
X39941Y-36403D01*
X39941Y-36058D01*
X39941Y-35941D01*
X39941Y-35596D01*
X39906Y-35561D01*
X39815Y-35561D01*
X39815Y-34874D01*
X39815Y-32299D01*
X39804Y-32248D01*
X39785Y-32199D01*
X39756Y-32156D01*
X39719Y-32119D01*
X39676Y-32090D01*
X39628Y-32070D01*
X39577Y-32060D01*
X39525Y-32059D01*
X39474Y-32069D01*
X39426Y-32089D01*
X39414Y-32097D01*
X39376Y-32097D01*
X39376Y-32087D01*
X39370Y-32060D01*
X39360Y-32034D01*
X39345Y-32012D01*
X39325Y-31992D01*
X39302Y-31977D01*
X39277Y-31966D01*
X39250Y-31961D01*
X39223Y-31960D01*
X38750Y-31960D01*
X38723Y-31966D01*
X38697Y-31976D01*
X38675Y-31991D01*
X38655Y-32011D01*
X38640Y-32034D01*
X38629Y-32059D01*
X38624Y-32086D01*
X38623Y-32113D01*
X38623Y-32114D01*
X38578Y-32095D01*
X38527Y-32085D01*
X38475Y-32084D01*
X38424Y-32094D01*
X38418Y-32097D01*
X38376Y-32097D01*
X38376Y-32087D01*
X38370Y-32060D01*
X38360Y-32034D01*
X38345Y-32012D01*
X38325Y-31992D01*
X38302Y-31977D01*
X38277Y-31966D01*
X38250Y-31961D01*
X38223Y-31960D01*
X37750Y-31960D01*
X37723Y-31966D01*
X37697Y-31976D01*
X37675Y-31991D01*
X37655Y-32011D01*
X37640Y-32034D01*
X37629Y-32059D01*
X37625Y-32079D01*
X37603Y-32070D01*
X37552Y-32060D01*
X37500Y-32059D01*
X37449Y-32069D01*
X37401Y-32089D01*
X37389Y-32097D01*
X37376Y-32097D01*
X37376Y-32087D01*
X37370Y-32060D01*
X37360Y-32034D01*
X37345Y-32012D01*
X37325Y-31992D01*
X37302Y-31977D01*
X37277Y-31966D01*
X37250Y-31961D01*
X37223Y-31960D01*
X36750Y-31960D01*
X36723Y-31966D01*
X36697Y-31976D01*
X36675Y-31991D01*
X36655Y-32011D01*
X36640Y-32034D01*
X36629Y-32059D01*
X36624Y-32086D01*
X36624Y-32089D01*
X36578Y-32070D01*
X36527Y-32060D01*
X36475Y-32059D01*
X36424Y-32069D01*
X36376Y-32089D01*
X36376Y-32089D01*
X36376Y-32087D01*
X36370Y-32060D01*
X36360Y-32034D01*
X36345Y-32012D01*
X36325Y-31992D01*
X36302Y-31977D01*
X36277Y-31966D01*
X36250Y-31961D01*
X36223Y-31960D01*
X35750Y-31960D01*
X35723Y-31966D01*
X35697Y-31976D01*
X35675Y-31991D01*
X35655Y-32011D01*
X35640Y-32034D01*
X35629Y-32059D01*
X35625Y-32079D01*
X35603Y-32070D01*
X35552Y-32060D01*
X35500Y-32059D01*
X35449Y-32069D01*
X35401Y-32089D01*
X35389Y-32097D01*
X35376Y-32097D01*
X35376Y-32087D01*
X35370Y-32060D01*
X35360Y-32034D01*
X35345Y-32012D01*
X35325Y-31992D01*
X35302Y-31977D01*
X35277Y-31966D01*
X35250Y-31961D01*
X35223Y-31960D01*
X34750Y-31960D01*
X34723Y-31966D01*
X34697Y-31976D01*
X34675Y-31991D01*
X34655Y-32011D01*
X34640Y-32034D01*
X34629Y-32059D01*
X34624Y-32086D01*
X34623Y-32105D01*
X34601Y-32090D01*
X34553Y-32070D01*
X34502Y-32060D01*
X34450Y-32059D01*
X34399Y-32069D01*
X34374Y-32079D01*
X34370Y-32060D01*
X34360Y-32034D01*
X34345Y-32012D01*
X34325Y-31992D01*
X34302Y-31977D01*
X34277Y-31966D01*
X34250Y-31961D01*
X34223Y-31960D01*
X33750Y-31960D01*
X33723Y-31966D01*
X33697Y-31976D01*
X33675Y-31991D01*
X33655Y-32011D01*
X33640Y-32034D01*
X33629Y-32059D01*
X33624Y-32086D01*
X33624Y-32089D01*
X33578Y-32070D01*
X33527Y-32060D01*
X33475Y-32059D01*
X33424Y-32069D01*
X33376Y-32089D01*
X33376Y-32089D01*
X33376Y-32087D01*
X33370Y-32060D01*
X33360Y-32034D01*
X33345Y-32012D01*
X33325Y-31992D01*
X33302Y-31977D01*
X33277Y-31966D01*
X33250Y-31961D01*
X33223Y-31960D01*
X32750Y-31960D01*
X32723Y-31966D01*
X32697Y-31976D01*
X32675Y-31991D01*
X32655Y-32011D01*
X32640Y-32034D01*
X32629Y-32059D01*
X32624Y-32086D01*
X32623Y-32113D01*
X32623Y-32114D01*
X32578Y-32095D01*
X32527Y-32085D01*
X32475Y-32084D01*
X32424Y-32094D01*
X32418Y-32097D01*
X32376Y-32097D01*
X32376Y-32087D01*
X32370Y-32060D01*
X32360Y-32034D01*
X32345Y-32012D01*
X32325Y-31992D01*
X32302Y-31977D01*
X32277Y-31966D01*
X32250Y-31961D01*
X32223Y-31960D01*
X31750Y-31960D01*
X31723Y-31966D01*
X31697Y-31976D01*
X31675Y-31991D01*
X31655Y-32011D01*
X31640Y-32034D01*
X31629Y-32059D01*
X31624Y-32086D01*
X31623Y-32113D01*
X31623Y-32586D01*
X31629Y-32613D01*
X31639Y-32639D01*
X31654Y-32661D01*
X31674Y-32681D01*
X31697Y-32696D01*
X31722Y-32707D01*
X31749Y-32712D01*
X31776Y-32713D01*
X32249Y-32713D01*
X32276Y-32707D01*
X32302Y-32697D01*
X32324Y-32682D01*
X32344Y-32662D01*
X32359Y-32639D01*
X32370Y-32614D01*
X32375Y-32587D01*
X32375Y-32584D01*
X32417Y-32603D01*
X32468Y-32614D01*
X32520Y-32615D01*
X32571Y-32606D01*
X32620Y-32587D01*
X32623Y-32585D01*
X32623Y-32586D01*
X32629Y-32613D01*
X32639Y-32639D01*
X32654Y-32661D01*
X32674Y-32681D01*
X32697Y-32696D01*
X32722Y-32707D01*
X32749Y-32712D01*
X32776Y-32713D01*
X33249Y-32713D01*
X33276Y-32707D01*
X33302Y-32697D01*
X33324Y-32682D01*
X33344Y-32662D01*
X33359Y-32639D01*
X33370Y-32614D01*
X33375Y-32587D01*
X33375Y-32577D01*
X33414Y-32577D01*
X33417Y-32578D01*
X33468Y-32589D01*
X33520Y-32590D01*
X33571Y-32581D01*
X33620Y-32562D01*
X33623Y-32560D01*
X33623Y-32586D01*
X33629Y-32613D01*
X33639Y-32639D01*
X33654Y-32661D01*
X33674Y-32681D01*
X33697Y-32696D01*
X33722Y-32707D01*
X33749Y-32712D01*
X33776Y-32713D01*
X34249Y-32713D01*
X34276Y-32707D01*
X34302Y-32697D01*
X34324Y-32682D01*
X34344Y-32662D01*
X34359Y-32639D01*
X34370Y-32614D01*
X34375Y-32587D01*
X34375Y-32577D01*
X34389Y-32577D01*
X34392Y-32578D01*
X34443Y-32589D01*
X34495Y-32590D01*
X34546Y-32581D01*
X34595Y-32562D01*
X34623Y-32544D01*
X34623Y-32586D01*
X34629Y-32613D01*
X34639Y-32639D01*
X34654Y-32661D01*
X34674Y-32681D01*
X34697Y-32696D01*
X34722Y-32707D01*
X34749Y-32712D01*
X34776Y-32713D01*
X35249Y-32713D01*
X35276Y-32707D01*
X35302Y-32697D01*
X35324Y-32682D01*
X35344Y-32662D01*
X35359Y-32639D01*
X35370Y-32614D01*
X35375Y-32587D01*
X35375Y-32577D01*
X35439Y-32577D01*
X35442Y-32578D01*
X35493Y-32589D01*
X35545Y-32590D01*
X35596Y-32581D01*
X35623Y-32570D01*
X35623Y-32586D01*
X35629Y-32613D01*
X35639Y-32639D01*
X35654Y-32661D01*
X35674Y-32681D01*
X35697Y-32696D01*
X35722Y-32707D01*
X35749Y-32712D01*
X35776Y-32713D01*
X36249Y-32713D01*
X36276Y-32707D01*
X36302Y-32697D01*
X36324Y-32682D01*
X36344Y-32662D01*
X36359Y-32639D01*
X36370Y-32614D01*
X36375Y-32587D01*
X36375Y-32577D01*
X36414Y-32577D01*
X36417Y-32578D01*
X36468Y-32589D01*
X36520Y-32590D01*
X36571Y-32581D01*
X36620Y-32562D01*
X36623Y-32560D01*
X36623Y-32586D01*
X36629Y-32613D01*
X36639Y-32639D01*
X36654Y-32661D01*
X36674Y-32681D01*
X36697Y-32696D01*
X36722Y-32707D01*
X36749Y-32712D01*
X36776Y-32713D01*
X37249Y-32713D01*
X37276Y-32707D01*
X37302Y-32697D01*
X37324Y-32682D01*
X37344Y-32662D01*
X37359Y-32639D01*
X37370Y-32614D01*
X37375Y-32587D01*
X37375Y-32577D01*
X37439Y-32577D01*
X37442Y-32578D01*
X37493Y-32589D01*
X37545Y-32590D01*
X37596Y-32581D01*
X37623Y-32570D01*
X37623Y-32586D01*
X37629Y-32613D01*
X37639Y-32639D01*
X37654Y-32661D01*
X37674Y-32681D01*
X37697Y-32696D01*
X37722Y-32707D01*
X37749Y-32712D01*
X37776Y-32713D01*
X38249Y-32713D01*
X38276Y-32707D01*
X38302Y-32697D01*
X38324Y-32682D01*
X38344Y-32662D01*
X38359Y-32639D01*
X38370Y-32614D01*
X38375Y-32587D01*
X38375Y-32584D01*
X38417Y-32603D01*
X38468Y-32614D01*
X38520Y-32615D01*
X38571Y-32606D01*
X38620Y-32587D01*
X38623Y-32585D01*
X38623Y-32586D01*
X38629Y-32613D01*
X38639Y-32639D01*
X38654Y-32661D01*
X38674Y-32681D01*
X38697Y-32696D01*
X38722Y-32707D01*
X38749Y-32712D01*
X38776Y-32713D01*
X39249Y-32713D01*
X39276Y-32707D01*
X39302Y-32697D01*
X39324Y-32682D01*
X39344Y-32662D01*
X39359Y-32639D01*
X39370Y-32614D01*
X39375Y-32587D01*
X39375Y-32577D01*
X39464Y-32577D01*
X39467Y-32578D01*
X39518Y-32589D01*
X39570Y-32590D01*
X39621Y-32581D01*
X39670Y-32562D01*
X39713Y-32534D01*
X39751Y-32498D01*
X39781Y-32456D01*
X39802Y-32409D01*
X39814Y-32358D01*
X39815Y-32299D01*
X39815Y-34874D01*
X39804Y-34823D01*
X39785Y-34774D01*
X39756Y-34731D01*
X39719Y-34694D01*
X39676Y-34665D01*
X39628Y-34645D01*
X39577Y-34635D01*
X39525Y-34634D01*
X39474Y-34644D01*
X39426Y-34664D01*
X39412Y-34673D01*
X39376Y-34673D01*
X39376Y-34663D01*
X39374Y-34655D01*
X39374Y-34336D01*
X39374Y-33837D01*
X39374Y-33412D01*
X39374Y-32913D01*
X39369Y-32886D01*
X39358Y-32861D01*
X39343Y-32839D01*
X39324Y-32819D01*
X39302Y-32804D01*
X39277Y-32794D01*
X39250Y-32788D01*
X39223Y-32788D01*
X39093Y-32788D01*
X39058Y-32823D01*
X39058Y-33104D01*
X39339Y-33104D01*
X39374Y-33069D01*
X39374Y-32913D01*
X39374Y-33412D01*
X39374Y-33256D01*
X39339Y-33221D01*
X39058Y-33221D01*
X39058Y-33502D01*
X39093Y-33537D01*
X39223Y-33537D01*
X39250Y-33537D01*
X39277Y-33531D01*
X39302Y-33521D01*
X39324Y-33506D01*
X39343Y-33486D01*
X39358Y-33464D01*
X39369Y-33439D01*
X39374Y-33412D01*
X39374Y-33837D01*
X39369Y-33810D01*
X39358Y-33785D01*
X39343Y-33763D01*
X39324Y-33743D01*
X39302Y-33728D01*
X39277Y-33718D01*
X39250Y-33712D01*
X39223Y-33712D01*
X39093Y-33712D01*
X39058Y-33747D01*
X39058Y-34028D01*
X39339Y-34028D01*
X39374Y-33993D01*
X39374Y-33837D01*
X39374Y-34336D01*
X39374Y-34180D01*
X39339Y-34145D01*
X39058Y-34145D01*
X39058Y-34426D01*
X39093Y-34461D01*
X39223Y-34461D01*
X39250Y-34461D01*
X39277Y-34455D01*
X39302Y-34445D01*
X39324Y-34430D01*
X39343Y-34410D01*
X39358Y-34388D01*
X39369Y-34363D01*
X39374Y-34336D01*
X39374Y-34655D01*
X39370Y-34636D01*
X39360Y-34610D01*
X39345Y-34588D01*
X39325Y-34568D01*
X39302Y-34553D01*
X39277Y-34542D01*
X39250Y-34537D01*
X39223Y-34536D01*
X38941Y-34536D01*
X38941Y-34426D01*
X38941Y-34145D01*
X38941Y-34028D01*
X38941Y-33747D01*
X38941Y-33502D01*
X38941Y-33221D01*
X38941Y-33104D01*
X38941Y-32823D01*
X38906Y-32788D01*
X38776Y-32788D01*
X38749Y-32788D01*
X38722Y-32794D01*
X38697Y-32804D01*
X38675Y-32819D01*
X38656Y-32839D01*
X38641Y-32861D01*
X38630Y-32886D01*
X38625Y-32913D01*
X38625Y-33069D01*
X38660Y-33104D01*
X38941Y-33104D01*
X38941Y-33221D01*
X38660Y-33221D01*
X38625Y-33256D01*
X38625Y-33412D01*
X38630Y-33439D01*
X38641Y-33464D01*
X38656Y-33486D01*
X38675Y-33506D01*
X38697Y-33521D01*
X38722Y-33531D01*
X38749Y-33537D01*
X38776Y-33537D01*
X38906Y-33537D01*
X38941Y-33502D01*
X38941Y-33747D01*
X38906Y-33712D01*
X38776Y-33712D01*
X38749Y-33712D01*
X38722Y-33718D01*
X38697Y-33728D01*
X38675Y-33743D01*
X38656Y-33763D01*
X38641Y-33785D01*
X38630Y-33810D01*
X38625Y-33837D01*
X38625Y-33993D01*
X38660Y-34028D01*
X38941Y-34028D01*
X38941Y-34145D01*
X38660Y-34145D01*
X38625Y-34180D01*
X38625Y-34336D01*
X38630Y-34363D01*
X38641Y-34388D01*
X38656Y-34410D01*
X38675Y-34430D01*
X38697Y-34445D01*
X38722Y-34455D01*
X38749Y-34461D01*
X38776Y-34461D01*
X38906Y-34461D01*
X38941Y-34426D01*
X38941Y-34536D01*
X38750Y-34536D01*
X38723Y-34542D01*
X38697Y-34552D01*
X38675Y-34567D01*
X38655Y-34587D01*
X38640Y-34610D01*
X38629Y-34635D01*
X38624Y-34662D01*
X38624Y-34664D01*
X38578Y-34645D01*
X38527Y-34635D01*
X38475Y-34634D01*
X38424Y-34644D01*
X38376Y-34664D01*
X38376Y-34664D01*
X38376Y-34663D01*
X38374Y-34655D01*
X38374Y-34336D01*
X38374Y-33837D01*
X38374Y-33412D01*
X38374Y-32913D01*
X38369Y-32886D01*
X38358Y-32861D01*
X38343Y-32839D01*
X38324Y-32819D01*
X38302Y-32804D01*
X38277Y-32794D01*
X38250Y-32788D01*
X38223Y-32788D01*
X38093Y-32788D01*
X38058Y-32823D01*
X38058Y-33104D01*
X38339Y-33104D01*
X38374Y-33069D01*
X38374Y-32913D01*
X38374Y-33412D01*
X38374Y-33256D01*
X38339Y-33221D01*
X38058Y-33221D01*
X38058Y-33502D01*
X38093Y-33537D01*
X38223Y-33537D01*
X38250Y-33537D01*
X38277Y-33531D01*
X38302Y-33521D01*
X38324Y-33506D01*
X38343Y-33486D01*
X38358Y-33464D01*
X38369Y-33439D01*
X38374Y-33412D01*
X38374Y-33837D01*
X38369Y-33810D01*
X38358Y-33785D01*
X38343Y-33763D01*
X38324Y-33743D01*
X38302Y-33728D01*
X38277Y-33718D01*
X38250Y-33712D01*
X38223Y-33712D01*
X38093Y-33712D01*
X38058Y-33747D01*
X38058Y-34028D01*
X38339Y-34028D01*
X38374Y-33993D01*
X38374Y-33837D01*
X38374Y-34336D01*
X38374Y-34180D01*
X38339Y-34145D01*
X38058Y-34145D01*
X38058Y-34426D01*
X38093Y-34461D01*
X38223Y-34461D01*
X38250Y-34461D01*
X38277Y-34455D01*
X38302Y-34445D01*
X38324Y-34430D01*
X38343Y-34410D01*
X38358Y-34388D01*
X38369Y-34363D01*
X38374Y-34336D01*
X38374Y-34655D01*
X38370Y-34636D01*
X38360Y-34610D01*
X38345Y-34588D01*
X38325Y-34568D01*
X38302Y-34553D01*
X38277Y-34542D01*
X38250Y-34537D01*
X38223Y-34536D01*
X37941Y-34536D01*
X37941Y-34426D01*
X37941Y-34145D01*
X37941Y-34028D01*
X37941Y-33747D01*
X37941Y-33502D01*
X37941Y-33221D01*
X37941Y-33104D01*
X37941Y-32823D01*
X37906Y-32788D01*
X37776Y-32788D01*
X37749Y-32788D01*
X37722Y-32794D01*
X37697Y-32804D01*
X37675Y-32819D01*
X37656Y-32839D01*
X37641Y-32861D01*
X37630Y-32886D01*
X37625Y-32913D01*
X37625Y-33069D01*
X37660Y-33104D01*
X37941Y-33104D01*
X37941Y-33221D01*
X37660Y-33221D01*
X37625Y-33256D01*
X37625Y-33412D01*
X37630Y-33439D01*
X37641Y-33464D01*
X37656Y-33486D01*
X37675Y-33506D01*
X37697Y-33521D01*
X37722Y-33531D01*
X37749Y-33537D01*
X37776Y-33537D01*
X37906Y-33537D01*
X37941Y-33502D01*
X37941Y-33747D01*
X37906Y-33712D01*
X37776Y-33712D01*
X37749Y-33712D01*
X37722Y-33718D01*
X37697Y-33728D01*
X37675Y-33743D01*
X37656Y-33763D01*
X37641Y-33785D01*
X37630Y-33810D01*
X37625Y-33837D01*
X37625Y-33993D01*
X37660Y-34028D01*
X37941Y-34028D01*
X37941Y-34145D01*
X37660Y-34145D01*
X37625Y-34180D01*
X37625Y-34336D01*
X37630Y-34363D01*
X37641Y-34388D01*
X37656Y-34410D01*
X37675Y-34430D01*
X37697Y-34445D01*
X37722Y-34455D01*
X37749Y-34461D01*
X37776Y-34461D01*
X37906Y-34461D01*
X37941Y-34426D01*
X37941Y-34536D01*
X37750Y-34536D01*
X37723Y-34542D01*
X37697Y-34552D01*
X37675Y-34567D01*
X37655Y-34587D01*
X37640Y-34610D01*
X37629Y-34635D01*
X37625Y-34654D01*
X37603Y-34645D01*
X37552Y-34635D01*
X37500Y-34634D01*
X37449Y-34644D01*
X37401Y-34664D01*
X37387Y-34673D01*
X37376Y-34673D01*
X37376Y-34663D01*
X37374Y-34655D01*
X37374Y-34336D01*
X37374Y-33837D01*
X37374Y-33412D01*
X37374Y-32913D01*
X37369Y-32886D01*
X37358Y-32861D01*
X37343Y-32839D01*
X37324Y-32819D01*
X37302Y-32804D01*
X37277Y-32794D01*
X37250Y-32788D01*
X37223Y-32788D01*
X37093Y-32788D01*
X37058Y-32823D01*
X37058Y-33104D01*
X37339Y-33104D01*
X37374Y-33069D01*
X37374Y-32913D01*
X37374Y-33412D01*
X37374Y-33256D01*
X37339Y-33221D01*
X37058Y-33221D01*
X37058Y-33502D01*
X37093Y-33537D01*
X37223Y-33537D01*
X37250Y-33537D01*
X37277Y-33531D01*
X37302Y-33521D01*
X37324Y-33506D01*
X37343Y-33486D01*
X37358Y-33464D01*
X37369Y-33439D01*
X37374Y-33412D01*
X37374Y-33837D01*
X37369Y-33810D01*
X37358Y-33785D01*
X37343Y-33763D01*
X37324Y-33743D01*
X37302Y-33728D01*
X37277Y-33718D01*
X37250Y-33712D01*
X37223Y-33712D01*
X37093Y-33712D01*
X37058Y-33747D01*
X37058Y-34028D01*
X37339Y-34028D01*
X37374Y-33993D01*
X37374Y-33837D01*
X37374Y-34336D01*
X37374Y-34180D01*
X37339Y-34145D01*
X37058Y-34145D01*
X37058Y-34426D01*
X37093Y-34461D01*
X37223Y-34461D01*
X37250Y-34461D01*
X37277Y-34455D01*
X37302Y-34445D01*
X37324Y-34430D01*
X37343Y-34410D01*
X37358Y-34388D01*
X37369Y-34363D01*
X37374Y-34336D01*
X37374Y-34655D01*
X37370Y-34636D01*
X37360Y-34610D01*
X37345Y-34588D01*
X37325Y-34568D01*
X37302Y-34553D01*
X37277Y-34542D01*
X37250Y-34537D01*
X37223Y-34536D01*
X36941Y-34536D01*
X36941Y-34426D01*
X36941Y-34145D01*
X36941Y-34028D01*
X36941Y-33747D01*
X36941Y-33502D01*
X36941Y-33221D01*
X36941Y-33104D01*
X36941Y-32823D01*
X36906Y-32788D01*
X36776Y-32788D01*
X36749Y-32788D01*
X36722Y-32794D01*
X36697Y-32804D01*
X36675Y-32819D01*
X36656Y-32839D01*
X36641Y-32861D01*
X36630Y-32886D01*
X36625Y-32913D01*
X36625Y-33069D01*
X36660Y-33104D01*
X36941Y-33104D01*
X36941Y-33221D01*
X36660Y-33221D01*
X36625Y-33256D01*
X36625Y-33412D01*
X36630Y-33439D01*
X36641Y-33464D01*
X36656Y-33486D01*
X36675Y-33506D01*
X36697Y-33521D01*
X36722Y-33531D01*
X36749Y-33537D01*
X36776Y-33537D01*
X36906Y-33537D01*
X36941Y-33502D01*
X36941Y-33747D01*
X36906Y-33712D01*
X36776Y-33712D01*
X36749Y-33712D01*
X36722Y-33718D01*
X36697Y-33728D01*
X36675Y-33743D01*
X36656Y-33763D01*
X36641Y-33785D01*
X36630Y-33810D01*
X36625Y-33837D01*
X36625Y-33993D01*
X36660Y-34028D01*
X36941Y-34028D01*
X36941Y-34145D01*
X36660Y-34145D01*
X36625Y-34180D01*
X36625Y-34336D01*
X36630Y-34363D01*
X36641Y-34388D01*
X36656Y-34410D01*
X36675Y-34430D01*
X36697Y-34445D01*
X36722Y-34455D01*
X36749Y-34461D01*
X36776Y-34461D01*
X36906Y-34461D01*
X36941Y-34426D01*
X36941Y-34536D01*
X36750Y-34536D01*
X36723Y-34542D01*
X36697Y-34552D01*
X36675Y-34567D01*
X36655Y-34587D01*
X36640Y-34610D01*
X36629Y-34635D01*
X36624Y-34662D01*
X36624Y-34664D01*
X36578Y-34645D01*
X36527Y-34635D01*
X36475Y-34634D01*
X36424Y-34644D01*
X36376Y-34664D01*
X36376Y-34664D01*
X36376Y-34663D01*
X36374Y-34655D01*
X36374Y-34336D01*
X36374Y-33837D01*
X36374Y-33412D01*
X36374Y-32913D01*
X36369Y-32886D01*
X36358Y-32861D01*
X36343Y-32839D01*
X36324Y-32819D01*
X36302Y-32804D01*
X36277Y-32794D01*
X36250Y-32788D01*
X36223Y-32788D01*
X36093Y-32788D01*
X36058Y-32823D01*
X36058Y-33104D01*
X36339Y-33104D01*
X36374Y-33069D01*
X36374Y-32913D01*
X36374Y-33412D01*
X36374Y-33256D01*
X36339Y-33221D01*
X36058Y-33221D01*
X36058Y-33502D01*
X36093Y-33537D01*
X36223Y-33537D01*
X36250Y-33537D01*
X36277Y-33531D01*
X36302Y-33521D01*
X36324Y-33506D01*
X36343Y-33486D01*
X36358Y-33464D01*
X36369Y-33439D01*
X36374Y-33412D01*
X36374Y-33837D01*
X36369Y-33810D01*
X36358Y-33785D01*
X36343Y-33763D01*
X36324Y-33743D01*
X36302Y-33728D01*
X36277Y-33718D01*
X36250Y-33712D01*
X36223Y-33712D01*
X36093Y-33712D01*
X36058Y-33747D01*
X36058Y-34028D01*
X36339Y-34028D01*
X36374Y-33993D01*
X36374Y-33837D01*
X36374Y-34336D01*
X36374Y-34180D01*
X36339Y-34145D01*
X36058Y-34145D01*
X36058Y-34426D01*
X36093Y-34461D01*
X36223Y-34461D01*
X36250Y-34461D01*
X36277Y-34455D01*
X36302Y-34445D01*
X36324Y-34430D01*
X36343Y-34410D01*
X36358Y-34388D01*
X36369Y-34363D01*
X36374Y-34336D01*
X36374Y-34655D01*
X36370Y-34636D01*
X36360Y-34610D01*
X36345Y-34588D01*
X36325Y-34568D01*
X36302Y-34553D01*
X36277Y-34542D01*
X36250Y-34537D01*
X36223Y-34536D01*
X35941Y-34536D01*
X35941Y-34426D01*
X35941Y-34145D01*
X35941Y-34028D01*
X35941Y-33747D01*
X35941Y-33502D01*
X35941Y-33221D01*
X35941Y-33104D01*
X35941Y-32823D01*
X35906Y-32788D01*
X35776Y-32788D01*
X35749Y-32788D01*
X35722Y-32794D01*
X35697Y-32804D01*
X35675Y-32819D01*
X35656Y-32839D01*
X35641Y-32861D01*
X35630Y-32886D01*
X35625Y-32913D01*
X35625Y-33069D01*
X35660Y-33104D01*
X35941Y-33104D01*
X35941Y-33221D01*
X35660Y-33221D01*
X35625Y-33256D01*
X35625Y-33412D01*
X35630Y-33439D01*
X35641Y-33464D01*
X35656Y-33486D01*
X35675Y-33506D01*
X35697Y-33521D01*
X35722Y-33531D01*
X35749Y-33537D01*
X35776Y-33537D01*
X35906Y-33537D01*
X35941Y-33502D01*
X35941Y-33747D01*
X35906Y-33712D01*
X35776Y-33712D01*
X35749Y-33712D01*
X35722Y-33718D01*
X35697Y-33728D01*
X35675Y-33743D01*
X35656Y-33763D01*
X35641Y-33785D01*
X35630Y-33810D01*
X35625Y-33837D01*
X35625Y-33993D01*
X35660Y-34028D01*
X35941Y-34028D01*
X35941Y-34145D01*
X35660Y-34145D01*
X35625Y-34180D01*
X35625Y-34336D01*
X35630Y-34363D01*
X35641Y-34388D01*
X35656Y-34410D01*
X35675Y-34430D01*
X35697Y-34445D01*
X35722Y-34455D01*
X35749Y-34461D01*
X35776Y-34461D01*
X35906Y-34461D01*
X35941Y-34426D01*
X35941Y-34536D01*
X35750Y-34536D01*
X35723Y-34542D01*
X35697Y-34552D01*
X35675Y-34567D01*
X35655Y-34587D01*
X35640Y-34610D01*
X35629Y-34635D01*
X35625Y-34654D01*
X35603Y-34645D01*
X35552Y-34635D01*
X35500Y-34634D01*
X35449Y-34644D01*
X35401Y-34664D01*
X35387Y-34673D01*
X35376Y-34673D01*
X35376Y-34663D01*
X35374Y-34655D01*
X35374Y-34336D01*
X35374Y-33837D01*
X35374Y-33412D01*
X35374Y-32913D01*
X35369Y-32886D01*
X35358Y-32861D01*
X35343Y-32839D01*
X35324Y-32819D01*
X35302Y-32804D01*
X35277Y-32794D01*
X35250Y-32788D01*
X35223Y-32788D01*
X35093Y-32788D01*
X35058Y-32823D01*
X35058Y-33104D01*
X35339Y-33104D01*
X35374Y-33069D01*
X35374Y-32913D01*
X35374Y-33412D01*
X35374Y-33256D01*
X35339Y-33221D01*
X35058Y-33221D01*
X35058Y-33502D01*
X35093Y-33537D01*
X35223Y-33537D01*
X35250Y-33537D01*
X35277Y-33531D01*
X35302Y-33521D01*
X35324Y-33506D01*
X35343Y-33486D01*
X35358Y-33464D01*
X35369Y-33439D01*
X35374Y-33412D01*
X35374Y-33837D01*
X35369Y-33810D01*
X35358Y-33785D01*
X35343Y-33763D01*
X35324Y-33743D01*
X35302Y-33728D01*
X35277Y-33718D01*
X35250Y-33712D01*
X35223Y-33712D01*
X35093Y-33712D01*
X35058Y-33747D01*
X35058Y-34028D01*
X35339Y-34028D01*
X35374Y-33993D01*
X35374Y-33837D01*
X35374Y-34336D01*
X35374Y-34180D01*
X35339Y-34145D01*
X35058Y-34145D01*
X35058Y-34426D01*
X35093Y-34461D01*
X35223Y-34461D01*
X35250Y-34461D01*
X35277Y-34455D01*
X35302Y-34445D01*
X35324Y-34430D01*
X35343Y-34410D01*
X35358Y-34388D01*
X35369Y-34363D01*
X35374Y-34336D01*
X35374Y-34655D01*
X35370Y-34636D01*
X35360Y-34610D01*
X35345Y-34588D01*
X35325Y-34568D01*
X35302Y-34553D01*
X35277Y-34542D01*
X35250Y-34537D01*
X35223Y-34536D01*
X34941Y-34536D01*
X34941Y-34426D01*
X34941Y-34145D01*
X34941Y-34028D01*
X34941Y-33747D01*
X34941Y-33502D01*
X34941Y-33221D01*
X34941Y-33104D01*
X34941Y-32823D01*
X34906Y-32788D01*
X34776Y-32788D01*
X34749Y-32788D01*
X34722Y-32794D01*
X34697Y-32804D01*
X34675Y-32819D01*
X34656Y-32839D01*
X34641Y-32861D01*
X34630Y-32886D01*
X34625Y-32913D01*
X34625Y-33069D01*
X34660Y-33104D01*
X34941Y-33104D01*
X34941Y-33221D01*
X34660Y-33221D01*
X34625Y-33256D01*
X34625Y-33412D01*
X34630Y-33439D01*
X34641Y-33464D01*
X34656Y-33486D01*
X34675Y-33506D01*
X34697Y-33521D01*
X34722Y-33531D01*
X34749Y-33537D01*
X34776Y-33537D01*
X34906Y-33537D01*
X34941Y-33502D01*
X34941Y-33747D01*
X34906Y-33712D01*
X34776Y-33712D01*
X34749Y-33712D01*
X34722Y-33718D01*
X34697Y-33728D01*
X34675Y-33743D01*
X34656Y-33763D01*
X34641Y-33785D01*
X34630Y-33810D01*
X34625Y-33837D01*
X34625Y-33993D01*
X34660Y-34028D01*
X34941Y-34028D01*
X34941Y-34145D01*
X34660Y-34145D01*
X34625Y-34180D01*
X34625Y-34336D01*
X34630Y-34363D01*
X34641Y-34388D01*
X34656Y-34410D01*
X34675Y-34430D01*
X34697Y-34445D01*
X34722Y-34455D01*
X34749Y-34461D01*
X34776Y-34461D01*
X34906Y-34461D01*
X34941Y-34426D01*
X34941Y-34536D01*
X34750Y-34536D01*
X34723Y-34542D01*
X34697Y-34552D01*
X34675Y-34567D01*
X34655Y-34587D01*
X34640Y-34610D01*
X34629Y-34635D01*
X34624Y-34662D01*
X34623Y-34689D01*
X34623Y-34705D01*
X34601Y-34690D01*
X34553Y-34670D01*
X34502Y-34660D01*
X34450Y-34659D01*
X34399Y-34669D01*
X34391Y-34673D01*
X34376Y-34673D01*
X34376Y-34663D01*
X34374Y-34655D01*
X34374Y-34336D01*
X34374Y-33837D01*
X34374Y-33412D01*
X34374Y-32913D01*
X34369Y-32886D01*
X34358Y-32861D01*
X34343Y-32839D01*
X34324Y-32819D01*
X34302Y-32804D01*
X34277Y-32794D01*
X34250Y-32788D01*
X34223Y-32788D01*
X34093Y-32788D01*
X34058Y-32823D01*
X34058Y-33104D01*
X34339Y-33104D01*
X34374Y-33069D01*
X34374Y-32913D01*
X34374Y-33412D01*
X34374Y-33256D01*
X34339Y-33221D01*
X34058Y-33221D01*
X34058Y-33502D01*
X34093Y-33537D01*
X34223Y-33537D01*
X34250Y-33537D01*
X34277Y-33531D01*
X34302Y-33521D01*
X34324Y-33506D01*
X34343Y-33486D01*
X34358Y-33464D01*
X34369Y-33439D01*
X34374Y-33412D01*
X34374Y-33837D01*
X34369Y-33810D01*
X34358Y-33785D01*
X34343Y-33763D01*
X34324Y-33743D01*
X34302Y-33728D01*
X34277Y-33718D01*
X34250Y-33712D01*
X34223Y-33712D01*
X34093Y-33712D01*
X34058Y-33747D01*
X34058Y-34028D01*
X34339Y-34028D01*
X34374Y-33993D01*
X34374Y-33837D01*
X34374Y-34336D01*
X34374Y-34180D01*
X34339Y-34145D01*
X34058Y-34145D01*
X34058Y-34426D01*
X34093Y-34461D01*
X34223Y-34461D01*
X34250Y-34461D01*
X34277Y-34455D01*
X34302Y-34445D01*
X34324Y-34430D01*
X34343Y-34410D01*
X34358Y-34388D01*
X34369Y-34363D01*
X34374Y-34336D01*
X34374Y-34655D01*
X34370Y-34636D01*
X34360Y-34610D01*
X34345Y-34588D01*
X34325Y-34568D01*
X34302Y-34553D01*
X34277Y-34542D01*
X34250Y-34537D01*
X34223Y-34536D01*
X33941Y-34536D01*
X33941Y-34426D01*
X33941Y-34145D01*
X33941Y-34028D01*
X33941Y-33747D01*
X33941Y-33502D01*
X33941Y-33221D01*
X33941Y-33104D01*
X33941Y-32823D01*
X33906Y-32788D01*
X33776Y-32788D01*
X33749Y-32788D01*
X33722Y-32794D01*
X33697Y-32804D01*
X33675Y-32819D01*
X33656Y-32839D01*
X33641Y-32861D01*
X33630Y-32886D01*
X33625Y-32913D01*
X33625Y-33069D01*
X33660Y-33104D01*
X33941Y-33104D01*
X33941Y-33221D01*
X33660Y-33221D01*
X33625Y-33256D01*
X33625Y-33412D01*
X33630Y-33439D01*
X33641Y-33464D01*
X33656Y-33486D01*
X33675Y-33506D01*
X33697Y-33521D01*
X33722Y-33531D01*
X33749Y-33537D01*
X33776Y-33537D01*
X33906Y-33537D01*
X33941Y-33502D01*
X33941Y-33747D01*
X33906Y-33712D01*
X33776Y-33712D01*
X33749Y-33712D01*
X33722Y-33718D01*
X33697Y-33728D01*
X33675Y-33743D01*
X33656Y-33763D01*
X33641Y-33785D01*
X33630Y-33810D01*
X33625Y-33837D01*
X33625Y-33993D01*
X33660Y-34028D01*
X33941Y-34028D01*
X33941Y-34145D01*
X33660Y-34145D01*
X33625Y-34180D01*
X33625Y-34336D01*
X33630Y-34363D01*
X33641Y-34388D01*
X33656Y-34410D01*
X33675Y-34430D01*
X33697Y-34445D01*
X33722Y-34455D01*
X33749Y-34461D01*
X33776Y-34461D01*
X33906Y-34461D01*
X33941Y-34426D01*
X33941Y-34536D01*
X33750Y-34536D01*
X33723Y-34542D01*
X33697Y-34552D01*
X33675Y-34567D01*
X33655Y-34587D01*
X33640Y-34610D01*
X33629Y-34635D01*
X33624Y-34662D01*
X33623Y-34689D01*
X33578Y-34670D01*
X33527Y-34660D01*
X33475Y-34659D01*
X33424Y-34669D01*
X33416Y-34673D01*
X33376Y-34673D01*
X33376Y-34663D01*
X33374Y-34655D01*
X33374Y-34336D01*
X33374Y-33837D01*
X33374Y-33412D01*
X33374Y-32913D01*
X33369Y-32886D01*
X33358Y-32861D01*
X33343Y-32839D01*
X33324Y-32819D01*
X33302Y-32804D01*
X33277Y-32794D01*
X33250Y-32788D01*
X33223Y-32788D01*
X33093Y-32788D01*
X33058Y-32823D01*
X33058Y-33104D01*
X33339Y-33104D01*
X33374Y-33069D01*
X33374Y-32913D01*
X33374Y-33412D01*
X33374Y-33256D01*
X33339Y-33221D01*
X33058Y-33221D01*
X33058Y-33502D01*
X33093Y-33537D01*
X33223Y-33537D01*
X33250Y-33537D01*
X33277Y-33531D01*
X33302Y-33521D01*
X33324Y-33506D01*
X33343Y-33486D01*
X33358Y-33464D01*
X33369Y-33439D01*
X33374Y-33412D01*
X33374Y-33837D01*
X33369Y-33810D01*
X33358Y-33785D01*
X33343Y-33763D01*
X33324Y-33743D01*
X33302Y-33728D01*
X33277Y-33718D01*
X33250Y-33712D01*
X33223Y-33712D01*
X33093Y-33712D01*
X33058Y-33747D01*
X33058Y-34028D01*
X33339Y-34028D01*
X33374Y-33993D01*
X33374Y-33837D01*
X33374Y-34336D01*
X33374Y-34180D01*
X33339Y-34145D01*
X33058Y-34145D01*
X33058Y-34426D01*
X33093Y-34461D01*
X33223Y-34461D01*
X33250Y-34461D01*
X33277Y-34455D01*
X33302Y-34445D01*
X33324Y-34430D01*
X33343Y-34410D01*
X33358Y-34388D01*
X33369Y-34363D01*
X33374Y-34336D01*
X33374Y-34655D01*
X33370Y-34636D01*
X33360Y-34610D01*
X33345Y-34588D01*
X33325Y-34568D01*
X33302Y-34553D01*
X33277Y-34542D01*
X33250Y-34537D01*
X33223Y-34536D01*
X32941Y-34536D01*
X32941Y-34426D01*
X32941Y-34145D01*
X32941Y-34028D01*
X32941Y-33747D01*
X32941Y-33502D01*
X32941Y-33221D01*
X32941Y-33104D01*
X32941Y-32823D01*
X32906Y-32788D01*
X32776Y-32788D01*
X32749Y-32788D01*
X32722Y-32794D01*
X32697Y-32804D01*
X32675Y-32819D01*
X32656Y-32839D01*
X32641Y-32861D01*
X32630Y-32886D01*
X32625Y-32913D01*
X32625Y-33069D01*
X32660Y-33104D01*
X32941Y-33104D01*
X32941Y-33221D01*
X32660Y-33221D01*
X32625Y-33256D01*
X32625Y-33412D01*
X32630Y-33439D01*
X32641Y-33464D01*
X32656Y-33486D01*
X32675Y-33506D01*
X32697Y-33521D01*
X32722Y-33531D01*
X32749Y-33537D01*
X32776Y-33537D01*
X32906Y-33537D01*
X32941Y-33502D01*
X32941Y-33747D01*
X32906Y-33712D01*
X32776Y-33712D01*
X32749Y-33712D01*
X32722Y-33718D01*
X32697Y-33728D01*
X32675Y-33743D01*
X32656Y-33763D01*
X32641Y-33785D01*
X32630Y-33810D01*
X32625Y-33837D01*
X32625Y-33993D01*
X32660Y-34028D01*
X32941Y-34028D01*
X32941Y-34145D01*
X32660Y-34145D01*
X32625Y-34180D01*
X32625Y-34336D01*
X32630Y-34363D01*
X32641Y-34388D01*
X32656Y-34410D01*
X32675Y-34430D01*
X32697Y-34445D01*
X32722Y-34455D01*
X32749Y-34461D01*
X32776Y-34461D01*
X32906Y-34461D01*
X32941Y-34426D01*
X32941Y-34536D01*
X32750Y-34536D01*
X32723Y-34542D01*
X32697Y-34552D01*
X32675Y-34567D01*
X32655Y-34587D01*
X32640Y-34610D01*
X32629Y-34635D01*
X32624Y-34662D01*
X32623Y-34689D01*
X32578Y-34670D01*
X32527Y-34660D01*
X32475Y-34659D01*
X32424Y-34669D01*
X32416Y-34673D01*
X32376Y-34673D01*
X32376Y-34663D01*
X32374Y-34655D01*
X32374Y-34336D01*
X32374Y-33837D01*
X32374Y-33412D01*
X32374Y-32913D01*
X32369Y-32886D01*
X32358Y-32861D01*
X32343Y-32839D01*
X32324Y-32819D01*
X32302Y-32804D01*
X32277Y-32794D01*
X32250Y-32788D01*
X32223Y-32788D01*
X32093Y-32788D01*
X32058Y-32823D01*
X32058Y-33104D01*
X32339Y-33104D01*
X32374Y-33069D01*
X32374Y-32913D01*
X32374Y-33412D01*
X32374Y-33256D01*
X32339Y-33221D01*
X32058Y-33221D01*
X32058Y-33502D01*
X32093Y-33537D01*
X32223Y-33537D01*
X32250Y-33537D01*
X32277Y-33531D01*
X32302Y-33521D01*
X32324Y-33506D01*
X32343Y-33486D01*
X32358Y-33464D01*
X32369Y-33439D01*
X32374Y-33412D01*
X32374Y-33837D01*
X32369Y-33810D01*
X32358Y-33785D01*
X32343Y-33763D01*
X32324Y-33743D01*
X32302Y-33728D01*
X32277Y-33718D01*
X32250Y-33712D01*
X32223Y-33712D01*
X32093Y-33712D01*
X32058Y-33747D01*
X32058Y-34028D01*
X32339Y-34028D01*
X32374Y-33993D01*
X32374Y-33837D01*
X32374Y-34336D01*
X32374Y-34180D01*
X32339Y-34145D01*
X32058Y-34145D01*
X32058Y-34426D01*
X32093Y-34461D01*
X32223Y-34461D01*
X32250Y-34461D01*
X32277Y-34455D01*
X32302Y-34445D01*
X32324Y-34430D01*
X32343Y-34410D01*
X32358Y-34388D01*
X32369Y-34363D01*
X32374Y-34336D01*
X32374Y-34655D01*
X32370Y-34636D01*
X32360Y-34610D01*
X32345Y-34588D01*
X32325Y-34568D01*
X32302Y-34553D01*
X32277Y-34542D01*
X32250Y-34537D01*
X32223Y-34536D01*
X31941Y-34536D01*
X31941Y-34426D01*
X31941Y-34145D01*
X31941Y-34028D01*
X31941Y-33747D01*
X31941Y-33502D01*
X31941Y-33221D01*
X31941Y-33104D01*
X31941Y-32823D01*
X31906Y-32788D01*
X31776Y-32788D01*
X31749Y-32788D01*
X31722Y-32794D01*
X31697Y-32804D01*
X31675Y-32819D01*
X31656Y-32839D01*
X31641Y-32861D01*
X31630Y-32886D01*
X31625Y-32913D01*
X31625Y-33069D01*
X31660Y-33104D01*
X31941Y-33104D01*
X31941Y-33221D01*
X31660Y-33221D01*
X31625Y-33256D01*
X31625Y-33412D01*
X31630Y-33439D01*
X31641Y-33464D01*
X31656Y-33486D01*
X31675Y-33506D01*
X31697Y-33521D01*
X31722Y-33531D01*
X31749Y-33537D01*
X31776Y-33537D01*
X31906Y-33537D01*
X31941Y-33502D01*
X31941Y-33747D01*
X31906Y-33712D01*
X31776Y-33712D01*
X31749Y-33712D01*
X31722Y-33718D01*
X31697Y-33728D01*
X31675Y-33743D01*
X31656Y-33763D01*
X31641Y-33785D01*
X31630Y-33810D01*
X31625Y-33837D01*
X31625Y-33993D01*
X31660Y-34028D01*
X31941Y-34028D01*
X31941Y-34145D01*
X31660Y-34145D01*
X31625Y-34180D01*
X31625Y-34336D01*
X31630Y-34363D01*
X31641Y-34388D01*
X31656Y-34410D01*
X31675Y-34430D01*
X31697Y-34445D01*
X31722Y-34455D01*
X31749Y-34461D01*
X31776Y-34461D01*
X31906Y-34461D01*
X31941Y-34426D01*
X31941Y-34536D01*
X31750Y-34536D01*
X31723Y-34542D01*
X31697Y-34552D01*
X31675Y-34567D01*
X31655Y-34587D01*
X31640Y-34610D01*
X31629Y-34635D01*
X31624Y-34662D01*
X31623Y-34689D01*
X31623Y-35162D01*
X31629Y-35189D01*
X31639Y-35215D01*
X31654Y-35237D01*
X31674Y-35257D01*
X31697Y-35272D01*
X31722Y-35283D01*
X31749Y-35288D01*
X31776Y-35289D01*
X32249Y-35289D01*
X32276Y-35283D01*
X32302Y-35273D01*
X32324Y-35258D01*
X32344Y-35238D01*
X32359Y-35215D01*
X32370Y-35190D01*
X32375Y-35163D01*
X32375Y-35159D01*
X32417Y-35178D01*
X32468Y-35189D01*
X32520Y-35190D01*
X32571Y-35181D01*
X32620Y-35162D01*
X32623Y-35160D01*
X32623Y-35162D01*
X32629Y-35189D01*
X32639Y-35215D01*
X32654Y-35237D01*
X32674Y-35257D01*
X32697Y-35272D01*
X32722Y-35283D01*
X32749Y-35288D01*
X32776Y-35289D01*
X33249Y-35289D01*
X33276Y-35283D01*
X33302Y-35273D01*
X33324Y-35258D01*
X33344Y-35238D01*
X33359Y-35215D01*
X33370Y-35190D01*
X33375Y-35163D01*
X33375Y-35159D01*
X33417Y-35178D01*
X33468Y-35189D01*
X33520Y-35190D01*
X33571Y-35181D01*
X33620Y-35162D01*
X33623Y-35160D01*
X33623Y-35162D01*
X33629Y-35189D01*
X33639Y-35215D01*
X33654Y-35237D01*
X33674Y-35257D01*
X33697Y-35272D01*
X33722Y-35283D01*
X33749Y-35288D01*
X33776Y-35289D01*
X34249Y-35289D01*
X34276Y-35283D01*
X34302Y-35273D01*
X34324Y-35258D01*
X34344Y-35238D01*
X34359Y-35215D01*
X34370Y-35190D01*
X34374Y-35170D01*
X34392Y-35178D01*
X34443Y-35189D01*
X34495Y-35190D01*
X34546Y-35181D01*
X34595Y-35162D01*
X34623Y-35144D01*
X34623Y-35162D01*
X34629Y-35189D01*
X34639Y-35215D01*
X34654Y-35237D01*
X34674Y-35257D01*
X34697Y-35272D01*
X34722Y-35283D01*
X34749Y-35288D01*
X34776Y-35289D01*
X35249Y-35289D01*
X35276Y-35283D01*
X35302Y-35273D01*
X35324Y-35258D01*
X35344Y-35238D01*
X35359Y-35215D01*
X35370Y-35190D01*
X35375Y-35163D01*
X35375Y-35153D01*
X35442Y-35153D01*
X35442Y-35153D01*
X35493Y-35164D01*
X35545Y-35165D01*
X35596Y-35156D01*
X35623Y-35145D01*
X35623Y-35162D01*
X35629Y-35189D01*
X35639Y-35215D01*
X35654Y-35237D01*
X35674Y-35257D01*
X35697Y-35272D01*
X35722Y-35283D01*
X35749Y-35288D01*
X35776Y-35289D01*
X36249Y-35289D01*
X36276Y-35283D01*
X36302Y-35273D01*
X36324Y-35258D01*
X36344Y-35238D01*
X36359Y-35215D01*
X36370Y-35190D01*
X36375Y-35163D01*
X36375Y-35153D01*
X36417Y-35153D01*
X36417Y-35153D01*
X36468Y-35164D01*
X36520Y-35165D01*
X36571Y-35156D01*
X36620Y-35137D01*
X36623Y-35135D01*
X36623Y-35162D01*
X36629Y-35189D01*
X36639Y-35215D01*
X36654Y-35237D01*
X36674Y-35257D01*
X36697Y-35272D01*
X36722Y-35283D01*
X36749Y-35288D01*
X36776Y-35289D01*
X37249Y-35289D01*
X37276Y-35283D01*
X37302Y-35273D01*
X37324Y-35258D01*
X37344Y-35238D01*
X37359Y-35215D01*
X37370Y-35190D01*
X37375Y-35163D01*
X37375Y-35153D01*
X37442Y-35153D01*
X37442Y-35153D01*
X37493Y-35164D01*
X37545Y-35165D01*
X37596Y-35156D01*
X37623Y-35145D01*
X37623Y-35162D01*
X37629Y-35189D01*
X37639Y-35215D01*
X37654Y-35237D01*
X37674Y-35257D01*
X37697Y-35272D01*
X37722Y-35283D01*
X37749Y-35288D01*
X37776Y-35289D01*
X38249Y-35289D01*
X38276Y-35283D01*
X38302Y-35273D01*
X38324Y-35258D01*
X38344Y-35238D01*
X38359Y-35215D01*
X38370Y-35190D01*
X38375Y-35163D01*
X38375Y-35153D01*
X38417Y-35153D01*
X38417Y-35153D01*
X38468Y-35164D01*
X38520Y-35165D01*
X38571Y-35156D01*
X38620Y-35137D01*
X38623Y-35135D01*
X38623Y-35162D01*
X38629Y-35189D01*
X38639Y-35215D01*
X38654Y-35237D01*
X38674Y-35257D01*
X38697Y-35272D01*
X38722Y-35283D01*
X38749Y-35288D01*
X38776Y-35289D01*
X39249Y-35289D01*
X39276Y-35283D01*
X39302Y-35273D01*
X39324Y-35258D01*
X39344Y-35238D01*
X39359Y-35215D01*
X39370Y-35190D01*
X39375Y-35163D01*
X39375Y-35153D01*
X39467Y-35153D01*
X39467Y-35153D01*
X39518Y-35164D01*
X39570Y-35165D01*
X39621Y-35156D01*
X39670Y-35137D01*
X39713Y-35109D01*
X39751Y-35073D01*
X39781Y-35031D01*
X39802Y-34984D01*
X39814Y-34933D01*
X39815Y-34874D01*
X39815Y-35561D01*
X39686Y-35561D01*
X39659Y-35566D01*
X39634Y-35577D01*
X39612Y-35592D01*
X39592Y-35611D01*
X39577Y-35633D01*
X39567Y-35658D01*
X39561Y-35685D01*
X39561Y-35712D01*
X39561Y-35906D01*
X39596Y-35941D01*
X39941Y-35941D01*
X39941Y-36058D01*
X39596Y-36058D01*
X39561Y-36093D01*
X39561Y-36287D01*
X39561Y-36314D01*
X39567Y-36341D01*
X39577Y-36366D01*
X39592Y-36388D01*
X39612Y-36407D01*
X39634Y-36422D01*
X39659Y-36433D01*
X39686Y-36438D01*
X39906Y-36438D01*
X39941Y-36403D01*
X39941Y-36495D01*
X39440Y-36495D01*
X39440Y-35956D01*
X39423Y-35872D01*
X39390Y-35792D01*
X39342Y-35720D01*
X39281Y-35659D01*
X39210Y-35611D01*
X39130Y-35577D01*
X39046Y-35560D01*
X38959Y-35559D01*
X38875Y-35575D01*
X38795Y-35608D01*
X38722Y-35655D01*
X38661Y-35715D01*
X38612Y-35787D01*
X38578Y-35866D01*
X38560Y-35950D01*
X38559Y-36036D01*
X38574Y-36121D01*
X38606Y-36202D01*
X38653Y-36274D01*
X38713Y-36336D01*
X38784Y-36385D01*
X38863Y-36420D01*
X38947Y-36439D01*
X39033Y-36440D01*
X39118Y-36425D01*
X39199Y-36394D01*
X39272Y-36348D01*
X39334Y-36288D01*
X39384Y-36218D01*
X39419Y-36139D01*
X39438Y-36055D01*
X39440Y-35956D01*
X39440Y-36495D01*
X38440Y-36495D01*
X38440Y-35956D01*
X38423Y-35872D01*
X38390Y-35792D01*
X38342Y-35720D01*
X38281Y-35659D01*
X38210Y-35611D01*
X38130Y-35577D01*
X38046Y-35560D01*
X37959Y-35559D01*
X37875Y-35575D01*
X37795Y-35608D01*
X37722Y-35655D01*
X37661Y-35715D01*
X37612Y-35787D01*
X37578Y-35866D01*
X37560Y-35950D01*
X37559Y-36036D01*
X37574Y-36121D01*
X37606Y-36202D01*
X37653Y-36274D01*
X37713Y-36336D01*
X37784Y-36385D01*
X37863Y-36420D01*
X37947Y-36439D01*
X38033Y-36440D01*
X38118Y-36425D01*
X38199Y-36394D01*
X38272Y-36348D01*
X38334Y-36288D01*
X38384Y-36218D01*
X38419Y-36139D01*
X38438Y-36055D01*
X38440Y-35956D01*
X38440Y-36495D01*
X37440Y-36495D01*
X37440Y-35956D01*
X37423Y-35872D01*
X37390Y-35792D01*
X37342Y-35720D01*
X37281Y-35659D01*
X37210Y-35611D01*
X37130Y-35577D01*
X37046Y-35560D01*
X36959Y-35559D01*
X36875Y-35575D01*
X36795Y-35608D01*
X36722Y-35655D01*
X36661Y-35715D01*
X36612Y-35787D01*
X36578Y-35866D01*
X36560Y-35950D01*
X36559Y-36036D01*
X36574Y-36121D01*
X36606Y-36202D01*
X36653Y-36274D01*
X36713Y-36336D01*
X36784Y-36385D01*
X36863Y-36420D01*
X36947Y-36439D01*
X37033Y-36440D01*
X37118Y-36425D01*
X37199Y-36394D01*
X37272Y-36348D01*
X37334Y-36288D01*
X37384Y-36218D01*
X37419Y-36139D01*
X37438Y-36055D01*
X37440Y-35956D01*
X37440Y-36495D01*
X36440Y-36495D01*
X36440Y-35956D01*
X36423Y-35872D01*
X36390Y-35792D01*
X36342Y-35720D01*
X36281Y-35659D01*
X36210Y-35611D01*
X36130Y-35577D01*
X36046Y-35560D01*
X35959Y-35559D01*
X35875Y-35575D01*
X35795Y-35608D01*
X35722Y-35655D01*
X35661Y-35715D01*
X35612Y-35787D01*
X35578Y-35866D01*
X35560Y-35950D01*
X35559Y-36036D01*
X35574Y-36121D01*
X35606Y-36202D01*
X35653Y-36274D01*
X35713Y-36336D01*
X35784Y-36385D01*
X35863Y-36420D01*
X35947Y-36439D01*
X36033Y-36440D01*
X36118Y-36425D01*
X36199Y-36394D01*
X36272Y-36348D01*
X36334Y-36288D01*
X36384Y-36218D01*
X36419Y-36139D01*
X36438Y-36055D01*
X36440Y-35956D01*
X36440Y-36495D01*
X35440Y-36495D01*
X35440Y-35956D01*
X35423Y-35872D01*
X35390Y-35792D01*
X35342Y-35720D01*
X35281Y-35659D01*
X35210Y-35611D01*
X35130Y-35577D01*
X35046Y-35560D01*
X34959Y-35559D01*
X34875Y-35575D01*
X34795Y-35608D01*
X34722Y-35655D01*
X34661Y-35715D01*
X34612Y-35787D01*
X34578Y-35866D01*
X34560Y-35950D01*
X34559Y-36036D01*
X34574Y-36121D01*
X34606Y-36202D01*
X34653Y-36274D01*
X34713Y-36336D01*
X34784Y-36385D01*
X34863Y-36420D01*
X34947Y-36439D01*
X35033Y-36440D01*
X35118Y-36425D01*
X35199Y-36394D01*
X35272Y-36348D01*
X35334Y-36288D01*
X35384Y-36218D01*
X35419Y-36139D01*
X35438Y-36055D01*
X35440Y-35956D01*
X35440Y-36495D01*
X34440Y-36495D01*
X34440Y-35956D01*
X34423Y-35872D01*
X34390Y-35792D01*
X34342Y-35720D01*
X34281Y-35659D01*
X34210Y-35611D01*
X34130Y-35577D01*
X34046Y-35560D01*
X33959Y-35559D01*
X33875Y-35575D01*
X33795Y-35608D01*
X33722Y-35655D01*
X33661Y-35715D01*
X33612Y-35787D01*
X33578Y-35866D01*
X33560Y-35950D01*
X33559Y-36036D01*
X33574Y-36121D01*
X33606Y-36202D01*
X33653Y-36274D01*
X33713Y-36336D01*
X33784Y-36385D01*
X33863Y-36420D01*
X33947Y-36439D01*
X34033Y-36440D01*
X34118Y-36425D01*
X34199Y-36394D01*
X34272Y-36348D01*
X34334Y-36288D01*
X34384Y-36218D01*
X34419Y-36139D01*
X34438Y-36055D01*
X34440Y-35956D01*
X34440Y-36495D01*
X33440Y-36495D01*
X33440Y-35956D01*
X33423Y-35872D01*
X33390Y-35792D01*
X33342Y-35720D01*
X33281Y-35659D01*
X33210Y-35611D01*
X33130Y-35577D01*
X33046Y-35560D01*
X32959Y-35559D01*
X32875Y-35575D01*
X32795Y-35608D01*
X32722Y-35655D01*
X32661Y-35715D01*
X32612Y-35787D01*
X32578Y-35866D01*
X32560Y-35950D01*
X32559Y-36036D01*
X32574Y-36121D01*
X32606Y-36202D01*
X32653Y-36274D01*
X32713Y-36336D01*
X32784Y-36385D01*
X32863Y-36420D01*
X32947Y-36439D01*
X33033Y-36440D01*
X33118Y-36425D01*
X33199Y-36394D01*
X33272Y-36348D01*
X33334Y-36288D01*
X33384Y-36218D01*
X33419Y-36139D01*
X33438Y-36055D01*
X33440Y-35956D01*
X33440Y-36495D01*
X32440Y-36495D01*
X32440Y-35956D01*
X32423Y-35872D01*
X32390Y-35792D01*
X32342Y-35720D01*
X32281Y-35659D01*
X32210Y-35611D01*
X32130Y-35577D01*
X32046Y-35560D01*
X31959Y-35559D01*
X31875Y-35575D01*
X31795Y-35608D01*
X31722Y-35655D01*
X31661Y-35715D01*
X31612Y-35787D01*
X31578Y-35866D01*
X31560Y-35950D01*
X31559Y-36036D01*
X31574Y-36121D01*
X31606Y-36202D01*
X31653Y-36274D01*
X31713Y-36336D01*
X31784Y-36385D01*
X31863Y-36420D01*
X31947Y-36439D01*
X32033Y-36440D01*
X32118Y-36425D01*
X32199Y-36394D01*
X32272Y-36348D01*
X32334Y-36288D01*
X32384Y-36218D01*
X32419Y-36139D01*
X32438Y-36055D01*
X32440Y-35956D01*
X32440Y-36495D01*
X31496Y-36495D01*
X31496Y-31949D01*
X40471Y-31949D01*
X40471Y-36495D01*
X40471Y-36495D01*
G37*
G54D16*
X40471Y-36495D02*
X40438Y-36495D01*
X40438Y-36287D01*
X40438Y-35712D01*
X40438Y-35685D01*
X40432Y-35658D01*
X40422Y-35633D01*
X40407Y-35611D01*
X40387Y-35592D01*
X40365Y-35577D01*
X40340Y-35566D01*
X40313Y-35561D01*
X40093Y-35561D01*
X40058Y-35596D01*
X40058Y-35941D01*
X40403Y-35941D01*
X40438Y-35906D01*
X40438Y-35712D01*
X40438Y-36287D01*
X40438Y-36093D01*
X40403Y-36058D01*
X40058Y-36058D01*
X40058Y-36403D01*
X40093Y-36438D01*
X40313Y-36438D01*
X40340Y-36433D01*
X40365Y-36422D01*
X40387Y-36407D01*
X40407Y-36388D01*
X40422Y-36366D01*
X40432Y-36341D01*
X40438Y-36314D01*
X40438Y-36287D01*
X40438Y-36495D01*
X39941Y-36495D01*
X39941Y-36403D01*
X39941Y-36058D01*
X39941Y-35941D01*
X39941Y-35596D01*
X39906Y-35561D01*
X39815Y-35561D01*
X39815Y-34874D01*
X39815Y-32299D01*
X39804Y-32248D01*
X39785Y-32199D01*
X39756Y-32156D01*
X39719Y-32119D01*
X39676Y-32090D01*
X39628Y-32070D01*
X39577Y-32060D01*
X39525Y-32059D01*
X39474Y-32069D01*
X39426Y-32089D01*
X39414Y-32097D01*
X39376Y-32097D01*
X39376Y-32087D01*
X39370Y-32060D01*
X39360Y-32034D01*
X39345Y-32012D01*
X39325Y-31992D01*
X39302Y-31977D01*
X39277Y-31966D01*
X39250Y-31961D01*
X39223Y-31960D01*
X38750Y-31960D01*
X38723Y-31966D01*
X38697Y-31976D01*
X38675Y-31991D01*
X38655Y-32011D01*
X38640Y-32034D01*
X38629Y-32059D01*
X38624Y-32086D01*
X38623Y-32113D01*
X38623Y-32114D01*
X38578Y-32095D01*
X38527Y-32085D01*
X38475Y-32084D01*
X38424Y-32094D01*
X38418Y-32097D01*
X38376Y-32097D01*
X38376Y-32087D01*
X38370Y-32060D01*
X38360Y-32034D01*
X38345Y-32012D01*
X38325Y-31992D01*
X38302Y-31977D01*
X38277Y-31966D01*
X38250Y-31961D01*
X38223Y-31960D01*
X37750Y-31960D01*
X37723Y-31966D01*
X37697Y-31976D01*
X37675Y-31991D01*
X37655Y-32011D01*
X37640Y-32034D01*
X37629Y-32059D01*
X37625Y-32079D01*
X37603Y-32070D01*
X37552Y-32060D01*
X37500Y-32059D01*
X37449Y-32069D01*
X37401Y-32089D01*
X37389Y-32097D01*
X37376Y-32097D01*
X37376Y-32087D01*
X37370Y-32060D01*
X37360Y-32034D01*
X37345Y-32012D01*
X37325Y-31992D01*
X37302Y-31977D01*
X37277Y-31966D01*
X37250Y-31961D01*
X37223Y-31960D01*
X36750Y-31960D01*
X36723Y-31966D01*
X36697Y-31976D01*
X36675Y-31991D01*
X36655Y-32011D01*
X36640Y-32034D01*
X36629Y-32059D01*
X36624Y-32086D01*
X36624Y-32089D01*
X36578Y-32070D01*
X36527Y-32060D01*
X36475Y-32059D01*
X36424Y-32069D01*
X36376Y-32089D01*
X36376Y-32089D01*
X36376Y-32087D01*
X36370Y-32060D01*
X36360Y-32034D01*
X36345Y-32012D01*
X36325Y-31992D01*
X36302Y-31977D01*
X36277Y-31966D01*
X36250Y-31961D01*
X36223Y-31960D01*
X35750Y-31960D01*
X35723Y-31966D01*
X35697Y-31976D01*
X35675Y-31991D01*
X35655Y-32011D01*
X35640Y-32034D01*
X35629Y-32059D01*
X35625Y-32079D01*
X35603Y-32070D01*
X35552Y-32060D01*
X35500Y-32059D01*
X35449Y-32069D01*
X35401Y-32089D01*
X35389Y-32097D01*
X35376Y-32097D01*
X35376Y-32087D01*
X35370Y-32060D01*
X35360Y-32034D01*
X35345Y-32012D01*
X35325Y-31992D01*
X35302Y-31977D01*
X35277Y-31966D01*
X35250Y-31961D01*
X35223Y-31960D01*
X34750Y-31960D01*
X34723Y-31966D01*
X34697Y-31976D01*
X34675Y-31991D01*
X34655Y-32011D01*
X34640Y-32034D01*
X34629Y-32059D01*
X34624Y-32086D01*
X34623Y-32105D01*
X34601Y-32090D01*
X34553Y-32070D01*
X34502Y-32060D01*
X34450Y-32059D01*
X34399Y-32069D01*
X34374Y-32079D01*
X34370Y-32060D01*
X34360Y-32034D01*
X34345Y-32012D01*
X34325Y-31992D01*
X34302Y-31977D01*
X34277Y-31966D01*
X34250Y-31961D01*
X34223Y-31960D01*
X33750Y-31960D01*
X33723Y-31966D01*
X33697Y-31976D01*
X33675Y-31991D01*
X33655Y-32011D01*
X33640Y-32034D01*
X33629Y-32059D01*
X33624Y-32086D01*
X33624Y-32089D01*
X33578Y-32070D01*
X33527Y-32060D01*
X33475Y-32059D01*
X33424Y-32069D01*
X33376Y-32089D01*
X33376Y-32089D01*
X33376Y-32087D01*
X33370Y-32060D01*
X33360Y-32034D01*
X33345Y-32012D01*
X33325Y-31992D01*
X33302Y-31977D01*
X33277Y-31966D01*
X33250Y-31961D01*
X33223Y-31960D01*
X32750Y-31960D01*
X32723Y-31966D01*
X32697Y-31976D01*
X32675Y-31991D01*
X32655Y-32011D01*
X32640Y-32034D01*
X32629Y-32059D01*
X32624Y-32086D01*
X32623Y-32113D01*
X32623Y-32114D01*
X32578Y-32095D01*
X32527Y-32085D01*
X32475Y-32084D01*
X32424Y-32094D01*
X32418Y-32097D01*
X32376Y-32097D01*
X32376Y-32087D01*
X32370Y-32060D01*
X32360Y-32034D01*
X32345Y-32012D01*
X32325Y-31992D01*
X32302Y-31977D01*
X32277Y-31966D01*
X32250Y-31961D01*
X32223Y-31960D01*
X31750Y-31960D01*
X31723Y-31966D01*
X31697Y-31976D01*
X31675Y-31991D01*
X31655Y-32011D01*
X31640Y-32034D01*
X31629Y-32059D01*
X31624Y-32086D01*
X31623Y-32113D01*
X31623Y-32586D01*
X31629Y-32613D01*
X31639Y-32639D01*
X31654Y-32661D01*
X31674Y-32681D01*
X31697Y-32696D01*
X31722Y-32707D01*
X31749Y-32712D01*
X31776Y-32713D01*
X32249Y-32713D01*
X32276Y-32707D01*
X32302Y-32697D01*
X32324Y-32682D01*
X32344Y-32662D01*
X32359Y-32639D01*
X32370Y-32614D01*
X32375Y-32587D01*
X32375Y-32584D01*
X32417Y-32603D01*
X32468Y-32614D01*
X32520Y-32615D01*
X32571Y-32606D01*
X32620Y-32587D01*
X32623Y-32585D01*
X32623Y-32586D01*
X32629Y-32613D01*
X32639Y-32639D01*
X32654Y-32661D01*
X32674Y-32681D01*
X32697Y-32696D01*
X32722Y-32707D01*
X32749Y-32712D01*
X32776Y-32713D01*
X33249Y-32713D01*
X33276Y-32707D01*
X33302Y-32697D01*
X33324Y-32682D01*
X33344Y-32662D01*
X33359Y-32639D01*
X33370Y-32614D01*
X33375Y-32587D01*
X33375Y-32577D01*
X33414Y-32577D01*
X33417Y-32578D01*
X33468Y-32589D01*
X33520Y-32590D01*
X33571Y-32581D01*
X33620Y-32562D01*
X33623Y-32560D01*
X33623Y-32586D01*
X33629Y-32613D01*
X33639Y-32639D01*
X33654Y-32661D01*
X33674Y-32681D01*
X33697Y-32696D01*
X33722Y-32707D01*
X33749Y-32712D01*
X33776Y-32713D01*
X34249Y-32713D01*
X34276Y-32707D01*
X34302Y-32697D01*
X34324Y-32682D01*
X34344Y-32662D01*
X34359Y-32639D01*
X34370Y-32614D01*
X34375Y-32587D01*
X34375Y-32577D01*
X34389Y-32577D01*
X34392Y-32578D01*
X34443Y-32589D01*
X34495Y-32590D01*
X34546Y-32581D01*
X34595Y-32562D01*
X34623Y-32544D01*
X34623Y-32586D01*
X34629Y-32613D01*
X34639Y-32639D01*
X34654Y-32661D01*
X34674Y-32681D01*
X34697Y-32696D01*
X34722Y-32707D01*
X34749Y-32712D01*
X34776Y-32713D01*
X35249Y-32713D01*
X35276Y-32707D01*
X35302Y-32697D01*
X35324Y-32682D01*
X35344Y-32662D01*
X35359Y-32639D01*
X35370Y-32614D01*
X35375Y-32587D01*
X35375Y-32577D01*
X35439Y-32577D01*
X35442Y-32578D01*
X35493Y-32589D01*
X35545Y-32590D01*
X35596Y-32581D01*
X35623Y-32570D01*
X35623Y-32586D01*
X35629Y-32613D01*
X35639Y-32639D01*
X35654Y-32661D01*
X35674Y-32681D01*
X35697Y-32696D01*
X35722Y-32707D01*
X35749Y-32712D01*
X35776Y-32713D01*
X36249Y-32713D01*
X36276Y-32707D01*
X36302Y-32697D01*
X36324Y-32682D01*
X36344Y-32662D01*
X36359Y-32639D01*
X36370Y-32614D01*
X36375Y-32587D01*
X36375Y-32577D01*
X36414Y-32577D01*
X36417Y-32578D01*
X36468Y-32589D01*
X36520Y-32590D01*
X36571Y-32581D01*
X36620Y-32562D01*
X36623Y-32560D01*
X36623Y-32586D01*
X36629Y-32613D01*
X36639Y-32639D01*
X36654Y-32661D01*
X36674Y-32681D01*
X36697Y-32696D01*
X36722Y-32707D01*
X36749Y-32712D01*
X36776Y-32713D01*
X37249Y-32713D01*
X37276Y-32707D01*
X37302Y-32697D01*
X37324Y-32682D01*
X37344Y-32662D01*
X37359Y-32639D01*
X37370Y-32614D01*
X37375Y-32587D01*
X37375Y-32577D01*
X37439Y-32577D01*
X37442Y-32578D01*
X37493Y-32589D01*
X37545Y-32590D01*
X37596Y-32581D01*
X37623Y-32570D01*
X37623Y-32586D01*
X37629Y-32613D01*
X37639Y-32639D01*
X37654Y-32661D01*
X37674Y-32681D01*
X37697Y-32696D01*
X37722Y-32707D01*
X37749Y-32712D01*
X37776Y-32713D01*
X38249Y-32713D01*
X38276Y-32707D01*
X38302Y-32697D01*
X38324Y-32682D01*
X38344Y-32662D01*
X38359Y-32639D01*
X38370Y-32614D01*
X38375Y-32587D01*
X38375Y-32584D01*
X38417Y-32603D01*
X38468Y-32614D01*
X38520Y-32615D01*
X38571Y-32606D01*
X38620Y-32587D01*
X38623Y-32585D01*
X38623Y-32586D01*
X38629Y-32613D01*
X38639Y-32639D01*
X38654Y-32661D01*
X38674Y-32681D01*
X38697Y-32696D01*
X38722Y-32707D01*
X38749Y-32712D01*
X38776Y-32713D01*
X39249Y-32713D01*
X39276Y-32707D01*
X39302Y-32697D01*
X39324Y-32682D01*
X39344Y-32662D01*
X39359Y-32639D01*
X39370Y-32614D01*
X39375Y-32587D01*
X39375Y-32577D01*
X39464Y-32577D01*
X39467Y-32578D01*
X39518Y-32589D01*
X39570Y-32590D01*
X39621Y-32581D01*
X39670Y-32562D01*
X39713Y-32534D01*
X39751Y-32498D01*
X39781Y-32456D01*
X39802Y-32409D01*
X39814Y-32358D01*
X39815Y-32299D01*
X39815Y-34874D01*
X39804Y-34823D01*
X39785Y-34774D01*
X39756Y-34731D01*
X39719Y-34694D01*
X39676Y-34665D01*
X39628Y-34645D01*
X39577Y-34635D01*
X39525Y-34634D01*
X39474Y-34644D01*
X39426Y-34664D01*
X39412Y-34673D01*
X39376Y-34673D01*
X39376Y-34663D01*
X39374Y-34655D01*
X39374Y-34336D01*
X39374Y-33837D01*
X39374Y-33412D01*
X39374Y-32913D01*
X39369Y-32886D01*
X39358Y-32861D01*
X39343Y-32839D01*
X39324Y-32819D01*
X39302Y-32804D01*
X39277Y-32794D01*
X39250Y-32788D01*
X39223Y-32788D01*
X39093Y-32788D01*
X39058Y-32823D01*
X39058Y-33104D01*
X39339Y-33104D01*
X39374Y-33069D01*
X39374Y-32913D01*
X39374Y-33412D01*
X39374Y-33256D01*
X39339Y-33221D01*
X39058Y-33221D01*
X39058Y-33502D01*
X39093Y-33537D01*
X39223Y-33537D01*
X39250Y-33537D01*
X39277Y-33531D01*
X39302Y-33521D01*
X39324Y-33506D01*
X39343Y-33486D01*
X39358Y-33464D01*
X39369Y-33439D01*
X39374Y-33412D01*
X39374Y-33837D01*
X39369Y-33810D01*
X39358Y-33785D01*
X39343Y-33763D01*
X39324Y-33743D01*
X39302Y-33728D01*
X39277Y-33718D01*
X39250Y-33712D01*
X39223Y-33712D01*
X39093Y-33712D01*
X39058Y-33747D01*
X39058Y-34028D01*
X39339Y-34028D01*
X39374Y-33993D01*
X39374Y-33837D01*
X39374Y-34336D01*
X39374Y-34180D01*
X39339Y-34145D01*
X39058Y-34145D01*
X39058Y-34426D01*
X39093Y-34461D01*
X39223Y-34461D01*
X39250Y-34461D01*
X39277Y-34455D01*
X39302Y-34445D01*
X39324Y-34430D01*
X39343Y-34410D01*
X39358Y-34388D01*
X39369Y-34363D01*
X39374Y-34336D01*
X39374Y-34655D01*
X39370Y-34636D01*
X39360Y-34610D01*
X39345Y-34588D01*
X39325Y-34568D01*
X39302Y-34553D01*
X39277Y-34542D01*
X39250Y-34537D01*
X39223Y-34536D01*
X38941Y-34536D01*
X38941Y-34426D01*
X38941Y-34145D01*
X38941Y-34028D01*
X38941Y-33747D01*
X38941Y-33502D01*
X38941Y-33221D01*
X38941Y-33104D01*
X38941Y-32823D01*
X38906Y-32788D01*
X38776Y-32788D01*
X38749Y-32788D01*
X38722Y-32794D01*
X38697Y-32804D01*
X38675Y-32819D01*
X38656Y-32839D01*
X38641Y-32861D01*
X38630Y-32886D01*
X38625Y-32913D01*
X38625Y-33069D01*
X38660Y-33104D01*
X38941Y-33104D01*
X38941Y-33221D01*
X38660Y-33221D01*
X38625Y-33256D01*
X38625Y-33412D01*
X38630Y-33439D01*
X38641Y-33464D01*
X38656Y-33486D01*
X38675Y-33506D01*
X38697Y-33521D01*
X38722Y-33531D01*
X38749Y-33537D01*
X38776Y-33537D01*
X38906Y-33537D01*
X38941Y-33502D01*
X38941Y-33747D01*
X38906Y-33712D01*
X38776Y-33712D01*
X38749Y-33712D01*
X38722Y-33718D01*
X38697Y-33728D01*
X38675Y-33743D01*
X38656Y-33763D01*
X38641Y-33785D01*
X38630Y-33810D01*
X38625Y-33837D01*
X38625Y-33993D01*
X38660Y-34028D01*
X38941Y-34028D01*
X38941Y-34145D01*
X38660Y-34145D01*
X38625Y-34180D01*
X38625Y-34336D01*
X38630Y-34363D01*
X38641Y-34388D01*
X38656Y-34410D01*
X38675Y-34430D01*
X38697Y-34445D01*
X38722Y-34455D01*
X38749Y-34461D01*
X38776Y-34461D01*
X38906Y-34461D01*
X38941Y-34426D01*
X38941Y-34536D01*
X38750Y-34536D01*
X38723Y-34542D01*
X38697Y-34552D01*
X38675Y-34567D01*
X38655Y-34587D01*
X38640Y-34610D01*
X38629Y-34635D01*
X38624Y-34662D01*
X38624Y-34664D01*
X38578Y-34645D01*
X38527Y-34635D01*
X38475Y-34634D01*
X38424Y-34644D01*
X38376Y-34664D01*
X38376Y-34664D01*
X38376Y-34663D01*
X38374Y-34655D01*
X38374Y-34336D01*
X38374Y-33837D01*
X38374Y-33412D01*
X38374Y-32913D01*
X38369Y-32886D01*
X38358Y-32861D01*
X38343Y-32839D01*
X38324Y-32819D01*
X38302Y-32804D01*
X38277Y-32794D01*
X38250Y-32788D01*
X38223Y-32788D01*
X38093Y-32788D01*
X38058Y-32823D01*
X38058Y-33104D01*
X38339Y-33104D01*
X38374Y-33069D01*
X38374Y-32913D01*
X38374Y-33412D01*
X38374Y-33256D01*
X38339Y-33221D01*
X38058Y-33221D01*
X38058Y-33502D01*
X38093Y-33537D01*
X38223Y-33537D01*
X38250Y-33537D01*
X38277Y-33531D01*
X38302Y-33521D01*
X38324Y-33506D01*
X38343Y-33486D01*
X38358Y-33464D01*
X38369Y-33439D01*
X38374Y-33412D01*
X38374Y-33837D01*
X38369Y-33810D01*
X38358Y-33785D01*
X38343Y-33763D01*
X38324Y-33743D01*
X38302Y-33728D01*
X38277Y-33718D01*
X38250Y-33712D01*
X38223Y-33712D01*
X38093Y-33712D01*
X38058Y-33747D01*
X38058Y-34028D01*
X38339Y-34028D01*
X38374Y-33993D01*
X38374Y-33837D01*
X38374Y-34336D01*
X38374Y-34180D01*
X38339Y-34145D01*
X38058Y-34145D01*
X38058Y-34426D01*
X38093Y-34461D01*
X38223Y-34461D01*
X38250Y-34461D01*
X38277Y-34455D01*
X38302Y-34445D01*
X38324Y-34430D01*
X38343Y-34410D01*
X38358Y-34388D01*
X38369Y-34363D01*
X38374Y-34336D01*
X38374Y-34655D01*
X38370Y-34636D01*
X38360Y-34610D01*
X38345Y-34588D01*
X38325Y-34568D01*
X38302Y-34553D01*
X38277Y-34542D01*
X38250Y-34537D01*
X38223Y-34536D01*
X37941Y-34536D01*
X37941Y-34426D01*
X37941Y-34145D01*
X37941Y-34028D01*
X37941Y-33747D01*
X37941Y-33502D01*
X37941Y-33221D01*
X37941Y-33104D01*
X37941Y-32823D01*
X37906Y-32788D01*
X37776Y-32788D01*
X37749Y-32788D01*
X37722Y-32794D01*
X37697Y-32804D01*
X37675Y-32819D01*
X37656Y-32839D01*
X37641Y-32861D01*
X37630Y-32886D01*
X37625Y-32913D01*
X37625Y-33069D01*
X37660Y-33104D01*
X37941Y-33104D01*
X37941Y-33221D01*
X37660Y-33221D01*
X37625Y-33256D01*
X37625Y-33412D01*
X37630Y-33439D01*
X37641Y-33464D01*
X37656Y-33486D01*
X37675Y-33506D01*
X37697Y-33521D01*
X37722Y-33531D01*
X37749Y-33537D01*
X37776Y-33537D01*
X37906Y-33537D01*
X37941Y-33502D01*
X37941Y-33747D01*
X37906Y-33712D01*
X37776Y-33712D01*
X37749Y-33712D01*
X37722Y-33718D01*
X37697Y-33728D01*
X37675Y-33743D01*
X37656Y-33763D01*
X37641Y-33785D01*
X37630Y-33810D01*
X37625Y-33837D01*
X37625Y-33993D01*
X37660Y-34028D01*
X37941Y-34028D01*
X37941Y-34145D01*
X37660Y-34145D01*
X37625Y-34180D01*
X37625Y-34336D01*
X37630Y-34363D01*
X37641Y-34388D01*
X37656Y-34410D01*
X37675Y-34430D01*
X37697Y-34445D01*
X37722Y-34455D01*
X37749Y-34461D01*
X37776Y-34461D01*
X37906Y-34461D01*
X37941Y-34426D01*
X37941Y-34536D01*
X37750Y-34536D01*
X37723Y-34542D01*
X37697Y-34552D01*
X37675Y-34567D01*
X37655Y-34587D01*
X37640Y-34610D01*
X37629Y-34635D01*
X37625Y-34654D01*
X37603Y-34645D01*
X37552Y-34635D01*
X37500Y-34634D01*
X37449Y-34644D01*
X37401Y-34664D01*
X37387Y-34673D01*
X37376Y-34673D01*
X37376Y-34663D01*
X37374Y-34655D01*
X37374Y-34336D01*
X37374Y-33837D01*
X37374Y-33412D01*
X37374Y-32913D01*
X37369Y-32886D01*
X37358Y-32861D01*
X37343Y-32839D01*
X37324Y-32819D01*
X37302Y-32804D01*
X37277Y-32794D01*
X37250Y-32788D01*
X37223Y-32788D01*
X37093Y-32788D01*
X37058Y-32823D01*
X37058Y-33104D01*
X37339Y-33104D01*
X37374Y-33069D01*
X37374Y-32913D01*
X37374Y-33412D01*
X37374Y-33256D01*
X37339Y-33221D01*
X37058Y-33221D01*
X37058Y-33502D01*
X37093Y-33537D01*
X37223Y-33537D01*
X37250Y-33537D01*
X37277Y-33531D01*
X37302Y-33521D01*
X37324Y-33506D01*
X37343Y-33486D01*
X37358Y-33464D01*
X37369Y-33439D01*
X37374Y-33412D01*
X37374Y-33837D01*
X37369Y-33810D01*
X37358Y-33785D01*
X37343Y-33763D01*
X37324Y-33743D01*
X37302Y-33728D01*
X37277Y-33718D01*
X37250Y-33712D01*
X37223Y-33712D01*
X37093Y-33712D01*
X37058Y-33747D01*
X37058Y-34028D01*
X37339Y-34028D01*
X37374Y-33993D01*
X37374Y-33837D01*
X37374Y-34336D01*
X37374Y-34180D01*
X37339Y-34145D01*
X37058Y-34145D01*
X37058Y-34426D01*
X37093Y-34461D01*
X37223Y-34461D01*
X37250Y-34461D01*
X37277Y-34455D01*
X37302Y-34445D01*
X37324Y-34430D01*
X37343Y-34410D01*
X37358Y-34388D01*
X37369Y-34363D01*
X37374Y-34336D01*
X37374Y-34655D01*
X37370Y-34636D01*
X37360Y-34610D01*
X37345Y-34588D01*
X37325Y-34568D01*
X37302Y-34553D01*
X37277Y-34542D01*
X37250Y-34537D01*
X37223Y-34536D01*
X36941Y-34536D01*
X36941Y-34426D01*
X36941Y-34145D01*
X36941Y-34028D01*
X36941Y-33747D01*
X36941Y-33502D01*
X36941Y-33221D01*
X36941Y-33104D01*
X36941Y-32823D01*
X36906Y-32788D01*
X36776Y-32788D01*
X36749Y-32788D01*
X36722Y-32794D01*
X36697Y-32804D01*
X36675Y-32819D01*
X36656Y-32839D01*
X36641Y-32861D01*
X36630Y-32886D01*
X36625Y-32913D01*
X36625Y-33069D01*
X36660Y-33104D01*
X36941Y-33104D01*
X36941Y-33221D01*
X36660Y-33221D01*
X36625Y-33256D01*
X36625Y-33412D01*
X36630Y-33439D01*
X36641Y-33464D01*
X36656Y-33486D01*
X36675Y-33506D01*
X36697Y-33521D01*
X36722Y-33531D01*
X36749Y-33537D01*
X36776Y-33537D01*
X36906Y-33537D01*
X36941Y-33502D01*
X36941Y-33747D01*
X36906Y-33712D01*
X36776Y-33712D01*
X36749Y-33712D01*
X36722Y-33718D01*
X36697Y-33728D01*
X36675Y-33743D01*
X36656Y-33763D01*
X36641Y-33785D01*
X36630Y-33810D01*
X36625Y-33837D01*
X36625Y-33993D01*
X36660Y-34028D01*
X36941Y-34028D01*
X36941Y-34145D01*
X36660Y-34145D01*
X36625Y-34180D01*
X36625Y-34336D01*
X36630Y-34363D01*
X36641Y-34388D01*
X36656Y-34410D01*
X36675Y-34430D01*
X36697Y-34445D01*
X36722Y-34455D01*
X36749Y-34461D01*
X36776Y-34461D01*
X36906Y-34461D01*
X36941Y-34426D01*
X36941Y-34536D01*
X36750Y-34536D01*
X36723Y-34542D01*
X36697Y-34552D01*
X36675Y-34567D01*
X36655Y-34587D01*
X36640Y-34610D01*
X36629Y-34635D01*
X36624Y-34662D01*
X36624Y-34664D01*
X36578Y-34645D01*
X36527Y-34635D01*
X36475Y-34634D01*
X36424Y-34644D01*
X36376Y-34664D01*
X36376Y-34664D01*
X36376Y-34663D01*
X36374Y-34655D01*
X36374Y-34336D01*
X36374Y-33837D01*
X36374Y-33412D01*
X36374Y-32913D01*
X36369Y-32886D01*
X36358Y-32861D01*
X36343Y-32839D01*
X36324Y-32819D01*
X36302Y-32804D01*
X36277Y-32794D01*
X36250Y-32788D01*
X36223Y-32788D01*
X36093Y-32788D01*
X36058Y-32823D01*
X36058Y-33104D01*
X36339Y-33104D01*
X36374Y-33069D01*
X36374Y-32913D01*
X36374Y-33412D01*
X36374Y-33256D01*
X36339Y-33221D01*
X36058Y-33221D01*
X36058Y-33502D01*
X36093Y-33537D01*
X36223Y-33537D01*
X36250Y-33537D01*
X36277Y-33531D01*
X36302Y-33521D01*
X36324Y-33506D01*
X36343Y-33486D01*
X36358Y-33464D01*
X36369Y-33439D01*
X36374Y-33412D01*
X36374Y-33837D01*
X36369Y-33810D01*
X36358Y-33785D01*
X36343Y-33763D01*
X36324Y-33743D01*
X36302Y-33728D01*
X36277Y-33718D01*
X36250Y-33712D01*
X36223Y-33712D01*
X36093Y-33712D01*
X36058Y-33747D01*
X36058Y-34028D01*
X36339Y-34028D01*
X36374Y-33993D01*
X36374Y-33837D01*
X36374Y-34336D01*
X36374Y-34180D01*
X36339Y-34145D01*
X36058Y-34145D01*
X36058Y-34426D01*
X36093Y-34461D01*
X36223Y-34461D01*
X36250Y-34461D01*
X36277Y-34455D01*
X36302Y-34445D01*
X36324Y-34430D01*
X36343Y-34410D01*
X36358Y-34388D01*
X36369Y-34363D01*
X36374Y-34336D01*
X36374Y-34655D01*
X36370Y-34636D01*
X36360Y-34610D01*
X36345Y-34588D01*
X36325Y-34568D01*
X36302Y-34553D01*
X36277Y-34542D01*
X36250Y-34537D01*
X36223Y-34536D01*
X35941Y-34536D01*
X35941Y-34426D01*
X35941Y-34145D01*
X35941Y-34028D01*
X35941Y-33747D01*
X35941Y-33502D01*
X35941Y-33221D01*
X35941Y-33104D01*
X35941Y-32823D01*
X35906Y-32788D01*
X35776Y-32788D01*
X35749Y-32788D01*
X35722Y-32794D01*
X35697Y-32804D01*
X35675Y-32819D01*
X35656Y-32839D01*
X35641Y-32861D01*
X35630Y-32886D01*
X35625Y-32913D01*
X35625Y-33069D01*
X35660Y-33104D01*
X35941Y-33104D01*
X35941Y-33221D01*
X35660Y-33221D01*
X35625Y-33256D01*
X35625Y-33412D01*
X35630Y-33439D01*
X35641Y-33464D01*
X35656Y-33486D01*
X35675Y-33506D01*
X35697Y-33521D01*
X35722Y-33531D01*
X35749Y-33537D01*
X35776Y-33537D01*
X35906Y-33537D01*
X35941Y-33502D01*
X35941Y-33747D01*
X35906Y-33712D01*
X35776Y-33712D01*
X35749Y-33712D01*
X35722Y-33718D01*
X35697Y-33728D01*
X35675Y-33743D01*
X35656Y-33763D01*
X35641Y-33785D01*
X35630Y-33810D01*
X35625Y-33837D01*
X35625Y-33993D01*
X35660Y-34028D01*
X35941Y-34028D01*
X35941Y-34145D01*
X35660Y-34145D01*
X35625Y-34180D01*
X35625Y-34336D01*
X35630Y-34363D01*
X35641Y-34388D01*
X35656Y-34410D01*
X35675Y-34430D01*
X35697Y-34445D01*
X35722Y-34455D01*
X35749Y-34461D01*
X35776Y-34461D01*
X35906Y-34461D01*
X35941Y-34426D01*
X35941Y-34536D01*
X35750Y-34536D01*
X35723Y-34542D01*
X35697Y-34552D01*
X35675Y-34567D01*
X35655Y-34587D01*
X35640Y-34610D01*
X35629Y-34635D01*
X35625Y-34654D01*
X35603Y-34645D01*
X35552Y-34635D01*
X35500Y-34634D01*
X35449Y-34644D01*
X35401Y-34664D01*
X35387Y-34673D01*
X35376Y-34673D01*
X35376Y-34663D01*
X35374Y-34655D01*
X35374Y-34336D01*
X35374Y-33837D01*
X35374Y-33412D01*
X35374Y-32913D01*
X35369Y-32886D01*
X35358Y-32861D01*
X35343Y-32839D01*
X35324Y-32819D01*
X35302Y-32804D01*
X35277Y-32794D01*
X35250Y-32788D01*
X35223Y-32788D01*
X35093Y-32788D01*
X35058Y-32823D01*
X35058Y-33104D01*
X35339Y-33104D01*
X35374Y-33069D01*
X35374Y-32913D01*
X35374Y-33412D01*
X35374Y-33256D01*
X35339Y-33221D01*
X35058Y-33221D01*
X35058Y-33502D01*
X35093Y-33537D01*
X35223Y-33537D01*
X35250Y-33537D01*
X35277Y-33531D01*
X35302Y-33521D01*
X35324Y-33506D01*
X35343Y-33486D01*
X35358Y-33464D01*
X35369Y-33439D01*
X35374Y-33412D01*
X35374Y-33837D01*
X35369Y-33810D01*
X35358Y-33785D01*
X35343Y-33763D01*
X35324Y-33743D01*
X35302Y-33728D01*
X35277Y-33718D01*
X35250Y-33712D01*
X35223Y-33712D01*
X35093Y-33712D01*
X35058Y-33747D01*
X35058Y-34028D01*
X35339Y-34028D01*
X35374Y-33993D01*
X35374Y-33837D01*
X35374Y-34336D01*
X35374Y-34180D01*
X35339Y-34145D01*
X35058Y-34145D01*
X35058Y-34426D01*
X35093Y-34461D01*
X35223Y-34461D01*
X35250Y-34461D01*
X35277Y-34455D01*
X35302Y-34445D01*
X35324Y-34430D01*
X35343Y-34410D01*
X35358Y-34388D01*
X35369Y-34363D01*
X35374Y-34336D01*
X35374Y-34655D01*
X35370Y-34636D01*
X35360Y-34610D01*
X35345Y-34588D01*
X35325Y-34568D01*
X35302Y-34553D01*
X35277Y-34542D01*
X35250Y-34537D01*
X35223Y-34536D01*
X34941Y-34536D01*
X34941Y-34426D01*
X34941Y-34145D01*
X34941Y-34028D01*
X34941Y-33747D01*
X34941Y-33502D01*
X34941Y-33221D01*
X34941Y-33104D01*
X34941Y-32823D01*
X34906Y-32788D01*
X34776Y-32788D01*
X34749Y-32788D01*
X34722Y-32794D01*
X34697Y-32804D01*
X34675Y-32819D01*
X34656Y-32839D01*
X34641Y-32861D01*
X34630Y-32886D01*
X34625Y-32913D01*
X34625Y-33069D01*
X34660Y-33104D01*
X34941Y-33104D01*
X34941Y-33221D01*
X34660Y-33221D01*
X34625Y-33256D01*
X34625Y-33412D01*
X34630Y-33439D01*
X34641Y-33464D01*
X34656Y-33486D01*
X34675Y-33506D01*
X34697Y-33521D01*
X34722Y-33531D01*
X34749Y-33537D01*
X34776Y-33537D01*
X34906Y-33537D01*
X34941Y-33502D01*
X34941Y-33747D01*
X34906Y-33712D01*
X34776Y-33712D01*
X34749Y-33712D01*
X34722Y-33718D01*
X34697Y-33728D01*
X34675Y-33743D01*
X34656Y-33763D01*
X34641Y-33785D01*
X34630Y-33810D01*
X34625Y-33837D01*
X34625Y-33993D01*
X34660Y-34028D01*
X34941Y-34028D01*
X34941Y-34145D01*
X34660Y-34145D01*
X34625Y-34180D01*
X34625Y-34336D01*
X34630Y-34363D01*
X34641Y-34388D01*
X34656Y-34410D01*
X34675Y-34430D01*
X34697Y-34445D01*
X34722Y-34455D01*
X34749Y-34461D01*
X34776Y-34461D01*
X34906Y-34461D01*
X34941Y-34426D01*
X34941Y-34536D01*
X34750Y-34536D01*
X34723Y-34542D01*
X34697Y-34552D01*
X34675Y-34567D01*
X34655Y-34587D01*
X34640Y-34610D01*
X34629Y-34635D01*
X34624Y-34662D01*
X34623Y-34689D01*
X34623Y-34705D01*
X34601Y-34690D01*
X34553Y-34670D01*
X34502Y-34660D01*
X34450Y-34659D01*
X34399Y-34669D01*
X34391Y-34673D01*
X34376Y-34673D01*
X34376Y-34663D01*
X34374Y-34655D01*
X34374Y-34336D01*
X34374Y-33837D01*
X34374Y-33412D01*
X34374Y-32913D01*
X34369Y-32886D01*
X34358Y-32861D01*
X34343Y-32839D01*
X34324Y-32819D01*
X34302Y-32804D01*
X34277Y-32794D01*
X34250Y-32788D01*
X34223Y-32788D01*
X34093Y-32788D01*
X34058Y-32823D01*
X34058Y-33104D01*
X34339Y-33104D01*
X34374Y-33069D01*
X34374Y-32913D01*
X34374Y-33412D01*
X34374Y-33256D01*
X34339Y-33221D01*
X34058Y-33221D01*
X34058Y-33502D01*
X34093Y-33537D01*
X34223Y-33537D01*
X34250Y-33537D01*
X34277Y-33531D01*
X34302Y-33521D01*
X34324Y-33506D01*
X34343Y-33486D01*
X34358Y-33464D01*
X34369Y-33439D01*
X34374Y-33412D01*
X34374Y-33837D01*
X34369Y-33810D01*
X34358Y-33785D01*
X34343Y-33763D01*
X34324Y-33743D01*
X34302Y-33728D01*
X34277Y-33718D01*
X34250Y-33712D01*
X34223Y-33712D01*
X34093Y-33712D01*
X34058Y-33747D01*
X34058Y-34028D01*
X34339Y-34028D01*
X34374Y-33993D01*
X34374Y-33837D01*
X34374Y-34336D01*
X34374Y-34180D01*
X34339Y-34145D01*
X34058Y-34145D01*
X34058Y-34426D01*
X34093Y-34461D01*
X34223Y-34461D01*
X34250Y-34461D01*
X34277Y-34455D01*
X34302Y-34445D01*
X34324Y-34430D01*
X34343Y-34410D01*
X34358Y-34388D01*
X34369Y-34363D01*
X34374Y-34336D01*
X34374Y-34655D01*
X34370Y-34636D01*
X34360Y-34610D01*
X34345Y-34588D01*
X34325Y-34568D01*
X34302Y-34553D01*
X34277Y-34542D01*
X34250Y-34537D01*
X34223Y-34536D01*
X33941Y-34536D01*
X33941Y-34426D01*
X33941Y-34145D01*
X33941Y-34028D01*
X33941Y-33747D01*
X33941Y-33502D01*
X33941Y-33221D01*
X33941Y-33104D01*
X33941Y-32823D01*
X33906Y-32788D01*
X33776Y-32788D01*
X33749Y-32788D01*
X33722Y-32794D01*
X33697Y-32804D01*
X33675Y-32819D01*
X33656Y-32839D01*
X33641Y-32861D01*
X33630Y-32886D01*
X33625Y-32913D01*
X33625Y-33069D01*
X33660Y-33104D01*
X33941Y-33104D01*
X33941Y-33221D01*
X33660Y-33221D01*
X33625Y-33256D01*
X33625Y-33412D01*
X33630Y-33439D01*
X33641Y-33464D01*
X33656Y-33486D01*
X33675Y-33506D01*
X33697Y-33521D01*
X33722Y-33531D01*
X33749Y-33537D01*
X33776Y-33537D01*
X33906Y-33537D01*
X33941Y-33502D01*
X33941Y-33747D01*
X33906Y-33712D01*
X33776Y-33712D01*
X33749Y-33712D01*
X33722Y-33718D01*
X33697Y-33728D01*
X33675Y-33743D01*
X33656Y-33763D01*
X33641Y-33785D01*
X33630Y-33810D01*
X33625Y-33837D01*
X33625Y-33993D01*
X33660Y-34028D01*
X33941Y-34028D01*
X33941Y-34145D01*
X33660Y-34145D01*
X33625Y-34180D01*
X33625Y-34336D01*
X33630Y-34363D01*
X33641Y-34388D01*
X33656Y-34410D01*
X33675Y-34430D01*
X33697Y-34445D01*
X33722Y-34455D01*
X33749Y-34461D01*
X33776Y-34461D01*
X33906Y-34461D01*
X33941Y-34426D01*
X33941Y-34536D01*
X33750Y-34536D01*
X33723Y-34542D01*
X33697Y-34552D01*
X33675Y-34567D01*
X33655Y-34587D01*
X33640Y-34610D01*
X33629Y-34635D01*
X33624Y-34662D01*
X33623Y-34689D01*
X33578Y-34670D01*
X33527Y-34660D01*
X33475Y-34659D01*
X33424Y-34669D01*
X33416Y-34673D01*
X33376Y-34673D01*
X33376Y-34663D01*
X33374Y-34655D01*
X33374Y-34336D01*
X33374Y-33837D01*
X33374Y-33412D01*
X33374Y-32913D01*
X33369Y-32886D01*
X33358Y-32861D01*
X33343Y-32839D01*
X33324Y-32819D01*
X33302Y-32804D01*
X33277Y-32794D01*
X33250Y-32788D01*
X33223Y-32788D01*
X33093Y-32788D01*
X33058Y-32823D01*
X33058Y-33104D01*
X33339Y-33104D01*
X33374Y-33069D01*
X33374Y-32913D01*
X33374Y-33412D01*
X33374Y-33256D01*
X33339Y-33221D01*
X33058Y-33221D01*
X33058Y-33502D01*
X33093Y-33537D01*
X33223Y-33537D01*
X33250Y-33537D01*
X33277Y-33531D01*
X33302Y-33521D01*
X33324Y-33506D01*
X33343Y-33486D01*
X33358Y-33464D01*
X33369Y-33439D01*
X33374Y-33412D01*
X33374Y-33837D01*
X33369Y-33810D01*
X33358Y-33785D01*
X33343Y-33763D01*
X33324Y-33743D01*
X33302Y-33728D01*
X33277Y-33718D01*
X33250Y-33712D01*
X33223Y-33712D01*
X33093Y-33712D01*
X33058Y-33747D01*
X33058Y-34028D01*
X33339Y-34028D01*
X33374Y-33993D01*
X33374Y-33837D01*
X33374Y-34336D01*
X33374Y-34180D01*
X33339Y-34145D01*
X33058Y-34145D01*
X33058Y-34426D01*
X33093Y-34461D01*
X33223Y-34461D01*
X33250Y-34461D01*
X33277Y-34455D01*
X33302Y-34445D01*
X33324Y-34430D01*
X33343Y-34410D01*
X33358Y-34388D01*
X33369Y-34363D01*
X33374Y-34336D01*
X33374Y-34655D01*
X33370Y-34636D01*
X33360Y-34610D01*
X33345Y-34588D01*
X33325Y-34568D01*
X33302Y-34553D01*
X33277Y-34542D01*
X33250Y-34537D01*
X33223Y-34536D01*
X32941Y-34536D01*
X32941Y-34426D01*
X32941Y-34145D01*
X32941Y-34028D01*
X32941Y-33747D01*
X32941Y-33502D01*
X32941Y-33221D01*
X32941Y-33104D01*
X32941Y-32823D01*
X32906Y-32788D01*
X32776Y-32788D01*
X32749Y-32788D01*
X32722Y-32794D01*
X32697Y-32804D01*
X32675Y-32819D01*
X32656Y-32839D01*
X32641Y-32861D01*
X32630Y-32886D01*
X32625Y-32913D01*
X32625Y-33069D01*
X32660Y-33104D01*
X32941Y-33104D01*
X32941Y-33221D01*
X32660Y-33221D01*
X32625Y-33256D01*
X32625Y-33412D01*
X32630Y-33439D01*
X32641Y-33464D01*
X32656Y-33486D01*
X32675Y-33506D01*
X32697Y-33521D01*
X32722Y-33531D01*
X32749Y-33537D01*
X32776Y-33537D01*
X32906Y-33537D01*
X32941Y-33502D01*
X32941Y-33747D01*
X32906Y-33712D01*
X32776Y-33712D01*
X32749Y-33712D01*
X32722Y-33718D01*
X32697Y-33728D01*
X32675Y-33743D01*
X32656Y-33763D01*
X32641Y-33785D01*
X32630Y-33810D01*
X32625Y-33837D01*
X32625Y-33993D01*
X32660Y-34028D01*
X32941Y-34028D01*
X32941Y-34145D01*
X32660Y-34145D01*
X32625Y-34180D01*
X32625Y-34336D01*
X32630Y-34363D01*
X32641Y-34388D01*
X32656Y-34410D01*
X32675Y-34430D01*
X32697Y-34445D01*
X32722Y-34455D01*
X32749Y-34461D01*
X32776Y-34461D01*
X32906Y-34461D01*
X32941Y-34426D01*
X32941Y-34536D01*
X32750Y-34536D01*
X32723Y-34542D01*
X32697Y-34552D01*
X32675Y-34567D01*
X32655Y-34587D01*
X32640Y-34610D01*
X32629Y-34635D01*
X32624Y-34662D01*
X32623Y-34689D01*
X32578Y-34670D01*
X32527Y-34660D01*
X32475Y-34659D01*
X32424Y-34669D01*
X32416Y-34673D01*
X32376Y-34673D01*
X32376Y-34663D01*
X32374Y-34655D01*
X32374Y-34336D01*
X32374Y-33837D01*
X32374Y-33412D01*
X32374Y-32913D01*
X32369Y-32886D01*
X32358Y-32861D01*
X32343Y-32839D01*
X32324Y-32819D01*
X32302Y-32804D01*
X32277Y-32794D01*
X32250Y-32788D01*
X32223Y-32788D01*
X32093Y-32788D01*
X32058Y-32823D01*
X32058Y-33104D01*
X32339Y-33104D01*
X32374Y-33069D01*
X32374Y-32913D01*
X32374Y-33412D01*
X32374Y-33256D01*
X32339Y-33221D01*
X32058Y-33221D01*
X32058Y-33502D01*
X32093Y-33537D01*
X32223Y-33537D01*
X32250Y-33537D01*
X32277Y-33531D01*
X32302Y-33521D01*
X32324Y-33506D01*
X32343Y-33486D01*
X32358Y-33464D01*
X32369Y-33439D01*
X32374Y-33412D01*
X32374Y-33837D01*
X32369Y-33810D01*
X32358Y-33785D01*
X32343Y-33763D01*
X32324Y-33743D01*
X32302Y-33728D01*
X32277Y-33718D01*
X32250Y-33712D01*
X32223Y-33712D01*
X32093Y-33712D01*
X32058Y-33747D01*
X32058Y-34028D01*
X32339Y-34028D01*
X32374Y-33993D01*
X32374Y-33837D01*
X32374Y-34336D01*
X32374Y-34180D01*
X32339Y-34145D01*
X32058Y-34145D01*
X32058Y-34426D01*
X32093Y-34461D01*
X32223Y-34461D01*
X32250Y-34461D01*
X32277Y-34455D01*
X32302Y-34445D01*
X32324Y-34430D01*
X32343Y-34410D01*
X32358Y-34388D01*
X32369Y-34363D01*
X32374Y-34336D01*
X32374Y-34655D01*
X32370Y-34636D01*
X32360Y-34610D01*
X32345Y-34588D01*
X32325Y-34568D01*
X32302Y-34553D01*
X32277Y-34542D01*
X32250Y-34537D01*
X32223Y-34536D01*
X31941Y-34536D01*
X31941Y-34426D01*
X31941Y-34145D01*
X31941Y-34028D01*
X31941Y-33747D01*
X31941Y-33502D01*
X31941Y-33221D01*
X31941Y-33104D01*
X31941Y-32823D01*
X31906Y-32788D01*
X31776Y-32788D01*
X31749Y-32788D01*
X31722Y-32794D01*
X31697Y-32804D01*
X31675Y-32819D01*
X31656Y-32839D01*
X31641Y-32861D01*
X31630Y-32886D01*
X31625Y-32913D01*
X31625Y-33069D01*
X31660Y-33104D01*
X31941Y-33104D01*
X31941Y-33221D01*
X31660Y-33221D01*
X31625Y-33256D01*
X31625Y-33412D01*
X31630Y-33439D01*
X31641Y-33464D01*
X31656Y-33486D01*
X31675Y-33506D01*
X31697Y-33521D01*
X31722Y-33531D01*
X31749Y-33537D01*
X31776Y-33537D01*
X31906Y-33537D01*
X31941Y-33502D01*
X31941Y-33747D01*
X31906Y-33712D01*
X31776Y-33712D01*
X31749Y-33712D01*
X31722Y-33718D01*
X31697Y-33728D01*
X31675Y-33743D01*
X31656Y-33763D01*
X31641Y-33785D01*
X31630Y-33810D01*
X31625Y-33837D01*
X31625Y-33993D01*
X31660Y-34028D01*
X31941Y-34028D01*
X31941Y-34145D01*
X31660Y-34145D01*
X31625Y-34180D01*
X31625Y-34336D01*
X31630Y-34363D01*
X31641Y-34388D01*
X31656Y-34410D01*
X31675Y-34430D01*
X31697Y-34445D01*
X31722Y-34455D01*
X31749Y-34461D01*
X31776Y-34461D01*
X31906Y-34461D01*
X31941Y-34426D01*
X31941Y-34536D01*
X31750Y-34536D01*
X31723Y-34542D01*
X31697Y-34552D01*
X31675Y-34567D01*
X31655Y-34587D01*
X31640Y-34610D01*
X31629Y-34635D01*
X31624Y-34662D01*
X31623Y-34689D01*
X31623Y-35162D01*
X31629Y-35189D01*
X31639Y-35215D01*
X31654Y-35237D01*
X31674Y-35257D01*
X31697Y-35272D01*
X31722Y-35283D01*
X31749Y-35288D01*
X31776Y-35289D01*
X32249Y-35289D01*
X32276Y-35283D01*
X32302Y-35273D01*
X32324Y-35258D01*
X32344Y-35238D01*
X32359Y-35215D01*
X32370Y-35190D01*
X32375Y-35163D01*
X32375Y-35159D01*
X32417Y-35178D01*
X32468Y-35189D01*
X32520Y-35190D01*
X32571Y-35181D01*
X32620Y-35162D01*
X32623Y-35160D01*
X32623Y-35162D01*
X32629Y-35189D01*
X32639Y-35215D01*
X32654Y-35237D01*
X32674Y-35257D01*
X32697Y-35272D01*
X32722Y-35283D01*
X32749Y-35288D01*
X32776Y-35289D01*
X33249Y-35289D01*
X33276Y-35283D01*
X33302Y-35273D01*
X33324Y-35258D01*
X33344Y-35238D01*
X33359Y-35215D01*
X33370Y-35190D01*
X33375Y-35163D01*
X33375Y-35159D01*
X33417Y-35178D01*
X33468Y-35189D01*
X33520Y-35190D01*
X33571Y-35181D01*
X33620Y-35162D01*
X33623Y-35160D01*
X33623Y-35162D01*
X33629Y-35189D01*
X33639Y-35215D01*
X33654Y-35237D01*
X33674Y-35257D01*
X33697Y-35272D01*
X33722Y-35283D01*
X33749Y-35288D01*
X33776Y-35289D01*
X34249Y-35289D01*
X34276Y-35283D01*
X34302Y-35273D01*
X34324Y-35258D01*
X34344Y-35238D01*
X34359Y-35215D01*
X34370Y-35190D01*
X34374Y-35170D01*
X34392Y-35178D01*
X34443Y-35189D01*
X34495Y-35190D01*
X34546Y-35181D01*
X34595Y-35162D01*
X34623Y-35144D01*
X34623Y-35162D01*
X34629Y-35189D01*
X34639Y-35215D01*
X34654Y-35237D01*
X34674Y-35257D01*
X34697Y-35272D01*
X34722Y-35283D01*
X34749Y-35288D01*
X34776Y-35289D01*
X35249Y-35289D01*
X35276Y-35283D01*
X35302Y-35273D01*
X35324Y-35258D01*
X35344Y-35238D01*
X35359Y-35215D01*
X35370Y-35190D01*
X35375Y-35163D01*
X35375Y-35153D01*
X35442Y-35153D01*
X35442Y-35153D01*
X35493Y-35164D01*
X35545Y-35165D01*
X35596Y-35156D01*
X35623Y-35145D01*
X35623Y-35162D01*
X35629Y-35189D01*
X35639Y-35215D01*
X35654Y-35237D01*
X35674Y-35257D01*
X35697Y-35272D01*
X35722Y-35283D01*
X35749Y-35288D01*
X35776Y-35289D01*
X36249Y-35289D01*
X36276Y-35283D01*
X36302Y-35273D01*
X36324Y-35258D01*
X36344Y-35238D01*
X36359Y-35215D01*
X36370Y-35190D01*
X36375Y-35163D01*
X36375Y-35153D01*
X36417Y-35153D01*
X36417Y-35153D01*
X36468Y-35164D01*
X36520Y-35165D01*
X36571Y-35156D01*
X36620Y-35137D01*
X36623Y-35135D01*
X36623Y-35162D01*
X36629Y-35189D01*
X36639Y-35215D01*
X36654Y-35237D01*
X36674Y-35257D01*
X36697Y-35272D01*
X36722Y-35283D01*
X36749Y-35288D01*
X36776Y-35289D01*
X37249Y-35289D01*
X37276Y-35283D01*
X37302Y-35273D01*
X37324Y-35258D01*
X37344Y-35238D01*
X37359Y-35215D01*
X37370Y-35190D01*
X37375Y-35163D01*
X37375Y-35153D01*
X37442Y-35153D01*
X37442Y-35153D01*
X37493Y-35164D01*
X37545Y-35165D01*
X37596Y-35156D01*
X37623Y-35145D01*
X37623Y-35162D01*
X37629Y-35189D01*
X37639Y-35215D01*
X37654Y-35237D01*
X37674Y-35257D01*
X37697Y-35272D01*
X37722Y-35283D01*
X37749Y-35288D01*
X37776Y-35289D01*
X38249Y-35289D01*
X38276Y-35283D01*
X38302Y-35273D01*
X38324Y-35258D01*
X38344Y-35238D01*
X38359Y-35215D01*
X38370Y-35190D01*
X38375Y-35163D01*
X38375Y-35153D01*
X38417Y-35153D01*
X38417Y-35153D01*
X38468Y-35164D01*
X38520Y-35165D01*
X38571Y-35156D01*
X38620Y-35137D01*
X38623Y-35135D01*
X38623Y-35162D01*
X38629Y-35189D01*
X38639Y-35215D01*
X38654Y-35237D01*
X38674Y-35257D01*
X38697Y-35272D01*
X38722Y-35283D01*
X38749Y-35288D01*
X38776Y-35289D01*
X39249Y-35289D01*
X39276Y-35283D01*
X39302Y-35273D01*
X39324Y-35258D01*
X39344Y-35238D01*
X39359Y-35215D01*
X39370Y-35190D01*
X39375Y-35163D01*
X39375Y-35153D01*
X39467Y-35153D01*
X39467Y-35153D01*
X39518Y-35164D01*
X39570Y-35165D01*
X39621Y-35156D01*
X39670Y-35137D01*
X39713Y-35109D01*
X39751Y-35073D01*
X39781Y-35031D01*
X39802Y-34984D01*
X39814Y-34933D01*
X39815Y-34874D01*
X39815Y-35561D01*
X39686Y-35561D01*
X39659Y-35566D01*
X39634Y-35577D01*
X39612Y-35592D01*
X39592Y-35611D01*
X39577Y-35633D01*
X39567Y-35658D01*
X39561Y-35685D01*
X39561Y-35712D01*
X39561Y-35906D01*
X39596Y-35941D01*
X39941Y-35941D01*
X39941Y-36058D01*
X39596Y-36058D01*
X39561Y-36093D01*
X39561Y-36287D01*
X39561Y-36314D01*
X39567Y-36341D01*
X39577Y-36366D01*
X39592Y-36388D01*
X39612Y-36407D01*
X39634Y-36422D01*
X39659Y-36433D01*
X39686Y-36438D01*
X39906Y-36438D01*
X39941Y-36403D01*
X39941Y-36495D01*
X39440Y-36495D01*
X39440Y-35956D01*
X39423Y-35872D01*
X39390Y-35792D01*
X39342Y-35720D01*
X39281Y-35659D01*
X39210Y-35611D01*
X39130Y-35577D01*
X39046Y-35560D01*
X38959Y-35559D01*
X38875Y-35575D01*
X38795Y-35608D01*
X38722Y-35655D01*
X38661Y-35715D01*
X38612Y-35787D01*
X38578Y-35866D01*
X38560Y-35950D01*
X38559Y-36036D01*
X38574Y-36121D01*
X38606Y-36202D01*
X38653Y-36274D01*
X38713Y-36336D01*
X38784Y-36385D01*
X38863Y-36420D01*
X38947Y-36439D01*
X39033Y-36440D01*
X39118Y-36425D01*
X39199Y-36394D01*
X39272Y-36348D01*
X39334Y-36288D01*
X39384Y-36218D01*
X39419Y-36139D01*
X39438Y-36055D01*
X39440Y-35956D01*
X39440Y-36495D01*
X38440Y-36495D01*
X38440Y-35956D01*
X38423Y-35872D01*
X38390Y-35792D01*
X38342Y-35720D01*
X38281Y-35659D01*
X38210Y-35611D01*
X38130Y-35577D01*
X38046Y-35560D01*
X37959Y-35559D01*
X37875Y-35575D01*
X37795Y-35608D01*
X37722Y-35655D01*
X37661Y-35715D01*
X37612Y-35787D01*
X37578Y-35866D01*
X37560Y-35950D01*
X37559Y-36036D01*
X37574Y-36121D01*
X37606Y-36202D01*
X37653Y-36274D01*
X37713Y-36336D01*
X37784Y-36385D01*
X37863Y-36420D01*
X37947Y-36439D01*
X38033Y-36440D01*
X38118Y-36425D01*
X38199Y-36394D01*
X38272Y-36348D01*
X38334Y-36288D01*
X38384Y-36218D01*
X38419Y-36139D01*
X38438Y-36055D01*
X38440Y-35956D01*
X38440Y-36495D01*
X37440Y-36495D01*
X37440Y-35956D01*
X37423Y-35872D01*
X37390Y-35792D01*
X37342Y-35720D01*
X37281Y-35659D01*
X37210Y-35611D01*
X37130Y-35577D01*
X37046Y-35560D01*
X36959Y-35559D01*
X36875Y-35575D01*
X36795Y-35608D01*
X36722Y-35655D01*
X36661Y-35715D01*
X36612Y-35787D01*
X36578Y-35866D01*
X36560Y-35950D01*
X36559Y-36036D01*
X36574Y-36121D01*
X36606Y-36202D01*
X36653Y-36274D01*
X36713Y-36336D01*
X36784Y-36385D01*
X36863Y-36420D01*
X36947Y-36439D01*
X37033Y-36440D01*
X37118Y-36425D01*
X37199Y-36394D01*
X37272Y-36348D01*
X37334Y-36288D01*
X37384Y-36218D01*
X37419Y-36139D01*
X37438Y-36055D01*
X37440Y-35956D01*
X37440Y-36495D01*
X36440Y-36495D01*
X36440Y-35956D01*
X36423Y-35872D01*
X36390Y-35792D01*
X36342Y-35720D01*
X36281Y-35659D01*
X36210Y-35611D01*
X36130Y-35577D01*
X36046Y-35560D01*
X35959Y-35559D01*
X35875Y-35575D01*
X35795Y-35608D01*
X35722Y-35655D01*
X35661Y-35715D01*
X35612Y-35787D01*
X35578Y-35866D01*
X35560Y-35950D01*
X35559Y-36036D01*
X35574Y-36121D01*
X35606Y-36202D01*
X35653Y-36274D01*
X35713Y-36336D01*
X35784Y-36385D01*
X35863Y-36420D01*
X35947Y-36439D01*
X36033Y-36440D01*
X36118Y-36425D01*
X36199Y-36394D01*
X36272Y-36348D01*
X36334Y-36288D01*
X36384Y-36218D01*
X36419Y-36139D01*
X36438Y-36055D01*
X36440Y-35956D01*
X36440Y-36495D01*
X35440Y-36495D01*
X35440Y-35956D01*
X35423Y-35872D01*
X35390Y-35792D01*
X35342Y-35720D01*
X35281Y-35659D01*
X35210Y-35611D01*
X35130Y-35577D01*
X35046Y-35560D01*
X34959Y-35559D01*
X34875Y-35575D01*
X34795Y-35608D01*
X34722Y-35655D01*
X34661Y-35715D01*
X34612Y-35787D01*
X34578Y-35866D01*
X34560Y-35950D01*
X34559Y-36036D01*
X34574Y-36121D01*
X34606Y-36202D01*
X34653Y-36274D01*
X34713Y-36336D01*
X34784Y-36385D01*
X34863Y-36420D01*
X34947Y-36439D01*
X35033Y-36440D01*
X35118Y-36425D01*
X35199Y-36394D01*
X35272Y-36348D01*
X35334Y-36288D01*
X35384Y-36218D01*
X35419Y-36139D01*
X35438Y-36055D01*
X35440Y-35956D01*
X35440Y-36495D01*
X34440Y-36495D01*
X34440Y-35956D01*
X34423Y-35872D01*
X34390Y-35792D01*
X34342Y-35720D01*
X34281Y-35659D01*
X34210Y-35611D01*
X34130Y-35577D01*
X34046Y-35560D01*
X33959Y-35559D01*
X33875Y-35575D01*
X33795Y-35608D01*
X33722Y-35655D01*
X33661Y-35715D01*
X33612Y-35787D01*
X33578Y-35866D01*
X33560Y-35950D01*
X33559Y-36036D01*
X33574Y-36121D01*
X33606Y-36202D01*
X33653Y-36274D01*
X33713Y-36336D01*
X33784Y-36385D01*
X33863Y-36420D01*
X33947Y-36439D01*
X34033Y-36440D01*
X34118Y-36425D01*
X34199Y-36394D01*
X34272Y-36348D01*
X34334Y-36288D01*
X34384Y-36218D01*
X34419Y-36139D01*
X34438Y-36055D01*
X34440Y-35956D01*
X34440Y-36495D01*
X33440Y-36495D01*
X33440Y-35956D01*
X33423Y-35872D01*
X33390Y-35792D01*
X33342Y-35720D01*
X33281Y-35659D01*
X33210Y-35611D01*
X33130Y-35577D01*
X33046Y-35560D01*
X32959Y-35559D01*
X32875Y-35575D01*
X32795Y-35608D01*
X32722Y-35655D01*
X32661Y-35715D01*
X32612Y-35787D01*
X32578Y-35866D01*
X32560Y-35950D01*
X32559Y-36036D01*
X32574Y-36121D01*
X32606Y-36202D01*
X32653Y-36274D01*
X32713Y-36336D01*
X32784Y-36385D01*
X32863Y-36420D01*
X32947Y-36439D01*
X33033Y-36440D01*
X33118Y-36425D01*
X33199Y-36394D01*
X33272Y-36348D01*
X33334Y-36288D01*
X33384Y-36218D01*
X33419Y-36139D01*
X33438Y-36055D01*
X33440Y-35956D01*
X33440Y-36495D01*
X32440Y-36495D01*
X32440Y-35956D01*
X32423Y-35872D01*
X32390Y-35792D01*
X32342Y-35720D01*
X32281Y-35659D01*
X32210Y-35611D01*
X32130Y-35577D01*
X32046Y-35560D01*
X31959Y-35559D01*
X31875Y-35575D01*
X31795Y-35608D01*
X31722Y-35655D01*
X31661Y-35715D01*
X31612Y-35787D01*
X31578Y-35866D01*
X31560Y-35950D01*
X31559Y-36036D01*
X31574Y-36121D01*
X31606Y-36202D01*
X31653Y-36274D01*
X31713Y-36336D01*
X31784Y-36385D01*
X31863Y-36420D01*
X31947Y-36439D01*
X32033Y-36440D01*
X32118Y-36425D01*
X32199Y-36394D01*
X32272Y-36348D01*
X32334Y-36288D01*
X32384Y-36218D01*
X32419Y-36139D01*
X32438Y-36055D01*
X32440Y-35956D01*
X32440Y-36495D01*
X31496Y-36495D01*
X31496Y-31949D01*
X40471Y-31949D01*
X40471Y-36495D01*
M02*
