M48
INCH,TZ
T1C0.013
T2C0.040
%
G90
G05
T1
X031998Y-033159
X032500Y-032350
X032500Y-034921
X033002Y-033159
X033500Y-032325
X033996Y-033159
X034475Y-032325
X035000Y-033159
X035000Y-034911
X036004Y-033159
X036500Y-032325
X036516Y-034921
X036998Y-033159
X037500Y-032362
X038002Y-033159
X038500Y-032350
X039006Y-033159
X039006Y-034911
X039550Y-032325
T2
X032000Y-036000
X033000Y-036000
X034000Y-036000
X035000Y-036000
X036000Y-036000
X037000Y-036000
X038000Y-036000
X039000Y-036000
X040000Y-036000
T0
M30
