G04 (created by PCBNEW (2012-12-10 BZR 3841)-testing) date Tue 11 Dec 2012 12:44:15 PM CET*
%MOIN*%
G04 Gerber Fmt 3.4, Leading zero omitted, Abs format*
%FSLAX34Y34*%
G01*
G70*
G90*
G04 APERTURE LIST*
%ADD10C,0.006*%
%ADD11C,0.0001*%
%ADD12C,0.012*%
%ADD13C,0.0026*%
%ADD14C,0.004*%
%ADD15C,0.002*%
%ADD16R,0.055X0.055*%
%ADD17C,0.055*%
%ADD18R,0.0472X0.0472*%
G04 APERTURE END LIST*
G54D10*
G54D11*
G36*
X39602Y-34781D02*
X39609Y-34778D01*
X39622Y-34769D01*
X39642Y-34756D01*
X39665Y-34741D01*
X39689Y-34725D01*
X39708Y-34712D01*
X39722Y-34703D01*
X39727Y-34700D01*
X39730Y-34701D01*
X39741Y-34707D01*
X39757Y-34715D01*
X39767Y-34720D01*
X39782Y-34726D01*
X39789Y-34728D01*
X39790Y-34726D01*
X39796Y-34714D01*
X39804Y-34695D01*
X39815Y-34669D01*
X39828Y-34639D01*
X39842Y-34607D01*
X39855Y-34574D01*
X39868Y-34543D01*
X39880Y-34514D01*
X39889Y-34491D01*
X39895Y-34475D01*
X39898Y-34468D01*
X39897Y-34467D01*
X39890Y-34460D01*
X39877Y-34450D01*
X39849Y-34427D01*
X39821Y-34393D01*
X39804Y-34354D01*
X39799Y-34310D01*
X39803Y-34270D01*
X39819Y-34232D01*
X39846Y-34197D01*
X39879Y-34171D01*
X39917Y-34155D01*
X39960Y-34150D01*
X40001Y-34154D01*
X40040Y-34170D01*
X40075Y-34196D01*
X40090Y-34213D01*
X40110Y-34249D01*
X40122Y-34286D01*
X40123Y-34295D01*
X40121Y-34337D01*
X40109Y-34377D01*
X40087Y-34412D01*
X40057Y-34441D01*
X40053Y-34444D01*
X40039Y-34455D01*
X40029Y-34462D01*
X40022Y-34468D01*
X40075Y-34595D01*
X40083Y-34615D01*
X40098Y-34650D01*
X40110Y-34680D01*
X40121Y-34704D01*
X40128Y-34720D01*
X40131Y-34726D01*
X40131Y-34726D01*
X40136Y-34727D01*
X40145Y-34724D01*
X40163Y-34715D01*
X40175Y-34709D01*
X40188Y-34703D01*
X40194Y-34700D01*
X40200Y-34703D01*
X40213Y-34711D01*
X40231Y-34724D01*
X40254Y-34739D01*
X40276Y-34754D01*
X40296Y-34767D01*
X40310Y-34777D01*
X40317Y-34780D01*
X40318Y-34780D01*
X40325Y-34777D01*
X40336Y-34767D01*
X40353Y-34751D01*
X40378Y-34727D01*
X40382Y-34723D01*
X40402Y-34703D01*
X40418Y-34685D01*
X40429Y-34673D01*
X40433Y-34668D01*
X40433Y-34668D01*
X40429Y-34661D01*
X40420Y-34646D01*
X40407Y-34626D01*
X40391Y-34602D01*
X40349Y-34541D01*
X40372Y-34484D01*
X40379Y-34466D01*
X40388Y-34444D01*
X40395Y-34429D01*
X40398Y-34422D01*
X40405Y-34420D01*
X40420Y-34416D01*
X40443Y-34412D01*
X40471Y-34407D01*
X40497Y-34402D01*
X40520Y-34397D01*
X40537Y-34394D01*
X40545Y-34393D01*
X40547Y-34391D01*
X40548Y-34388D01*
X40549Y-34380D01*
X40550Y-34365D01*
X40550Y-34343D01*
X40550Y-34310D01*
X40550Y-34307D01*
X40550Y-34276D01*
X40549Y-34251D01*
X40548Y-34236D01*
X40547Y-34229D01*
X40547Y-34229D01*
X40540Y-34227D01*
X40523Y-34224D01*
X40500Y-34219D01*
X40472Y-34214D01*
X40470Y-34214D01*
X40442Y-34208D01*
X40419Y-34203D01*
X40402Y-34200D01*
X40395Y-34197D01*
X40394Y-34195D01*
X40388Y-34184D01*
X40380Y-34167D01*
X40371Y-34146D01*
X40362Y-34124D01*
X40354Y-34104D01*
X40349Y-34090D01*
X40347Y-34083D01*
X40347Y-34083D01*
X40351Y-34076D01*
X40361Y-34062D01*
X40375Y-34042D01*
X40391Y-34018D01*
X40392Y-34016D01*
X40408Y-33992D01*
X40421Y-33972D01*
X40430Y-33958D01*
X40433Y-33952D01*
X40433Y-33951D01*
X40428Y-33944D01*
X40416Y-33931D01*
X40398Y-33913D01*
X40378Y-33892D01*
X40371Y-33886D01*
X40348Y-33863D01*
X40332Y-33849D01*
X40322Y-33841D01*
X40318Y-33839D01*
X40317Y-33839D01*
X40310Y-33843D01*
X40295Y-33853D01*
X40275Y-33867D01*
X40251Y-33883D01*
X40250Y-33884D01*
X40226Y-33900D01*
X40206Y-33914D01*
X40192Y-33923D01*
X40186Y-33926D01*
X40185Y-33926D01*
X40176Y-33924D01*
X40159Y-33918D01*
X40138Y-33910D01*
X40116Y-33901D01*
X40096Y-33893D01*
X40082Y-33886D01*
X40075Y-33882D01*
X40074Y-33882D01*
X40072Y-33873D01*
X40068Y-33855D01*
X40063Y-33831D01*
X40057Y-33802D01*
X40056Y-33798D01*
X40051Y-33769D01*
X40047Y-33746D01*
X40043Y-33730D01*
X40042Y-33723D01*
X40038Y-33723D01*
X40024Y-33722D01*
X40003Y-33721D01*
X39977Y-33721D01*
X39951Y-33721D01*
X39925Y-33721D01*
X39903Y-33722D01*
X39887Y-33723D01*
X39880Y-33725D01*
X39880Y-33725D01*
X39878Y-33734D01*
X39874Y-33751D01*
X39869Y-33776D01*
X39863Y-33805D01*
X39862Y-33810D01*
X39857Y-33838D01*
X39852Y-33861D01*
X39849Y-33877D01*
X39847Y-33883D01*
X39845Y-33884D01*
X39833Y-33890D01*
X39814Y-33897D01*
X39791Y-33907D01*
X39737Y-33929D01*
X39671Y-33883D01*
X39665Y-33879D01*
X39641Y-33863D01*
X39621Y-33850D01*
X39607Y-33841D01*
X39602Y-33838D01*
X39601Y-33838D01*
X39595Y-33844D01*
X39582Y-33856D01*
X39564Y-33874D01*
X39543Y-33894D01*
X39527Y-33910D01*
X39509Y-33928D01*
X39498Y-33941D01*
X39491Y-33949D01*
X39489Y-33954D01*
X39490Y-33957D01*
X39494Y-33964D01*
X39504Y-33978D01*
X39517Y-33999D01*
X39533Y-34022D01*
X39547Y-34042D01*
X39561Y-34064D01*
X39570Y-34080D01*
X39574Y-34087D01*
X39573Y-34091D01*
X39568Y-34104D01*
X39560Y-34123D01*
X39550Y-34147D01*
X39527Y-34199D01*
X39493Y-34206D01*
X39472Y-34210D01*
X39443Y-34215D01*
X39415Y-34221D01*
X39371Y-34229D01*
X39370Y-34388D01*
X39377Y-34391D01*
X39383Y-34393D01*
X39399Y-34397D01*
X39422Y-34401D01*
X39449Y-34406D01*
X39473Y-34411D01*
X39496Y-34415D01*
X39513Y-34418D01*
X39520Y-34420D01*
X39522Y-34422D01*
X39528Y-34434D01*
X39536Y-34452D01*
X39545Y-34473D01*
X39555Y-34496D01*
X39563Y-34516D01*
X39569Y-34532D01*
X39571Y-34540D01*
X39568Y-34546D01*
X39559Y-34560D01*
X39546Y-34580D01*
X39530Y-34603D01*
X39514Y-34626D01*
X39501Y-34646D01*
X39491Y-34660D01*
X39488Y-34667D01*
X39490Y-34671D01*
X39499Y-34682D01*
X39516Y-34700D01*
X39542Y-34726D01*
X39547Y-34730D01*
X39567Y-34750D01*
X39585Y-34766D01*
X39597Y-34777D01*
X39602Y-34781D01*
X39602Y-34781D01*
G37*
G36*
X40183Y-33586D02*
X40198Y-33584D01*
X40211Y-33580D01*
X40217Y-33577D01*
X40230Y-33568D01*
X40240Y-33557D01*
X40247Y-33545D01*
X40252Y-33531D01*
X40255Y-33517D01*
X40254Y-33502D01*
X40251Y-33488D01*
X40244Y-33474D01*
X40240Y-33468D01*
X40234Y-33461D01*
X40227Y-33455D01*
X40221Y-33450D01*
X40219Y-33449D01*
X40206Y-33443D01*
X40193Y-33440D01*
X40178Y-33439D01*
X40173Y-33439D01*
X40165Y-33440D01*
X40158Y-33442D01*
X40150Y-33446D01*
X40141Y-33450D01*
X40129Y-33460D01*
X40120Y-33472D01*
X40112Y-33485D01*
X40110Y-33491D01*
X40108Y-33499D01*
X40107Y-33504D01*
X40107Y-33505D01*
X40107Y-33505D01*
X40107Y-33502D01*
X40107Y-33502D01*
X40104Y-33492D01*
X40101Y-33483D01*
X40096Y-33474D01*
X40088Y-33463D01*
X40077Y-33453D01*
X40064Y-33445D01*
X40049Y-33440D01*
X40034Y-33439D01*
X40030Y-33439D01*
X40018Y-33440D01*
X40007Y-33443D01*
X40005Y-33444D01*
X39992Y-33451D01*
X39981Y-33460D01*
X39972Y-33472D01*
X39965Y-33484D01*
X39961Y-33497D01*
X39961Y-33498D01*
X39960Y-33501D01*
X39960Y-33503D01*
X39960Y-33503D01*
X39960Y-33501D01*
X39959Y-33497D01*
X39959Y-33496D01*
X39954Y-33483D01*
X39947Y-33470D01*
X39938Y-33459D01*
X39929Y-33452D01*
X39916Y-33445D01*
X39902Y-33440D01*
X39886Y-33439D01*
X39875Y-33440D01*
X39861Y-33443D01*
X39847Y-33450D01*
X39835Y-33459D01*
X39826Y-33471D01*
X39824Y-33473D01*
X39821Y-33478D01*
X39819Y-33483D01*
X39818Y-33486D01*
X39815Y-33493D01*
X39814Y-33499D01*
X39813Y-33504D01*
X39813Y-33505D01*
X39813Y-33505D01*
X39812Y-33502D01*
X39811Y-33494D01*
X39807Y-33484D01*
X39803Y-33475D01*
X39794Y-33463D01*
X39782Y-33453D01*
X39769Y-33445D01*
X39755Y-33440D01*
X39740Y-33439D01*
X39726Y-33440D01*
X39711Y-33444D01*
X39698Y-33451D01*
X39686Y-33461D01*
X39680Y-33468D01*
X39675Y-33476D01*
X39670Y-33485D01*
X39668Y-33493D01*
X39665Y-33508D01*
X39666Y-33522D01*
X39669Y-33536D01*
X39675Y-33549D01*
X39683Y-33560D01*
X39693Y-33570D01*
X39705Y-33578D01*
X39718Y-33583D01*
X39733Y-33586D01*
X39735Y-33586D01*
X39750Y-33586D01*
X39764Y-33582D01*
X39777Y-33576D01*
X39782Y-33572D01*
X39792Y-33564D01*
X39801Y-33553D01*
X39807Y-33542D01*
X39808Y-33538D01*
X39810Y-33532D01*
X39812Y-33525D01*
X39813Y-33520D01*
X39813Y-33517D01*
X39813Y-33520D01*
X39813Y-33523D01*
X39815Y-33529D01*
X39817Y-33537D01*
X39819Y-33543D01*
X39823Y-33550D01*
X39832Y-33562D01*
X39843Y-33572D01*
X39856Y-33580D01*
X39871Y-33585D01*
X39873Y-33585D01*
X39883Y-33586D01*
X39894Y-33586D01*
X39904Y-33584D01*
X39914Y-33581D01*
X39927Y-33574D01*
X39940Y-33564D01*
X39940Y-33563D01*
X39949Y-33553D01*
X39955Y-33540D01*
X39959Y-33528D01*
X39959Y-33527D01*
X39960Y-33524D01*
X39960Y-33522D01*
X39960Y-33523D01*
X39961Y-33526D01*
X39961Y-33527D01*
X39963Y-33535D01*
X39966Y-33543D01*
X39971Y-33551D01*
X39977Y-33560D01*
X39988Y-33571D01*
X40001Y-33579D01*
X40016Y-33584D01*
X40018Y-33585D01*
X40028Y-33586D01*
X40039Y-33586D01*
X40049Y-33585D01*
X40057Y-33582D01*
X40071Y-33576D01*
X40083Y-33567D01*
X40093Y-33556D01*
X40101Y-33543D01*
X40102Y-33539D01*
X40105Y-33532D01*
X40106Y-33525D01*
X40107Y-33520D01*
X40107Y-33520D01*
X40107Y-33520D01*
X40108Y-33523D01*
X40108Y-33523D01*
X40110Y-33532D01*
X40114Y-33542D01*
X40118Y-33551D01*
X40120Y-33554D01*
X40129Y-33565D01*
X40141Y-33574D01*
X40154Y-33581D01*
X40168Y-33585D01*
X40183Y-33586D01*
X40183Y-33586D01*
G37*
G36*
X39587Y-33439D02*
X39596Y-33438D01*
X39604Y-33438D01*
X39614Y-33435D01*
X39628Y-33429D01*
X39640Y-33420D01*
X39650Y-33409D01*
X39658Y-33396D01*
X39663Y-33382D01*
X39665Y-33367D01*
X39664Y-33352D01*
X39660Y-33338D01*
X39654Y-33325D01*
X39644Y-33313D01*
X39632Y-33303D01*
X39629Y-33301D01*
X39614Y-33295D01*
X39600Y-33291D01*
X39584Y-33291D01*
X39569Y-33294D01*
X39557Y-33299D01*
X39544Y-33308D01*
X39534Y-33319D01*
X39525Y-33332D01*
X39520Y-33347D01*
X39518Y-33354D01*
X39518Y-33364D01*
X39518Y-33373D01*
X39519Y-33381D01*
X39520Y-33384D01*
X39526Y-33399D01*
X39534Y-33412D01*
X39546Y-33423D01*
X39559Y-33431D01*
X39565Y-33434D01*
X39574Y-33437D01*
X39582Y-33438D01*
X39587Y-33439D01*
X39587Y-33439D01*
G37*
G36*
X40330Y-33439D02*
X40345Y-33437D01*
X40360Y-33432D01*
X40374Y-33423D01*
X40377Y-33421D01*
X40387Y-33410D01*
X40395Y-33397D01*
X40400Y-33383D01*
X40402Y-33375D01*
X40402Y-33366D01*
X40402Y-33356D01*
X40401Y-33349D01*
X40400Y-33345D01*
X40394Y-33330D01*
X40386Y-33318D01*
X40375Y-33307D01*
X40362Y-33299D01*
X40348Y-33294D01*
X40333Y-33291D01*
X40327Y-33291D01*
X40312Y-33293D01*
X40298Y-33297D01*
X40286Y-33305D01*
X40275Y-33314D01*
X40266Y-33326D01*
X40260Y-33339D01*
X40256Y-33353D01*
X40255Y-33368D01*
X40256Y-33377D01*
X40258Y-33385D01*
X40261Y-33394D01*
X40267Y-33405D01*
X40276Y-33417D01*
X40288Y-33426D01*
X40301Y-33433D01*
X40315Y-33437D01*
X40330Y-33439D01*
X40330Y-33439D01*
G37*
G36*
X39440Y-33291D02*
X39450Y-33291D01*
X39459Y-33289D01*
X39470Y-33286D01*
X39483Y-33279D01*
X39496Y-33269D01*
X39504Y-33260D01*
X39511Y-33247D01*
X39516Y-33233D01*
X39517Y-33227D01*
X39517Y-33218D01*
X39517Y-33209D01*
X39516Y-33202D01*
X39515Y-33197D01*
X39509Y-33183D01*
X39501Y-33170D01*
X39490Y-33159D01*
X39476Y-33151D01*
X39471Y-33149D01*
X39462Y-33145D01*
X39452Y-33144D01*
X39441Y-33144D01*
X39434Y-33144D01*
X39426Y-33145D01*
X39419Y-33147D01*
X39411Y-33151D01*
X39406Y-33154D01*
X39394Y-33163D01*
X39384Y-33174D01*
X39376Y-33188D01*
X39371Y-33203D01*
X39371Y-33206D01*
X39370Y-33215D01*
X39370Y-33224D01*
X39371Y-33232D01*
X39372Y-33237D01*
X39378Y-33251D01*
X39387Y-33264D01*
X39397Y-33275D01*
X39411Y-33283D01*
X39425Y-33289D01*
X39430Y-33290D01*
X39440Y-33291D01*
X39440Y-33291D01*
G37*
G36*
X40032Y-33291D02*
X40046Y-33290D01*
X40060Y-33286D01*
X40069Y-33282D01*
X40081Y-33273D01*
X40092Y-33262D01*
X40100Y-33249D01*
X40105Y-33235D01*
X40106Y-33232D01*
X40107Y-33220D01*
X40107Y-33209D01*
X40104Y-33196D01*
X40098Y-33181D01*
X40089Y-33169D01*
X40078Y-33159D01*
X40065Y-33151D01*
X40050Y-33145D01*
X40041Y-33143D01*
X40046Y-33142D01*
X40047Y-33142D01*
X40057Y-33139D01*
X40068Y-33134D01*
X40079Y-33128D01*
X40080Y-33126D01*
X40091Y-33116D01*
X40099Y-33103D01*
X40104Y-33089D01*
X40107Y-33075D01*
X40107Y-33061D01*
X40103Y-33047D01*
X40097Y-33033D01*
X40097Y-33032D01*
X40087Y-33020D01*
X40076Y-33010D01*
X40064Y-33003D01*
X40050Y-32999D01*
X40036Y-32997D01*
X40022Y-32998D01*
X40008Y-33001D01*
X39995Y-33008D01*
X39982Y-33017D01*
X39976Y-33024D01*
X39969Y-33035D01*
X39963Y-33046D01*
X39961Y-33057D01*
X39960Y-33060D01*
X39960Y-33061D01*
X39960Y-33060D01*
X39959Y-33057D01*
X39957Y-33047D01*
X39952Y-33037D01*
X39946Y-33027D01*
X39942Y-33022D01*
X39931Y-33012D01*
X39918Y-33004D01*
X39904Y-32999D01*
X39889Y-32997D01*
X39874Y-32998D01*
X39865Y-33000D01*
X39851Y-33006D01*
X39839Y-33014D01*
X39828Y-33025D01*
X39820Y-33038D01*
X39815Y-33053D01*
X39814Y-33060D01*
X39813Y-33075D01*
X39816Y-33089D01*
X39821Y-33103D01*
X39829Y-33116D01*
X39840Y-33126D01*
X39853Y-33135D01*
X39859Y-33138D01*
X39866Y-33140D01*
X39872Y-33142D01*
X39877Y-33143D01*
X39877Y-33143D01*
X39877Y-33143D01*
X39874Y-33144D01*
X39867Y-33146D01*
X39857Y-33150D01*
X39848Y-33154D01*
X39844Y-33157D01*
X39834Y-33166D01*
X39825Y-33176D01*
X39819Y-33187D01*
X39815Y-33200D01*
X39813Y-33213D01*
X39813Y-33226D01*
X39814Y-33228D01*
X39818Y-33244D01*
X39825Y-33257D01*
X39835Y-33269D01*
X39843Y-33277D01*
X39856Y-33285D01*
X39871Y-33289D01*
X39876Y-33290D01*
X39884Y-33291D01*
X39893Y-33290D01*
X39901Y-33290D01*
X39907Y-33288D01*
X39912Y-33287D01*
X39926Y-33280D01*
X39938Y-33270D01*
X39948Y-33258D01*
X39952Y-33252D01*
X39956Y-33242D01*
X39959Y-33232D01*
X39959Y-33232D01*
X39960Y-33228D01*
X39960Y-33227D01*
X39960Y-33227D01*
X39960Y-33207D01*
X39960Y-33207D01*
X39960Y-33206D01*
X39959Y-33202D01*
X39959Y-33201D01*
X39954Y-33188D01*
X39947Y-33175D01*
X39938Y-33164D01*
X39927Y-33155D01*
X39914Y-33149D01*
X39913Y-33148D01*
X39907Y-33146D01*
X39901Y-33145D01*
X39894Y-33143D01*
X39900Y-33142D01*
X39909Y-33140D01*
X39922Y-33134D01*
X39934Y-33126D01*
X39945Y-33115D01*
X39953Y-33103D01*
X39955Y-33097D01*
X39958Y-33089D01*
X39959Y-33083D01*
X39960Y-33080D01*
X39960Y-33079D01*
X39960Y-33080D01*
X39961Y-33083D01*
X39962Y-33088D01*
X39964Y-33096D01*
X39967Y-33103D01*
X39972Y-33111D01*
X39982Y-33122D01*
X39993Y-33131D01*
X40006Y-33138D01*
X40020Y-33142D01*
X40026Y-33143D01*
X40020Y-33145D01*
X40019Y-33145D01*
X40012Y-33146D01*
X40006Y-33149D01*
X40005Y-33149D01*
X39992Y-33156D01*
X39981Y-33165D01*
X39972Y-33176D01*
X39965Y-33189D01*
X39961Y-33202D01*
X39961Y-33202D01*
X39960Y-33206D01*
X39960Y-33207D01*
X39960Y-33227D01*
X39960Y-33227D01*
X39960Y-33229D01*
X39961Y-33232D01*
X39964Y-33242D01*
X39970Y-33255D01*
X39979Y-33267D01*
X39990Y-33277D01*
X40003Y-33284D01*
X40003Y-33284D01*
X40017Y-33289D01*
X40032Y-33291D01*
X40032Y-33291D01*
G37*
G36*
X40471Y-33291D02*
X40483Y-33291D01*
X40494Y-33289D01*
X40501Y-33287D01*
X40515Y-33280D01*
X40527Y-33271D01*
X40537Y-33260D01*
X40544Y-33247D01*
X40548Y-33233D01*
X40550Y-33217D01*
X40550Y-33211D01*
X40547Y-33196D01*
X40541Y-33182D01*
X40532Y-33168D01*
X40529Y-33166D01*
X40519Y-33157D01*
X40507Y-33150D01*
X40494Y-33145D01*
X40493Y-33145D01*
X40482Y-33144D01*
X40470Y-33144D01*
X40459Y-33145D01*
X40455Y-33146D01*
X40441Y-33152D01*
X40429Y-33161D01*
X40419Y-33171D01*
X40411Y-33183D01*
X40405Y-33196D01*
X40403Y-33211D01*
X40403Y-33226D01*
X40406Y-33241D01*
X40411Y-33252D01*
X40420Y-33264D01*
X40431Y-33275D01*
X40443Y-33283D01*
X40458Y-33289D01*
X40459Y-33289D01*
X40471Y-33291D01*
X40471Y-33291D01*
G37*
G36*
X39741Y-32849D02*
X39756Y-32847D01*
X39770Y-32842D01*
X39777Y-32839D01*
X39783Y-32834D01*
X39790Y-32828D01*
X39798Y-32820D01*
X39806Y-32807D01*
X39811Y-32793D01*
X39812Y-32789D01*
X39813Y-32779D01*
X39813Y-32769D01*
X39811Y-32760D01*
X39807Y-32747D01*
X39801Y-32734D01*
X39792Y-32723D01*
X39790Y-32722D01*
X39783Y-32716D01*
X39775Y-32711D01*
X39768Y-32707D01*
X39765Y-32706D01*
X39759Y-32704D01*
X39753Y-32703D01*
X39749Y-32702D01*
X39746Y-32702D01*
X39749Y-32701D01*
X39753Y-32700D01*
X39757Y-32699D01*
X39763Y-32698D01*
X39774Y-32692D01*
X39785Y-32686D01*
X39793Y-32678D01*
X39795Y-32676D01*
X39804Y-32663D01*
X39810Y-32649D01*
X39813Y-32635D01*
X39813Y-32620D01*
X39812Y-32616D01*
X39808Y-32601D01*
X39801Y-32588D01*
X39791Y-32575D01*
X39782Y-32568D01*
X39769Y-32560D01*
X39755Y-32555D01*
X39752Y-32555D01*
X39742Y-32554D01*
X39732Y-32554D01*
X39722Y-32556D01*
X39714Y-32558D01*
X39700Y-32565D01*
X39688Y-32574D01*
X39679Y-32585D01*
X39671Y-32598D01*
X39667Y-32612D01*
X39666Y-32614D01*
X39665Y-32617D01*
X39665Y-32619D01*
X39664Y-32617D01*
X39664Y-32614D01*
X39663Y-32608D01*
X39660Y-32601D01*
X39658Y-32595D01*
X39655Y-32591D01*
X39646Y-32578D01*
X39635Y-32568D01*
X39622Y-32560D01*
X39608Y-32556D01*
X39592Y-32554D01*
X39580Y-32555D01*
X39566Y-32558D01*
X39553Y-32565D01*
X39545Y-32570D01*
X39534Y-32581D01*
X39526Y-32593D01*
X39520Y-32607D01*
X39518Y-32621D01*
X39518Y-32636D01*
X39521Y-32650D01*
X39527Y-32664D01*
X39536Y-32676D01*
X39547Y-32687D01*
X39561Y-32695D01*
X39576Y-32700D01*
X39584Y-32702D01*
X39579Y-32702D01*
X39576Y-32703D01*
X39564Y-32706D01*
X39553Y-32712D01*
X39542Y-32720D01*
X39533Y-32729D01*
X39528Y-32737D01*
X39523Y-32747D01*
X39520Y-32757D01*
X39518Y-32765D01*
X39518Y-32774D01*
X39518Y-32784D01*
X39519Y-32791D01*
X39522Y-32800D01*
X39529Y-32814D01*
X39538Y-32826D01*
X39550Y-32836D01*
X39563Y-32844D01*
X39579Y-32848D01*
X39583Y-32849D01*
X39592Y-32849D01*
X39601Y-32848D01*
X39610Y-32847D01*
X39616Y-32845D01*
X39630Y-32838D01*
X39642Y-32829D01*
X39652Y-32818D01*
X39659Y-32805D01*
X39664Y-32790D01*
X39664Y-32789D01*
X39665Y-32785D01*
X39665Y-32786D01*
X39665Y-32765D01*
X39665Y-32765D01*
X39664Y-32762D01*
X39664Y-32761D01*
X39661Y-32751D01*
X39657Y-32741D01*
X39651Y-32731D01*
X39646Y-32726D01*
X39635Y-32715D01*
X39621Y-32708D01*
X39606Y-32703D01*
X39599Y-32701D01*
X39604Y-32700D01*
X39609Y-32699D01*
X39613Y-32698D01*
X39616Y-32697D01*
X39630Y-32691D01*
X39642Y-32681D01*
X39652Y-32670D01*
X39659Y-32657D01*
X39664Y-32643D01*
X39664Y-32640D01*
X39665Y-32638D01*
X39666Y-32639D01*
X39667Y-32643D01*
X39667Y-32644D01*
X39669Y-32652D01*
X39673Y-32660D01*
X39677Y-32668D01*
X39681Y-32673D01*
X39688Y-32680D01*
X39695Y-32687D01*
X39702Y-32692D01*
X39703Y-32692D01*
X39714Y-32697D01*
X39726Y-32700D01*
X39731Y-32701D01*
X39725Y-32703D01*
X39712Y-32706D01*
X39699Y-32713D01*
X39687Y-32722D01*
X39678Y-32733D01*
X39676Y-32737D01*
X39672Y-32744D01*
X39669Y-32752D01*
X39667Y-32759D01*
X39666Y-32764D01*
X39666Y-32764D01*
X39665Y-32765D01*
X39665Y-32786D01*
X39666Y-32786D01*
X39666Y-32789D01*
X39667Y-32793D01*
X39669Y-32798D01*
X39672Y-32805D01*
X39679Y-32818D01*
X39689Y-32829D01*
X39700Y-32838D01*
X39713Y-32844D01*
X39727Y-32848D01*
X39741Y-32849D01*
X39741Y-32849D01*
G37*
G36*
X40185Y-32849D02*
X40199Y-32847D01*
X40213Y-32842D01*
X40226Y-32834D01*
X40236Y-32824D01*
X40245Y-32812D01*
X40251Y-32798D01*
X40253Y-32793D01*
X40254Y-32789D01*
X40254Y-32788D01*
X40255Y-32785D01*
X40255Y-32785D01*
X40255Y-32765D01*
X40254Y-32763D01*
X40253Y-32758D01*
X40250Y-32749D01*
X40244Y-32736D01*
X40235Y-32724D01*
X40223Y-32715D01*
X40210Y-32707D01*
X40196Y-32703D01*
X40189Y-32701D01*
X40194Y-32700D01*
X40194Y-32700D01*
X40206Y-32697D01*
X40218Y-32692D01*
X40222Y-32689D01*
X40230Y-32682D01*
X40237Y-32675D01*
X40243Y-32668D01*
X40246Y-32662D01*
X40251Y-32652D01*
X40253Y-32644D01*
X40254Y-32640D01*
X40255Y-32638D01*
X40255Y-32639D01*
X40256Y-32643D01*
X40259Y-32653D01*
X40266Y-32667D01*
X40276Y-32679D01*
X40287Y-32688D01*
X40300Y-32696D01*
X40316Y-32700D01*
X40321Y-32701D01*
X40314Y-32703D01*
X40307Y-32705D01*
X40293Y-32711D01*
X40280Y-32720D01*
X40270Y-32731D01*
X40266Y-32735D01*
X40263Y-32742D01*
X40259Y-32750D01*
X40257Y-32755D01*
X40256Y-32761D01*
X40256Y-32761D01*
X40255Y-32764D01*
X40255Y-32765D01*
X40255Y-32785D01*
X40255Y-32786D01*
X40256Y-32790D01*
X40257Y-32795D01*
X40262Y-32806D01*
X40267Y-32816D01*
X40272Y-32822D01*
X40283Y-32833D01*
X40296Y-32841D01*
X40311Y-32847D01*
X40317Y-32848D01*
X40327Y-32849D01*
X40338Y-32848D01*
X40347Y-32847D01*
X40348Y-32847D01*
X40363Y-32841D01*
X40376Y-32832D01*
X40386Y-32821D01*
X40395Y-32808D01*
X40400Y-32793D01*
X40402Y-32787D01*
X40402Y-32776D01*
X40402Y-32766D01*
X40400Y-32757D01*
X40398Y-32749D01*
X40393Y-32739D01*
X40387Y-32729D01*
X40380Y-32722D01*
X40371Y-32715D01*
X40361Y-32709D01*
X40358Y-32707D01*
X40351Y-32705D01*
X40344Y-32703D01*
X40339Y-32702D01*
X40338Y-32702D01*
X40340Y-32701D01*
X40344Y-32700D01*
X40353Y-32697D01*
X40362Y-32693D01*
X40370Y-32689D01*
X40372Y-32687D01*
X40382Y-32679D01*
X40390Y-32668D01*
X40396Y-32657D01*
X40399Y-32652D01*
X40402Y-32637D01*
X40402Y-32622D01*
X40400Y-32607D01*
X40399Y-32604D01*
X40392Y-32590D01*
X40383Y-32578D01*
X40372Y-32568D01*
X40359Y-32560D01*
X40344Y-32555D01*
X40342Y-32555D01*
X40332Y-32554D01*
X40321Y-32554D01*
X40312Y-32556D01*
X40309Y-32556D01*
X40295Y-32562D01*
X40282Y-32570D01*
X40271Y-32582D01*
X40262Y-32595D01*
X40260Y-32599D01*
X40258Y-32606D01*
X40256Y-32612D01*
X40256Y-32617D01*
X40256Y-32618D01*
X40255Y-32618D01*
X40254Y-32616D01*
X40253Y-32612D01*
X40251Y-32602D01*
X40244Y-32589D01*
X40235Y-32578D01*
X40224Y-32568D01*
X40211Y-32560D01*
X40211Y-32560D01*
X40198Y-32556D01*
X40183Y-32554D01*
X40168Y-32555D01*
X40154Y-32559D01*
X40146Y-32563D01*
X40133Y-32571D01*
X40123Y-32582D01*
X40115Y-32595D01*
X40109Y-32610D01*
X40109Y-32613D01*
X40107Y-32625D01*
X40108Y-32636D01*
X40111Y-32650D01*
X40117Y-32664D01*
X40126Y-32676D01*
X40137Y-32687D01*
X40150Y-32695D01*
X40165Y-32700D01*
X40168Y-32701D01*
X40171Y-32702D01*
X40171Y-32702D01*
X40167Y-32702D01*
X40158Y-32705D01*
X40149Y-32709D01*
X40140Y-32714D01*
X40132Y-32720D01*
X40122Y-32731D01*
X40114Y-32745D01*
X40113Y-32747D01*
X40108Y-32761D01*
X40107Y-32776D01*
X40109Y-32792D01*
X40114Y-32806D01*
X40117Y-32813D01*
X40122Y-32819D01*
X40128Y-32826D01*
X40128Y-32827D01*
X40140Y-32837D01*
X40154Y-32844D01*
X40168Y-32848D01*
X40170Y-32848D01*
X40185Y-32849D01*
X40185Y-32849D01*
G37*
G54D12*
X31500Y-36500D02*
X31500Y-35500D01*
X31500Y-35500D02*
X40500Y-35500D01*
X40500Y-35500D02*
X40500Y-36500D01*
X31500Y-36500D02*
X40500Y-36500D01*
X39500Y-36500D02*
X39500Y-35500D01*
G54D13*
X31882Y-34696D02*
X31754Y-34696D01*
X31754Y-34696D02*
X31754Y-34893D01*
X31882Y-34893D02*
X31754Y-34893D01*
X31882Y-34696D02*
X31882Y-34893D01*
X32127Y-34696D02*
X32068Y-34696D01*
X32068Y-34696D02*
X32068Y-34795D01*
X32127Y-34795D02*
X32068Y-34795D01*
X32127Y-34696D02*
X32127Y-34795D01*
X31932Y-34696D02*
X31873Y-34696D01*
X31873Y-34696D02*
X31873Y-34795D01*
X31932Y-34795D02*
X31873Y-34795D01*
X31932Y-34696D02*
X31932Y-34795D01*
X32078Y-34696D02*
X31922Y-34696D01*
X31922Y-34696D02*
X31922Y-34765D01*
X32078Y-34765D02*
X31922Y-34765D01*
X32078Y-34696D02*
X32078Y-34765D01*
X31882Y-34107D02*
X31754Y-34107D01*
X31754Y-34107D02*
X31754Y-34304D01*
X31882Y-34304D02*
X31754Y-34304D01*
X31882Y-34107D02*
X31882Y-34304D01*
X32246Y-34107D02*
X32118Y-34107D01*
X32118Y-34107D02*
X32118Y-34304D01*
X32246Y-34304D02*
X32118Y-34304D01*
X32246Y-34107D02*
X32246Y-34304D01*
X31932Y-34205D02*
X31873Y-34205D01*
X31873Y-34205D02*
X31873Y-34304D01*
X31932Y-34304D02*
X31873Y-34304D01*
X31932Y-34205D02*
X31932Y-34304D01*
X32127Y-34205D02*
X32068Y-34205D01*
X32068Y-34205D02*
X32068Y-34304D01*
X32127Y-34304D02*
X32068Y-34304D01*
X32127Y-34205D02*
X32127Y-34304D01*
X32078Y-34235D02*
X31922Y-34235D01*
X31922Y-34235D02*
X31922Y-34304D01*
X32078Y-34304D02*
X31922Y-34304D01*
X32078Y-34235D02*
X32078Y-34304D01*
X32039Y-34500D02*
X31961Y-34500D01*
X31961Y-34500D02*
X31961Y-34578D01*
X32039Y-34578D02*
X31961Y-34578D01*
X32039Y-34500D02*
X32039Y-34578D01*
X32236Y-34696D02*
X32118Y-34696D01*
X32118Y-34696D02*
X32118Y-34814D01*
X32236Y-34814D02*
X32118Y-34814D01*
X32236Y-34696D02*
X32236Y-34814D01*
X32246Y-34864D02*
X32157Y-34864D01*
X32157Y-34864D02*
X32157Y-34893D01*
X32246Y-34893D02*
X32157Y-34893D01*
X32246Y-34864D02*
X32246Y-34893D01*
G54D14*
X31774Y-34706D02*
X31774Y-34294D01*
X32226Y-34304D02*
X32226Y-34864D01*
G54D15*
X32205Y-34834D02*
G75*
G03X32205Y-34834I-28J0D01*
G74*
G01*
G54D14*
X32137Y-34893D02*
G75*
G03X31863Y-34893I-137J0D01*
G74*
G01*
X31863Y-34107D02*
G75*
G03X32137Y-34107I137J0D01*
G74*
G01*
G54D13*
X37882Y-34696D02*
X37754Y-34696D01*
X37754Y-34696D02*
X37754Y-34893D01*
X37882Y-34893D02*
X37754Y-34893D01*
X37882Y-34696D02*
X37882Y-34893D01*
X38127Y-34696D02*
X38068Y-34696D01*
X38068Y-34696D02*
X38068Y-34795D01*
X38127Y-34795D02*
X38068Y-34795D01*
X38127Y-34696D02*
X38127Y-34795D01*
X37932Y-34696D02*
X37873Y-34696D01*
X37873Y-34696D02*
X37873Y-34795D01*
X37932Y-34795D02*
X37873Y-34795D01*
X37932Y-34696D02*
X37932Y-34795D01*
X38078Y-34696D02*
X37922Y-34696D01*
X37922Y-34696D02*
X37922Y-34765D01*
X38078Y-34765D02*
X37922Y-34765D01*
X38078Y-34696D02*
X38078Y-34765D01*
X37882Y-34107D02*
X37754Y-34107D01*
X37754Y-34107D02*
X37754Y-34304D01*
X37882Y-34304D02*
X37754Y-34304D01*
X37882Y-34107D02*
X37882Y-34304D01*
X38246Y-34107D02*
X38118Y-34107D01*
X38118Y-34107D02*
X38118Y-34304D01*
X38246Y-34304D02*
X38118Y-34304D01*
X38246Y-34107D02*
X38246Y-34304D01*
X37932Y-34205D02*
X37873Y-34205D01*
X37873Y-34205D02*
X37873Y-34304D01*
X37932Y-34304D02*
X37873Y-34304D01*
X37932Y-34205D02*
X37932Y-34304D01*
X38127Y-34205D02*
X38068Y-34205D01*
X38068Y-34205D02*
X38068Y-34304D01*
X38127Y-34304D02*
X38068Y-34304D01*
X38127Y-34205D02*
X38127Y-34304D01*
X38078Y-34235D02*
X37922Y-34235D01*
X37922Y-34235D02*
X37922Y-34304D01*
X38078Y-34304D02*
X37922Y-34304D01*
X38078Y-34235D02*
X38078Y-34304D01*
X38039Y-34500D02*
X37961Y-34500D01*
X37961Y-34500D02*
X37961Y-34578D01*
X38039Y-34578D02*
X37961Y-34578D01*
X38039Y-34500D02*
X38039Y-34578D01*
X38236Y-34696D02*
X38118Y-34696D01*
X38118Y-34696D02*
X38118Y-34814D01*
X38236Y-34814D02*
X38118Y-34814D01*
X38236Y-34696D02*
X38236Y-34814D01*
X38246Y-34864D02*
X38157Y-34864D01*
X38157Y-34864D02*
X38157Y-34893D01*
X38246Y-34893D02*
X38157Y-34893D01*
X38246Y-34864D02*
X38246Y-34893D01*
G54D14*
X37774Y-34706D02*
X37774Y-34294D01*
X38226Y-34304D02*
X38226Y-34864D01*
G54D15*
X38205Y-34834D02*
G75*
G03X38205Y-34834I-28J0D01*
G74*
G01*
G54D14*
X38137Y-34893D02*
G75*
G03X37863Y-34893I-137J0D01*
G74*
G01*
X37863Y-34107D02*
G75*
G03X38137Y-34107I137J0D01*
G74*
G01*
G54D13*
X32882Y-34696D02*
X32754Y-34696D01*
X32754Y-34696D02*
X32754Y-34893D01*
X32882Y-34893D02*
X32754Y-34893D01*
X32882Y-34696D02*
X32882Y-34893D01*
X33127Y-34696D02*
X33068Y-34696D01*
X33068Y-34696D02*
X33068Y-34795D01*
X33127Y-34795D02*
X33068Y-34795D01*
X33127Y-34696D02*
X33127Y-34795D01*
X32932Y-34696D02*
X32873Y-34696D01*
X32873Y-34696D02*
X32873Y-34795D01*
X32932Y-34795D02*
X32873Y-34795D01*
X32932Y-34696D02*
X32932Y-34795D01*
X33078Y-34696D02*
X32922Y-34696D01*
X32922Y-34696D02*
X32922Y-34765D01*
X33078Y-34765D02*
X32922Y-34765D01*
X33078Y-34696D02*
X33078Y-34765D01*
X32882Y-34107D02*
X32754Y-34107D01*
X32754Y-34107D02*
X32754Y-34304D01*
X32882Y-34304D02*
X32754Y-34304D01*
X32882Y-34107D02*
X32882Y-34304D01*
X33246Y-34107D02*
X33118Y-34107D01*
X33118Y-34107D02*
X33118Y-34304D01*
X33246Y-34304D02*
X33118Y-34304D01*
X33246Y-34107D02*
X33246Y-34304D01*
X32932Y-34205D02*
X32873Y-34205D01*
X32873Y-34205D02*
X32873Y-34304D01*
X32932Y-34304D02*
X32873Y-34304D01*
X32932Y-34205D02*
X32932Y-34304D01*
X33127Y-34205D02*
X33068Y-34205D01*
X33068Y-34205D02*
X33068Y-34304D01*
X33127Y-34304D02*
X33068Y-34304D01*
X33127Y-34205D02*
X33127Y-34304D01*
X33078Y-34235D02*
X32922Y-34235D01*
X32922Y-34235D02*
X32922Y-34304D01*
X33078Y-34304D02*
X32922Y-34304D01*
X33078Y-34235D02*
X33078Y-34304D01*
X33039Y-34500D02*
X32961Y-34500D01*
X32961Y-34500D02*
X32961Y-34578D01*
X33039Y-34578D02*
X32961Y-34578D01*
X33039Y-34500D02*
X33039Y-34578D01*
X33236Y-34696D02*
X33118Y-34696D01*
X33118Y-34696D02*
X33118Y-34814D01*
X33236Y-34814D02*
X33118Y-34814D01*
X33236Y-34696D02*
X33236Y-34814D01*
X33246Y-34864D02*
X33157Y-34864D01*
X33157Y-34864D02*
X33157Y-34893D01*
X33246Y-34893D02*
X33157Y-34893D01*
X33246Y-34864D02*
X33246Y-34893D01*
G54D14*
X32774Y-34706D02*
X32774Y-34294D01*
X33226Y-34304D02*
X33226Y-34864D01*
G54D15*
X33205Y-34834D02*
G75*
G03X33205Y-34834I-28J0D01*
G74*
G01*
G54D14*
X33137Y-34893D02*
G75*
G03X32863Y-34893I-137J0D01*
G74*
G01*
X32863Y-34107D02*
G75*
G03X33137Y-34107I137J0D01*
G74*
G01*
G54D13*
X33882Y-34696D02*
X33754Y-34696D01*
X33754Y-34696D02*
X33754Y-34893D01*
X33882Y-34893D02*
X33754Y-34893D01*
X33882Y-34696D02*
X33882Y-34893D01*
X34127Y-34696D02*
X34068Y-34696D01*
X34068Y-34696D02*
X34068Y-34795D01*
X34127Y-34795D02*
X34068Y-34795D01*
X34127Y-34696D02*
X34127Y-34795D01*
X33932Y-34696D02*
X33873Y-34696D01*
X33873Y-34696D02*
X33873Y-34795D01*
X33932Y-34795D02*
X33873Y-34795D01*
X33932Y-34696D02*
X33932Y-34795D01*
X34078Y-34696D02*
X33922Y-34696D01*
X33922Y-34696D02*
X33922Y-34765D01*
X34078Y-34765D02*
X33922Y-34765D01*
X34078Y-34696D02*
X34078Y-34765D01*
X33882Y-34107D02*
X33754Y-34107D01*
X33754Y-34107D02*
X33754Y-34304D01*
X33882Y-34304D02*
X33754Y-34304D01*
X33882Y-34107D02*
X33882Y-34304D01*
X34246Y-34107D02*
X34118Y-34107D01*
X34118Y-34107D02*
X34118Y-34304D01*
X34246Y-34304D02*
X34118Y-34304D01*
X34246Y-34107D02*
X34246Y-34304D01*
X33932Y-34205D02*
X33873Y-34205D01*
X33873Y-34205D02*
X33873Y-34304D01*
X33932Y-34304D02*
X33873Y-34304D01*
X33932Y-34205D02*
X33932Y-34304D01*
X34127Y-34205D02*
X34068Y-34205D01*
X34068Y-34205D02*
X34068Y-34304D01*
X34127Y-34304D02*
X34068Y-34304D01*
X34127Y-34205D02*
X34127Y-34304D01*
X34078Y-34235D02*
X33922Y-34235D01*
X33922Y-34235D02*
X33922Y-34304D01*
X34078Y-34304D02*
X33922Y-34304D01*
X34078Y-34235D02*
X34078Y-34304D01*
X34039Y-34500D02*
X33961Y-34500D01*
X33961Y-34500D02*
X33961Y-34578D01*
X34039Y-34578D02*
X33961Y-34578D01*
X34039Y-34500D02*
X34039Y-34578D01*
X34236Y-34696D02*
X34118Y-34696D01*
X34118Y-34696D02*
X34118Y-34814D01*
X34236Y-34814D02*
X34118Y-34814D01*
X34236Y-34696D02*
X34236Y-34814D01*
X34246Y-34864D02*
X34157Y-34864D01*
X34157Y-34864D02*
X34157Y-34893D01*
X34246Y-34893D02*
X34157Y-34893D01*
X34246Y-34864D02*
X34246Y-34893D01*
G54D14*
X33774Y-34706D02*
X33774Y-34294D01*
X34226Y-34304D02*
X34226Y-34864D01*
G54D15*
X34205Y-34834D02*
G75*
G03X34205Y-34834I-28J0D01*
G74*
G01*
G54D14*
X34137Y-34893D02*
G75*
G03X33863Y-34893I-137J0D01*
G74*
G01*
X33863Y-34107D02*
G75*
G03X34137Y-34107I137J0D01*
G74*
G01*
G54D13*
X34882Y-34696D02*
X34754Y-34696D01*
X34754Y-34696D02*
X34754Y-34893D01*
X34882Y-34893D02*
X34754Y-34893D01*
X34882Y-34696D02*
X34882Y-34893D01*
X35127Y-34696D02*
X35068Y-34696D01*
X35068Y-34696D02*
X35068Y-34795D01*
X35127Y-34795D02*
X35068Y-34795D01*
X35127Y-34696D02*
X35127Y-34795D01*
X34932Y-34696D02*
X34873Y-34696D01*
X34873Y-34696D02*
X34873Y-34795D01*
X34932Y-34795D02*
X34873Y-34795D01*
X34932Y-34696D02*
X34932Y-34795D01*
X35078Y-34696D02*
X34922Y-34696D01*
X34922Y-34696D02*
X34922Y-34765D01*
X35078Y-34765D02*
X34922Y-34765D01*
X35078Y-34696D02*
X35078Y-34765D01*
X34882Y-34107D02*
X34754Y-34107D01*
X34754Y-34107D02*
X34754Y-34304D01*
X34882Y-34304D02*
X34754Y-34304D01*
X34882Y-34107D02*
X34882Y-34304D01*
X35246Y-34107D02*
X35118Y-34107D01*
X35118Y-34107D02*
X35118Y-34304D01*
X35246Y-34304D02*
X35118Y-34304D01*
X35246Y-34107D02*
X35246Y-34304D01*
X34932Y-34205D02*
X34873Y-34205D01*
X34873Y-34205D02*
X34873Y-34304D01*
X34932Y-34304D02*
X34873Y-34304D01*
X34932Y-34205D02*
X34932Y-34304D01*
X35127Y-34205D02*
X35068Y-34205D01*
X35068Y-34205D02*
X35068Y-34304D01*
X35127Y-34304D02*
X35068Y-34304D01*
X35127Y-34205D02*
X35127Y-34304D01*
X35078Y-34235D02*
X34922Y-34235D01*
X34922Y-34235D02*
X34922Y-34304D01*
X35078Y-34304D02*
X34922Y-34304D01*
X35078Y-34235D02*
X35078Y-34304D01*
X35039Y-34500D02*
X34961Y-34500D01*
X34961Y-34500D02*
X34961Y-34578D01*
X35039Y-34578D02*
X34961Y-34578D01*
X35039Y-34500D02*
X35039Y-34578D01*
X35236Y-34696D02*
X35118Y-34696D01*
X35118Y-34696D02*
X35118Y-34814D01*
X35236Y-34814D02*
X35118Y-34814D01*
X35236Y-34696D02*
X35236Y-34814D01*
X35246Y-34864D02*
X35157Y-34864D01*
X35157Y-34864D02*
X35157Y-34893D01*
X35246Y-34893D02*
X35157Y-34893D01*
X35246Y-34864D02*
X35246Y-34893D01*
G54D14*
X34774Y-34706D02*
X34774Y-34294D01*
X35226Y-34304D02*
X35226Y-34864D01*
G54D15*
X35205Y-34834D02*
G75*
G03X35205Y-34834I-28J0D01*
G74*
G01*
G54D14*
X35137Y-34893D02*
G75*
G03X34863Y-34893I-137J0D01*
G74*
G01*
X34863Y-34107D02*
G75*
G03X35137Y-34107I137J0D01*
G74*
G01*
G54D13*
X35882Y-34696D02*
X35754Y-34696D01*
X35754Y-34696D02*
X35754Y-34893D01*
X35882Y-34893D02*
X35754Y-34893D01*
X35882Y-34696D02*
X35882Y-34893D01*
X36127Y-34696D02*
X36068Y-34696D01*
X36068Y-34696D02*
X36068Y-34795D01*
X36127Y-34795D02*
X36068Y-34795D01*
X36127Y-34696D02*
X36127Y-34795D01*
X35932Y-34696D02*
X35873Y-34696D01*
X35873Y-34696D02*
X35873Y-34795D01*
X35932Y-34795D02*
X35873Y-34795D01*
X35932Y-34696D02*
X35932Y-34795D01*
X36078Y-34696D02*
X35922Y-34696D01*
X35922Y-34696D02*
X35922Y-34765D01*
X36078Y-34765D02*
X35922Y-34765D01*
X36078Y-34696D02*
X36078Y-34765D01*
X35882Y-34107D02*
X35754Y-34107D01*
X35754Y-34107D02*
X35754Y-34304D01*
X35882Y-34304D02*
X35754Y-34304D01*
X35882Y-34107D02*
X35882Y-34304D01*
X36246Y-34107D02*
X36118Y-34107D01*
X36118Y-34107D02*
X36118Y-34304D01*
X36246Y-34304D02*
X36118Y-34304D01*
X36246Y-34107D02*
X36246Y-34304D01*
X35932Y-34205D02*
X35873Y-34205D01*
X35873Y-34205D02*
X35873Y-34304D01*
X35932Y-34304D02*
X35873Y-34304D01*
X35932Y-34205D02*
X35932Y-34304D01*
X36127Y-34205D02*
X36068Y-34205D01*
X36068Y-34205D02*
X36068Y-34304D01*
X36127Y-34304D02*
X36068Y-34304D01*
X36127Y-34205D02*
X36127Y-34304D01*
X36078Y-34235D02*
X35922Y-34235D01*
X35922Y-34235D02*
X35922Y-34304D01*
X36078Y-34304D02*
X35922Y-34304D01*
X36078Y-34235D02*
X36078Y-34304D01*
X36039Y-34500D02*
X35961Y-34500D01*
X35961Y-34500D02*
X35961Y-34578D01*
X36039Y-34578D02*
X35961Y-34578D01*
X36039Y-34500D02*
X36039Y-34578D01*
X36236Y-34696D02*
X36118Y-34696D01*
X36118Y-34696D02*
X36118Y-34814D01*
X36236Y-34814D02*
X36118Y-34814D01*
X36236Y-34696D02*
X36236Y-34814D01*
X36246Y-34864D02*
X36157Y-34864D01*
X36157Y-34864D02*
X36157Y-34893D01*
X36246Y-34893D02*
X36157Y-34893D01*
X36246Y-34864D02*
X36246Y-34893D01*
G54D14*
X35774Y-34706D02*
X35774Y-34294D01*
X36226Y-34304D02*
X36226Y-34864D01*
G54D15*
X36205Y-34834D02*
G75*
G03X36205Y-34834I-28J0D01*
G74*
G01*
G54D14*
X36137Y-34893D02*
G75*
G03X35863Y-34893I-137J0D01*
G74*
G01*
X35863Y-34107D02*
G75*
G03X36137Y-34107I137J0D01*
G74*
G01*
G54D13*
X36882Y-34696D02*
X36754Y-34696D01*
X36754Y-34696D02*
X36754Y-34893D01*
X36882Y-34893D02*
X36754Y-34893D01*
X36882Y-34696D02*
X36882Y-34893D01*
X37127Y-34696D02*
X37068Y-34696D01*
X37068Y-34696D02*
X37068Y-34795D01*
X37127Y-34795D02*
X37068Y-34795D01*
X37127Y-34696D02*
X37127Y-34795D01*
X36932Y-34696D02*
X36873Y-34696D01*
X36873Y-34696D02*
X36873Y-34795D01*
X36932Y-34795D02*
X36873Y-34795D01*
X36932Y-34696D02*
X36932Y-34795D01*
X37078Y-34696D02*
X36922Y-34696D01*
X36922Y-34696D02*
X36922Y-34765D01*
X37078Y-34765D02*
X36922Y-34765D01*
X37078Y-34696D02*
X37078Y-34765D01*
X36882Y-34107D02*
X36754Y-34107D01*
X36754Y-34107D02*
X36754Y-34304D01*
X36882Y-34304D02*
X36754Y-34304D01*
X36882Y-34107D02*
X36882Y-34304D01*
X37246Y-34107D02*
X37118Y-34107D01*
X37118Y-34107D02*
X37118Y-34304D01*
X37246Y-34304D02*
X37118Y-34304D01*
X37246Y-34107D02*
X37246Y-34304D01*
X36932Y-34205D02*
X36873Y-34205D01*
X36873Y-34205D02*
X36873Y-34304D01*
X36932Y-34304D02*
X36873Y-34304D01*
X36932Y-34205D02*
X36932Y-34304D01*
X37127Y-34205D02*
X37068Y-34205D01*
X37068Y-34205D02*
X37068Y-34304D01*
X37127Y-34304D02*
X37068Y-34304D01*
X37127Y-34205D02*
X37127Y-34304D01*
X37078Y-34235D02*
X36922Y-34235D01*
X36922Y-34235D02*
X36922Y-34304D01*
X37078Y-34304D02*
X36922Y-34304D01*
X37078Y-34235D02*
X37078Y-34304D01*
X37039Y-34500D02*
X36961Y-34500D01*
X36961Y-34500D02*
X36961Y-34578D01*
X37039Y-34578D02*
X36961Y-34578D01*
X37039Y-34500D02*
X37039Y-34578D01*
X37236Y-34696D02*
X37118Y-34696D01*
X37118Y-34696D02*
X37118Y-34814D01*
X37236Y-34814D02*
X37118Y-34814D01*
X37236Y-34696D02*
X37236Y-34814D01*
X37246Y-34864D02*
X37157Y-34864D01*
X37157Y-34864D02*
X37157Y-34893D01*
X37246Y-34893D02*
X37157Y-34893D01*
X37246Y-34864D02*
X37246Y-34893D01*
G54D14*
X36774Y-34706D02*
X36774Y-34294D01*
X37226Y-34304D02*
X37226Y-34864D01*
G54D15*
X37205Y-34834D02*
G75*
G03X37205Y-34834I-28J0D01*
G74*
G01*
G54D14*
X37137Y-34893D02*
G75*
G03X36863Y-34893I-137J0D01*
G74*
G01*
X36863Y-34107D02*
G75*
G03X37137Y-34107I137J0D01*
G74*
G01*
G54D13*
X38882Y-34696D02*
X38754Y-34696D01*
X38754Y-34696D02*
X38754Y-34893D01*
X38882Y-34893D02*
X38754Y-34893D01*
X38882Y-34696D02*
X38882Y-34893D01*
X39127Y-34696D02*
X39068Y-34696D01*
X39068Y-34696D02*
X39068Y-34795D01*
X39127Y-34795D02*
X39068Y-34795D01*
X39127Y-34696D02*
X39127Y-34795D01*
X38932Y-34696D02*
X38873Y-34696D01*
X38873Y-34696D02*
X38873Y-34795D01*
X38932Y-34795D02*
X38873Y-34795D01*
X38932Y-34696D02*
X38932Y-34795D01*
X39078Y-34696D02*
X38922Y-34696D01*
X38922Y-34696D02*
X38922Y-34765D01*
X39078Y-34765D02*
X38922Y-34765D01*
X39078Y-34696D02*
X39078Y-34765D01*
X38882Y-34107D02*
X38754Y-34107D01*
X38754Y-34107D02*
X38754Y-34304D01*
X38882Y-34304D02*
X38754Y-34304D01*
X38882Y-34107D02*
X38882Y-34304D01*
X39246Y-34107D02*
X39118Y-34107D01*
X39118Y-34107D02*
X39118Y-34304D01*
X39246Y-34304D02*
X39118Y-34304D01*
X39246Y-34107D02*
X39246Y-34304D01*
X38932Y-34205D02*
X38873Y-34205D01*
X38873Y-34205D02*
X38873Y-34304D01*
X38932Y-34304D02*
X38873Y-34304D01*
X38932Y-34205D02*
X38932Y-34304D01*
X39127Y-34205D02*
X39068Y-34205D01*
X39068Y-34205D02*
X39068Y-34304D01*
X39127Y-34304D02*
X39068Y-34304D01*
X39127Y-34205D02*
X39127Y-34304D01*
X39078Y-34235D02*
X38922Y-34235D01*
X38922Y-34235D02*
X38922Y-34304D01*
X39078Y-34304D02*
X38922Y-34304D01*
X39078Y-34235D02*
X39078Y-34304D01*
X39039Y-34500D02*
X38961Y-34500D01*
X38961Y-34500D02*
X38961Y-34578D01*
X39039Y-34578D02*
X38961Y-34578D01*
X39039Y-34500D02*
X39039Y-34578D01*
X39236Y-34696D02*
X39118Y-34696D01*
X39118Y-34696D02*
X39118Y-34814D01*
X39236Y-34814D02*
X39118Y-34814D01*
X39236Y-34696D02*
X39236Y-34814D01*
X39246Y-34864D02*
X39157Y-34864D01*
X39157Y-34864D02*
X39157Y-34893D01*
X39246Y-34893D02*
X39157Y-34893D01*
X39246Y-34864D02*
X39246Y-34893D01*
G54D14*
X38774Y-34706D02*
X38774Y-34294D01*
X39226Y-34304D02*
X39226Y-34864D01*
G54D15*
X39205Y-34834D02*
G75*
G03X39205Y-34834I-28J0D01*
G74*
G01*
G54D14*
X39137Y-34893D02*
G75*
G03X38863Y-34893I-137J0D01*
G74*
G01*
X38863Y-34107D02*
G75*
G03X39137Y-34107I137J0D01*
G74*
G01*
G54D13*
X31882Y-32946D02*
X31754Y-32946D01*
X31754Y-32946D02*
X31754Y-33143D01*
X31882Y-33143D02*
X31754Y-33143D01*
X31882Y-32946D02*
X31882Y-33143D01*
X32127Y-32946D02*
X32068Y-32946D01*
X32068Y-32946D02*
X32068Y-33045D01*
X32127Y-33045D02*
X32068Y-33045D01*
X32127Y-32946D02*
X32127Y-33045D01*
X31932Y-32946D02*
X31873Y-32946D01*
X31873Y-32946D02*
X31873Y-33045D01*
X31932Y-33045D02*
X31873Y-33045D01*
X31932Y-32946D02*
X31932Y-33045D01*
X32078Y-32946D02*
X31922Y-32946D01*
X31922Y-32946D02*
X31922Y-33015D01*
X32078Y-33015D02*
X31922Y-33015D01*
X32078Y-32946D02*
X32078Y-33015D01*
X31882Y-32357D02*
X31754Y-32357D01*
X31754Y-32357D02*
X31754Y-32554D01*
X31882Y-32554D02*
X31754Y-32554D01*
X31882Y-32357D02*
X31882Y-32554D01*
X32246Y-32357D02*
X32118Y-32357D01*
X32118Y-32357D02*
X32118Y-32554D01*
X32246Y-32554D02*
X32118Y-32554D01*
X32246Y-32357D02*
X32246Y-32554D01*
X31932Y-32455D02*
X31873Y-32455D01*
X31873Y-32455D02*
X31873Y-32554D01*
X31932Y-32554D02*
X31873Y-32554D01*
X31932Y-32455D02*
X31932Y-32554D01*
X32127Y-32455D02*
X32068Y-32455D01*
X32068Y-32455D02*
X32068Y-32554D01*
X32127Y-32554D02*
X32068Y-32554D01*
X32127Y-32455D02*
X32127Y-32554D01*
X32078Y-32485D02*
X31922Y-32485D01*
X31922Y-32485D02*
X31922Y-32554D01*
X32078Y-32554D02*
X31922Y-32554D01*
X32078Y-32485D02*
X32078Y-32554D01*
X32039Y-32750D02*
X31961Y-32750D01*
X31961Y-32750D02*
X31961Y-32828D01*
X32039Y-32828D02*
X31961Y-32828D01*
X32039Y-32750D02*
X32039Y-32828D01*
X32236Y-32946D02*
X32118Y-32946D01*
X32118Y-32946D02*
X32118Y-33064D01*
X32236Y-33064D02*
X32118Y-33064D01*
X32236Y-32946D02*
X32236Y-33064D01*
X32246Y-33114D02*
X32157Y-33114D01*
X32157Y-33114D02*
X32157Y-33143D01*
X32246Y-33143D02*
X32157Y-33143D01*
X32246Y-33114D02*
X32246Y-33143D01*
G54D14*
X31774Y-32956D02*
X31774Y-32544D01*
X32226Y-32554D02*
X32226Y-33114D01*
G54D15*
X32205Y-33084D02*
G75*
G03X32205Y-33084I-28J0D01*
G74*
G01*
G54D14*
X32137Y-33143D02*
G75*
G03X31863Y-33143I-137J0D01*
G74*
G01*
X31863Y-32357D02*
G75*
G03X32137Y-32357I137J0D01*
G74*
G01*
G54D13*
X32882Y-32946D02*
X32754Y-32946D01*
X32754Y-32946D02*
X32754Y-33143D01*
X32882Y-33143D02*
X32754Y-33143D01*
X32882Y-32946D02*
X32882Y-33143D01*
X33127Y-32946D02*
X33068Y-32946D01*
X33068Y-32946D02*
X33068Y-33045D01*
X33127Y-33045D02*
X33068Y-33045D01*
X33127Y-32946D02*
X33127Y-33045D01*
X32932Y-32946D02*
X32873Y-32946D01*
X32873Y-32946D02*
X32873Y-33045D01*
X32932Y-33045D02*
X32873Y-33045D01*
X32932Y-32946D02*
X32932Y-33045D01*
X33078Y-32946D02*
X32922Y-32946D01*
X32922Y-32946D02*
X32922Y-33015D01*
X33078Y-33015D02*
X32922Y-33015D01*
X33078Y-32946D02*
X33078Y-33015D01*
X32882Y-32357D02*
X32754Y-32357D01*
X32754Y-32357D02*
X32754Y-32554D01*
X32882Y-32554D02*
X32754Y-32554D01*
X32882Y-32357D02*
X32882Y-32554D01*
X33246Y-32357D02*
X33118Y-32357D01*
X33118Y-32357D02*
X33118Y-32554D01*
X33246Y-32554D02*
X33118Y-32554D01*
X33246Y-32357D02*
X33246Y-32554D01*
X32932Y-32455D02*
X32873Y-32455D01*
X32873Y-32455D02*
X32873Y-32554D01*
X32932Y-32554D02*
X32873Y-32554D01*
X32932Y-32455D02*
X32932Y-32554D01*
X33127Y-32455D02*
X33068Y-32455D01*
X33068Y-32455D02*
X33068Y-32554D01*
X33127Y-32554D02*
X33068Y-32554D01*
X33127Y-32455D02*
X33127Y-32554D01*
X33078Y-32485D02*
X32922Y-32485D01*
X32922Y-32485D02*
X32922Y-32554D01*
X33078Y-32554D02*
X32922Y-32554D01*
X33078Y-32485D02*
X33078Y-32554D01*
X33039Y-32750D02*
X32961Y-32750D01*
X32961Y-32750D02*
X32961Y-32828D01*
X33039Y-32828D02*
X32961Y-32828D01*
X33039Y-32750D02*
X33039Y-32828D01*
X33236Y-32946D02*
X33118Y-32946D01*
X33118Y-32946D02*
X33118Y-33064D01*
X33236Y-33064D02*
X33118Y-33064D01*
X33236Y-32946D02*
X33236Y-33064D01*
X33246Y-33114D02*
X33157Y-33114D01*
X33157Y-33114D02*
X33157Y-33143D01*
X33246Y-33143D02*
X33157Y-33143D01*
X33246Y-33114D02*
X33246Y-33143D01*
G54D14*
X32774Y-32956D02*
X32774Y-32544D01*
X33226Y-32554D02*
X33226Y-33114D01*
G54D15*
X33205Y-33084D02*
G75*
G03X33205Y-33084I-28J0D01*
G74*
G01*
G54D14*
X33137Y-33143D02*
G75*
G03X32863Y-33143I-137J0D01*
G74*
G01*
X32863Y-32357D02*
G75*
G03X33137Y-32357I137J0D01*
G74*
G01*
G54D13*
X33882Y-32946D02*
X33754Y-32946D01*
X33754Y-32946D02*
X33754Y-33143D01*
X33882Y-33143D02*
X33754Y-33143D01*
X33882Y-32946D02*
X33882Y-33143D01*
X34127Y-32946D02*
X34068Y-32946D01*
X34068Y-32946D02*
X34068Y-33045D01*
X34127Y-33045D02*
X34068Y-33045D01*
X34127Y-32946D02*
X34127Y-33045D01*
X33932Y-32946D02*
X33873Y-32946D01*
X33873Y-32946D02*
X33873Y-33045D01*
X33932Y-33045D02*
X33873Y-33045D01*
X33932Y-32946D02*
X33932Y-33045D01*
X34078Y-32946D02*
X33922Y-32946D01*
X33922Y-32946D02*
X33922Y-33015D01*
X34078Y-33015D02*
X33922Y-33015D01*
X34078Y-32946D02*
X34078Y-33015D01*
X33882Y-32357D02*
X33754Y-32357D01*
X33754Y-32357D02*
X33754Y-32554D01*
X33882Y-32554D02*
X33754Y-32554D01*
X33882Y-32357D02*
X33882Y-32554D01*
X34246Y-32357D02*
X34118Y-32357D01*
X34118Y-32357D02*
X34118Y-32554D01*
X34246Y-32554D02*
X34118Y-32554D01*
X34246Y-32357D02*
X34246Y-32554D01*
X33932Y-32455D02*
X33873Y-32455D01*
X33873Y-32455D02*
X33873Y-32554D01*
X33932Y-32554D02*
X33873Y-32554D01*
X33932Y-32455D02*
X33932Y-32554D01*
X34127Y-32455D02*
X34068Y-32455D01*
X34068Y-32455D02*
X34068Y-32554D01*
X34127Y-32554D02*
X34068Y-32554D01*
X34127Y-32455D02*
X34127Y-32554D01*
X34078Y-32485D02*
X33922Y-32485D01*
X33922Y-32485D02*
X33922Y-32554D01*
X34078Y-32554D02*
X33922Y-32554D01*
X34078Y-32485D02*
X34078Y-32554D01*
X34039Y-32750D02*
X33961Y-32750D01*
X33961Y-32750D02*
X33961Y-32828D01*
X34039Y-32828D02*
X33961Y-32828D01*
X34039Y-32750D02*
X34039Y-32828D01*
X34236Y-32946D02*
X34118Y-32946D01*
X34118Y-32946D02*
X34118Y-33064D01*
X34236Y-33064D02*
X34118Y-33064D01*
X34236Y-32946D02*
X34236Y-33064D01*
X34246Y-33114D02*
X34157Y-33114D01*
X34157Y-33114D02*
X34157Y-33143D01*
X34246Y-33143D02*
X34157Y-33143D01*
X34246Y-33114D02*
X34246Y-33143D01*
G54D14*
X33774Y-32956D02*
X33774Y-32544D01*
X34226Y-32554D02*
X34226Y-33114D01*
G54D15*
X34205Y-33084D02*
G75*
G03X34205Y-33084I-28J0D01*
G74*
G01*
G54D14*
X34137Y-33143D02*
G75*
G03X33863Y-33143I-137J0D01*
G74*
G01*
X33863Y-32357D02*
G75*
G03X34137Y-32357I137J0D01*
G74*
G01*
G54D13*
X34882Y-32946D02*
X34754Y-32946D01*
X34754Y-32946D02*
X34754Y-33143D01*
X34882Y-33143D02*
X34754Y-33143D01*
X34882Y-32946D02*
X34882Y-33143D01*
X35127Y-32946D02*
X35068Y-32946D01*
X35068Y-32946D02*
X35068Y-33045D01*
X35127Y-33045D02*
X35068Y-33045D01*
X35127Y-32946D02*
X35127Y-33045D01*
X34932Y-32946D02*
X34873Y-32946D01*
X34873Y-32946D02*
X34873Y-33045D01*
X34932Y-33045D02*
X34873Y-33045D01*
X34932Y-32946D02*
X34932Y-33045D01*
X35078Y-32946D02*
X34922Y-32946D01*
X34922Y-32946D02*
X34922Y-33015D01*
X35078Y-33015D02*
X34922Y-33015D01*
X35078Y-32946D02*
X35078Y-33015D01*
X34882Y-32357D02*
X34754Y-32357D01*
X34754Y-32357D02*
X34754Y-32554D01*
X34882Y-32554D02*
X34754Y-32554D01*
X34882Y-32357D02*
X34882Y-32554D01*
X35246Y-32357D02*
X35118Y-32357D01*
X35118Y-32357D02*
X35118Y-32554D01*
X35246Y-32554D02*
X35118Y-32554D01*
X35246Y-32357D02*
X35246Y-32554D01*
X34932Y-32455D02*
X34873Y-32455D01*
X34873Y-32455D02*
X34873Y-32554D01*
X34932Y-32554D02*
X34873Y-32554D01*
X34932Y-32455D02*
X34932Y-32554D01*
X35127Y-32455D02*
X35068Y-32455D01*
X35068Y-32455D02*
X35068Y-32554D01*
X35127Y-32554D02*
X35068Y-32554D01*
X35127Y-32455D02*
X35127Y-32554D01*
X35078Y-32485D02*
X34922Y-32485D01*
X34922Y-32485D02*
X34922Y-32554D01*
X35078Y-32554D02*
X34922Y-32554D01*
X35078Y-32485D02*
X35078Y-32554D01*
X35039Y-32750D02*
X34961Y-32750D01*
X34961Y-32750D02*
X34961Y-32828D01*
X35039Y-32828D02*
X34961Y-32828D01*
X35039Y-32750D02*
X35039Y-32828D01*
X35236Y-32946D02*
X35118Y-32946D01*
X35118Y-32946D02*
X35118Y-33064D01*
X35236Y-33064D02*
X35118Y-33064D01*
X35236Y-32946D02*
X35236Y-33064D01*
X35246Y-33114D02*
X35157Y-33114D01*
X35157Y-33114D02*
X35157Y-33143D01*
X35246Y-33143D02*
X35157Y-33143D01*
X35246Y-33114D02*
X35246Y-33143D01*
G54D14*
X34774Y-32956D02*
X34774Y-32544D01*
X35226Y-32554D02*
X35226Y-33114D01*
G54D15*
X35205Y-33084D02*
G75*
G03X35205Y-33084I-28J0D01*
G74*
G01*
G54D14*
X35137Y-33143D02*
G75*
G03X34863Y-33143I-137J0D01*
G74*
G01*
X34863Y-32357D02*
G75*
G03X35137Y-32357I137J0D01*
G74*
G01*
G54D13*
X35882Y-32946D02*
X35754Y-32946D01*
X35754Y-32946D02*
X35754Y-33143D01*
X35882Y-33143D02*
X35754Y-33143D01*
X35882Y-32946D02*
X35882Y-33143D01*
X36127Y-32946D02*
X36068Y-32946D01*
X36068Y-32946D02*
X36068Y-33045D01*
X36127Y-33045D02*
X36068Y-33045D01*
X36127Y-32946D02*
X36127Y-33045D01*
X35932Y-32946D02*
X35873Y-32946D01*
X35873Y-32946D02*
X35873Y-33045D01*
X35932Y-33045D02*
X35873Y-33045D01*
X35932Y-32946D02*
X35932Y-33045D01*
X36078Y-32946D02*
X35922Y-32946D01*
X35922Y-32946D02*
X35922Y-33015D01*
X36078Y-33015D02*
X35922Y-33015D01*
X36078Y-32946D02*
X36078Y-33015D01*
X35882Y-32357D02*
X35754Y-32357D01*
X35754Y-32357D02*
X35754Y-32554D01*
X35882Y-32554D02*
X35754Y-32554D01*
X35882Y-32357D02*
X35882Y-32554D01*
X36246Y-32357D02*
X36118Y-32357D01*
X36118Y-32357D02*
X36118Y-32554D01*
X36246Y-32554D02*
X36118Y-32554D01*
X36246Y-32357D02*
X36246Y-32554D01*
X35932Y-32455D02*
X35873Y-32455D01*
X35873Y-32455D02*
X35873Y-32554D01*
X35932Y-32554D02*
X35873Y-32554D01*
X35932Y-32455D02*
X35932Y-32554D01*
X36127Y-32455D02*
X36068Y-32455D01*
X36068Y-32455D02*
X36068Y-32554D01*
X36127Y-32554D02*
X36068Y-32554D01*
X36127Y-32455D02*
X36127Y-32554D01*
X36078Y-32485D02*
X35922Y-32485D01*
X35922Y-32485D02*
X35922Y-32554D01*
X36078Y-32554D02*
X35922Y-32554D01*
X36078Y-32485D02*
X36078Y-32554D01*
X36039Y-32750D02*
X35961Y-32750D01*
X35961Y-32750D02*
X35961Y-32828D01*
X36039Y-32828D02*
X35961Y-32828D01*
X36039Y-32750D02*
X36039Y-32828D01*
X36236Y-32946D02*
X36118Y-32946D01*
X36118Y-32946D02*
X36118Y-33064D01*
X36236Y-33064D02*
X36118Y-33064D01*
X36236Y-32946D02*
X36236Y-33064D01*
X36246Y-33114D02*
X36157Y-33114D01*
X36157Y-33114D02*
X36157Y-33143D01*
X36246Y-33143D02*
X36157Y-33143D01*
X36246Y-33114D02*
X36246Y-33143D01*
G54D14*
X35774Y-32956D02*
X35774Y-32544D01*
X36226Y-32554D02*
X36226Y-33114D01*
G54D15*
X36205Y-33084D02*
G75*
G03X36205Y-33084I-28J0D01*
G74*
G01*
G54D14*
X36137Y-33143D02*
G75*
G03X35863Y-33143I-137J0D01*
G74*
G01*
X35863Y-32357D02*
G75*
G03X36137Y-32357I137J0D01*
G74*
G01*
G54D13*
X36882Y-32946D02*
X36754Y-32946D01*
X36754Y-32946D02*
X36754Y-33143D01*
X36882Y-33143D02*
X36754Y-33143D01*
X36882Y-32946D02*
X36882Y-33143D01*
X37127Y-32946D02*
X37068Y-32946D01*
X37068Y-32946D02*
X37068Y-33045D01*
X37127Y-33045D02*
X37068Y-33045D01*
X37127Y-32946D02*
X37127Y-33045D01*
X36932Y-32946D02*
X36873Y-32946D01*
X36873Y-32946D02*
X36873Y-33045D01*
X36932Y-33045D02*
X36873Y-33045D01*
X36932Y-32946D02*
X36932Y-33045D01*
X37078Y-32946D02*
X36922Y-32946D01*
X36922Y-32946D02*
X36922Y-33015D01*
X37078Y-33015D02*
X36922Y-33015D01*
X37078Y-32946D02*
X37078Y-33015D01*
X36882Y-32357D02*
X36754Y-32357D01*
X36754Y-32357D02*
X36754Y-32554D01*
X36882Y-32554D02*
X36754Y-32554D01*
X36882Y-32357D02*
X36882Y-32554D01*
X37246Y-32357D02*
X37118Y-32357D01*
X37118Y-32357D02*
X37118Y-32554D01*
X37246Y-32554D02*
X37118Y-32554D01*
X37246Y-32357D02*
X37246Y-32554D01*
X36932Y-32455D02*
X36873Y-32455D01*
X36873Y-32455D02*
X36873Y-32554D01*
X36932Y-32554D02*
X36873Y-32554D01*
X36932Y-32455D02*
X36932Y-32554D01*
X37127Y-32455D02*
X37068Y-32455D01*
X37068Y-32455D02*
X37068Y-32554D01*
X37127Y-32554D02*
X37068Y-32554D01*
X37127Y-32455D02*
X37127Y-32554D01*
X37078Y-32485D02*
X36922Y-32485D01*
X36922Y-32485D02*
X36922Y-32554D01*
X37078Y-32554D02*
X36922Y-32554D01*
X37078Y-32485D02*
X37078Y-32554D01*
X37039Y-32750D02*
X36961Y-32750D01*
X36961Y-32750D02*
X36961Y-32828D01*
X37039Y-32828D02*
X36961Y-32828D01*
X37039Y-32750D02*
X37039Y-32828D01*
X37236Y-32946D02*
X37118Y-32946D01*
X37118Y-32946D02*
X37118Y-33064D01*
X37236Y-33064D02*
X37118Y-33064D01*
X37236Y-32946D02*
X37236Y-33064D01*
X37246Y-33114D02*
X37157Y-33114D01*
X37157Y-33114D02*
X37157Y-33143D01*
X37246Y-33143D02*
X37157Y-33143D01*
X37246Y-33114D02*
X37246Y-33143D01*
G54D14*
X36774Y-32956D02*
X36774Y-32544D01*
X37226Y-32554D02*
X37226Y-33114D01*
G54D15*
X37205Y-33084D02*
G75*
G03X37205Y-33084I-28J0D01*
G74*
G01*
G54D14*
X37137Y-33143D02*
G75*
G03X36863Y-33143I-137J0D01*
G74*
G01*
X36863Y-32357D02*
G75*
G03X37137Y-32357I137J0D01*
G74*
G01*
G54D13*
X37882Y-32946D02*
X37754Y-32946D01*
X37754Y-32946D02*
X37754Y-33143D01*
X37882Y-33143D02*
X37754Y-33143D01*
X37882Y-32946D02*
X37882Y-33143D01*
X38127Y-32946D02*
X38068Y-32946D01*
X38068Y-32946D02*
X38068Y-33045D01*
X38127Y-33045D02*
X38068Y-33045D01*
X38127Y-32946D02*
X38127Y-33045D01*
X37932Y-32946D02*
X37873Y-32946D01*
X37873Y-32946D02*
X37873Y-33045D01*
X37932Y-33045D02*
X37873Y-33045D01*
X37932Y-32946D02*
X37932Y-33045D01*
X38078Y-32946D02*
X37922Y-32946D01*
X37922Y-32946D02*
X37922Y-33015D01*
X38078Y-33015D02*
X37922Y-33015D01*
X38078Y-32946D02*
X38078Y-33015D01*
X37882Y-32357D02*
X37754Y-32357D01*
X37754Y-32357D02*
X37754Y-32554D01*
X37882Y-32554D02*
X37754Y-32554D01*
X37882Y-32357D02*
X37882Y-32554D01*
X38246Y-32357D02*
X38118Y-32357D01*
X38118Y-32357D02*
X38118Y-32554D01*
X38246Y-32554D02*
X38118Y-32554D01*
X38246Y-32357D02*
X38246Y-32554D01*
X37932Y-32455D02*
X37873Y-32455D01*
X37873Y-32455D02*
X37873Y-32554D01*
X37932Y-32554D02*
X37873Y-32554D01*
X37932Y-32455D02*
X37932Y-32554D01*
X38127Y-32455D02*
X38068Y-32455D01*
X38068Y-32455D02*
X38068Y-32554D01*
X38127Y-32554D02*
X38068Y-32554D01*
X38127Y-32455D02*
X38127Y-32554D01*
X38078Y-32485D02*
X37922Y-32485D01*
X37922Y-32485D02*
X37922Y-32554D01*
X38078Y-32554D02*
X37922Y-32554D01*
X38078Y-32485D02*
X38078Y-32554D01*
X38039Y-32750D02*
X37961Y-32750D01*
X37961Y-32750D02*
X37961Y-32828D01*
X38039Y-32828D02*
X37961Y-32828D01*
X38039Y-32750D02*
X38039Y-32828D01*
X38236Y-32946D02*
X38118Y-32946D01*
X38118Y-32946D02*
X38118Y-33064D01*
X38236Y-33064D02*
X38118Y-33064D01*
X38236Y-32946D02*
X38236Y-33064D01*
X38246Y-33114D02*
X38157Y-33114D01*
X38157Y-33114D02*
X38157Y-33143D01*
X38246Y-33143D02*
X38157Y-33143D01*
X38246Y-33114D02*
X38246Y-33143D01*
G54D14*
X37774Y-32956D02*
X37774Y-32544D01*
X38226Y-32554D02*
X38226Y-33114D01*
G54D15*
X38205Y-33084D02*
G75*
G03X38205Y-33084I-28J0D01*
G74*
G01*
G54D14*
X38137Y-33143D02*
G75*
G03X37863Y-33143I-137J0D01*
G74*
G01*
X37863Y-32357D02*
G75*
G03X38137Y-32357I137J0D01*
G74*
G01*
G54D13*
X38882Y-32946D02*
X38754Y-32946D01*
X38754Y-32946D02*
X38754Y-33143D01*
X38882Y-33143D02*
X38754Y-33143D01*
X38882Y-32946D02*
X38882Y-33143D01*
X39127Y-32946D02*
X39068Y-32946D01*
X39068Y-32946D02*
X39068Y-33045D01*
X39127Y-33045D02*
X39068Y-33045D01*
X39127Y-32946D02*
X39127Y-33045D01*
X38932Y-32946D02*
X38873Y-32946D01*
X38873Y-32946D02*
X38873Y-33045D01*
X38932Y-33045D02*
X38873Y-33045D01*
X38932Y-32946D02*
X38932Y-33045D01*
X39078Y-32946D02*
X38922Y-32946D01*
X38922Y-32946D02*
X38922Y-33015D01*
X39078Y-33015D02*
X38922Y-33015D01*
X39078Y-32946D02*
X39078Y-33015D01*
X38882Y-32357D02*
X38754Y-32357D01*
X38754Y-32357D02*
X38754Y-32554D01*
X38882Y-32554D02*
X38754Y-32554D01*
X38882Y-32357D02*
X38882Y-32554D01*
X39246Y-32357D02*
X39118Y-32357D01*
X39118Y-32357D02*
X39118Y-32554D01*
X39246Y-32554D02*
X39118Y-32554D01*
X39246Y-32357D02*
X39246Y-32554D01*
X38932Y-32455D02*
X38873Y-32455D01*
X38873Y-32455D02*
X38873Y-32554D01*
X38932Y-32554D02*
X38873Y-32554D01*
X38932Y-32455D02*
X38932Y-32554D01*
X39127Y-32455D02*
X39068Y-32455D01*
X39068Y-32455D02*
X39068Y-32554D01*
X39127Y-32554D02*
X39068Y-32554D01*
X39127Y-32455D02*
X39127Y-32554D01*
X39078Y-32485D02*
X38922Y-32485D01*
X38922Y-32485D02*
X38922Y-32554D01*
X39078Y-32554D02*
X38922Y-32554D01*
X39078Y-32485D02*
X39078Y-32554D01*
X39039Y-32750D02*
X38961Y-32750D01*
X38961Y-32750D02*
X38961Y-32828D01*
X39039Y-32828D02*
X38961Y-32828D01*
X39039Y-32750D02*
X39039Y-32828D01*
X39236Y-32946D02*
X39118Y-32946D01*
X39118Y-32946D02*
X39118Y-33064D01*
X39236Y-33064D02*
X39118Y-33064D01*
X39236Y-32946D02*
X39236Y-33064D01*
X39246Y-33114D02*
X39157Y-33114D01*
X39157Y-33114D02*
X39157Y-33143D01*
X39246Y-33143D02*
X39157Y-33143D01*
X39246Y-33114D02*
X39246Y-33143D01*
G54D14*
X38774Y-32956D02*
X38774Y-32544D01*
X39226Y-32554D02*
X39226Y-33114D01*
G54D15*
X39205Y-33084D02*
G75*
G03X39205Y-33084I-28J0D01*
G74*
G01*
G54D14*
X39137Y-33143D02*
G75*
G03X38863Y-33143I-137J0D01*
G74*
G01*
X38863Y-32357D02*
G75*
G03X39137Y-32357I137J0D01*
G74*
G01*
%LPC*%
G54D16*
X40000Y-36000D03*
G54D17*
X39000Y-36000D03*
X38000Y-36000D03*
X37000Y-36000D03*
X36000Y-36000D03*
X35000Y-36000D03*
X34000Y-36000D03*
X33000Y-36000D03*
X32000Y-36000D03*
G54D18*
X32000Y-34087D03*
X32000Y-34913D03*
X38000Y-34087D03*
X38000Y-34913D03*
X33000Y-34087D03*
X33000Y-34913D03*
X34000Y-34087D03*
X34000Y-34913D03*
X35000Y-34087D03*
X35000Y-34913D03*
X36000Y-34087D03*
X36000Y-34913D03*
X37000Y-34087D03*
X37000Y-34913D03*
X39000Y-34087D03*
X39000Y-34913D03*
X32000Y-32337D03*
X32000Y-33163D03*
X33000Y-32337D03*
X33000Y-33163D03*
X34000Y-32337D03*
X34000Y-33163D03*
X35000Y-32337D03*
X35000Y-33163D03*
X36000Y-32337D03*
X36000Y-33163D03*
X37000Y-32337D03*
X37000Y-33163D03*
X38000Y-32337D03*
X38000Y-33163D03*
X39000Y-32337D03*
X39000Y-33163D03*
M02*
