M48
METRIC,TZ
T1C0.330
T2C1.016
%
G90
G05
T1
X081275Y-084225
X082550Y-082169
X082550Y-088700
X083825Y-084225
X085090Y-082106
X086350Y-084225
X087567Y-082106
X088900Y-084225
X088900Y-088675
X091450Y-084225
X092710Y-082106
X092750Y-088700
X093975Y-084225
X095250Y-082200
X096525Y-084225
X097790Y-082169
X099075Y-084225
X099075Y-088675
T2
X081280Y-091440
X083820Y-091440
X086360Y-091440
X088900Y-091440
X091440Y-091440
X093980Y-091440
X096520Y-091440
X099060Y-091440
X101600Y-091440
T0
M30
