G04 (created by PCBNEW (2012-12-10 BZR 3841)-testing) date Tue 11 Dec 2012 12:44:15 PM CET*
%MOIN*%
G04 Gerber Fmt 3.4, Leading zero omitted, Abs format*
%FSLAX34Y34*%
G01*
G70*
G90*
G04 APERTURE LIST*
%ADD10C,0.006*%
%ADD11R,0.055X0.055*%
%ADD12C,0.055*%
%ADD13R,0.0433X0.0393*%
%ADD14C,0.025*%
%ADD15C,0.02*%
%ADD16C,0.008*%
G04 APERTURE END LIST*
G54D10*
G54D11*
X40000Y-36000D03*
G54D12*
X39000Y-36000D03*
X38000Y-36000D03*
X37000Y-36000D03*
X36000Y-36000D03*
X35000Y-36000D03*
X34000Y-36000D03*
X33000Y-36000D03*
X32000Y-36000D03*
G54D13*
X37992Y-35137D03*
X37992Y-34469D03*
X37007Y-35137D03*
X37007Y-34469D03*
X36003Y-35137D03*
X36003Y-34469D03*
X35000Y-35137D03*
X35000Y-34469D03*
X33996Y-35137D03*
X33996Y-34469D03*
X32992Y-35137D03*
X32992Y-34469D03*
X32007Y-35137D03*
X32007Y-34469D03*
X38996Y-35137D03*
X38996Y-34469D03*
G54D14*
X33500Y-34925D03*
X33500Y-32325D03*
X38500Y-34900D03*
X38500Y-32350D03*
X39550Y-34900D03*
X39550Y-32325D03*
X32500Y-34925D03*
X32500Y-32350D03*
X36500Y-34900D03*
X36500Y-32325D03*
X34475Y-34925D03*
X34475Y-32325D03*
X35525Y-34900D03*
X35525Y-32325D03*
X37525Y-34900D03*
X37525Y-32325D03*
G54D15*
X32992Y-34469D02*
X33500Y-34469D01*
X33475Y-34475D02*
X33500Y-34475D01*
X33494Y-34475D02*
X33475Y-34475D01*
X33500Y-34469D02*
X33494Y-34475D01*
X33500Y-32325D02*
X33500Y-34475D01*
X33500Y-34475D02*
X33500Y-34925D01*
X37992Y-34469D02*
X38500Y-34469D01*
X38475Y-34475D02*
X38500Y-34475D01*
X38494Y-34475D02*
X38475Y-34475D01*
X38500Y-34469D02*
X38494Y-34475D01*
X38500Y-32350D02*
X38500Y-34475D01*
X38500Y-34475D02*
X38500Y-34900D01*
X38996Y-34469D02*
X39550Y-34469D01*
X39525Y-34450D02*
X39550Y-34450D01*
X39530Y-34450D02*
X39525Y-34450D01*
X39550Y-34469D02*
X39530Y-34450D01*
X39550Y-32325D02*
X39550Y-34450D01*
X39550Y-34450D02*
X39550Y-34900D01*
X32007Y-34469D02*
X32480Y-34469D01*
X32480Y-34469D02*
X32500Y-34450D01*
X32500Y-32350D02*
X32500Y-34450D01*
X32500Y-34450D02*
X32500Y-34925D01*
X36003Y-34469D02*
X36500Y-34469D01*
X36475Y-34450D02*
X36500Y-34450D01*
X36480Y-34450D02*
X36475Y-34450D01*
X36500Y-34469D02*
X36480Y-34450D01*
X36500Y-32325D02*
X36500Y-34450D01*
X36500Y-34450D02*
X36500Y-34900D01*
X33996Y-34469D02*
X34475Y-34469D01*
X34450Y-34450D02*
X34475Y-34450D01*
X34455Y-34450D02*
X34450Y-34450D01*
X34475Y-34469D02*
X34455Y-34450D01*
X34475Y-32325D02*
X34475Y-34450D01*
X34475Y-34450D02*
X34475Y-34925D01*
X35000Y-34469D02*
X35525Y-34469D01*
X35525Y-34469D02*
X35525Y-34475D01*
X35525Y-32325D02*
X35525Y-34475D01*
X35525Y-34475D02*
X35525Y-34900D01*
X37007Y-34469D02*
X37525Y-34469D01*
X37475Y-34475D02*
X37525Y-34475D01*
X37519Y-34475D02*
X37475Y-34475D01*
X37525Y-34469D02*
X37519Y-34475D01*
X37525Y-32325D02*
X37525Y-34475D01*
X37525Y-34475D02*
X37525Y-34900D01*
X38996Y-35137D02*
X38996Y-35996D01*
X38996Y-35996D02*
X39000Y-36000D01*
X37992Y-35137D02*
X37992Y-35992D01*
X37992Y-35992D02*
X38000Y-36000D01*
X37007Y-35137D02*
X37007Y-35992D01*
X37007Y-35992D02*
X37000Y-36000D01*
X36003Y-35137D02*
X36003Y-35996D01*
X36003Y-35996D02*
X36000Y-36000D01*
X32000Y-36000D02*
X32000Y-35145D01*
X32000Y-35145D02*
X32007Y-35137D01*
X32992Y-35137D02*
X32992Y-35992D01*
X32992Y-35992D02*
X33000Y-36000D01*
X33996Y-35137D02*
X33996Y-35996D01*
X33996Y-35996D02*
X34000Y-36000D01*
X35000Y-35137D02*
X35000Y-36000D01*
G54D10*
G36*
X40471Y-36495D02*
X40413Y-36495D01*
X40413Y-36262D01*
X40413Y-35737D01*
X40413Y-35710D01*
X40407Y-35683D01*
X40397Y-35658D01*
X40382Y-35636D01*
X40362Y-35617D01*
X40340Y-35602D01*
X40315Y-35591D01*
X40288Y-35586D01*
X40093Y-35586D01*
X40058Y-35621D01*
X40058Y-35941D01*
X40378Y-35941D01*
X40413Y-35906D01*
X40413Y-35737D01*
X40413Y-36262D01*
X40413Y-36093D01*
X40378Y-36058D01*
X40058Y-36058D01*
X40058Y-36378D01*
X40093Y-36413D01*
X40288Y-36413D01*
X40315Y-36408D01*
X40340Y-36397D01*
X40362Y-36382D01*
X40382Y-36363D01*
X40397Y-36341D01*
X40407Y-36316D01*
X40413Y-36289D01*
X40413Y-36262D01*
X40413Y-36495D01*
X39941Y-36495D01*
X39941Y-36378D01*
X39941Y-36058D01*
X39941Y-35941D01*
X39941Y-35621D01*
X39906Y-35586D01*
X39815Y-35586D01*
X39815Y-34874D01*
X39804Y-34823D01*
X39790Y-34786D01*
X39790Y-34450D01*
X39790Y-32437D01*
X39802Y-32409D01*
X39814Y-32358D01*
X39815Y-32299D01*
X39804Y-32248D01*
X39785Y-32199D01*
X39756Y-32156D01*
X39719Y-32119D01*
X39676Y-32090D01*
X39628Y-32070D01*
X39577Y-32060D01*
X39525Y-32059D01*
X39474Y-32069D01*
X39426Y-32089D01*
X39383Y-32117D01*
X39346Y-32153D01*
X39316Y-32196D01*
X39296Y-32244D01*
X39285Y-32295D01*
X39284Y-32347D01*
X39294Y-32398D01*
X39310Y-32438D01*
X39310Y-34172D01*
X39302Y-34164D01*
X39279Y-34148D01*
X39254Y-34138D01*
X39227Y-34132D01*
X39199Y-34132D01*
X38765Y-34132D01*
X38740Y-34137D01*
X38740Y-32462D01*
X38752Y-32434D01*
X38764Y-32383D01*
X38765Y-32324D01*
X38754Y-32273D01*
X38735Y-32224D01*
X38706Y-32181D01*
X38669Y-32144D01*
X38626Y-32115D01*
X38578Y-32095D01*
X38527Y-32085D01*
X38475Y-32084D01*
X38424Y-32094D01*
X38376Y-32114D01*
X38333Y-32142D01*
X38296Y-32178D01*
X38266Y-32221D01*
X38246Y-32269D01*
X38235Y-32320D01*
X38234Y-32372D01*
X38244Y-32423D01*
X38260Y-32463D01*
X38260Y-34142D01*
X38250Y-34138D01*
X38223Y-34132D01*
X38195Y-34132D01*
X37765Y-34132D01*
X37765Y-32437D01*
X37777Y-32409D01*
X37789Y-32358D01*
X37790Y-32299D01*
X37779Y-32248D01*
X37760Y-32199D01*
X37731Y-32156D01*
X37694Y-32119D01*
X37651Y-32090D01*
X37603Y-32070D01*
X37552Y-32060D01*
X37500Y-32059D01*
X37449Y-32069D01*
X37401Y-32089D01*
X37358Y-32117D01*
X37321Y-32153D01*
X37291Y-32196D01*
X37271Y-32244D01*
X37260Y-32295D01*
X37259Y-32347D01*
X37269Y-32398D01*
X37285Y-32438D01*
X37285Y-34146D01*
X37265Y-34138D01*
X37239Y-34132D01*
X37211Y-34132D01*
X36777Y-34132D01*
X36750Y-34137D01*
X36740Y-34142D01*
X36740Y-32437D01*
X36752Y-32409D01*
X36764Y-32358D01*
X36765Y-32299D01*
X36754Y-32248D01*
X36735Y-32199D01*
X36706Y-32156D01*
X36669Y-32119D01*
X36626Y-32090D01*
X36578Y-32070D01*
X36527Y-32060D01*
X36475Y-32059D01*
X36424Y-32069D01*
X36376Y-32089D01*
X36333Y-32117D01*
X36296Y-32153D01*
X36266Y-32196D01*
X36246Y-32244D01*
X36235Y-32295D01*
X36234Y-32347D01*
X36244Y-32398D01*
X36260Y-32438D01*
X36260Y-34137D01*
X36235Y-34132D01*
X36207Y-34132D01*
X35773Y-34132D01*
X35765Y-34134D01*
X35765Y-32437D01*
X35777Y-32409D01*
X35789Y-32358D01*
X35790Y-32299D01*
X35779Y-32248D01*
X35760Y-32199D01*
X35731Y-32156D01*
X35694Y-32119D01*
X35651Y-32090D01*
X35603Y-32070D01*
X35552Y-32060D01*
X35500Y-32059D01*
X35449Y-32069D01*
X35401Y-32089D01*
X35358Y-32117D01*
X35321Y-32153D01*
X35291Y-32196D01*
X35271Y-32244D01*
X35260Y-32295D01*
X35259Y-32347D01*
X35269Y-32398D01*
X35285Y-32438D01*
X35285Y-34149D01*
X35283Y-34148D01*
X35258Y-34138D01*
X35231Y-34132D01*
X35203Y-34132D01*
X34769Y-34132D01*
X34742Y-34137D01*
X34717Y-34148D01*
X34715Y-34150D01*
X34715Y-32437D01*
X34727Y-32409D01*
X34739Y-32358D01*
X34740Y-32299D01*
X34729Y-32248D01*
X34710Y-32199D01*
X34681Y-32156D01*
X34644Y-32119D01*
X34601Y-32090D01*
X34553Y-32070D01*
X34502Y-32060D01*
X34450Y-32059D01*
X34399Y-32069D01*
X34351Y-32089D01*
X34308Y-32117D01*
X34271Y-32153D01*
X34241Y-32196D01*
X34221Y-32244D01*
X34210Y-32295D01*
X34209Y-32347D01*
X34219Y-32398D01*
X34235Y-32438D01*
X34235Y-34134D01*
X34227Y-34132D01*
X34199Y-34132D01*
X33765Y-34132D01*
X33740Y-34137D01*
X33740Y-32437D01*
X33752Y-32409D01*
X33764Y-32358D01*
X33765Y-32299D01*
X33754Y-32248D01*
X33735Y-32199D01*
X33706Y-32156D01*
X33669Y-32119D01*
X33626Y-32090D01*
X33578Y-32070D01*
X33527Y-32060D01*
X33475Y-32059D01*
X33424Y-32069D01*
X33376Y-32089D01*
X33333Y-32117D01*
X33296Y-32153D01*
X33266Y-32196D01*
X33246Y-32244D01*
X33235Y-32295D01*
X33234Y-32347D01*
X33244Y-32398D01*
X33260Y-32438D01*
X33260Y-34142D01*
X33250Y-34138D01*
X33223Y-34132D01*
X33195Y-34132D01*
X32761Y-34132D01*
X32740Y-34136D01*
X32740Y-32462D01*
X32752Y-32434D01*
X32764Y-32383D01*
X32765Y-32324D01*
X32754Y-32273D01*
X32735Y-32224D01*
X32706Y-32181D01*
X32669Y-32144D01*
X32626Y-32115D01*
X32578Y-32095D01*
X32527Y-32085D01*
X32475Y-32084D01*
X32424Y-32094D01*
X32376Y-32114D01*
X32333Y-32142D01*
X32296Y-32178D01*
X32266Y-32221D01*
X32246Y-32269D01*
X32235Y-32320D01*
X32234Y-32372D01*
X32244Y-32423D01*
X32260Y-32463D01*
X32260Y-34137D01*
X32239Y-34132D01*
X32211Y-34132D01*
X31777Y-34132D01*
X31750Y-34137D01*
X31725Y-34148D01*
X31702Y-34163D01*
X31682Y-34182D01*
X31667Y-34205D01*
X31656Y-34231D01*
X31651Y-34257D01*
X31651Y-34285D01*
X31651Y-34679D01*
X31656Y-34706D01*
X31667Y-34731D01*
X31682Y-34754D01*
X31701Y-34774D01*
X31724Y-34789D01*
X31749Y-34800D01*
X31764Y-34803D01*
X31750Y-34805D01*
X31725Y-34816D01*
X31702Y-34831D01*
X31682Y-34850D01*
X31667Y-34873D01*
X31656Y-34899D01*
X31651Y-34925D01*
X31651Y-34953D01*
X31651Y-35347D01*
X31656Y-35374D01*
X31667Y-35399D01*
X31682Y-35422D01*
X31701Y-35442D01*
X31724Y-35457D01*
X31749Y-35468D01*
X31760Y-35470D01*
X31760Y-35661D01*
X31738Y-35675D01*
X31680Y-35731D01*
X31634Y-35799D01*
X31602Y-35873D01*
X31585Y-35953D01*
X31584Y-36034D01*
X31599Y-36114D01*
X31629Y-36190D01*
X31673Y-36259D01*
X31729Y-36317D01*
X31796Y-36364D01*
X31871Y-36396D01*
X31950Y-36414D01*
X32031Y-36415D01*
X32112Y-36401D01*
X32188Y-36372D01*
X32256Y-36328D01*
X32315Y-36272D01*
X32362Y-36205D01*
X32395Y-36131D01*
X32413Y-36052D01*
X32415Y-35959D01*
X32399Y-35879D01*
X32368Y-35804D01*
X32323Y-35736D01*
X32265Y-35678D01*
X32240Y-35661D01*
X32240Y-35473D01*
X32265Y-35468D01*
X32290Y-35457D01*
X32313Y-35442D01*
X32332Y-35423D01*
X32348Y-35400D01*
X32358Y-35375D01*
X32364Y-35348D01*
X32364Y-35320D01*
X32364Y-35153D01*
X32370Y-35157D01*
X32417Y-35178D01*
X32468Y-35189D01*
X32520Y-35190D01*
X32571Y-35181D01*
X32620Y-35162D01*
X32635Y-35152D01*
X32635Y-35347D01*
X32640Y-35374D01*
X32651Y-35399D01*
X32666Y-35422D01*
X32685Y-35442D01*
X32708Y-35457D01*
X32734Y-35468D01*
X32752Y-35471D01*
X32752Y-35666D01*
X32738Y-35675D01*
X32680Y-35731D01*
X32634Y-35799D01*
X32602Y-35873D01*
X32585Y-35953D01*
X32584Y-36034D01*
X32599Y-36114D01*
X32629Y-36190D01*
X32673Y-36259D01*
X32729Y-36317D01*
X32796Y-36364D01*
X32871Y-36396D01*
X32950Y-36414D01*
X33031Y-36415D01*
X33112Y-36401D01*
X33188Y-36372D01*
X33256Y-36328D01*
X33315Y-36272D01*
X33362Y-36205D01*
X33395Y-36131D01*
X33413Y-36052D01*
X33415Y-35959D01*
X33399Y-35879D01*
X33368Y-35804D01*
X33323Y-35736D01*
X33265Y-35678D01*
X33232Y-35655D01*
X33232Y-35471D01*
X33249Y-35468D01*
X33274Y-35457D01*
X33297Y-35442D01*
X33317Y-35423D01*
X33332Y-35400D01*
X33343Y-35375D01*
X33348Y-35348D01*
X33348Y-35320D01*
X33348Y-35142D01*
X33370Y-35157D01*
X33417Y-35178D01*
X33468Y-35189D01*
X33520Y-35190D01*
X33571Y-35181D01*
X33620Y-35162D01*
X33639Y-35150D01*
X33639Y-35347D01*
X33644Y-35374D01*
X33655Y-35399D01*
X33670Y-35422D01*
X33689Y-35442D01*
X33712Y-35457D01*
X33737Y-35468D01*
X33756Y-35471D01*
X33756Y-35663D01*
X33738Y-35675D01*
X33680Y-35731D01*
X33634Y-35799D01*
X33602Y-35873D01*
X33585Y-35953D01*
X33584Y-36034D01*
X33599Y-36114D01*
X33629Y-36190D01*
X33673Y-36259D01*
X33729Y-36317D01*
X33796Y-36364D01*
X33871Y-36396D01*
X33950Y-36414D01*
X34031Y-36415D01*
X34112Y-36401D01*
X34188Y-36372D01*
X34256Y-36328D01*
X34315Y-36272D01*
X34362Y-36205D01*
X34395Y-36131D01*
X34413Y-36052D01*
X34415Y-35959D01*
X34399Y-35879D01*
X34368Y-35804D01*
X34323Y-35736D01*
X34265Y-35678D01*
X34236Y-35658D01*
X34236Y-35471D01*
X34253Y-35468D01*
X34278Y-35457D01*
X34301Y-35442D01*
X34320Y-35423D01*
X34336Y-35400D01*
X34346Y-35375D01*
X34352Y-35348D01*
X34352Y-35320D01*
X34352Y-35160D01*
X34392Y-35178D01*
X34443Y-35189D01*
X34495Y-35190D01*
X34546Y-35181D01*
X34595Y-35162D01*
X34638Y-35134D01*
X34643Y-35130D01*
X34643Y-35347D01*
X34648Y-35374D01*
X34659Y-35399D01*
X34674Y-35422D01*
X34693Y-35442D01*
X34716Y-35457D01*
X34741Y-35468D01*
X34760Y-35471D01*
X34760Y-35661D01*
X34738Y-35675D01*
X34680Y-35731D01*
X34634Y-35799D01*
X34602Y-35873D01*
X34585Y-35953D01*
X34584Y-36034D01*
X34599Y-36114D01*
X34629Y-36190D01*
X34673Y-36259D01*
X34729Y-36317D01*
X34796Y-36364D01*
X34871Y-36396D01*
X34950Y-36414D01*
X35031Y-36415D01*
X35112Y-36401D01*
X35188Y-36372D01*
X35256Y-36328D01*
X35315Y-36272D01*
X35362Y-36205D01*
X35395Y-36131D01*
X35413Y-36052D01*
X35415Y-35959D01*
X35399Y-35879D01*
X35368Y-35804D01*
X35323Y-35736D01*
X35265Y-35678D01*
X35240Y-35661D01*
X35240Y-35471D01*
X35257Y-35468D01*
X35282Y-35457D01*
X35305Y-35442D01*
X35324Y-35423D01*
X35340Y-35400D01*
X35350Y-35375D01*
X35356Y-35348D01*
X35356Y-35320D01*
X35356Y-35105D01*
X35395Y-35132D01*
X35442Y-35153D01*
X35493Y-35164D01*
X35545Y-35165D01*
X35596Y-35156D01*
X35645Y-35137D01*
X35647Y-35136D01*
X35647Y-35347D01*
X35652Y-35374D01*
X35663Y-35399D01*
X35678Y-35422D01*
X35697Y-35442D01*
X35720Y-35457D01*
X35745Y-35468D01*
X35763Y-35471D01*
X35763Y-35658D01*
X35738Y-35675D01*
X35680Y-35731D01*
X35634Y-35799D01*
X35602Y-35873D01*
X35585Y-35953D01*
X35584Y-36034D01*
X35599Y-36114D01*
X35629Y-36190D01*
X35673Y-36259D01*
X35729Y-36317D01*
X35796Y-36364D01*
X35871Y-36396D01*
X35950Y-36414D01*
X36031Y-36415D01*
X36112Y-36401D01*
X36188Y-36372D01*
X36256Y-36328D01*
X36315Y-36272D01*
X36362Y-36205D01*
X36395Y-36131D01*
X36413Y-36052D01*
X36415Y-35959D01*
X36399Y-35879D01*
X36368Y-35804D01*
X36323Y-35736D01*
X36265Y-35678D01*
X36243Y-35663D01*
X36243Y-35471D01*
X36261Y-35468D01*
X36286Y-35457D01*
X36309Y-35442D01*
X36328Y-35423D01*
X36344Y-35400D01*
X36354Y-35375D01*
X36360Y-35348D01*
X36360Y-35320D01*
X36360Y-35125D01*
X36370Y-35132D01*
X36417Y-35153D01*
X36468Y-35164D01*
X36520Y-35165D01*
X36571Y-35156D01*
X36620Y-35137D01*
X36651Y-35117D01*
X36651Y-35347D01*
X36656Y-35374D01*
X36667Y-35399D01*
X36682Y-35422D01*
X36701Y-35442D01*
X36724Y-35457D01*
X36749Y-35468D01*
X36767Y-35471D01*
X36767Y-35655D01*
X36738Y-35675D01*
X36680Y-35731D01*
X36634Y-35799D01*
X36602Y-35873D01*
X36585Y-35953D01*
X36584Y-36034D01*
X36599Y-36114D01*
X36629Y-36190D01*
X36673Y-36259D01*
X36729Y-36317D01*
X36796Y-36364D01*
X36871Y-36396D01*
X36950Y-36414D01*
X37031Y-36415D01*
X37112Y-36401D01*
X37188Y-36372D01*
X37256Y-36328D01*
X37315Y-36272D01*
X37362Y-36205D01*
X37395Y-36131D01*
X37413Y-36052D01*
X37415Y-35959D01*
X37399Y-35879D01*
X37368Y-35804D01*
X37323Y-35736D01*
X37265Y-35678D01*
X37247Y-35666D01*
X37247Y-35471D01*
X37265Y-35468D01*
X37290Y-35457D01*
X37313Y-35442D01*
X37332Y-35423D01*
X37348Y-35400D01*
X37358Y-35375D01*
X37364Y-35348D01*
X37364Y-35320D01*
X37364Y-35111D01*
X37395Y-35132D01*
X37442Y-35153D01*
X37493Y-35164D01*
X37545Y-35165D01*
X37596Y-35156D01*
X37635Y-35141D01*
X37635Y-35347D01*
X37640Y-35374D01*
X37651Y-35399D01*
X37666Y-35422D01*
X37685Y-35442D01*
X37708Y-35457D01*
X37734Y-35468D01*
X37752Y-35471D01*
X37752Y-35666D01*
X37738Y-35675D01*
X37680Y-35731D01*
X37634Y-35799D01*
X37602Y-35873D01*
X37585Y-35953D01*
X37584Y-36034D01*
X37599Y-36114D01*
X37629Y-36190D01*
X37673Y-36259D01*
X37729Y-36317D01*
X37796Y-36364D01*
X37871Y-36396D01*
X37950Y-36414D01*
X38031Y-36415D01*
X38112Y-36401D01*
X38188Y-36372D01*
X38256Y-36328D01*
X38315Y-36272D01*
X38362Y-36205D01*
X38395Y-36131D01*
X38413Y-36052D01*
X38415Y-35959D01*
X38399Y-35879D01*
X38368Y-35804D01*
X38323Y-35736D01*
X38265Y-35678D01*
X38232Y-35655D01*
X38232Y-35471D01*
X38249Y-35468D01*
X38274Y-35457D01*
X38297Y-35442D01*
X38317Y-35423D01*
X38332Y-35400D01*
X38343Y-35375D01*
X38348Y-35348D01*
X38348Y-35320D01*
X38348Y-35117D01*
X38370Y-35132D01*
X38417Y-35153D01*
X38468Y-35164D01*
X38520Y-35165D01*
X38571Y-35156D01*
X38620Y-35137D01*
X38639Y-35125D01*
X38639Y-35347D01*
X38644Y-35374D01*
X38655Y-35399D01*
X38670Y-35422D01*
X38689Y-35442D01*
X38712Y-35457D01*
X38737Y-35468D01*
X38756Y-35471D01*
X38756Y-35663D01*
X38738Y-35675D01*
X38680Y-35731D01*
X38634Y-35799D01*
X38602Y-35873D01*
X38585Y-35953D01*
X38584Y-36034D01*
X38599Y-36114D01*
X38629Y-36190D01*
X38673Y-36259D01*
X38729Y-36317D01*
X38796Y-36364D01*
X38871Y-36396D01*
X38950Y-36414D01*
X39031Y-36415D01*
X39112Y-36401D01*
X39188Y-36372D01*
X39256Y-36328D01*
X39315Y-36272D01*
X39362Y-36205D01*
X39395Y-36131D01*
X39413Y-36052D01*
X39415Y-35959D01*
X39399Y-35879D01*
X39368Y-35804D01*
X39323Y-35736D01*
X39265Y-35678D01*
X39236Y-35658D01*
X39236Y-35471D01*
X39253Y-35468D01*
X39278Y-35457D01*
X39301Y-35442D01*
X39320Y-35423D01*
X39336Y-35400D01*
X39346Y-35375D01*
X39352Y-35348D01*
X39352Y-35320D01*
X39352Y-35077D01*
X39377Y-35102D01*
X39420Y-35132D01*
X39467Y-35153D01*
X39518Y-35164D01*
X39570Y-35165D01*
X39621Y-35156D01*
X39670Y-35137D01*
X39713Y-35109D01*
X39751Y-35073D01*
X39781Y-35031D01*
X39802Y-34984D01*
X39814Y-34933D01*
X39815Y-34874D01*
X39815Y-35586D01*
X39711Y-35586D01*
X39684Y-35591D01*
X39659Y-35602D01*
X39637Y-35617D01*
X39617Y-35636D01*
X39602Y-35658D01*
X39592Y-35683D01*
X39586Y-35710D01*
X39586Y-35737D01*
X39586Y-35906D01*
X39621Y-35941D01*
X39941Y-35941D01*
X39941Y-36058D01*
X39621Y-36058D01*
X39586Y-36093D01*
X39586Y-36262D01*
X39586Y-36289D01*
X39592Y-36316D01*
X39602Y-36341D01*
X39617Y-36363D01*
X39637Y-36382D01*
X39659Y-36397D01*
X39684Y-36408D01*
X39711Y-36413D01*
X39906Y-36413D01*
X39941Y-36378D01*
X39941Y-36495D01*
X31496Y-36495D01*
X31496Y-31949D01*
X40471Y-31949D01*
X40471Y-36495D01*
X40471Y-36495D01*
G37*
G54D16*
X40471Y-36495D02*
X40413Y-36495D01*
X40413Y-36262D01*
X40413Y-35737D01*
X40413Y-35710D01*
X40407Y-35683D01*
X40397Y-35658D01*
X40382Y-35636D01*
X40362Y-35617D01*
X40340Y-35602D01*
X40315Y-35591D01*
X40288Y-35586D01*
X40093Y-35586D01*
X40058Y-35621D01*
X40058Y-35941D01*
X40378Y-35941D01*
X40413Y-35906D01*
X40413Y-35737D01*
X40413Y-36262D01*
X40413Y-36093D01*
X40378Y-36058D01*
X40058Y-36058D01*
X40058Y-36378D01*
X40093Y-36413D01*
X40288Y-36413D01*
X40315Y-36408D01*
X40340Y-36397D01*
X40362Y-36382D01*
X40382Y-36363D01*
X40397Y-36341D01*
X40407Y-36316D01*
X40413Y-36289D01*
X40413Y-36262D01*
X40413Y-36495D01*
X39941Y-36495D01*
X39941Y-36378D01*
X39941Y-36058D01*
X39941Y-35941D01*
X39941Y-35621D01*
X39906Y-35586D01*
X39815Y-35586D01*
X39815Y-34874D01*
X39804Y-34823D01*
X39790Y-34786D01*
X39790Y-34450D01*
X39790Y-32437D01*
X39802Y-32409D01*
X39814Y-32358D01*
X39815Y-32299D01*
X39804Y-32248D01*
X39785Y-32199D01*
X39756Y-32156D01*
X39719Y-32119D01*
X39676Y-32090D01*
X39628Y-32070D01*
X39577Y-32060D01*
X39525Y-32059D01*
X39474Y-32069D01*
X39426Y-32089D01*
X39383Y-32117D01*
X39346Y-32153D01*
X39316Y-32196D01*
X39296Y-32244D01*
X39285Y-32295D01*
X39284Y-32347D01*
X39294Y-32398D01*
X39310Y-32438D01*
X39310Y-34172D01*
X39302Y-34164D01*
X39279Y-34148D01*
X39254Y-34138D01*
X39227Y-34132D01*
X39199Y-34132D01*
X38765Y-34132D01*
X38740Y-34137D01*
X38740Y-32462D01*
X38752Y-32434D01*
X38764Y-32383D01*
X38765Y-32324D01*
X38754Y-32273D01*
X38735Y-32224D01*
X38706Y-32181D01*
X38669Y-32144D01*
X38626Y-32115D01*
X38578Y-32095D01*
X38527Y-32085D01*
X38475Y-32084D01*
X38424Y-32094D01*
X38376Y-32114D01*
X38333Y-32142D01*
X38296Y-32178D01*
X38266Y-32221D01*
X38246Y-32269D01*
X38235Y-32320D01*
X38234Y-32372D01*
X38244Y-32423D01*
X38260Y-32463D01*
X38260Y-34142D01*
X38250Y-34138D01*
X38223Y-34132D01*
X38195Y-34132D01*
X37765Y-34132D01*
X37765Y-32437D01*
X37777Y-32409D01*
X37789Y-32358D01*
X37790Y-32299D01*
X37779Y-32248D01*
X37760Y-32199D01*
X37731Y-32156D01*
X37694Y-32119D01*
X37651Y-32090D01*
X37603Y-32070D01*
X37552Y-32060D01*
X37500Y-32059D01*
X37449Y-32069D01*
X37401Y-32089D01*
X37358Y-32117D01*
X37321Y-32153D01*
X37291Y-32196D01*
X37271Y-32244D01*
X37260Y-32295D01*
X37259Y-32347D01*
X37269Y-32398D01*
X37285Y-32438D01*
X37285Y-34146D01*
X37265Y-34138D01*
X37239Y-34132D01*
X37211Y-34132D01*
X36777Y-34132D01*
X36750Y-34137D01*
X36740Y-34142D01*
X36740Y-32437D01*
X36752Y-32409D01*
X36764Y-32358D01*
X36765Y-32299D01*
X36754Y-32248D01*
X36735Y-32199D01*
X36706Y-32156D01*
X36669Y-32119D01*
X36626Y-32090D01*
X36578Y-32070D01*
X36527Y-32060D01*
X36475Y-32059D01*
X36424Y-32069D01*
X36376Y-32089D01*
X36333Y-32117D01*
X36296Y-32153D01*
X36266Y-32196D01*
X36246Y-32244D01*
X36235Y-32295D01*
X36234Y-32347D01*
X36244Y-32398D01*
X36260Y-32438D01*
X36260Y-34137D01*
X36235Y-34132D01*
X36207Y-34132D01*
X35773Y-34132D01*
X35765Y-34134D01*
X35765Y-32437D01*
X35777Y-32409D01*
X35789Y-32358D01*
X35790Y-32299D01*
X35779Y-32248D01*
X35760Y-32199D01*
X35731Y-32156D01*
X35694Y-32119D01*
X35651Y-32090D01*
X35603Y-32070D01*
X35552Y-32060D01*
X35500Y-32059D01*
X35449Y-32069D01*
X35401Y-32089D01*
X35358Y-32117D01*
X35321Y-32153D01*
X35291Y-32196D01*
X35271Y-32244D01*
X35260Y-32295D01*
X35259Y-32347D01*
X35269Y-32398D01*
X35285Y-32438D01*
X35285Y-34149D01*
X35283Y-34148D01*
X35258Y-34138D01*
X35231Y-34132D01*
X35203Y-34132D01*
X34769Y-34132D01*
X34742Y-34137D01*
X34717Y-34148D01*
X34715Y-34150D01*
X34715Y-32437D01*
X34727Y-32409D01*
X34739Y-32358D01*
X34740Y-32299D01*
X34729Y-32248D01*
X34710Y-32199D01*
X34681Y-32156D01*
X34644Y-32119D01*
X34601Y-32090D01*
X34553Y-32070D01*
X34502Y-32060D01*
X34450Y-32059D01*
X34399Y-32069D01*
X34351Y-32089D01*
X34308Y-32117D01*
X34271Y-32153D01*
X34241Y-32196D01*
X34221Y-32244D01*
X34210Y-32295D01*
X34209Y-32347D01*
X34219Y-32398D01*
X34235Y-32438D01*
X34235Y-34134D01*
X34227Y-34132D01*
X34199Y-34132D01*
X33765Y-34132D01*
X33740Y-34137D01*
X33740Y-32437D01*
X33752Y-32409D01*
X33764Y-32358D01*
X33765Y-32299D01*
X33754Y-32248D01*
X33735Y-32199D01*
X33706Y-32156D01*
X33669Y-32119D01*
X33626Y-32090D01*
X33578Y-32070D01*
X33527Y-32060D01*
X33475Y-32059D01*
X33424Y-32069D01*
X33376Y-32089D01*
X33333Y-32117D01*
X33296Y-32153D01*
X33266Y-32196D01*
X33246Y-32244D01*
X33235Y-32295D01*
X33234Y-32347D01*
X33244Y-32398D01*
X33260Y-32438D01*
X33260Y-34142D01*
X33250Y-34138D01*
X33223Y-34132D01*
X33195Y-34132D01*
X32761Y-34132D01*
X32740Y-34136D01*
X32740Y-32462D01*
X32752Y-32434D01*
X32764Y-32383D01*
X32765Y-32324D01*
X32754Y-32273D01*
X32735Y-32224D01*
X32706Y-32181D01*
X32669Y-32144D01*
X32626Y-32115D01*
X32578Y-32095D01*
X32527Y-32085D01*
X32475Y-32084D01*
X32424Y-32094D01*
X32376Y-32114D01*
X32333Y-32142D01*
X32296Y-32178D01*
X32266Y-32221D01*
X32246Y-32269D01*
X32235Y-32320D01*
X32234Y-32372D01*
X32244Y-32423D01*
X32260Y-32463D01*
X32260Y-34137D01*
X32239Y-34132D01*
X32211Y-34132D01*
X31777Y-34132D01*
X31750Y-34137D01*
X31725Y-34148D01*
X31702Y-34163D01*
X31682Y-34182D01*
X31667Y-34205D01*
X31656Y-34231D01*
X31651Y-34257D01*
X31651Y-34285D01*
X31651Y-34679D01*
X31656Y-34706D01*
X31667Y-34731D01*
X31682Y-34754D01*
X31701Y-34774D01*
X31724Y-34789D01*
X31749Y-34800D01*
X31764Y-34803D01*
X31750Y-34805D01*
X31725Y-34816D01*
X31702Y-34831D01*
X31682Y-34850D01*
X31667Y-34873D01*
X31656Y-34899D01*
X31651Y-34925D01*
X31651Y-34953D01*
X31651Y-35347D01*
X31656Y-35374D01*
X31667Y-35399D01*
X31682Y-35422D01*
X31701Y-35442D01*
X31724Y-35457D01*
X31749Y-35468D01*
X31760Y-35470D01*
X31760Y-35661D01*
X31738Y-35675D01*
X31680Y-35731D01*
X31634Y-35799D01*
X31602Y-35873D01*
X31585Y-35953D01*
X31584Y-36034D01*
X31599Y-36114D01*
X31629Y-36190D01*
X31673Y-36259D01*
X31729Y-36317D01*
X31796Y-36364D01*
X31871Y-36396D01*
X31950Y-36414D01*
X32031Y-36415D01*
X32112Y-36401D01*
X32188Y-36372D01*
X32256Y-36328D01*
X32315Y-36272D01*
X32362Y-36205D01*
X32395Y-36131D01*
X32413Y-36052D01*
X32415Y-35959D01*
X32399Y-35879D01*
X32368Y-35804D01*
X32323Y-35736D01*
X32265Y-35678D01*
X32240Y-35661D01*
X32240Y-35473D01*
X32265Y-35468D01*
X32290Y-35457D01*
X32313Y-35442D01*
X32332Y-35423D01*
X32348Y-35400D01*
X32358Y-35375D01*
X32364Y-35348D01*
X32364Y-35320D01*
X32364Y-35153D01*
X32370Y-35157D01*
X32417Y-35178D01*
X32468Y-35189D01*
X32520Y-35190D01*
X32571Y-35181D01*
X32620Y-35162D01*
X32635Y-35152D01*
X32635Y-35347D01*
X32640Y-35374D01*
X32651Y-35399D01*
X32666Y-35422D01*
X32685Y-35442D01*
X32708Y-35457D01*
X32734Y-35468D01*
X32752Y-35471D01*
X32752Y-35666D01*
X32738Y-35675D01*
X32680Y-35731D01*
X32634Y-35799D01*
X32602Y-35873D01*
X32585Y-35953D01*
X32584Y-36034D01*
X32599Y-36114D01*
X32629Y-36190D01*
X32673Y-36259D01*
X32729Y-36317D01*
X32796Y-36364D01*
X32871Y-36396D01*
X32950Y-36414D01*
X33031Y-36415D01*
X33112Y-36401D01*
X33188Y-36372D01*
X33256Y-36328D01*
X33315Y-36272D01*
X33362Y-36205D01*
X33395Y-36131D01*
X33413Y-36052D01*
X33415Y-35959D01*
X33399Y-35879D01*
X33368Y-35804D01*
X33323Y-35736D01*
X33265Y-35678D01*
X33232Y-35655D01*
X33232Y-35471D01*
X33249Y-35468D01*
X33274Y-35457D01*
X33297Y-35442D01*
X33317Y-35423D01*
X33332Y-35400D01*
X33343Y-35375D01*
X33348Y-35348D01*
X33348Y-35320D01*
X33348Y-35142D01*
X33370Y-35157D01*
X33417Y-35178D01*
X33468Y-35189D01*
X33520Y-35190D01*
X33571Y-35181D01*
X33620Y-35162D01*
X33639Y-35150D01*
X33639Y-35347D01*
X33644Y-35374D01*
X33655Y-35399D01*
X33670Y-35422D01*
X33689Y-35442D01*
X33712Y-35457D01*
X33737Y-35468D01*
X33756Y-35471D01*
X33756Y-35663D01*
X33738Y-35675D01*
X33680Y-35731D01*
X33634Y-35799D01*
X33602Y-35873D01*
X33585Y-35953D01*
X33584Y-36034D01*
X33599Y-36114D01*
X33629Y-36190D01*
X33673Y-36259D01*
X33729Y-36317D01*
X33796Y-36364D01*
X33871Y-36396D01*
X33950Y-36414D01*
X34031Y-36415D01*
X34112Y-36401D01*
X34188Y-36372D01*
X34256Y-36328D01*
X34315Y-36272D01*
X34362Y-36205D01*
X34395Y-36131D01*
X34413Y-36052D01*
X34415Y-35959D01*
X34399Y-35879D01*
X34368Y-35804D01*
X34323Y-35736D01*
X34265Y-35678D01*
X34236Y-35658D01*
X34236Y-35471D01*
X34253Y-35468D01*
X34278Y-35457D01*
X34301Y-35442D01*
X34320Y-35423D01*
X34336Y-35400D01*
X34346Y-35375D01*
X34352Y-35348D01*
X34352Y-35320D01*
X34352Y-35160D01*
X34392Y-35178D01*
X34443Y-35189D01*
X34495Y-35190D01*
X34546Y-35181D01*
X34595Y-35162D01*
X34638Y-35134D01*
X34643Y-35130D01*
X34643Y-35347D01*
X34648Y-35374D01*
X34659Y-35399D01*
X34674Y-35422D01*
X34693Y-35442D01*
X34716Y-35457D01*
X34741Y-35468D01*
X34760Y-35471D01*
X34760Y-35661D01*
X34738Y-35675D01*
X34680Y-35731D01*
X34634Y-35799D01*
X34602Y-35873D01*
X34585Y-35953D01*
X34584Y-36034D01*
X34599Y-36114D01*
X34629Y-36190D01*
X34673Y-36259D01*
X34729Y-36317D01*
X34796Y-36364D01*
X34871Y-36396D01*
X34950Y-36414D01*
X35031Y-36415D01*
X35112Y-36401D01*
X35188Y-36372D01*
X35256Y-36328D01*
X35315Y-36272D01*
X35362Y-36205D01*
X35395Y-36131D01*
X35413Y-36052D01*
X35415Y-35959D01*
X35399Y-35879D01*
X35368Y-35804D01*
X35323Y-35736D01*
X35265Y-35678D01*
X35240Y-35661D01*
X35240Y-35471D01*
X35257Y-35468D01*
X35282Y-35457D01*
X35305Y-35442D01*
X35324Y-35423D01*
X35340Y-35400D01*
X35350Y-35375D01*
X35356Y-35348D01*
X35356Y-35320D01*
X35356Y-35105D01*
X35395Y-35132D01*
X35442Y-35153D01*
X35493Y-35164D01*
X35545Y-35165D01*
X35596Y-35156D01*
X35645Y-35137D01*
X35647Y-35136D01*
X35647Y-35347D01*
X35652Y-35374D01*
X35663Y-35399D01*
X35678Y-35422D01*
X35697Y-35442D01*
X35720Y-35457D01*
X35745Y-35468D01*
X35763Y-35471D01*
X35763Y-35658D01*
X35738Y-35675D01*
X35680Y-35731D01*
X35634Y-35799D01*
X35602Y-35873D01*
X35585Y-35953D01*
X35584Y-36034D01*
X35599Y-36114D01*
X35629Y-36190D01*
X35673Y-36259D01*
X35729Y-36317D01*
X35796Y-36364D01*
X35871Y-36396D01*
X35950Y-36414D01*
X36031Y-36415D01*
X36112Y-36401D01*
X36188Y-36372D01*
X36256Y-36328D01*
X36315Y-36272D01*
X36362Y-36205D01*
X36395Y-36131D01*
X36413Y-36052D01*
X36415Y-35959D01*
X36399Y-35879D01*
X36368Y-35804D01*
X36323Y-35736D01*
X36265Y-35678D01*
X36243Y-35663D01*
X36243Y-35471D01*
X36261Y-35468D01*
X36286Y-35457D01*
X36309Y-35442D01*
X36328Y-35423D01*
X36344Y-35400D01*
X36354Y-35375D01*
X36360Y-35348D01*
X36360Y-35320D01*
X36360Y-35125D01*
X36370Y-35132D01*
X36417Y-35153D01*
X36468Y-35164D01*
X36520Y-35165D01*
X36571Y-35156D01*
X36620Y-35137D01*
X36651Y-35117D01*
X36651Y-35347D01*
X36656Y-35374D01*
X36667Y-35399D01*
X36682Y-35422D01*
X36701Y-35442D01*
X36724Y-35457D01*
X36749Y-35468D01*
X36767Y-35471D01*
X36767Y-35655D01*
X36738Y-35675D01*
X36680Y-35731D01*
X36634Y-35799D01*
X36602Y-35873D01*
X36585Y-35953D01*
X36584Y-36034D01*
X36599Y-36114D01*
X36629Y-36190D01*
X36673Y-36259D01*
X36729Y-36317D01*
X36796Y-36364D01*
X36871Y-36396D01*
X36950Y-36414D01*
X37031Y-36415D01*
X37112Y-36401D01*
X37188Y-36372D01*
X37256Y-36328D01*
X37315Y-36272D01*
X37362Y-36205D01*
X37395Y-36131D01*
X37413Y-36052D01*
X37415Y-35959D01*
X37399Y-35879D01*
X37368Y-35804D01*
X37323Y-35736D01*
X37265Y-35678D01*
X37247Y-35666D01*
X37247Y-35471D01*
X37265Y-35468D01*
X37290Y-35457D01*
X37313Y-35442D01*
X37332Y-35423D01*
X37348Y-35400D01*
X37358Y-35375D01*
X37364Y-35348D01*
X37364Y-35320D01*
X37364Y-35111D01*
X37395Y-35132D01*
X37442Y-35153D01*
X37493Y-35164D01*
X37545Y-35165D01*
X37596Y-35156D01*
X37635Y-35141D01*
X37635Y-35347D01*
X37640Y-35374D01*
X37651Y-35399D01*
X37666Y-35422D01*
X37685Y-35442D01*
X37708Y-35457D01*
X37734Y-35468D01*
X37752Y-35471D01*
X37752Y-35666D01*
X37738Y-35675D01*
X37680Y-35731D01*
X37634Y-35799D01*
X37602Y-35873D01*
X37585Y-35953D01*
X37584Y-36034D01*
X37599Y-36114D01*
X37629Y-36190D01*
X37673Y-36259D01*
X37729Y-36317D01*
X37796Y-36364D01*
X37871Y-36396D01*
X37950Y-36414D01*
X38031Y-36415D01*
X38112Y-36401D01*
X38188Y-36372D01*
X38256Y-36328D01*
X38315Y-36272D01*
X38362Y-36205D01*
X38395Y-36131D01*
X38413Y-36052D01*
X38415Y-35959D01*
X38399Y-35879D01*
X38368Y-35804D01*
X38323Y-35736D01*
X38265Y-35678D01*
X38232Y-35655D01*
X38232Y-35471D01*
X38249Y-35468D01*
X38274Y-35457D01*
X38297Y-35442D01*
X38317Y-35423D01*
X38332Y-35400D01*
X38343Y-35375D01*
X38348Y-35348D01*
X38348Y-35320D01*
X38348Y-35117D01*
X38370Y-35132D01*
X38417Y-35153D01*
X38468Y-35164D01*
X38520Y-35165D01*
X38571Y-35156D01*
X38620Y-35137D01*
X38639Y-35125D01*
X38639Y-35347D01*
X38644Y-35374D01*
X38655Y-35399D01*
X38670Y-35422D01*
X38689Y-35442D01*
X38712Y-35457D01*
X38737Y-35468D01*
X38756Y-35471D01*
X38756Y-35663D01*
X38738Y-35675D01*
X38680Y-35731D01*
X38634Y-35799D01*
X38602Y-35873D01*
X38585Y-35953D01*
X38584Y-36034D01*
X38599Y-36114D01*
X38629Y-36190D01*
X38673Y-36259D01*
X38729Y-36317D01*
X38796Y-36364D01*
X38871Y-36396D01*
X38950Y-36414D01*
X39031Y-36415D01*
X39112Y-36401D01*
X39188Y-36372D01*
X39256Y-36328D01*
X39315Y-36272D01*
X39362Y-36205D01*
X39395Y-36131D01*
X39413Y-36052D01*
X39415Y-35959D01*
X39399Y-35879D01*
X39368Y-35804D01*
X39323Y-35736D01*
X39265Y-35678D01*
X39236Y-35658D01*
X39236Y-35471D01*
X39253Y-35468D01*
X39278Y-35457D01*
X39301Y-35442D01*
X39320Y-35423D01*
X39336Y-35400D01*
X39346Y-35375D01*
X39352Y-35348D01*
X39352Y-35320D01*
X39352Y-35077D01*
X39377Y-35102D01*
X39420Y-35132D01*
X39467Y-35153D01*
X39518Y-35164D01*
X39570Y-35165D01*
X39621Y-35156D01*
X39670Y-35137D01*
X39713Y-35109D01*
X39751Y-35073D01*
X39781Y-35031D01*
X39802Y-34984D01*
X39814Y-34933D01*
X39815Y-34874D01*
X39815Y-35586D01*
X39711Y-35586D01*
X39684Y-35591D01*
X39659Y-35602D01*
X39637Y-35617D01*
X39617Y-35636D01*
X39602Y-35658D01*
X39592Y-35683D01*
X39586Y-35710D01*
X39586Y-35737D01*
X39586Y-35906D01*
X39621Y-35941D01*
X39941Y-35941D01*
X39941Y-36058D01*
X39621Y-36058D01*
X39586Y-36093D01*
X39586Y-36262D01*
X39586Y-36289D01*
X39592Y-36316D01*
X39602Y-36341D01*
X39617Y-36363D01*
X39637Y-36382D01*
X39659Y-36397D01*
X39684Y-36408D01*
X39711Y-36413D01*
X39906Y-36413D01*
X39941Y-36378D01*
X39941Y-36495D01*
X31496Y-36495D01*
X31496Y-31949D01*
X40471Y-31949D01*
X40471Y-36495D01*
M02*
