G04 (created by PCBNEW (2013-06-11 BZR 4208)-testing) date Thu 13 Jun 2013 06:15:50 PM CEST*
%MOIN*%
G04 Gerber Fmt 3.4, Leading zero omitted, Abs format*
%FSLAX34Y34*%
G01*
G70*
G90*
G04 APERTURE LIST*
%ADD10C,0.005906*%
%ADD11C,0.006398*%
%ADD12C,0.007874*%
%ADD13C,0.000100*%
%ADD14R,0.064961X0.064961*%
%ADD15C,0.064961*%
%ADD16R,0.025591X0.039370*%
%ADD17R,0.019685X0.039370*%
G04 APERTURE END LIST*
G54D10*
G54D11*
X36439Y-34732D02*
X36439Y-34417D01*
X36334Y-34642D01*
X36229Y-34417D01*
X36229Y-34732D01*
X35944Y-34732D02*
X35944Y-34567D01*
X35959Y-34537D01*
X35989Y-34522D01*
X36049Y-34522D01*
X36079Y-34537D01*
X35944Y-34717D02*
X35974Y-34732D01*
X36049Y-34732D01*
X36079Y-34717D01*
X36094Y-34687D01*
X36094Y-34657D01*
X36079Y-34627D01*
X36049Y-34612D01*
X35974Y-34612D01*
X35944Y-34597D01*
X35794Y-34732D02*
X35794Y-34417D01*
X35764Y-34612D02*
X35674Y-34732D01*
X35674Y-34522D02*
X35794Y-34642D01*
X35420Y-34717D02*
X35450Y-34732D01*
X35509Y-34732D01*
X35539Y-34717D01*
X35554Y-34687D01*
X35554Y-34567D01*
X35539Y-34537D01*
X35509Y-34522D01*
X35450Y-34522D01*
X35420Y-34537D01*
X35405Y-34567D01*
X35405Y-34597D01*
X35554Y-34627D01*
X35030Y-34732D02*
X35030Y-34522D01*
X35030Y-34552D02*
X35015Y-34537D01*
X34985Y-34522D01*
X34940Y-34522D01*
X34910Y-34537D01*
X34895Y-34567D01*
X34895Y-34732D01*
X34895Y-34567D02*
X34880Y-34537D01*
X34850Y-34522D01*
X34805Y-34522D01*
X34775Y-34537D01*
X34760Y-34567D01*
X34760Y-34732D01*
X34640Y-34522D02*
X34565Y-34732D01*
X34490Y-34522D02*
X34565Y-34732D01*
X34595Y-34807D01*
X34610Y-34822D01*
X34640Y-34837D01*
X35674Y-35237D02*
X35674Y-34922D01*
X35674Y-35222D02*
X35704Y-35237D01*
X35764Y-35237D01*
X35794Y-35222D01*
X35809Y-35207D01*
X35824Y-35177D01*
X35824Y-35087D01*
X35809Y-35057D01*
X35794Y-35042D01*
X35764Y-35027D01*
X35704Y-35027D01*
X35674Y-35042D01*
X35390Y-35237D02*
X35390Y-35072D01*
X35405Y-35042D01*
X35435Y-35027D01*
X35494Y-35027D01*
X35524Y-35042D01*
X35390Y-35222D02*
X35420Y-35237D01*
X35494Y-35237D01*
X35524Y-35222D01*
X35539Y-35192D01*
X35539Y-35162D01*
X35524Y-35132D01*
X35494Y-35117D01*
X35420Y-35117D01*
X35390Y-35102D01*
X35270Y-35027D02*
X35195Y-35237D01*
X35120Y-35027D02*
X35195Y-35237D01*
X35225Y-35312D01*
X35240Y-35327D01*
X35270Y-35342D01*
G54D12*
X38940Y-33338D02*
X39118Y-33338D01*
X39118Y-32964D01*
X38816Y-33142D02*
X38691Y-33142D01*
X38637Y-33338D02*
X38816Y-33338D01*
X38816Y-32964D01*
X38637Y-32964D01*
X38477Y-33338D02*
X38477Y-32964D01*
X38388Y-32964D01*
X38335Y-32982D01*
X38299Y-33017D01*
X38281Y-33053D01*
X38263Y-33124D01*
X38263Y-33178D01*
X38281Y-33249D01*
X38299Y-33285D01*
X38335Y-33320D01*
X38388Y-33338D01*
X38477Y-33338D01*
X38192Y-33374D02*
X37907Y-33374D01*
X37818Y-33089D02*
X37818Y-33463D01*
X37818Y-33106D02*
X37783Y-33089D01*
X37711Y-33089D01*
X37676Y-33106D01*
X37658Y-33124D01*
X37640Y-33160D01*
X37640Y-33267D01*
X37658Y-33302D01*
X37676Y-33320D01*
X37711Y-33338D01*
X37783Y-33338D01*
X37818Y-33320D01*
X37426Y-33338D02*
X37462Y-33320D01*
X37480Y-33302D01*
X37498Y-33267D01*
X37498Y-33160D01*
X37480Y-33124D01*
X37462Y-33106D01*
X37426Y-33089D01*
X37373Y-33089D01*
X37337Y-33106D01*
X37320Y-33124D01*
X37302Y-33160D01*
X37302Y-33267D01*
X37320Y-33302D01*
X37337Y-33320D01*
X37373Y-33338D01*
X37426Y-33338D01*
X37141Y-33338D02*
X37141Y-33089D01*
X37141Y-33160D02*
X37124Y-33124D01*
X37106Y-33106D01*
X37070Y-33089D01*
X37035Y-33089D01*
X36963Y-33089D02*
X36821Y-33089D01*
X36910Y-32964D02*
X36910Y-33285D01*
X36892Y-33320D01*
X36856Y-33338D01*
X36821Y-33338D01*
X36696Y-33196D02*
X36411Y-33196D01*
X36251Y-33320D02*
X36215Y-33338D01*
X36144Y-33338D01*
X36108Y-33320D01*
X36091Y-33285D01*
X36091Y-33267D01*
X36108Y-33231D01*
X36144Y-33213D01*
X36197Y-33213D01*
X36233Y-33196D01*
X36251Y-33160D01*
X36251Y-33142D01*
X36233Y-33106D01*
X36197Y-33089D01*
X36144Y-33089D01*
X36108Y-33106D01*
X35984Y-33089D02*
X35841Y-33089D01*
X35930Y-32964D02*
X35930Y-33285D01*
X35913Y-33320D01*
X35877Y-33338D01*
X35841Y-33338D01*
X35556Y-33338D02*
X35556Y-33142D01*
X35574Y-33106D01*
X35610Y-33089D01*
X35681Y-33089D01*
X35717Y-33106D01*
X35556Y-33320D02*
X35592Y-33338D01*
X35681Y-33338D01*
X35717Y-33320D01*
X35734Y-33285D01*
X35734Y-33249D01*
X35717Y-33213D01*
X35681Y-33196D01*
X35592Y-33196D01*
X35556Y-33178D01*
X35432Y-33089D02*
X35289Y-33089D01*
X35378Y-32964D02*
X35378Y-33285D01*
X35360Y-33320D01*
X35325Y-33338D01*
X35289Y-33338D01*
X35004Y-33089D02*
X35004Y-33338D01*
X35164Y-33089D02*
X35164Y-33285D01*
X35147Y-33320D01*
X35111Y-33338D01*
X35058Y-33338D01*
X35022Y-33320D01*
X35004Y-33302D01*
X34844Y-33320D02*
X34808Y-33338D01*
X34737Y-33338D01*
X34701Y-33320D01*
X34684Y-33285D01*
X34684Y-33267D01*
X34701Y-33231D01*
X34737Y-33213D01*
X34790Y-33213D01*
X34826Y-33196D01*
X34844Y-33160D01*
X34844Y-33142D01*
X34826Y-33106D01*
X34790Y-33089D01*
X34737Y-33089D01*
X34701Y-33106D01*
X34292Y-32964D02*
X34167Y-33338D01*
X34042Y-32964D01*
X33847Y-32964D02*
X33811Y-32964D01*
X33775Y-32982D01*
X33757Y-33000D01*
X33740Y-33035D01*
X33722Y-33106D01*
X33722Y-33196D01*
X33740Y-33267D01*
X33757Y-33302D01*
X33775Y-33320D01*
X33811Y-33338D01*
X33847Y-33338D01*
X33882Y-33320D01*
X33900Y-33302D01*
X33918Y-33267D01*
X33936Y-33196D01*
X33936Y-33106D01*
X33918Y-33035D01*
X33900Y-33000D01*
X33882Y-32982D01*
X33847Y-32964D01*
X33562Y-33302D02*
X33544Y-33320D01*
X33562Y-33338D01*
X33579Y-33320D01*
X33562Y-33302D01*
X33562Y-33338D01*
X33401Y-33000D02*
X33383Y-32982D01*
X33348Y-32964D01*
X33259Y-32964D01*
X33223Y-32982D01*
X33205Y-33000D01*
X33188Y-33035D01*
X33188Y-33071D01*
X33205Y-33124D01*
X33419Y-33338D01*
X33188Y-33338D01*
X32831Y-33338D02*
X33045Y-33338D01*
X32938Y-33338D02*
X32938Y-32964D01*
X32974Y-33017D01*
X33009Y-33053D01*
X33045Y-33071D01*
X40000Y-33602D02*
X39982Y-33584D01*
X39947Y-33566D01*
X39857Y-33566D01*
X39822Y-33584D01*
X39804Y-33602D01*
X39786Y-33638D01*
X39786Y-33673D01*
X39804Y-33727D01*
X40018Y-33940D01*
X39786Y-33940D01*
X39555Y-33566D02*
X39519Y-33566D01*
X39483Y-33584D01*
X39466Y-33602D01*
X39448Y-33638D01*
X39430Y-33709D01*
X39430Y-33798D01*
X39448Y-33869D01*
X39466Y-33905D01*
X39483Y-33923D01*
X39519Y-33940D01*
X39555Y-33940D01*
X39590Y-33923D01*
X39608Y-33905D01*
X39626Y-33869D01*
X39644Y-33798D01*
X39644Y-33709D01*
X39626Y-33638D01*
X39608Y-33602D01*
X39590Y-33584D01*
X39555Y-33566D01*
X39074Y-33940D02*
X39288Y-33940D01*
X39181Y-33940D02*
X39181Y-33566D01*
X39216Y-33620D01*
X39252Y-33655D01*
X39288Y-33673D01*
X38949Y-33566D02*
X38718Y-33566D01*
X38842Y-33709D01*
X38789Y-33709D01*
X38753Y-33727D01*
X38735Y-33744D01*
X38718Y-33780D01*
X38718Y-33869D01*
X38735Y-33905D01*
X38753Y-33923D01*
X38789Y-33940D01*
X38896Y-33940D01*
X38931Y-33923D01*
X38949Y-33905D01*
X38272Y-33798D02*
X37987Y-33798D01*
X37524Y-33940D02*
X37524Y-33566D01*
X37524Y-33709D02*
X37489Y-33691D01*
X37417Y-33691D01*
X37382Y-33709D01*
X37364Y-33727D01*
X37346Y-33762D01*
X37346Y-33869D01*
X37364Y-33905D01*
X37382Y-33923D01*
X37417Y-33940D01*
X37489Y-33940D01*
X37524Y-33923D01*
X37133Y-33940D02*
X37168Y-33923D01*
X37186Y-33887D01*
X37186Y-33566D01*
X36937Y-33940D02*
X36972Y-33923D01*
X36990Y-33905D01*
X37008Y-33869D01*
X37008Y-33762D01*
X36990Y-33727D01*
X36972Y-33709D01*
X36937Y-33691D01*
X36883Y-33691D01*
X36848Y-33709D01*
X36830Y-33727D01*
X36812Y-33762D01*
X36812Y-33869D01*
X36830Y-33905D01*
X36848Y-33923D01*
X36883Y-33940D01*
X36937Y-33940D01*
X36491Y-33691D02*
X36491Y-33994D01*
X36509Y-34029D01*
X36527Y-34047D01*
X36563Y-34065D01*
X36616Y-34065D01*
X36652Y-34047D01*
X36491Y-33923D02*
X36527Y-33940D01*
X36598Y-33940D01*
X36634Y-33923D01*
X36652Y-33905D01*
X36669Y-33869D01*
X36669Y-33762D01*
X36652Y-33727D01*
X36634Y-33709D01*
X36598Y-33691D01*
X36527Y-33691D01*
X36491Y-33709D01*
X36313Y-33905D02*
X36295Y-33923D01*
X36313Y-33940D01*
X36331Y-33923D01*
X36313Y-33905D01*
X36313Y-33940D01*
X36153Y-33923D02*
X36117Y-33940D01*
X36046Y-33940D01*
X36010Y-33923D01*
X35993Y-33887D01*
X35993Y-33869D01*
X36010Y-33833D01*
X36046Y-33816D01*
X36100Y-33816D01*
X36135Y-33798D01*
X36153Y-33762D01*
X36153Y-33744D01*
X36135Y-33709D01*
X36100Y-33691D01*
X36046Y-33691D01*
X36010Y-33709D01*
X35832Y-33691D02*
X35832Y-34065D01*
X35832Y-33709D02*
X35797Y-33691D01*
X35726Y-33691D01*
X35690Y-33709D01*
X35672Y-33727D01*
X35654Y-33762D01*
X35654Y-33869D01*
X35672Y-33905D01*
X35690Y-33923D01*
X35726Y-33940D01*
X35797Y-33940D01*
X35832Y-33923D01*
X35494Y-33940D02*
X35494Y-33691D01*
X35494Y-33566D02*
X35512Y-33584D01*
X35494Y-33602D01*
X35476Y-33584D01*
X35494Y-33566D01*
X35494Y-33602D01*
X35369Y-33691D02*
X35227Y-33691D01*
X35316Y-33566D02*
X35316Y-33887D01*
X35298Y-33923D01*
X35262Y-33940D01*
X35227Y-33940D01*
X35138Y-33691D02*
X34942Y-33691D01*
X35138Y-33940D01*
X34942Y-33940D01*
X34657Y-33923D02*
X34693Y-33940D01*
X34764Y-33940D01*
X34799Y-33923D01*
X34817Y-33887D01*
X34817Y-33744D01*
X34799Y-33709D01*
X34764Y-33691D01*
X34693Y-33691D01*
X34657Y-33709D01*
X34639Y-33744D01*
X34639Y-33780D01*
X34817Y-33816D01*
X34479Y-33691D02*
X34479Y-33940D01*
X34479Y-33727D02*
X34461Y-33709D01*
X34425Y-33691D01*
X34372Y-33691D01*
X34336Y-33709D01*
X34318Y-33744D01*
X34318Y-33940D01*
X34140Y-33691D02*
X34140Y-34065D01*
X34140Y-33709D02*
X34105Y-33691D01*
X34034Y-33691D01*
X33998Y-33709D01*
X33980Y-33727D01*
X33962Y-33762D01*
X33962Y-33869D01*
X33980Y-33905D01*
X33998Y-33923D01*
X34034Y-33940D01*
X34105Y-33940D01*
X34140Y-33923D01*
X33855Y-33691D02*
X33713Y-33691D01*
X33802Y-33940D02*
X33802Y-33620D01*
X33784Y-33584D01*
X33749Y-33566D01*
X33713Y-33566D01*
X33446Y-33923D02*
X33481Y-33940D01*
X33553Y-33940D01*
X33588Y-33923D01*
X33606Y-33887D01*
X33606Y-33744D01*
X33588Y-33709D01*
X33553Y-33691D01*
X33481Y-33691D01*
X33446Y-33709D01*
X33428Y-33744D01*
X33428Y-33780D01*
X33606Y-33816D01*
X33268Y-33940D02*
X33268Y-33691D01*
X33268Y-33566D02*
X33285Y-33584D01*
X33268Y-33602D01*
X33250Y-33584D01*
X33268Y-33566D01*
X33268Y-33602D01*
X33036Y-33940D02*
X33072Y-33923D01*
X33090Y-33887D01*
X33090Y-33566D01*
X32894Y-33905D02*
X32876Y-33923D01*
X32894Y-33940D01*
X32911Y-33923D01*
X32894Y-33905D01*
X32894Y-33940D01*
X32662Y-33940D02*
X32698Y-33923D01*
X32716Y-33905D01*
X32733Y-33869D01*
X32733Y-33762D01*
X32716Y-33727D01*
X32698Y-33709D01*
X32662Y-33691D01*
X32609Y-33691D01*
X32573Y-33709D01*
X32555Y-33727D01*
X32537Y-33762D01*
X32537Y-33869D01*
X32555Y-33905D01*
X32573Y-33923D01*
X32609Y-33940D01*
X32662Y-33940D01*
X32377Y-33940D02*
X32377Y-33691D01*
X32377Y-33762D02*
X32359Y-33727D01*
X32342Y-33709D01*
X32306Y-33691D01*
X32270Y-33691D01*
X31985Y-33691D02*
X31985Y-33994D01*
X32003Y-34029D01*
X32021Y-34047D01*
X32057Y-34065D01*
X32110Y-34065D01*
X32146Y-34047D01*
X31985Y-33923D02*
X32021Y-33940D01*
X32092Y-33940D01*
X32128Y-33923D01*
X32146Y-33905D01*
X32163Y-33869D01*
X32163Y-33762D01*
X32146Y-33727D01*
X32128Y-33709D01*
X32092Y-33691D01*
X32021Y-33691D01*
X31985Y-33709D01*
G54D13*
G36*
X31689Y-33404D02*
X31696Y-33401D01*
X31709Y-33392D01*
X31729Y-33379D01*
X31752Y-33364D01*
X31776Y-33348D01*
X31795Y-33335D01*
X31809Y-33326D01*
X31814Y-33323D01*
X31817Y-33324D01*
X31828Y-33330D01*
X31844Y-33338D01*
X31854Y-33343D01*
X31869Y-33349D01*
X31876Y-33351D01*
X31877Y-33349D01*
X31883Y-33337D01*
X31891Y-33318D01*
X31902Y-33292D01*
X31915Y-33262D01*
X31929Y-33230D01*
X31942Y-33197D01*
X31955Y-33166D01*
X31967Y-33137D01*
X31976Y-33114D01*
X31982Y-33098D01*
X31985Y-33091D01*
X31984Y-33090D01*
X31977Y-33083D01*
X31964Y-33073D01*
X31936Y-33050D01*
X31908Y-33016D01*
X31891Y-32977D01*
X31886Y-32933D01*
X31890Y-32893D01*
X31906Y-32855D01*
X31933Y-32820D01*
X31966Y-32794D01*
X32004Y-32778D01*
X32047Y-32773D01*
X32088Y-32777D01*
X32127Y-32793D01*
X32162Y-32819D01*
X32177Y-32836D01*
X32197Y-32872D01*
X32209Y-32909D01*
X32210Y-32918D01*
X32208Y-32960D01*
X32196Y-33000D01*
X32174Y-33035D01*
X32144Y-33064D01*
X32140Y-33067D01*
X32126Y-33078D01*
X32116Y-33085D01*
X32109Y-33091D01*
X32162Y-33218D01*
X32170Y-33238D01*
X32185Y-33273D01*
X32197Y-33303D01*
X32208Y-33327D01*
X32215Y-33343D01*
X32218Y-33349D01*
X32218Y-33349D01*
X32223Y-33350D01*
X32232Y-33347D01*
X32250Y-33338D01*
X32262Y-33332D01*
X32275Y-33326D01*
X32281Y-33323D01*
X32287Y-33326D01*
X32300Y-33334D01*
X32318Y-33347D01*
X32341Y-33362D01*
X32363Y-33377D01*
X32383Y-33390D01*
X32397Y-33400D01*
X32404Y-33403D01*
X32405Y-33403D01*
X32412Y-33400D01*
X32423Y-33390D01*
X32440Y-33374D01*
X32465Y-33350D01*
X32469Y-33346D01*
X32489Y-33326D01*
X32505Y-33308D01*
X32516Y-33296D01*
X32520Y-33291D01*
X32520Y-33291D01*
X32516Y-33284D01*
X32507Y-33269D01*
X32494Y-33249D01*
X32478Y-33225D01*
X32436Y-33164D01*
X32459Y-33107D01*
X32466Y-33089D01*
X32475Y-33067D01*
X32482Y-33052D01*
X32485Y-33045D01*
X32492Y-33043D01*
X32507Y-33039D01*
X32530Y-33035D01*
X32558Y-33030D01*
X32584Y-33025D01*
X32607Y-33020D01*
X32624Y-33017D01*
X32632Y-33016D01*
X32634Y-33014D01*
X32635Y-33011D01*
X32636Y-33003D01*
X32637Y-32988D01*
X32637Y-32966D01*
X32637Y-32933D01*
X32637Y-32930D01*
X32637Y-32899D01*
X32636Y-32874D01*
X32635Y-32859D01*
X32634Y-32852D01*
X32634Y-32852D01*
X32627Y-32850D01*
X32610Y-32847D01*
X32587Y-32842D01*
X32559Y-32837D01*
X32557Y-32837D01*
X32529Y-32831D01*
X32506Y-32826D01*
X32489Y-32823D01*
X32482Y-32820D01*
X32481Y-32818D01*
X32475Y-32807D01*
X32467Y-32790D01*
X32458Y-32769D01*
X32449Y-32747D01*
X32441Y-32727D01*
X32436Y-32713D01*
X32434Y-32706D01*
X32434Y-32706D01*
X32438Y-32699D01*
X32448Y-32685D01*
X32462Y-32665D01*
X32478Y-32641D01*
X32479Y-32639D01*
X32495Y-32615D01*
X32508Y-32595D01*
X32517Y-32581D01*
X32520Y-32575D01*
X32520Y-32574D01*
X32515Y-32567D01*
X32503Y-32554D01*
X32485Y-32536D01*
X32465Y-32515D01*
X32458Y-32509D01*
X32435Y-32486D01*
X32419Y-32472D01*
X32409Y-32464D01*
X32405Y-32462D01*
X32404Y-32462D01*
X32397Y-32466D01*
X32382Y-32476D01*
X32362Y-32490D01*
X32338Y-32506D01*
X32337Y-32507D01*
X32313Y-32523D01*
X32293Y-32537D01*
X32279Y-32546D01*
X32273Y-32549D01*
X32272Y-32549D01*
X32263Y-32547D01*
X32246Y-32541D01*
X32225Y-32533D01*
X32203Y-32524D01*
X32183Y-32516D01*
X32169Y-32509D01*
X32162Y-32505D01*
X32161Y-32505D01*
X32159Y-32496D01*
X32155Y-32478D01*
X32150Y-32454D01*
X32144Y-32425D01*
X32143Y-32421D01*
X32138Y-32392D01*
X32134Y-32369D01*
X32130Y-32353D01*
X32129Y-32346D01*
X32125Y-32346D01*
X32111Y-32345D01*
X32090Y-32344D01*
X32064Y-32344D01*
X32038Y-32344D01*
X32012Y-32344D01*
X31990Y-32345D01*
X31974Y-32346D01*
X31967Y-32348D01*
X31967Y-32348D01*
X31965Y-32357D01*
X31961Y-32374D01*
X31956Y-32399D01*
X31950Y-32428D01*
X31949Y-32433D01*
X31944Y-32461D01*
X31939Y-32484D01*
X31936Y-32500D01*
X31934Y-32506D01*
X31932Y-32507D01*
X31920Y-32513D01*
X31901Y-32520D01*
X31878Y-32530D01*
X31824Y-32552D01*
X31758Y-32506D01*
X31752Y-32502D01*
X31728Y-32486D01*
X31708Y-32473D01*
X31694Y-32464D01*
X31689Y-32461D01*
X31688Y-32461D01*
X31682Y-32467D01*
X31669Y-32479D01*
X31651Y-32497D01*
X31630Y-32517D01*
X31614Y-32533D01*
X31596Y-32551D01*
X31585Y-32564D01*
X31578Y-32572D01*
X31576Y-32577D01*
X31577Y-32580D01*
X31581Y-32587D01*
X31591Y-32601D01*
X31604Y-32622D01*
X31620Y-32645D01*
X31634Y-32665D01*
X31648Y-32687D01*
X31657Y-32703D01*
X31661Y-32710D01*
X31660Y-32714D01*
X31655Y-32727D01*
X31647Y-32746D01*
X31637Y-32770D01*
X31614Y-32822D01*
X31580Y-32829D01*
X31559Y-32833D01*
X31530Y-32838D01*
X31502Y-32844D01*
X31458Y-32852D01*
X31457Y-33011D01*
X31464Y-33014D01*
X31470Y-33016D01*
X31486Y-33020D01*
X31509Y-33024D01*
X31536Y-33029D01*
X31560Y-33034D01*
X31583Y-33038D01*
X31600Y-33041D01*
X31607Y-33043D01*
X31609Y-33045D01*
X31615Y-33057D01*
X31623Y-33075D01*
X31632Y-33096D01*
X31642Y-33119D01*
X31650Y-33139D01*
X31656Y-33155D01*
X31658Y-33163D01*
X31655Y-33169D01*
X31646Y-33183D01*
X31633Y-33203D01*
X31617Y-33226D01*
X31601Y-33249D01*
X31588Y-33269D01*
X31578Y-33283D01*
X31575Y-33290D01*
X31577Y-33294D01*
X31586Y-33305D01*
X31603Y-33323D01*
X31629Y-33349D01*
X31634Y-33353D01*
X31654Y-33373D01*
X31672Y-33389D01*
X31684Y-33400D01*
X31689Y-33404D01*
X31689Y-33404D01*
G37*
G36*
X40144Y-33390D02*
X40159Y-33388D01*
X40172Y-33384D01*
X40178Y-33381D01*
X40191Y-33372D01*
X40201Y-33361D01*
X40208Y-33349D01*
X40213Y-33335D01*
X40216Y-33321D01*
X40215Y-33306D01*
X40212Y-33292D01*
X40205Y-33278D01*
X40201Y-33272D01*
X40195Y-33265D01*
X40188Y-33259D01*
X40182Y-33254D01*
X40180Y-33253D01*
X40167Y-33247D01*
X40154Y-33244D01*
X40139Y-33243D01*
X40134Y-33243D01*
X40126Y-33244D01*
X40119Y-33246D01*
X40111Y-33250D01*
X40102Y-33254D01*
X40090Y-33264D01*
X40081Y-33276D01*
X40073Y-33289D01*
X40071Y-33295D01*
X40069Y-33303D01*
X40068Y-33308D01*
X40068Y-33309D01*
X40068Y-33309D01*
X40068Y-33306D01*
X40068Y-33306D01*
X40065Y-33296D01*
X40062Y-33287D01*
X40057Y-33278D01*
X40049Y-33267D01*
X40038Y-33257D01*
X40025Y-33249D01*
X40010Y-33244D01*
X39995Y-33243D01*
X39991Y-33243D01*
X39979Y-33244D01*
X39968Y-33247D01*
X39966Y-33248D01*
X39953Y-33255D01*
X39942Y-33264D01*
X39933Y-33276D01*
X39926Y-33288D01*
X39922Y-33301D01*
X39922Y-33302D01*
X39921Y-33305D01*
X39921Y-33307D01*
X39921Y-33307D01*
X39921Y-33305D01*
X39920Y-33301D01*
X39920Y-33300D01*
X39915Y-33287D01*
X39908Y-33274D01*
X39899Y-33263D01*
X39890Y-33256D01*
X39877Y-33249D01*
X39863Y-33244D01*
X39847Y-33243D01*
X39836Y-33244D01*
X39822Y-33247D01*
X39808Y-33254D01*
X39796Y-33263D01*
X39787Y-33275D01*
X39785Y-33277D01*
X39782Y-33282D01*
X39780Y-33287D01*
X39779Y-33290D01*
X39776Y-33297D01*
X39775Y-33303D01*
X39774Y-33308D01*
X39774Y-33309D01*
X39774Y-33309D01*
X39773Y-33306D01*
X39772Y-33298D01*
X39768Y-33288D01*
X39764Y-33279D01*
X39755Y-33267D01*
X39743Y-33257D01*
X39730Y-33249D01*
X39716Y-33244D01*
X39701Y-33243D01*
X39687Y-33244D01*
X39672Y-33248D01*
X39659Y-33255D01*
X39647Y-33265D01*
X39641Y-33272D01*
X39636Y-33280D01*
X39631Y-33289D01*
X39629Y-33297D01*
X39626Y-33312D01*
X39627Y-33326D01*
X39630Y-33340D01*
X39636Y-33353D01*
X39644Y-33364D01*
X39654Y-33374D01*
X39666Y-33382D01*
X39679Y-33387D01*
X39694Y-33390D01*
X39696Y-33390D01*
X39711Y-33390D01*
X39725Y-33386D01*
X39738Y-33380D01*
X39743Y-33376D01*
X39753Y-33368D01*
X39762Y-33357D01*
X39768Y-33346D01*
X39769Y-33342D01*
X39771Y-33336D01*
X39773Y-33329D01*
X39774Y-33324D01*
X39774Y-33321D01*
X39774Y-33324D01*
X39774Y-33327D01*
X39776Y-33333D01*
X39778Y-33341D01*
X39780Y-33347D01*
X39784Y-33354D01*
X39793Y-33366D01*
X39804Y-33376D01*
X39817Y-33384D01*
X39832Y-33389D01*
X39834Y-33389D01*
X39844Y-33390D01*
X39855Y-33390D01*
X39865Y-33388D01*
X39875Y-33385D01*
X39888Y-33378D01*
X39901Y-33368D01*
X39901Y-33367D01*
X39910Y-33357D01*
X39916Y-33344D01*
X39920Y-33332D01*
X39920Y-33331D01*
X39921Y-33328D01*
X39921Y-33326D01*
X39921Y-33327D01*
X39922Y-33330D01*
X39922Y-33331D01*
X39924Y-33339D01*
X39927Y-33347D01*
X39932Y-33355D01*
X39938Y-33364D01*
X39949Y-33375D01*
X39962Y-33383D01*
X39977Y-33388D01*
X39979Y-33389D01*
X39989Y-33390D01*
X40000Y-33390D01*
X40010Y-33389D01*
X40018Y-33386D01*
X40032Y-33380D01*
X40044Y-33371D01*
X40054Y-33360D01*
X40062Y-33347D01*
X40063Y-33343D01*
X40066Y-33336D01*
X40067Y-33329D01*
X40068Y-33324D01*
X40068Y-33324D01*
X40068Y-33324D01*
X40069Y-33327D01*
X40069Y-33327D01*
X40071Y-33336D01*
X40075Y-33346D01*
X40079Y-33355D01*
X40081Y-33358D01*
X40090Y-33369D01*
X40102Y-33378D01*
X40115Y-33385D01*
X40129Y-33389D01*
X40144Y-33390D01*
X40144Y-33390D01*
G37*
G36*
X39548Y-33243D02*
X39557Y-33242D01*
X39565Y-33242D01*
X39575Y-33239D01*
X39589Y-33233D01*
X39601Y-33224D01*
X39611Y-33213D01*
X39619Y-33200D01*
X39624Y-33186D01*
X39626Y-33171D01*
X39625Y-33156D01*
X39621Y-33142D01*
X39615Y-33129D01*
X39605Y-33117D01*
X39593Y-33107D01*
X39590Y-33105D01*
X39575Y-33099D01*
X39561Y-33095D01*
X39545Y-33095D01*
X39530Y-33098D01*
X39518Y-33103D01*
X39505Y-33112D01*
X39495Y-33123D01*
X39486Y-33136D01*
X39481Y-33151D01*
X39479Y-33158D01*
X39479Y-33168D01*
X39479Y-33177D01*
X39480Y-33185D01*
X39481Y-33188D01*
X39487Y-33203D01*
X39495Y-33216D01*
X39507Y-33227D01*
X39520Y-33235D01*
X39526Y-33238D01*
X39535Y-33241D01*
X39543Y-33242D01*
X39548Y-33243D01*
X39548Y-33243D01*
G37*
G36*
X40291Y-33243D02*
X40306Y-33241D01*
X40321Y-33236D01*
X40335Y-33227D01*
X40338Y-33225D01*
X40348Y-33214D01*
X40356Y-33201D01*
X40361Y-33187D01*
X40363Y-33179D01*
X40363Y-33170D01*
X40363Y-33160D01*
X40362Y-33153D01*
X40361Y-33149D01*
X40355Y-33134D01*
X40347Y-33122D01*
X40336Y-33111D01*
X40323Y-33103D01*
X40309Y-33098D01*
X40294Y-33095D01*
X40288Y-33095D01*
X40273Y-33097D01*
X40259Y-33101D01*
X40247Y-33109D01*
X40236Y-33118D01*
X40227Y-33130D01*
X40221Y-33143D01*
X40217Y-33157D01*
X40216Y-33172D01*
X40217Y-33181D01*
X40219Y-33189D01*
X40222Y-33198D01*
X40228Y-33209D01*
X40237Y-33221D01*
X40249Y-33230D01*
X40262Y-33237D01*
X40276Y-33241D01*
X40291Y-33243D01*
X40291Y-33243D01*
G37*
G36*
X39401Y-33095D02*
X39411Y-33095D01*
X39420Y-33093D01*
X39431Y-33090D01*
X39444Y-33083D01*
X39457Y-33073D01*
X39465Y-33064D01*
X39472Y-33051D01*
X39477Y-33037D01*
X39478Y-33031D01*
X39478Y-33022D01*
X39478Y-33013D01*
X39477Y-33006D01*
X39476Y-33001D01*
X39470Y-32987D01*
X39462Y-32974D01*
X39451Y-32963D01*
X39437Y-32955D01*
X39432Y-32953D01*
X39423Y-32949D01*
X39413Y-32948D01*
X39402Y-32948D01*
X39395Y-32948D01*
X39387Y-32949D01*
X39380Y-32951D01*
X39372Y-32955D01*
X39367Y-32958D01*
X39355Y-32967D01*
X39345Y-32978D01*
X39337Y-32992D01*
X39332Y-33007D01*
X39332Y-33010D01*
X39331Y-33019D01*
X39331Y-33028D01*
X39332Y-33036D01*
X39333Y-33041D01*
X39339Y-33055D01*
X39348Y-33068D01*
X39358Y-33079D01*
X39372Y-33087D01*
X39386Y-33093D01*
X39391Y-33094D01*
X39401Y-33095D01*
X39401Y-33095D01*
G37*
G36*
X39993Y-33095D02*
X40007Y-33094D01*
X40021Y-33090D01*
X40030Y-33086D01*
X40042Y-33077D01*
X40053Y-33066D01*
X40061Y-33053D01*
X40066Y-33039D01*
X40067Y-33036D01*
X40068Y-33024D01*
X40068Y-33013D01*
X40065Y-33000D01*
X40059Y-32985D01*
X40050Y-32973D01*
X40039Y-32963D01*
X40026Y-32955D01*
X40011Y-32949D01*
X40002Y-32947D01*
X40007Y-32946D01*
X40008Y-32946D01*
X40018Y-32943D01*
X40029Y-32938D01*
X40040Y-32932D01*
X40041Y-32930D01*
X40052Y-32920D01*
X40060Y-32907D01*
X40065Y-32893D01*
X40068Y-32879D01*
X40068Y-32865D01*
X40064Y-32851D01*
X40058Y-32837D01*
X40058Y-32836D01*
X40048Y-32824D01*
X40037Y-32814D01*
X40025Y-32807D01*
X40011Y-32803D01*
X39997Y-32801D01*
X39983Y-32802D01*
X39969Y-32805D01*
X39956Y-32812D01*
X39943Y-32821D01*
X39937Y-32828D01*
X39930Y-32839D01*
X39924Y-32850D01*
X39922Y-32861D01*
X39921Y-32864D01*
X39921Y-32865D01*
X39921Y-32864D01*
X39920Y-32861D01*
X39918Y-32851D01*
X39913Y-32841D01*
X39907Y-32831D01*
X39903Y-32826D01*
X39892Y-32816D01*
X39879Y-32808D01*
X39865Y-32803D01*
X39850Y-32801D01*
X39835Y-32802D01*
X39826Y-32804D01*
X39812Y-32810D01*
X39800Y-32818D01*
X39789Y-32829D01*
X39781Y-32842D01*
X39776Y-32857D01*
X39775Y-32864D01*
X39774Y-32879D01*
X39777Y-32893D01*
X39782Y-32907D01*
X39790Y-32920D01*
X39801Y-32930D01*
X39814Y-32939D01*
X39820Y-32942D01*
X39827Y-32944D01*
X39833Y-32946D01*
X39838Y-32947D01*
X39838Y-32947D01*
X39838Y-32947D01*
X39835Y-32948D01*
X39828Y-32950D01*
X39818Y-32954D01*
X39809Y-32958D01*
X39805Y-32961D01*
X39795Y-32970D01*
X39786Y-32980D01*
X39780Y-32991D01*
X39776Y-33004D01*
X39774Y-33017D01*
X39774Y-33030D01*
X39775Y-33032D01*
X39779Y-33048D01*
X39786Y-33061D01*
X39796Y-33073D01*
X39804Y-33081D01*
X39817Y-33089D01*
X39832Y-33093D01*
X39837Y-33094D01*
X39845Y-33095D01*
X39854Y-33094D01*
X39862Y-33094D01*
X39868Y-33092D01*
X39873Y-33091D01*
X39887Y-33084D01*
X39899Y-33074D01*
X39909Y-33062D01*
X39913Y-33056D01*
X39917Y-33046D01*
X39920Y-33036D01*
X39920Y-33036D01*
X39921Y-33032D01*
X39921Y-33031D01*
X39921Y-33031D01*
X39921Y-33011D01*
X39921Y-33011D01*
X39921Y-33010D01*
X39920Y-33006D01*
X39920Y-33005D01*
X39915Y-32992D01*
X39908Y-32979D01*
X39899Y-32968D01*
X39888Y-32959D01*
X39875Y-32953D01*
X39874Y-32952D01*
X39868Y-32950D01*
X39862Y-32949D01*
X39855Y-32947D01*
X39861Y-32946D01*
X39870Y-32944D01*
X39883Y-32938D01*
X39895Y-32930D01*
X39906Y-32919D01*
X39914Y-32907D01*
X39916Y-32901D01*
X39919Y-32893D01*
X39920Y-32887D01*
X39921Y-32884D01*
X39921Y-32883D01*
X39921Y-32884D01*
X39922Y-32887D01*
X39923Y-32892D01*
X39925Y-32900D01*
X39928Y-32907D01*
X39933Y-32915D01*
X39943Y-32926D01*
X39954Y-32935D01*
X39967Y-32942D01*
X39981Y-32946D01*
X39987Y-32947D01*
X39981Y-32949D01*
X39980Y-32949D01*
X39973Y-32950D01*
X39967Y-32953D01*
X39966Y-32953D01*
X39953Y-32960D01*
X39942Y-32969D01*
X39933Y-32980D01*
X39926Y-32993D01*
X39922Y-33006D01*
X39922Y-33006D01*
X39921Y-33010D01*
X39921Y-33011D01*
X39921Y-33031D01*
X39921Y-33031D01*
X39921Y-33033D01*
X39922Y-33036D01*
X39925Y-33046D01*
X39931Y-33059D01*
X39940Y-33071D01*
X39951Y-33081D01*
X39964Y-33088D01*
X39964Y-33088D01*
X39978Y-33093D01*
X39993Y-33095D01*
X39993Y-33095D01*
G37*
G36*
X40432Y-33095D02*
X40444Y-33095D01*
X40455Y-33093D01*
X40462Y-33091D01*
X40476Y-33084D01*
X40488Y-33075D01*
X40498Y-33064D01*
X40505Y-33051D01*
X40509Y-33037D01*
X40511Y-33021D01*
X40511Y-33015D01*
X40508Y-33000D01*
X40502Y-32986D01*
X40493Y-32972D01*
X40490Y-32970D01*
X40480Y-32961D01*
X40468Y-32954D01*
X40455Y-32949D01*
X40454Y-32949D01*
X40443Y-32948D01*
X40431Y-32948D01*
X40420Y-32949D01*
X40416Y-32950D01*
X40402Y-32956D01*
X40390Y-32965D01*
X40380Y-32975D01*
X40372Y-32987D01*
X40366Y-33000D01*
X40364Y-33015D01*
X40364Y-33030D01*
X40367Y-33045D01*
X40372Y-33056D01*
X40381Y-33068D01*
X40392Y-33079D01*
X40404Y-33087D01*
X40419Y-33093D01*
X40420Y-33093D01*
X40432Y-33095D01*
X40432Y-33095D01*
G37*
G36*
X39702Y-32653D02*
X39717Y-32651D01*
X39731Y-32646D01*
X39738Y-32643D01*
X39744Y-32638D01*
X39751Y-32632D01*
X39759Y-32624D01*
X39767Y-32611D01*
X39772Y-32597D01*
X39773Y-32593D01*
X39774Y-32583D01*
X39774Y-32573D01*
X39772Y-32564D01*
X39768Y-32551D01*
X39762Y-32538D01*
X39753Y-32527D01*
X39751Y-32526D01*
X39744Y-32520D01*
X39736Y-32515D01*
X39729Y-32511D01*
X39726Y-32510D01*
X39720Y-32508D01*
X39714Y-32507D01*
X39710Y-32506D01*
X39707Y-32506D01*
X39710Y-32505D01*
X39714Y-32504D01*
X39718Y-32503D01*
X39724Y-32502D01*
X39735Y-32496D01*
X39746Y-32490D01*
X39754Y-32482D01*
X39756Y-32480D01*
X39765Y-32467D01*
X39771Y-32453D01*
X39774Y-32439D01*
X39774Y-32424D01*
X39773Y-32420D01*
X39769Y-32405D01*
X39762Y-32392D01*
X39752Y-32379D01*
X39743Y-32372D01*
X39730Y-32364D01*
X39716Y-32359D01*
X39713Y-32359D01*
X39703Y-32358D01*
X39693Y-32358D01*
X39683Y-32360D01*
X39675Y-32362D01*
X39661Y-32369D01*
X39649Y-32378D01*
X39640Y-32389D01*
X39632Y-32402D01*
X39628Y-32416D01*
X39627Y-32418D01*
X39626Y-32421D01*
X39626Y-32423D01*
X39625Y-32421D01*
X39625Y-32418D01*
X39624Y-32412D01*
X39621Y-32405D01*
X39619Y-32399D01*
X39616Y-32395D01*
X39607Y-32382D01*
X39596Y-32372D01*
X39583Y-32364D01*
X39569Y-32360D01*
X39553Y-32358D01*
X39541Y-32359D01*
X39527Y-32362D01*
X39514Y-32369D01*
X39506Y-32374D01*
X39495Y-32385D01*
X39487Y-32397D01*
X39481Y-32411D01*
X39479Y-32425D01*
X39479Y-32440D01*
X39482Y-32454D01*
X39488Y-32468D01*
X39497Y-32480D01*
X39508Y-32491D01*
X39522Y-32499D01*
X39537Y-32504D01*
X39545Y-32506D01*
X39540Y-32506D01*
X39537Y-32507D01*
X39525Y-32510D01*
X39514Y-32516D01*
X39503Y-32524D01*
X39494Y-32533D01*
X39489Y-32541D01*
X39484Y-32551D01*
X39481Y-32561D01*
X39479Y-32569D01*
X39479Y-32578D01*
X39479Y-32588D01*
X39480Y-32595D01*
X39483Y-32604D01*
X39490Y-32618D01*
X39499Y-32630D01*
X39511Y-32640D01*
X39524Y-32648D01*
X39540Y-32652D01*
X39544Y-32653D01*
X39553Y-32653D01*
X39562Y-32652D01*
X39571Y-32651D01*
X39577Y-32649D01*
X39591Y-32642D01*
X39603Y-32633D01*
X39613Y-32622D01*
X39620Y-32609D01*
X39625Y-32594D01*
X39625Y-32593D01*
X39626Y-32589D01*
X39626Y-32590D01*
X39626Y-32569D01*
X39626Y-32569D01*
X39625Y-32566D01*
X39625Y-32565D01*
X39622Y-32555D01*
X39618Y-32545D01*
X39612Y-32535D01*
X39607Y-32530D01*
X39596Y-32519D01*
X39582Y-32512D01*
X39567Y-32507D01*
X39560Y-32505D01*
X39565Y-32504D01*
X39570Y-32503D01*
X39574Y-32502D01*
X39577Y-32501D01*
X39591Y-32495D01*
X39603Y-32485D01*
X39613Y-32474D01*
X39620Y-32461D01*
X39625Y-32447D01*
X39625Y-32444D01*
X39626Y-32442D01*
X39627Y-32443D01*
X39628Y-32447D01*
X39628Y-32448D01*
X39630Y-32456D01*
X39634Y-32464D01*
X39638Y-32472D01*
X39642Y-32477D01*
X39649Y-32484D01*
X39656Y-32491D01*
X39663Y-32496D01*
X39664Y-32496D01*
X39675Y-32501D01*
X39687Y-32504D01*
X39692Y-32505D01*
X39686Y-32507D01*
X39673Y-32510D01*
X39660Y-32517D01*
X39648Y-32526D01*
X39639Y-32537D01*
X39637Y-32541D01*
X39633Y-32548D01*
X39630Y-32556D01*
X39628Y-32563D01*
X39627Y-32568D01*
X39627Y-32568D01*
X39626Y-32569D01*
X39626Y-32590D01*
X39627Y-32590D01*
X39627Y-32593D01*
X39628Y-32597D01*
X39630Y-32602D01*
X39633Y-32609D01*
X39640Y-32622D01*
X39650Y-32633D01*
X39661Y-32642D01*
X39674Y-32648D01*
X39688Y-32652D01*
X39702Y-32653D01*
X39702Y-32653D01*
G37*
G36*
X40146Y-32653D02*
X40160Y-32651D01*
X40174Y-32646D01*
X40187Y-32638D01*
X40197Y-32628D01*
X40206Y-32616D01*
X40212Y-32602D01*
X40214Y-32597D01*
X40215Y-32593D01*
X40215Y-32592D01*
X40216Y-32589D01*
X40216Y-32589D01*
X40216Y-32569D01*
X40215Y-32567D01*
X40214Y-32562D01*
X40211Y-32553D01*
X40205Y-32540D01*
X40196Y-32528D01*
X40184Y-32519D01*
X40171Y-32511D01*
X40157Y-32507D01*
X40150Y-32505D01*
X40155Y-32504D01*
X40155Y-32504D01*
X40167Y-32501D01*
X40179Y-32496D01*
X40183Y-32493D01*
X40191Y-32486D01*
X40198Y-32479D01*
X40204Y-32472D01*
X40207Y-32466D01*
X40212Y-32456D01*
X40214Y-32448D01*
X40215Y-32444D01*
X40216Y-32442D01*
X40216Y-32443D01*
X40217Y-32447D01*
X40220Y-32457D01*
X40227Y-32471D01*
X40237Y-32483D01*
X40248Y-32492D01*
X40261Y-32500D01*
X40277Y-32504D01*
X40282Y-32505D01*
X40275Y-32507D01*
X40268Y-32509D01*
X40254Y-32515D01*
X40241Y-32524D01*
X40231Y-32535D01*
X40227Y-32539D01*
X40224Y-32546D01*
X40220Y-32554D01*
X40218Y-32559D01*
X40217Y-32565D01*
X40217Y-32565D01*
X40216Y-32568D01*
X40216Y-32569D01*
X40216Y-32589D01*
X40216Y-32590D01*
X40217Y-32594D01*
X40218Y-32599D01*
X40223Y-32610D01*
X40228Y-32620D01*
X40233Y-32626D01*
X40244Y-32637D01*
X40257Y-32645D01*
X40272Y-32651D01*
X40278Y-32652D01*
X40288Y-32653D01*
X40299Y-32652D01*
X40308Y-32651D01*
X40309Y-32651D01*
X40324Y-32645D01*
X40337Y-32636D01*
X40347Y-32625D01*
X40356Y-32612D01*
X40361Y-32597D01*
X40363Y-32591D01*
X40363Y-32580D01*
X40363Y-32570D01*
X40361Y-32561D01*
X40359Y-32553D01*
X40354Y-32543D01*
X40348Y-32533D01*
X40341Y-32526D01*
X40332Y-32519D01*
X40322Y-32513D01*
X40319Y-32511D01*
X40312Y-32509D01*
X40305Y-32507D01*
X40300Y-32506D01*
X40299Y-32506D01*
X40301Y-32505D01*
X40305Y-32504D01*
X40314Y-32501D01*
X40323Y-32497D01*
X40331Y-32493D01*
X40333Y-32491D01*
X40343Y-32483D01*
X40351Y-32472D01*
X40357Y-32461D01*
X40360Y-32456D01*
X40363Y-32441D01*
X40363Y-32426D01*
X40361Y-32411D01*
X40360Y-32408D01*
X40353Y-32394D01*
X40344Y-32382D01*
X40333Y-32372D01*
X40320Y-32364D01*
X40305Y-32359D01*
X40303Y-32359D01*
X40293Y-32358D01*
X40282Y-32358D01*
X40273Y-32360D01*
X40270Y-32360D01*
X40256Y-32366D01*
X40243Y-32374D01*
X40232Y-32386D01*
X40223Y-32399D01*
X40221Y-32403D01*
X40219Y-32410D01*
X40217Y-32416D01*
X40217Y-32421D01*
X40217Y-32422D01*
X40216Y-32422D01*
X40215Y-32420D01*
X40214Y-32416D01*
X40212Y-32406D01*
X40205Y-32393D01*
X40196Y-32382D01*
X40185Y-32372D01*
X40172Y-32364D01*
X40172Y-32364D01*
X40159Y-32360D01*
X40144Y-32358D01*
X40129Y-32359D01*
X40115Y-32363D01*
X40107Y-32367D01*
X40094Y-32375D01*
X40084Y-32386D01*
X40076Y-32399D01*
X40070Y-32414D01*
X40070Y-32417D01*
X40068Y-32429D01*
X40069Y-32440D01*
X40072Y-32454D01*
X40078Y-32468D01*
X40087Y-32480D01*
X40098Y-32491D01*
X40111Y-32499D01*
X40126Y-32504D01*
X40129Y-32505D01*
X40132Y-32506D01*
X40132Y-32506D01*
X40128Y-32506D01*
X40119Y-32509D01*
X40110Y-32513D01*
X40101Y-32518D01*
X40093Y-32524D01*
X40083Y-32535D01*
X40075Y-32549D01*
X40074Y-32551D01*
X40069Y-32565D01*
X40068Y-32580D01*
X40070Y-32596D01*
X40075Y-32610D01*
X40078Y-32617D01*
X40083Y-32623D01*
X40089Y-32630D01*
X40089Y-32631D01*
X40101Y-32641D01*
X40115Y-32648D01*
X40129Y-32652D01*
X40131Y-32652D01*
X40146Y-32653D01*
X40146Y-32653D01*
G37*
G54D10*
X33110Y-34960D02*
X32854Y-34960D01*
X33444Y-34960D02*
X33248Y-34960D01*
X33759Y-34960D02*
X33562Y-34960D01*
X34153Y-34960D02*
X33897Y-34960D01*
X33110Y-34330D02*
X32854Y-34330D01*
X33444Y-34330D02*
X33248Y-34330D01*
X33759Y-34330D02*
X33562Y-34330D01*
X34153Y-34330D02*
X33897Y-34330D01*
X33248Y-34960D02*
X33248Y-34881D01*
X33248Y-34881D02*
X33110Y-34881D01*
X33110Y-34881D02*
X33110Y-34960D01*
X33562Y-34960D02*
X33562Y-34881D01*
X33562Y-34881D02*
X33444Y-34881D01*
X33444Y-34881D02*
X33444Y-34960D01*
X33897Y-34960D02*
X33897Y-34881D01*
X33897Y-34881D02*
X33759Y-34881D01*
X33759Y-34881D02*
X33759Y-34960D01*
X33248Y-34330D02*
X33248Y-34409D01*
X33248Y-34409D02*
X33110Y-34409D01*
X33110Y-34409D02*
X33110Y-34330D01*
X33562Y-34330D02*
X33562Y-34409D01*
X33562Y-34409D02*
X33444Y-34409D01*
X33444Y-34409D02*
X33444Y-34330D01*
X33897Y-34330D02*
X33897Y-34409D01*
X33897Y-34409D02*
X33759Y-34409D01*
X33759Y-34409D02*
X33759Y-34330D01*
X32854Y-34330D02*
X32854Y-34960D01*
X34153Y-34960D02*
X34153Y-34330D01*
X37125Y-34960D02*
X36870Y-34960D01*
X37460Y-34960D02*
X37263Y-34960D01*
X37775Y-34960D02*
X37578Y-34960D01*
X38169Y-34960D02*
X37913Y-34960D01*
X37125Y-34330D02*
X36870Y-34330D01*
X37460Y-34330D02*
X37263Y-34330D01*
X37775Y-34330D02*
X37578Y-34330D01*
X38169Y-34330D02*
X37913Y-34330D01*
X37263Y-34960D02*
X37263Y-34881D01*
X37263Y-34881D02*
X37125Y-34881D01*
X37125Y-34881D02*
X37125Y-34960D01*
X37578Y-34960D02*
X37578Y-34881D01*
X37578Y-34881D02*
X37460Y-34881D01*
X37460Y-34881D02*
X37460Y-34960D01*
X37913Y-34960D02*
X37913Y-34881D01*
X37913Y-34881D02*
X37775Y-34881D01*
X37775Y-34881D02*
X37775Y-34960D01*
X37263Y-34330D02*
X37263Y-34409D01*
X37263Y-34409D02*
X37125Y-34409D01*
X37125Y-34409D02*
X37125Y-34330D01*
X37578Y-34330D02*
X37578Y-34409D01*
X37578Y-34409D02*
X37460Y-34409D01*
X37460Y-34409D02*
X37460Y-34330D01*
X37913Y-34330D02*
X37913Y-34409D01*
X37913Y-34409D02*
X37775Y-34409D01*
X37775Y-34409D02*
X37775Y-34330D01*
X36870Y-34330D02*
X36870Y-34960D01*
X38169Y-34960D02*
X38169Y-34330D01*
%LPC*%
G54D14*
X40000Y-36000D03*
G54D15*
X39000Y-36000D03*
X38000Y-36000D03*
X37000Y-36000D03*
X36000Y-36000D03*
X35000Y-36000D03*
X34000Y-36000D03*
X33000Y-36000D03*
X32000Y-36000D03*
G54D16*
X34025Y-34291D03*
G54D17*
X33661Y-34291D03*
X33346Y-34291D03*
G54D16*
X32982Y-34291D03*
X34025Y-35000D03*
G54D17*
X33661Y-35000D03*
X33346Y-35000D03*
G54D16*
X32982Y-35000D03*
X38041Y-34291D03*
G54D17*
X37677Y-34291D03*
X37362Y-34291D03*
G54D16*
X36998Y-34291D03*
X38041Y-35000D03*
G54D17*
X37677Y-35000D03*
X37362Y-35000D03*
G54D16*
X36998Y-35000D03*
M02*
