M48
INCH,TZ
T1C0.013
T2C0.040
%
G90
G05
T1
X032500Y-032350
X032500Y-034925
X033500Y-032325
X033500Y-034925
X034475Y-032325
X034475Y-034925
X035525Y-032325
X035525Y-034900
X036500Y-032325
X036500Y-034900
X037525Y-032325
X037525Y-034900
X038500Y-032350
X038500Y-034900
X039550Y-032325
X039550Y-034900
T2
X032000Y-036000
X033000Y-036000
X034000Y-036000
X035000Y-036000
X036000Y-036000
X037000Y-036000
X038000Y-036000
X039000Y-036000
X040000Y-036000
T0
M30
