M48
METRIC,TZ
T1C0.330
T2C1.016
%
G90
G05
T1
X072875Y-058475
X072875Y-071875
X072875Y-085275
X072875Y-098675
X072875Y-112075
X072875Y-125475
X072875Y-138875
X074150Y-056419
X074150Y-062950
X074150Y-069819
X074150Y-076350
X074150Y-083219
X074150Y-089750
X074150Y-096619
X074150Y-103150
X074150Y-110019
X074150Y-116550
X074150Y-123419
X074150Y-129950
X074150Y-136819
X074150Y-143350
X075425Y-058475
X075425Y-071875
X075425Y-085275
X075425Y-098675
X075425Y-112075
X075425Y-125475
X075425Y-138875
X076690Y-056355
X076690Y-069756
X076690Y-083156
X076690Y-096556
X076690Y-109956
X076690Y-123356
X076690Y-136756
X077950Y-058475
X077950Y-071875
X077950Y-085275
X077950Y-098675
X077950Y-112075
X077950Y-125475
X077950Y-138875
X079167Y-056355
X079167Y-069756
X079167Y-083156
X079167Y-096556
X079167Y-109956
X079167Y-123356
X079167Y-136756
X080500Y-058475
X080500Y-062925
X080500Y-071875
X080500Y-076325
X080500Y-085275
X080500Y-089725
X080500Y-098675
X080500Y-103125
X080500Y-112075
X080500Y-116525
X080500Y-125475
X080500Y-129925
X080500Y-138875
X080500Y-143325
X083050Y-058475
X083050Y-071875
X083050Y-085275
X083050Y-098675
X083050Y-112075
X083050Y-125475
X083050Y-138875
X084310Y-056355
X084310Y-069756
X084310Y-083156
X084310Y-096556
X084310Y-109956
X084310Y-123356
X084310Y-136756
X084350Y-062950
X084350Y-076350
X084350Y-089750
X084350Y-103150
X084350Y-116550
X084350Y-129950
X084350Y-143350
X085575Y-058475
X085575Y-071875
X085575Y-085275
X085575Y-098675
X085575Y-112075
X085575Y-125475
X085575Y-138875
X086850Y-056450
X086850Y-069850
X086850Y-083250
X086850Y-096650
X086850Y-110050
X086850Y-123450
X086850Y-136850
X088125Y-058475
X088125Y-071875
X088125Y-085275
X088125Y-098675
X088125Y-112075
X088125Y-125475
X088125Y-138875
X089390Y-056419
X089390Y-069819
X089390Y-083219
X089390Y-096619
X089390Y-110019
X089390Y-123419
X089390Y-136819
X090675Y-058475
X090675Y-062925
X090675Y-071875
X090675Y-076325
X090675Y-085275
X090675Y-089725
X090675Y-098675
X090675Y-103125
X090675Y-112075
X090675Y-116525
X090675Y-125475
X090675Y-129925
X090675Y-138875
X090675Y-143325
X092057Y-056355
X092057Y-069756
X092057Y-083156
X092057Y-096556
X092057Y-109956
X092057Y-123356
X092057Y-136756
X097475Y-058475
X097475Y-071875
X097475Y-085275
X097475Y-098675
X097475Y-112075
X097475Y-125475
X097475Y-138875
X098750Y-056419
X098750Y-062950
X098750Y-069819
X098750Y-076350
X098750Y-083219
X098750Y-089750
X098750Y-096619
X098750Y-103150
X098750Y-110019
X098750Y-116550
X098750Y-123419
X098750Y-129950
X098750Y-136819
X098750Y-143350
X100025Y-058475
X100025Y-071875
X100025Y-085275
X100025Y-098675
X100025Y-112075
X100025Y-125475
X100025Y-138875
X101290Y-056355
X101290Y-069756
X101290Y-083156
X101290Y-096556
X101290Y-109956
X101290Y-123356
X101290Y-136756
X102550Y-058475
X102550Y-071875
X102550Y-085275
X102550Y-098675
X102550Y-112075
X102550Y-125475
X102550Y-138875
X103767Y-056355
X103767Y-069756
X103767Y-083156
X103767Y-096556
X103767Y-109956
X103767Y-123356
X103767Y-136756
X105100Y-058475
X105100Y-062925
X105100Y-071875
X105100Y-076325
X105100Y-085275
X105100Y-089725
X105100Y-098675
X105100Y-103125
X105100Y-112075
X105100Y-116525
X105100Y-125475
X105100Y-129925
X105100Y-138875
X105100Y-143325
X107650Y-058475
X107650Y-071875
X107650Y-085275
X107650Y-098675
X107650Y-112075
X107650Y-125475
X107650Y-138875
X108910Y-056355
X108910Y-069756
X108910Y-083156
X108910Y-096556
X108910Y-109956
X108910Y-123356
X108910Y-136756
X108950Y-062950
X108950Y-076350
X108950Y-089750
X108950Y-103150
X108950Y-116550
X108950Y-129950
X108950Y-143350
X110175Y-058475
X110175Y-071875
X110175Y-085275
X110175Y-098675
X110175Y-112075
X110175Y-125475
X110175Y-138875
X111450Y-056450
X111450Y-069850
X111450Y-083250
X111450Y-096650
X111450Y-110050
X111450Y-123450
X111450Y-136850
X112725Y-058475
X112725Y-071875
X112725Y-085275
X112725Y-098675
X112725Y-112075
X112725Y-125475
X112725Y-138875
X113990Y-056419
X113990Y-069819
X113990Y-083219
X113990Y-096619
X113990Y-110019
X113990Y-123419
X113990Y-136819
X115275Y-058475
X115275Y-062925
X115275Y-071875
X115275Y-076325
X115275Y-085275
X115275Y-089725
X115275Y-098675
X115275Y-103125
X115275Y-112075
X115275Y-116525
X115275Y-125475
X115275Y-129925
X115275Y-138875
X115275Y-143325
X116657Y-056355
X116657Y-069756
X116657Y-083156
X116657Y-096556
X116657Y-109956
X116657Y-123356
X116657Y-136756
X122075Y-058475
X122075Y-071875
X122075Y-085275
X122075Y-098675
X122075Y-112075
X122075Y-125475
X122075Y-138875
X123350Y-056419
X123350Y-062950
X123350Y-069819
X123350Y-076350
X123350Y-083219
X123350Y-089750
X123350Y-096619
X123350Y-103150
X123350Y-110019
X123350Y-116550
X123350Y-123419
X123350Y-129950
X123350Y-136819
X123350Y-143350
X124625Y-058475
X124625Y-071875
X124625Y-085275
X124625Y-098675
X124625Y-112075
X124625Y-125475
X124625Y-138875
X125890Y-056355
X125890Y-069756
X125890Y-083156
X125890Y-096556
X125890Y-109956
X125890Y-123356
X125890Y-136756
X127150Y-058475
X127150Y-071875
X127150Y-085275
X127150Y-098675
X127150Y-112075
X127150Y-125475
X127150Y-138875
X128367Y-056355
X128367Y-069756
X128367Y-083156
X128367Y-096556
X128367Y-109956
X128367Y-123356
X128367Y-136756
X129700Y-058475
X129700Y-062925
X129700Y-071875
X129700Y-076325
X129700Y-085275
X129700Y-089725
X129700Y-098675
X129700Y-103125
X129700Y-112075
X129700Y-116525
X129700Y-125475
X129700Y-129925
X129700Y-138875
X129700Y-143325
X132250Y-058475
X132250Y-071875
X132250Y-085275
X132250Y-098675
X132250Y-112075
X132250Y-125475
X132250Y-138875
X133510Y-056355
X133510Y-069756
X133510Y-083156
X133510Y-096556
X133510Y-109956
X133510Y-123356
X133510Y-136756
X133550Y-062950
X133550Y-076350
X133550Y-089750
X133550Y-103150
X133550Y-116550
X133550Y-129950
X133550Y-143350
X134775Y-058475
X134775Y-071875
X134775Y-085275
X134775Y-098675
X134775Y-112075
X134775Y-125475
X134775Y-138875
X136050Y-056450
X136050Y-069850
X136050Y-083250
X136050Y-096650
X136050Y-110050
X136050Y-123450
X136050Y-136850
X137325Y-058475
X137325Y-071875
X137325Y-085275
X137325Y-098675
X137325Y-112075
X137325Y-125475
X137325Y-138875
X138590Y-056419
X138590Y-069819
X138590Y-083219
X138590Y-096619
X138590Y-110019
X138590Y-123419
X138590Y-136819
X139875Y-058475
X139875Y-062925
X139875Y-071875
X139875Y-076325
X139875Y-085275
X139875Y-089725
X139875Y-098675
X139875Y-103125
X139875Y-112075
X139875Y-116525
X139875Y-125475
X139875Y-129925
X139875Y-138875
X139875Y-143325
X141257Y-056355
X141257Y-069756
X141257Y-083156
X141257Y-096556
X141257Y-109956
X141257Y-123356
X141257Y-136756
X146675Y-058475
X146675Y-071875
X146675Y-085275
X146675Y-098675
X146675Y-112075
X146675Y-125475
X146675Y-138875
X147950Y-056419
X147950Y-062950
X147950Y-069819
X147950Y-076350
X147950Y-083219
X147950Y-089750
X147950Y-096619
X147950Y-103150
X147950Y-110019
X147950Y-116550
X147950Y-123419
X147950Y-129950
X147950Y-136819
X147950Y-143350
X149225Y-058475
X149225Y-071875
X149225Y-085275
X149225Y-098675
X149225Y-112075
X149225Y-125475
X149225Y-138875
X150490Y-056355
X150490Y-069756
X150490Y-083156
X150490Y-096556
X150490Y-109956
X150490Y-123356
X150490Y-136756
X151750Y-058475
X151750Y-071875
X151750Y-085275
X151750Y-098675
X151750Y-112075
X151750Y-125475
X151750Y-138875
X152967Y-056355
X152967Y-069756
X152967Y-083156
X152967Y-096556
X152967Y-109956
X152967Y-123356
X152967Y-136756
X154300Y-058475
X154300Y-062925
X154300Y-071875
X154300Y-076325
X154300Y-085275
X154300Y-089725
X154300Y-098675
X154300Y-103125
X154300Y-112075
X154300Y-116525
X154300Y-125475
X154300Y-129925
X154300Y-138875
X154300Y-143325
X156850Y-058475
X156850Y-071875
X156850Y-085275
X156850Y-098675
X156850Y-112075
X156850Y-125475
X156850Y-138875
X158110Y-056355
X158110Y-069756
X158110Y-083156
X158110Y-096556
X158110Y-109956
X158110Y-123356
X158110Y-136756
X158150Y-062950
X158150Y-076350
X158150Y-089750
X158150Y-103150
X158150Y-116550
X158150Y-129950
X158150Y-143350
X159375Y-058475
X159375Y-071875
X159375Y-085275
X159375Y-098675
X159375Y-112075
X159375Y-125475
X159375Y-138875
X160650Y-056450
X160650Y-069850
X160650Y-083250
X160650Y-096650
X160650Y-110050
X160650Y-123450
X160650Y-136850
X161925Y-058475
X161925Y-071875
X161925Y-085275
X161925Y-098675
X161925Y-112075
X161925Y-125475
X161925Y-138875
X163190Y-056419
X163190Y-069819
X163190Y-083219
X163190Y-096619
X163190Y-110019
X163190Y-123419
X163190Y-136819
X164475Y-058475
X164475Y-062925
X164475Y-071875
X164475Y-076325
X164475Y-085275
X164475Y-089725
X164475Y-098675
X164475Y-103125
X164475Y-112075
X164475Y-116525
X164475Y-125475
X164475Y-129925
X164475Y-138875
X164475Y-143325
X165857Y-056355
X165857Y-069756
X165857Y-083156
X165857Y-096556
X165857Y-109956
X165857Y-123356
X165857Y-136756
T2
X072880Y-065690
X072880Y-079090
X072880Y-092490
X072880Y-105890
X072880Y-119290
X072880Y-132690
X072880Y-146090
X075420Y-065690
X075420Y-079090
X075420Y-092490
X075420Y-105890
X075420Y-119290
X075420Y-132690
X075420Y-146090
X077960Y-065690
X077960Y-079090
X077960Y-092490
X077960Y-105890
X077960Y-119290
X077960Y-132690
X077960Y-146090
X080500Y-065690
X080500Y-079090
X080500Y-092490
X080500Y-105890
X080500Y-119290
X080500Y-132690
X080500Y-146090
X083040Y-065690
X083040Y-079090
X083040Y-092490
X083040Y-105890
X083040Y-119290
X083040Y-132690
X083040Y-146090
X085580Y-065690
X085580Y-079090
X085580Y-092490
X085580Y-105890
X085580Y-119290
X085580Y-132690
X085580Y-146090
X088120Y-065690
X088120Y-079090
X088120Y-092490
X088120Y-105890
X088120Y-119290
X088120Y-132690
X088120Y-146090
X090660Y-065690
X090660Y-079090
X090660Y-092490
X090660Y-105890
X090660Y-119290
X090660Y-132690
X090660Y-146090
X093200Y-065690
X093200Y-079090
X093200Y-092490
X093200Y-105890
X093200Y-119290
X093200Y-132690
X093200Y-146090
X097480Y-065690
X097480Y-079090
X097480Y-092490
X097480Y-105890
X097480Y-119290
X097480Y-132690
X097480Y-146090
X100020Y-065690
X100020Y-079090
X100020Y-092490
X100020Y-105890
X100020Y-119290
X100020Y-132690
X100020Y-146090
X102560Y-065690
X102560Y-079090
X102560Y-092490
X102560Y-105890
X102560Y-119290
X102560Y-132690
X102560Y-146090
X105100Y-065690
X105100Y-079090
X105100Y-092490
X105100Y-105890
X105100Y-119290
X105100Y-132690
X105100Y-146090
X107640Y-065690
X107640Y-079090
X107640Y-092490
X107640Y-105890
X107640Y-119290
X107640Y-132690
X107640Y-146090
X110180Y-065690
X110180Y-079090
X110180Y-092490
X110180Y-105890
X110180Y-119290
X110180Y-132690
X110180Y-146090
X112720Y-065690
X112720Y-079090
X112720Y-092490
X112720Y-105890
X112720Y-119290
X112720Y-132690
X112720Y-146090
X115260Y-065690
X115260Y-079090
X115260Y-092490
X115260Y-105890
X115260Y-119290
X115260Y-132690
X115260Y-146090
X117800Y-065690
X117800Y-079090
X117800Y-092490
X117800Y-105890
X117800Y-119290
X117800Y-132690
X117800Y-146090
X122080Y-065690
X122080Y-079090
X122080Y-092490
X122080Y-105890
X122080Y-119290
X122080Y-132690
X122080Y-146090
X124620Y-065690
X124620Y-079090
X124620Y-092490
X124620Y-105890
X124620Y-119290
X124620Y-132690
X124620Y-146090
X127160Y-065690
X127160Y-079090
X127160Y-092490
X127160Y-105890
X127160Y-119290
X127160Y-132690
X127160Y-146090
X129700Y-065690
X129700Y-079090
X129700Y-092490
X129700Y-105890
X129700Y-119290
X129700Y-132690
X129700Y-146090
X132240Y-065690
X132240Y-079090
X132240Y-092490
X132240Y-105890
X132240Y-119290
X132240Y-132690
X132240Y-146090
X134780Y-065690
X134780Y-079090
X134780Y-092490
X134780Y-105890
X134780Y-119290
X134780Y-132690
X134780Y-146090
X137320Y-065690
X137320Y-079090
X137320Y-092490
X137320Y-105890
X137320Y-119290
X137320Y-132690
X137320Y-146090
X139860Y-065690
X139860Y-079090
X139860Y-092490
X139860Y-105890
X139860Y-119290
X139860Y-132690
X139860Y-146090
X142400Y-065690
X142400Y-079090
X142400Y-092490
X142400Y-105890
X142400Y-119290
X142400Y-132690
X142400Y-146090
X146680Y-065690
X146680Y-079090
X146680Y-092490
X146680Y-105890
X146680Y-119290
X146680Y-132690
X146680Y-146090
X149220Y-065690
X149220Y-079090
X149220Y-092490
X149220Y-105890
X149220Y-119290
X149220Y-132690
X149220Y-146090
X151760Y-065690
X151760Y-079090
X151760Y-092490
X151760Y-105890
X151760Y-119290
X151760Y-132690
X151760Y-146090
X154300Y-065690
X154300Y-079090
X154300Y-092490
X154300Y-105890
X154300Y-119290
X154300Y-132690
X154300Y-146090
X156840Y-065690
X156840Y-079090
X156840Y-092490
X156840Y-105890
X156840Y-119290
X156840Y-132690
X156840Y-146090
X159380Y-065690
X159380Y-079090
X159380Y-092490
X159380Y-105890
X159380Y-119290
X159380Y-132690
X159380Y-146090
X161920Y-065690
X161920Y-079090
X161920Y-092490
X161920Y-105890
X161920Y-119290
X161920Y-132690
X161920Y-146090
X164460Y-065690
X164460Y-079090
X164460Y-092490
X164460Y-105890
X164460Y-119290
X164460Y-132690
X164460Y-146090
X167000Y-065690
X167000Y-079090
X167000Y-092490
X167000Y-105890
X167000Y-119290
X167000Y-132690
X167000Y-146090
T0
M30
