M48
METRIC,TZ
T1C0.330
T2C1.016
%
G90
G05
T1
X81.275Y-84.225
X82.55Y-82.169
X82.55Y-88.7
X83.825Y-84.225
X85.09Y-82.105
X86.35Y-84.225
X87.566Y-82.105
X88.9Y-84.225
X88.9Y-88.675
X91.45Y-84.225
X92.608Y-88.697
X92.71Y-82.105
X93.975Y-84.225
X95.25Y-82.2
X96.525Y-84.225
X97.79Y-82.169
X99.06Y-88.697
X99.075Y-84.225
T2
X81.28Y-91.44
X83.82Y-91.44
X86.36Y-91.44
X88.9Y-91.44
X91.44Y-91.44
X93.98Y-91.44
X96.52Y-91.44
X99.06Y-91.44
X101.6Y-91.44
T0
M30
