G04 #@! TF.FileFunction,Copper,L2,Bot,Signal*
%FSLAX46Y46*%
G04 Gerber Fmt 4.6, Leading zero omitted, Abs format (unit mm)*
G04 Created by KiCad (PCBNEW (2015-06-07 BZR 5721)-product) date Tue 09 Jun 2015 07:57:43 PM CEST*
%MOMM*%
G01*
G04 APERTURE LIST*
%ADD10C,0.150000*%
%ADD11R,0.650000X1.000000*%
%ADD12R,0.500000X1.000000*%
%ADD13R,1.650000X1.650000*%
%ADD14C,1.650000*%
%ADD15C,0.635000*%
%ADD16C,0.300000*%
%ADD17C,0.200000*%
G04 APERTURE END LIST*
D10*
D11*
X86425000Y-87100000D03*
D12*
X85500000Y-87100000D03*
X84700000Y-87100000D03*
D11*
X83775000Y-87100000D03*
X86425000Y-88900000D03*
D12*
X85500000Y-88900000D03*
X84700000Y-88900000D03*
D11*
X83775000Y-88900000D03*
X96625000Y-87100000D03*
D12*
X95700000Y-87100000D03*
X94900000Y-87100000D03*
D11*
X93975000Y-87100000D03*
X96625000Y-88900000D03*
D12*
X95700000Y-88900000D03*
X94900000Y-88900000D03*
D11*
X93975000Y-88900000D03*
D13*
X101600000Y-91440000D03*
D14*
X99060000Y-91440000D03*
X96520000Y-91440000D03*
X93980000Y-91440000D03*
X91440000Y-91440000D03*
X88900000Y-91440000D03*
X86360000Y-91440000D03*
X83820000Y-91440000D03*
X81280000Y-91440000D03*
D15*
X81275000Y-84225000D03*
X83825000Y-84225000D03*
X91450000Y-84225000D03*
X86350000Y-84225000D03*
X88900000Y-84225000D03*
X93975000Y-84225000D03*
X99075000Y-84225000D03*
X96525000Y-84225000D03*
X82550000Y-82169000D03*
X82550000Y-88700000D03*
X85090000Y-82105500D03*
X87566500Y-82105500D03*
X88900000Y-88675000D03*
X92608402Y-88696800D03*
X92710000Y-82105500D03*
X95250000Y-82200000D03*
X97790000Y-82169000D03*
X99060000Y-88696800D03*
D16*
X88250000Y-81300000D02*
X88200000Y-81300000D01*
X88200000Y-81300000D02*
X88900000Y-81300000D01*
X91475000Y-81300000D02*
X93950000Y-81300000D01*
X81275000Y-81925000D02*
X81275000Y-84225000D01*
X83800000Y-81300000D02*
X81900000Y-81300000D01*
X88200000Y-81300000D02*
X83800000Y-81300000D01*
X81900000Y-81300000D02*
X81275000Y-81925000D01*
X83825000Y-81300000D02*
X83800000Y-81300000D01*
X83825000Y-84225000D02*
X83825000Y-81300000D01*
X91475000Y-81300000D02*
X88900000Y-81300000D01*
X91450000Y-81300000D02*
X91475000Y-81300000D01*
X91475000Y-84200000D02*
X91475000Y-81300000D01*
X91450000Y-84225000D02*
X91475000Y-84200000D01*
X88900000Y-84225000D02*
X88900000Y-81300000D01*
X86350000Y-84225000D02*
X88900000Y-84225000D01*
X93950000Y-84200000D02*
X93950000Y-81300000D01*
X93975000Y-84225000D02*
X93950000Y-84200000D01*
X96525000Y-84225000D02*
X99075000Y-84225000D01*
X99100000Y-84200000D02*
X99100000Y-81800000D01*
X98600000Y-81300000D02*
X99100000Y-81800000D01*
X98600000Y-81300000D02*
X93950000Y-81300000D01*
X99075000Y-84225000D02*
X99100000Y-84200000D01*
X82550000Y-87050000D02*
X82550000Y-82169000D01*
X82550000Y-88700000D02*
X82550000Y-87050000D01*
X82550000Y-87100000D02*
X82550000Y-87050000D01*
X83775000Y-87100000D02*
X82550000Y-87100000D01*
X84700000Y-82495500D02*
X85090000Y-82105500D01*
X84700000Y-87100000D02*
X84700000Y-82495500D01*
X85500000Y-83000000D02*
X86394500Y-82105500D01*
X86394500Y-82105500D02*
X87566500Y-82105500D01*
X85500000Y-87100000D02*
X85500000Y-83000000D01*
X88700000Y-87100000D02*
X88900000Y-87300000D01*
X86425000Y-87100000D02*
X88700000Y-87100000D01*
X88900000Y-88675000D02*
X88900000Y-87300000D01*
X92608402Y-88247788D02*
X92608402Y-88696800D01*
X92608402Y-87141598D02*
X92608402Y-88247788D01*
X92650000Y-87100000D02*
X92608402Y-87141598D01*
X92650000Y-87100000D02*
X92650000Y-82165500D01*
X92650000Y-82165500D02*
X92710000Y-82105500D01*
X93975000Y-87100000D02*
X92650000Y-87100000D01*
X94900000Y-82550000D02*
X95250000Y-82200000D01*
X94900000Y-87100000D02*
X94900000Y-82550000D01*
X95700000Y-82900000D02*
X96431000Y-82169000D01*
X96431000Y-82169000D02*
X97790000Y-82169000D01*
X95700000Y-87100000D02*
X95700000Y-82900000D01*
X98758600Y-87100000D02*
X99060000Y-87401400D01*
X99060000Y-87401400D02*
X99060000Y-88696800D01*
X96625000Y-87100000D02*
X98758600Y-87100000D01*
X96625000Y-89005000D02*
X99060000Y-91440000D01*
X96625000Y-88900000D02*
X96625000Y-89005000D01*
X95700000Y-90620000D02*
X96520000Y-91440000D01*
X95700000Y-88900000D02*
X95700000Y-90620000D01*
X94900000Y-90520000D02*
X93980000Y-91440000D01*
X94900000Y-88900000D02*
X94900000Y-90520000D01*
X93975000Y-88905000D02*
X91440000Y-91440000D01*
X93975000Y-88900000D02*
X93975000Y-88905000D01*
X86425000Y-88965000D02*
X88900000Y-91440000D01*
X86425000Y-88900000D02*
X86425000Y-88965000D01*
X85500000Y-90580000D02*
X86360000Y-91440000D01*
X85500000Y-88900000D02*
X85500000Y-90580000D01*
X84700000Y-90560000D02*
X83820000Y-91440000D01*
X84700000Y-88900000D02*
X84700000Y-90560000D01*
X83775000Y-88945000D02*
X81280000Y-91440000D01*
X83775000Y-88900000D02*
X83775000Y-88945000D01*
D17*
G36*
X102901400Y-92691661D02*
X102897587Y-92730549D01*
X102891618Y-92750319D01*
X102881925Y-92768549D01*
X102868876Y-92784548D01*
X102852962Y-92797714D01*
X102834798Y-92807535D01*
X102815076Y-92813640D01*
X102777400Y-92817600D01*
X102775000Y-92817600D01*
X102775000Y-92299472D01*
X102775000Y-92230528D01*
X102775000Y-91677499D01*
X102775000Y-91202501D01*
X102775000Y-90649472D01*
X102775000Y-90580528D01*
X102761550Y-90512909D01*
X102735166Y-90449213D01*
X102696863Y-90391888D01*
X102648112Y-90343137D01*
X102590787Y-90304834D01*
X102527091Y-90278450D01*
X102459472Y-90265000D01*
X101837499Y-90265000D01*
X101749999Y-90352500D01*
X101749999Y-91290001D01*
X102687500Y-91290001D01*
X102775000Y-91202501D01*
X102775000Y-91677499D01*
X102687500Y-91589999D01*
X101749999Y-91589999D01*
X101749999Y-92527500D01*
X101837499Y-92615000D01*
X102459472Y-92615000D01*
X102527091Y-92601550D01*
X102590787Y-92575166D01*
X102648112Y-92536863D01*
X102696863Y-92488112D01*
X102735166Y-92430787D01*
X102761550Y-92367091D01*
X102775000Y-92299472D01*
X102775000Y-92817600D01*
X101450001Y-92817600D01*
X101450001Y-92527500D01*
X101450001Y-91589999D01*
X101450001Y-91290001D01*
X101450001Y-90352500D01*
X101362501Y-90265000D01*
X100740528Y-90265000D01*
X100672909Y-90278450D01*
X100609213Y-90304834D01*
X100551888Y-90343137D01*
X100503137Y-90391888D01*
X100464834Y-90449213D01*
X100438450Y-90512909D01*
X100425000Y-90580528D01*
X100425000Y-90649472D01*
X100425000Y-91202501D01*
X100512500Y-91290001D01*
X101450001Y-91290001D01*
X101450001Y-91589999D01*
X100512500Y-91589999D01*
X100425000Y-91677499D01*
X100425000Y-92230528D01*
X100425000Y-92299472D01*
X100438450Y-92367091D01*
X100464834Y-92430787D01*
X100503137Y-92488112D01*
X100551888Y-92536863D01*
X100609213Y-92575166D01*
X100672909Y-92601550D01*
X100740528Y-92615000D01*
X101362501Y-92615000D01*
X101450001Y-92527500D01*
X101450001Y-92817600D01*
X100285052Y-92817600D01*
X100285052Y-91319883D01*
X100238390Y-91084223D01*
X100146844Y-90862115D01*
X100013900Y-90662018D01*
X99844622Y-90491554D01*
X99645459Y-90357217D01*
X99423995Y-90264122D01*
X99188667Y-90215816D01*
X98948438Y-90214139D01*
X98712458Y-90259155D01*
X98672939Y-90275121D01*
X97351935Y-88954117D01*
X97351935Y-88400000D01*
X97350000Y-88376189D01*
X97350000Y-87650000D01*
X98510000Y-87650000D01*
X98510000Y-88231118D01*
X98507703Y-88233368D01*
X98428207Y-88349469D01*
X98372776Y-88478800D01*
X98343521Y-88616434D01*
X98341557Y-88757129D01*
X98366957Y-88895527D01*
X98418756Y-89026355D01*
X98494979Y-89144630D01*
X98592724Y-89245848D01*
X98708267Y-89326152D01*
X98837207Y-89382485D01*
X98974634Y-89412700D01*
X99115312Y-89415647D01*
X99253884Y-89391213D01*
X99385070Y-89340329D01*
X99503875Y-89264934D01*
X99605772Y-89167898D01*
X99686881Y-89052918D01*
X99744113Y-88924374D01*
X99775287Y-88787162D01*
X99777531Y-88626445D01*
X99750201Y-88488416D01*
X99696580Y-88358324D01*
X99618713Y-88241125D01*
X99610000Y-88232350D01*
X99610000Y-87401400D01*
X99605042Y-87350838D01*
X99600614Y-87300227D01*
X99599807Y-87297450D01*
X99599525Y-87294571D01*
X99584837Y-87245923D01*
X99570667Y-87197148D01*
X99569336Y-87194580D01*
X99568500Y-87191811D01*
X99544631Y-87146921D01*
X99521268Y-87101848D01*
X99519465Y-87099590D01*
X99518107Y-87097035D01*
X99485965Y-87057624D01*
X99454300Y-87017959D01*
X99450331Y-87013934D01*
X99450264Y-87013851D01*
X99450187Y-87013787D01*
X99448909Y-87012491D01*
X99147509Y-86711091D01*
X99108256Y-86678849D01*
X99069332Y-86646188D01*
X99066795Y-86644793D01*
X99064562Y-86642959D01*
X99019783Y-86618948D01*
X98975268Y-86594476D01*
X98972513Y-86593602D01*
X98969962Y-86592234D01*
X98921333Y-86577366D01*
X98872951Y-86562019D01*
X98870078Y-86561696D01*
X98867312Y-86560851D01*
X98816725Y-86555712D01*
X98766279Y-86550054D01*
X98760631Y-86550014D01*
X98760520Y-86550003D01*
X98760416Y-86550012D01*
X98758600Y-86550000D01*
X97350000Y-86550000D01*
X97350000Y-86300000D01*
X97342388Y-86261732D01*
X97320711Y-86229289D01*
X97288268Y-86207612D01*
X97250000Y-86200000D01*
X96963646Y-86200000D01*
X96950000Y-86198065D01*
X96300000Y-86198065D01*
X96276189Y-86200000D01*
X96250000Y-86200000D01*
X96250000Y-83127818D01*
X96658818Y-82719000D01*
X97324093Y-82719000D01*
X97438267Y-82798352D01*
X97567207Y-82854685D01*
X97704634Y-82884900D01*
X97845312Y-82887847D01*
X97983884Y-82863413D01*
X98115070Y-82812529D01*
X98233875Y-82737134D01*
X98335772Y-82640098D01*
X98416881Y-82525118D01*
X98474113Y-82396574D01*
X98505287Y-82259362D01*
X98507531Y-82098645D01*
X98480201Y-81960616D01*
X98426580Y-81830524D01*
X98348713Y-81713325D01*
X98249565Y-81613482D01*
X98132912Y-81534798D01*
X98003197Y-81480271D01*
X97865362Y-81451978D01*
X97724656Y-81450995D01*
X97586440Y-81477361D01*
X97455977Y-81530072D01*
X97338236Y-81607119D01*
X97326103Y-81619000D01*
X96431000Y-81619000D01*
X96380438Y-81623957D01*
X96329827Y-81628386D01*
X96327050Y-81629192D01*
X96324171Y-81629475D01*
X96275523Y-81644162D01*
X96226748Y-81658333D01*
X96224180Y-81659663D01*
X96221411Y-81660500D01*
X96176521Y-81684368D01*
X96131448Y-81707732D01*
X96129190Y-81709534D01*
X96126635Y-81710893D01*
X96087224Y-81743034D01*
X96047559Y-81774700D01*
X96043534Y-81778668D01*
X96043451Y-81778736D01*
X96043387Y-81778812D01*
X96042091Y-81780091D01*
X95908201Y-81913980D01*
X95886580Y-81861524D01*
X95808713Y-81744325D01*
X95709565Y-81644482D01*
X95592912Y-81565798D01*
X95463197Y-81511271D01*
X95325362Y-81482978D01*
X95184656Y-81481995D01*
X95046440Y-81508361D01*
X94915977Y-81561072D01*
X94798236Y-81638119D01*
X94697703Y-81736568D01*
X94618207Y-81852669D01*
X94562776Y-81982000D01*
X94533521Y-82119634D01*
X94533251Y-82138930D01*
X94511091Y-82161091D01*
X94478849Y-82200343D01*
X94446188Y-82239268D01*
X94444793Y-82241804D01*
X94442959Y-82244038D01*
X94418948Y-82288816D01*
X94394476Y-82333332D01*
X94393602Y-82336086D01*
X94392234Y-82338638D01*
X94377366Y-82387266D01*
X94362019Y-82435649D01*
X94361696Y-82438521D01*
X94360851Y-82441288D01*
X94355712Y-82491874D01*
X94350054Y-82542321D01*
X94350014Y-82547968D01*
X94350003Y-82548080D01*
X94350012Y-82548183D01*
X94350000Y-82550000D01*
X94350000Y-86200000D01*
X94313646Y-86200000D01*
X94300000Y-86198065D01*
X93650000Y-86198065D01*
X93626189Y-86200000D01*
X93350000Y-86200000D01*
X93311732Y-86207612D01*
X93279289Y-86229289D01*
X93257612Y-86261732D01*
X93250000Y-86300000D01*
X93250000Y-86550000D01*
X93200000Y-86550000D01*
X93200000Y-82629709D01*
X93255772Y-82576598D01*
X93336881Y-82461618D01*
X93394113Y-82333074D01*
X93425287Y-82195862D01*
X93427531Y-82035145D01*
X93400201Y-81897116D01*
X93346580Y-81767024D01*
X93268713Y-81649825D01*
X93169565Y-81549982D01*
X93052912Y-81471298D01*
X92923197Y-81416771D01*
X92785362Y-81388478D01*
X92644656Y-81387495D01*
X92506440Y-81413861D01*
X92375977Y-81466572D01*
X92258236Y-81543619D01*
X92157703Y-81642068D01*
X92078207Y-81758169D01*
X92022776Y-81887500D01*
X91993521Y-82025134D01*
X91991557Y-82165829D01*
X92016957Y-82304227D01*
X92068756Y-82435055D01*
X92100000Y-82483536D01*
X92100000Y-86932316D01*
X92085768Y-86978864D01*
X92070421Y-87027247D01*
X92070098Y-87030119D01*
X92069253Y-87032886D01*
X92064114Y-87083472D01*
X92058456Y-87133919D01*
X92058416Y-87139566D01*
X92058405Y-87139678D01*
X92058414Y-87139781D01*
X92058402Y-87141598D01*
X92058402Y-88231118D01*
X92056105Y-88233368D01*
X91976609Y-88349469D01*
X91921178Y-88478800D01*
X91891923Y-88616434D01*
X91889959Y-88757129D01*
X91915359Y-88895527D01*
X91967158Y-89026355D01*
X92043381Y-89144630D01*
X92141126Y-89245848D01*
X92256669Y-89326152D01*
X92385609Y-89382485D01*
X92523036Y-89412700D01*
X92663714Y-89415647D01*
X92691421Y-89410761D01*
X91827978Y-90274203D01*
X91803995Y-90264122D01*
X91568667Y-90215816D01*
X91328438Y-90214139D01*
X91092458Y-90259155D01*
X90869716Y-90349148D01*
X90668696Y-90480692D01*
X90497055Y-90648775D01*
X90361330Y-90846996D01*
X90266692Y-91067805D01*
X90216744Y-91302790D01*
X90213390Y-91543001D01*
X90256757Y-91779289D01*
X90345193Y-92002654D01*
X90475331Y-92204588D01*
X90642212Y-92377398D01*
X90839480Y-92514503D01*
X91059623Y-92610681D01*
X91294253Y-92662268D01*
X91534436Y-92667299D01*
X91771021Y-92625583D01*
X91994997Y-92538708D01*
X92197834Y-92409984D01*
X92371806Y-92244313D01*
X92510285Y-92048006D01*
X92607997Y-91828541D01*
X92661221Y-91594276D01*
X92665052Y-91319883D01*
X92618390Y-91084223D01*
X92605315Y-91052502D01*
X93855882Y-89801935D01*
X94300000Y-89801935D01*
X94323810Y-89800000D01*
X94350000Y-89800000D01*
X94350000Y-90266646D01*
X94343995Y-90264122D01*
X94108667Y-90215816D01*
X93868438Y-90214139D01*
X93632458Y-90259155D01*
X93409716Y-90349148D01*
X93208696Y-90480692D01*
X93037055Y-90648775D01*
X92901330Y-90846996D01*
X92806692Y-91067805D01*
X92756744Y-91302790D01*
X92753390Y-91543001D01*
X92796757Y-91779289D01*
X92885193Y-92002654D01*
X93015331Y-92204588D01*
X93182212Y-92377398D01*
X93379480Y-92514503D01*
X93599623Y-92610681D01*
X93834253Y-92662268D01*
X94074436Y-92667299D01*
X94311021Y-92625583D01*
X94534997Y-92538708D01*
X94737834Y-92409984D01*
X94911806Y-92244313D01*
X95050285Y-92048006D01*
X95147997Y-91828541D01*
X95201221Y-91594276D01*
X95205052Y-91319883D01*
X95158390Y-91084223D01*
X95145315Y-91052501D01*
X95256069Y-90941747D01*
X95274034Y-90963775D01*
X95305700Y-91003441D01*
X95309668Y-91007465D01*
X95309736Y-91007549D01*
X95309812Y-91007612D01*
X95311091Y-91008909D01*
X95353680Y-91051498D01*
X95346692Y-91067805D01*
X95296744Y-91302790D01*
X95293390Y-91543001D01*
X95336757Y-91779289D01*
X95425193Y-92002654D01*
X95555331Y-92204588D01*
X95722212Y-92377398D01*
X95919480Y-92514503D01*
X96139623Y-92610681D01*
X96374253Y-92662268D01*
X96614436Y-92667299D01*
X96851021Y-92625583D01*
X97074997Y-92538708D01*
X97277834Y-92409984D01*
X97451806Y-92244313D01*
X97590285Y-92048006D01*
X97687997Y-91828541D01*
X97741221Y-91594276D01*
X97745052Y-91319883D01*
X97698390Y-91084223D01*
X97606844Y-90862115D01*
X97473900Y-90662018D01*
X97304622Y-90491554D01*
X97105459Y-90357217D01*
X96883995Y-90264122D01*
X96648667Y-90215816D01*
X96408438Y-90214139D01*
X96250000Y-90244362D01*
X96250000Y-89800000D01*
X96286353Y-89800000D01*
X96300000Y-89801935D01*
X96644117Y-89801935D01*
X97893680Y-91051498D01*
X97886692Y-91067805D01*
X97836744Y-91302790D01*
X97833390Y-91543001D01*
X97876757Y-91779289D01*
X97965193Y-92002654D01*
X98095331Y-92204588D01*
X98262212Y-92377398D01*
X98459480Y-92514503D01*
X98679623Y-92610681D01*
X98914253Y-92662268D01*
X99154436Y-92667299D01*
X99391021Y-92625583D01*
X99614997Y-92538708D01*
X99817834Y-92409984D01*
X99991806Y-92244313D01*
X100130285Y-92048006D01*
X100227997Y-91828541D01*
X100281221Y-91594276D01*
X100285052Y-91319883D01*
X100285052Y-92817600D01*
X90125052Y-92817600D01*
X90125052Y-91319883D01*
X90078390Y-91084223D01*
X89986844Y-90862115D01*
X89853900Y-90662018D01*
X89684622Y-90491554D01*
X89485459Y-90357217D01*
X89263995Y-90264122D01*
X89028667Y-90215816D01*
X88788438Y-90214139D01*
X88552458Y-90259155D01*
X88512938Y-90275121D01*
X87151935Y-88914117D01*
X87151935Y-88400000D01*
X87150000Y-88376189D01*
X87150000Y-87650000D01*
X88350000Y-87650000D01*
X88350000Y-88209318D01*
X88347703Y-88211568D01*
X88268207Y-88327669D01*
X88212776Y-88457000D01*
X88183521Y-88594634D01*
X88181557Y-88735329D01*
X88206957Y-88873727D01*
X88258756Y-89004555D01*
X88334979Y-89122830D01*
X88432724Y-89224048D01*
X88548267Y-89304352D01*
X88677207Y-89360685D01*
X88814634Y-89390900D01*
X88955312Y-89393847D01*
X89093884Y-89369413D01*
X89225070Y-89318529D01*
X89343875Y-89243134D01*
X89445772Y-89146098D01*
X89526881Y-89031118D01*
X89584113Y-88902574D01*
X89615287Y-88765362D01*
X89617531Y-88604645D01*
X89590201Y-88466616D01*
X89536580Y-88336524D01*
X89458713Y-88219325D01*
X89450000Y-88210550D01*
X89450000Y-87300000D01*
X89445041Y-87249434D01*
X89440614Y-87198827D01*
X89439807Y-87196050D01*
X89439525Y-87193171D01*
X89424837Y-87144523D01*
X89410667Y-87095748D01*
X89409336Y-87093180D01*
X89408500Y-87090411D01*
X89384641Y-87045540D01*
X89361269Y-87000449D01*
X89359465Y-86998189D01*
X89358107Y-86995635D01*
X89325974Y-86956236D01*
X89294301Y-86916560D01*
X89290331Y-86912534D01*
X89290264Y-86912451D01*
X89290187Y-86912387D01*
X89288909Y-86911091D01*
X89088909Y-86711091D01*
X89049656Y-86678849D01*
X89010732Y-86646188D01*
X89008195Y-86644793D01*
X89005962Y-86642959D01*
X88961183Y-86618948D01*
X88916668Y-86594476D01*
X88913913Y-86593602D01*
X88911362Y-86592234D01*
X88862733Y-86577366D01*
X88814351Y-86562019D01*
X88811478Y-86561696D01*
X88808712Y-86560851D01*
X88758125Y-86555712D01*
X88707679Y-86550054D01*
X88702031Y-86550014D01*
X88701920Y-86550003D01*
X88701816Y-86550012D01*
X88700000Y-86550000D01*
X87150000Y-86550000D01*
X87150000Y-86300000D01*
X87142388Y-86261732D01*
X87120711Y-86229289D01*
X87088268Y-86207612D01*
X87050000Y-86200000D01*
X86763646Y-86200000D01*
X86750000Y-86198065D01*
X86100000Y-86198065D01*
X86076189Y-86200000D01*
X86050000Y-86200000D01*
X86050000Y-83227818D01*
X86622318Y-82655500D01*
X87100593Y-82655500D01*
X87214767Y-82734852D01*
X87343707Y-82791185D01*
X87481134Y-82821400D01*
X87621812Y-82824347D01*
X87760384Y-82799913D01*
X87891570Y-82749029D01*
X88010375Y-82673634D01*
X88112272Y-82576598D01*
X88193381Y-82461618D01*
X88250613Y-82333074D01*
X88281787Y-82195862D01*
X88284031Y-82035145D01*
X88256701Y-81897116D01*
X88203080Y-81767024D01*
X88125213Y-81649825D01*
X88026065Y-81549982D01*
X87909412Y-81471298D01*
X87779697Y-81416771D01*
X87641862Y-81388478D01*
X87501156Y-81387495D01*
X87362940Y-81413861D01*
X87232477Y-81466572D01*
X87114736Y-81543619D01*
X87102603Y-81555500D01*
X86394500Y-81555500D01*
X86343938Y-81560457D01*
X86293327Y-81564886D01*
X86290550Y-81565692D01*
X86287671Y-81565975D01*
X86239023Y-81580662D01*
X86190248Y-81594833D01*
X86187680Y-81596163D01*
X86184911Y-81597000D01*
X86140021Y-81620868D01*
X86094948Y-81644232D01*
X86092690Y-81646034D01*
X86090135Y-81647393D01*
X86050724Y-81679534D01*
X86011059Y-81711200D01*
X86007034Y-81715168D01*
X86006951Y-81715236D01*
X86006887Y-81715312D01*
X86005591Y-81716591D01*
X85787616Y-81934565D01*
X85780201Y-81897116D01*
X85726580Y-81767024D01*
X85648713Y-81649825D01*
X85549565Y-81549982D01*
X85432912Y-81471298D01*
X85303197Y-81416771D01*
X85165362Y-81388478D01*
X85024656Y-81387495D01*
X84886440Y-81413861D01*
X84755977Y-81466572D01*
X84638236Y-81543619D01*
X84537703Y-81642068D01*
X84458207Y-81758169D01*
X84402776Y-81887500D01*
X84373521Y-82025134D01*
X84373251Y-82044430D01*
X84311091Y-82106591D01*
X84278849Y-82145843D01*
X84246188Y-82184768D01*
X84244793Y-82187304D01*
X84242959Y-82189538D01*
X84218948Y-82234316D01*
X84194476Y-82278832D01*
X84193602Y-82281586D01*
X84192234Y-82284138D01*
X84177366Y-82332766D01*
X84162019Y-82381149D01*
X84161696Y-82384021D01*
X84160851Y-82386788D01*
X84155712Y-82437374D01*
X84150054Y-82487821D01*
X84150014Y-82493468D01*
X84150003Y-82493580D01*
X84150012Y-82493683D01*
X84150000Y-82495500D01*
X84150000Y-86200000D01*
X84113646Y-86200000D01*
X84100000Y-86198065D01*
X83450000Y-86198065D01*
X83426189Y-86200000D01*
X83150000Y-86200000D01*
X83111732Y-86207612D01*
X83100000Y-86215450D01*
X83100000Y-82634104D01*
X83176881Y-82525118D01*
X83234113Y-82396574D01*
X83265287Y-82259362D01*
X83267531Y-82098645D01*
X83240201Y-81960616D01*
X83186580Y-81830524D01*
X83108713Y-81713325D01*
X83009565Y-81613482D01*
X82892912Y-81534798D01*
X82763197Y-81480271D01*
X82625362Y-81451978D01*
X82484656Y-81450995D01*
X82346440Y-81477361D01*
X82215977Y-81530072D01*
X82098236Y-81607119D01*
X81997703Y-81705568D01*
X81918207Y-81821669D01*
X81862776Y-81951000D01*
X81833521Y-82088634D01*
X81831557Y-82229329D01*
X81856957Y-82367727D01*
X81908756Y-82498555D01*
X81984979Y-82616830D01*
X82000000Y-82632384D01*
X82000000Y-87050000D01*
X82000000Y-87100000D01*
X82000000Y-88234318D01*
X81997703Y-88236568D01*
X81918207Y-88352669D01*
X81862776Y-88482000D01*
X81833521Y-88619634D01*
X81831557Y-88760329D01*
X81856957Y-88898727D01*
X81908756Y-89029555D01*
X81984979Y-89147830D01*
X82082724Y-89249048D01*
X82198267Y-89329352D01*
X82327207Y-89385685D01*
X82464634Y-89415900D01*
X82525017Y-89417164D01*
X81667978Y-90274203D01*
X81643995Y-90264122D01*
X81408667Y-90215816D01*
X81168438Y-90214139D01*
X80932458Y-90259155D01*
X80709716Y-90349148D01*
X80508696Y-90480692D01*
X80337055Y-90648775D01*
X80201330Y-90846996D01*
X80106692Y-91067805D01*
X80056744Y-91302790D01*
X80053390Y-91543001D01*
X80096757Y-91779289D01*
X80185193Y-92002654D01*
X80315331Y-92204588D01*
X80482212Y-92377398D01*
X80679480Y-92514503D01*
X80899623Y-92610681D01*
X81134253Y-92662268D01*
X81374436Y-92667299D01*
X81611021Y-92625583D01*
X81834997Y-92538708D01*
X82037834Y-92409984D01*
X82211806Y-92244313D01*
X82350285Y-92048006D01*
X82447997Y-91828541D01*
X82501221Y-91594276D01*
X82505052Y-91319883D01*
X82458390Y-91084223D01*
X82445315Y-91052502D01*
X83695883Y-89801935D01*
X84100000Y-89801935D01*
X84123810Y-89800000D01*
X84150000Y-89800000D01*
X84150000Y-90257143D01*
X83948667Y-90215816D01*
X83708438Y-90214139D01*
X83472458Y-90259155D01*
X83249716Y-90349148D01*
X83048696Y-90480692D01*
X82877055Y-90648775D01*
X82741330Y-90846996D01*
X82646692Y-91067805D01*
X82596744Y-91302790D01*
X82593390Y-91543001D01*
X82636757Y-91779289D01*
X82725193Y-92002654D01*
X82855331Y-92204588D01*
X83022212Y-92377398D01*
X83219480Y-92514503D01*
X83439623Y-92610681D01*
X83674253Y-92662268D01*
X83914436Y-92667299D01*
X84151021Y-92625583D01*
X84374997Y-92538708D01*
X84577834Y-92409984D01*
X84751806Y-92244313D01*
X84890285Y-92048006D01*
X84987997Y-91828541D01*
X85041221Y-91594276D01*
X85045052Y-91319883D01*
X84998390Y-91084223D01*
X84985315Y-91052502D01*
X85088909Y-90948909D01*
X85091541Y-90945704D01*
X85105700Y-90963441D01*
X85109668Y-90967465D01*
X85109736Y-90967549D01*
X85109812Y-90967612D01*
X85111091Y-90968909D01*
X85193680Y-91051498D01*
X85186692Y-91067805D01*
X85136744Y-91302790D01*
X85133390Y-91543001D01*
X85176757Y-91779289D01*
X85265193Y-92002654D01*
X85395331Y-92204588D01*
X85562212Y-92377398D01*
X85759480Y-92514503D01*
X85979623Y-92610681D01*
X86214253Y-92662268D01*
X86454436Y-92667299D01*
X86691021Y-92625583D01*
X86914997Y-92538708D01*
X87117834Y-92409984D01*
X87291806Y-92244313D01*
X87430285Y-92048006D01*
X87527997Y-91828541D01*
X87581221Y-91594276D01*
X87585052Y-91319883D01*
X87538390Y-91084223D01*
X87446844Y-90862115D01*
X87313900Y-90662018D01*
X87144622Y-90491554D01*
X86945459Y-90357217D01*
X86723995Y-90264122D01*
X86488667Y-90215816D01*
X86248438Y-90214139D01*
X86050000Y-90251993D01*
X86050000Y-89800000D01*
X86086353Y-89800000D01*
X86100000Y-89801935D01*
X86484117Y-89801935D01*
X87733680Y-91051498D01*
X87726692Y-91067805D01*
X87676744Y-91302790D01*
X87673390Y-91543001D01*
X87716757Y-91779289D01*
X87805193Y-92002654D01*
X87935331Y-92204588D01*
X88102212Y-92377398D01*
X88299480Y-92514503D01*
X88519623Y-92610681D01*
X88754253Y-92662268D01*
X88994436Y-92667299D01*
X89231021Y-92625583D01*
X89454997Y-92538708D01*
X89657834Y-92409984D01*
X89831806Y-92244313D01*
X89970285Y-92048006D01*
X90067997Y-91828541D01*
X90121221Y-91594276D01*
X90125052Y-91319883D01*
X90125052Y-92817600D01*
X80028338Y-92817600D01*
X79989450Y-92813787D01*
X79969680Y-92807818D01*
X79951450Y-92798125D01*
X79935451Y-92785076D01*
X79922285Y-92769162D01*
X79912464Y-92750998D01*
X79906359Y-92731276D01*
X79902400Y-92693600D01*
X79902400Y-81196737D01*
X79906212Y-81157850D01*
X79912181Y-81138080D01*
X79921874Y-81119851D01*
X79934925Y-81103849D01*
X79950837Y-81090685D01*
X79969001Y-81080864D01*
X79988723Y-81074759D01*
X80026399Y-81070800D01*
X102775462Y-81070800D01*
X102814349Y-81074612D01*
X102834119Y-81080581D01*
X102852348Y-81090274D01*
X102868350Y-81103325D01*
X102881514Y-81119237D01*
X102891335Y-81137401D01*
X102897440Y-81157123D01*
X102901400Y-81194799D01*
X102901400Y-92691661D01*
X102901400Y-92691661D01*
G37*
X102901400Y-92691661D02*
X102897587Y-92730549D01*
X102891618Y-92750319D01*
X102881925Y-92768549D01*
X102868876Y-92784548D01*
X102852962Y-92797714D01*
X102834798Y-92807535D01*
X102815076Y-92813640D01*
X102777400Y-92817600D01*
X102775000Y-92817600D01*
X102775000Y-92299472D01*
X102775000Y-92230528D01*
X102775000Y-91677499D01*
X102775000Y-91202501D01*
X102775000Y-90649472D01*
X102775000Y-90580528D01*
X102761550Y-90512909D01*
X102735166Y-90449213D01*
X102696863Y-90391888D01*
X102648112Y-90343137D01*
X102590787Y-90304834D01*
X102527091Y-90278450D01*
X102459472Y-90265000D01*
X101837499Y-90265000D01*
X101749999Y-90352500D01*
X101749999Y-91290001D01*
X102687500Y-91290001D01*
X102775000Y-91202501D01*
X102775000Y-91677499D01*
X102687500Y-91589999D01*
X101749999Y-91589999D01*
X101749999Y-92527500D01*
X101837499Y-92615000D01*
X102459472Y-92615000D01*
X102527091Y-92601550D01*
X102590787Y-92575166D01*
X102648112Y-92536863D01*
X102696863Y-92488112D01*
X102735166Y-92430787D01*
X102761550Y-92367091D01*
X102775000Y-92299472D01*
X102775000Y-92817600D01*
X101450001Y-92817600D01*
X101450001Y-92527500D01*
X101450001Y-91589999D01*
X101450001Y-91290001D01*
X101450001Y-90352500D01*
X101362501Y-90265000D01*
X100740528Y-90265000D01*
X100672909Y-90278450D01*
X100609213Y-90304834D01*
X100551888Y-90343137D01*
X100503137Y-90391888D01*
X100464834Y-90449213D01*
X100438450Y-90512909D01*
X100425000Y-90580528D01*
X100425000Y-90649472D01*
X100425000Y-91202501D01*
X100512500Y-91290001D01*
X101450001Y-91290001D01*
X101450001Y-91589999D01*
X100512500Y-91589999D01*
X100425000Y-91677499D01*
X100425000Y-92230528D01*
X100425000Y-92299472D01*
X100438450Y-92367091D01*
X100464834Y-92430787D01*
X100503137Y-92488112D01*
X100551888Y-92536863D01*
X100609213Y-92575166D01*
X100672909Y-92601550D01*
X100740528Y-92615000D01*
X101362501Y-92615000D01*
X101450001Y-92527500D01*
X101450001Y-92817600D01*
X100285052Y-92817600D01*
X100285052Y-91319883D01*
X100238390Y-91084223D01*
X100146844Y-90862115D01*
X100013900Y-90662018D01*
X99844622Y-90491554D01*
X99645459Y-90357217D01*
X99423995Y-90264122D01*
X99188667Y-90215816D01*
X98948438Y-90214139D01*
X98712458Y-90259155D01*
X98672939Y-90275121D01*
X97351935Y-88954117D01*
X97351935Y-88400000D01*
X97350000Y-88376189D01*
X97350000Y-87650000D01*
X98510000Y-87650000D01*
X98510000Y-88231118D01*
X98507703Y-88233368D01*
X98428207Y-88349469D01*
X98372776Y-88478800D01*
X98343521Y-88616434D01*
X98341557Y-88757129D01*
X98366957Y-88895527D01*
X98418756Y-89026355D01*
X98494979Y-89144630D01*
X98592724Y-89245848D01*
X98708267Y-89326152D01*
X98837207Y-89382485D01*
X98974634Y-89412700D01*
X99115312Y-89415647D01*
X99253884Y-89391213D01*
X99385070Y-89340329D01*
X99503875Y-89264934D01*
X99605772Y-89167898D01*
X99686881Y-89052918D01*
X99744113Y-88924374D01*
X99775287Y-88787162D01*
X99777531Y-88626445D01*
X99750201Y-88488416D01*
X99696580Y-88358324D01*
X99618713Y-88241125D01*
X99610000Y-88232350D01*
X99610000Y-87401400D01*
X99605042Y-87350838D01*
X99600614Y-87300227D01*
X99599807Y-87297450D01*
X99599525Y-87294571D01*
X99584837Y-87245923D01*
X99570667Y-87197148D01*
X99569336Y-87194580D01*
X99568500Y-87191811D01*
X99544631Y-87146921D01*
X99521268Y-87101848D01*
X99519465Y-87099590D01*
X99518107Y-87097035D01*
X99485965Y-87057624D01*
X99454300Y-87017959D01*
X99450331Y-87013934D01*
X99450264Y-87013851D01*
X99450187Y-87013787D01*
X99448909Y-87012491D01*
X99147509Y-86711091D01*
X99108256Y-86678849D01*
X99069332Y-86646188D01*
X99066795Y-86644793D01*
X99064562Y-86642959D01*
X99019783Y-86618948D01*
X98975268Y-86594476D01*
X98972513Y-86593602D01*
X98969962Y-86592234D01*
X98921333Y-86577366D01*
X98872951Y-86562019D01*
X98870078Y-86561696D01*
X98867312Y-86560851D01*
X98816725Y-86555712D01*
X98766279Y-86550054D01*
X98760631Y-86550014D01*
X98760520Y-86550003D01*
X98760416Y-86550012D01*
X98758600Y-86550000D01*
X97350000Y-86550000D01*
X97350000Y-86300000D01*
X97342388Y-86261732D01*
X97320711Y-86229289D01*
X97288268Y-86207612D01*
X97250000Y-86200000D01*
X96963646Y-86200000D01*
X96950000Y-86198065D01*
X96300000Y-86198065D01*
X96276189Y-86200000D01*
X96250000Y-86200000D01*
X96250000Y-83127818D01*
X96658818Y-82719000D01*
X97324093Y-82719000D01*
X97438267Y-82798352D01*
X97567207Y-82854685D01*
X97704634Y-82884900D01*
X97845312Y-82887847D01*
X97983884Y-82863413D01*
X98115070Y-82812529D01*
X98233875Y-82737134D01*
X98335772Y-82640098D01*
X98416881Y-82525118D01*
X98474113Y-82396574D01*
X98505287Y-82259362D01*
X98507531Y-82098645D01*
X98480201Y-81960616D01*
X98426580Y-81830524D01*
X98348713Y-81713325D01*
X98249565Y-81613482D01*
X98132912Y-81534798D01*
X98003197Y-81480271D01*
X97865362Y-81451978D01*
X97724656Y-81450995D01*
X97586440Y-81477361D01*
X97455977Y-81530072D01*
X97338236Y-81607119D01*
X97326103Y-81619000D01*
X96431000Y-81619000D01*
X96380438Y-81623957D01*
X96329827Y-81628386D01*
X96327050Y-81629192D01*
X96324171Y-81629475D01*
X96275523Y-81644162D01*
X96226748Y-81658333D01*
X96224180Y-81659663D01*
X96221411Y-81660500D01*
X96176521Y-81684368D01*
X96131448Y-81707732D01*
X96129190Y-81709534D01*
X96126635Y-81710893D01*
X96087224Y-81743034D01*
X96047559Y-81774700D01*
X96043534Y-81778668D01*
X96043451Y-81778736D01*
X96043387Y-81778812D01*
X96042091Y-81780091D01*
X95908201Y-81913980D01*
X95886580Y-81861524D01*
X95808713Y-81744325D01*
X95709565Y-81644482D01*
X95592912Y-81565798D01*
X95463197Y-81511271D01*
X95325362Y-81482978D01*
X95184656Y-81481995D01*
X95046440Y-81508361D01*
X94915977Y-81561072D01*
X94798236Y-81638119D01*
X94697703Y-81736568D01*
X94618207Y-81852669D01*
X94562776Y-81982000D01*
X94533521Y-82119634D01*
X94533251Y-82138930D01*
X94511091Y-82161091D01*
X94478849Y-82200343D01*
X94446188Y-82239268D01*
X94444793Y-82241804D01*
X94442959Y-82244038D01*
X94418948Y-82288816D01*
X94394476Y-82333332D01*
X94393602Y-82336086D01*
X94392234Y-82338638D01*
X94377366Y-82387266D01*
X94362019Y-82435649D01*
X94361696Y-82438521D01*
X94360851Y-82441288D01*
X94355712Y-82491874D01*
X94350054Y-82542321D01*
X94350014Y-82547968D01*
X94350003Y-82548080D01*
X94350012Y-82548183D01*
X94350000Y-82550000D01*
X94350000Y-86200000D01*
X94313646Y-86200000D01*
X94300000Y-86198065D01*
X93650000Y-86198065D01*
X93626189Y-86200000D01*
X93350000Y-86200000D01*
X93311732Y-86207612D01*
X93279289Y-86229289D01*
X93257612Y-86261732D01*
X93250000Y-86300000D01*
X93250000Y-86550000D01*
X93200000Y-86550000D01*
X93200000Y-82629709D01*
X93255772Y-82576598D01*
X93336881Y-82461618D01*
X93394113Y-82333074D01*
X93425287Y-82195862D01*
X93427531Y-82035145D01*
X93400201Y-81897116D01*
X93346580Y-81767024D01*
X93268713Y-81649825D01*
X93169565Y-81549982D01*
X93052912Y-81471298D01*
X92923197Y-81416771D01*
X92785362Y-81388478D01*
X92644656Y-81387495D01*
X92506440Y-81413861D01*
X92375977Y-81466572D01*
X92258236Y-81543619D01*
X92157703Y-81642068D01*
X92078207Y-81758169D01*
X92022776Y-81887500D01*
X91993521Y-82025134D01*
X91991557Y-82165829D01*
X92016957Y-82304227D01*
X92068756Y-82435055D01*
X92100000Y-82483536D01*
X92100000Y-86932316D01*
X92085768Y-86978864D01*
X92070421Y-87027247D01*
X92070098Y-87030119D01*
X92069253Y-87032886D01*
X92064114Y-87083472D01*
X92058456Y-87133919D01*
X92058416Y-87139566D01*
X92058405Y-87139678D01*
X92058414Y-87139781D01*
X92058402Y-87141598D01*
X92058402Y-88231118D01*
X92056105Y-88233368D01*
X91976609Y-88349469D01*
X91921178Y-88478800D01*
X91891923Y-88616434D01*
X91889959Y-88757129D01*
X91915359Y-88895527D01*
X91967158Y-89026355D01*
X92043381Y-89144630D01*
X92141126Y-89245848D01*
X92256669Y-89326152D01*
X92385609Y-89382485D01*
X92523036Y-89412700D01*
X92663714Y-89415647D01*
X92691421Y-89410761D01*
X91827978Y-90274203D01*
X91803995Y-90264122D01*
X91568667Y-90215816D01*
X91328438Y-90214139D01*
X91092458Y-90259155D01*
X90869716Y-90349148D01*
X90668696Y-90480692D01*
X90497055Y-90648775D01*
X90361330Y-90846996D01*
X90266692Y-91067805D01*
X90216744Y-91302790D01*
X90213390Y-91543001D01*
X90256757Y-91779289D01*
X90345193Y-92002654D01*
X90475331Y-92204588D01*
X90642212Y-92377398D01*
X90839480Y-92514503D01*
X91059623Y-92610681D01*
X91294253Y-92662268D01*
X91534436Y-92667299D01*
X91771021Y-92625583D01*
X91994997Y-92538708D01*
X92197834Y-92409984D01*
X92371806Y-92244313D01*
X92510285Y-92048006D01*
X92607997Y-91828541D01*
X92661221Y-91594276D01*
X92665052Y-91319883D01*
X92618390Y-91084223D01*
X92605315Y-91052502D01*
X93855882Y-89801935D01*
X94300000Y-89801935D01*
X94323810Y-89800000D01*
X94350000Y-89800000D01*
X94350000Y-90266646D01*
X94343995Y-90264122D01*
X94108667Y-90215816D01*
X93868438Y-90214139D01*
X93632458Y-90259155D01*
X93409716Y-90349148D01*
X93208696Y-90480692D01*
X93037055Y-90648775D01*
X92901330Y-90846996D01*
X92806692Y-91067805D01*
X92756744Y-91302790D01*
X92753390Y-91543001D01*
X92796757Y-91779289D01*
X92885193Y-92002654D01*
X93015331Y-92204588D01*
X93182212Y-92377398D01*
X93379480Y-92514503D01*
X93599623Y-92610681D01*
X93834253Y-92662268D01*
X94074436Y-92667299D01*
X94311021Y-92625583D01*
X94534997Y-92538708D01*
X94737834Y-92409984D01*
X94911806Y-92244313D01*
X95050285Y-92048006D01*
X95147997Y-91828541D01*
X95201221Y-91594276D01*
X95205052Y-91319883D01*
X95158390Y-91084223D01*
X95145315Y-91052501D01*
X95256069Y-90941747D01*
X95274034Y-90963775D01*
X95305700Y-91003441D01*
X95309668Y-91007465D01*
X95309736Y-91007549D01*
X95309812Y-91007612D01*
X95311091Y-91008909D01*
X95353680Y-91051498D01*
X95346692Y-91067805D01*
X95296744Y-91302790D01*
X95293390Y-91543001D01*
X95336757Y-91779289D01*
X95425193Y-92002654D01*
X95555331Y-92204588D01*
X95722212Y-92377398D01*
X95919480Y-92514503D01*
X96139623Y-92610681D01*
X96374253Y-92662268D01*
X96614436Y-92667299D01*
X96851021Y-92625583D01*
X97074997Y-92538708D01*
X97277834Y-92409984D01*
X97451806Y-92244313D01*
X97590285Y-92048006D01*
X97687997Y-91828541D01*
X97741221Y-91594276D01*
X97745052Y-91319883D01*
X97698390Y-91084223D01*
X97606844Y-90862115D01*
X97473900Y-90662018D01*
X97304622Y-90491554D01*
X97105459Y-90357217D01*
X96883995Y-90264122D01*
X96648667Y-90215816D01*
X96408438Y-90214139D01*
X96250000Y-90244362D01*
X96250000Y-89800000D01*
X96286353Y-89800000D01*
X96300000Y-89801935D01*
X96644117Y-89801935D01*
X97893680Y-91051498D01*
X97886692Y-91067805D01*
X97836744Y-91302790D01*
X97833390Y-91543001D01*
X97876757Y-91779289D01*
X97965193Y-92002654D01*
X98095331Y-92204588D01*
X98262212Y-92377398D01*
X98459480Y-92514503D01*
X98679623Y-92610681D01*
X98914253Y-92662268D01*
X99154436Y-92667299D01*
X99391021Y-92625583D01*
X99614997Y-92538708D01*
X99817834Y-92409984D01*
X99991806Y-92244313D01*
X100130285Y-92048006D01*
X100227997Y-91828541D01*
X100281221Y-91594276D01*
X100285052Y-91319883D01*
X100285052Y-92817600D01*
X90125052Y-92817600D01*
X90125052Y-91319883D01*
X90078390Y-91084223D01*
X89986844Y-90862115D01*
X89853900Y-90662018D01*
X89684622Y-90491554D01*
X89485459Y-90357217D01*
X89263995Y-90264122D01*
X89028667Y-90215816D01*
X88788438Y-90214139D01*
X88552458Y-90259155D01*
X88512938Y-90275121D01*
X87151935Y-88914117D01*
X87151935Y-88400000D01*
X87150000Y-88376189D01*
X87150000Y-87650000D01*
X88350000Y-87650000D01*
X88350000Y-88209318D01*
X88347703Y-88211568D01*
X88268207Y-88327669D01*
X88212776Y-88457000D01*
X88183521Y-88594634D01*
X88181557Y-88735329D01*
X88206957Y-88873727D01*
X88258756Y-89004555D01*
X88334979Y-89122830D01*
X88432724Y-89224048D01*
X88548267Y-89304352D01*
X88677207Y-89360685D01*
X88814634Y-89390900D01*
X88955312Y-89393847D01*
X89093884Y-89369413D01*
X89225070Y-89318529D01*
X89343875Y-89243134D01*
X89445772Y-89146098D01*
X89526881Y-89031118D01*
X89584113Y-88902574D01*
X89615287Y-88765362D01*
X89617531Y-88604645D01*
X89590201Y-88466616D01*
X89536580Y-88336524D01*
X89458713Y-88219325D01*
X89450000Y-88210550D01*
X89450000Y-87300000D01*
X89445041Y-87249434D01*
X89440614Y-87198827D01*
X89439807Y-87196050D01*
X89439525Y-87193171D01*
X89424837Y-87144523D01*
X89410667Y-87095748D01*
X89409336Y-87093180D01*
X89408500Y-87090411D01*
X89384641Y-87045540D01*
X89361269Y-87000449D01*
X89359465Y-86998189D01*
X89358107Y-86995635D01*
X89325974Y-86956236D01*
X89294301Y-86916560D01*
X89290331Y-86912534D01*
X89290264Y-86912451D01*
X89290187Y-86912387D01*
X89288909Y-86911091D01*
X89088909Y-86711091D01*
X89049656Y-86678849D01*
X89010732Y-86646188D01*
X89008195Y-86644793D01*
X89005962Y-86642959D01*
X88961183Y-86618948D01*
X88916668Y-86594476D01*
X88913913Y-86593602D01*
X88911362Y-86592234D01*
X88862733Y-86577366D01*
X88814351Y-86562019D01*
X88811478Y-86561696D01*
X88808712Y-86560851D01*
X88758125Y-86555712D01*
X88707679Y-86550054D01*
X88702031Y-86550014D01*
X88701920Y-86550003D01*
X88701816Y-86550012D01*
X88700000Y-86550000D01*
X87150000Y-86550000D01*
X87150000Y-86300000D01*
X87142388Y-86261732D01*
X87120711Y-86229289D01*
X87088268Y-86207612D01*
X87050000Y-86200000D01*
X86763646Y-86200000D01*
X86750000Y-86198065D01*
X86100000Y-86198065D01*
X86076189Y-86200000D01*
X86050000Y-86200000D01*
X86050000Y-83227818D01*
X86622318Y-82655500D01*
X87100593Y-82655500D01*
X87214767Y-82734852D01*
X87343707Y-82791185D01*
X87481134Y-82821400D01*
X87621812Y-82824347D01*
X87760384Y-82799913D01*
X87891570Y-82749029D01*
X88010375Y-82673634D01*
X88112272Y-82576598D01*
X88193381Y-82461618D01*
X88250613Y-82333074D01*
X88281787Y-82195862D01*
X88284031Y-82035145D01*
X88256701Y-81897116D01*
X88203080Y-81767024D01*
X88125213Y-81649825D01*
X88026065Y-81549982D01*
X87909412Y-81471298D01*
X87779697Y-81416771D01*
X87641862Y-81388478D01*
X87501156Y-81387495D01*
X87362940Y-81413861D01*
X87232477Y-81466572D01*
X87114736Y-81543619D01*
X87102603Y-81555500D01*
X86394500Y-81555500D01*
X86343938Y-81560457D01*
X86293327Y-81564886D01*
X86290550Y-81565692D01*
X86287671Y-81565975D01*
X86239023Y-81580662D01*
X86190248Y-81594833D01*
X86187680Y-81596163D01*
X86184911Y-81597000D01*
X86140021Y-81620868D01*
X86094948Y-81644232D01*
X86092690Y-81646034D01*
X86090135Y-81647393D01*
X86050724Y-81679534D01*
X86011059Y-81711200D01*
X86007034Y-81715168D01*
X86006951Y-81715236D01*
X86006887Y-81715312D01*
X86005591Y-81716591D01*
X85787616Y-81934565D01*
X85780201Y-81897116D01*
X85726580Y-81767024D01*
X85648713Y-81649825D01*
X85549565Y-81549982D01*
X85432912Y-81471298D01*
X85303197Y-81416771D01*
X85165362Y-81388478D01*
X85024656Y-81387495D01*
X84886440Y-81413861D01*
X84755977Y-81466572D01*
X84638236Y-81543619D01*
X84537703Y-81642068D01*
X84458207Y-81758169D01*
X84402776Y-81887500D01*
X84373521Y-82025134D01*
X84373251Y-82044430D01*
X84311091Y-82106591D01*
X84278849Y-82145843D01*
X84246188Y-82184768D01*
X84244793Y-82187304D01*
X84242959Y-82189538D01*
X84218948Y-82234316D01*
X84194476Y-82278832D01*
X84193602Y-82281586D01*
X84192234Y-82284138D01*
X84177366Y-82332766D01*
X84162019Y-82381149D01*
X84161696Y-82384021D01*
X84160851Y-82386788D01*
X84155712Y-82437374D01*
X84150054Y-82487821D01*
X84150014Y-82493468D01*
X84150003Y-82493580D01*
X84150012Y-82493683D01*
X84150000Y-82495500D01*
X84150000Y-86200000D01*
X84113646Y-86200000D01*
X84100000Y-86198065D01*
X83450000Y-86198065D01*
X83426189Y-86200000D01*
X83150000Y-86200000D01*
X83111732Y-86207612D01*
X83100000Y-86215450D01*
X83100000Y-82634104D01*
X83176881Y-82525118D01*
X83234113Y-82396574D01*
X83265287Y-82259362D01*
X83267531Y-82098645D01*
X83240201Y-81960616D01*
X83186580Y-81830524D01*
X83108713Y-81713325D01*
X83009565Y-81613482D01*
X82892912Y-81534798D01*
X82763197Y-81480271D01*
X82625362Y-81451978D01*
X82484656Y-81450995D01*
X82346440Y-81477361D01*
X82215977Y-81530072D01*
X82098236Y-81607119D01*
X81997703Y-81705568D01*
X81918207Y-81821669D01*
X81862776Y-81951000D01*
X81833521Y-82088634D01*
X81831557Y-82229329D01*
X81856957Y-82367727D01*
X81908756Y-82498555D01*
X81984979Y-82616830D01*
X82000000Y-82632384D01*
X82000000Y-87050000D01*
X82000000Y-87100000D01*
X82000000Y-88234318D01*
X81997703Y-88236568D01*
X81918207Y-88352669D01*
X81862776Y-88482000D01*
X81833521Y-88619634D01*
X81831557Y-88760329D01*
X81856957Y-88898727D01*
X81908756Y-89029555D01*
X81984979Y-89147830D01*
X82082724Y-89249048D01*
X82198267Y-89329352D01*
X82327207Y-89385685D01*
X82464634Y-89415900D01*
X82525017Y-89417164D01*
X81667978Y-90274203D01*
X81643995Y-90264122D01*
X81408667Y-90215816D01*
X81168438Y-90214139D01*
X80932458Y-90259155D01*
X80709716Y-90349148D01*
X80508696Y-90480692D01*
X80337055Y-90648775D01*
X80201330Y-90846996D01*
X80106692Y-91067805D01*
X80056744Y-91302790D01*
X80053390Y-91543001D01*
X80096757Y-91779289D01*
X80185193Y-92002654D01*
X80315331Y-92204588D01*
X80482212Y-92377398D01*
X80679480Y-92514503D01*
X80899623Y-92610681D01*
X81134253Y-92662268D01*
X81374436Y-92667299D01*
X81611021Y-92625583D01*
X81834997Y-92538708D01*
X82037834Y-92409984D01*
X82211806Y-92244313D01*
X82350285Y-92048006D01*
X82447997Y-91828541D01*
X82501221Y-91594276D01*
X82505052Y-91319883D01*
X82458390Y-91084223D01*
X82445315Y-91052502D01*
X83695883Y-89801935D01*
X84100000Y-89801935D01*
X84123810Y-89800000D01*
X84150000Y-89800000D01*
X84150000Y-90257143D01*
X83948667Y-90215816D01*
X83708438Y-90214139D01*
X83472458Y-90259155D01*
X83249716Y-90349148D01*
X83048696Y-90480692D01*
X82877055Y-90648775D01*
X82741330Y-90846996D01*
X82646692Y-91067805D01*
X82596744Y-91302790D01*
X82593390Y-91543001D01*
X82636757Y-91779289D01*
X82725193Y-92002654D01*
X82855331Y-92204588D01*
X83022212Y-92377398D01*
X83219480Y-92514503D01*
X83439623Y-92610681D01*
X83674253Y-92662268D01*
X83914436Y-92667299D01*
X84151021Y-92625583D01*
X84374997Y-92538708D01*
X84577834Y-92409984D01*
X84751806Y-92244313D01*
X84890285Y-92048006D01*
X84987997Y-91828541D01*
X85041221Y-91594276D01*
X85045052Y-91319883D01*
X84998390Y-91084223D01*
X84985315Y-91052502D01*
X85088909Y-90948909D01*
X85091541Y-90945704D01*
X85105700Y-90963441D01*
X85109668Y-90967465D01*
X85109736Y-90967549D01*
X85109812Y-90967612D01*
X85111091Y-90968909D01*
X85193680Y-91051498D01*
X85186692Y-91067805D01*
X85136744Y-91302790D01*
X85133390Y-91543001D01*
X85176757Y-91779289D01*
X85265193Y-92002654D01*
X85395331Y-92204588D01*
X85562212Y-92377398D01*
X85759480Y-92514503D01*
X85979623Y-92610681D01*
X86214253Y-92662268D01*
X86454436Y-92667299D01*
X86691021Y-92625583D01*
X86914997Y-92538708D01*
X87117834Y-92409984D01*
X87291806Y-92244313D01*
X87430285Y-92048006D01*
X87527997Y-91828541D01*
X87581221Y-91594276D01*
X87585052Y-91319883D01*
X87538390Y-91084223D01*
X87446844Y-90862115D01*
X87313900Y-90662018D01*
X87144622Y-90491554D01*
X86945459Y-90357217D01*
X86723995Y-90264122D01*
X86488667Y-90215816D01*
X86248438Y-90214139D01*
X86050000Y-90251993D01*
X86050000Y-89800000D01*
X86086353Y-89800000D01*
X86100000Y-89801935D01*
X86484117Y-89801935D01*
X87733680Y-91051498D01*
X87726692Y-91067805D01*
X87676744Y-91302790D01*
X87673390Y-91543001D01*
X87716757Y-91779289D01*
X87805193Y-92002654D01*
X87935331Y-92204588D01*
X88102212Y-92377398D01*
X88299480Y-92514503D01*
X88519623Y-92610681D01*
X88754253Y-92662268D01*
X88994436Y-92667299D01*
X89231021Y-92625583D01*
X89454997Y-92538708D01*
X89657834Y-92409984D01*
X89831806Y-92244313D01*
X89970285Y-92048006D01*
X90067997Y-91828541D01*
X90121221Y-91594276D01*
X90125052Y-91319883D01*
X90125052Y-92817600D01*
X80028338Y-92817600D01*
X79989450Y-92813787D01*
X79969680Y-92807818D01*
X79951450Y-92798125D01*
X79935451Y-92785076D01*
X79922285Y-92769162D01*
X79912464Y-92750998D01*
X79906359Y-92731276D01*
X79902400Y-92693600D01*
X79902400Y-81196737D01*
X79906212Y-81157850D01*
X79912181Y-81138080D01*
X79921874Y-81119851D01*
X79934925Y-81103849D01*
X79950837Y-81090685D01*
X79969001Y-81080864D01*
X79988723Y-81074759D01*
X80026399Y-81070800D01*
X102775462Y-81070800D01*
X102814349Y-81074612D01*
X102834119Y-81080581D01*
X102852348Y-81090274D01*
X102868350Y-81103325D01*
X102881514Y-81119237D01*
X102891335Y-81137401D01*
X102897440Y-81157123D01*
X102901400Y-81194799D01*
X102901400Y-92691661D01*
M02*
