G04 #@! TF.FileFunction,Legend,Bot*
%FSLAX46Y46*%
G04 Gerber Fmt 4.6, Leading zero omitted, Abs format (unit mm)*
G04 Created by KiCad (PCBNEW (2015-09-24 BZR 6212, Git 41e96e0)-product) date Fri 25 Sep 2015 09:42:02 AM CEST*
%MOMM*%
G01*
G04 APERTURE LIST*
%ADD10C,0.150000*%
%ADD11C,0.200000*%
%ADD12C,0.002540*%
%ADD13R,0.650000X1.000000*%
%ADD14R,0.500000X1.000000*%
%ADD15R,1.650000X1.650000*%
%ADD16C,1.650000*%
G04 APERTURE END LIST*
D10*
D11*
X99014286Y-83877143D02*
X99442857Y-83877143D01*
X99442857Y-82977143D01*
X98714286Y-83405714D02*
X98414286Y-83405714D01*
X98285715Y-83877143D02*
X98714286Y-83877143D01*
X98714286Y-82977143D01*
X98285715Y-82977143D01*
X97900000Y-83877143D02*
X97900000Y-82977143D01*
X97685715Y-82977143D01*
X97557143Y-83020000D01*
X97471429Y-83105714D01*
X97428572Y-83191429D01*
X97385715Y-83362857D01*
X97385715Y-83491429D01*
X97428572Y-83662857D01*
X97471429Y-83748571D01*
X97557143Y-83834286D01*
X97685715Y-83877143D01*
X97900000Y-83877143D01*
X97214286Y-83962857D02*
X96528572Y-83962857D01*
X96314286Y-83277143D02*
X96314286Y-84177143D01*
X96314286Y-83320000D02*
X96228572Y-83277143D01*
X96057143Y-83277143D01*
X95971429Y-83320000D01*
X95928572Y-83362857D01*
X95885715Y-83448571D01*
X95885715Y-83705714D01*
X95928572Y-83791429D01*
X95971429Y-83834286D01*
X96057143Y-83877143D01*
X96228572Y-83877143D01*
X96314286Y-83834286D01*
X95371429Y-83877143D02*
X95457143Y-83834286D01*
X95500000Y-83791429D01*
X95542857Y-83705714D01*
X95542857Y-83448571D01*
X95500000Y-83362857D01*
X95457143Y-83320000D01*
X95371429Y-83277143D01*
X95242857Y-83277143D01*
X95157143Y-83320000D01*
X95114286Y-83362857D01*
X95071429Y-83448571D01*
X95071429Y-83705714D01*
X95114286Y-83791429D01*
X95157143Y-83834286D01*
X95242857Y-83877143D01*
X95371429Y-83877143D01*
X94685714Y-83877143D02*
X94685714Y-83277143D01*
X94685714Y-83448571D02*
X94642857Y-83362857D01*
X94600000Y-83320000D01*
X94514286Y-83277143D01*
X94428571Y-83277143D01*
X94257143Y-83277143D02*
X93914286Y-83277143D01*
X94128571Y-82977143D02*
X94128571Y-83748571D01*
X94085714Y-83834286D01*
X94000000Y-83877143D01*
X93914286Y-83877143D01*
X93614285Y-83534286D02*
X92928571Y-83534286D01*
X92542856Y-83834286D02*
X92457142Y-83877143D01*
X92285714Y-83877143D01*
X92199999Y-83834286D01*
X92157142Y-83748571D01*
X92157142Y-83705714D01*
X92199999Y-83620000D01*
X92285714Y-83577143D01*
X92414285Y-83577143D01*
X92499999Y-83534286D01*
X92542856Y-83448571D01*
X92542856Y-83405714D01*
X92499999Y-83320000D01*
X92414285Y-83277143D01*
X92285714Y-83277143D01*
X92199999Y-83320000D01*
X91900000Y-83277143D02*
X91557143Y-83277143D01*
X91771428Y-82977143D02*
X91771428Y-83748571D01*
X91728571Y-83834286D01*
X91642857Y-83877143D01*
X91557143Y-83877143D01*
X90871428Y-83877143D02*
X90871428Y-83405714D01*
X90914285Y-83320000D01*
X90999999Y-83277143D01*
X91171428Y-83277143D01*
X91257142Y-83320000D01*
X90871428Y-83834286D02*
X90957142Y-83877143D01*
X91171428Y-83877143D01*
X91257142Y-83834286D01*
X91299999Y-83748571D01*
X91299999Y-83662857D01*
X91257142Y-83577143D01*
X91171428Y-83534286D01*
X90957142Y-83534286D01*
X90871428Y-83491429D01*
X90571428Y-83277143D02*
X90228571Y-83277143D01*
X90442856Y-82977143D02*
X90442856Y-83748571D01*
X90399999Y-83834286D01*
X90314285Y-83877143D01*
X90228571Y-83877143D01*
X89542856Y-83277143D02*
X89542856Y-83877143D01*
X89928570Y-83277143D02*
X89928570Y-83748571D01*
X89885713Y-83834286D01*
X89799999Y-83877143D01*
X89671427Y-83877143D01*
X89585713Y-83834286D01*
X89542856Y-83791429D01*
X89157141Y-83834286D02*
X89071427Y-83877143D01*
X88899999Y-83877143D01*
X88814284Y-83834286D01*
X88771427Y-83748571D01*
X88771427Y-83705714D01*
X88814284Y-83620000D01*
X88899999Y-83577143D01*
X89028570Y-83577143D01*
X89114284Y-83534286D01*
X89157141Y-83448571D01*
X89157141Y-83405714D01*
X89114284Y-83320000D01*
X89028570Y-83277143D01*
X88899999Y-83277143D01*
X88814284Y-83320000D01*
X87828571Y-82977143D02*
X87528571Y-83877143D01*
X87228571Y-82977143D01*
X86757142Y-82977143D02*
X86671427Y-82977143D01*
X86585713Y-83020000D01*
X86542856Y-83062857D01*
X86499999Y-83148571D01*
X86457142Y-83320000D01*
X86457142Y-83534286D01*
X86499999Y-83705714D01*
X86542856Y-83791429D01*
X86585713Y-83834286D01*
X86671427Y-83877143D01*
X86757142Y-83877143D01*
X86842856Y-83834286D01*
X86885713Y-83791429D01*
X86928570Y-83705714D01*
X86971427Y-83534286D01*
X86971427Y-83320000D01*
X86928570Y-83148571D01*
X86885713Y-83062857D01*
X86842856Y-83020000D01*
X86757142Y-82977143D01*
X86071427Y-83791429D02*
X86028570Y-83834286D01*
X86071427Y-83877143D01*
X86114284Y-83834286D01*
X86071427Y-83791429D01*
X86071427Y-83877143D01*
X85685713Y-83062857D02*
X85642856Y-83020000D01*
X85557142Y-82977143D01*
X85342856Y-82977143D01*
X85257142Y-83020000D01*
X85214285Y-83062857D01*
X85171428Y-83148571D01*
X85171428Y-83234286D01*
X85214285Y-83362857D01*
X85728571Y-83877143D01*
X85171428Y-83877143D01*
X84314285Y-83877143D02*
X84828570Y-83877143D01*
X84571428Y-83877143D02*
X84571428Y-82977143D01*
X84657142Y-83105714D01*
X84742856Y-83191429D01*
X84828570Y-83234286D01*
X83928570Y-83791429D02*
X83885713Y-83834286D01*
X83928570Y-83877143D01*
X83971427Y-83834286D01*
X83928570Y-83791429D01*
X83928570Y-83877143D01*
X83114285Y-83834286D02*
X83199999Y-83877143D01*
X83371428Y-83877143D01*
X83457142Y-83834286D01*
X83499999Y-83791429D01*
X83542856Y-83705714D01*
X83542856Y-83448571D01*
X83499999Y-83362857D01*
X83457142Y-83320000D01*
X83371428Y-83277143D01*
X83199999Y-83277143D01*
X83114285Y-83320000D01*
X100964286Y-84522857D02*
X100921429Y-84480000D01*
X100835715Y-84437143D01*
X100621429Y-84437143D01*
X100535715Y-84480000D01*
X100492858Y-84522857D01*
X100450001Y-84608571D01*
X100450001Y-84694286D01*
X100492858Y-84822857D01*
X101007144Y-85337143D01*
X100450001Y-85337143D01*
X99892858Y-84437143D02*
X99807143Y-84437143D01*
X99721429Y-84480000D01*
X99678572Y-84522857D01*
X99635715Y-84608571D01*
X99592858Y-84780000D01*
X99592858Y-84994286D01*
X99635715Y-85165714D01*
X99678572Y-85251429D01*
X99721429Y-85294286D01*
X99807143Y-85337143D01*
X99892858Y-85337143D01*
X99978572Y-85294286D01*
X100021429Y-85251429D01*
X100064286Y-85165714D01*
X100107143Y-84994286D01*
X100107143Y-84780000D01*
X100064286Y-84608571D01*
X100021429Y-84522857D01*
X99978572Y-84480000D01*
X99892858Y-84437143D01*
X98735715Y-85337143D02*
X99250000Y-85337143D01*
X98992858Y-85337143D02*
X98992858Y-84437143D01*
X99078572Y-84565714D01*
X99164286Y-84651429D01*
X99250000Y-84694286D01*
X97921429Y-84437143D02*
X98350000Y-84437143D01*
X98392857Y-84865714D01*
X98350000Y-84822857D01*
X98264286Y-84780000D01*
X98050000Y-84780000D01*
X97964286Y-84822857D01*
X97921429Y-84865714D01*
X97878572Y-84951429D01*
X97878572Y-85165714D01*
X97921429Y-85251429D01*
X97964286Y-85294286D01*
X98050000Y-85337143D01*
X98264286Y-85337143D01*
X98350000Y-85294286D01*
X98392857Y-85251429D01*
X96807143Y-84994286D02*
X96121429Y-84994286D01*
X95007143Y-85337143D02*
X95007143Y-84437143D01*
X95007143Y-84780000D02*
X94921429Y-84737143D01*
X94750000Y-84737143D01*
X94664286Y-84780000D01*
X94621429Y-84822857D01*
X94578572Y-84908571D01*
X94578572Y-85165714D01*
X94621429Y-85251429D01*
X94664286Y-85294286D01*
X94750000Y-85337143D01*
X94921429Y-85337143D01*
X95007143Y-85294286D01*
X94064286Y-85337143D02*
X94150000Y-85294286D01*
X94192857Y-85208571D01*
X94192857Y-84437143D01*
X93592857Y-85337143D02*
X93678571Y-85294286D01*
X93721428Y-85251429D01*
X93764285Y-85165714D01*
X93764285Y-84908571D01*
X93721428Y-84822857D01*
X93678571Y-84780000D01*
X93592857Y-84737143D01*
X93464285Y-84737143D01*
X93378571Y-84780000D01*
X93335714Y-84822857D01*
X93292857Y-84908571D01*
X93292857Y-85165714D01*
X93335714Y-85251429D01*
X93378571Y-85294286D01*
X93464285Y-85337143D01*
X93592857Y-85337143D01*
X92521428Y-84737143D02*
X92521428Y-85465714D01*
X92564285Y-85551429D01*
X92607142Y-85594286D01*
X92692857Y-85637143D01*
X92821428Y-85637143D01*
X92907142Y-85594286D01*
X92521428Y-85294286D02*
X92607142Y-85337143D01*
X92778571Y-85337143D01*
X92864285Y-85294286D01*
X92907142Y-85251429D01*
X92949999Y-85165714D01*
X92949999Y-84908571D01*
X92907142Y-84822857D01*
X92864285Y-84780000D01*
X92778571Y-84737143D01*
X92607142Y-84737143D01*
X92521428Y-84780000D01*
X92092856Y-85251429D02*
X92049999Y-85294286D01*
X92092856Y-85337143D01*
X92135713Y-85294286D01*
X92092856Y-85251429D01*
X92092856Y-85337143D01*
X91707142Y-85294286D02*
X91621428Y-85337143D01*
X91450000Y-85337143D01*
X91364285Y-85294286D01*
X91321428Y-85208571D01*
X91321428Y-85165714D01*
X91364285Y-85080000D01*
X91450000Y-85037143D01*
X91578571Y-85037143D01*
X91664285Y-84994286D01*
X91707142Y-84908571D01*
X91707142Y-84865714D01*
X91664285Y-84780000D01*
X91578571Y-84737143D01*
X91450000Y-84737143D01*
X91364285Y-84780000D01*
X90935714Y-84737143D02*
X90935714Y-85637143D01*
X90935714Y-84780000D02*
X90850000Y-84737143D01*
X90678571Y-84737143D01*
X90592857Y-84780000D01*
X90550000Y-84822857D01*
X90507143Y-84908571D01*
X90507143Y-85165714D01*
X90550000Y-85251429D01*
X90592857Y-85294286D01*
X90678571Y-85337143D01*
X90850000Y-85337143D01*
X90935714Y-85294286D01*
X90121428Y-85337143D02*
X90121428Y-84737143D01*
X90121428Y-84437143D02*
X90164285Y-84480000D01*
X90121428Y-84522857D01*
X90078571Y-84480000D01*
X90121428Y-84437143D01*
X90121428Y-84522857D01*
X89821429Y-84737143D02*
X89478572Y-84737143D01*
X89692857Y-84437143D02*
X89692857Y-85208571D01*
X89650000Y-85294286D01*
X89564286Y-85337143D01*
X89478572Y-85337143D01*
X89264286Y-84737143D02*
X88792857Y-84737143D01*
X89264286Y-85337143D01*
X88792857Y-85337143D01*
X88107143Y-85294286D02*
X88192857Y-85337143D01*
X88364286Y-85337143D01*
X88450000Y-85294286D01*
X88492857Y-85208571D01*
X88492857Y-84865714D01*
X88450000Y-84780000D01*
X88364286Y-84737143D01*
X88192857Y-84737143D01*
X88107143Y-84780000D01*
X88064286Y-84865714D01*
X88064286Y-84951429D01*
X88492857Y-85037143D01*
X87678571Y-84737143D02*
X87678571Y-85337143D01*
X87678571Y-84822857D02*
X87635714Y-84780000D01*
X87550000Y-84737143D01*
X87421428Y-84737143D01*
X87335714Y-84780000D01*
X87292857Y-84865714D01*
X87292857Y-85337143D01*
X86864285Y-84737143D02*
X86864285Y-85637143D01*
X86864285Y-84780000D02*
X86778571Y-84737143D01*
X86607142Y-84737143D01*
X86521428Y-84780000D01*
X86478571Y-84822857D01*
X86435714Y-84908571D01*
X86435714Y-85165714D01*
X86478571Y-85251429D01*
X86521428Y-85294286D01*
X86607142Y-85337143D01*
X86778571Y-85337143D01*
X86864285Y-85294286D01*
X86178571Y-84737143D02*
X85835714Y-84737143D01*
X86049999Y-85337143D02*
X86049999Y-84565714D01*
X86007142Y-84480000D01*
X85921428Y-84437143D01*
X85835714Y-84437143D01*
X85192856Y-85294286D02*
X85278570Y-85337143D01*
X85449999Y-85337143D01*
X85535713Y-85294286D01*
X85578570Y-85208571D01*
X85578570Y-84865714D01*
X85535713Y-84780000D01*
X85449999Y-84737143D01*
X85278570Y-84737143D01*
X85192856Y-84780000D01*
X85149999Y-84865714D01*
X85149999Y-84951429D01*
X85578570Y-85037143D01*
X84764284Y-85337143D02*
X84764284Y-84737143D01*
X84764284Y-84437143D02*
X84807141Y-84480000D01*
X84764284Y-84522857D01*
X84721427Y-84480000D01*
X84764284Y-84437143D01*
X84764284Y-84522857D01*
X84207142Y-85337143D02*
X84292856Y-85294286D01*
X84335713Y-85208571D01*
X84335713Y-84437143D01*
X83864284Y-85251429D02*
X83821427Y-85294286D01*
X83864284Y-85337143D01*
X83907141Y-85294286D01*
X83864284Y-85251429D01*
X83864284Y-85337143D01*
X83307142Y-85337143D02*
X83392856Y-85294286D01*
X83435713Y-85251429D01*
X83478570Y-85165714D01*
X83478570Y-84908571D01*
X83435713Y-84822857D01*
X83392856Y-84780000D01*
X83307142Y-84737143D01*
X83178570Y-84737143D01*
X83092856Y-84780000D01*
X83049999Y-84822857D01*
X83007142Y-84908571D01*
X83007142Y-85165714D01*
X83049999Y-85251429D01*
X83092856Y-85294286D01*
X83178570Y-85337143D01*
X83307142Y-85337143D01*
X82621427Y-85337143D02*
X82621427Y-84737143D01*
X82621427Y-84908571D02*
X82578570Y-84822857D01*
X82535713Y-84780000D01*
X82449999Y-84737143D01*
X82364284Y-84737143D01*
X81678570Y-84737143D02*
X81678570Y-85465714D01*
X81721427Y-85551429D01*
X81764284Y-85594286D01*
X81849999Y-85637143D01*
X81978570Y-85637143D01*
X82064284Y-85594286D01*
X81678570Y-85294286D02*
X81764284Y-85337143D01*
X81935713Y-85337143D01*
X82021427Y-85294286D01*
X82064284Y-85251429D01*
X82107141Y-85165714D01*
X82107141Y-84908571D01*
X82064284Y-84822857D01*
X82021427Y-84780000D01*
X81935713Y-84737143D01*
X81764284Y-84737143D01*
X81678570Y-84780000D01*
D12*
G36*
X80490680Y-83846200D02*
X80508460Y-83838580D01*
X80541480Y-83815720D01*
X80592280Y-83782700D01*
X80650700Y-83744600D01*
X80711660Y-83703960D01*
X80759920Y-83670940D01*
X80795480Y-83648080D01*
X80808180Y-83640460D01*
X80815800Y-83643000D01*
X80843740Y-83658240D01*
X80884380Y-83678560D01*
X80909780Y-83691260D01*
X80947880Y-83706500D01*
X80965660Y-83711580D01*
X80968200Y-83706500D01*
X80983440Y-83676020D01*
X81003760Y-83627760D01*
X81031700Y-83561720D01*
X81064720Y-83485520D01*
X81100280Y-83404240D01*
X81133300Y-83320420D01*
X81166320Y-83241680D01*
X81196800Y-83168020D01*
X81219660Y-83109600D01*
X81234900Y-83068960D01*
X81242520Y-83051180D01*
X81239980Y-83048640D01*
X81222200Y-83030860D01*
X81189180Y-83005460D01*
X81118060Y-82947040D01*
X81046940Y-82860680D01*
X81003760Y-82761620D01*
X80991060Y-82649860D01*
X81001220Y-82548260D01*
X81041860Y-82451740D01*
X81110440Y-82362840D01*
X81194260Y-82296800D01*
X81290780Y-82256160D01*
X81400000Y-82243460D01*
X81504140Y-82253620D01*
X81603200Y-82294260D01*
X81692100Y-82360300D01*
X81730200Y-82403480D01*
X81781000Y-82494920D01*
X81811480Y-82588900D01*
X81814020Y-82611760D01*
X81808940Y-82718440D01*
X81778460Y-82820040D01*
X81722580Y-82908940D01*
X81646380Y-82982600D01*
X81636220Y-82990220D01*
X81600660Y-83018160D01*
X81575260Y-83035940D01*
X81557480Y-83051180D01*
X81692100Y-83373760D01*
X81712420Y-83424560D01*
X81750520Y-83513460D01*
X81781000Y-83589660D01*
X81808940Y-83650620D01*
X81826720Y-83691260D01*
X81834340Y-83706500D01*
X81834340Y-83706500D01*
X81847040Y-83709040D01*
X81869900Y-83701420D01*
X81915620Y-83678560D01*
X81946100Y-83663320D01*
X81979120Y-83648080D01*
X81994360Y-83640460D01*
X82009600Y-83648080D01*
X82042620Y-83668400D01*
X82088340Y-83701420D01*
X82146760Y-83739520D01*
X82202640Y-83777620D01*
X82253440Y-83810640D01*
X82289000Y-83836040D01*
X82306780Y-83843660D01*
X82309320Y-83843660D01*
X82327100Y-83836040D01*
X82355040Y-83810640D01*
X82398220Y-83770000D01*
X82461720Y-83709040D01*
X82471880Y-83698880D01*
X82522680Y-83648080D01*
X82563320Y-83602360D01*
X82591260Y-83571880D01*
X82601420Y-83559180D01*
X82601420Y-83559180D01*
X82591260Y-83541400D01*
X82568400Y-83503300D01*
X82535380Y-83452500D01*
X82494740Y-83391540D01*
X82388060Y-83236600D01*
X82446480Y-83091820D01*
X82464260Y-83046100D01*
X82487120Y-82990220D01*
X82504900Y-82952120D01*
X82512520Y-82934340D01*
X82530300Y-82929260D01*
X82568400Y-82919100D01*
X82626820Y-82908940D01*
X82697940Y-82896240D01*
X82763980Y-82883540D01*
X82822400Y-82870840D01*
X82865580Y-82863220D01*
X82885900Y-82860680D01*
X82890980Y-82855600D01*
X82893520Y-82847980D01*
X82896060Y-82827660D01*
X82898600Y-82789560D01*
X82898600Y-82733680D01*
X82898600Y-82649860D01*
X82898600Y-82642240D01*
X82898600Y-82563500D01*
X82896060Y-82500000D01*
X82893520Y-82461900D01*
X82890980Y-82444120D01*
X82890980Y-82444120D01*
X82873200Y-82439040D01*
X82830020Y-82431420D01*
X82771600Y-82418720D01*
X82700480Y-82406020D01*
X82695400Y-82406020D01*
X82624280Y-82390780D01*
X82565860Y-82378080D01*
X82522680Y-82370460D01*
X82504900Y-82362840D01*
X82502360Y-82357760D01*
X82487120Y-82329820D01*
X82466800Y-82286640D01*
X82443940Y-82233300D01*
X82421080Y-82177420D01*
X82400760Y-82126620D01*
X82388060Y-82091060D01*
X82382980Y-82073280D01*
X82382980Y-82073280D01*
X82393140Y-82055500D01*
X82418540Y-82019940D01*
X82454100Y-81969140D01*
X82494740Y-81908180D01*
X82497280Y-81903100D01*
X82537920Y-81842140D01*
X82570940Y-81791340D01*
X82593800Y-81755780D01*
X82601420Y-81740540D01*
X82601420Y-81738000D01*
X82588720Y-81720220D01*
X82558240Y-81687200D01*
X82512520Y-81641480D01*
X82461720Y-81588140D01*
X82443940Y-81572900D01*
X82385520Y-81514480D01*
X82344880Y-81478920D01*
X82319480Y-81458600D01*
X82309320Y-81453520D01*
X82306780Y-81453520D01*
X82289000Y-81463680D01*
X82250900Y-81489080D01*
X82200100Y-81524640D01*
X82139140Y-81565280D01*
X82136600Y-81567820D01*
X82075640Y-81608460D01*
X82024840Y-81644020D01*
X81989280Y-81666880D01*
X81974040Y-81674500D01*
X81971500Y-81674500D01*
X81948640Y-81669420D01*
X81905460Y-81654180D01*
X81852120Y-81633860D01*
X81796240Y-81611000D01*
X81745440Y-81590680D01*
X81709880Y-81572900D01*
X81692100Y-81562740D01*
X81689560Y-81562740D01*
X81684480Y-81539880D01*
X81674320Y-81494160D01*
X81661620Y-81433200D01*
X81646380Y-81359540D01*
X81643840Y-81349380D01*
X81631140Y-81275720D01*
X81620980Y-81217300D01*
X81610820Y-81176660D01*
X81608280Y-81158880D01*
X81598120Y-81158880D01*
X81562560Y-81156340D01*
X81509220Y-81153800D01*
X81443180Y-81153800D01*
X81377140Y-81153800D01*
X81311100Y-81153800D01*
X81255220Y-81156340D01*
X81214580Y-81158880D01*
X81196800Y-81163960D01*
X81196800Y-81163960D01*
X81191720Y-81186820D01*
X81181560Y-81230000D01*
X81168860Y-81293500D01*
X81153620Y-81367160D01*
X81151080Y-81379860D01*
X81138380Y-81450980D01*
X81125680Y-81509400D01*
X81118060Y-81550040D01*
X81112980Y-81565280D01*
X81107900Y-81567820D01*
X81077420Y-81583060D01*
X81029160Y-81600840D01*
X80970740Y-81626240D01*
X80833580Y-81682120D01*
X80665940Y-81565280D01*
X80650700Y-81555120D01*
X80589740Y-81514480D01*
X80538940Y-81481460D01*
X80503380Y-81458600D01*
X80490680Y-81450980D01*
X80488140Y-81450980D01*
X80472900Y-81466220D01*
X80439880Y-81496700D01*
X80394160Y-81542420D01*
X80340820Y-81593220D01*
X80300180Y-81633860D01*
X80254460Y-81679580D01*
X80226520Y-81712600D01*
X80208740Y-81732920D01*
X80203660Y-81745620D01*
X80206200Y-81753240D01*
X80216360Y-81771020D01*
X80241760Y-81806580D01*
X80274780Y-81859920D01*
X80315420Y-81918340D01*
X80350980Y-81969140D01*
X80386540Y-82025020D01*
X80409400Y-82065660D01*
X80419560Y-82083440D01*
X80417020Y-82093600D01*
X80404320Y-82126620D01*
X80384000Y-82174880D01*
X80358600Y-82235840D01*
X80300180Y-82367920D01*
X80213820Y-82385700D01*
X80160480Y-82395860D01*
X80086820Y-82408560D01*
X80015700Y-82423800D01*
X79903940Y-82444120D01*
X79901400Y-82847980D01*
X79919180Y-82855600D01*
X79934420Y-82860680D01*
X79975060Y-82870840D01*
X80033480Y-82881000D01*
X80102060Y-82893700D01*
X80163020Y-82906400D01*
X80221440Y-82916560D01*
X80264620Y-82924180D01*
X80282400Y-82929260D01*
X80287480Y-82934340D01*
X80302720Y-82964820D01*
X80323040Y-83010540D01*
X80345900Y-83063880D01*
X80371300Y-83122300D01*
X80391620Y-83173100D01*
X80406860Y-83213740D01*
X80411940Y-83234060D01*
X80404320Y-83249300D01*
X80381460Y-83284860D01*
X80348440Y-83335660D01*
X80307800Y-83394080D01*
X80267160Y-83452500D01*
X80234140Y-83503300D01*
X80208740Y-83538860D01*
X80201120Y-83556640D01*
X80206200Y-83566800D01*
X80229060Y-83594740D01*
X80272240Y-83640460D01*
X80338280Y-83706500D01*
X80350980Y-83716660D01*
X80401780Y-83767460D01*
X80447500Y-83808100D01*
X80477980Y-83836040D01*
X80490680Y-83846200D01*
X80490680Y-83846200D01*
G37*
X80490680Y-83846200D02*
X80508460Y-83838580D01*
X80541480Y-83815720D01*
X80592280Y-83782700D01*
X80650700Y-83744600D01*
X80711660Y-83703960D01*
X80759920Y-83670940D01*
X80795480Y-83648080D01*
X80808180Y-83640460D01*
X80815800Y-83643000D01*
X80843740Y-83658240D01*
X80884380Y-83678560D01*
X80909780Y-83691260D01*
X80947880Y-83706500D01*
X80965660Y-83711580D01*
X80968200Y-83706500D01*
X80983440Y-83676020D01*
X81003760Y-83627760D01*
X81031700Y-83561720D01*
X81064720Y-83485520D01*
X81100280Y-83404240D01*
X81133300Y-83320420D01*
X81166320Y-83241680D01*
X81196800Y-83168020D01*
X81219660Y-83109600D01*
X81234900Y-83068960D01*
X81242520Y-83051180D01*
X81239980Y-83048640D01*
X81222200Y-83030860D01*
X81189180Y-83005460D01*
X81118060Y-82947040D01*
X81046940Y-82860680D01*
X81003760Y-82761620D01*
X80991060Y-82649860D01*
X81001220Y-82548260D01*
X81041860Y-82451740D01*
X81110440Y-82362840D01*
X81194260Y-82296800D01*
X81290780Y-82256160D01*
X81400000Y-82243460D01*
X81504140Y-82253620D01*
X81603200Y-82294260D01*
X81692100Y-82360300D01*
X81730200Y-82403480D01*
X81781000Y-82494920D01*
X81811480Y-82588900D01*
X81814020Y-82611760D01*
X81808940Y-82718440D01*
X81778460Y-82820040D01*
X81722580Y-82908940D01*
X81646380Y-82982600D01*
X81636220Y-82990220D01*
X81600660Y-83018160D01*
X81575260Y-83035940D01*
X81557480Y-83051180D01*
X81692100Y-83373760D01*
X81712420Y-83424560D01*
X81750520Y-83513460D01*
X81781000Y-83589660D01*
X81808940Y-83650620D01*
X81826720Y-83691260D01*
X81834340Y-83706500D01*
X81834340Y-83706500D01*
X81847040Y-83709040D01*
X81869900Y-83701420D01*
X81915620Y-83678560D01*
X81946100Y-83663320D01*
X81979120Y-83648080D01*
X81994360Y-83640460D01*
X82009600Y-83648080D01*
X82042620Y-83668400D01*
X82088340Y-83701420D01*
X82146760Y-83739520D01*
X82202640Y-83777620D01*
X82253440Y-83810640D01*
X82289000Y-83836040D01*
X82306780Y-83843660D01*
X82309320Y-83843660D01*
X82327100Y-83836040D01*
X82355040Y-83810640D01*
X82398220Y-83770000D01*
X82461720Y-83709040D01*
X82471880Y-83698880D01*
X82522680Y-83648080D01*
X82563320Y-83602360D01*
X82591260Y-83571880D01*
X82601420Y-83559180D01*
X82601420Y-83559180D01*
X82591260Y-83541400D01*
X82568400Y-83503300D01*
X82535380Y-83452500D01*
X82494740Y-83391540D01*
X82388060Y-83236600D01*
X82446480Y-83091820D01*
X82464260Y-83046100D01*
X82487120Y-82990220D01*
X82504900Y-82952120D01*
X82512520Y-82934340D01*
X82530300Y-82929260D01*
X82568400Y-82919100D01*
X82626820Y-82908940D01*
X82697940Y-82896240D01*
X82763980Y-82883540D01*
X82822400Y-82870840D01*
X82865580Y-82863220D01*
X82885900Y-82860680D01*
X82890980Y-82855600D01*
X82893520Y-82847980D01*
X82896060Y-82827660D01*
X82898600Y-82789560D01*
X82898600Y-82733680D01*
X82898600Y-82649860D01*
X82898600Y-82642240D01*
X82898600Y-82563500D01*
X82896060Y-82500000D01*
X82893520Y-82461900D01*
X82890980Y-82444120D01*
X82890980Y-82444120D01*
X82873200Y-82439040D01*
X82830020Y-82431420D01*
X82771600Y-82418720D01*
X82700480Y-82406020D01*
X82695400Y-82406020D01*
X82624280Y-82390780D01*
X82565860Y-82378080D01*
X82522680Y-82370460D01*
X82504900Y-82362840D01*
X82502360Y-82357760D01*
X82487120Y-82329820D01*
X82466800Y-82286640D01*
X82443940Y-82233300D01*
X82421080Y-82177420D01*
X82400760Y-82126620D01*
X82388060Y-82091060D01*
X82382980Y-82073280D01*
X82382980Y-82073280D01*
X82393140Y-82055500D01*
X82418540Y-82019940D01*
X82454100Y-81969140D01*
X82494740Y-81908180D01*
X82497280Y-81903100D01*
X82537920Y-81842140D01*
X82570940Y-81791340D01*
X82593800Y-81755780D01*
X82601420Y-81740540D01*
X82601420Y-81738000D01*
X82588720Y-81720220D01*
X82558240Y-81687200D01*
X82512520Y-81641480D01*
X82461720Y-81588140D01*
X82443940Y-81572900D01*
X82385520Y-81514480D01*
X82344880Y-81478920D01*
X82319480Y-81458600D01*
X82309320Y-81453520D01*
X82306780Y-81453520D01*
X82289000Y-81463680D01*
X82250900Y-81489080D01*
X82200100Y-81524640D01*
X82139140Y-81565280D01*
X82136600Y-81567820D01*
X82075640Y-81608460D01*
X82024840Y-81644020D01*
X81989280Y-81666880D01*
X81974040Y-81674500D01*
X81971500Y-81674500D01*
X81948640Y-81669420D01*
X81905460Y-81654180D01*
X81852120Y-81633860D01*
X81796240Y-81611000D01*
X81745440Y-81590680D01*
X81709880Y-81572900D01*
X81692100Y-81562740D01*
X81689560Y-81562740D01*
X81684480Y-81539880D01*
X81674320Y-81494160D01*
X81661620Y-81433200D01*
X81646380Y-81359540D01*
X81643840Y-81349380D01*
X81631140Y-81275720D01*
X81620980Y-81217300D01*
X81610820Y-81176660D01*
X81608280Y-81158880D01*
X81598120Y-81158880D01*
X81562560Y-81156340D01*
X81509220Y-81153800D01*
X81443180Y-81153800D01*
X81377140Y-81153800D01*
X81311100Y-81153800D01*
X81255220Y-81156340D01*
X81214580Y-81158880D01*
X81196800Y-81163960D01*
X81196800Y-81163960D01*
X81191720Y-81186820D01*
X81181560Y-81230000D01*
X81168860Y-81293500D01*
X81153620Y-81367160D01*
X81151080Y-81379860D01*
X81138380Y-81450980D01*
X81125680Y-81509400D01*
X81118060Y-81550040D01*
X81112980Y-81565280D01*
X81107900Y-81567820D01*
X81077420Y-81583060D01*
X81029160Y-81600840D01*
X80970740Y-81626240D01*
X80833580Y-81682120D01*
X80665940Y-81565280D01*
X80650700Y-81555120D01*
X80589740Y-81514480D01*
X80538940Y-81481460D01*
X80503380Y-81458600D01*
X80490680Y-81450980D01*
X80488140Y-81450980D01*
X80472900Y-81466220D01*
X80439880Y-81496700D01*
X80394160Y-81542420D01*
X80340820Y-81593220D01*
X80300180Y-81633860D01*
X80254460Y-81679580D01*
X80226520Y-81712600D01*
X80208740Y-81732920D01*
X80203660Y-81745620D01*
X80206200Y-81753240D01*
X80216360Y-81771020D01*
X80241760Y-81806580D01*
X80274780Y-81859920D01*
X80315420Y-81918340D01*
X80350980Y-81969140D01*
X80386540Y-82025020D01*
X80409400Y-82065660D01*
X80419560Y-82083440D01*
X80417020Y-82093600D01*
X80404320Y-82126620D01*
X80384000Y-82174880D01*
X80358600Y-82235840D01*
X80300180Y-82367920D01*
X80213820Y-82385700D01*
X80160480Y-82395860D01*
X80086820Y-82408560D01*
X80015700Y-82423800D01*
X79903940Y-82444120D01*
X79901400Y-82847980D01*
X79919180Y-82855600D01*
X79934420Y-82860680D01*
X79975060Y-82870840D01*
X80033480Y-82881000D01*
X80102060Y-82893700D01*
X80163020Y-82906400D01*
X80221440Y-82916560D01*
X80264620Y-82924180D01*
X80282400Y-82929260D01*
X80287480Y-82934340D01*
X80302720Y-82964820D01*
X80323040Y-83010540D01*
X80345900Y-83063880D01*
X80371300Y-83122300D01*
X80391620Y-83173100D01*
X80406860Y-83213740D01*
X80411940Y-83234060D01*
X80404320Y-83249300D01*
X80381460Y-83284860D01*
X80348440Y-83335660D01*
X80307800Y-83394080D01*
X80267160Y-83452500D01*
X80234140Y-83503300D01*
X80208740Y-83538860D01*
X80201120Y-83556640D01*
X80206200Y-83566800D01*
X80229060Y-83594740D01*
X80272240Y-83640460D01*
X80338280Y-83706500D01*
X80350980Y-83716660D01*
X80401780Y-83767460D01*
X80447500Y-83808100D01*
X80477980Y-83836040D01*
X80490680Y-83846200D01*
G36*
X101966420Y-83810640D02*
X102004520Y-83805560D01*
X102037540Y-83795400D01*
X102052780Y-83787780D01*
X102085800Y-83764920D01*
X102111200Y-83736980D01*
X102128980Y-83706500D01*
X102141680Y-83670940D01*
X102149300Y-83635380D01*
X102146760Y-83597280D01*
X102139140Y-83561720D01*
X102121360Y-83526160D01*
X102111200Y-83510920D01*
X102095960Y-83493140D01*
X102078180Y-83477900D01*
X102062940Y-83465200D01*
X102057860Y-83462660D01*
X102024840Y-83447420D01*
X101991820Y-83439800D01*
X101953720Y-83437260D01*
X101941020Y-83437260D01*
X101920700Y-83439800D01*
X101902920Y-83444880D01*
X101882600Y-83455040D01*
X101859740Y-83465200D01*
X101829260Y-83490600D01*
X101806400Y-83521080D01*
X101786080Y-83554100D01*
X101781000Y-83569340D01*
X101775920Y-83589660D01*
X101773380Y-83602360D01*
X101773380Y-83604900D01*
X101773380Y-83604900D01*
X101773380Y-83597280D01*
X101773380Y-83597280D01*
X101765760Y-83571880D01*
X101758140Y-83549020D01*
X101745440Y-83526160D01*
X101725120Y-83498220D01*
X101697180Y-83472820D01*
X101664160Y-83452500D01*
X101626060Y-83439800D01*
X101587960Y-83437260D01*
X101577800Y-83437260D01*
X101547320Y-83439800D01*
X101519380Y-83447420D01*
X101514300Y-83449960D01*
X101481280Y-83467740D01*
X101453340Y-83490600D01*
X101430480Y-83521080D01*
X101412700Y-83551560D01*
X101402540Y-83584580D01*
X101402540Y-83587120D01*
X101400000Y-83594740D01*
X101400000Y-83599820D01*
X101400000Y-83599820D01*
X101400000Y-83594740D01*
X101397460Y-83584580D01*
X101397460Y-83582040D01*
X101384760Y-83549020D01*
X101366980Y-83516000D01*
X101344120Y-83488060D01*
X101321260Y-83470280D01*
X101288240Y-83452500D01*
X101252680Y-83439800D01*
X101212040Y-83437260D01*
X101184100Y-83439800D01*
X101148540Y-83447420D01*
X101112980Y-83465200D01*
X101082500Y-83488060D01*
X101059640Y-83518540D01*
X101054560Y-83523620D01*
X101046940Y-83536320D01*
X101041860Y-83549020D01*
X101039320Y-83556640D01*
X101031700Y-83574420D01*
X101029160Y-83589660D01*
X101026620Y-83602360D01*
X101026620Y-83604900D01*
X101026620Y-83604900D01*
X101024080Y-83597280D01*
X101021540Y-83576960D01*
X101011380Y-83551560D01*
X101001220Y-83528700D01*
X100978360Y-83498220D01*
X100947880Y-83472820D01*
X100914860Y-83452500D01*
X100879300Y-83439800D01*
X100841200Y-83437260D01*
X100805640Y-83439800D01*
X100767540Y-83449960D01*
X100734520Y-83467740D01*
X100704040Y-83493140D01*
X100688800Y-83510920D01*
X100676100Y-83531240D01*
X100663400Y-83554100D01*
X100658320Y-83574420D01*
X100650700Y-83612520D01*
X100653240Y-83648080D01*
X100660860Y-83683640D01*
X100676100Y-83716660D01*
X100696420Y-83744600D01*
X100721820Y-83770000D01*
X100752300Y-83790320D01*
X100785320Y-83803020D01*
X100823420Y-83810640D01*
X100828500Y-83810640D01*
X100866600Y-83810640D01*
X100902160Y-83800480D01*
X100935180Y-83785240D01*
X100947880Y-83775080D01*
X100973280Y-83754760D01*
X100996140Y-83726820D01*
X101011380Y-83698880D01*
X101013920Y-83688720D01*
X101019000Y-83673480D01*
X101024080Y-83655700D01*
X101026620Y-83643000D01*
X101026620Y-83635380D01*
X101026620Y-83643000D01*
X101026620Y-83650620D01*
X101031700Y-83665860D01*
X101036780Y-83686180D01*
X101041860Y-83701420D01*
X101052020Y-83719200D01*
X101074880Y-83749680D01*
X101102820Y-83775080D01*
X101135840Y-83795400D01*
X101173940Y-83808100D01*
X101179020Y-83808100D01*
X101204420Y-83810640D01*
X101232360Y-83810640D01*
X101257760Y-83805560D01*
X101283160Y-83797940D01*
X101316180Y-83780160D01*
X101349200Y-83754760D01*
X101349200Y-83752220D01*
X101372060Y-83726820D01*
X101387300Y-83693800D01*
X101397460Y-83663320D01*
X101397460Y-83660780D01*
X101400000Y-83653160D01*
X101400000Y-83648080D01*
X101400000Y-83650620D01*
X101402540Y-83658240D01*
X101402540Y-83660780D01*
X101407620Y-83681100D01*
X101415240Y-83701420D01*
X101427940Y-83721740D01*
X101443180Y-83744600D01*
X101471120Y-83772540D01*
X101504140Y-83792860D01*
X101542240Y-83805560D01*
X101547320Y-83808100D01*
X101572720Y-83810640D01*
X101600660Y-83810640D01*
X101626060Y-83808100D01*
X101646380Y-83800480D01*
X101681940Y-83785240D01*
X101712420Y-83762380D01*
X101737820Y-83734440D01*
X101758140Y-83701420D01*
X101760680Y-83691260D01*
X101768300Y-83673480D01*
X101770840Y-83655700D01*
X101773380Y-83643000D01*
X101773380Y-83643000D01*
X101773380Y-83643000D01*
X101775920Y-83650620D01*
X101775920Y-83650620D01*
X101781000Y-83673480D01*
X101791160Y-83698880D01*
X101801320Y-83721740D01*
X101806400Y-83729360D01*
X101829260Y-83757300D01*
X101859740Y-83780160D01*
X101892760Y-83797940D01*
X101928320Y-83808100D01*
X101966420Y-83810640D01*
X101966420Y-83810640D01*
G37*
X101966420Y-83810640D02*
X102004520Y-83805560D01*
X102037540Y-83795400D01*
X102052780Y-83787780D01*
X102085800Y-83764920D01*
X102111200Y-83736980D01*
X102128980Y-83706500D01*
X102141680Y-83670940D01*
X102149300Y-83635380D01*
X102146760Y-83597280D01*
X102139140Y-83561720D01*
X102121360Y-83526160D01*
X102111200Y-83510920D01*
X102095960Y-83493140D01*
X102078180Y-83477900D01*
X102062940Y-83465200D01*
X102057860Y-83462660D01*
X102024840Y-83447420D01*
X101991820Y-83439800D01*
X101953720Y-83437260D01*
X101941020Y-83437260D01*
X101920700Y-83439800D01*
X101902920Y-83444880D01*
X101882600Y-83455040D01*
X101859740Y-83465200D01*
X101829260Y-83490600D01*
X101806400Y-83521080D01*
X101786080Y-83554100D01*
X101781000Y-83569340D01*
X101775920Y-83589660D01*
X101773380Y-83602360D01*
X101773380Y-83604900D01*
X101773380Y-83604900D01*
X101773380Y-83597280D01*
X101773380Y-83597280D01*
X101765760Y-83571880D01*
X101758140Y-83549020D01*
X101745440Y-83526160D01*
X101725120Y-83498220D01*
X101697180Y-83472820D01*
X101664160Y-83452500D01*
X101626060Y-83439800D01*
X101587960Y-83437260D01*
X101577800Y-83437260D01*
X101547320Y-83439800D01*
X101519380Y-83447420D01*
X101514300Y-83449960D01*
X101481280Y-83467740D01*
X101453340Y-83490600D01*
X101430480Y-83521080D01*
X101412700Y-83551560D01*
X101402540Y-83584580D01*
X101402540Y-83587120D01*
X101400000Y-83594740D01*
X101400000Y-83599820D01*
X101400000Y-83599820D01*
X101400000Y-83594740D01*
X101397460Y-83584580D01*
X101397460Y-83582040D01*
X101384760Y-83549020D01*
X101366980Y-83516000D01*
X101344120Y-83488060D01*
X101321260Y-83470280D01*
X101288240Y-83452500D01*
X101252680Y-83439800D01*
X101212040Y-83437260D01*
X101184100Y-83439800D01*
X101148540Y-83447420D01*
X101112980Y-83465200D01*
X101082500Y-83488060D01*
X101059640Y-83518540D01*
X101054560Y-83523620D01*
X101046940Y-83536320D01*
X101041860Y-83549020D01*
X101039320Y-83556640D01*
X101031700Y-83574420D01*
X101029160Y-83589660D01*
X101026620Y-83602360D01*
X101026620Y-83604900D01*
X101026620Y-83604900D01*
X101024080Y-83597280D01*
X101021540Y-83576960D01*
X101011380Y-83551560D01*
X101001220Y-83528700D01*
X100978360Y-83498220D01*
X100947880Y-83472820D01*
X100914860Y-83452500D01*
X100879300Y-83439800D01*
X100841200Y-83437260D01*
X100805640Y-83439800D01*
X100767540Y-83449960D01*
X100734520Y-83467740D01*
X100704040Y-83493140D01*
X100688800Y-83510920D01*
X100676100Y-83531240D01*
X100663400Y-83554100D01*
X100658320Y-83574420D01*
X100650700Y-83612520D01*
X100653240Y-83648080D01*
X100660860Y-83683640D01*
X100676100Y-83716660D01*
X100696420Y-83744600D01*
X100721820Y-83770000D01*
X100752300Y-83790320D01*
X100785320Y-83803020D01*
X100823420Y-83810640D01*
X100828500Y-83810640D01*
X100866600Y-83810640D01*
X100902160Y-83800480D01*
X100935180Y-83785240D01*
X100947880Y-83775080D01*
X100973280Y-83754760D01*
X100996140Y-83726820D01*
X101011380Y-83698880D01*
X101013920Y-83688720D01*
X101019000Y-83673480D01*
X101024080Y-83655700D01*
X101026620Y-83643000D01*
X101026620Y-83635380D01*
X101026620Y-83643000D01*
X101026620Y-83650620D01*
X101031700Y-83665860D01*
X101036780Y-83686180D01*
X101041860Y-83701420D01*
X101052020Y-83719200D01*
X101074880Y-83749680D01*
X101102820Y-83775080D01*
X101135840Y-83795400D01*
X101173940Y-83808100D01*
X101179020Y-83808100D01*
X101204420Y-83810640D01*
X101232360Y-83810640D01*
X101257760Y-83805560D01*
X101283160Y-83797940D01*
X101316180Y-83780160D01*
X101349200Y-83754760D01*
X101349200Y-83752220D01*
X101372060Y-83726820D01*
X101387300Y-83693800D01*
X101397460Y-83663320D01*
X101397460Y-83660780D01*
X101400000Y-83653160D01*
X101400000Y-83648080D01*
X101400000Y-83650620D01*
X101402540Y-83658240D01*
X101402540Y-83660780D01*
X101407620Y-83681100D01*
X101415240Y-83701420D01*
X101427940Y-83721740D01*
X101443180Y-83744600D01*
X101471120Y-83772540D01*
X101504140Y-83792860D01*
X101542240Y-83805560D01*
X101547320Y-83808100D01*
X101572720Y-83810640D01*
X101600660Y-83810640D01*
X101626060Y-83808100D01*
X101646380Y-83800480D01*
X101681940Y-83785240D01*
X101712420Y-83762380D01*
X101737820Y-83734440D01*
X101758140Y-83701420D01*
X101760680Y-83691260D01*
X101768300Y-83673480D01*
X101770840Y-83655700D01*
X101773380Y-83643000D01*
X101773380Y-83643000D01*
X101773380Y-83643000D01*
X101775920Y-83650620D01*
X101775920Y-83650620D01*
X101781000Y-83673480D01*
X101791160Y-83698880D01*
X101801320Y-83721740D01*
X101806400Y-83729360D01*
X101829260Y-83757300D01*
X101859740Y-83780160D01*
X101892760Y-83797940D01*
X101928320Y-83808100D01*
X101966420Y-83810640D01*
G36*
X100452580Y-83437260D02*
X100475440Y-83434720D01*
X100495760Y-83434720D01*
X100521160Y-83427100D01*
X100556720Y-83411860D01*
X100587200Y-83389000D01*
X100612600Y-83361060D01*
X100632920Y-83328040D01*
X100645620Y-83292480D01*
X100650700Y-83254380D01*
X100648160Y-83216280D01*
X100638000Y-83180720D01*
X100622760Y-83147700D01*
X100597360Y-83117220D01*
X100566880Y-83091820D01*
X100559260Y-83086740D01*
X100521160Y-83071500D01*
X100485600Y-83061340D01*
X100444960Y-83061340D01*
X100406860Y-83068960D01*
X100376380Y-83081660D01*
X100343360Y-83104520D01*
X100317960Y-83132460D01*
X100295100Y-83165480D01*
X100282400Y-83203580D01*
X100277320Y-83221360D01*
X100277320Y-83246760D01*
X100277320Y-83269620D01*
X100279860Y-83289940D01*
X100282400Y-83297560D01*
X100297640Y-83335660D01*
X100317960Y-83368680D01*
X100348440Y-83396620D01*
X100381460Y-83416940D01*
X100396700Y-83424560D01*
X100419560Y-83432180D01*
X100439880Y-83434720D01*
X100452580Y-83437260D01*
X100452580Y-83437260D01*
G37*
X100452580Y-83437260D02*
X100475440Y-83434720D01*
X100495760Y-83434720D01*
X100521160Y-83427100D01*
X100556720Y-83411860D01*
X100587200Y-83389000D01*
X100612600Y-83361060D01*
X100632920Y-83328040D01*
X100645620Y-83292480D01*
X100650700Y-83254380D01*
X100648160Y-83216280D01*
X100638000Y-83180720D01*
X100622760Y-83147700D01*
X100597360Y-83117220D01*
X100566880Y-83091820D01*
X100559260Y-83086740D01*
X100521160Y-83071500D01*
X100485600Y-83061340D01*
X100444960Y-83061340D01*
X100406860Y-83068960D01*
X100376380Y-83081660D01*
X100343360Y-83104520D01*
X100317960Y-83132460D01*
X100295100Y-83165480D01*
X100282400Y-83203580D01*
X100277320Y-83221360D01*
X100277320Y-83246760D01*
X100277320Y-83269620D01*
X100279860Y-83289940D01*
X100282400Y-83297560D01*
X100297640Y-83335660D01*
X100317960Y-83368680D01*
X100348440Y-83396620D01*
X100381460Y-83416940D01*
X100396700Y-83424560D01*
X100419560Y-83432180D01*
X100439880Y-83434720D01*
X100452580Y-83437260D01*
G36*
X102339800Y-83437260D02*
X102377900Y-83432180D01*
X102416000Y-83419480D01*
X102451560Y-83396620D01*
X102459180Y-83391540D01*
X102484580Y-83363600D01*
X102504900Y-83330580D01*
X102517600Y-83295020D01*
X102522680Y-83274700D01*
X102522680Y-83251840D01*
X102522680Y-83226440D01*
X102520140Y-83208660D01*
X102517600Y-83198500D01*
X102502360Y-83160400D01*
X102482040Y-83129920D01*
X102454100Y-83101980D01*
X102421080Y-83081660D01*
X102385520Y-83068960D01*
X102347420Y-83061340D01*
X102332180Y-83061340D01*
X102294080Y-83066420D01*
X102258520Y-83076580D01*
X102228040Y-83096900D01*
X102200100Y-83119760D01*
X102177240Y-83150240D01*
X102162000Y-83183260D01*
X102151840Y-83218820D01*
X102149300Y-83256920D01*
X102151840Y-83279780D01*
X102156920Y-83300100D01*
X102164540Y-83322960D01*
X102179780Y-83350900D01*
X102202640Y-83381380D01*
X102233120Y-83404240D01*
X102266140Y-83422020D01*
X102301700Y-83432180D01*
X102339800Y-83437260D01*
X102339800Y-83437260D01*
G37*
X102339800Y-83437260D02*
X102377900Y-83432180D01*
X102416000Y-83419480D01*
X102451560Y-83396620D01*
X102459180Y-83391540D01*
X102484580Y-83363600D01*
X102504900Y-83330580D01*
X102517600Y-83295020D01*
X102522680Y-83274700D01*
X102522680Y-83251840D01*
X102522680Y-83226440D01*
X102520140Y-83208660D01*
X102517600Y-83198500D01*
X102502360Y-83160400D01*
X102482040Y-83129920D01*
X102454100Y-83101980D01*
X102421080Y-83081660D01*
X102385520Y-83068960D01*
X102347420Y-83061340D01*
X102332180Y-83061340D01*
X102294080Y-83066420D01*
X102258520Y-83076580D01*
X102228040Y-83096900D01*
X102200100Y-83119760D01*
X102177240Y-83150240D01*
X102162000Y-83183260D01*
X102151840Y-83218820D01*
X102149300Y-83256920D01*
X102151840Y-83279780D01*
X102156920Y-83300100D01*
X102164540Y-83322960D01*
X102179780Y-83350900D01*
X102202640Y-83381380D01*
X102233120Y-83404240D01*
X102266140Y-83422020D01*
X102301700Y-83432180D01*
X102339800Y-83437260D01*
G36*
X100079200Y-83061340D02*
X100104600Y-83061340D01*
X100127460Y-83056260D01*
X100155400Y-83048640D01*
X100188420Y-83030860D01*
X100221440Y-83005460D01*
X100241760Y-82982600D01*
X100259540Y-82949580D01*
X100272240Y-82914020D01*
X100274780Y-82898780D01*
X100274780Y-82875920D01*
X100274780Y-82853060D01*
X100272240Y-82835280D01*
X100269700Y-82822580D01*
X100254460Y-82787020D01*
X100234140Y-82754000D01*
X100206200Y-82726060D01*
X100170640Y-82705740D01*
X100157940Y-82700660D01*
X100135080Y-82690500D01*
X100109680Y-82687960D01*
X100081740Y-82687960D01*
X100063960Y-82687960D01*
X100043640Y-82690500D01*
X100025860Y-82695580D01*
X100005540Y-82705740D01*
X99992840Y-82713360D01*
X99962360Y-82736220D01*
X99936960Y-82764160D01*
X99916640Y-82799720D01*
X99903940Y-82837820D01*
X99903940Y-82845440D01*
X99901400Y-82868300D01*
X99901400Y-82891160D01*
X99903940Y-82911480D01*
X99906480Y-82924180D01*
X99921720Y-82959740D01*
X99944580Y-82992760D01*
X99969980Y-83020700D01*
X100005540Y-83041020D01*
X100041100Y-83056260D01*
X100053800Y-83058800D01*
X100079200Y-83061340D01*
X100079200Y-83061340D01*
G37*
X100079200Y-83061340D02*
X100104600Y-83061340D01*
X100127460Y-83056260D01*
X100155400Y-83048640D01*
X100188420Y-83030860D01*
X100221440Y-83005460D01*
X100241760Y-82982600D01*
X100259540Y-82949580D01*
X100272240Y-82914020D01*
X100274780Y-82898780D01*
X100274780Y-82875920D01*
X100274780Y-82853060D01*
X100272240Y-82835280D01*
X100269700Y-82822580D01*
X100254460Y-82787020D01*
X100234140Y-82754000D01*
X100206200Y-82726060D01*
X100170640Y-82705740D01*
X100157940Y-82700660D01*
X100135080Y-82690500D01*
X100109680Y-82687960D01*
X100081740Y-82687960D01*
X100063960Y-82687960D01*
X100043640Y-82690500D01*
X100025860Y-82695580D01*
X100005540Y-82705740D01*
X99992840Y-82713360D01*
X99962360Y-82736220D01*
X99936960Y-82764160D01*
X99916640Y-82799720D01*
X99903940Y-82837820D01*
X99903940Y-82845440D01*
X99901400Y-82868300D01*
X99901400Y-82891160D01*
X99903940Y-82911480D01*
X99906480Y-82924180D01*
X99921720Y-82959740D01*
X99944580Y-82992760D01*
X99969980Y-83020700D01*
X100005540Y-83041020D01*
X100041100Y-83056260D01*
X100053800Y-83058800D01*
X100079200Y-83061340D01*
G36*
X101582880Y-83061340D02*
X101618440Y-83058800D01*
X101654000Y-83048640D01*
X101676860Y-83038480D01*
X101707340Y-83015620D01*
X101735280Y-82987680D01*
X101755600Y-82954660D01*
X101768300Y-82919100D01*
X101770840Y-82911480D01*
X101773380Y-82881000D01*
X101773380Y-82853060D01*
X101765760Y-82820040D01*
X101750520Y-82781940D01*
X101727660Y-82751460D01*
X101699720Y-82726060D01*
X101666700Y-82705740D01*
X101628600Y-82690500D01*
X101605740Y-82685420D01*
X101618440Y-82682880D01*
X101620980Y-82682880D01*
X101646380Y-82675260D01*
X101674320Y-82662560D01*
X101702260Y-82647320D01*
X101704800Y-82642240D01*
X101732740Y-82616840D01*
X101753060Y-82583820D01*
X101765760Y-82548260D01*
X101773380Y-82512700D01*
X101773380Y-82477140D01*
X101763220Y-82441580D01*
X101747980Y-82406020D01*
X101747980Y-82403480D01*
X101722580Y-82373000D01*
X101694640Y-82347600D01*
X101664160Y-82329820D01*
X101628600Y-82319660D01*
X101593040Y-82314580D01*
X101557480Y-82317120D01*
X101521920Y-82324740D01*
X101488900Y-82342520D01*
X101455880Y-82365380D01*
X101440640Y-82383160D01*
X101422860Y-82411100D01*
X101407620Y-82439040D01*
X101402540Y-82466980D01*
X101400000Y-82474600D01*
X101400000Y-82477140D01*
X101400000Y-82474600D01*
X101397460Y-82466980D01*
X101392380Y-82441580D01*
X101379680Y-82416180D01*
X101364440Y-82390780D01*
X101354280Y-82378080D01*
X101326340Y-82352680D01*
X101293320Y-82332360D01*
X101257760Y-82319660D01*
X101219660Y-82314580D01*
X101181560Y-82317120D01*
X101158700Y-82322200D01*
X101123140Y-82337440D01*
X101092660Y-82357760D01*
X101064720Y-82385700D01*
X101044400Y-82418720D01*
X101031700Y-82456820D01*
X101029160Y-82474600D01*
X101026620Y-82512700D01*
X101034240Y-82548260D01*
X101046940Y-82583820D01*
X101067260Y-82616840D01*
X101095200Y-82642240D01*
X101128220Y-82665100D01*
X101143460Y-82672720D01*
X101161240Y-82677800D01*
X101176480Y-82682880D01*
X101189180Y-82685420D01*
X101189180Y-82685420D01*
X101189180Y-82685420D01*
X101181560Y-82687960D01*
X101163780Y-82693040D01*
X101138380Y-82703200D01*
X101115520Y-82713360D01*
X101105360Y-82720980D01*
X101079960Y-82743840D01*
X101057100Y-82769240D01*
X101041860Y-82797180D01*
X101031700Y-82830200D01*
X101026620Y-82863220D01*
X101026620Y-82896240D01*
X101029160Y-82901320D01*
X101039320Y-82941960D01*
X101057100Y-82974980D01*
X101082500Y-83005460D01*
X101102820Y-83025780D01*
X101135840Y-83046100D01*
X101173940Y-83056260D01*
X101186640Y-83058800D01*
X101206960Y-83061340D01*
X101229820Y-83058800D01*
X101250140Y-83058800D01*
X101265380Y-83053720D01*
X101278080Y-83051180D01*
X101313640Y-83033400D01*
X101344120Y-83008000D01*
X101369520Y-82977520D01*
X101379680Y-82962280D01*
X101389840Y-82936880D01*
X101397460Y-82911480D01*
X101397460Y-82911480D01*
X101400000Y-82901320D01*
X101400000Y-82898780D01*
X101400000Y-82898780D01*
X101400000Y-82847980D01*
X101400000Y-82847980D01*
X101400000Y-82845440D01*
X101397460Y-82835280D01*
X101397460Y-82832740D01*
X101384760Y-82799720D01*
X101366980Y-82766700D01*
X101344120Y-82738760D01*
X101316180Y-82715900D01*
X101283160Y-82700660D01*
X101280620Y-82698120D01*
X101265380Y-82693040D01*
X101250140Y-82690500D01*
X101232360Y-82685420D01*
X101247600Y-82682880D01*
X101270460Y-82677800D01*
X101303480Y-82662560D01*
X101333960Y-82642240D01*
X101361900Y-82614300D01*
X101382220Y-82583820D01*
X101387300Y-82568580D01*
X101394920Y-82548260D01*
X101397460Y-82533020D01*
X101400000Y-82525400D01*
X101400000Y-82522860D01*
X101400000Y-82525400D01*
X101402540Y-82533020D01*
X101405080Y-82545720D01*
X101410160Y-82566040D01*
X101417780Y-82583820D01*
X101430480Y-82604140D01*
X101455880Y-82632080D01*
X101483820Y-82654940D01*
X101516840Y-82672720D01*
X101552400Y-82682880D01*
X101567640Y-82685420D01*
X101552400Y-82690500D01*
X101549860Y-82690500D01*
X101532080Y-82693040D01*
X101516840Y-82700660D01*
X101514300Y-82700660D01*
X101481280Y-82718440D01*
X101453340Y-82741300D01*
X101430480Y-82769240D01*
X101412700Y-82802260D01*
X101402540Y-82835280D01*
X101402540Y-82835280D01*
X101400000Y-82845440D01*
X101400000Y-82847980D01*
X101400000Y-82898780D01*
X101400000Y-82898780D01*
X101400000Y-82903860D01*
X101402540Y-82911480D01*
X101410160Y-82936880D01*
X101425400Y-82969900D01*
X101448260Y-83000380D01*
X101476200Y-83025780D01*
X101509220Y-83043560D01*
X101509220Y-83043560D01*
X101544780Y-83056260D01*
X101582880Y-83061340D01*
X101582880Y-83061340D01*
G37*
X101582880Y-83061340D02*
X101618440Y-83058800D01*
X101654000Y-83048640D01*
X101676860Y-83038480D01*
X101707340Y-83015620D01*
X101735280Y-82987680D01*
X101755600Y-82954660D01*
X101768300Y-82919100D01*
X101770840Y-82911480D01*
X101773380Y-82881000D01*
X101773380Y-82853060D01*
X101765760Y-82820040D01*
X101750520Y-82781940D01*
X101727660Y-82751460D01*
X101699720Y-82726060D01*
X101666700Y-82705740D01*
X101628600Y-82690500D01*
X101605740Y-82685420D01*
X101618440Y-82682880D01*
X101620980Y-82682880D01*
X101646380Y-82675260D01*
X101674320Y-82662560D01*
X101702260Y-82647320D01*
X101704800Y-82642240D01*
X101732740Y-82616840D01*
X101753060Y-82583820D01*
X101765760Y-82548260D01*
X101773380Y-82512700D01*
X101773380Y-82477140D01*
X101763220Y-82441580D01*
X101747980Y-82406020D01*
X101747980Y-82403480D01*
X101722580Y-82373000D01*
X101694640Y-82347600D01*
X101664160Y-82329820D01*
X101628600Y-82319660D01*
X101593040Y-82314580D01*
X101557480Y-82317120D01*
X101521920Y-82324740D01*
X101488900Y-82342520D01*
X101455880Y-82365380D01*
X101440640Y-82383160D01*
X101422860Y-82411100D01*
X101407620Y-82439040D01*
X101402540Y-82466980D01*
X101400000Y-82474600D01*
X101400000Y-82477140D01*
X101400000Y-82474600D01*
X101397460Y-82466980D01*
X101392380Y-82441580D01*
X101379680Y-82416180D01*
X101364440Y-82390780D01*
X101354280Y-82378080D01*
X101326340Y-82352680D01*
X101293320Y-82332360D01*
X101257760Y-82319660D01*
X101219660Y-82314580D01*
X101181560Y-82317120D01*
X101158700Y-82322200D01*
X101123140Y-82337440D01*
X101092660Y-82357760D01*
X101064720Y-82385700D01*
X101044400Y-82418720D01*
X101031700Y-82456820D01*
X101029160Y-82474600D01*
X101026620Y-82512700D01*
X101034240Y-82548260D01*
X101046940Y-82583820D01*
X101067260Y-82616840D01*
X101095200Y-82642240D01*
X101128220Y-82665100D01*
X101143460Y-82672720D01*
X101161240Y-82677800D01*
X101176480Y-82682880D01*
X101189180Y-82685420D01*
X101189180Y-82685420D01*
X101189180Y-82685420D01*
X101181560Y-82687960D01*
X101163780Y-82693040D01*
X101138380Y-82703200D01*
X101115520Y-82713360D01*
X101105360Y-82720980D01*
X101079960Y-82743840D01*
X101057100Y-82769240D01*
X101041860Y-82797180D01*
X101031700Y-82830200D01*
X101026620Y-82863220D01*
X101026620Y-82896240D01*
X101029160Y-82901320D01*
X101039320Y-82941960D01*
X101057100Y-82974980D01*
X101082500Y-83005460D01*
X101102820Y-83025780D01*
X101135840Y-83046100D01*
X101173940Y-83056260D01*
X101186640Y-83058800D01*
X101206960Y-83061340D01*
X101229820Y-83058800D01*
X101250140Y-83058800D01*
X101265380Y-83053720D01*
X101278080Y-83051180D01*
X101313640Y-83033400D01*
X101344120Y-83008000D01*
X101369520Y-82977520D01*
X101379680Y-82962280D01*
X101389840Y-82936880D01*
X101397460Y-82911480D01*
X101397460Y-82911480D01*
X101400000Y-82901320D01*
X101400000Y-82898780D01*
X101400000Y-82898780D01*
X101400000Y-82847980D01*
X101400000Y-82847980D01*
X101400000Y-82845440D01*
X101397460Y-82835280D01*
X101397460Y-82832740D01*
X101384760Y-82799720D01*
X101366980Y-82766700D01*
X101344120Y-82738760D01*
X101316180Y-82715900D01*
X101283160Y-82700660D01*
X101280620Y-82698120D01*
X101265380Y-82693040D01*
X101250140Y-82690500D01*
X101232360Y-82685420D01*
X101247600Y-82682880D01*
X101270460Y-82677800D01*
X101303480Y-82662560D01*
X101333960Y-82642240D01*
X101361900Y-82614300D01*
X101382220Y-82583820D01*
X101387300Y-82568580D01*
X101394920Y-82548260D01*
X101397460Y-82533020D01*
X101400000Y-82525400D01*
X101400000Y-82522860D01*
X101400000Y-82525400D01*
X101402540Y-82533020D01*
X101405080Y-82545720D01*
X101410160Y-82566040D01*
X101417780Y-82583820D01*
X101430480Y-82604140D01*
X101455880Y-82632080D01*
X101483820Y-82654940D01*
X101516840Y-82672720D01*
X101552400Y-82682880D01*
X101567640Y-82685420D01*
X101552400Y-82690500D01*
X101549860Y-82690500D01*
X101532080Y-82693040D01*
X101516840Y-82700660D01*
X101514300Y-82700660D01*
X101481280Y-82718440D01*
X101453340Y-82741300D01*
X101430480Y-82769240D01*
X101412700Y-82802260D01*
X101402540Y-82835280D01*
X101402540Y-82835280D01*
X101400000Y-82845440D01*
X101400000Y-82847980D01*
X101400000Y-82898780D01*
X101400000Y-82898780D01*
X101400000Y-82903860D01*
X101402540Y-82911480D01*
X101410160Y-82936880D01*
X101425400Y-82969900D01*
X101448260Y-83000380D01*
X101476200Y-83025780D01*
X101509220Y-83043560D01*
X101509220Y-83043560D01*
X101544780Y-83056260D01*
X101582880Y-83061340D01*
G36*
X102697940Y-83061340D02*
X102728420Y-83061340D01*
X102756360Y-83056260D01*
X102774140Y-83051180D01*
X102809700Y-83033400D01*
X102840180Y-83010540D01*
X102865580Y-82982600D01*
X102883360Y-82949580D01*
X102893520Y-82914020D01*
X102898600Y-82873380D01*
X102898600Y-82858140D01*
X102890980Y-82820040D01*
X102875740Y-82784480D01*
X102852880Y-82748920D01*
X102845260Y-82743840D01*
X102819860Y-82720980D01*
X102789380Y-82703200D01*
X102756360Y-82690500D01*
X102753820Y-82690500D01*
X102725880Y-82687960D01*
X102695400Y-82687960D01*
X102667460Y-82690500D01*
X102657300Y-82693040D01*
X102621740Y-82708280D01*
X102591260Y-82731140D01*
X102565860Y-82756540D01*
X102545540Y-82787020D01*
X102530300Y-82820040D01*
X102525220Y-82858140D01*
X102525220Y-82896240D01*
X102532840Y-82934340D01*
X102545540Y-82962280D01*
X102568400Y-82992760D01*
X102596340Y-83020700D01*
X102626820Y-83041020D01*
X102664920Y-83056260D01*
X102667460Y-83056260D01*
X102697940Y-83061340D01*
X102697940Y-83061340D01*
G37*
X102697940Y-83061340D02*
X102728420Y-83061340D01*
X102756360Y-83056260D01*
X102774140Y-83051180D01*
X102809700Y-83033400D01*
X102840180Y-83010540D01*
X102865580Y-82982600D01*
X102883360Y-82949580D01*
X102893520Y-82914020D01*
X102898600Y-82873380D01*
X102898600Y-82858140D01*
X102890980Y-82820040D01*
X102875740Y-82784480D01*
X102852880Y-82748920D01*
X102845260Y-82743840D01*
X102819860Y-82720980D01*
X102789380Y-82703200D01*
X102756360Y-82690500D01*
X102753820Y-82690500D01*
X102725880Y-82687960D01*
X102695400Y-82687960D01*
X102667460Y-82690500D01*
X102657300Y-82693040D01*
X102621740Y-82708280D01*
X102591260Y-82731140D01*
X102565860Y-82756540D01*
X102545540Y-82787020D01*
X102530300Y-82820040D01*
X102525220Y-82858140D01*
X102525220Y-82896240D01*
X102532840Y-82934340D01*
X102545540Y-82962280D01*
X102568400Y-82992760D01*
X102596340Y-83020700D01*
X102626820Y-83041020D01*
X102664920Y-83056260D01*
X102667460Y-83056260D01*
X102697940Y-83061340D01*
G36*
X100843740Y-81938660D02*
X100881840Y-81933580D01*
X100917400Y-81920880D01*
X100935180Y-81913260D01*
X100950420Y-81900560D01*
X100968200Y-81885320D01*
X100988520Y-81865000D01*
X101008840Y-81831980D01*
X101021540Y-81796420D01*
X101024080Y-81786260D01*
X101026620Y-81760860D01*
X101026620Y-81735460D01*
X101021540Y-81712600D01*
X101011380Y-81679580D01*
X100996140Y-81646560D01*
X100973280Y-81618620D01*
X100968200Y-81616080D01*
X100950420Y-81600840D01*
X100930100Y-81588140D01*
X100912320Y-81577980D01*
X100904700Y-81575440D01*
X100889460Y-81570360D01*
X100874220Y-81567820D01*
X100864060Y-81565280D01*
X100856440Y-81565280D01*
X100864060Y-81562740D01*
X100874220Y-81560200D01*
X100884380Y-81557660D01*
X100899620Y-81555120D01*
X100927560Y-81539880D01*
X100955500Y-81524640D01*
X100975820Y-81504320D01*
X100980900Y-81499240D01*
X101003760Y-81466220D01*
X101019000Y-81430660D01*
X101026620Y-81395100D01*
X101026620Y-81357000D01*
X101024080Y-81346840D01*
X101013920Y-81308740D01*
X100996140Y-81275720D01*
X100970740Y-81242700D01*
X100947880Y-81224920D01*
X100914860Y-81204600D01*
X100879300Y-81191900D01*
X100871680Y-81191900D01*
X100846280Y-81189360D01*
X100820880Y-81189360D01*
X100795480Y-81194440D01*
X100775160Y-81199520D01*
X100739600Y-81217300D01*
X100709120Y-81240160D01*
X100686260Y-81268100D01*
X100665940Y-81301120D01*
X100655780Y-81336680D01*
X100653240Y-81341760D01*
X100650700Y-81349380D01*
X100650700Y-81354460D01*
X100648160Y-81349380D01*
X100648160Y-81341760D01*
X100645620Y-81326520D01*
X100638000Y-81308740D01*
X100632920Y-81293500D01*
X100625300Y-81283340D01*
X100602440Y-81250320D01*
X100574500Y-81224920D01*
X100541480Y-81204600D01*
X100505920Y-81194440D01*
X100465280Y-81189360D01*
X100434800Y-81191900D01*
X100399240Y-81199520D01*
X100366220Y-81217300D01*
X100345900Y-81230000D01*
X100317960Y-81257940D01*
X100297640Y-81288420D01*
X100282400Y-81323980D01*
X100277320Y-81359540D01*
X100277320Y-81397640D01*
X100284940Y-81433200D01*
X100300180Y-81468760D01*
X100323040Y-81499240D01*
X100350980Y-81527180D01*
X100386540Y-81547500D01*
X100424640Y-81560200D01*
X100444960Y-81565280D01*
X100432260Y-81565280D01*
X100424640Y-81567820D01*
X100394160Y-81575440D01*
X100366220Y-81590680D01*
X100338280Y-81611000D01*
X100315420Y-81633860D01*
X100302720Y-81654180D01*
X100290020Y-81679580D01*
X100282400Y-81704980D01*
X100277320Y-81725300D01*
X100277320Y-81748160D01*
X100277320Y-81773560D01*
X100279860Y-81791340D01*
X100287480Y-81814200D01*
X100305260Y-81849760D01*
X100328120Y-81880240D01*
X100358600Y-81905640D01*
X100391620Y-81925960D01*
X100432260Y-81936120D01*
X100442420Y-81938660D01*
X100465280Y-81938660D01*
X100488140Y-81936120D01*
X100511000Y-81933580D01*
X100526240Y-81928500D01*
X100561800Y-81910720D01*
X100592280Y-81887860D01*
X100617680Y-81859920D01*
X100635460Y-81826900D01*
X100648160Y-81788800D01*
X100648160Y-81786260D01*
X100650700Y-81776100D01*
X100650700Y-81778640D01*
X100650700Y-81725300D01*
X100650700Y-81725300D01*
X100648160Y-81717680D01*
X100648160Y-81715140D01*
X100640540Y-81689740D01*
X100630380Y-81664340D01*
X100615140Y-81638940D01*
X100602440Y-81626240D01*
X100574500Y-81598300D01*
X100538940Y-81580520D01*
X100500840Y-81567820D01*
X100483060Y-81562740D01*
X100495760Y-81560200D01*
X100508460Y-81557660D01*
X100518620Y-81555120D01*
X100526240Y-81552580D01*
X100561800Y-81537340D01*
X100592280Y-81511940D01*
X100617680Y-81484000D01*
X100635460Y-81450980D01*
X100648160Y-81415420D01*
X100648160Y-81407800D01*
X100650700Y-81402720D01*
X100653240Y-81405260D01*
X100655780Y-81415420D01*
X100655780Y-81417960D01*
X100660860Y-81438280D01*
X100671020Y-81458600D01*
X100681180Y-81478920D01*
X100691340Y-81491620D01*
X100709120Y-81509400D01*
X100726900Y-81527180D01*
X100744680Y-81539880D01*
X100747220Y-81539880D01*
X100775160Y-81552580D01*
X100805640Y-81560200D01*
X100818340Y-81562740D01*
X100803100Y-81567820D01*
X100770080Y-81575440D01*
X100737060Y-81593220D01*
X100706580Y-81616080D01*
X100683720Y-81644020D01*
X100678640Y-81654180D01*
X100668480Y-81671960D01*
X100660860Y-81692280D01*
X100655780Y-81710060D01*
X100653240Y-81722760D01*
X100653240Y-81722760D01*
X100650700Y-81725300D01*
X100650700Y-81778640D01*
X100653240Y-81778640D01*
X100653240Y-81786260D01*
X100655780Y-81796420D01*
X100660860Y-81809120D01*
X100668480Y-81826900D01*
X100686260Y-81859920D01*
X100711660Y-81887860D01*
X100739600Y-81910720D01*
X100772620Y-81925960D01*
X100808180Y-81936120D01*
X100843740Y-81938660D01*
X100843740Y-81938660D01*
G37*
X100843740Y-81938660D02*
X100881840Y-81933580D01*
X100917400Y-81920880D01*
X100935180Y-81913260D01*
X100950420Y-81900560D01*
X100968200Y-81885320D01*
X100988520Y-81865000D01*
X101008840Y-81831980D01*
X101021540Y-81796420D01*
X101024080Y-81786260D01*
X101026620Y-81760860D01*
X101026620Y-81735460D01*
X101021540Y-81712600D01*
X101011380Y-81679580D01*
X100996140Y-81646560D01*
X100973280Y-81618620D01*
X100968200Y-81616080D01*
X100950420Y-81600840D01*
X100930100Y-81588140D01*
X100912320Y-81577980D01*
X100904700Y-81575440D01*
X100889460Y-81570360D01*
X100874220Y-81567820D01*
X100864060Y-81565280D01*
X100856440Y-81565280D01*
X100864060Y-81562740D01*
X100874220Y-81560200D01*
X100884380Y-81557660D01*
X100899620Y-81555120D01*
X100927560Y-81539880D01*
X100955500Y-81524640D01*
X100975820Y-81504320D01*
X100980900Y-81499240D01*
X101003760Y-81466220D01*
X101019000Y-81430660D01*
X101026620Y-81395100D01*
X101026620Y-81357000D01*
X101024080Y-81346840D01*
X101013920Y-81308740D01*
X100996140Y-81275720D01*
X100970740Y-81242700D01*
X100947880Y-81224920D01*
X100914860Y-81204600D01*
X100879300Y-81191900D01*
X100871680Y-81191900D01*
X100846280Y-81189360D01*
X100820880Y-81189360D01*
X100795480Y-81194440D01*
X100775160Y-81199520D01*
X100739600Y-81217300D01*
X100709120Y-81240160D01*
X100686260Y-81268100D01*
X100665940Y-81301120D01*
X100655780Y-81336680D01*
X100653240Y-81341760D01*
X100650700Y-81349380D01*
X100650700Y-81354460D01*
X100648160Y-81349380D01*
X100648160Y-81341760D01*
X100645620Y-81326520D01*
X100638000Y-81308740D01*
X100632920Y-81293500D01*
X100625300Y-81283340D01*
X100602440Y-81250320D01*
X100574500Y-81224920D01*
X100541480Y-81204600D01*
X100505920Y-81194440D01*
X100465280Y-81189360D01*
X100434800Y-81191900D01*
X100399240Y-81199520D01*
X100366220Y-81217300D01*
X100345900Y-81230000D01*
X100317960Y-81257940D01*
X100297640Y-81288420D01*
X100282400Y-81323980D01*
X100277320Y-81359540D01*
X100277320Y-81397640D01*
X100284940Y-81433200D01*
X100300180Y-81468760D01*
X100323040Y-81499240D01*
X100350980Y-81527180D01*
X100386540Y-81547500D01*
X100424640Y-81560200D01*
X100444960Y-81565280D01*
X100432260Y-81565280D01*
X100424640Y-81567820D01*
X100394160Y-81575440D01*
X100366220Y-81590680D01*
X100338280Y-81611000D01*
X100315420Y-81633860D01*
X100302720Y-81654180D01*
X100290020Y-81679580D01*
X100282400Y-81704980D01*
X100277320Y-81725300D01*
X100277320Y-81748160D01*
X100277320Y-81773560D01*
X100279860Y-81791340D01*
X100287480Y-81814200D01*
X100305260Y-81849760D01*
X100328120Y-81880240D01*
X100358600Y-81905640D01*
X100391620Y-81925960D01*
X100432260Y-81936120D01*
X100442420Y-81938660D01*
X100465280Y-81938660D01*
X100488140Y-81936120D01*
X100511000Y-81933580D01*
X100526240Y-81928500D01*
X100561800Y-81910720D01*
X100592280Y-81887860D01*
X100617680Y-81859920D01*
X100635460Y-81826900D01*
X100648160Y-81788800D01*
X100648160Y-81786260D01*
X100650700Y-81776100D01*
X100650700Y-81778640D01*
X100650700Y-81725300D01*
X100650700Y-81725300D01*
X100648160Y-81717680D01*
X100648160Y-81715140D01*
X100640540Y-81689740D01*
X100630380Y-81664340D01*
X100615140Y-81638940D01*
X100602440Y-81626240D01*
X100574500Y-81598300D01*
X100538940Y-81580520D01*
X100500840Y-81567820D01*
X100483060Y-81562740D01*
X100495760Y-81560200D01*
X100508460Y-81557660D01*
X100518620Y-81555120D01*
X100526240Y-81552580D01*
X100561800Y-81537340D01*
X100592280Y-81511940D01*
X100617680Y-81484000D01*
X100635460Y-81450980D01*
X100648160Y-81415420D01*
X100648160Y-81407800D01*
X100650700Y-81402720D01*
X100653240Y-81405260D01*
X100655780Y-81415420D01*
X100655780Y-81417960D01*
X100660860Y-81438280D01*
X100671020Y-81458600D01*
X100681180Y-81478920D01*
X100691340Y-81491620D01*
X100709120Y-81509400D01*
X100726900Y-81527180D01*
X100744680Y-81539880D01*
X100747220Y-81539880D01*
X100775160Y-81552580D01*
X100805640Y-81560200D01*
X100818340Y-81562740D01*
X100803100Y-81567820D01*
X100770080Y-81575440D01*
X100737060Y-81593220D01*
X100706580Y-81616080D01*
X100683720Y-81644020D01*
X100678640Y-81654180D01*
X100668480Y-81671960D01*
X100660860Y-81692280D01*
X100655780Y-81710060D01*
X100653240Y-81722760D01*
X100653240Y-81722760D01*
X100650700Y-81725300D01*
X100650700Y-81778640D01*
X100653240Y-81778640D01*
X100653240Y-81786260D01*
X100655780Y-81796420D01*
X100660860Y-81809120D01*
X100668480Y-81826900D01*
X100686260Y-81859920D01*
X100711660Y-81887860D01*
X100739600Y-81910720D01*
X100772620Y-81925960D01*
X100808180Y-81936120D01*
X100843740Y-81938660D01*
G36*
X101971500Y-81938660D02*
X102007060Y-81933580D01*
X102042620Y-81920880D01*
X102075640Y-81900560D01*
X102101040Y-81875160D01*
X102123900Y-81844680D01*
X102139140Y-81809120D01*
X102144220Y-81796420D01*
X102146760Y-81786260D01*
X102146760Y-81783720D01*
X102149300Y-81776100D01*
X102149300Y-81776100D01*
X102149300Y-81725300D01*
X102146760Y-81720220D01*
X102144220Y-81707520D01*
X102136600Y-81684660D01*
X102121360Y-81651640D01*
X102098500Y-81621160D01*
X102068020Y-81598300D01*
X102035000Y-81577980D01*
X101999440Y-81567820D01*
X101981660Y-81562740D01*
X101994360Y-81560200D01*
X101994360Y-81560200D01*
X102024840Y-81552580D01*
X102055320Y-81539880D01*
X102065480Y-81532260D01*
X102085800Y-81514480D01*
X102103580Y-81496700D01*
X102118820Y-81478920D01*
X102126440Y-81463680D01*
X102139140Y-81438280D01*
X102144220Y-81417960D01*
X102146760Y-81407800D01*
X102149300Y-81402720D01*
X102149300Y-81405260D01*
X102151840Y-81415420D01*
X102159460Y-81440820D01*
X102177240Y-81476380D01*
X102202640Y-81506860D01*
X102230580Y-81529720D01*
X102263600Y-81550040D01*
X102304240Y-81560200D01*
X102316940Y-81562740D01*
X102299160Y-81567820D01*
X102281380Y-81572900D01*
X102245820Y-81588140D01*
X102212800Y-81611000D01*
X102187400Y-81638940D01*
X102177240Y-81649100D01*
X102169620Y-81666880D01*
X102159460Y-81687200D01*
X102154380Y-81699900D01*
X102151840Y-81715140D01*
X102151840Y-81715140D01*
X102149300Y-81722760D01*
X102149300Y-81725300D01*
X102149300Y-81776100D01*
X102149300Y-81778640D01*
X102151840Y-81788800D01*
X102154380Y-81801500D01*
X102167080Y-81829440D01*
X102179780Y-81854840D01*
X102192480Y-81870080D01*
X102220420Y-81898020D01*
X102253440Y-81918340D01*
X102291540Y-81933580D01*
X102306780Y-81936120D01*
X102332180Y-81938660D01*
X102360120Y-81936120D01*
X102382980Y-81933580D01*
X102385520Y-81933580D01*
X102423620Y-81918340D01*
X102456640Y-81895480D01*
X102482040Y-81867540D01*
X102504900Y-81834520D01*
X102517600Y-81796420D01*
X102522680Y-81781180D01*
X102522680Y-81753240D01*
X102522680Y-81727840D01*
X102517600Y-81704980D01*
X102512520Y-81684660D01*
X102499820Y-81659260D01*
X102484580Y-81633860D01*
X102466800Y-81616080D01*
X102443940Y-81598300D01*
X102418540Y-81583060D01*
X102410920Y-81577980D01*
X102393140Y-81572900D01*
X102375360Y-81567820D01*
X102362660Y-81565280D01*
X102360120Y-81565280D01*
X102365200Y-81562740D01*
X102375360Y-81560200D01*
X102398220Y-81552580D01*
X102421080Y-81542420D01*
X102441400Y-81532260D01*
X102446480Y-81527180D01*
X102471880Y-81506860D01*
X102492200Y-81478920D01*
X102507440Y-81450980D01*
X102515060Y-81438280D01*
X102522680Y-81400180D01*
X102522680Y-81362080D01*
X102517600Y-81323980D01*
X102515060Y-81316360D01*
X102497280Y-81280800D01*
X102474420Y-81250320D01*
X102446480Y-81224920D01*
X102413460Y-81204600D01*
X102375360Y-81191900D01*
X102370280Y-81191900D01*
X102344880Y-81189360D01*
X102316940Y-81189360D01*
X102294080Y-81194440D01*
X102286460Y-81194440D01*
X102250900Y-81209680D01*
X102217880Y-81230000D01*
X102189940Y-81260480D01*
X102167080Y-81293500D01*
X102162000Y-81303660D01*
X102156920Y-81321440D01*
X102151840Y-81336680D01*
X102151840Y-81349380D01*
X102151840Y-81351920D01*
X102149300Y-81351920D01*
X102146760Y-81346840D01*
X102144220Y-81336680D01*
X102139140Y-81311280D01*
X102121360Y-81278260D01*
X102098500Y-81250320D01*
X102070560Y-81224920D01*
X102037540Y-81204600D01*
X102037540Y-81204600D01*
X102004520Y-81194440D01*
X101966420Y-81189360D01*
X101928320Y-81191900D01*
X101892760Y-81202060D01*
X101872440Y-81212220D01*
X101839420Y-81232540D01*
X101814020Y-81260480D01*
X101793700Y-81293500D01*
X101778460Y-81331600D01*
X101778460Y-81339220D01*
X101773380Y-81369700D01*
X101775920Y-81397640D01*
X101783540Y-81433200D01*
X101798780Y-81468760D01*
X101821640Y-81499240D01*
X101849580Y-81527180D01*
X101882600Y-81547500D01*
X101920700Y-81560200D01*
X101928320Y-81562740D01*
X101935940Y-81565280D01*
X101935940Y-81565280D01*
X101925780Y-81565280D01*
X101902920Y-81572900D01*
X101880060Y-81583060D01*
X101857200Y-81595760D01*
X101836880Y-81611000D01*
X101811480Y-81638940D01*
X101791160Y-81674500D01*
X101788620Y-81679580D01*
X101775920Y-81715140D01*
X101773380Y-81753240D01*
X101778460Y-81793880D01*
X101791160Y-81829440D01*
X101798780Y-81847220D01*
X101811480Y-81862460D01*
X101826720Y-81880240D01*
X101826720Y-81882780D01*
X101857200Y-81908180D01*
X101892760Y-81925960D01*
X101928320Y-81936120D01*
X101933400Y-81936120D01*
X101971500Y-81938660D01*
X101971500Y-81938660D01*
G37*
X101971500Y-81938660D02*
X102007060Y-81933580D01*
X102042620Y-81920880D01*
X102075640Y-81900560D01*
X102101040Y-81875160D01*
X102123900Y-81844680D01*
X102139140Y-81809120D01*
X102144220Y-81796420D01*
X102146760Y-81786260D01*
X102146760Y-81783720D01*
X102149300Y-81776100D01*
X102149300Y-81776100D01*
X102149300Y-81725300D01*
X102146760Y-81720220D01*
X102144220Y-81707520D01*
X102136600Y-81684660D01*
X102121360Y-81651640D01*
X102098500Y-81621160D01*
X102068020Y-81598300D01*
X102035000Y-81577980D01*
X101999440Y-81567820D01*
X101981660Y-81562740D01*
X101994360Y-81560200D01*
X101994360Y-81560200D01*
X102024840Y-81552580D01*
X102055320Y-81539880D01*
X102065480Y-81532260D01*
X102085800Y-81514480D01*
X102103580Y-81496700D01*
X102118820Y-81478920D01*
X102126440Y-81463680D01*
X102139140Y-81438280D01*
X102144220Y-81417960D01*
X102146760Y-81407800D01*
X102149300Y-81402720D01*
X102149300Y-81405260D01*
X102151840Y-81415420D01*
X102159460Y-81440820D01*
X102177240Y-81476380D01*
X102202640Y-81506860D01*
X102230580Y-81529720D01*
X102263600Y-81550040D01*
X102304240Y-81560200D01*
X102316940Y-81562740D01*
X102299160Y-81567820D01*
X102281380Y-81572900D01*
X102245820Y-81588140D01*
X102212800Y-81611000D01*
X102187400Y-81638940D01*
X102177240Y-81649100D01*
X102169620Y-81666880D01*
X102159460Y-81687200D01*
X102154380Y-81699900D01*
X102151840Y-81715140D01*
X102151840Y-81715140D01*
X102149300Y-81722760D01*
X102149300Y-81725300D01*
X102149300Y-81776100D01*
X102149300Y-81778640D01*
X102151840Y-81788800D01*
X102154380Y-81801500D01*
X102167080Y-81829440D01*
X102179780Y-81854840D01*
X102192480Y-81870080D01*
X102220420Y-81898020D01*
X102253440Y-81918340D01*
X102291540Y-81933580D01*
X102306780Y-81936120D01*
X102332180Y-81938660D01*
X102360120Y-81936120D01*
X102382980Y-81933580D01*
X102385520Y-81933580D01*
X102423620Y-81918340D01*
X102456640Y-81895480D01*
X102482040Y-81867540D01*
X102504900Y-81834520D01*
X102517600Y-81796420D01*
X102522680Y-81781180D01*
X102522680Y-81753240D01*
X102522680Y-81727840D01*
X102517600Y-81704980D01*
X102512520Y-81684660D01*
X102499820Y-81659260D01*
X102484580Y-81633860D01*
X102466800Y-81616080D01*
X102443940Y-81598300D01*
X102418540Y-81583060D01*
X102410920Y-81577980D01*
X102393140Y-81572900D01*
X102375360Y-81567820D01*
X102362660Y-81565280D01*
X102360120Y-81565280D01*
X102365200Y-81562740D01*
X102375360Y-81560200D01*
X102398220Y-81552580D01*
X102421080Y-81542420D01*
X102441400Y-81532260D01*
X102446480Y-81527180D01*
X102471880Y-81506860D01*
X102492200Y-81478920D01*
X102507440Y-81450980D01*
X102515060Y-81438280D01*
X102522680Y-81400180D01*
X102522680Y-81362080D01*
X102517600Y-81323980D01*
X102515060Y-81316360D01*
X102497280Y-81280800D01*
X102474420Y-81250320D01*
X102446480Y-81224920D01*
X102413460Y-81204600D01*
X102375360Y-81191900D01*
X102370280Y-81191900D01*
X102344880Y-81189360D01*
X102316940Y-81189360D01*
X102294080Y-81194440D01*
X102286460Y-81194440D01*
X102250900Y-81209680D01*
X102217880Y-81230000D01*
X102189940Y-81260480D01*
X102167080Y-81293500D01*
X102162000Y-81303660D01*
X102156920Y-81321440D01*
X102151840Y-81336680D01*
X102151840Y-81349380D01*
X102151840Y-81351920D01*
X102149300Y-81351920D01*
X102146760Y-81346840D01*
X102144220Y-81336680D01*
X102139140Y-81311280D01*
X102121360Y-81278260D01*
X102098500Y-81250320D01*
X102070560Y-81224920D01*
X102037540Y-81204600D01*
X102037540Y-81204600D01*
X102004520Y-81194440D01*
X101966420Y-81189360D01*
X101928320Y-81191900D01*
X101892760Y-81202060D01*
X101872440Y-81212220D01*
X101839420Y-81232540D01*
X101814020Y-81260480D01*
X101793700Y-81293500D01*
X101778460Y-81331600D01*
X101778460Y-81339220D01*
X101773380Y-81369700D01*
X101775920Y-81397640D01*
X101783540Y-81433200D01*
X101798780Y-81468760D01*
X101821640Y-81499240D01*
X101849580Y-81527180D01*
X101882600Y-81547500D01*
X101920700Y-81560200D01*
X101928320Y-81562740D01*
X101935940Y-81565280D01*
X101935940Y-81565280D01*
X101925780Y-81565280D01*
X101902920Y-81572900D01*
X101880060Y-81583060D01*
X101857200Y-81595760D01*
X101836880Y-81611000D01*
X101811480Y-81638940D01*
X101791160Y-81674500D01*
X101788620Y-81679580D01*
X101775920Y-81715140D01*
X101773380Y-81753240D01*
X101778460Y-81793880D01*
X101791160Y-81829440D01*
X101798780Y-81847220D01*
X101811480Y-81862460D01*
X101826720Y-81880240D01*
X101826720Y-81882780D01*
X101857200Y-81908180D01*
X101892760Y-81925960D01*
X101928320Y-81936120D01*
X101933400Y-81936120D01*
X101971500Y-81938660D01*
%LPC*%
D13*
X86425000Y-87100000D03*
D14*
X85500000Y-87100000D03*
X84700000Y-87100000D03*
D13*
X83775000Y-87100000D03*
X86425000Y-88900000D03*
D14*
X85500000Y-88900000D03*
X84700000Y-88900000D03*
D13*
X83775000Y-88900000D03*
X96625000Y-87100000D03*
D14*
X95700000Y-87100000D03*
X94900000Y-87100000D03*
D13*
X93975000Y-87100000D03*
X96625000Y-88900000D03*
D14*
X95700000Y-88900000D03*
X94900000Y-88900000D03*
D13*
X93975000Y-88900000D03*
D15*
X101600000Y-91440000D03*
D16*
X99060000Y-91440000D03*
X96520000Y-91440000D03*
X93980000Y-91440000D03*
X91440000Y-91440000D03*
X88900000Y-91440000D03*
X86360000Y-91440000D03*
X83820000Y-91440000D03*
X81280000Y-91440000D03*
M02*
