G04 #@! TF.FileFunction,Paste,Top*
%FSLAX46Y46*%
G04 Gerber Fmt 4.6, Leading zero omitted, Abs format (unit mm)*
G04 Created by KiCad (PCBNEW (2015-06-07 BZR 5721)-product) date Tue 09 Jun 2015 07:57:43 PM CEST*
%MOMM*%
G01*
G04 APERTURE LIST*
%ADD10C,0.150000*%
%ADD11R,1.040000X0.800000*%
%ADD12R,0.720000X0.640000*%
%ADD13R,0.480000X0.640000*%
G04 APERTURE END LIST*
D10*
D11*
X91440000Y-82085000D03*
X91440000Y-84285000D03*
D12*
X91440000Y-82285000D03*
X91440000Y-84085000D03*
D13*
X91440000Y-82535000D03*
X91440000Y-83835000D03*
D11*
X88900000Y-82085000D03*
X88900000Y-84285000D03*
D12*
X88900000Y-82285000D03*
X88900000Y-84085000D03*
D13*
X88900000Y-82535000D03*
X88900000Y-83835000D03*
D11*
X86360000Y-82085000D03*
X86360000Y-84285000D03*
D12*
X86360000Y-82285000D03*
X86360000Y-84085000D03*
D13*
X86360000Y-82535000D03*
X86360000Y-83835000D03*
D11*
X83820000Y-82085000D03*
X83820000Y-84285000D03*
D12*
X83820000Y-82285000D03*
X83820000Y-84085000D03*
D13*
X83820000Y-82535000D03*
X83820000Y-83835000D03*
D11*
X81280000Y-82085000D03*
X81280000Y-84285000D03*
D12*
X81280000Y-82285000D03*
X81280000Y-84085000D03*
D13*
X81280000Y-82535000D03*
X81280000Y-83835000D03*
D11*
X81280000Y-86530000D03*
X81280000Y-88730000D03*
D12*
X81280000Y-86730000D03*
X81280000Y-88530000D03*
D13*
X81280000Y-86980000D03*
X81280000Y-88280000D03*
D11*
X99060000Y-82085000D03*
X99060000Y-84285000D03*
D12*
X99060000Y-82285000D03*
X99060000Y-84085000D03*
D13*
X99060000Y-82535000D03*
X99060000Y-83835000D03*
D11*
X96520000Y-82085000D03*
X96520000Y-84285000D03*
D12*
X96520000Y-82285000D03*
X96520000Y-84085000D03*
D13*
X96520000Y-82535000D03*
X96520000Y-83835000D03*
D11*
X93980000Y-82085000D03*
X93980000Y-84285000D03*
D12*
X93980000Y-82285000D03*
X93980000Y-84085000D03*
D13*
X93980000Y-82535000D03*
X93980000Y-83835000D03*
D11*
X99060000Y-86530000D03*
X99060000Y-88730000D03*
D12*
X99060000Y-86730000D03*
X99060000Y-88530000D03*
D13*
X99060000Y-86980000D03*
X99060000Y-88280000D03*
D11*
X93980000Y-86530000D03*
X93980000Y-88730000D03*
D12*
X93980000Y-86730000D03*
X93980000Y-88530000D03*
D13*
X93980000Y-86980000D03*
X93980000Y-88280000D03*
D11*
X91440000Y-86530000D03*
X91440000Y-88730000D03*
D12*
X91440000Y-86730000D03*
X91440000Y-88530000D03*
D13*
X91440000Y-86980000D03*
X91440000Y-88280000D03*
D11*
X88900000Y-86530000D03*
X88900000Y-88730000D03*
D12*
X88900000Y-86730000D03*
X88900000Y-88530000D03*
D13*
X88900000Y-86980000D03*
X88900000Y-88280000D03*
D11*
X86360000Y-86530000D03*
X86360000Y-88730000D03*
D12*
X86360000Y-86730000D03*
X86360000Y-88530000D03*
D13*
X86360000Y-86980000D03*
X86360000Y-88280000D03*
D11*
X83820000Y-86530000D03*
X83820000Y-88730000D03*
D12*
X83820000Y-86730000D03*
X83820000Y-88530000D03*
D13*
X83820000Y-86980000D03*
X83820000Y-88280000D03*
D11*
X96520000Y-86530000D03*
X96520000Y-88730000D03*
D12*
X96520000Y-86730000D03*
X96520000Y-88530000D03*
D13*
X96520000Y-86980000D03*
X96520000Y-88280000D03*
M02*
